<svg viewBox="0 0 300 120" xmlns="http://www.w3.org/2000/svg" stroke="black" stroke-width="0.5" fill="white">

  <svg x="0" y="0">
    <circle cx="5" cy="5" r="3.5" fill="black"/>
    <circle cx="15" cy="5" r="3.5"/>
    <circle cx="5" cy="15" r="3.5"/>
    <circle cx="15" cy="15" r="3.5"/>
    <circle cx="5" cy="25" r="3.5" stroke-dasharray="1,1"/>
    <circle cx="15" cy="25" r="3.5" stroke-dasharray="1,1"/>

    <text x="10" y="42" fill="black" font-size="10px" stroke-width="0" text-anchor="middle" font-family="sans-serif">1</text>
  </svg>

  <svg x="30" y="0">
    <circle cx="5" cy="5" r="3.5" fill="black"/>
    <circle cx="15" cy="5" r="3.5"/>
    <circle cx="5" cy="15" r="3.5" fill="black"/>
    <circle cx="15" cy="15" r="3.5"/>
    <circle cx="5" cy="25" r="3.5" stroke-dasharray="1,1"/>
    <circle cx="15" cy="25" r="3.5" stroke-dasharray="1,1"/>

    <text x="10" y="42" fill="black" font-size="10px" stroke-width="0" text-anchor="middle" font-family="sans-serif">2</text>
  </svg>

  <svg x="60" y="0">
    <circle cx="5" cy="5" r="3.5" fill="black"/>
    <circle cx="15" cy="5" r="3.5" fill="black"/>
    <circle cx="5" cy="15" r="3.5"/>
    <circle cx="15" cy="15" r="3.5"/>
    <circle cx="5" cy="25" r="3.5" stroke-dasharray="1,1"/>
    <circle cx="15" cy="25" r="3.5" stroke-dasharray="1,1"/>

    <text x="10" y="42" fill="black" font-size="10px" stroke-width="0" text-anchor="middle" font-family="sans-serif">3</text>
  </svg>

  <svg x="90" y="0">
    <circle cx="5" cy="5" r="3.5" fill="black"/>
    <circle cx="15" cy="5" r="3.5" fill="black"/>
    <circle cx="5" cy="15" r="3.5"/>
    <circle cx="15" cy="15" r="3.5" fill="black"/>
    <circle cx="5" cy="25" r="3.5" stroke-dasharray="1,1"/>
    <circle cx="15" cy="25" r="3.5" stroke-dasharray="1,1"/>

    <text x="10" y="42" fill="black" font-size="10px" stroke-width="0" text-anchor="middle" font-family="sans-serif">4</text>
  </svg>

  <svg x="120" y="0">
    <circle cx="5" cy="5" r="3.5" fill="black"/>
    <circle cx="15" cy="5" r="3.5"/>
    <circle cx="5" cy="15" r="3.5"/>
    <circle cx="15" cy="15" r="3.5" fill="black"/>
    <circle cx="5" cy="25" r="3.5" stroke-dasharray="1,1"/>
    <circle cx="15" cy="25" r="3.5" stroke-dasharray="1,1"/>

    <text x="10" y="42" fill="black" font-size="10px" stroke-width="0" text-anchor="middle" font-family="sans-serif">5</text>
  </svg>

  <svg x="150" y="0">
    <circle cx="5" cy="5" r="3.5" fill="black"/>
    <circle cx="15" cy="5" r="3.5" fill="black"/>
    <circle cx="5" cy="15" r="3.5" fill="black"/>
    <circle cx="15" cy="15" r="3.5"/>
    <circle cx="5" cy="25" r="3.5" stroke-dasharray="1,1"/>
    <circle cx="15" cy="25" r="3.5" stroke-dasharray="1,1"/>

    <text x="10" y="42" fill="black" font-size="10px" stroke-width="0" text-anchor="middle" font-family="sans-serif">6</text>
  </svg>

  <svg x="180" y="0">
    <circle cx="5" cy="5" r="3.5" fill="black"/>
    <circle cx="15" cy="5" r="3.5" fill="black"/>
    <circle cx="5" cy="15" r="3.5" fill="black"/>
    <circle cx="15" cy="15" r="3.5" fill="black"/>
    <circle cx="5" cy="25" r="3.5" stroke-dasharray="1,1"/>
    <circle cx="15" cy="25" r="3.5" stroke-dasharray="1,1"/>

    <text x="10" y="42" fill="black" font-size="10px" stroke-width="0" text-anchor="middle" font-family="sans-serif">7</text>
  </svg>

  <svg x="210" y="0">
    <circle cx="5" cy="5" r="3.5" fill="black"/>
    <circle cx="15" cy="5" r="3.5"/>
    <circle cx="5" cy="15" r="3.5" fill="black"/>
    <circle cx="15" cy="15" r="3.5" fill="black"/>
    <circle cx="5" cy="25" r="3.5" stroke-dasharray="1,1"/>
    <circle cx="15" cy="25" r="3.5" stroke-dasharray="1,1"/>

    <text x="10" y="42" fill="black" font-size="10px" stroke-width="0" text-anchor="middle" font-family="sans-serif">8</text>
  </svg>

  <svg x="240" y="0">
    <circle cx="5" cy="5" r="3.5"/>
    <circle cx="15" cy="5" r="3.5" fill="black"/>
    <circle cx="5" cy="15" r="3.5" fill="black"/>
    <circle cx="15" cy="15" r="3.5"/>
    <circle cx="5" cy="25" r="3.5" stroke-dasharray="1,1"/>
    <circle cx="15" cy="25" r="3.5" stroke-dasharray="1,1"/>

    <text x="10" y="42" fill="black" font-size="10px" stroke-width="0" text-anchor="middle" font-family="sans-serif">9</text>
  </svg>

  <svg x="270" y="0">
    <circle cx="5" cy="5" r="3.5"/>
    <circle cx="15" cy="5" r="3.5" fill="black"/>
    <circle cx="5" cy="15" r="3.5" fill="black"/>
    <circle cx="15" cy="15" r="3.5" fill="black"/>
    <circle cx="5" cy="25" r="3.5" stroke-dasharray="1,1"/>
    <circle cx="15" cy="25" r="3.5" stroke-dasharray="1,1"/>

    <text x="10" y="42" fill="black" font-size="10px" stroke-width="0" text-anchor="middle" font-family="sans-serif">10</text>
  </svg>

  <svg x="50" y="60">
    <circle cx="15" cy="5" r="3.5" stroke-dasharray="1,1"/>
    <circle cx="25" cy="5" r="3.5" stroke-dasharray="1,1"/>
    <circle cx="15" cy="15" r="3.5" stroke-dasharray="1,1"/>
    <circle cx="25" cy="15" r="3.5" stroke-dasharray="1,1"/>
    <circle cx="15" cy="25" r="3.5"/>
    <circle cx="25" cy="25" r="3.5"/>

    <text x="20" y="42" fill="black" font-size="10px" stroke-width="0" text-anchor="middle" font-family="sans-serif">first</text>
    <text x="20" y="53" fill="black" font-size="10px" stroke-width="0" text-anchor="middle" font-family="sans-serif">decade</text>
  </svg>
    

  <svg x="100" y="60">
    <circle cx="15" cy="5" r="3.5" stroke-dasharray="1,1"/>
    <circle cx="25" cy="5" r="3.5" stroke-dasharray="1,1"/>
    <circle cx="15" cy="15" r="3.5" stroke-dasharray="1,1"/>
    <circle cx="25" cy="15" r="3.5" stroke-dasharray="1,1"/>
    <circle cx="15" cy="25" r="3.5" fill="black"/>
    <circle cx="25" cy="25" r="3.5"/>

    <text x="20" y="42" fill="black" font-size="10px" stroke-width="0" text-anchor="middle" font-family="sans-serif">second</text>
    <text x="20" y="53" fill="black" font-size="10px" stroke-width="0" text-anchor="middle" font-family="sans-serif">decade</text>
  </svg>
    

  <svg x="150" y="60">
    <circle cx="15" cy="5" r="3.5" stroke-dasharray="1,1"/>
    <circle cx="25" cy="5" r="3.5" stroke-dasharray="1,1"/>
    <circle cx="15" cy="15" r="3.5" stroke-dasharray="1,1"/>
    <circle cx="25" cy="15" r="3.5" stroke-dasharray="1,1"/>
    <circle cx="15" cy="25" r="3.5" fill="black"/>
    <circle cx="25" cy="25" r="3.5" fill="black"/>

    <text x="20" y="42" fill="black" font-size="10px" stroke-width="0" text-anchor="middle" font-family="sans-serif">third</text>
    <text x="20" y="53" fill="black" font-size="10px" stroke-width="0" text-anchor="middle" font-family="sans-serif">decade</text>
  </svg>
    

  <svg x="200" y="60">
    <circle cx="15" cy="5" r="3.5" stroke-dasharray="1,1"/>
    <circle cx="25" cy="5" r="3.5" stroke-dasharray="1,1"/>
    <circle cx="15" cy="15" r="3.5" stroke-dasharray="1,1"/>
    <circle cx="25" cy="15" r="3.5" stroke-dasharray="1,1"/>
    <circle cx="15" cy="25" r="3.5"/>
    <circle cx="25" cy="25" r="3.5" fill="black"/>

    <text x="20" y="42" fill="black" font-size="10px" stroke-width="0" text-anchor="middle" font-family="sans-serif">fourth</text>
    <text x="20" y="53" fill="black" font-size="10px" stroke-width="0" text-anchor="middle" font-family="sans-serif">decade</text>
  </svg>
    
</svg>
