<svg
   xmlns:svg="http://www.w3.org/2000/svg"
   xmlns="http://www.w3.org/2000/svg"
   xmlns:xlink="http://www.w3.org/1999/xlink"
   width="197.14"
   height="170">

  <defs>
    <g id="colouredRectangle">
      <rect
         style="fill-rule:evenodd;stroke:#000000;stroke-width:1.5;stroke-linecap:butt;stroke-linejoin:miter;stroke-miterlimit:4;stroke-dasharray:none;stroke-opacity:1"
         width="11"
         height="11"
         x="0"
         y="0"
         rx="3"
         ry="1" />
    </g>
    
    <style>
      path.movementLine {
        fill: none;
        stroke: #000000;
        stroke-width: 1px;
        stroke-linecap: butt;
      }
    </style>
  </defs>

  <path
     style="fill:#ccffaa;stroke:#000000;stroke-width:1.5;stroke-miterlimit:4;stroke-dasharray:1.5, 2.99999999;stroke-dashoffset:0"
     id="path4330"
     d="M 82.14286 16.785713 A 7.5 6.7857141 0 1 1  67.14286,16.785713 A 7.5 6.7857141 0 1 1  82.14286 16.785713 z"
     transform="matrix(0.9048697,0,0,1.0001192,9.9579374,85.712286)" />
  <path
     style="fill:#aaccff;stroke:#000000;stroke-width:1.5;stroke-miterlimit:4;stroke-dasharray:1.5, 2.99999999;stroke-dashoffset:0"
     id="path6276"
     d="M 82.14286 16.785713 A 7.5 6.7857141 0 1 1  67.14286,16.785713 A 7.5 6.7857141 0 1 1  82.14286 16.785713 z"
     transform="matrix(0.9048697,0,0,1.0001192,89.957937,85.712286)" />
  <use xlink:href="#colouredRectangle" x="43.892857" y="46.392857" fill="#ff0000"/>
  <use xlink:href="#colouredRectangle" x="43.892857" y="64.25" fill="#00ff00"/>
  <use xlink:href="#colouredRectangle" x="43.892857" y="83.535713" fill="#00ff00"/>
  <use xlink:href="#colouredRectangle" x="158.07144" y="43.785713" fill="#0000ff"/>
  <use xlink:href="#colouredRectangle" x="158.07144" y="62.35714" fill="#0000ff"/>
  <use xlink:href="#colouredRectangle" x="158.07143" y="78.785713" fill="#0000ff"/>
  <use xlink:href="#colouredRectangle" x="73.785713" y="118.07142" fill="#00ff00"/>
  <use xlink:href="#colouredRectangle" x="73.071434" y="136.64287" fill="#00ff00"/>
  <use xlink:href="#colouredRectangle" x="90.214287" y="150.21429" fill="#00ff00"/>
  <use xlink:href="#colouredRectangle" x="110.21429" y="150.92857" fill="#00ff00"/>
  <use xlink:href="#colouredRectangle" x="128.07143" y="116.64285" fill="#0000ff"/>
  <use xlink:href="#colouredRectangle" x="128.78572" y="135.92857" fill="#0000ff"/>
  <path
     style="fill:#ff0000;stroke:#000000;stroke-width:1.5;stroke-miterlimit:4;stroke-dasharray:none"
     d="M 82.14286 16.785713 A 7.5 6.7857141 0 1 1  67.14286,16.785713 A 7.5 6.7857141 0 1 1  82.14286 16.785713 z"
     transform="matrix(0.9048697,0,0,1.0001192,-17.899205,34.998002)" />
  <path
     style="fill:#00ff00;stroke:#000000;stroke-width:1.5;stroke-miterlimit:4;stroke-dasharray:none"
     d="M 82.14286 16.785713 A 7.5 6.7857141 0 1 1  67.14286,16.785713 A 7.5 6.7857141 0 1 1  82.14286 16.785713 z"
     transform="matrix(0.9048697,0,0,1.0001192,13.386508,101.42658)" />
  <path
     style="fill:#0000ff;stroke:#000000;stroke-width:1.5;stroke-miterlimit:4;stroke-dasharray:none"
     d="M 82.14286 16.785713 A 7.5 6.7857141 0 1 1  67.14286,16.785713 A 7.5 6.7857141 0 1 1  82.14286 16.785713 z"
     transform="matrix(0.9048697,0,0,1.0001192,85.357937,75.712286)" />
  <path class="movementLine" d="M 53.459731,76 L 76.024497,110.67768" />
  <path class="movementLine" d="M 55.642857,94.818558 L 73.463396,111.3071" />
  <path class="movementLine" d="M 79.187104,135.89287 L 80.18616,125.75091" />
  <path class="movementLine" d="M 93.250001,149.46429 L 83.90015,125.75091" />
  <path class="movementLine" d="M 110.02503,150.17857 L 87.789003,125.75091" />
  <path class="movementLine" d="M 136.66346,135.17857 L 150.03279,100.03661" />
  <path class="movementLine" d="M 137.64673,115.89285 L 147.98576,100.03661" />
  <path class="movementLine" d="M 157.32143,89.096625 L 160.36517,86.753712" />
  <path class="movementLine" d="M 160.86492,74.10714 L 156.16368,84.963388" />
  <path class="movementLine" d="M 162.02805,55.535713 L 154.76111,84.963388" />
  <path
     style="fill:#ffaaaa;stroke:#000000;stroke-width:1.5;stroke-miterlimit:4;stroke-dasharray:1.5, 2.99999999;stroke-dashoffset:0"
     id="path2188"
     d="M 82.14286 16.785713 A 7.5 6.7857141 0 1 1  67.14286,16.785713 A 7.5 6.7857141 0 1 1  82.14286 16.785713 z"
     transform="matrix(0.9048697,0,0,1.0001192,9.9579374,5.7122856)" />
  <path
     style="fill:none;fill-rule:evenodd;stroke:#000000;stroke-width:0.74500251;stroke-linecap:butt;stroke-linejoin:miter;marker-mid:none;marker-end:url(#TriangleOutL);stroke-miterlimit:4;stroke-dasharray:0.74500253, 1.49000507;stroke-dashoffset:0;stroke-opacity:1"
     d="M 76.55607,21.301072 L 56.293804,42.502105" />
  <path
     style="fill:#ff0000;fill-rule:evenodd;stroke:#000000;stroke-width:1;stroke-linecap:butt;stroke-linejoin:miter;stroke-opacity:1;marker-end:url(#TriangleOutM);stroke-miterlimit:4;stroke-dasharray:1,2;stroke-dashoffset:0"
     d="M 78.571429,102.14286 L 81.428571,117.14286" />
  <path
     style="fill:none;fill-rule:evenodd;stroke:#000000;stroke-width:1;stroke-linecap:butt;stroke-linejoin:miter;stroke-opacity:1;marker-end:url(#TriangleOutM);stroke-miterlimit:4;stroke-dasharray:1,2;stroke-dashoffset:0"
     d="M 157.85714,102.85714 L 152.85714,93.571429"/>
</svg>
