<?xml version="1.0" encoding="UTF-8"?>
<svg width="570px" height="285px" viewBox="0 0 114 57" version="1.1" xmlns="http://www.w3.org/2000/svg" xmlns:xlink="http://www.w3.org/1999/xlink">
    <title>Icon-Resource/Storage/Res_Amazon-Simple-Storage_General-Access-Points_48_Dark</title>

    <defs>
      <mask id="blockArrow">
        <rect x="0" y="0" width="100" height="100" fill="white"/>
        <rect x="25" y="20" width="8" height="100" fill="black"/>
      </mask>
    </defs>

    <svg x="33">
      <g id="Icon-Resource/Managment-Governance/Res_AWS-System-Manager_Documents_48" stroke="none" stroke-width="1" fill="none" fill-rule="evenodd">
          <path d="M18.491,43.965 L18.491,10.994 L31.354,10.994 L31.354,18.736 C31.354,19.289 31.801,19.736 32.354,19.736 L40.096,19.736 L40.096,43.965 L18.491,43.965 Z M33.354,12.408 L38.682,17.736 L33.354,17.736 L33.354,12.408 Z M41.803,18.029 L33.061,9.287 C32.873,9.1 32.619,8.994 32.354,8.994 L17.491,8.994 C16.939,8.994 16.491,9.442 16.491,9.994 L16.491,44.965 C16.491,45.518 16.939,45.965 17.491,45.965 L41.096,45.965 C41.649,45.965 42.096,45.518 42.096,44.965 L42.096,18.736 C42.096,18.471 41.99,18.217 41.803,18.029 L41.803,18.029 Z" id="AWS-System-Manager_documents_Resource-Icon_light-bg" fill="#6CAE3E" mask="url(#blockArrow)"></path>
      </g>


      <svg x="5" y="10">
        <g id="Icon-Resource/Storage/Res_Amazon-Simple-Storage_General-Access-Points_48" stroke="none" stroke-width="1" fill="none" fill-rule="evenodd">
          <svg x="-1" y="-1">
            <path d="M30.5762,21.9659 C29.2062,21.9659 28.0912,23.0809 28.0912,24.4509 C28.0912,25.8209 29.2062,26.9359 30.5762,26.9359 C31.9462,26.9359 33.0602,25.8209 33.0602,24.4509 C33.0602,23.0809 31.9462,21.9659 30.5762,21.9659 L30.5762,21.9659 Z M30.5762,19.9659 C33.0492,19.9659 35.0602,21.9779 35.0602,24.4509 C35.0602,26.9239 33.0492,28.9359 30.5762,28.9359 C28.1022,28.9359 26.0912,26.9239 26.0912,24.4509 C26.0912,21.9779 28.1022,19.9659 30.5762,19.9659 L30.5762,19.9659" id="Amazon-Simple-Storage_General-Access-Points_Resource-Icon_light-bg" fill="#6CAE3E"></path>
          </svg>
          <svg x="-7" y="-3">
            <path d="M30.2062,14.8899 L28.0422,10.9329 L25.7862,14.8899 L30.2062,14.8899 Z M32.7692,15.4099 C32.9392,15.7199 32.9322,16.0959 32.7532,16.3999 C32.5722,16.7029 32.2462,16.8899 31.8922,16.8899 L24.0641905,16.8899 C23.7082,16.8899 23.3792,16.6999 23.2002,16.3919 C23.0202,16.0839 23.0192,15.7039 23.1952,15.3949 L27.1912,8.3869 C27.3712,8.0709 27.6992,7.8919 28.0692,7.8819 C28.4312,7.8849 28.7642,8.0839 28.9372,8.4029 L32.7692,15.4099 Z" id="Amazon-Simple-Storage_General-Access-Points_Resource-Icon_light-bg" fill="#6CAE3E"></path>
          </svg>
          <svg x="3" y="1">
            <path d="M13.8572,21.9949 L17.9192,21.9949 L17.9192,17.9319 L13.8572,17.9319 L13.8572,21.9949 Z M18.9192,15.9319 C19.4722,15.9319 19.9192,16.3789 19.9192,16.9319 L19.9192,22.9949 C19.9192,23.5479 19.4722,23.9949 18.9192,23.9949 L12.8562,23.9949 C12.3042,23.9949 11.8562,23.5479 11.8562,22.9949 L11.8562,16.9319 C11.8562,16.3789 12.3042,15.9319 12.8562,15.9319 L18.9192,15.9319 Z" id="Amazon-Simple-Storage_General-Access-Points_Resource-Icon_light-bg" fill="#6CAE3E"></path>
          </svg>
          <path d="M25.0092,42.5059 L25.0092,30.2919 L23.0092,30.2919 L23.0092,42.5859 L19.7642,39.3419 L18.3502,40.7559 L23.2622,45.6669 C23.4572,45.8619 23.7132,45.9599 23.9692,45.9599 C24.2242,45.9599 24.4802,45.8619 24.6762,45.6669 L29.5972,40.7449 L28.1832,39.3309 L25.0092,42.5059 Z" fill="#6CAE3E"></path>
        </g>
      </svg>
    </svg>
</svg>