<?xml version="1.0" encoding="UTF-8"?>
<svg width="1400pt" height="700pt" version="1.1" viewBox="0 0 1400 700" xmlns="http://www.w3.org/2000/svg" xmlns:xlink="http://www.w3.org/1999/xlink">

  <!--
    Intentionally omit the alt text on promos, so screen reader users
    don't have to listen to the alt text before hearing the title
    of the item in the list.

    See https://github.com/wellcomecollection/wellcomecollection.org/issues/6007
  -->
  <title></title>

  <!-- https://thenounproject.com/icon/padlock-2059429/ -->

  <defs>
   <symbol id="s" overflow="visible">
    <path d="m8.5312-0.51562c-0.4375 0.23047-0.89844 0.40234-1.375 0.51562-0.48047 0.125-0.97656 0.1875-1.4844 0.1875-1.5547 0-2.7812-0.42969-3.6875-1.2969-0.89844-0.86328-1.3438-2.0352-1.3438-3.5156 0-1.4883 0.44531-2.6641 1.3438-3.5312 0.90625-0.86328 2.1328-1.2969 3.6875-1.2969 0.50781 0 1.0039 0.058594 1.4844 0.17188 0.47656 0.11719 0.9375 0.28906 1.375 0.51562v1.9219c-0.44922-0.30078-0.88672-0.51953-1.3125-0.65625-0.42969-0.14453-0.88281-0.21875-1.3594-0.21875-0.85547 0-1.5273 0.27734-2.0156 0.82812-0.49219 0.54297-0.73438 1.2969-0.73438 2.2656 0 0.94922 0.24219 1.6992 0.73438 2.25 0.48828 0.55469 1.1602 0.82812 2.0156 0.82812 0.47656 0 0.92969-0.070313 1.3594-0.21875 0.42578-0.14453 0.86328-0.36719 1.3125-0.67188z"/>
   </symbol>
   <symbol id="b" overflow="visible">
    <path d="m6.25-5.0625c-0.19922-0.09375-0.39844-0.16016-0.59375-0.20312-0.1875-0.039063-0.38281-0.0625-0.57812-0.0625-0.57422 0-1.0156 0.18359-1.3281 0.54688-0.30469 0.36719-0.45312 0.89062-0.45312 1.5781v3.2031h-2.2344v-6.9688h2.2344v1.1562c0.28125-0.45703 0.60938-0.78906 0.98438-1 0.375-0.20703 0.81641-0.3125 1.3281-0.3125 0.082031 0 0.16406 0.007812 0.25 0.015625 0.082031 0 0.20703 0.011719 0.375 0.03125z"/>
   </symbol>
   <symbol id="a" overflow="visible">
    <path d="m8.0156-3.5v0.64062h-5.2031c0.050781 0.52344 0.23828 0.91406 0.5625 1.1719 0.33203 0.26172 0.78516 0.39062 1.3594 0.39062 0.46875 0 0.94531-0.066406 1.4375-0.20312 0.5-0.14453 1.0039-0.35938 1.5156-0.64062v1.7188c-0.52344 0.19922-1.0469 0.35156-1.5781 0.45312-0.52344 0.10156-1.0469 0.15625-1.5781 0.15625-1.2617 0-2.2422-0.31641-2.9375-0.95312-0.69922-0.64453-1.0469-1.5469-1.0469-2.7031 0-1.1328 0.34375-2.0234 1.0312-2.6719 0.6875-0.65625 1.6289-0.98438 2.8281-0.98438 1.0938 0 1.9688 0.32812 2.625 0.98438s0.98438 1.5391 0.98438 2.6406zm-2.2812-0.73438c0-0.42578-0.125-0.76953-0.375-1.0312-0.24219-0.25781-0.5625-0.39062-0.96875-0.39062-0.42969 0-0.77734 0.125-1.0469 0.375-0.27344 0.24219-0.4375 0.58984-0.5 1.0469z"/>
   </symbol>
   <symbol id="m" overflow="visible">
    <path d="m4.1875-3.1406c-0.46094 0-0.80859 0.085937-1.0469 0.25-0.23047 0.15625-0.34375 0.38672-0.34375 0.6875 0 0.28125 0.09375 0.50781 0.28125 0.67188 0.1875 0.15625 0.44531 0.23438 0.78125 0.23438 0.41406 0 0.76562-0.14844 1.0469-0.45312 0.28906-0.30078 0.4375-0.67578 0.4375-1.125v-0.26562zm3.4062-0.82812v3.9688h-2.25v-1.0312c-0.29297 0.42969-0.625 0.74219-1 0.9375-0.375 0.1875-0.82812 0.28125-1.3594 0.28125-0.73047 0-1.3203-0.20703-1.7656-0.625-0.44922-0.42578-0.67188-0.97656-0.67188-1.6562 0-0.8125 0.28125-1.4062 0.84375-1.7812 0.5625-0.38281 1.4414-0.57812 2.6406-0.57812h1.3125v-0.17188c0-0.35156-0.14062-0.61328-0.42188-0.78125-0.27344-0.16406-0.70312-0.25-1.2969-0.25-0.46875 0-0.91406 0.054688-1.3281 0.15625-0.40625 0.09375-0.78906 0.23438-1.1406 0.42188v-1.7031c0.47656-0.11328 0.95703-0.19531 1.4375-0.25 0.47656-0.0625 0.95703-0.09375 1.4375-0.09375 1.2578 0 2.1641 0.25 2.7188 0.75 0.5625 0.49219 0.84375 1.293 0.84375 2.4062z"/>
   </symbol>
   <symbol id="d" overflow="visible">
    <path d="m3.5-8.9375v1.9688h2.2969v1.5938h-2.2969v2.9531c0 0.32422 0.0625 0.54297 0.1875 0.65625 0.13281 0.11719 0.39062 0.17188 0.76562 0.17188h1.1562v1.5938h-1.9219c-0.875 0-1.4961-0.17969-1.8594-0.54688-0.36719-0.36328-0.54688-0.98828-0.54688-1.875v-2.9531h-1.1094v-1.5938h1.1094v-1.9688z"/>
   </symbol>
   <symbol id="l" overflow="visible">
    <path d="m5.8125-5.9375v-3.7344h2.2344v9.6719h-2.2344v-1c-0.3125 0.40625-0.65625 0.71094-1.0312 0.90625-0.36719 0.1875-0.78906 0.28125-1.2656 0.28125-0.86719 0-1.5742-0.33594-2.125-1.0156-0.54297-0.6875-0.8125-1.5664-0.8125-2.6406 0-1.082 0.26953-1.9609 0.8125-2.6406 0.55078-0.67578 1.2578-1.0156 2.125-1.0156 0.47656 0 0.89844 0.10156 1.2656 0.29688 0.375 0.1875 0.71875 0.48438 1.0312 0.89062zm-1.4688 4.5c0.47656 0 0.84375-0.17188 1.0938-0.51562 0.25-0.35156 0.375-0.85938 0.375-1.5156 0-0.66406-0.125-1.1719-0.375-1.5156-0.25-0.35156-0.61719-0.53125-1.0938-0.53125-0.48047 0-0.84375 0.17969-1.0938 0.53125-0.25 0.34375-0.375 0.85156-0.375 1.5156 0 0.65625 0.125 1.1641 0.375 1.5156 0.25 0.34375 0.61328 0.51562 1.0938 0.51562z"/>
   </symbol>
   <symbol id="k" overflow="visible">
    <path d="m4.7812-1.4375c0.46875 0 0.82812-0.17188 1.0781-0.51562 0.25781-0.35156 0.39062-0.85938 0.39062-1.5156 0-0.66406-0.13281-1.1719-0.39062-1.5156-0.25-0.35156-0.60938-0.53125-1.0781-0.53125-0.48047 0-0.85156 0.17969-1.1094 0.53125-0.25 0.34375-0.375 0.85156-0.375 1.5156 0 0.65625 0.125 1.1641 0.375 1.5156 0.25781 0.34375 0.62891 0.51562 1.1094 0.51562zm-1.4844-4.5c0.30078-0.40625 0.64062-0.70312 1.0156-0.89062 0.375-0.19531 0.80469-0.29688 1.2969-0.29688 0.85156 0 1.5547 0.33984 2.1094 1.0156 0.55078 0.67969 0.82812 1.5586 0.82812 2.6406 0 1.0742-0.27734 1.9531-0.82812 2.6406-0.55469 0.67969-1.2578 1.0156-2.1094 1.0156-0.49219 0-0.92188-0.09375-1.2969-0.28125-0.375-0.19531-0.71484-0.5-1.0156-0.90625v1h-2.2344v-9.6719h2.2344z"/>
   </symbol>
   <symbol id="j" overflow="visible">
    <path d="m0.15625-6.9688h2.2188l1.875 4.7344 1.5938-4.7344h2.2344l-2.9375 7.625c-0.29297 0.78125-0.63672 1.3203-1.0312 1.625-0.38672 0.3125-0.90234 0.46875-1.5469 0.46875h-1.2812v-1.4688h0.6875c0.375 0 0.64453-0.0625 0.8125-0.1875 0.17578-0.11719 0.31641-0.32812 0.42188-0.64062l0.0625-0.1875z"/>
   </symbol>
   <symbol id="i" overflow="visible">
    <path d="m5.8125-1.1875c-0.3125 0.40625-0.65625 0.71094-1.0312 0.90625-0.36719 0.1875-0.78906 0.28125-1.2656 0.28125-0.85547 0-1.5586-0.33203-2.1094-1-0.55469-0.67578-0.82812-1.5312-0.82812-2.5625 0-1.0391 0.27344-1.8945 0.82812-2.5625 0.55078-0.66406 1.2539-1 2.1094-1 0.47656 0 0.89844 0.10156 1.2656 0.29688 0.375 0.1875 0.71875 0.48438 1.0312 0.89062v-1.0312h2.2344v6.2656c0 1.1133-0.35547 1.9688-1.0625 2.5625-0.71094 0.59375-1.7344 0.89062-3.0781 0.89062-0.42969 0-0.84375-0.039062-1.25-0.10938-0.40625-0.0625-0.82031-0.16406-1.2344-0.29688v-1.7344c0.39453 0.21875 0.77344 0.38281 1.1406 0.5 0.375 0.11328 0.75 0.17188 1.125 0.17188 0.72656 0 1.2656-0.16406 1.6094-0.48438 0.34375-0.32422 0.51562-0.82031 0.51562-1.5zm-1.4688-4.3281c-0.46094 0-0.82031 0.17188-1.0781 0.51562-0.26172 0.33594-0.39062 0.8125-0.39062 1.4375 0 0.63672 0.125 1.1211 0.375 1.4531 0.25 0.33594 0.61328 0.5 1.0938 0.5 0.45703 0 0.81641-0.17188 1.0781-0.51562 0.25781-0.34375 0.39062-0.82031 0.39062-1.4375 0-0.625-0.13281-1.1016-0.39062-1.4375-0.26172-0.34375-0.62109-0.51562-1.0781-0.51562z"/>
   </symbol>
   <symbol id="h" overflow="visible">
    <path d="m1-2.7188v-4.25h2.2344v0.70312c0 0.375-0.007813 0.85156-0.015625 1.4219v1.1406c0 0.5625 0.015625 0.96875 0.046875 1.2188 0.03125 0.24219 0.078125 0.41797 0.14062 0.53125 0.09375 0.14844 0.21094 0.26172 0.35938 0.34375 0.14453 0.074219 0.31641 0.10938 0.51562 0.10938 0.45703 0 0.81641-0.17578 1.0781-0.53125 0.26953-0.36328 0.40625-0.86328 0.40625-1.5v-3.4375h2.2344v6.9688h-2.2344v-1c-0.33594 0.40625-0.6875 0.71094-1.0625 0.90625-0.375 0.1875-0.78906 0.28125-1.2344 0.28125-0.8125 0-1.4297-0.24219-1.8438-0.73438-0.41797-0.5-0.625-1.2227-0.625-2.1719z"/>
   </symbol>
   <symbol id="g" overflow="visible">
    <path d="m5.6562-9.6719v1.4531h-1.2344c-0.3125 0-0.53125 0.058594-0.65625 0.17188-0.125 0.11719-0.1875 0.3125-0.1875 0.59375v0.48438h1.9062v1.5938h-1.9062v5.375h-2.2344v-5.375h-1.0938v-1.5938h1.0938v-0.48438c0-0.75781 0.21094-1.3164 0.64062-1.6719 0.42578-0.36328 1.082-0.54688 1.9688-0.54688z"/>
   </symbol>
   <symbol id="c" overflow="visible">
    <path d="m4.3906-5.5469c-0.5 0-0.88281 0.17969-1.1406 0.53125-0.26172 0.35547-0.39062 0.87109-0.39062 1.5469 0 0.66797 0.12891 1.1797 0.39062 1.5312 0.25781 0.35547 0.64062 0.53125 1.1406 0.53125 0.47656 0 0.84375-0.17578 1.0938-0.53125 0.25781-0.35156 0.39062-0.86328 0.39062-1.5312 0-0.67578-0.13281-1.1914-0.39062-1.5469-0.25-0.35156-0.61719-0.53125-1.0938-0.53125zm0-1.5781c1.1953 0 2.1289 0.32422 2.7969 0.96875 0.67578 0.64844 1.0156 1.543 1.0156 2.6875 0 1.1367-0.33984 2.0312-1.0156 2.6875-0.66797 0.64844-1.6016 0.96875-2.7969 0.96875-1.2109 0-2.1523-0.32031-2.8281-0.96875-0.67969-0.65625-1.0156-1.5508-1.0156-2.6875 0-1.1445 0.33594-2.0391 1.0156-2.6875 0.67578-0.64453 1.6172-0.96875 2.8281-0.96875z"/>
   </symbol>
   <symbol id="f" overflow="visible">
    <path d="m8.0781-4.2344v4.2344h-2.25v-3.25c0-0.59375-0.015625-1.0039-0.046875-1.2344-0.023438-0.22656-0.0625-0.39844-0.125-0.51562-0.09375-0.13281-0.21484-0.24219-0.35938-0.32812-0.14844-0.082031-0.32031-0.125-0.51562-0.125-0.46094 0-0.82422 0.18359-1.0938 0.54688-0.26172 0.35547-0.39062 0.85156-0.39062 1.4844v3.4219h-2.2344v-6.9688h2.2344v1.0312c0.33203-0.40625 0.6875-0.70312 1.0625-0.89062 0.38281-0.19531 0.80078-0.29688 1.25-0.29688 0.8125 0 1.4258 0.24609 1.8438 0.73438 0.41406 0.49219 0.625 1.2109 0.625 2.1562z"/>
   </symbol>
   <symbol id="e" overflow="visible">
    <path d="m7.5312-5.8125c0.28125-0.42578 0.61328-0.75 1-0.96875 0.38281-0.22656 0.8125-0.34375 1.2812-0.34375 0.78906 0 1.3945 0.24609 1.8125 0.73438 0.42578 0.49219 0.64062 1.2109 0.64062 2.1562v4.2344h-2.25v-3.625c0.007813-0.0625 0.015625-0.11719 0.015625-0.17188v-0.25c0-0.48828-0.074219-0.84375-0.21875-1.0625-0.14844-0.22656-0.38281-0.34375-0.70312-0.34375-0.41797 0-0.74219 0.17969-0.96875 0.53125-0.23047 0.34375-0.35156 0.84375-0.35938 1.5v3.4219h-2.2344v-3.625c0-0.76953-0.070313-1.2656-0.20312-1.4844-0.13672-0.22656-0.375-0.34375-0.71875-0.34375-0.42969 0-0.75781 0.17969-0.98438 0.53125-0.23047 0.34375-0.34375 0.84375-0.34375 1.5v3.4219h-2.2344v-6.9688h2.2344v1.0312c0.26953-0.39453 0.58203-0.69141 0.9375-0.89062 0.35156-0.19531 0.74219-0.29688 1.1719-0.29688 0.47656 0 0.89844 0.11719 1.2656 0.34375 0.375 0.23047 0.66016 0.55469 0.85938 0.96875z"/>
   </symbol>
   <symbol id="r" overflow="visible">
    <path d="m8.0781-4.2344v4.2344h-2.25v-3.2344c0-0.60156-0.015625-1.0195-0.046875-1.25-0.023438-0.22656-0.0625-0.39844-0.125-0.51562-0.09375-0.13281-0.21484-0.24219-0.35938-0.32812-0.14844-0.082031-0.32031-0.125-0.51562-0.125-0.46094 0-0.82422 0.18359-1.0938 0.54688-0.26172 0.35547-0.39062 0.85156-0.39062 1.4844v3.4219h-2.2344v-9.6719h2.2344v3.7344c0.33203-0.40625 0.6875-0.70312 1.0625-0.89062 0.38281-0.19531 0.80078-0.29688 1.25-0.29688 0.8125 0 1.4258 0.24609 1.8438 0.73438 0.41406 0.49219 0.625 1.2109 0.625 2.1562z"/>
   </symbol>
   <symbol id="q" overflow="visible">
    <path d="m1.1719-9.2812h2.6719l3.375 6.3594v-6.3594h2.2656v9.2812h-2.6719l-3.375-6.375v6.375h-2.2656z"/>
   </symbol>
   <symbol id="p" overflow="visible">
    <path d="m1.1719-9.2812h3.9688c1.1875 0 2.0938 0.26562 2.7188 0.79688 0.63281 0.52344 0.95312 1.2656 0.95312 2.2344s-0.32031 1.7188-0.95312 2.25c-0.625 0.52344-1.5312 0.78125-2.7188 0.78125h-1.5781v3.2188h-2.3906zm2.3906 1.7344v2.5938h1.3281c0.45703 0 0.8125-0.11328 1.0625-0.34375 0.25781-0.22656 0.39062-0.54688 0.39062-0.95312 0-0.41406-0.13281-0.73438-0.39062-0.95312-0.25-0.22656-0.60547-0.34375-1.0625-0.34375z"/>
   </symbol>
   <symbol id="o" overflow="visible">
    <path d="m1.0625-6.9688h2.2344v6.8438c0 0.9375-0.22656 1.6484-0.67188 2.1406-0.44922 0.48828-1.1016 0.73438-1.9531 0.73438h-1.0938v-1.4688h0.39062c0.41406 0 0.70312-0.09375 0.85938-0.28125s0.23438-0.5625 0.23438-1.125zm0-2.7031h2.2344v1.8125h-2.2344z"/>
   </symbol>
   <symbol id="n" overflow="visible">
    <path d="m6.7031-6.75v1.8125c-0.30469-0.19531-0.60938-0.34766-0.92188-0.45312-0.30469-0.10156-0.61719-0.15625-0.9375-0.15625-0.625 0-1.1172 0.18359-1.4688 0.54688-0.34375 0.36719-0.51562 0.875-0.51562 1.5312 0 0.64844 0.17188 1.1523 0.51562 1.5156 0.35156 0.36719 0.84375 0.54688 1.4688 0.54688 0.34375 0 0.67188-0.050781 0.98438-0.15625 0.3125-0.10156 0.60156-0.25781 0.875-0.46875v1.8281c-0.35547 0.125-0.71484 0.21875-1.0781 0.28125-0.35547 0.070313-0.71094 0.10938-1.0625 0.10938-1.2617 0-2.2461-0.32031-2.9531-0.96875-0.71094-0.64453-1.0625-1.5391-1.0625-2.6875 0-1.1562 0.35156-2.0508 1.0625-2.6875 0.70703-0.64453 1.6914-0.96875 2.9531-0.96875 0.36328 0 0.72266 0.03125 1.0781 0.09375 0.35156 0.0625 0.70703 0.15625 1.0625 0.28125z"/>
   </symbol>
  </defs>

  <svg x="350" y="100">
   <path d="m123.45 338.55 137.45-71.273-10.184 33.09c-10.184 28 5.0898 58.547 30.547 68.727l162.91 56c-2.5469 0-2.5469 2.5469-5.0898 2.5469l-252 127.27c-17.816 10.184-40.727 2.5469-48.363-15.273l-68.727-132.36c-7.6367-17.816-2.5469-38.184 12.727-48.363-28-50.91-50.91-89.09-30.547-152.73 25.453-76.363 106.91-119.64 183.27-94.184 30.547 10.184 50.91 25.453 66.184 43.273-7.6367 15.273-15.273 38.184-20.363 56-12.727-25.453-28-43.273-58.547-53.453-53.453-17.816-109.45 10.184-124.73 63.637-15.273 45.816 5.0898 76.363 25.453 117.09z" fill-rule="evenodd" fill="#89120B"/>
   <path d="m400.91 157.82 185.82 63.637c15.273-40.727 33.09-73.816 10.184-119.64-22.91-48.363-81.453-68.727-132.36-45.816-43.273 22.91-50.91 58.547-63.637 101.82zm231.64 81.453c15.273 7.6367 22.91 25.453 17.816 43.273l-48.363 140c-7.6367 20.363-28 30.547-48.363 22.91l-267.27-91.637c-17.816-7.6367-28-28-22.91-48.363l50.91-140c5.0898-17.816 22.91-28 40.727-22.91 20.363-56 30.547-99.273 89.09-127.27 73.816-35.637 160.36-5.0898 196 66.184 28 61.09 10.184 101.82-7.6367 157.82z" fill-rule="evenodd" fill="#D01C11"/>
  </svg>
</svg>