<svg viewBox="0 0 302 92" xmlns="http://www.w3.org/2000/svg" stroke-width="0.5" class="dark_aware">
  <style>
    rect {
      fill: var(--background-color);
      stroke: currentColor;
    }
    
    marker polygon {
      fill: currentColor;
    }
    
    text {
      fill: currentColor;
    }
    
    line {
      stroke: currentColor;
    }
  </style>

  <svg x="0" y="0">
    <rect x="1" y="1" width="300" height="20"/>
    <text x="151" y="11.5" font-size="8px" stroke-width="0" text-anchor="middle" font-family="monospace" dominant-baseline="middle">SequenceInputStream(…)</text>
  </svg>

  <marker id="arrowhead" markerWidth="10" markerHeight="7" refX="0" refY="3.5" orient="auto">
    <polygon points="0 0, 10 3.5, 0 7"/>
  </marker>

  <svg x="0">
    <rect x="1" y="1" y="70" width="75" height="20"/>
    <text x="38.5" y="76.5" font-size="6px" stroke-width="0" text-anchor="middle" font-family="monospace" dominant-baseline="middle">InputStream for</text>
    <text x="38.5" y="84.5" font-size="6px" stroke-width="0" text-anchor="middle" font-family="monospace" dominant-baseline="middle">bytes 0–999</text>
    <line x1="38.5" y1="70" x2="38.5" y2="30" marker-end="url(#arrowhead)" />
  </svg>

  <svg x="75" y="-6">
    <rect x="1" y="1" y="70" width="75" height="20"/>
    <text x="38.5" y="76.5" font-size="6px" stroke-width="0" text-anchor="middle" font-family="monospace" dominant-baseline="middle">InputStream for</text>
    <text x="38.5" y="84.5" font-size="6px" stroke-width="0" text-anchor="middle" font-family="monospace" dominant-baseline="middle">bytes 1000–1999</text>
    <line x1="38.5" y1="70" x2="38.5" y2="36" marker-end="url(#arrowhead)" />
  </svg>

  <svg x="150" y="-12">
    <rect x="1" y="1" y="70" width="75" height="20"/>
    <text x="38.5" y="76.5" font-size="6px" stroke-width="0" text-anchor="middle" font-family="monospace" dominant-baseline="middle">InputStream for</text>
    <text x="38.5" y="84.5" font-size="6px" stroke-width="0" text-anchor="middle" font-family="monospace" dominant-baseline="middle">bytes 2000–2999</text>
    <line x1="38.5" y1="70" x2="38.5" y2="42" marker-end="url(#arrowhead)" />
  </svg>

  <svg x="225" y="-18">
    <rect x="1" y="1" y="70" width="75" height="20"/>
    <text x="38.5" y="80" font-size="6px" stroke-width="0" text-anchor="middle" font-family="monospace" dominant-baseline="middle">…</text>
    <line x1="38.5" y1="70" x2="38.5" y2="48" marker-end="url(#arrowhead)" />
  </svg>
</svg>
