<?xml version="1.0"?>
<svg xmlns="http://www.w3.org/2000/svg" data-name="Layer 1" viewBox="0 0 200 100" x="0px" y="0px" width="1000px" height="500px">
  <!-- https://thenounproject.com/icon/test-4700947/ -->
  <title>Artboard 32</title>
  <svg x="50">
    <path d="M25.47,43.13a6.4,6.4,0,0,0,9.05,0l12.3-12.3a4,4,0,1,0-5.66-5.66L30,36.34l-5.17-5.17a4,4,0,1,0-5.66,5.66Z" fill="#2E671A"/>
    <path d="M78,38H53a4,4,0,1,0,0,8H78a4,4,0,0,0,0-8Z" fill="#202020"/>
    <path d="M78,21H60a4,4,0,0,0,0,8H78a4,4,0,0,0,0-8Z" fill="#202020"/>
    <path d="M46,55H22a4,4,0,0,0,0,8H46a4,4,0,0,0,0-8Z" fill="#202020"/>
    <path d="M46,72H22a4,4,0,0,0,0,8H46a4,4,0,0,0,0-8Z" fill="#202020"/>
    <path d="M81.37,56.82a4,4,0,0,0-6.19-.65L70,61.35l-5.18-5.18a4,4,0,0,0-6.12.55A4.16,4.16,0,0,0,59.33,62l5,5-5.1,5.1a4.06,4.06,0,0,0-.6,5.08,4,4,0,0,0,6.19.65L70,72.65l5.18,5.18a4,4,0,0,0,6.12-.55A4.16,4.16,0,0,0,80.68,72l-5-5,5.1-5.1A4.06,4.06,0,0,0,81.37,56.82Z" fill="#d01c11"/>
  </svg>
</svg>
