<svg viewBox="0 0 200 200" xmlns="http://www.w3.org/2000/svg">
  <defs>
    <style>
      line {
        stroke: currentColor;
        stroke-width: 1.5;
        stroke-linecap: round;
        fill: none;
      }
    </style>
  </defs>

  <line x1="100" y1="100" x2="141.3032706565298"   y2="31.48693677061692" />
<line x1="116.36096789347106" y1="82.04081241444518" x2="141.3032706565298"   y2="31.48693677061692" />
<line x1="116.36096789347106" y1="82.04081241444518" x2="164.37806058380863"   y2="52.50826055546643" />
<line x1="100" y1="100" x2="164.37806058380863"   y2="52.50826055546643" />
<line x1="121.98824691658083" y1="89.66894551946363" x2="164.37806058380863"   y2="52.50826055546643" />
<line x1="121.98824691658083" y1="89.66894551946363" x2="177.65187437577504"   y2="80.7597711570561" />
<line x1="100" y1="100" x2="177.65187437577504"   y2="80.7597711570561" />
<line x1="124.26801467059585" y1="98.86988801790169" x2="177.65187437577504"   y2="80.7597711570561" />
<line x1="124.26801467059585" y1="98.86988801790169" x2="179.10389421002378"   y2="111.94043218687521" />
<line x1="100" y1="100" x2="179.10389421002378"   y2="111.94043218687521" />
<line x1="122.85319718111343" y1="108.24287982112357" x2="179.10389421002378"   y2="111.94043218687521" />
<line x1="122.85319718111343" y1="108.24287982112357" x2="168.51306322938308"   y2="141.3032706565298" />
<line x1="100" y1="100" x2="168.51306322938308"   y2="141.3032706565298" />
<line x1="117.95918758555482" y1="116.36096789347104" x2="168.51306322938308"   y2="141.3032706565298" />
<line x1="117.95918758555482" y1="116.36096789347104" x2="147.49173944453358"   y2="164.37806058380863" />
<line x1="100" y1="100" x2="147.49173944453358"   y2="164.37806058380863" />
<line x1="110.33105448053637" y1="121.98824691658083" x2="147.49173944453358"   y2="164.37806058380863" />
<line x1="110.33105448053637" y1="121.98824691658083" x2="119.2402288429439"   y2="177.65187437577504" />
<line x1="100" y1="100" x2="119.2402288429439"   y2="177.65187437577504" />
<line x1="101.13011198209831" y1="124.26801467059585" x2="119.2402288429439"   y2="177.65187437577504" />
<line x1="101.13011198209831" y1="124.26801467059585" x2="88.0595678131248"   y2="179.10389421002378" />
<line x1="100" y1="100" x2="88.0595678131248"   y2="179.10389421002378" />
<line x1="91.75712017887643" y1="122.85319718111343" x2="88.0595678131248"   y2="179.10389421002378" />
<line x1="91.75712017887643" y1="122.85319718111343" x2="58.69672934347025"   y2="168.51306322938314" />
<line x1="100" y1="100" x2="58.69672934347025"   y2="168.51306322938314" />
<line x1="83.63903210652896" y1="117.95918758555482" x2="58.69672934347025"   y2="168.51306322938314" />
<line x1="83.63903210652896" y1="117.95918758555482" x2="35.62193941619138"   y2="147.49173944453358" />
<line x1="100" y1="100" x2="35.62193941619138"   y2="147.49173944453358" />
<line x1="78.01175308341917" y1="110.33105448053635" x2="35.62193941619138"   y2="147.49173944453358" />
<line x1="78.01175308341917" y1="110.33105448053635" x2="22.34812562422495"   y2="119.2402288429439" />
<line x1="100" y1="100" x2="22.34812562422495"   y2="119.2402288429439" />
<line x1="75.73198532940417" y1="101.13011198209834" x2="22.34812562422495"   y2="119.2402288429439" />
<line x1="75.73198532940417" y1="101.13011198209834" x2="20.89610578997619"   y2="88.05956781312494" />
<line x1="100" y1="100" x2="20.89610578997619"   y2="88.05956781312494" />
<line x1="77.14680281888657" y1="91.75712017887643" x2="20.89610578997619"   y2="88.05956781312494" />
<line x1="77.14680281888657" y1="91.75712017887643" x2="31.48693677061695"   y2="58.69672934347014" />
<line x1="100" y1="100" x2="31.48693677061695"   y2="58.69672934347014" />
<line x1="82.04081241444517" y1="83.63903210652896" x2="31.48693677061695"   y2="58.69672934347014" />
<line x1="82.04081241444517" y1="83.63903210652896" x2="52.50826055546642"   y2="35.62193941619138" />
<line x1="100" y1="100" x2="52.50826055546642"   y2="35.62193941619138" />
<line x1="89.6689455194636" y1="78.01175308341918" x2="52.50826055546642"   y2="35.62193941619138" />
<line x1="89.6689455194636" y1="78.01175308341918" x2="80.7597711570561"   y2="22.34812562422495" />
<line x1="100" y1="100" x2="80.7597711570561"   y2="22.34812562422495" />
<line x1="98.8698880179017" y1="75.73198532940415" x2="80.7597711570561"   y2="22.34812562422495" />
<line x1="98.8698880179017" y1="75.73198532940415" x2="111.9404321868752"   y2="20.896105789976204" />
<line x1="100" y1="100" x2="111.9404321868752"   y2="20.896105789976204" />
<line x1="108.24287982112357" y1="77.14680281888657" x2="111.9404321868752"   y2="20.896105789976204" />
<line x1="108.24287982112357" y1="77.14680281888657" x2="141.30327065652975"   y2="31.48693677061688" />
  
</svg>