<svg viewBox="0 0 200 200" xmlns="http://www.w3.org/2000/svg">
  <defs>
    <style>
      line, path.round {
        stroke: currentColor;
        stroke-width: 1.5;
        stroke-linecap: round;
        fill: none;
      }
    </style>
  </defs>

  <line x1="100" y1="100" x2="160.0"   y2="100.0" />
<line x1="100" y1="100" x2="118.54101966249685"   y2="157.06339097770922" />
<line x1="100" y1="100" x2="51.45898033750316"   y2="135.2671151375484" />
<line x1="100" y1="100" x2="51.45898033750315"   y2="64.73288486245161" />
<line x1="100" y1="100" x2="118.54101966249684"   y2="42.93660902229078" />
  <path class="round" d="M 160.0 143.59255168032166 A 0.0 0.0 0 0 1 160.0 143.59255168032166"/>
<path class="round" d="M 77.0820393249937 126.94167859477511 A 43.592551680321655 43.592551680321655 0 0 1 120.67459100531536 170.53423027509677"/>
<path class="round" d="M 25.835921350012626 -84.66101223051517 A 184.66101223051518 184.66101223051518 0 0 1 210.4969335805278 100.0"/>
<path class="round" d="M 77.08203932499369 214.1267819554185 A -184.66101223051527 -184.66101223051527 0 0 1 -107.57897290552158 29.46576972490325"/>
<path class="round" d="M 160.0 100.0 A -43.59255168032167 -43.59255168032167 0 0 1 116.40744831967834 56.40744831967834"/>
</svg>