<svg viewBox="0 0 200 200" xmlns="http://www.w3.org/2000/svg">
  <defs>
    <style>
      line, path.round {
        stroke: currentColor;
        stroke-width: 1.5;
        stroke-linecap: round;
        fill: none;
      }
    </style>
  </defs>

  <line x1="100" y1="100" x2="160.0"   y2="100.0" />
<line x1="100" y1="100" x2="160.0"   y2="143.59255168032166" />
<line x1="100" y1="100" x2="118.54101966249685"   y2="157.06339097770922" />
<line x1="100" y1="100" x2="77.0820393249937"   y2="170.53423027509677" />
<line x1="100" y1="100" x2="51.45898033750316"   y2="135.2671151375484" />
<line x1="100" y1="100" x2="25.835921350012626"   y2="100.00000000000001" />
<line x1="100" y1="100" x2="51.45898033750315"   y2="64.73288486245161" />
<line x1="100" y1="100" x2="77.08203932499369"   y2="29.46576972490324" />
<line x1="100" y1="100" x2="118.54101966249684"   y2="42.93660902229078" />
<line x1="100" y1="100" x2="160.0"   y2="56.40744831967834" />
  <path class="round" d="M 160.0 143.59255168032166 A 0.0 0.0 0 1 1 160.0 143.59255168032166"/>
<path class="round" d="M 118.54101966249686 157.06339097770922 A 43.592551680321655 43.592551680321655 0 1 1 77.08203932499369 126.94167859477511"/>
<path class="round" d="M 134.37694101250946 249.39389709296682 A 184.66101223051518 184.66101223051518 0 1 1 25.83592135001258 -84.66101223051517"/>
<path class="round" d="M 185.62305898749054 -119.92812736806364 A -184.66101223051527 -184.66101223051527 0 0 1 77.08203932499373 214.1267819554185"/>
<path class="round" d="M 201.45898033750316 69.8782876170659 A -43.59255168032167 -43.59255168032167 0 0 1 160.0 100.0"/>
</svg>