<svg viewBox="0 0 200 200" xmlns="http://www.w3.org/2000/svg">
  <defs>
    <style>
      line, path.round {
        stroke: currentColor;
        stroke-width: 1.5;
        stroke-linecap: round;
        fill: none;
      }
    </style>
  </defs>

  <line x1="100" y1="100" x2="160.0"   y2="100.0" />
<line x1="100" y1="100" x2="130.0"   y2="151.96152422706632" />
<line x1="100" y1="100" x2="70.00000000000001"   y2="151.96152422706632" />
<line x1="100" y1="100" x2="40.0"   y2="100.00000000000001" />
<line x1="100" y1="100" x2="69.99999999999997"   y2="48.038475772933694" />
<line x1="100" y1="100" x2="129.99999999999997"   y2="48.03847577293366" />
  <path class="round" d="M 160.0 100.0 A 34.641016151377535 34.641016151377535 0 1 1 130.0 117.32050807568876"/>
<path class="round" d="M 130.0 151.96152422706632 A 34.641016151377535 34.641016151377535 0 1 1 99.99999999999999 134.64101615137756"/>
<path class="round" d="M 70.0 151.96152422706632 A 34.641016151377535 34.641016151377535 0 1 1 70.00000000000001 117.32050807568879"/>
<path class="round" d="M 40.0 100.0 A 34.641016151377535 34.641016151377535 0 1 1 69.99999999999997 82.67949192431126"/>
<path class="round" d="M 70.0 48.038475772933694 A 34.641016151377535 34.641016151377535 0 1 1 100.0 65.35898384862244"/>
<path class="round" d="M 129.99999999999997 48.03847577293368 A 34.641016151377535 34.641016151377535 0 1 1 130.0 82.67949192431124"/>
</svg>