<svg viewBox="0 0 200 200" xmlns="http://www.w3.org/2000/svg">
  <defs>
    <style>
      line, path {
        stroke: currentColor;
        stroke-width: 1.5;
        stroke-linecap: round;
        fill: none;
      }
    </style>
  </defs>

  <line x1="100" y1="100" x2="79.33843138855175"   y2="129.74697722814437" />
<line x1="100" y1="100" x2="32.66113784363925"   y2="123.47233322304822" />
<line x1="100" y1="100" x2="26.021139849452865"   y2="77.68847302205697" />
<line x1="100" y1="100" x2="77.8075800003407"   y2="70.78061717570925" />
<line x1="100" y1="100" x2="98.53933274573991"   y2="31.24519524762283" />
<line x1="100" y1="100" x2="133.81393599464118"   y2="51.31723041254526" />
<line x1="100" y1="100" x2="136.53892748598383"   y2="87.26361191591958" />
<line x1="100" y1="100" x2="148.3512288854934"   y2="114.58240564263963" />
<line x1="100" y1="100" x2="127.72827467456456"   y2="136.50809928730737" />
<line x1="100" y1="100" x2="101.21436808028334"   y2="157.1613007780433" />
  <path d="M 79.33843138855175 129.74697722814437 A 11.768118952400384 11.768118952400384 0 1 1 65.7996053479111 111.92124478981502"/>
<path d="M 32.66113784363925 123.47233322304822 A 23.170836127382064 23.170836127382064 0 1 1 31.725024828229746 79.40872639341313"/>
<path d="M 26.02113984945287 77.68847302205697 A 25.106593464534797 25.106593464534797 0 1 1 53.264231427480354 38.46591252649006"/>
<path d="M 77.8075800003407 70.78061717570925 A 11.921833831856011 11.921833831856011 0 1 1 99.22067737917526 63.31664554152107"/>
<path d="M 98.53933274573991 31.24519524762283 A 22.34483104121042 22.34483104121042 0 1 1 139.23135562587234 43.51763583983485"/>
<path d="M 133.81393599464116 51.31723041254526 A 19.259255118379816 19.259255118379816 0 1 1 155.97106287062988 80.49014497012098"/>
<path d="M 136.53892748598383 87.26361191591958 A 12.572791905543877 12.572791905543877 0 1 1 137.04687437569086 111.17308830386975"/>
<path d="M 148.3512288854934 114.58240564263963 A 16.409209937384755 16.409209937384755 0 1 1 130.54564288758692 140.21755325287546"/>
<path d="M 127.72827467456455 136.50809928730737 A 14.895711378898513 14.895711378898513 0 1 1 100.97372308611057 145.8339436809835"/>
<path d="M 101.21436808028334 157.1613007780433 A 18.577023272501204 18.577023272501204 0 1 1 67.38387481518758 146.95825139846022"/>
</svg>