<svg viewBox="0 0 200 200" xmlns="http://www.w3.org/2000/svg">
  <defs>
    <style>
      line, path.round {
        stroke: currentColor;
        stroke-width: 1.5;
        stroke-linecap: round;
        fill: none;
      }
    </style>
  </defs>

  <line x1="100" y1="100" x2="94.53147736240827"   y2="133.94133970202262" />
<line x1="100" y1="100" x2="86.06074211894077"   y2="138.8434536122289" />
<line x1="100" y1="100" x2="61.25163237159971"   y2="166.23255403547594" />
<line x1="100" y1="100" x2="70.60906933928014"   y2="133.9090442794426" />
<line x1="100" y1="100" x2="56.48764786069521"   y2="134.60434184843737" />
<line x1="100" y1="100" x2="43.88936252816707"   y2="129.71678060157186" />
<line x1="100" y1="100" x2="70.08328938044093"   y2="109.32828740990252" />
<line x1="100" y1="100" x2="49.51399910405954"   y2="105.95726765808475" />
<line x1="100" y1="100" x2="30.689523723721678"   y2="95.32526627276678" />
<line x1="100" y1="100" x2="33.47694929875476"   y2="82.86187879933021" />
<line x1="100" y1="100" x2="59.82998336072951"   y2="81.23851898889974" />
<line x1="100" y1="100" x2="68.62115057081357"   y2="77.51568562879079" />
<line x1="100" y1="100" x2="79.09574572696542"   y2="78.1924968728973" />
<line x1="100" y1="100" x2="73.770541030456"   y2="59.91761304176341" />
<line x1="100" y1="100" x2="85.45210978701249"   y2="65.07163651450142" />
<line x1="100" y1="100" x2="86.54117673783792"   y2="36.81034564756418" />
<line x1="100" y1="100" x2="99.1277757828022"   y2="65.19559496956212" />
<line x1="100" y1="100" x2="107.49252920528204"   y2="53.496310459492356" />
<line x1="100" y1="100" x2="126.14906815302939"   y2="27.1324108878582" />
<line x1="100" y1="100" x2="134.16567934174702"   y2="41.6006314159556" />
<line x1="100" y1="100" x2="133.24407102709773"   y2="61.64549229489481" />
<line x1="100" y1="100" x2="139.36749385160752"   y2="68.691965660787" />
<line x1="100" y1="100" x2="135.93474040169176"   y2="80.96858555514409" />
<line x1="100" y1="100" x2="169.35993595922508"   y2="78.37297604045148" />
<line x1="100" y1="100" x2="135.26303957084403"   y2="95.83901752103236" />
<line x1="100" y1="100" x2="172.67943297642722"   y2="104.90195732109508" />
<line x1="100" y1="100" x2="135.62196879647271"   y2="109.17717411040196" />
<line x1="100" y1="100" x2="136.3710844153576"   y2="116.98718264768556" />
<line x1="100" y1="100" x2="153.28551788357387"   y2="138.18139789448705" />
<line x1="100" y1="100" x2="152.82433200896747"   y2="155.1068108159518" />
<line x1="100" y1="100" x2="131.81119429203886"   y2="148.6120815796345" />
<line x1="100" y1="100" x2="113.95341434433941"   y2="133.50107272927863" />
<line x1="100" y1="100" x2="106.8606830843344"   y2="132.2111513225303" />
<line x1="100" y1="100" x2="101.3547959851247"   y2="154.06048957386116" />
  <path class="round" d="M 94.53147736240827 133.94133970202262 A 3.1856883991679554 3.1856883991679554 0 1 1 88.38788454793979 132.35858549649498"/>
<path class="round" d="M 86.06074211894077 138.84345361222893 A 3.8241207907403707 3.8241207907403707 0 1 1 79.16061860178456 135.62073808527504"/>
<path class="round" d="M 61.2516323715997 166.2325540354759 A 7.110500807269922 7.110500807269922 0 1 1 49.741197096841354 157.98482507233552"/>
<path class="round" d="M 70.60906933928013 133.9090442794426 A 4.158161836686499 4.158161836686499 0 1 1 64.87873524986925 127.93110902559485"/>
<path class="round" d="M 56.487647860695205 134.60434184843734 A 5.151619777287429 5.151619777287429 0 1 1 50.86999721407997 126.01976344461777"/>
<path class="round" d="M 43.88936252816706 129.71678060157186 A 5.883587488803084 5.883587488803084 0 1 1 39.384308652473045 118.90049336072384"/>
<path class="round" d="M 70.08328938044092 109.32828740990253 A 2.903828701684212 2.903828701684212 0 1 1 68.87860991632174 103.67227443905236"/>
<path class="round" d="M 49.513999104059536 105.95726765808473 A 4.7106732070998705 4.7106732070998705 0 1 1 49.278974148995836 96.57905553439822"/>
<path class="round" d="M 30.689523723721674 95.3252662727668 A 6.437152996966279 6.437152996966279 0 1 1 32.72864636243912 82.66909590254173"/>
<path class="round" d="M 33.476949298754754 82.8618787993302 A 6.365548365445182 6.365548365445182 0 1 1 37.75875215867262 70.93010939057814"/>
<path class="round" d="M 59.82998336072951 81.23851898889973 A 4.108275341938596 4.108275341938596 0 1 1 63.96136731905678 74.17674766770854"/>
<path class="round" d="M 68.62115057081354 77.5156856287908 A 3.5770767029265853 3.5770767029265853 0 1 1 73.28691703622404 72.13267535601342"/>
<path class="round" d="M 79.09574572696543 78.19249687289728 A 2.79923216101732 2.79923216101732 0 1 1 83.45879856504322 74.72266441180038"/>
<path class="round" d="M 73.770541030456 59.91761304176341 A 4.438755274357954 4.438755274357954 0 1 1 81.58226669018877 55.780441410689356"/>
<path class="round" d="M 85.45210978701249 65.07163651450142 A 3.5061059538352453 3.5061059538352453 0 1 1 92.11788521206083 62.993190465888595"/>
<path class="round" d="M 86.5411767378379 36.81034564756418 A 5.98672585221514 5.98672585221514 0 1 1 98.38140729815053 35.413217308431086"/>
<path class="round" d="M 99.12777578280219 65.19559496956212 A 3.2261156645892 3.2261156645892 0 1 1 105.53791969983727 65.62793532523845"/>
<path class="round" d="M 107.49252920528207 53.49631045949237 A 4.364773623796444 4.364773623796444 0 1 1 115.90998518714804 55.66487277432652"/>
<path class="round" d="M 126.14906815302939 27.13241088785818 A 7.173781849488807 7.173781849488807 0 1 1 139.09321494004092 33.17799872841681"/>
<path class="round" d="M 134.16567934174702 41.60063141595558 A 6.2695567686923726 6.2695567686923726 0 1 1 144.31479954347364 48.87291874828076"/>
<path class="round" d="M 133.24407102709773 61.645492294894794 A 4.703295347694426 4.703295347694426 0 1 1 139.72564984052306 68.40713269575167"/>
<path class="round" d="M 139.36749385160752 68.691965660787 A 4.660891676434728 4.660891676434728 0 1 1 144.4500236717166 76.45880245345344"/>
<path class="round" d="M 135.93474040169176 80.96858555514409 A 3.7680054721694076 3.7680054721694076 0 1 1 138.81989638659687 87.89562277344548"/>
<path class="round" d="M 169.35993595922506 78.37297604045145 A 6.732336831633433 6.732336831633433 0 1 1 172.15290646809083 91.48607200984036"/>
<path class="round" d="M 135.26303957084403 95.83901752103239 A 3.2902716150891336 3.2902716150891336 0 1 1 135.42719783538215 102.38943267280803"/>
<path class="round" d="M 172.6794329764272 104.90195732109507 A 6.750042056227227 6.750042056227227 0 1 1 170.54119522199838 118.17330294703525"/>
<path class="round" d="M 135.62196879647271 109.17717411040199 A 3.4086435131286246 3.4086435131286246 0 1 1 133.32913576700693 115.56643487166949"/>
<path class="round" d="M 136.3710844153576 116.98718264768553 A 3.719750245687084 3.719750245687084 0 1 1 132.63041096605465 123.38111280587977"/>
<path class="round" d="M 153.28551788357387 138.18139789448702 A 6.074358623468874 6.074358623468874 0 1 1 145.36241722960398 147.32247525632124"/>
<path class="round" d="M 152.82433200896742 155.10681081595183 A 7.073563453277542 7.073563453277542 0 1 1 141.79904745774616 163.8749581770807"/>
<path class="round" d="M 131.81119429203886 148.61208157963452 A 5.3833404116862695 5.3833404116862695 0 1 1 122.33710170757467 153.6296601247514"/>
<path class="round" d="M 113.9534143443394 133.50107272927863 A 3.362834637378797 3.362834637378797 0 1 1 107.56002498888631 135.49458646110205"/>
<path class="round" d="M 106.86068308433441 132.2111513225303 A 3.051754821709553 3.051754821709553 0 1 1 100.82508339352559 132.92334246853358"/>
<path class="round" d="M 101.35479598512471 154.06048957386116 A 5.011014901621505 5.011014901621505 0 1 1 91.39813911681262 153.38895011585404"/>
</svg>