<svg viewBox="15 15 170 170" xmlns="http://www.w3.org/2000/svg">
  <defs>
    <style>
      line, path.round {
        stroke: currentColor;
        stroke-width: 1.5;
        stroke-linecap: round;
        fill: none;
      }
    </style>
  </defs>

  <line x1="100" y1="100" x2="74.98295207898701"   y2="82.8981486679929" />
<line x1="100" y1="100" x2="58.45694257635503"   y2="58.53654357827677" />
<line x1="100" y1="100" x2="72.59495044635011"   y2="60.075730709337456" />
<line x1="100" y1="100" x2="81.05532918646117"   y2="57.205522137128725" />
<line x1="100" y1="100" x2="92.46877849822363"   y2="68.11643066387583" />
<line x1="100" y1="100" x2="97.32015151304896"   y2="43.21615692797457" />
<line x1="100" y1="100" x2="108.72766253289925"   y2="36.99191073995256" />
<line x1="100" y1="100" x2="114.81635815236623"   y2="55.65290544290692" />
<line x1="100" y1="100" x2="117.07669935578947"   y2="69.27217191446488" />
<line x1="100" y1="100" x2="119.18031409711466"   y2="76.85690538561218" />
<line x1="100" y1="100" x2="147.10047158165952"   y2="60.811891367386494" />
<line x1="100" y1="100" x2="169.51147771851973"   y2="61.19497385406721" />
<line x1="100" y1="100" x2="150.6179097722776"   y2="82.98057503982842" />
<line x1="100" y1="100" x2="154.94775776912832"   y2="92.28138919047596" />
<line x1="100" y1="100" x2="146.1527134486429"   y2="102.08941687752701" />
<line x1="100" y1="100" x2="161.89931055213646"   y2="114.4959562460397" />
<line x1="100" y1="100" x2="140.49537456942488"   y2="117.83407154166834" />
<line x1="100" y1="100" x2="127.42391731234302"   y2="118.74720623703213" />
<line x1="100" y1="100" x2="129.9462885296519"   y2="129.88890819419683" />
<line x1="100" y1="100" x2="133.7320164727852"   y2="149.14153162686694" />
<line x1="100" y1="100" x2="128.25958351517403"   y2="163.83611164622684" />
<line x1="100" y1="100" x2="115.8003441302385"   y2="166.89105711367785" />
<line x1="100" y1="100" x2="101.55502297024627"   y2="132.9496912776293" />
<line x1="100" y1="100" x2="94.48289006466003"   y2="139.82997210914348" />
<line x1="100" y1="100" x2="90.22178394638388"   y2="129.2673454211922" />
<line x1="100" y1="100" x2="62.722528563142696"   y2="167.07711542552028" />
<line x1="100" y1="100" x2="68.26706954476367"   y2="138.28916503655182" />
<line x1="100" y1="100" x2="47.3459181981122"   y2="143.80877320995594" />
<line x1="100" y1="100" x2="54.86291235127525"   y2="125.19793743204175" />
<line x1="100" y1="100" x2="28.467482460707146"   y2="124.05161177040385" />
<line x1="100" y1="100" x2="51.60512910647653"   y2="106.79811495081857" />
<line x1="100" y1="100" x2="61.18837929885407"   y2="98.24292767905426" />
<line x1="100" y1="100" x2="40.40716848185177"   y2="86.04418901342876" />
<line x1="100" y1="100" x2="27.17088783570398"   y2="67.92622341528097" />
  <path class="round" d="M 74.98295207898701 82.8981486679929 A 2.808069334931229 2.808069334931229 0 0 1 74.40560951617157 78.78812419930915"/>
<path class="round" d="M 58.45694257635502 58.536543578276785 A 5.438845996210779 5.438845996210779 0 0 1 58.82049722260993 50.50605737325234"/>
<path class="round" d="M 72.59495044635011 60.07573070933746 A 4.487240316975729 4.487240316975729 0 0 1 74.10720926216658 53.61822100893372"/>
<path class="round" d="M 81.05532918646121 57.20552213712872 A 4.336686252844947 4.336686252844947 0 0 1 83.63871732203938 51.33948812666627"/>
<path class="round" d="M 92.46877849822363 68.11643066387585 A 3.0357511263672805 3.0357511263672805 0 0 1 95.00093488608948 64.41232422130716"/>
<path class="round" d="M 97.32015151304898 43.21615692797457 A 5.267654383600216 5.267654383600216 0 0 1 102.82018170060527 37.70556785432166"/>
<path class="round" d="M 108.72766253289925 36.991910739952544 A 5.894304896588244 5.894304896588244 0 0 1 115.91022321798623 32.06161558379441"/>
<path class="round" d="M 114.81635815236622 55.65290544290691 A 4.332646575459211 4.332646575459211 0 0 1 120.67196692111943 53.0606882673085"/>
<path class="round" d="M 117.07669935578949 69.27217191446489 A 3.2575101610751664 3.2575101610751664 0 0 1 121.76241153433179 68.1653593133365"/>
<path class="round" d="M 119.18031409711465 76.85690538561217 A 2.7852899105893028 2.7852899105893028 0 0 1 123.29244541329489 76.66283805431458"/>
<path class="round" d="M 147.10047158165955 60.81189136738648 A 5.677614565009306 5.677614565009306 0 0 1 155.41272315613196 61.96327569728008"/>
<path class="round" d="M 169.51147771851976 61.19497385406726 A 7.376908348824787 7.376908348824787 0 0 1 179.8527829175165 64.65000248946082"/>
<path class="round" d="M 150.61790977227764 82.98057503982847 A 4.948476102763246 4.948476102763246 0 0 1 157.0109380066365 86.53343991616548"/>
<path class="round" d="M 154.9477577691283 92.28138919047595 A 5.141649338585067 5.141649338585067 0 0 1 160.7989253813666 97.13066429856042"/>
<path class="round" d="M 146.1527134486429 102.089416877527 A 4.281059074009071 4.281059074009071 0 0 1 150.19967126431266 106.95348478588463"/>
<path class="round" d="M 161.89931055213643 114.49595624603973 A 5.891001501803519 5.891001501803519 0 0 1 166.14347092295276 122.09852447883405"/>
<path class="round" d="M 140.49537456942488 117.83407154166834 A 4.100227054438514 4.100227054438514 0 0 1 142.42676631871322 123.57827344797131"/>
<path class="round" d="M 127.42391731234302 118.74720623703212 A 3.0782313521411635 3.0782313521411635 0 0 1 128.05680552335562 123.25265274442025"/>
<path class="round" d="M 129.9462885296519 129.88890819419683 A 3.920588940046763 3.920588940046763 0 0 1 129.6842203765542 135.67767945570193"/>
<path class="round" d="M 133.73201647278523 149.14153162686694 A 5.523203451730747 5.523203451730747 0 0 1 131.87062449878525 157.08987790373686"/>
<path class="round" d="M 128.2595835151741 163.83611164622684 A 6.468993235490613 6.468993235490613 0 0 1 124.40596824320494 172.5864182444838"/>
<path class="round" d="M 115.80034413023847 166.89105711367787 A 6.3689419410979475 6.3689419410979475 0 0 1 110.48793334661919 174.66219443500273"/>
<path class="round" d="M 101.55502297024626 132.94969127762934 A 3.056636823202021 3.056636823202021 0 0 1 98.3635465415066 136.14729466112053"/>
<path class="round" d="M 94.48289006466007 139.82997210914348 A 3.7260295049569465 3.7260295049569465 0 0 1 89.94250175708056 142.94661190675978"/>
<path class="round" d="M 90.22178394638387 129.2673454211922 A 2.859377038751876 2.859377038751876 0 0 1 86.3573115114236 130.97810722515464"/>
<path class="round" d="M 62.72252856314266 167.07711542552025 A 7.110960933067156 7.110960933067156 0 0 1 52.4938831874936 169.493224901063"/>
<path class="round" d="M 68.26706954476364 138.28916503655182 A 4.6081315760985335 4.6081315760985335 0 0 1 61.46374106857478 138.61024033784872"/>
<path class="round" d="M 47.345918198112244 143.808773209956 A 6.347061328829618 6.347061328829618 0 0 1 38.0535701671306 142.52162930978247"/>
<path class="round" d="M 54.86291235127523 125.19793743204173 A 4.790175229274418 4.790175229274418 0 0 1 48.147814147500924 122.95442405176058"/>
<path class="round" d="M 28.46748246070714 124.05161177040381 A 6.993116768475282 6.993116768475282 0 0 1 19.432944954894744 119.03075314102387"/>
<path class="round" d="M 51.60512910647653 106.79811495081861 A 4.528473335820015 4.528473335820015 0 0 1 46.4517522869818 102.52714826699194"/>
<path class="round" d="M 61.18837929885408 98.24292767905422 A 3.6001099082620613 3.6001099082620613 0 0 1 57.78513428900015 94.15254285403493"/>
<path class="round" d="M 40.40716848185178 86.04418901342873 A 5.671492248277042 5.671492248277042 0 0 1 36.32115311822301 78.7249060721343"/>
<path class="round" d="M 27.17088783570392 67.92622341528104 A 7.374074180616345 7.374074180616345 0 0 1 23.697366530178854 57.595534308768485"/>
</svg>