<svg viewBox="30 30 140 140" xmlns="http://www.w3.org/2000/svg">
  <defs>
    <style>
      line, path.round {
        stroke: currentColor;
        stroke-width: 1.5;
        stroke-linecap: round;
        fill: none;
      }
    </style>
  </defs>

  <line x1="100" y1="100" x2="40.05589336058583"   y2="102.58922366792481" />
<line x1="100" y1="100" x2="55.78225808950235"   y2="59.443973316699044" />
<line x1="100" y1="100" x2="55.78225808950235"   y2="59.443973316699044" />
<line x1="100" y1="100" x2="97.4107763320752"   y2="40.05589336058583" />
<line x1="100" y1="100" x2="97.4107763320752"   y2="40.05589336058583" />
<line x1="100" y1="100" x2="140.55602668330096"   y2="55.78225808950233" />
<line x1="100" y1="100" x2="140.55602668330096"   y2="55.78225808950233" />
<line x1="100" y1="100" x2="159.94410663941417"   y2="97.4107763320752" />
<line x1="100" y1="100" x2="159.94410663941417"   y2="97.4107763320752" />
<line x1="100" y1="100" x2="144.21774191049767"   y2="140.55602668330096" />
<line x1="100" y1="100" x2="144.21774191049767"   y2="140.55602668330096" />
<line x1="100" y1="100" x2="102.5892236679248"   y2="159.94410663941417" />
<line x1="100" y1="100" x2="102.5892236679248"   y2="159.94410663941417" />
<line x1="100" y1="100" x2="59.443973316699065"   y2="144.2177419104977" />
<line x1="100" y1="100" x2="59.443973316699065"   y2="144.2177419104977" />
<line x1="100" y1="100" x2="40.05589336058583"   y2="102.5892236679248" />
  <path class="round" d="M 40.05589336058583 102.58922366792481 A 3.932607768914293 3.932607768914293 0 1 1 40.23076199652884 94.74279651483607"/>
<path class="round" d="M 40.23076199652884 94.74279651483607 A 3.932607768914293 3.932607768914293 0 1 1 41.42829886587469 86.98632157095065"/>
<path class="round" d="M 41.428298865874694 86.98632157095064 A 3.932607768914293 3.932607768914293 0 1 1 43.62801378076892 79.45251427305955"/>
<path class="round" d="M 43.62801378076892 79.45251427305956 A 3.932607768914293 3.932607768914293 0 1 1 46.79226900914148 72.27028015279573"/>
<path class="round" d="M 46.79226900914149 72.27028015279572 A 3.932607768914293 3.932607768914293 0 1 1 50.86692326673765 65.56250922724836"/>
<path class="round" d="M 50.86692326673764 65.56250922724837 A 3.932607768914293 3.932607768914293 0 1 1 55.78225808950234 59.44397331669904"/>
<path class="round" d="M 55.78225808950234 59.443973316699044 A 3.932607768914293 3.932607768914293 0 1 1 61.454170735829805 54.01936226695588"/>
<path class="round" d="M 61.4541707358298 54.01936226695588 A 3.932607768914293 3.932607768914293 0 1 1 67.78561320779009 49.38149267706631"/>
<path class="round" d="M 67.78561320779008 49.38149267706631 A 3.932607768914293 3.932607768914293 0 1 1 74.66825276928046 45.60971978157372"/>
<path class="round" d="M 74.6682527692805 45.6097197815737 A 3.932607768914293 3.932607768914293 0 1 1 81.98432554917567 42.76857966045298"/>
<path class="round" d="M 81.98432554917568 42.768579660452986 A 3.932607768914293 3.932607768914293 0 1 1 89.60865151381306 40.90668500888936"/>
<path class="round" d="M 89.60865151381304 40.906685008889376 A 3.932607768914293 3.932607768914293 0 1 1 97.41077633207517 40.05589336058583"/>
<path class="round" d="M 97.41077633207523 40.05589336058582 A 3.932607768914293 3.932607768914293 0 1 1 105.25720348516397 40.23076199652884"/>
<path class="round" d="M 105.25720348516398 40.230761996528855 A 3.932607768914293 3.932607768914293 0 1 1 113.0136784290494 41.4282988658747"/>
<path class="round" d="M 113.01367842904938 41.4282988658747 A 3.932607768914293 3.932607768914293 0 1 1 120.54748572694047 43.62801378076893"/>
<path class="round" d="M 120.54748572694047 43.62801378076892 A 3.932607768914293 3.932607768914293 0 1 1 127.7297198472043 46.79226900914149"/>
<path class="round" d="M 127.72971984720427 46.792269009141485 A 3.932607768914293 3.932607768914293 0 1 1 134.43749077275163 50.86692326673765"/>
<path class="round" d="M 134.43749077275163 50.86692326673764 A 3.932607768914293 3.932607768914293 0 1 1 140.55602668330096 55.78225808950234"/>
<path class="round" d="M 140.55602668330096 55.78225808950234 A 3.932607768914293 3.932607768914293 0 1 1 145.98063773304412 61.454170735829805"/>
<path class="round" d="M 145.98063773304412 61.454170735829805 A 3.932607768914293 3.932607768914293 0 1 1 150.6185073229337 67.78561320779008"/>
<path class="round" d="M 150.61850732293368 67.78561320779009 A 3.932607768914293 3.932607768914293 0 1 1 154.39028021842628 74.66825276928046"/>
<path class="round" d="M 154.39028021842628 74.66825276928046 A 3.932607768914293 3.932607768914293 0 1 1 157.23142033954701 81.98432554917562"/>
<path class="round" d="M 157.231420339547 81.98432554917562 A 3.932607768914293 3.932607768914293 0 1 1 159.09331499111062 89.608651513813"/>
<path class="round" d="M 159.09331499111062 89.60865151381299 A 3.932607768914293 3.932607768914293 0 1 1 159.94410663941417 97.41077633207512"/>
<path class="round" d="M 159.94410663941417 97.41077633207523 A 3.932607768914293 3.932607768914293 0 1 1 159.76923800347117 105.25720348516397"/>
<path class="round" d="M 159.76923800347114 105.25720348516397 A 3.932607768914293 3.932607768914293 0 1 1 158.5717011341253 113.01367842904939"/>
<path class="round" d="M 158.5717011341253 113.01367842904938 A 3.932607768914293 3.932607768914293 0 1 1 156.37198621923108 120.54748572694047"/>
<path class="round" d="M 156.37198621923108 120.54748572694045 A 3.932607768914293 3.932607768914293 0 1 1 153.2077309908585 127.72971984720428"/>
<path class="round" d="M 153.20773099085852 127.72971984720427 A 3.932607768914293 3.932607768914293 0 1 1 149.13307673326236 134.43749077275163"/>
<path class="round" d="M 149.13307673326236 134.43749077275163 A 3.932607768914293 3.932607768914293 0 1 1 144.21774191049767 140.55602668330096"/>
<path class="round" d="M 144.21774191049767 140.55602668330096 A 3.932607768914293 3.932607768914293 0 1 1 138.5458292641702 145.98063773304412"/>
<path class="round" d="M 138.5458292641702 145.98063773304412 A 3.932607768914293 3.932607768914293 0 1 1 132.21438679220992 150.6185073229337"/>
<path class="round" d="M 132.21438679220992 150.61850732293368 A 3.932607768914293 3.932607768914293 0 1 1 125.33174723071954 154.39028021842628"/>
<path class="round" d="M 125.33174723071956 154.39028021842626 A 3.932607768914293 3.932607768914293 0 1 1 118.01567445082438 157.231420339547"/>
<path class="round" d="M 118.01567445082438 157.231420339547 A 3.932607768914293 3.932607768914293 0 1 1 110.391348486187 159.09331499111062"/>
<path class="round" d="M 110.39134848618701 159.09331499111062 A 3.932607768914293 3.932607768914293 0 1 1 102.58922366792488 159.94410663941417"/>
<path class="round" d="M 102.58922366792477 159.94410663941417 A 3.932607768914293 3.932607768914293 0 1 1 94.74279651483603 159.76923800347117"/>
<path class="round" d="M 94.74279651483609 159.76923800347114 A 3.932607768914293 3.932607768914293 0 1 1 86.98632157095066 158.5717011341253"/>
<path class="round" d="M 86.98632157095062 158.5717011341253 A 3.932607768914293 3.932607768914293 0 1 1 79.45251427305953 156.37198621923108"/>
<path class="round" d="M 79.4525142730595 156.37198621923105 A 3.932607768914293 3.932607768914293 0 1 1 72.27028015279568 153.20773099085847"/>
<path class="round" d="M 72.27028015279573 153.20773099085852 A 3.932607768914293 3.932607768914293 0 1 1 65.56250922724837 149.13307673326236"/>
<path class="round" d="M 65.56250922724833 149.13307673326233 A 3.932607768914293 3.932607768914293 0 1 1 59.443973316699 144.21774191049764"/>
<path class="round" d="M 59.44397331669905 144.21774191049767 A 3.932607768914293 3.932607768914293 0 1 1 54.01936226695589 138.5458292641702"/>
<path class="round" d="M 54.019362266955916 138.54582926417027 A 3.932607768914293 3.932607768914293 0 1 1 49.38149267706635 132.21438679220998"/>
<path class="round" d="M 49.381492677066326 132.21438679220992 A 3.932607768914293 3.932607768914293 0 1 1 45.60971978157372 125.33174723071954"/>
<path class="round" d="M 45.60971978157371 125.33174723071951 A 3.932607768914293 3.932607768914293 0 1 1 42.76857966045298 118.01567445082435"/>
<path class="round" d="M 42.768579660453014 118.01567445082439 A 3.932607768914293 3.932607768914293 0 1 1 40.90668500888938 110.39134848618701"/>
<path class="round" d="M 40.906685008889376 110.39134848618696 A 3.932607768914293 3.932607768914293 0 1 1 40.05589336058583 102.58922366792483"/>
</svg>