<svg viewBox="30 30 140 140" xmlns="http://www.w3.org/2000/svg">
  <defs>
    <style>
      line, path.round {
        stroke: currentColor;
        stroke-width: 1.5;
        stroke-linecap: round;
        fill: none;
      }
    </style>
  </defs>

  <line x1="100" y1="100" x2="100.76014036859746"   y2="159.9951846952739" />
<line x1="100" y1="100" x2="43.17608494123553"   y2="119.26246810235699" />
<line x1="100" y1="100" x2="43.17608494123553"   y2="119.26246810235699" />
<line x1="100" y1="100" x2="64.12074875124912"   y2="51.909675299193395" />
<line x1="100" y1="100" x2="64.12074875124912"   y2="51.909675299193395" />
<line x1="100" y1="100" x2="134.6493182961393"   y2="51.01607670252591" />
<line x1="100" y1="100" x2="134.6493182961393"   y2="51.01607670252591" />
<line x1="100" y1="100" x2="157.29370764277857"   y2="117.81659520064977" />
<line x1="100" y1="100" x2="157.29370764277857"   y2="117.81659520064977" />
<line x1="100" y1="100" x2="100.76014036859746"   y2="159.9951846952739" />
  <path class="round" d="M 100.76014036859745 159.9951846952739 A 4.195608716610625 4.195608716610625 0 1 1 92.40302683807037 159.51710677424532"/>
<path class="round" d="M 92.40302683807037 159.51710677424535 A 4.195608716610625 4.195608716610625 0 1 1 84.19377974871136 157.88059606956162"/>
<path class="round" d="M 84.19377974871138 157.88059606956165 A 4.195608716610625 4.195608716610625 0 1 1 76.29218275723464 155.1175054005861"/>
<path class="round" d="M 76.29218275723464 155.1175054005861 A 4.195608716610625 4.195608716610625 0 1 1 68.85203146114593 151.28161518422132"/>
<path class="round" d="M 68.85203146114591 151.2816151842213 A 4.195608716610625 4.195608716610625 0 1 1 62.01813994237692 146.44758666026834"/>
<path class="round" d="M 62.018139942376926 146.44758666026834 A 4.195608716610625 4.195608716610625 0 1 1 55.92352212590409 140.70950869532"/>
<path class="round" d="M 55.9235221259041 140.70950869531998 A 4.195608716610625 4.195608716610625 0 1 1 50.686802815000064 134.17906644999704"/>
<path class="round" d="M 50.686802815000064 134.17906644999707 A 4.195608716610625 4.195608716610625 0 1 1 46.409908794371646 126.98336755433678"/>
<path class="round" d="M 46.409908794371646 126.98336755433677 A 4.195608716610625 4.195608716610625 0 1 1 43.17608494123553 119.26246810235699"/>
<path class="round" d="M 43.17608494123553 119.26246810235699 A 4.195608716610625 4.195608716610625 0 1 1 41.048273958472905 111.16664661949754"/>
<path class="round" d="M 41.0482739584729 111.16664661949756 A 4.195608716610625 4.195608716610625 0 1 1 40.06789126651412 102.85347906206185"/>
<path class="round" d="M 40.06789126651411 102.85347906206185 A 4.195608716610625 4.195608716610625 0 1 1 40.25401889928936 94.48477178046744"/>
<path class="round" d="M 40.25401889928936 94.48477178046745 A 4.195608716610625 4.195608716610625 0 1 1 41.60303409414373 86.22341214268714"/>
<path class="round" d="M 41.60303409414373 86.22341214268712 A 4.195608716610625 4.195608716610625 0 1 1 44.0886798047914 78.23019811691299"/>
<path class="round" d="M 44.088679804791404 78.23019811691296 A 4.195608716610625 4.195608716610625 0 1 1 47.662575764854715 70.6607085220105"/>
<path class="round" d="M 47.662575764854715 70.6607085220105 A 4.195608716610625 4.195608716610625 0 1 1 52.255160154717444 63.66227486277768"/>
<path class="round" d="M 52.25516015471743 63.66227486277769 A 4.195608716610625 4.195608716610625 0 1 1 57.7770435432182 57.37111368979119"/>
<path class="round" d="M 57.77704354321821 57.37111368979117 A 4.195608716610625 4.195608716610625 0 1 1 64.12074875124912 51.9096752991934"/>
<path class="round" d="M 64.12074875124914 51.909675299193395 A 4.195608716610625 4.195608716610625 0 1 1 71.1628027727936 47.38426037696325"/>
<path class="round" d="M 71.1628027727936 47.38426037696325 A 4.195608716610625 4.195608716610625 0 1 1 78.76614003653995 43.88295097697876"/>
<path class="round" d="M 78.76614003653992 43.88295097697877 A 4.195608716610625 4.195608716610625 0 1 1 86.78277023131731 41.47389610403023"/>
<path class="round" d="M 86.78277023131733 41.473896104030224 A 4.195608716610625 4.195608716610625 0 1 1 95.0566587691661 40.20398527096026"/>
<path class="round" d="M 95.0566587691661 40.20398527096025 A 4.195608716610625 4.195608716610625 0 1 1 103.42676382110575 40.09793584763242"/>
<path class="round" d="M 103.42676382110577 40.097935847632414 A 4.195608716610625 4.195608716610625 0 1 1 111.73017081315366 41.15781196544235"/>
<path class="round" d="M 111.73017081315366 41.15781196544236 A 4.195608716610625 4.195608716610625 0 1 1 119.80526337319506 43.362984341348124"/>
<path class="round" d="M 119.80526337319503 43.36298434134811 A 4.195608716610625 4.195608716610625 0 1 1 127.49486900983037 46.67053180339907"/>
<path class="round" d="M 127.49486900983037 46.67053180339907 A 4.195608716610625 4.195608716610625 0 1 1 134.6493182961393 51.0160767025259"/>
<path class="round" d="M 134.6493182961393 51.016076702525915 A 4.195608716610625 4.195608716610625 0 1 1 141.1293580148293 56.31503795025117"/>
<path class="round" d="M 141.1293580148293 56.31503795025117 A 4.195608716610625 4.195608716610625 0 1 1 146.80886156371196 62.464277293366955"/>
<path class="round" d="M 146.80886156371196 62.46427729336692 A 4.195608716610625 4.195608716610625 0 1 1 151.57728386654782 69.34410678271557"/>
<path class="round" d="M 151.57728386654782 69.34410678271557 A 4.195608716610625 4.195608716610625 0 1 1 155.34181300721218 76.82061836297696"/>
<path class="round" d="M 155.34181300721218 76.82061836297699 A 4.195608716610625 4.195608716610625 0 1 1 158.02917670807042 84.74829024064721"/>
<path class="round" d="M 158.02917670807042 84.7482902406472 A 4.195608716610625 4.195608716610625 0 1 1 159.58706849151625 92.97281930022051"/>
<path class="round" d="M 159.58706849151622 92.97281930022052 A 4.195608716610625 4.195608716610625 0 1 1 159.98516576606048 101.33412443881546"/>
<path class="round" d="M 159.98516576606048 101.33412443881542 A 4.195608716610625 4.195608716610625 0 1 1 159.21572002108311 109.66946236275288"/>
<path class="round" d="M 159.21572002108314 109.66946236275288 A 4.195608716610625 4.195608716610625 0 1 1 157.29370764277857 117.81659520064977"/>
<path class="round" d="M 157.29370764277857 117.81659520064979 A 4.195608716610625 4.195608716610625 0 1 1 154.25653841583383 125.61694827904269"/>
<path class="round" d="M 154.25653841583383 125.61694827904272 A 4.195608716610625 4.195608716610625 0 1 1 150.1633273845226 132.91869659803083"/>
<path class="round" d="M 150.16332738452263 132.91869659803078 A 4.195608716610625 4.195608716610625 0 1 1 145.09374424561085 139.57971993220062"/>
<path class="round" d="M 145.09374424561085 139.57971993220065 A 4.195608716610625 4.195608716610625 0 1 1 139.14646266833208 145.47036903915435"/>
<path class="round" d="M 139.14646266833205 145.47036903915432 A 4.195608716610625 4.195608716610625 0 1 1 132.4372397236555 150.47598913453905"/>
<path class="round" d="M 132.4372397236555 150.47598913453905 A 4.195608716610625 4.195608716610625 0 1 1 125.0966628045713 154.49915151700665"/>
<path class="round" d="M 125.0966628045713 154.49915151700665 A 4.195608716610625 4.195608716610625 0 1 1 117.26760789102694 157.4615499070617"/>
<path class="round" d="M 117.26760789102698 157.4615499070617 A 4.195608716610625 4.195608716610625 0 1 1 109.10245863149665 159.30552458972008"/>
<path class="round" d="M 109.10245863149665 159.30552458972008 A 4.195608716610625 4.195608716610625 0 1 1 100.76014036859746 159.9951846952739"/>
</svg>