<svg viewBox="30 30 140 140" xmlns="http://www.w3.org/2000/svg">
  <defs>
    <style>
      line, path.round {
        stroke: currentColor;
        stroke-width: 1.5;
        stroke-linecap: round;
        fill: none;
      }
    </style>
  </defs>

  <line x1="100" y1="100" x2="122.0014532500663"   y2="44.1794298230021" />
<line x1="100" y1="100" x2="131.11870452478266"   y2="48.7006215564041" />
<line x1="100" y1="100" x2="131.11870452478266"   y2="48.7006215564041" />
<line x1="100" y1="100" x2="139.34072732800368"   y2="54.69760300708511" />
<line x1="100" y1="100" x2="139.34072732800368"   y2="54.69760300708511" />
<line x1="100" y1="100" x2="146.43098903348002"   y2="61.99785193738572" />
<line x1="100" y1="100" x2="146.43098903348002"   y2="61.99785193738572" />
<line x1="100" y1="100" x2="152.18551572115203"   y2="70.3913534771109" />
<line x1="100" y1="100" x2="152.18551572115203"   y2="70.3913534771109" />
<line x1="100" y1="100" x2="156.43876013545585"   y2="79.6366418689726" />
<line x1="100" y1="100" x2="156.43876013545585"   y2="79.6366418689726" />
<line x1="100" y1="100" x2="159.0683641784545"   y2="89.46774699879116" />
<line x1="100" y1="100" x2="159.0683641784545"   y2="89.46774699879116" />
<line x1="100" y1="100" x2="159.99867892953895"   y2="99.60184587142967" />
<line x1="100" y1="100" x2="159.99867892953895"   y2="99.60184587142967" />
<line x1="100" y1="100" x2="159.20294092714033"   y2="109.74739891342975" />
<line x1="100" y1="100" x2="159.20294092714033"   y2="109.74739891342975" />
<line x1="100" y1="100" x2="156.70404210479109"   y2="119.61253703573504" />
<line x1="100" y1="100" x2="156.70404210479109"   y2="119.61253703573504" />
<line x1="100" y1="100" x2="152.57387123187658"   y2="128.91345817597852" />
<line x1="100" y1="100" x2="152.57387123187658"   y2="128.91345817597852" />
<line x1="100" y1="100" x2="146.93124580462742"   y2="137.38259176709985" />
<line x1="100" y1="100" x2="146.93124580462742"   y2="137.38259176709985" />
<line x1="100" y1="100" x2="139.93849388308323"   y2="144.77629625539527" />
<line x1="100" y1="100" x2="139.93849388308323"   y2="144.77629625539527" />
<line x1="100" y1="100" x2="131.79678420835555"   y2="150.8818682244203" />
<line x1="100" y1="100" x2="131.79678420835555"   y2="150.8818682244203" />
<line x1="100" y1="100" x2="122.74033894421272"   y2="155.52366148501306" />
<line x1="100" y1="100" x2="122.74033894421272"   y2="155.52366148501306" />
<line x1="100" y1="100" x2="113.02969553187579"   y2="158.56814009635798" />
<line x1="100" y1="100" x2="113.02969553187579"   y2="158.56814009635798" />
<line x1="100" y1="100" x2="102.94421150219378"   y2="159.92771995187493" />
<line x1="100" y1="100" x2="102.94421150219378"   y2="159.92771995187493" />
<line x1="100" y1="100" x2="92.77402786810603"   y2="159.56328841450153" />
<line x1="100" y1="100" x2="92.77402786810603"   y2="159.56328841450153" />
<line x1="100" y1="100" x2="82.81172229595849"   y2="157.48532951604915" />
<line x1="100" y1="100" x2="82.81172229595849"   y2="157.48532951604915" />
<line x1="100" y1="100" x2="73.34389217873778"   y2="153.753622350696" />
<line x1="100" y1="100" x2="73.34389217873778"   y2="153.753622350696" />
<line x1="100" y1="100" x2="64.64290975088144"   y2="148.47552133928718" />
<line x1="100" y1="100" x2="64.64290975088144"   y2="148.47552133928718" />
<line x1="100" y1="100" x2="56.95908643500008"   y2="141.80286783810658" />
<line x1="100" y1="100" x2="56.95908643500008"   y2="141.80286783810658" />
<line x1="100" y1="100" x2="50.51347183798977"   y2="133.92762193951364" />
<line x1="100" y1="100" x2="50.51347183798977"   y2="133.92762193951364" />
<line x1="100" y1="100" x2="45.49149455630539"   y2="125.0763401295866" />
<line x1="100" y1="100" x2="45.49149455630539"   y2="125.0763401295866" />
<line x1="100" y1="100" x2="42.03762773285007"   y2="115.50365767050887" />
<line x1="100" y1="100" x2="42.03762773285007"   y2="115.50365767050887" />
<line x1="100" y1="100" x2="40.25123282769513"   y2="105.48496320768919" />
<line x1="100" y1="100" x2="40.25123282769513"   y2="105.48496320768919" />
<line x1="100" y1="100" x2="40.183701169780825"   y2="95.30847633983156" />
<line x1="100" y1="100" x2="40.183701169780825"   y2="95.30847633983156" />
<line x1="100" y1="100" x2="41.8369755219508"   y2="85.26695606584134" />
<line x1="100" y1="100" x2="41.8369755219508"   y2="85.26695606584134" />
<line x1="100" y1="100" x2="45.16349419120215"   y2="75.6492786414513" />
<line x1="100" y1="100" x2="45.16349419120215"   y2="75.6492786414513" />
<line x1="100" y1="100" x2="50.06755929199781"   y2="66.73212713529995" />
<line x1="100" y1="100" x2="50.06755929199781"   y2="66.73212713529995" />
<line x1="100" y1="100" x2="56.408089800196755"   y2="58.77203176080235" />
<line x1="100" y1="100" x2="56.408089800196755"   y2="58.77203176080235" />
<line x1="100" y1="100" x2="64.00268019725284"   y2="51.99798996897372" />
<line x1="100" y1="100" x2="64.00268019725284"   y2="51.99798996897372" />
<line x1="100" y1="100" x2="72.63284794487886"   y2="46.60487860869798" />
<line x1="100" y1="100" x2="72.63284794487886"   y2="46.60487860869798" />
<line x1="100" y1="100" x2="82.05031882988239"   y2="42.747847674597196" />
<line x1="100" y1="100" x2="82.05031882988239"   y2="42.747847674597196" />
<line x1="100" y1="100" x2="91.98416936124787"   y2="40.53785692416693" />
<line x1="100" y1="100" x2="91.98416936124787"   y2="40.53785692416693" />
<line x1="100" y1="100" x2="102.14862074570422"   y2="40.03848376757698" />
<line x1="100" y1="100" x2="102.14862074570422"   y2="40.03848376757698" />
<line x1="100" y1="100" x2="112.25126022329061"   y2="41.26409426133605" />
<line x1="100" y1="100" x2="112.25126022329061"   y2="41.26409426133605" />
<line x1="100" y1="100" x2="122.00145325006629"   y2="44.179429823002096" />
  <path class="round" d="M 122.0014532500663 44.17942982300211 A 1.698611766908467 1.698611766908467 0 1 1 125.12426610947068 45.51356818013771"/>
<path class="round" d="M 125.12426610947068 45.5135681801377 A 1.698611766908467 1.698611766908467 0 1 1 128.16659837018244 47.02224300470209"/>
<path class="round" d="M 128.16659837018244 47.0222430047021 A 1.698611766908467 1.698611766908467 0 1 1 131.11870452478266 48.7006215564041"/>
<path class="round" d="M 131.11870452478266 48.70062155640411 A 1.698611766908467 1.698611766908467 0 1 1 133.97112808727127 50.543327482753064"/>
<path class="round" d="M 133.97112808727127 50.54332748275307 A 1.698611766908467 1.698611766908467 0 1 1 136.71473188504257 52.54445804113668"/>
<path class="round" d="M 136.71473188504257 52.54445804113668 A 1.698611766908467 1.698611766908467 0 1 1 139.3407273280037 54.697603007085135"/>
<path class="round" d="M 139.34072732800365 54.697603007085114 A 1.698611766908467 1.698611766908467 0 1 1 141.84070256107822 56.9958652081526"/>
<path class="round" d="M 141.84070256107825 56.9958652081526 A 1.698611766908467 1.698611766908467 0 1 1 144.2066494099141 59.43188261763997"/>
<path class="round" d="M 144.20664940991406 59.43188261763997 A 1.698611766908467 1.698611766908467 0 1 1 146.43098903348 61.99785193738572"/>
<path class="round" d="M 146.43098903348002 61.99785193738572 A 1.698611766908467 1.698611766908467 0 1 1 148.50659620137841 64.68555359408249"/>
<path class="round" d="M 148.50659620137844 64.6855535940825 A 1.698611766908467 1.698611766908467 0 1 1 150.4268221181064 67.48637806904841"/>
<path class="round" d="M 150.42682211810637 67.48637806904841 A 1.698611766908467 1.698611766908467 0 1 1 152.18551572115206 70.39135347711094"/>
<path class="round" d="M 152.18551572115203 70.3913534771109 A 1.698611766908467 1.698611766908467 0 1 1 153.7770433847023 73.39117430625987"/>
<path class="round" d="M 153.77704338470232 73.39117430625987 A 1.698611766908467 1.698611766908467 0 1 1 155.19630696584466 76.47623122600784"/>
<path class="round" d="M 155.19630696584466 76.47623122600785 A 1.698611766908467 1.698611766908467 0 1 1 156.43876013545585 79.63664186897262"/>
<path class="round" d="M 156.43876013545585 79.63664186897262 A 1.698611766908467 1.698611766908467 0 1 1 157.50042294146476 82.86228248707921"/>
<path class="round" d="M 157.50042294146476 82.86228248707921 A 1.698611766908467 1.698611766908467 0 1 1 158.37789455783872 86.14282038097708"/>
<path class="round" d="M 158.37789455783872 86.14282038097708 A 1.698611766908467 1.698611766908467 0 1 1 159.06836417845452 89.46774699879116"/>
<path class="round" d="M 159.0683641784545 89.46774699879116 A 1.698611766908467 1.698611766908467 0 1 1 159.56962002095779 92.82641159818154"/>
<path class="round" d="M 159.56962002095779 92.82641159818155 A 1.698611766908467 1.698611766908467 0 1 1 159.8800564117688 96.2080553638822"/>
<path class="round" d="M 159.88005641176883 96.2080553638822 A 1.698611766908467 1.698611766908467 0 1 1 159.99867892953895 99.60184587142972"/>
<path class="round" d="M 159.99867892953895 99.60184587142967 A 1.698611766908467 1.698611766908467 0 1 1 159.925107590582 102.9969117866846"/>
<path class="round" d="M 159.92510759058203 102.99691178668463 A 1.698611766908467 1.698611766908467 0 1 1 159.65957806607662 106.38237768999214"/>
<path class="round" d="M 159.65957806607662 106.38237768999214 A 1.698611766908467 1.698611766908467 0 1 1 159.20294092714033 109.7473989134298"/>
<path class="round" d="M 159.20294092714033 109.74739891342975 A 1.698611766908467 1.698611766908467 0 1 1 158.55665892019397 113.08119627954832"/>
<path class="round" d="M 158.55665892019394 113.08119627954835 A 1.698611766908467 1.698611766908467 0 1 1 157.72280228134375 116.37309063032681"/>
<path class="round" d="M 157.72280228134377 116.37309063032683 A 1.698611766908467 1.698611766908467 0 1 1 156.7040421047911 119.61253703573503"/>
<path class="round" d="M 156.70404210479109 119.61253703573504 A 1.698611766908467 1.698611766908467 0 1 1 155.50364178651242 122.7891585723236"/>
<path class="round" d="M 155.50364178651245 122.78915857232361 A 1.698611766908467 1.698611766908467 0 1 1 154.12544657061818 125.89277956363811"/>
<path class="round" d="M 154.12544657061818 125.89277956363811 A 1.698611766908467 1.698611766908467 0 1 1 152.57387123187658 128.91345817597852"/>
<path class="round" d="M 152.57387123187658 128.91345817597852 A 1.698611766908467 1.698611766908467 0 1 1 150.85388593385917 131.8415182650897"/>
<path class="round" d="M 150.85388593385915 131.8415182650897 A 1.698611766908467 1.698611766908467 0 1 1 148.97100030800843 134.66758037176862"/>
<path class="round" d="M 148.97100030800843 134.66758037176862 A 1.698611766908467 1.698611766908467 0 1 1 146.93124580462737 137.38259176709988"/>
<path class="round" d="M 146.9312458046274 137.38259176709985 A 1.698611766908467 1.698611766908467 0 1 1 144.74115637232583 139.9778554510755"/>
<path class="round" d="M 144.74115637232586 139.9778554510755 A 1.698611766908467 1.698611766908467 0 1 1 142.40774752781314 142.44505801170803"/>
<path class="round" d="M 142.40774752781314 142.445058011708 A 1.698611766908467 1.698611766908467 0 1 1 139.93849388308325 144.77629625539524"/>
<path class="round" d="M 139.93849388308323 144.77629625539527 A 1.698611766908467 1.698611766908467 0 1 1 137.34130520197905 146.96410252323207"/>
<path class="round" d="M 137.34130520197903 146.96410252323207 A 1.698611766908467 1.698611766908467 0 1 1 134.62450106283418 149.00146861217317"/>
<path class="round" d="M 134.62450106283418 149.0014686121732 A 1.698611766908467 1.698611766908467 0 1 1 131.79678420835552 150.88186822442032"/>
<path class="round" d="M 131.79678420835555 150.8818682244203 A 1.698611766908467 1.698611766908467 0 1 1 128.86721266811458 152.59927787312148"/>
<path class="round" d="M 128.86721266811458 152.59927787312145 A 1.698611766908467 1.698611766908467 0 1 1 125.84517074294793 154.14819617741543"/>
<path class="round" d="M 125.84517074294793 154.14819617741546 A 1.698611766908467 1.698611766908467 0 1 1 122.74033894421274 155.52366148501306"/>
<path class="round" d="M 122.74033894421272 155.52366148501304 A 1.698611766908467 1.698611766908467 0 1 1 119.56266298419023 156.72126776586532"/>
<path class="round" d="M 119.5626629841902 156.72126776586535 A 1.698611766908467 1.698611766908467 0 1 1 116.32232191697094 157.7371787260061"/>
<path class="round" d="M 116.32232191697094 157.73717872600608 A 1.698611766908467 1.698611766908467 0 1 1 113.02969553187579 158.56814009635798"/>
<path class="round" d="M 113.02969553187579 158.56814009635798 A 1.698611766908467 1.698611766908467 0 1 1 109.69533110386153 159.2114900571375"/>
<path class="round" d="M 109.69533110386153 159.21149005713752 A 1.698611766908467 1.698611766908467 0 1 1 106.32990960741941 159.66516776446622"/>
<path class="round" d="M 106.3299096074194 159.66516776446622 A 1.698611766908467 1.698611766908467 0 1 1 102.94421150219372 159.92771995187493"/>
<path class="round" d="M 102.94421150219378 159.92771995187493 A 1.698611766908467 1.698611766908467 0 1 1 99.54908219991972 159.99830558555442"/>
<path class="round" d="M 99.54908219991972 159.99830558555442 A 1.698611766908467 1.698611766908467 0 1 1 96.15539732329988 159.87669855844015"/>
<path class="round" d="M 96.15539732329987 159.87669855844015 A 1.698611766908467 1.698611766908467 0 1 1 92.77402786810599 159.5632884145015"/>
<path class="round" d="M 92.77402786810603 159.56328841450153 A 1.698611766908467 1.698611766908467 0 1 1 89.41580538010226 159.05907910091494"/>
<path class="round" d="M 89.41580538010223 159.05907910091491 A 1.698611766908467 1.698611766908467 0 1 1 86.09148725833853 158.36568575211842"/>
<path class="round" d="M 86.09148725833853 158.36568575211842 A 1.698611766908467 1.698611766908467 0 1 1 82.8117222959585 157.48532951604912"/>
<path class="round" d="M 82.81172229595849 157.48532951604912 A 1.698611766908467 1.698611766908467 0 1 1 79.58701656890455 156.42083043913675"/>
<path class="round" d="M 79.58701656890453 156.42083043913675 A 1.698611766908467 1.698611766908467 0 1 1 76.42769978178934 155.1755984328448"/>
<path class="round" d="M 76.42769978178933 155.1755984328448 A 1.698611766908467 1.698611766908467 0 1 1 73.34389217873779 153.753622350696"/>
<path class="round" d="M 73.34389217873779 153.753622350696 A 1.698611766908467 1.698611766908467 0 1 1 70.34547212519408 152.15945721077205"/>
<path class="round" d="M 70.34547212519408 152.159457210772 A 1.698611766908467 1.698611766908467 0 1 1 67.4420444645391 150.3982096046174"/>
<path class="round" d="M 67.4420444645391 150.3982096046174 A 1.698611766908467 1.698611766908467 0 1 1 64.64290975088146 148.47552133928716"/>
<path class="round" d="M 64.64290975088144 148.47552133928718 A 1.698611766908467 1.698611766908467 0 1 1 61.95703445657879 146.39755136493807"/>
<path class="round" d="M 61.957034456578775 146.39755136493807 A 1.698611766908467 1.698611766908467 0 1 1 59.39302224992363 144.1709560458544"/>
<path class="round" d="M 59.39302224992363 144.1709560458544 A 1.698611766908467 1.698611766908467 0 1 1 56.959086435000096 141.80286783810658"/>
<path class="round" d="M 56.95908643500008 141.80286783810658 A 1.698611766908467 1.698611766908467 0 1 1 54.66302364199472 139.30087244214394"/>
<path class="round" d="M 54.66302364199472 139.30087244214394 A 1.698611766908467 1.698611766908467 0 1 1 52.512188852239596 136.6729845035094"/>
<path class="round" d="M 52.51218885223959 136.6729845035094 A 1.698611766908467 1.698611766908467 0 1 1 50.51347183798971 133.92762193951356"/>
<path class="round" d="M 50.51347183798976 133.92762193951364 A 1.698611766908467 1.698611766908467 0 1 1 48.67327509240545 131.07357897410776"/>
<path class="round" d="M 48.67327509240545 131.0735789741078 A 1.698611766908467 1.698611766908467 0 1 1 46.997493320436554 128.11999796733338"/>
<path class="round" d="M 46.99749332043656 128.11999796733335 A 1.698611766908467 1.698611766908467 0 1 1 45.491494556305405 125.0763401295866"/>
<path class="round" d="M 45.49149455630539 125.07634012958658 A 1.698611766908467 1.698611766908467 0 1 1 44.16010296807482 121.95235521450927"/>
<path class="round" d="M 44.16010296807481 121.95235521450925 A 1.698611766908467 1.698611766908467 0 1 1 43.0075834043835 118.75805028758845"/>
<path class="round" d="M 43.0075834043835 118.75805028758843 A 1.698611766908467 1.698611766908467 0 1 1 42.037627732850076 115.50365767050889"/>
<path class="round" d="M 42.03762773285007 115.50365767050887 A 1.698611766908467 1.698611766908467 0 1 1 41.25334301390806 112.19960216394186"/>
<path class="round" d="M 41.253343013908065 112.19960216394185 A 1.698611766908467 1.698611766908467 0 1 1 40.657241547954655 108.8564676537658"/>
<path class="round" d="M 40.657241547954655 108.8564676537658 A 1.698611766908467 1.698611766908467 0 1 1 40.25123282769513 105.48496320768909"/>
<path class="round" d="M 40.251232827695134 105.48496320768919 A 1.698611766908467 1.698611766908467 0 1 1 40.036617421462054 102.09588877087769"/>
<path class="round" d="M 40.03661742146205 102.09588877087768 A 1.698611766908467 1.698611766908467 0 1 1 40.01408280710281 98.7001005704745"/>
<path class="round" d="M 40.01408280710281 98.70010057047449 A 1.698611766908467 1.698611766908467 0 1 1 40.18370116978083 95.30847633983157"/>
<path class="round" d="M 40.18370116978083 95.30847633983154 A 1.698611766908467 1.698611766908467 0 1 1 40.54492917074472 91.93188047385034"/>
<path class="round" d="M 40.54492917074472 91.93188047385033 A 1.698611766908467 1.698611766908467 0 1 1 41.0966096878061 88.5811292270496"/>
<path class="round" d="M 41.0966096878061 88.58112922704959 A 1.698611766908467 1.698611766908467 0 1 1 41.836975521950805 85.26695606584136"/>
<path class="round" d="M 41.836975521950805 85.26695606584134 A 1.698611766908467 1.698611766908467 0 1 1 42.763655058210105 81.99997728600208"/>
<path class="round" d="M 42.763655058210105 81.99997728600208 A 1.698611766908467 1.698611766908467 0 1 1 43.873679862658435 78.7906580054768"/>
<path class="round" d="M 43.87367986265843 78.7906580054768 A 1.698611766908467 1.698611766908467 0 1 1 45.16349419120215 75.64927864145132"/>
<path class="round" d="M 45.163494191202155 75.64927864145132 A 1.698611766908467 1.698611766908467 0 1 1 46.62896637969986 72.58590197907668"/>
<path class="round" d="M 46.62896637969987 72.58590197907668 A 1.698611766908467 1.698611766908467 0 1 1 48.26540207892824 69.61034093733468"/>
<path class="round" d="M 48.26540207892824 69.61034093733466 A 1.698611766908467 1.698611766908467 0 1 1 50.06755929199781 66.73212713529995"/>
<path class="round" d="M 50.067559291997824 66.73212713529995 A 1.698611766908467 1.698611766908467 0 1 1 52.02966516604936 63.96048035949062"/>
<path class="round" d="M 52.02966516604936 63.96048035949062 A 1.698611766908467 1.698611766908467 0 1 1 54.14543448444196 61.304279030112454"/>
<path class="round" d="M 54.14543448444197 61.30427903011245 A 1.698611766908467 1.698611766908467 0 1 1 56.40808980019676 58.77203176080236"/>
<path class="round" d="M 56.40808980019676 58.77203176080235 A 1.698611766908467 1.698611766908467 0 1 1 58.810383146202845 56.37185010297378"/>
<path class="round" d="M 58.81038314620285 56.371850102973774 A 1.698611766908467 1.698611766908467 0 1 1 61.34461925264102 54.11142256207207"/>
<path class="round" d="M 61.344619252641024 54.111422562072065 A 1.698611766908467 1.698611766908467 0 1 1 64.00268019725293 51.997989968973656"/>
<path class="round" d="M 64.00268019725286 51.99798996897373 A 1.698611766908467 1.698611766908467 0 1 1 66.77605140949336 50.03832228542189"/>
<path class="round" d="M 66.77605140949336 50.038322285421884 A 1.698611766908467 1.698611766908467 0 1 1 69.65584894526692 48.238696917798315"/>
<path class="round" d="M 69.65584894526695 48.238696917798315 A 1.698611766908467 1.698611766908467 0 1 1 72.63284794487886 46.60487860869799"/>
<path class="round" d="M 72.63284794487886 46.60487860869799 A 1.698611766908467 1.698611766908467 0 1 1 75.6975121830419 45.142100970720705"/>
<path class="round" d="M 75.69751218304191 45.1421009707207 A 1.698611766908467 1.698611766908467 0 1 1 78.84002461628086 43.85504972163214"/>
<path class="round" d="M 78.84002461628086 43.85504972163214 A 1.698611766908467 1.698611766908467 0 1 1 82.05031882988239 42.74784767459721"/>
<path class="round" d="M 82.0503188298824 42.7478476745972 A 1.698611766908467 1.698611766908467 0 1 1 85.31811128365614 41.82404153156655"/>
<path class="round" d="M 85.31811128365615 41.82404153156654 A 1.698611766908467 1.698611766908467 0 1 1 88.63293425321417 41.086590522120964"/>
<path class="round" d="M 88.63293425321417 41.08659052212096 A 1.698611766908467 1.698611766908467 0 1 1 91.98416936124796 40.537856924166924"/>
<path class="round" d="M 91.98416936124787 40.53785692416694 A 1.698611766908467 1.698611766908467 0 1 1 95.361081591392 40.17959849684828"/>
<path class="round" d="M 95.361081591392 40.17959849684827 A 1.698611766908467 1.698611766908467 0 1 1 98.7528536757179 40.01296284991374"/>
<path class="round" d="M 98.75285367571792 40.01296284991374 A 1.698611766908467 1.698611766908467 0 1 1 102.14862074570422 40.038483767576984"/>
<path class="round" d="M 102.14862074570424 40.038483767576984 A 1.698611766908467 1.698611766908467 0 1 1 105.5375051356861 40.2560794986448"/>
<path class="round" d="M 105.53750513568612 40.25607949864481 A 1.698611766908467 1.698611766908467 0 1 1 108.90865122729774 40.66505301839087"/>
<path class="round" d="M 108.90865122729774 40.66505301839088 A 1.698611766908467 1.698611766908467 0 1 1 112.25126022329061 41.264094261336055"/>
<path class="round" d="M 112.25126022329063 41.26409426133605 A 1.698611766908467 1.698611766908467 0 1 1 115.55462473933676 42.051284317783086"/>
<path class="round" d="M 115.55462473933676 42.051284317783086 A 1.698611766908467 1.698611766908467 0 1 1 118.80816310300867 43.02410158066287"/>
<path class="round" d="M 118.80816310300868 43.02410158066288 A 1.698611766908467 1.698611766908467 0 1 1 122.00145325006628 44.1794298230021"/>
</svg>