<svg viewBox="0 0 200 200" xmlns="http://www.w3.org/2000/svg">
  <defs>
    <style>
      line, path.round {
        stroke: currentColor;
        stroke-width: 1.5;
        stroke-linecap: round;
        fill: none;
      }
    </style>
  </defs>

  <line x1="100" y1="100" x2="70.91518306589566"   y2="130.7082351121374" />
<line x1="100" y1="100" x2="62.369843470197864"   y2="119.31045311056323" />
<line x1="100" y1="100" x2="66.22967997260972"   y2="117.32972279562993" />
<line x1="100" y1="100" x2="66.20388763313645"   y2="117.27936908026635" />
<line x1="100" y1="100" x2="68.66286903188222"   y2="116.02213432233904" />
<line x1="100" y1="100" x2="67.38050183785424"   y2="113.21714436653436" />
<line x1="100" y1="100" x2="33.48600685705948"   y2="126.950906644699" />
<line x1="100" y1="100" x2="28.464474841492546"   y2="105.75597889910712" />
<line x1="100" y1="100" x2="39.8747581820986"   y2="104.83787072843478" />
<line x1="100" y1="100" x2="39.845089408685816"   y2="95.5461894295826" />
<line x1="100" y1="100" x2="58.184132132862274"   y2="96.90399416295156" />
<line x1="100" y1="100" x2="59.335832536785205"   y2="89.77368384272312" />
<line x1="100" y1="100" x2="42.73249304181948"   y2="85.59823873873283" />
<line x1="100" y1="100" x2="47.1292436909169"   y2="73.70054738331346" />
<line x1="100" y1="100" x2="30.6352522227953"   y2="65.49595608637806" />
<line x1="100" y1="100" x2="36.63942725351923"   y2="55.419341617397656" />
<line x1="100" y1="100" x2="49.94282530243988"   y2="64.7796459523936" />
<line x1="100" y1="100" x2="64.5867644844812"   y2="50.079094276413656" />
<line x1="100" y1="100" x2="75.864999904329"   y2="65.97766211204414" />
<line x1="100" y1="100" x2="86.50389648035318"   y2="60.53010140920993" />
<line x1="100" y1="100" x2="84.04425503591762"   y2="53.33678088968001" />
<line x1="100" y1="100" x2="95.06074875147169"   y2="50.93223448942794" />
<line x1="100" y1="100" x2="96.18173940172277"   y2="62.0684378527317" />
<line x1="100" y1="100" x2="103.9538101722753"   y2="62.08232725957398" />
<line x1="100" y1="100" x2="107.98769667649258"   y2="23.396709671891173" />
<line x1="100" y1="100" x2="138.2517328260293"   y2="33.15187120723381" />
<line x1="100" y1="100" x2="119.92554483865092"   y2="65.17843011980378" />
<line x1="100" y1="100" x2="123.38446988213275"   y2="67.400373708122" />
<line x1="100" y1="100" x2="119.61210637659941"   y2="72.65931868901588" />
<line x1="100" y1="100" x2="128.3682183289724"   y2="81.90602973597" />
<line x1="100" y1="100" x2="149.15207183557868"   y2="68.6495600148378" />
<line x1="100" y1="100" x2="155.51827417850404"   y2="82.20962380292104" />
<line x1="100" y1="100" x2="134.0857167465939"   y2="89.07751127278793" />
<line x1="100" y1="100" x2="135.73566662820295"   y2="102.02459298700947" />
<line x1="100" y1="100" x2="140.24863159045248"   y2="102.28027360179276" />
<line x1="100" y1="100" x2="138.5318863898658"   y2="111.85097986841063" />
<line x1="100" y1="100" x2="172.0863339545694"   y2="122.17108406890283" />
<line x1="100" y1="100" x2="160.72298934750566"   y2="144.72935363385855" />
<line x1="100" y1="100" x2="129.7671476115911"   y2="121.92687294379421" />
<line x1="100" y1="100" x2="125.25035851560297"   y2="127.00537407363697" />
<line x1="100" y1="100" x2="124.5214721425139"   y2="126.22582675947574" />
<line x1="100" y1="100" x2="119.33605657976254"   y2="130.2524957846182" />
<line x1="100" y1="100" x2="121.17195636741125"   y2="133.124878287106" />
<line x1="100" y1="100" x2="116.93528397896195"   y2="135.4782391686942" />
<line x1="100" y1="100" x2="130.9620114927834"   y2="164.8632553342137" />
<line x1="100" y1="100" x2="129.24086383117785"   y2="165.65713922062983" />
<line x1="100" y1="100" x2="128.0114425085556"   y2="162.8966090459312" />
<line x1="100" y1="100" x2="104.7790516846184"   y2="168.68613401467996" />
<line x1="100" y1="100" x2="103.62713513998551"   y2="152.13040300782873" />
<line x1="100" y1="100" x2="98.61778591187081"   y2="152.23815187482165" />
<line x1="100" y1="100" x2="98.28334003378792"   y2="164.87789757213892" />
<line x1="100" y1="100" x2="81.66893314947043"   y2="162.25801557182785" />
<line x1="100" y1="100" x2="87.51315919626978"   y2="142.40920266891683" />
<line x1="100" y1="100" x2="78.15414320474306"   y2="138.43462247963535" />
<line x1="100" y1="100" x2="64.85002213308394"   y2="161.84129751211105" />
<line x1="100" y1="100" x2="54.66331328474792"   y2="154.8128804179201" />
<line x1="100" y1="100" x2="66.6359369546754"   y2="140.337760221549" />
<line x1="100" y1="100" x2="64.00275159139335"   y2="138.00649562367784" />
  <path class="round" d="M 70.91518306589566 130.70823511213743 A 7.225913611021305 7.225913611021305 0 1 1 62.369843470197864 119.31045311056326"/>
<path class="round" d="M 66.22967997260972 117.32972279562993 A 0.02828755558586446 0.02828755558586446 0 1 1 66.20388763313643 117.27936908026635"/>
<path class="round" d="M 68.66286903188222 116.02213432233906 A 1.5435941346616977 1.5435941346616977 0 1 1 67.38050183785425 113.21714436653437"/>
<path class="round" d="M 33.48600685705948 126.95090664469902 A 11.018441392239286 11.018441392239286 0 1 1 28.46447484149254 105.75597889910712"/>
<path class="round" d="M 39.8747581820986 104.83787072843478 A 4.659706073811372 4.659706073811372 0 1 1 39.845089408685816 95.54618942958261"/>
<path class="round" d="M 58.18413213286228 96.90399416295158 A 3.624831386586008 3.624831386586008 0 1 1 59.335832536785205 89.77368384272312"/>
<path class="round" d="M 42.73249304181948 85.59823873873283 A 6.378948313126549 6.378948313126549 0 1 1 47.12924369091691 73.70054738331346"/>
<path class="round" d="M 30.63525222279529 65.49595608637807 A 5.8817797406847525 5.8817797406847525 0 1 1 36.6394272535192 55.41934161739767"/>
<path class="round" d="M 49.94282530243987 64.7796459523936 A 10.527202600872739 10.527202600872739 0 1 1 64.58676448448117 50.07909427641367"/>
<path class="round" d="M 75.864999904329 65.97766211204414 A 6.0385401305401665 6.0385401305401665 0 1 1 86.50389648035318 60.53010140920992"/>
<path class="round" d="M 84.04425503591764 53.33678088968 A 5.67513744516523 5.67513744516523 0 1 1 95.0607487514717 50.932234489427934"/>
<path class="round" d="M 96.18173940172278 62.06843785273169 A 3.9063891826664103 3.9063891826664103 0 1 1 103.9538101722753 62.08232725957397"/>
<path class="round" d="M 107.98769667649258 23.396709671891173 A 16.248666118599374 16.248666118599374 0 1 1 138.25173282602933 33.15187120723385"/>
<path class="round" d="M 119.92554483865094 65.17843011980379 A 2.05825654820092 2.05825654820092 0 1 1 123.38446988213273 67.40037370812199"/>
<path class="round" d="M 119.61210637659941 72.65931868901588 A 6.484486990860613 6.484486990860613 0 1 1 128.3682183289724 81.90602973597"/>
<path class="round" d="M 149.15207183557868 68.64956001483779 A 7.552650015649139 7.552650015649139 0 1 1 155.51827417850407 82.20962380292106"/>
<path class="round" d="M 134.08571674659387 89.07751127278793 A 6.6371433958619805 6.6371433958619805 0 1 1 135.73566662820295 102.02459298700947"/>
<path class="round" d="M 140.24863159045245 102.28027360179274 A 4.897474100008143 4.897474100008143 0 1 1 138.53188638986583 111.85097986841058"/>
<path class="round" d="M 172.0863339545694 122.17108406890281 A 12.810228571456022 12.810228571456022 0 1 1 160.72298934750563 144.7293536338586"/>
<path class="round" d="M 129.76714761159107 121.92687294379422 A 3.412702191018624 3.412702191018624 0 1 1 125.25035851560297 127.00537407363697"/>
<path class="round" d="M 124.5214721425139 126.22582675947574 A 3.2964349228343726 3.2964349228343726 0 1 1 119.33605657976254 130.2524957846182"/>
<path class="round" d="M 121.17195636741124 133.12487828710601 A 2.4278219978613116 2.4278219978613116 0 1 1 116.9352839789619 135.47823916869422"/>
<path class="round" d="M 130.96201149278343 164.86325533421365 A 0.9477902751371609 0.9477902751371609 0 1 1 129.24086383117793 165.65713922062977"/>
<path class="round" d="M 128.0114425085556 162.89660904593117 A 12.156617167502416 12.156617167502416 0 1 1 104.77905168461837 168.68613401467994"/>
<path class="round" d="M 103.62713513998554 152.13040300782873 A 2.5081379537730792 2.5081379537730792 0 1 1 98.6177859118709 152.23815187482168"/>
<path class="round" d="M 98.28334003378794 164.87789757213895 A 8.481356919390139 8.481356919390139 0 1 1 81.66893314947042 162.25801557182788"/>
<path class="round" d="M 87.51315919626975 142.40920266891683 A 5.117960308293171 5.117960308293171 0 1 1 78.15414320474302 138.43462247963535"/>
<path class="round" d="M 64.85002213308391 161.84129751211103 A 6.2115952286236915 6.2115952286236915 0 1 1 54.66331328474794 154.8128804179201"/>
<path class="round" d="M 66.63593695467536 140.33776022154896 A 1.7594339972357689 1.7594339972357689 0 1 1 64.0027515913933 138.00649562367778"/>
</svg>