<svg viewBox="0 0 200 200" xmlns="http://www.w3.org/2000/svg">
  <defs>
    <style>
      line, path.round {
        stroke: currentColor;
        stroke-width: 1.5;
        stroke-linecap: round;
        fill: none;
      }
    </style>
  </defs>

  <line x1="100" y1="100" x2="68.20497449113522"   y2="137.63625806892" />
<line x1="100" y1="100" x2="63.37631192873463"   y2="132.9562898488037" />
<line x1="100" y1="100" x2="77.19186995247094"   y2="120.52418487436091" />
<line x1="100" y1="100" x2="74.60959662677041"   y2="117.22731486815734" />
<line x1="100" y1="100" x2="50.21709070828378"   y2="133.77755921457907" />
<line x1="100" y1="100" x2="46.081394358996"   y2="126.68418126477806" />
<line x1="100" y1="100" x2="60.204446901836796"   y2="119.69471835888733" />
<line x1="100" y1="100" x2="57.89334102708314"   y2="114.09245357498475" />
<line x1="100" y1="100" x2="59.41864409486046"   y2="113.58195800979969" />
<line x1="100" y1="100" x2="57.94721132331944"   y2="107.92962767057908" />
<line x1="100" y1="100" x2="33.4424823337412"   y2="112.5503290121658" />
<line x1="100" y1="100" x2="32.35346639833057"   y2="103.37052041770599" />
<line x1="100" y1="100" x2="46.88118775672467"   y2="102.64666985428256" />
<line x1="100" y1="100" x2="47.01555107512284"   y2="95.38900796129627" />
<line x1="100" y1="100" x2="52.21200751115773"   y2="95.84123158053218" />
<line x1="100" y1="100" x2="53.22339301206045"   y2="89.37283576977126" />
<line x1="100" y1="100" x2="44.13286520944598"   y2="87.30756130634657" />
<line x1="100" y1="100" x2="46.38150156345511"   y2="79.81853882623174" />
<line x1="100" y1="100" x2="51.142162132965595"   y2="81.61040337385178" />
<line x1="100" y1="100" x2="54.1012764222216"   y2="75.12887700475605" />
<line x1="100" y1="100" x2="48.0798635733568"   y2="71.86605643164182" />
<line x1="100" y1="100" x2="52.394355347401856"   y2="65.05830650241236" />
<line x1="100" y1="100" x2="40.3860736385466"   y2="56.24444205491961" />
<line x1="100" y1="100" x2="46.89936867038165"   y2="48.53455509072102" />
<line x1="100" y1="100" x2="61.39583194062861"   y2="62.58461274791015" />
<line x1="100" y1="100" x2="66.85012115191162"   y2="57.67650147805475" />
<line x1="100" y1="100" x2="71.13662720195218"   y2="63.14921929112943" />
<line x1="100" y1="100" x2="76.42330953947423"   y2="59.56222069572926" />
<line x1="100" y1="100" x2="78.87503404601193"   y2="63.767318721520326" />
<line x1="100" y1="100" x2="84.00547591635096"   y2="61.22827604396966" />
<line x1="100" y1="100" x2="86.13412154897354"   y2="66.38824582091493" />
<line x1="100" y1="100" x2="90.84006902593283"   y2="64.8132373077004" />
<line x1="100" y1="100" x2="86.64939476799981"   y2="48.71527095270446" />
<line x1="100" y1="100" x2="93.75701272975745"   y2="47.37503250871484" />
<line x1="100" y1="100" x2="95.19681746765814"   y2="59.51179881079924" />
<line x1="100" y1="100" x2="100.75469725282987"   y2="59.23487483114074" />
<line x1="100" y1="100" x2="101.3665610365064"   y2="26.18492846610657" />
<line x1="100" y1="100" x2="111.40498375683777"   y2="27.05852606283193" />
<line x1="100" y1="100" x2="108.82908676373515"   y2="43.53287862598893" />
<line x1="100" y1="100" x2="116.43579087477791"   y2="45.261043600837354" />
<line x1="100" y1="100" x2="112.70337536055544"   y2="57.69175239076912" />
<line x1="100" y1="100" x2="118.34602774300974"   y2="59.81558974716844" />
<line x1="100" y1="100" x2="123.79629268939117"   y2="47.877545955892266" />
<line x1="100" y1="100" x2="130.67199264500613"   y2="51.60327874200585" />
<line x1="100" y1="100" x2="118.83373890478512"   y2="70.28262158998888" />
<line x1="100" y1="100" x2="122.70483628230465"   y2="73.12393797277672" />
<line x1="100" y1="100" x2="144.59929382676032"   y2="47.20713365405084" />
<line x1="100" y1="100" x2="151.37252130383027"   y2="53.771785652542675" />
<line x1="100" y1="100" x2="159.266502610207"   y2="46.66828653230783" />
<line x1="100" y1="100" x2="165.97649192011434"   y2="55.235142053606666" />
<line x1="100" y1="100" x2="140.5768667217257"   y2="72.46871390332271" />
<line x1="100" y1="100" x2="143.94777456849755"   y2="78.25035776003874" />
<line x1="100" y1="100" x2="138.5462328161566"   y2="80.923567082038" />
<line x1="100" y1="100" x2="140.78478507075897"   y2="86.34995736553006" />
<line x1="100" y1="100" x2="152.90206313245238"   y2="82.29449006641639" />
<line x1="100" y1="100" x2="154.82023041984365"   y2="89.6628968084162" />
<line x1="100" y1="100" x2="150.83203210672897"   y2="90.41492607198245" />
<line x1="100" y1="100" x2="151.6637472147219"   y2="97.42582944651988" />
<line x1="100" y1="100" x2="159.250490135"   y2="97.04781640497578" />
<line x1="100" y1="100" x2="159.10061682016013"   y2="105.14325390128361" />
<line x1="100" y1="100" x2="154.35812616554807"   y2="104.730536828713" />
<line x1="100" y1="100" x2="153.207690296686"   y2="112.0882402445269" />
<line x1="100" y1="100" x2="148.58954166029088"   y2="111.03904435027934" />
<line x1="100" y1="100" x2="146.6338263687946"   y2="117.55250116449781" />
<line x1="100" y1="100" x2="171.6519679705553"   y2="126.96907693775077" />
<line x1="100" y1="100" x2="167.31230883844205"   y2="136.47449387950434" />
<line x1="100" y1="100" x2="167.63310837054314"   y2="136.64832539371153" />
<line x1="100" y1="100" x2="162.01289028559864"   y2="145.51635464809652" />
<line x1="100" y1="100" x2="141.98582786540507"   y2="130.81684827967962" />
<line x1="100" y1="100" x2="137.39854263300595"   y2="136.2468879817765" />
<line x1="100" y1="100" x2="139.32747847360483"   y2="138.11642396943063" />
<line x1="100" y1="100" x2="133.77099448939742"   y2="143.1164965008328" />
<line x1="100" y1="100" x2="137.53833322618598"   y2="147.92637698904858" />
<line x1="100" y1="100" x2="130.66272500688888"   y2="152.59145717555748" />
<line x1="100" y1="100" x2="139.45250649479178"   y2="167.6673324149466" />
<line x1="100" y1="100" x2="129.8710098120722"   y2="172.4091908370999" />
<line x1="100" y1="100" x2="115.6396349232373"   y2="137.9114504967819" />
<line x1="100" y1="100" x2="110.33169134306515"   y2="139.68793788159977" />
<line x1="100" y1="100" x2="113.80419523210391"   y2="153.02713996048203" />
<line x1="100" y1="100" x2="106.45509425321059"   y2="154.41291332557702" />
<line x1="100" y1="100" x2="106.16284600764813"   y2="151.9494204885154" />
<line x1="100" y1="100" x2="99.03166641695006"   y2="152.30473487246164" />
<line x1="100" y1="100" x2="98.79918950446152"   y2="164.86202244828002" />
<line x1="100" y1="100" x2="89.97832966782927"   y2="164.09438372962694" />
<line x1="100" y1="100" x2="93.63176804848213"   y2="140.72853016024595" />
<line x1="100" y1="100" x2="88.1452146299956"   y2="139.48204162696666" />
<line x1="100" y1="100" x2="84.32238542118247"   y2="152.21387077817536" />
<line x1="100" y1="100" x2="77.35861974918268"   y2="149.59277972507536" />
<line x1="100" y1="100" x2="68.83853899502648"   y2="168.2548260932719" />
<line x1="100" y1="100" x2="59.83474757064567"   y2="163.37594523376768" />
<line x1="100" y1="100" x2="64.78918576080632"   y2="155.55843670556956" />
<line x1="100" y1="100" x2="57.55193502951157"   y2="150.24642384105536" />
  <path class="round" d="M 68.20497449113522 137.63625806891997 A 3.3700761043714493 3.3700761043714493 0 1 1 63.376311928734616 132.95628984880366"/>
<path class="round" d="M 77.19186995247094 120.5241848743609 A 2.098781911559635 2.098781911559635 0 1 1 74.60959662677041 117.22731486815734"/>
<path class="round" d="M 50.21709070828377 133.77755921457907 A 4.11507718055517 4.11507718055517 0 1 1 46.081394358995986 126.68418126477806"/>
<path class="round" d="M 60.20444690183678 119.69471835888733 A 3.0372034012186235 3.0372034012186235 0 1 1 57.893341027083125 114.09245357498475"/>
<path class="round" d="M 59.41864409486046 113.58195800979968 A 2.9271814764603037 2.9271814764603037 0 1 1 57.94721132331945 107.92962767057908"/>
<path class="round" d="M 33.4424823337412 112.55032901216582 A 4.6328897312793105 4.6328897312793105 0 1 1 32.35346639833058 103.370520417706"/>
<path class="round" d="M 46.88118775672467 102.64666985428258 A 3.6379336335062518 3.6379336335062518 0 1 1 47.01555107512284 95.38900796129629"/>
<path class="round" d="M 52.21200751115772 95.84123158053217 A 3.281142838710887 3.281142838710887 0 1 1 53.22339301206045 89.37283576977124"/>
<path class="round" d="M 44.13286520944598 87.30756130634657 A 3.91879747251836 3.91879747251836 0 1 1 46.38150156345511 79.81853882623174"/>
<path class="round" d="M 51.1421621329656 81.61040337385177 A 3.5708566470326537 3.5708566470326537 0 1 1 54.10127642222161 75.12887700475603"/>
<path class="round" d="M 48.079863573356796 71.86605643164181 A 4.039314164363409 4.039314164363409 0 1 1 52.394355347401856 65.05830650241235"/>
<path class="round" d="M 40.3860736385466 56.2444420549196 A 5.058210615618541 5.058210615618541 0 1 1 46.89936867038163 48.53455509072102"/>
<path class="round" d="M 61.3958319406286 62.58461274791015 A 3.6773199827497796 3.6773199827497796 0 1 1 66.85012115191164 57.67650147805474"/>
<path class="round" d="M 71.1366272019522 63.14921929112943 A 3.201817359460376 3.201817359460376 0 1 1 76.42330953947423 59.56222069572926"/>
<path class="round" d="M 78.87503404601195 63.767318721520326 A 2.868862481896453 2.868862481896453 0 1 1 84.00547591635095 61.228276043969664"/>
<path class="round" d="M 86.13412154897352 66.38824582091496 A 2.487057336538826 2.487057336538826 0 1 1 90.84006902593283 64.81323730770042"/>
<path class="round" d="M 86.64939476799981 48.71527095270445 A 3.624887652918276 3.624887652918276 0 1 1 93.75701272975749 47.37503250871483"/>
<path class="round" d="M 95.19681746765818 59.51179881079924 A 2.788888764708683 2.788888764708683 0 1 1 100.7546972528299 59.234874831140736"/>
<path class="round" d="M 101.36656103650641 26.184928466106562 A 5.0499544111372545 5.0499544111372545 0 1 1 111.40498375683775 27.058526062831923"/>
<path class="round" d="M 108.8290867637351 43.53287862598892 A 3.9093861595468202 3.9093861595468202 0 1 1 116.4357908747779 45.26104360083736"/>
<path class="round" d="M 112.70337536055544 57.69175239076912 A 3.0216008583009306 3.0216008583009306 0 1 1 118.34602774300974 59.81558974716843"/>
<path class="round" d="M 123.79629268939118 47.877545955892266 A 3.91926249223302 3.91926249223302 0 1 1 130.67199264500618 51.60327874200586"/>
<path class="round" d="M 118.83373890478512 70.28262158998888 A 2.4065722541196615 2.4065722541196615 0 1 1 122.70483628230465 73.1239379727767"/>
<path class="round" d="M 144.5992938267603 47.20713365405081 A 4.72724937287753 4.72724937287753 0 1 1 151.3725213038302 53.771785652542626"/>
<path class="round" d="M 159.26650261020694 46.66828653230779 A 5.45364584385031 5.45364584385031 0 1 1 165.9764919201143 55.23514205360666"/>
<path class="round" d="M 140.57686672172574 72.46871390332271 A 3.3541016521665323 3.3541016521665323 0 1 1 143.94777456849758 78.25035776003877"/>
<path class="round" d="M 138.5462328161566 80.92356708203805 A 2.941855064172969 2.941855064172969 0 1 1 140.78478507075897 86.34995736553009"/>
<path class="round" d="M 152.90206313245238 82.29449006641639 A 3.815888745310164 3.815888745310164 0 1 1 154.82023041984368 89.66289680841619"/>
<path class="round" d="M 150.83203210672897 90.4149260719824 A 3.5382809910098367 3.5382809910098367 0 1 1 151.6637472147219 97.42582944651983"/>
<path class="round" d="M 159.250490135 97.04781640497573 A 4.057872188042659 4.057872188042659 0 1 1 159.10061682016013 105.14325390128361"/>
<path class="round" d="M 154.35812616554807 104.73053682871301 A 3.732250866898717 3.732250866898717 0 1 1 153.207690296686 112.08824024452694"/>
<path class="round" d="M 148.58954166029088 111.03904435027935 A 3.408311053771247 3.408311053771247 0 1 1 146.6338263687946 117.5525011644978"/>
<path class="round" d="M 171.65196797055532 126.96907693775078 A 5.236803699683619 5.236803699683619 0 1 1 167.31230883844208 136.47449387950434"/>
<path class="round" d="M 167.63310837054317 136.64832539371147 A 5.261761455635741 5.261761455635741 0 1 1 162.01289028559867 145.5163546480965"/>
<path class="round" d="M 141.98582786540507 130.81684827967962 A 3.5624756357542315 3.5624756357542315 0 1 1 137.39854263300597 136.2468879817765"/>
<path class="round" d="M 139.32747847360486 138.11642396943063 A 3.7462204143275546 3.7462204143275546 0 1 1 133.77099448939745 143.1164965008328"/>
<path class="round" d="M 137.53833322618598 147.92637698904858 A 4.164131746132581 4.164131746132581 0 1 1 130.66272500688888 152.59145717555748"/>
<path class="round" d="M 139.45250649479178 167.6673324149466 A 5.3578223958423425 5.3578223958423425 0 1 1 129.87100981207217 172.40919083709994"/>
<path class="round" d="M 115.6396349232373 137.91145049678192 A 2.8052076840286055 2.8052076840286055 0 1 1 110.33169134306515 139.68793788159977"/>
<path class="round" d="M 113.80419523210391 153.02713996048203 A 3.748044076338101 3.748044076338101 0 1 1 106.45509425321056 154.41291332557705"/>
<path class="round" d="M 106.16284600764811 151.94942048851541 A 3.5783549497919207 3.5783549497919207 0 1 1 99.03166641695006 152.30473487246167"/>
<path class="round" d="M 98.79918950446152 164.86202244828002 A 4.43744413669741 4.43744413669741 0 1 1 89.9783296678293 164.0943837296269"/>
<path class="round" d="M 93.63176804848216 140.72853016024598 A 2.8197568466883682 2.8197568466883682 0 1 1 88.14521462999565 139.48204162696666"/>
<path class="round" d="M 84.3223854211825 152.21387077817536 A 3.729047778479158 3.729047778479158 0 1 1 77.35861974918265 149.59277972507533"/>
<path class="round" d="M 68.83853899502643 168.25482609327184 A 5.132309764134925 5.132309764134925 0 1 1 59.83474757064563 163.37594523376765"/>
<path class="round" d="M 64.78918576080626 155.5584367055695 A 4.4992324158999395 4.4992324158999395 0 1 1 57.551935029511526 150.24642384105533"/>
</svg>