<svg viewBox="0 0 200 200" xmlns="http://www.w3.org/2000/svg">
  <defs>
    <style>
      line, path {
        stroke: currentColor;
        stroke-width: 1.5;
        stroke-linecap: round;
        fill: none;
      }
    </style>
  </defs>

  <line x1="100" y1="100" x2="86.05575280608414"   y2="25.90584570468667" />
<line x1="100" y1="100" x2="102.83850499937267"   y2="24.658586289403445" />
<line x1="100" y1="100" x2="101.41744482854656"   y2="62.37727350733093" />
<line x1="100" y1="100" x2="101.97930990076503"   y2="62.40264595877936" />
<line x1="100" y1="100" x2="104.05887121322633"   y2="22.900997993085852" />
<line x1="100" y1="100" x2="108.56321956177626"   y2="23.270593533349142" />
<line x1="100" y1="100" x2="107.48379281338156"   y2="32.94263021663751" />
<line x1="100" y1="100" x2="110.86146837975562"   y2="33.406257788199" />
<line x1="100" y1="100" x2="112.20490171284234"   y2="25.169410804501325" />
<line x1="100" y1="100" x2="129.64642834281747"   y2="30.21700786237514" />
<line x1="100" y1="100" x2="119.22671141672737"   y2="54.7433695515998" />
<line x1="100" y1="100" x2="129.15247058057858"   y2="60.40249388542657" />
<line x1="100" y1="100" x2="131.36020823746696"   y2="57.403746142027714" />
<line x1="100" y1="100" x2="138.780705343752"   y2="64.02833898092564" />
<line x1="100" y1="100" x2="150.53656775154133"   y2="53.12400153343751" />
<line x1="100" y1="100" x2="152.9173499881594"   y2="55.82921799906703" />
<line x1="100" y1="100" x2="139.34563839002"   y2="67.15769749615228" />
<line x1="100" y1="100" x2="141.4048542524124"   y2="69.79513055136732" />
<line x1="100" y1="100" x2="142.22915348893963"   y2="69.19380369548395" />
<line x1="100" y1="100" x2="143.92226855450193"   y2="71.65996718119379" />
<line x1="100" y1="100" x2="157.34454238914478"   y2="62.99949281373781" />
<line x1="100" y1="100" x2="157.9342143512643"   y2="63.92977846806561" />
<line x1="100" y1="100" x2="145.95537999042662"   y2="71.3878792454404" />
<line x1="100" y1="100" x2="149.45178503289975"   y2="77.97566434150906" />
<line x1="100" y1="100" x2="170.46603808819273"   y2="68.61654894063267" />
<line x1="100" y1="100" x2="176.026090491109"   y2="86.945610359728" />
<line x1="100" y1="100" x2="148.81629316100003"   y2="91.617786636129" />
<line x1="100" y1="100" x2="149.52060200126513"   y2="101.00097766730856" />
<line x1="100" y1="100" x2="150.52202823175162"   y2="101.02121985443198" />
<line x1="100" y1="100" x2="149.6669394490284"   y2="109.31200045143557" />
<line x1="100" y1="100" x2="146.92016505542853"   y2="108.79701070821928" />
<line x1="100" y1="100" x2="145.38020381747572"   y2="114.81642290546351" />
<line x1="100" y1="100" x2="142.38830283635733"   y2="113.83958132040104" />
<line x1="100" y1="100" x2="141.08467782976155"   y2="117.33065134654298" />
<line x1="100" y1="100" x2="143.35674082071628"   y2="118.28907024170336" />
<line x1="100" y1="100" x2="138.20803372350252"   y2="127.46712988072142" />
<line x1="100" y1="100" x2="139.59103756379568"   y2="128.46134869820278" />
<line x1="100" y1="100" x2="130.415826258677"   y2="138.11005297950322" />
<line x1="100" y1="100" x2="131.88414345905952"   y2="139.949807251552" />
<line x1="100" y1="100" x2="120.99851782246931"   y2="146.6009436901602" />
<line x1="100" y1="100" x2="130.321443422039"   y2="167.29083878495652" />
<line x1="100" y1="100" x2="115.91934095500274"   y2="172.06956014252685" />
<line x1="100" y1="100" x2="115.31300607216896"   y2="169.32457915189303" />
<line x1="100" y1="100" x2="100.28533604593393"   y2="170.9950985131668" />
<line x1="100" y1="100" x2="100.13193219505824"   y2="132.82634395020492" />
<line x1="100" y1="100" x2="93.77271579556201"   y2="132.23053202599058" />
<line x1="100" y1="100" x2="85.06643259364597"   y2="177.2916100745432" />
<line x1="100" y1="100" x2="76.76391372104092"   y2="175.21362056058805" />
<line x1="100" y1="100" x2="88.49986956989615"   y2="137.22513491225735" />
<line x1="100" y1="100" x2="79.48733756325748"   y2="133.1239241168889" />
<line x1="100" y1="100" x2="71.80859135289813"   y2="145.5235922520792" />
<line x1="100" y1="100" x2="69.15556127828323"   y2="143.7695507514495" />
<line x1="100" y1="100" x2="67.99326336505322"   y2="145.41890018394884" />
<line x1="100" y1="100" x2="56.84521161835045"   y2="134.9995989073217" />
<line x1="100" y1="100" x2="75.96788202975006"   y2="119.49064104807078" />
<line x1="100" y1="100" x2="71.97667411219626"   y2="113.11948889197673" />
<line x1="100" y1="100" x2="45.62943938080888"   y2="125.45429364629672" />
<line x1="100" y1="100" x2="45.02826409426605"   y2="124.12855525279701" />
<line x1="100" y1="100" x2="36.012608895459074"   y2="128.08576582692936" />
<line x1="100" y1="100" x2="32.99676900310379"   y2="119.84347495846335" />
<line x1="100" y1="100" x2="43.55305299860146"   y2="116.7171577047657" />
<line x1="100" y1="100" x2="43.19213681489869"   y2="115.44628977610849" />
<line x1="100" y1="100" x2="45.73121725602733"   y2="114.75590344471752" />
<line x1="100" y1="100" x2="44.195926382975195"   y2="106.98160688724369" />
<line x1="100" y1="100" x2="54.34956551810876"   y2="105.711292511936" />
<line x1="100" y1="100" x2="54.20423763483129"   y2="104.39649632495438" />
<line x1="100" y1="100" x2="43.14836026950774"   y2="105.45788545127148" />
<line x1="100" y1="100" x2="43.69712426311731"   y2="90.41440469235039" />
<line x1="100" y1="100" x2="44.58722307646482"   y2="90.56594450087529" />
<line x1="100" y1="100" x2="45.79781141130039"   y2="85.11040626030787" />
<line x1="100" y1="100" x2="56.14829716180619"   y2="87.95373292010319" />
<line x1="100" y1="100" x2="56.71564748817129"   y2="86.05190980810605" />
<line x1="100" y1="100" x2="61.259426327833786"   y2="87.51611184394133" />
<line x1="100" y1="100" x2="64.08542283296497"   y2="80.84738506483761" />
<line x1="100" y1="100" x2="49.70352629809635"   y2="73.17777155140014" />
<line x1="100" y1="100" x2="50.813856156943885"   y2="71.19218058156156" />
<line x1="100" y1="100" x2="58.25613242808828"   y2="75.55104537822776" />
<line x1="100" y1="100" x2="66.24511601965408"   y2="65.34585638870631" />
<line x1="100" y1="100" x2="59.21141174369674"   y2="58.124768079224346" />
<line x1="100" y1="100" x2="59.28307083784949"   y2="58.05508779404342" />
<line x1="100" y1="100" x2="48.23849846908378"   y2="46.67742184788826" />
<line x1="100" y1="100" x2="55.227668968161424"   y2="40.687364284677315" />
<line x1="100" y1="100" x2="67.8396228519138"   y2="57.39518827162811" />
<line x1="100" y1="100" x2="76.52477218708869"   y2="52.058644993606244" />
<line x1="100" y1="100" x2="64.82362968143622"   y2="28.162449765402428" />
<line x1="100" y1="100" x2="64.92985345814739"   y2="28.110532940979127" />
<line x1="100" y1="100" x2="80.09080746202791"   y2="59.18861532494066" />
<line x1="100" y1="100" x2="86.23024950570937"   y2="56.729466863294896" />
<line x1="100" y1="100" x2="86.7786534062154"   y2="58.452789966279475" />
<line x1="100" y1="100" x2="91.93616806933096"   y2="57.15202126198962" />
  <path d="M 86.05575280608412 25.905845704686666 A 8.467417494684822 8.467417494684822 0 1 1 102.83850499937263 24.65858628940345"/>
<path d="M 101.41744482854656 62.37727350733093 A 0.28122667489689396 0.28122667489689396 0 1 1 101.97930990076506 62.40264595877937"/>
<path d="M 104.05887121322635 22.900997993085845 A 2.260711627330775 2.260711627330775 0 1 1 108.5632195617763 23.270593533349142"/>
<path d="M 107.48379281338154 32.942630216637504 A 1.7052174840292542 1.7052174840292542 0 1 1 110.86146837975556 33.406257788198985"/>
<path d="M 112.20490171284231 25.16941080450133 A 9.144407669704561 9.144407669704561 0 1 1 129.64642834281744 30.217007862375137"/>
<path d="M 119.2267114167274 54.743369551599805 A 5.751796453881613 5.751796453881613 0 1 1 129.1524705805786 60.402493885426594"/>
<path d="M 131.36020823746694 57.403746142027714 A 4.995789588755704 4.995789588755704 0 1 1 138.780705343752 64.02833898092564"/>
<path d="M 150.53656775154133 53.12400153343749 A 1.8024427759764567 1.8024427759764567 0 1 1 152.91734998815937 55.829217999067"/>
<path d="M 139.34563839002 67.1576974961523 A 1.6739449770409356 1.6739449770409356 0 1 1 141.40485425241243 69.79513055136735"/>
<path d="M 142.22915348893963 69.19380369548394 A 1.4963233134239295 1.4963233134239295 0 1 1 143.92226855450193 71.65996718119378"/>
<path d="M 157.34454238914478 62.99949281373781 A 0.550732109356283 0.550732109356283 0 1 1 157.9342143512643 63.92977846806561"/>
<path d="M 145.95537999042665 71.38787924544042 A 3.7379460585947184 3.7379460585947184 0 1 1 149.45178503289978 77.97566434150906"/>
<path d="M 170.46603808819273 68.6165489406327 A 9.651580032523432 9.651580032523432 0 1 1 176.026090491109 86.94561035972805"/>
<path d="M 148.816293161 91.617786636129 A 4.726162888421324 4.726162888421324 0 1 1 149.52060200126513 101.00097766730853"/>
<path d="M 150.5220282317516 101.02121985443196 A 4.181624211357559 4.181624211357559 0 1 1 149.6669394490284 109.31200045143557"/>
<path d="M 146.92016505542853 108.79701070821928 A 3.1132375543945323 3.1132375543945323 0 1 1 145.38020381747572 114.81642290546351"/>
<path d="M 142.38830283635733 113.83958132040105 A 1.8648926541522126 1.8648926541522126 0 1 1 141.08467782976157 117.330651346543"/>
<path d="M 143.35674082071628 118.28907024170334 A 5.295002597939983 5.295002597939983 0 1 1 138.2080337235025 127.46712988072143"/>
<path d="M 139.59103756379568 128.46134869820278 A 6.720297680046451 6.720297680046451 0 1 1 130.41582625867701 138.11005297950322"/>
<path d="M 131.8841434590595 139.94980725155196 A 6.428621068610029 6.428621068610029 0 1 1 120.99851782246927 146.6009436901602"/>
<path d="M 130.321443422039 167.2908387849565 A 7.627514098096838 7.627514098096838 0 1 1 115.9193409550028 172.06956014252683"/>
<path d="M 115.31300607216896 169.32457915189303 A 7.603349355311137 7.603349355311137 0 1 1 100.28533604593387 170.9950985131668"/>
<path d="M 100.13193219505823 132.82634395020492 A 3.208753996029479 3.208753996029479 0 1 1 93.772715795562 132.23053202599058"/>
<path d="M 85.06643259364593 177.2916100745432 A 4.285643436823567 4.285643436823567 0 1 1 76.76391372104094 175.21362056058808"/>
<path d="M 88.49986956989615 137.22513491225735 A 4.991363696040672 4.991363696040672 0 1 1 79.48733756325748 133.12392411688887"/>
<path d="M 71.80859135289813 145.52359225207917 A 1.5909242279259008 1.5909242279259008 0 1 1 69.15556127828317 143.76955075144946"/>
<path d="M 67.99326336505325 145.41890018394884 A 7.702522392669642 7.702522392669642 0 1 1 56.8452116183505 134.99959890732174"/>
<path d="M 75.96788202975006 119.49064104807076 A 3.7870831089115673 3.7870831089115673 0 1 1 71.97667411219625 113.1194888919767"/>
<path d="M 45.6294393808089 125.45429364629678 A 0.7278917366292983 0.7278917366292983 0 1 1 45.02826409426607 124.12855525279707"/>
<path d="M 36.012608895459046 128.0857658269293 A 4.397034068450416 4.397034068450416 0 1 1 32.99676900310375 119.84347495846329"/>
<path d="M 43.55305299860147 116.71715770476573 A 0.6606030496013131 0.6606030496013131 0 1 1 43.19213681489868 115.44628977610846"/>
<path d="M 45.731217256027314 114.75590344471749 A 3.972092047791083 3.972092047791083 0 1 1 44.19592638297519 106.98160688724371"/>
<path d="M 54.34956551810876 105.71129251193597 A 0.6614701297267381 0.6614701297267381 0 1 1 54.20423763483129 104.3964963249544"/>
<path d="M 43.14836026950775 105.45788545127145 A 7.592968487392595 7.592968487392595 0 1 1 43.697124263117324 90.4144046923504"/>
<path d="M 44.587223076464824 90.56594450087529 A 2.7975782430053497 2.7975782430053497 0 1 1 45.79781141130039 85.11040626030784"/>
<path d="M 56.148297161806205 87.95373292010319 A 0.992559050745815 0.992559050745815 0 1 1 56.71564748817129 86.05190980810607"/>
<path d="M 61.25942632783379 87.51611184394133 A 3.6358201979917095 3.6358201979917095 0 1 1 64.08542283296502 80.84738506483751"/>
<path d="M 49.70352629809634 73.17777155140014 A 1.1377022472614484 1.1377022472614484 0 1 1 50.813856156943835 71.19218058156164"/>
<path d="M 58.25613242808826 75.55104537822778 A 6.539088583553179 6.539088583553179 0 1 1 66.24511601965405 65.34585638870634"/>
<path d="M 59.211411743696715 58.124768079224374 A 0.04997593225608046 0.04997593225608046 0 1 1 59.283070837849515 58.055087794043395"/>
<path d="M 48.23849846908376 46.677421847888276 A 4.61127784159425 4.61127784159425 0 1 1 55.22766896816134 40.687364284677386"/>
<path d="M 67.83962285191384 57.39518827162808 A 5.120218463109647 5.120218463109647 0 1 1 76.52477218708874 52.058644993606215"/>
<path d="M 64.82362968143623 28.162449765402428 A 0.05911610405061522 0.05911610405061522 0 1 1 64.92985345814739 28.110532940979123"/>
<path d="M 80.09080746202791 59.188615324940656 A 3.3156206859225 3.3156206859225 0 1 1 86.23024950570937 56.72946686329489"/>
<path d="M 86.77865340621538 58.452789966279475 A 2.664470689555977 2.664470689555977 0 1 1 91.93616806933096 57.15202126198962"/>
</svg>