<svg viewBox="0 0 200 200" xmlns="http://www.w3.org/2000/svg">
  <defs>
    <style>
      line, path {
        stroke: currentColor;
        stroke-width: 1.5;
        stroke-linecap: round;
        fill: none;
      }
    </style>
  </defs>

  <line x1="100" y1="100" x2="66.6923060287888"   y2="59.07122673768424" />
<line x1="100" y1="100" x2="73.00653104466127"   y2="54.657750472709495" />
<line x1="100" y1="100" x2="66.79498231170786"   y2="44.223908380517194" />
<line x1="100" y1="100" x2="75.26990003476274"   y2="39.98360430903813" />
<line x1="100" y1="100" x2="77.49812709084486"   y2="45.39119088875734" />
<line x1="100" y1="100" x2="85.68902764327333"   y2="42.696837895514754" />
<line x1="100" y1="100" x2="88.46099167329668"   y2="53.79617483788323" />
<line x1="100" y1="100" x2="95.31128953524079"   y2="52.60845890928592" />
<line x1="100" y1="100" x2="95.5276174653226"   y2="54.795011920950344" />
<line x1="100" y1="100" x2="102.15717705157857"   y2="54.625560720471135" />
<line x1="100" y1="100" x2="103.51139701625729"   y2="26.140661201687976" />
<line x1="100" y1="100" x2="114.22798332788246"   y2="27.43901649542559" />
<line x1="100" y1="100" x2="107.00048802802877"   y2="64.29836297809567" />
<line x1="100" y1="100" x2="112.12408644426004"   y2="65.69810141455002" />
<line x1="100" y1="100" x2="113.31838479763248"   y2="62.31914983856997" />
<line x1="100" y1="100" x2="118.662831457762"   y2="64.65987316823669" />
<line x1="100" y1="100" x2="116.20217795258947"   y2="69.31939158904166" />
<line x1="100" y1="100" x2="120.4966497172231"   y2="72.00539956985628" />
<line x1="100" y1="100" x2="141.39988419487824"   y2="43.455480194113534" />
<line x1="100" y1="100" x2="149.19164898003254"   y2="50.08592581192275" />
<line x1="100" y1="100" x2="138.6783492125425"   y2="60.75362318407221" />
<line x1="100" y1="100" x2="143.9804865752892"   y2="66.80347018759358" />
<line x1="100" y1="100" x2="147.7507069532945"   y2="63.95770282748173" />
<line x1="100" y1="100" x2="152.4896458013107"   y2="71.29435101474849" />
<line x1="100" y1="100" x2="146.09652819967062"   y2="74.79063274788854" />
<line x1="100" y1="100" x2="149.27580777539941"   y2="81.77098803015527" />
<line x1="100" y1="100" x2="140.3420685385495"   y2="85.07592095436624" />
<line x1="100" y1="100" x2="142.0851212994593"   y2="91.10881365963192" />
<line x1="100" y1="100" x2="140.55786154227528"   y2="91.43147284824742" />
<line x1="100" y1="100" x2="141.37323889922288"   y2="97.42805648963203" />
<line x1="100" y1="100" x2="171.50519079882014"   y2="95.55492109572057" />
<line x1="100" y1="100" x2="171.39039497889542"   y2="106.01352994490303" />
<line x1="100" y1="100" x2="176.79769287796438"   y2="106.46901065553189" />
<line x1="100" y1="100" x2="175.03739262674753"   y2="117.58190655244363" />
<line x1="100" y1="100" x2="177.64577731547354"   y2="118.19307352193209" />
<line x1="100" y1="100" x2="174.16940209661846"   y2="129.30451248065148" />
<line x1="100" y1="100" x2="150.37295352882361"   y2="119.9024773511015" />
<line x1="100" y1="100" x2="146.93832356095749"   y2="127.02474483163519" />
<line x1="100" y1="100" x2="153.96848106103442"   y2="131.07235876737903" />
<line x1="100" y1="100" x2="148.86918710201016"   y2="138.5991059403281" />
<line x1="100" y1="100" x2="134.48602733081464"   y2="127.23863238454422" />
<line x1="100" y1="100" x2="130.15254574830433"   y2="131.9695661549926" />
<line x1="100" y1="100" x2="150.72569063839074"   y2="153.78246786054274" />
<line x1="100" y1="100" x2="142.35433549995614"   y2="160.59504768765504" />
<line x1="100" y1="100" x2="135.39050574702586"   y2="150.63211022242297" />
<line x1="100" y1="100" x2="127.64126778037185"   y2="155.2454414237015" />
<line x1="100" y1="100" x2="131.26348359662958"   y2="162.48501210081682" />
<line x1="100" y1="100" x2="121.83242943143566"   y2="166.37113204516956" />
<line x1="100" y1="100" x2="109.56538005839485"   y2="129.07899484625563" />
<line x1="100" y1="100" x2="105.22950971771583"   y2="130.16184120776472" />
<line x1="100" y1="100" x2="111.12712293791259"   y2="164.17705162983944" />
<line x1="100" y1="100" x2="101.66429162528601"   y2="165.1132625058866" />
<line x1="100" y1="100" x2="101.8459088187648"   y2="172.2188008712161" />
<line x1="100" y1="100" x2="91.31109590864541"   y2="171.71795817181913" />
<line x1="100" y1="100" x2="90.65232507121387"   y2="177.15543323967472" />
<line x1="100" y1="100" x2="79.51801862548656"   y2="174.9721838013956" />
<line x1="100" y1="100" x2="82.62191858915985"   y2="163.6106775914923" />
<line x1="100" y1="100" x2="73.54532146857981"   y2="160.40253306749466" />
<line x1="100" y1="100" x2="87.74790904539249"   y2="127.97453494483659" />
<line x1="100" y1="100" x2="83.80535011419408"   y2="125.89250187247316" />
<line x1="100" y1="100" x2="65.07033027255599"   y2="155.8466249780061" />
<line x1="100" y1="100" x2="57.31122909524272"   y2="150.16568735045422" />
<line x1="100" y1="100" x2="73.92570003995046"   y2="130.6412002958848" />
<line x1="100" y1="100" x2="69.74216971344089"   y2="126.51821978053874" />
<line x1="100" y1="100" x2="44.74528933192374"   y2="148.42569832434447" />
<line x1="100" y1="100" x2="38.283280221222135"   y2="139.86449308546452" />
<line x1="100" y1="100" x2="34.61930394377232"   y2="142.23115413778976" />
<line x1="100" y1="100" x2="29.16713659937743"   y2="132.26160657926582" />
<line x1="100" y1="100" x2="37.495091947699734"   y2="128.46854773399957" />
<line x1="100" y1="100" x2="34.01612995252209"   y2="119.06438129777811" />
<line x1="100" y1="100" x2="60.96466798301956"   y2="111.27827835987208" />
<line x1="100" y1="100" x2="59.738522649152586"   y2="105.47449997404854" />
<line x1="100" y1="100" x2="63.76767463085055"   y2="104.92664147827034" />
<line x1="100" y1="100" x2="63.43646443384455"   y2="99.59867118990769" />
<line x1="100" y1="100" x2="28.958952946192767"   y2="99.22023900478031" />
<line x1="100" y1="100" x2="29.829545347662176"   y2="88.88488922254393" />
<line x1="100" y1="100" x2="50.0719033405327"   y2="92.09131068015641" />
<line x1="100" y1="100" x2="51.75548308956554"   y2="84.90600149484172" />
<line x1="100" y1="100" x2="34.82665275509092"   y2="79.6095708095264" />
<line x1="100" y1="100" x2="38.49005142874385"   y2="70.33754864414205" />
<line x1="100" y1="100" x2="41.39198366255283"   y2="71.73697143220758" />
<line x1="100" y1="100" x2="46.13167768370734"   y2="63.504764507372606" />
<line x1="100" y1="100" x2="59.201537869062555"   y2="72.35946064065067" />
<line x1="100" y1="100" x2="63.6608068706401"   y2="66.71371196675186" />
<line x1="100" y1="100" x2="56.36567003482044"   y2="60.031449509942895" />
<line x1="100" y1="100" x2="62.65013265257631"   y2="54.10417024482219" />
  <path d="M 66.69230602878882 59.071226737684235 A 3.8621927155111964 3.8621927155111964 0 1 1 73.0065310446613 54.657750472709466"/>
<path d="M 66.79498231170787 44.22390838051718 A 4.750933555310179 4.750933555310179 0 1 1 75.26990003476277 39.98360430903811"/>
<path d="M 77.49812709084489 45.391190888757336 A 4.322865787510155 4.322865787510155 0 1 1 85.6890276432733 42.696837895514754"/>
<path d="M 88.46099167329665 53.79617483788323 A 3.485548226487521 3.485548226487521 0 1 1 95.31128953524076 52.60845890928592"/>
<path d="M 95.52761746532259 54.795011920950344 A 3.324731848785442 3.324731848785442 0 1 1 102.15717705157856 54.625560720471135"/>
<path d="M 103.51139701625732 26.140661201687966 A 5.41191252017896 5.41191252017896 0 1 1 114.2279833278825 27.43901649542558"/>
<path d="M 107.00048802802877 64.29836297809567 A 2.662782766409831 2.662782766409831 0 1 1 112.12408644426003 65.69810141455002"/>
<path d="M 113.31838479763245 62.31914983856996 A 2.9250835251459533 2.9250835251459533 0 1 1 118.662831457762 64.65987316823667"/>
<path d="M 116.20217795258945 69.31939158904164 A 2.5394176605978758 2.5394176605978758 0 1 1 120.49664971722308 72.00539956985628"/>
<path d="M 141.3998841948782 43.45548019411352 A 5.129208847377619 5.129208847377619 0 1 1 149.1916489800325 50.08592581192273"/>
<path d="M 138.67834921254254 60.75362318407222 A 4.032988019236006 4.032988019236006 0 1 1 143.98048657528923 66.80347018759359"/>
<path d="M 147.7507069532945 63.95770282748174 A 4.378715290541775 4.378715290541775 0 1 1 152.4896458013107 71.29435101474846"/>
<path d="M 146.09652819967062 74.79063274788851 A 3.845397883476432 3.845397883476432 0 1 1 149.27580777539944 81.77098803015525"/>
<path d="M 140.3420685385495 85.07592095436625 A 3.148224493453105 3.148224493453105 0 1 1 142.08512129945933 91.10881365963195"/>
<path d="M 140.55786154227528 91.4314728482474 A 3.0339761218915915 3.0339761218915915 0 1 1 141.37323889922286 97.42805648963197"/>
<path d="M 171.50519079882014 95.55492109572053 A 5.243607879077547 5.243607879077547 0 1 1 171.39039497889544 106.01352994490307"/>
<path d="M 176.79769287796438 106.46901065553192 A 5.640772650003095 5.640772650003095 0 1 1 175.03739262674756 117.58190655244361"/>
<path d="M 177.64577731547354 118.19307352193205 A 5.836852291070044 5.836852291070044 0 1 1 174.16940209661846 129.30451248065145"/>
<path d="M 150.3729535288236 119.90247735110151 A 3.964161512717437 3.964161512717437 0 1 1 146.93832356095749 127.02474483163522"/>
<path d="M 153.96848106103442 131.07235876737903 A 4.5578912771380695 4.5578912771380695 0 1 1 148.8691871020102 138.59910594032806"/>
<path d="M 134.48602733081464 127.23863238454419 A 3.216414523657989 3.216414523657989 0 1 1 130.1525457483043 131.96956615499263"/>
<path d="M 150.7256906383907 153.78246786054274 A 5.410980865556842 5.410980865556842 0 1 1 142.35433549995616 160.595047687655"/>
<path d="M 135.39050574702586 150.63211022242294 A 4.521316345990946 4.521316345990946 0 1 1 127.64126778037186 155.2454414237015"/>
<path d="M 131.26348359662956 162.48501210081685 A 5.113806665497295 5.113806665497295 0 1 1 121.83242943143561 166.3711320451696"/>
<path d="M 109.56538005839485 129.07899484625563 A 2.24049753392094 2.24049753392094 0 1 1 105.22950971771584 130.16184120776472"/>
<path d="M 111.12712293791263 164.17705162983944 A 4.76723303861025 4.76723303861025 0 1 1 101.66429162528598 165.11326250588664"/>
<path d="M 101.8459088187647 172.21880087121608 A 5.287461267832352 5.287461267832352 0 1 1 91.31109590864537 171.7179581718191"/>
<path d="M 90.65232507121391 177.15543323967475 A 5.688343272130515 5.688343272130515 0 1 1 79.51801862548665 174.97218380139563"/>
<path d="M 82.62191858915988 163.6106775914923 A 4.826314928637478 4.826314928637478 0 1 1 73.54532146857979 160.40253306749463"/>
<path d="M 87.74790904539246 127.97453494483659 A 2.2352359871247325 2.2352359871247325 0 1 1 83.80535011419407 125.89250187247315"/>
<path d="M 65.07033027255602 155.84662497800613 A 4.821101743088332 4.821101743088332 0 1 1 57.31122909524278 150.16568735045428"/>
<path d="M 73.92570003995051 130.64120029588486 A 2.9447287968929086 2.9447287968929086 0 1 1 69.74216971344093 126.51821978053877"/>
<path d="M 44.7452893319237 148.4256983243444 A 5.37745555868716 5.37745555868716 0 1 1 38.283280221222036 139.86449308546437"/>
<path d="M 34.61930394377227 142.2311541377897 A 5.696702428428372 5.696702428428372 0 1 1 29.167136599377404 132.2616065792658"/>
<path d="M 37.49509194769974 128.46854773399963 A 5.026930218482478 5.026930218482478 0 1 1 34.01612995252212 119.0643812977782"/>
<path d="M 60.96466798301956 111.27827835987209 A 2.973876645359875 2.973876645359875 0 1 1 59.73852264915257 105.47449997404851"/>
<path d="M 63.76767463085054 104.9266414782703 A 2.6762670749369746 2.6762670749369746 0 1 1 63.43646443384454 99.59867118990768"/>
<path d="M 28.958952946192763 99.22023900478034 A 5.19984766941245 5.19984766941245 0 1 1 29.829545347662165 88.88488922254402"/>
<path d="M 50.07190334053269 92.09131068015644 A 3.699826349126855 3.699826349126855 0 1 1 51.75548308956554 84.90600149484169"/>
<path d="M 34.826652755090954 79.60957080952633 A 4.998082328094706 4.998082328094706 0 1 1 38.49005142874386 70.337548644142"/>
<path d="M 41.39198366255281 71.73697143220761 A 4.762281509657559 4.762281509657559 0 1 1 46.131677683707295 63.50476450737268"/>
<path d="M 59.201537869062534 72.3594606406507 A 3.6068277880980655 3.6068277880980655 0 1 1 63.660806870640116 66.71371196675184"/>
<path d="M 56.36567003482048 60.031449509942846 A 4.33090281540387 4.33090281540387 0 1 1 62.6501326525764 54.10417024482209"/>
</svg>