<svg viewBox="0 0 200 200" xmlns="http://www.w3.org/2000/svg">
  <defs>
    <style>
      line, path.round {
        stroke: currentColor;
        stroke-width: 1.5;
        stroke-linecap: round;
        fill: none;
      }
    </style>
  </defs>

  <line x1="100" y1="100" x2="85.62374983042135"   y2="134.16128115149417" />
<line x1="100" y1="100" x2="68.8173272822366"   y2="120.03273873005374" />
<line x1="100" y1="100" x2="42.04080892454854"   y2="137.2348240424678" />
<line x1="100" y1="100" x2="34.51431771509387"   y2="121.38516699197277" />
<line x1="100" y1="100" x2="30.522906566520888"   y2="122.68861212635338" />
<line x1="100" y1="100" x2="27.078717094833934"   y2="104.9321528412279" />
<line x1="100" y1="100" x2="39.771507623319316"   y2="104.07365474061721" />
<line x1="100" y1="100" x2="43.635444596974416"   y2="78.38743765462098" />
<line x1="100" y1="100" x2="51.82613546263228"   y2="81.52809610069566" />
<line x1="100" y1="100" x2="75.5426017395366"   y2="54.57128519912904" />
<line x1="100" y1="100" x2="73.90776360215352"   y2="51.53463368379507" />
<line x1="100" y1="100" x2="79.87344360928397"   y2="48.76897170408969" />
<line x1="100" y1="100" x2="82.12949574348207"   y2="54.51162675547572" />
<line x1="100" y1="100" x2="105.76485388549422"   y2="51.468427982453726" />
<line x1="100" y1="100" x2="106.97030904388154"   y2="41.32027245323841" />
<line x1="100" y1="100" x2="133.20436272029508"   y2="51.118859163594955" />
<line x1="100" y1="100" x2="144.90788279856065"   y2="33.88975532424537" />
<line x1="100" y1="100" x2="176.66407337625452"   y2="77.41898492322225" />
<line x1="100" y1="100" x2="161.8480877859043"   y2="81.78295854553495" />
<line x1="100" y1="100" x2="161.95369274828573"   y2="82.14540627800145" />
<line x1="100" y1="100" x2="141.68569943624962"   y2="87.98649128994533" />
<line x1="100" y1="100" x2="143.0891625964577"   y2="105.03448068344025" />
<line x1="100" y1="100" x2="142.16146586767343"   y2="104.92608982644228" />
<line x1="100" y1="100" x2="137.81850719105137"   y2="119.27734626263593" />
<line x1="100" y1="100" x2="143.39798299685754"   y2="122.12138996137759" />
<line x1="100" y1="100" x2="131.28266654360004"   y2="137.33812523334294" />
<line x1="100" y1="100" x2="143.84165626598892"   y2="152.32818787411094" />
<line x1="100" y1="100" x2="137.75356074300873"   y2="156.87704916358905" />
<line x1="100" y1="100" x2="141.9055079408204"   y2="163.1321016737894" />
<line x1="100" y1="100" x2="117.68634942526268"   y2="173.68125203561186" />
<line x1="100" y1="100" x2="108.68166799640879"   y2="136.16778976554684" />
<line x1="100" y1="100" x2="101.40905453006441"   y2="137.16846702590743" />
<line x1="100" y1="100" x2="101.51871894506037"   y2="140.06122816873324" />
<line x1="100" y1="100" x2="84.44963547782504"   y2="136.95124724348113" />
  <path class="round" d="M 85.62374983042133 134.16128115149417 A 11.49383799033129 11.49383799033129 0 1 1 68.81732728223659 120.03273873005374"/>
<path class="round" d="M 42.04080892454854 137.2348240424678 A 8.844981914269706 8.844981914269706 0 1 1 34.51431771509387 121.38516699197277"/>
<path class="round" d="M 30.522906566520884 122.68861212635338 A 9.113742533064109 9.113742533064109 0 1 1 27.07871709483394 104.93215284122792"/>
<path class="round" d="M 39.77150762331932 104.0736547406172 A 13.29904967218405 13.29904967218405 0 1 1 43.63544459697442 78.38743765462095"/>
<path class="round" d="M 51.826135462632266 81.52809610069568 A 19.14888244325319 19.14888244325319 0 1 1 75.5426017395366 54.57128519912904"/>
<path class="round" d="M 73.90776360215352 51.53463368379508 A 3.293669866997665 3.293669866997665 0 1 1 79.87344360928397 48.768971704089694"/>
<path class="round" d="M 82.12949574348204 54.511626755475724 A 12.28595983625699 12.28595983625699 0 1 1 105.76485388549419 51.468427982453726"/>
<path class="round" d="M 106.97030904388151 41.32027245323841 A 14.41257998325691 14.41257998325691 0 1 1 133.2043627202951 51.11885916359496"/>
<path class="round" d="M 144.90788279856065 33.88975532424539 A 28.615783054816855 28.615783054816855 0 1 1 176.66407337625452 77.41898492322225"/>
<path class="round" d="M 161.84808778590434 81.78295854553492 A 0.1887604225007144 0.1887604225007144 0 1 1 161.95369274828573 82.14540627800136"/>
<path class="round" d="M 141.68569943624962 87.98649128994533 A 8.72405539556497 8.72405539556497 0 1 1 143.0891625964577 105.03448068344025"/>
<path class="round" d="M 142.1614658676734 104.92608982644228 A 7.616731719827915 7.616731719827915 0 1 1 137.81850719105137 119.27734626263593"/>
<path class="round" d="M 143.39798299685754 122.1213899613776 A 9.92518360953362 9.92518360953362 0 1 1 131.2826665436 137.338125233343"/>
<path class="round" d="M 143.84165626598895 152.32818787411094 A 3.80580323157353 3.80580323157353 0 1 1 137.75356074300885 156.877049163589"/>
<path class="round" d="M 141.9055079408204 163.1321016737894 A 13.413808126844309 13.413808126844309 0 1 1 117.68634942526265 173.68125203561186"/>
<path class="round" d="M 108.68166799640879 136.16778976554684 A 3.6885720264545707 3.6885720264545707 0 1 1 101.40905453006441 137.16846702590743"/>
<path class="round" d="M 101.51871894506037 140.06122816873324 A 8.885568730790252 8.885568730790252 0 1 1 84.44963547782505 136.95124724348113"/>
</svg>