<svg viewBox="0 0 200 200" xmlns="http://www.w3.org/2000/svg">
  <defs>
    <style>
      line, path {
        stroke: currentColor;
        stroke-width: 1.5;
        stroke-linecap: round;
        fill: none;
      }
    </style>
  </defs>

  <line x1="100" y1="100" x2="78.52451858537809"   y2="39.09192561616099" />
<line x1="100" y1="100" x2="101.48082046454735"   y2="35.43377819719653" />
<line x1="100" y1="100" x2="101.0867759855115"   y2="52.61476930497144" />
<line x1="100" y1="100" x2="121.09964984324954"   y2="57.55773396063752" />
<line x1="100" y1="100" x2="115.76767713110267"   y2="68.28307803244726" />
<line x1="100" y1="100" x2="126.43901540387101"   y2="76.42965325498162" />
<line x1="100" y1="100" x2="145.58419218344002"   y2="59.361753853438614" />
<line x1="100" y1="100" x2="147.88977326838855"   y2="62.1059999051612" />
<line x1="100" y1="100" x2="134.82493417223787"   y2="72.44388584949459" />
<line x1="100" y1="100" x2="142.52742396097932"   y2="87.21197128484975" />
<line x1="100" y1="100" x2="174.71440435186156"   y2="77.53332181221188" />
<line x1="100" y1="100" x2="170.79016534209904"   y2="132.798572183639" />
<line x1="100" y1="100" x2="171.8828267164407"   y2="133.3048251749328" />
<line x1="100" y1="100" x2="137.8798157220495"   y2="169.58068494591188" />
<line x1="100" y1="100" x2="130.70622028652483"   y2="156.4036492498769" />
<line x1="100" y1="100" x2="100.82636253907174"   y2="164.2149572758695" />
<line x1="100" y1="100" x2="100.93195609605112"   y2="172.4204184741171" />
<line x1="100" y1="100" x2="87.97561089012369"   y2="171.42128268706392" />
<line x1="100" y1="100" x2="88.9110829155523"   y2="165.8648580434952" />
<line x1="100" y1="100" x2="43.5365789776531"   y2="135.67948561356687" />
<line x1="100" y1="100" x2="69.30534553103584"   y2="119.39608799306316" />
<line x1="100" y1="100" x2="63.72099677062899"   y2="98.51542360013427" />
<line x1="100" y1="100" x2="24.680518886247683"   y2="96.91784464405893" />
<line x1="100" y1="100" x2="27.68260792933279"   y2="78.72281219285671" />
<line x1="100" y1="100" x2="60.64864796683155"   y2="88.42206440662912" />
<line x1="100" y1="100" x2="68.2099141378538"   y2="74.0776555782474" />
<line x1="100" y1="100" x2="71.22942716838095"   y2="76.53983379011872" />
<line x1="100" y1="100" x2="87.65566527673708"   y2="64.98939218044342" />
  <path d="M 78.5245185853781 39.09192561616099 A 11.815897751364217 11.815897751364217 0 1 1 101.48082046454738 35.43377819719653"/>
<path d="M 101.08677598551147 52.61476930497143 A 10.559840336710003 10.559840336710003 0 1 1 121.09964984324951 57.55773396063751"/>
<path d="M 115.76767713110269 68.28307803244728 A 6.83665103534584 6.83665103534584 0 1 1 126.439015403871 76.4296532549816"/>
<path d="M 145.58419218344002 59.36175385343863 A 1.7928791934328214 1.7928791934328214 0 1 1 147.88977326838858 62.10599990516123"/>
<path d="M 134.82493417223787 72.44388584949459 A 8.478456724591767 8.478456724591767 0 1 1 142.5274239609793 87.21197128484974"/>
<path d="M 174.71440435186153 77.53332181221191 A 29.63309001831188 29.63309001831188 0 1 1 170.79016534209904 132.798572183639"/>
<path d="M 171.8828267164407 133.30482517493277 A 26.182843644358552 26.182843644358552 0 1 1 137.8798157220495 169.58068494591188"/>
<path d="M 130.70622028652483 156.40364924987688 A 15.908761605097961 15.908761605097961 0 1 1 100.82636253907174 164.2149572758695"/>
<path d="M 100.93195609605111 172.4204184741171 A 6.523710606913301 6.523710606913301 0 1 1 87.97561089012359 171.4212826870639"/>
<path d="M 88.91108291555226 165.8648580434952 A 29.845527221569988 29.845527221569988 0 1 1 43.53657897765311 135.67948561356692"/>
<path d="M 69.30534553103584 119.39608799306316 A 11.320326632245992 11.320326632245992 0 1 1 63.720996770629 98.51542360013428"/>
<path d="M 24.680518886247686 96.9178446440589 A 9.290276332952017 9.290276332952017 0 1 1 27.682607929332818 78.72281219285661"/>
<path d="M 60.64864796683154 88.42206440662913 A 8.270800668373406 8.270800668373406 0 1 1 68.20991413785377 74.07765557824746"/>
<path d="M 71.22942716838097 76.5398337901187 A 10.429022810929661 10.429022810929661 0 1 1 87.65566527673712 64.9893921804434"/>
</svg>