<svg viewBox="0 0 200 200" xmlns="http://www.w3.org/2000/svg">
  <defs>
    <style>
      line, path.round {
        stroke: currentColor;
        stroke-width: 1.5;
        stroke-linecap: round;
        fill: none;
      }
    </style>
  </defs>

  <line x1="100" y1="100" x2="151.8343926051843"   y2="69.78087123605948" />
<line x1="100" y1="100" x2="54.16553184627703"   y2="138.71952387446615" />
<line x1="100" y1="100" x2="54.16553184627703"   y2="138.71952387446615" />
<line x1="100" y1="100" x2="49.21768325059713"   y2="131.95553638359584" />
<line x1="100" y1="100" x2="49.21768325059713"   y2="131.95553638359584" />
<line x1="100" y1="100" x2="151.8343926051843"   y2="69.78087123605951" />
  <path class="round" d="M 163.17594025586817 89.23484816134585 A 11.25930638763227 11.25930638763227 0 0 1 148.69373715170667 72.49853060135405"/>
<path class="round" d="M 162.78071860682604 112.87125838963837 A 11.25930638763227 11.25930638763227 0 0 1 155.35142738938413 92.02313703001663"/>
<path class="round" d="M 153.84315944277654 134.7563246408773 A 11.25930638763227 11.25930638763227 0 0 1 154.47765597465977 112.63312536115956"/>
<path class="round" d="M 137.57936300331386 151.9122278233893 A 11.25930638763227 11.25930638763227 0 0 1 146.1913137151123 131.5241715855664"/>
<path class="round" d="M 116.2022832262759 162.00462837222594 A 11.25930638763227 11.25930638763227 0 0 1 131.6198922023756 146.12584171583543"/>
<path class="round" d="M 92.62061938419443 163.6602911008847 A 11.25930638763227 11.25930638763227 0 0 1 112.74607024926748 154.45134112292274"/>
<path class="round" d="M 70.04304025587184 156.65393617579446 A 11.25930638763227 11.25930638763227 0 0 1 92.13793820103088 155.36785024861763"/>
<path class="round" d="M 51.541592569440894 141.9388921004864 A 11.25930638763227 11.25930638763227 0 0 1 72.59956748941177 148.75066312489355"/>
<path class="round" d="M 53.488945443169804 137.91861066987713 A 0.5242211179823505 0.5242211179823505 0 0 1 54.17247726212951 138.71355184422765"/>
<path class="round" d="M 52.83350514931281 137.10014817520616 A 0.5242211179823505 0.5242211179823505 0 0 1 53.50304284933662 137.90691114315584"/>
<path class="round" d="M 52.19246566701359 136.27035831257365 A 0.5242211179823505 0.5242211179823505 0 0 1 52.84780482574027 137.0886967543247"/>
<path class="round" d="M 51.56602271759528 135.4294944323181 A 0.5242211179823505 0.5242211179823505 0 0 1 52.20696324774335 136.25915849386448"/>
<path class="round" d="M 50.95436756578722 134.57781326588267 A 0.5242211179823505 0.5242211179823505 0 0 1 51.58071377624537 135.4185496352951"/>
<path class="round" d="M 50.357686961327815 133.71557484742965 A 0.5242211179823505 0.5242211179823505 0 0 1 50.96924761690302 134.5671268321966"/>
<path class="round" d="M 49.7761630819467 132.84304243444785 A 0.5242211179823505 0.5242211179823505 0 0 1 50.372751461751925 133.70515003984843"/>
<path class="round" d="M 49.209973477742366 131.96048242737461 A 0.5242211179823505 0.5242211179823505 0 0 1 49.79140743220593 132.83288243585983"/>
<path class="round" d="M 36.36440362177935 111.52967622765927 A 12.066716209541646 12.066716209541646 0 0 1 52.66622394172681 128.67704572526677"/>
<path class="round" d="M 36.85467513951571 86.03251960479747 A 12.066716209541646 12.066716209541646 0 0 1 45.26010438614879 108.14881191637578"/>
<path class="round" d="M 47.163722393901175 62.707234896595295 A 12.066716209541646 12.066716209541646 0 0 1 46.36575921873826 86.35347944414272"/>
<path class="round" d="M 65.68854115187538 45.18078482831122 A 12.066716209541646 12.066716209541646 0 0 1 55.811264756034554 66.6801112696558"/>
<path class="round" d="M 89.54861664297034 36.178442934609755 A 12.066716209541646 12.066716209541646 0 0 1 72.12789309466699 52.18781573571978"/>
<path class="round" d="M 115.03382890463624 37.10002743408719 A 12.066716209541646 12.066716209541646 0 0 1 92.77849180428147 45.13007083253189"/>
<path class="round" d="M 138.18135750082232 47.80223664062933 A 12.066716209541646 12.066716209541646 0 0 1 114.55199818142007 46.60431987143771"/>
<path class="round" d="M 155.39187987446215 66.62093164422325 A 12.066716209541646 12.066716209541646 0 0 1 134.0627431113861 56.381324651114056"/>
</svg>