<svg viewBox="0 0 200 200" xmlns="http://www.w3.org/2000/svg">
  <defs>
    <style>
      line, path {
        stroke: currentColor;
        stroke-width: 1.5;
        stroke-linecap: round;
        fill: none;
      }
    </style>
  </defs>

  <line x1="100" y1="100" x2="44.360037864962656"   y2="134.0561798547699" />
<line x1="100" y1="100" x2="45.66619674976115"   y2="63.89644619911831" />
<line x1="100" y1="100" x2="64.67523973543902"   y2="76.52751498287176" />
<line x1="100" y1="100" x2="130.56010850416115"   y2="70.59122564876404" />
<line x1="100" y1="100" x2="136.4586946258337"   y2="64.91486529749176" />
<line x1="100" y1="100" x2="149.7486621221463"   y2="109.23437642558869" />
<line x1="100" y1="100" x2="139.76866343999473"   y2="107.38188309960555" />
<line x1="100" y1="100" x2="137.62553131042642"   y2="114.84446642718878" />
<line x1="100" y1="100" x2="167.04767835439264"   y2="126.45243736603206" />
<line x1="100" y1="100" x2="90.51548907858391"   y2="171.45044903917318" />
<line x1="100" y1="100" x2="95.77513012182652"   y2="131.82756100221778" />
<line x1="100" y1="100" x2="81.06216243399277"   y2="125.92684850036574" />
<line x1="100" y1="100" x2="71.43592309602337"   y2="139.10565247277793" />
<line x1="100" y1="100" x2="64.8856154396829"   y2="133.34874123033939" />
<line x1="100" y1="100" x2="44.781265720041496"   y2="152.442191529971" />
<line x1="100" y1="100" x2="36.68849131643433"   y2="142.3195573719482" />
<line x1="100" y1="100" x2="35.438390830033484"   y2="143.15516688994842" />
<line x1="100" y1="100" x2="35.303126385825124"   y2="142.9521169730467" />
<line x1="100" y1="100" x2="43.28100470559508"   y2="137.65562050196507" />
<line x1="100" y1="100" x2="42.68139345167215"   y2="136.73646044398845" />
<line x1="100" y1="100" x2="32.85025637317912"   y2="143.0374017988516" />
<line x1="100" y1="100" x2="32.28243668460041"   y2="142.1383155971903" />
<line x1="100" y1="100" x2="38.25656733893237"   y2="138.42081912203523" />
<line x1="100" y1="100" x2="38.15153690681118"   y2="138.25151541822106" />
<line x1="100" y1="100" x2="48.91432268562981"   y2="131.5950385136748" />
<line x1="100" y1="100" x2="48.77059105121486"   y2="131.36144996818044" />
<line x1="100" y1="100" x2="34.41608985913457"   y2="140.1489409853745" />
<line x1="100" y1="100" x2="34.41418689567112"   y2="140.14583229995662" />
<line x1="100" y1="100" x2="46.46105705037104"   y2="132.7718041972538" />
<line x1="100" y1="100" x2="46.460394157496594"   y2="132.77072121171796" />
<line x1="100" y1="100" x2="37.582825207691236"   y2="138.20453665570318" />
<line x1="100" y1="100" x2="37.58278458937698"   y2="138.20447029490757" />
<line x1="100" y1="100" x2="46.90127796767198"   y2="132.50078580462232" />
<line x1="100" y1="100" x2="46.90125635086239"   y2="132.50075048775867" />
<line x1="100" y1="100" x2="63.54777346671187"   y2="122.31172788399665" />
<line x1="100" y1="100" x2="63.54777307774338"   y2="122.31172724851169" />
<line x1="100" y1="100" x2="63.433839282028224"   y2="122.38146399682628" />
<line x1="100" y1="100" x2="63.4338391620856"   y2="122.38146380086762" />
<line x1="100" y1="100" x2="59.3135834807746"   y2="124.90339531537225" />
<line x1="100" y1="100" x2="59.31358308629315"   y2="124.90339467088035" />
<line x1="100" y1="100" x2="32.39411138647425"   y2="141.38029971498952" />
<line x1="100" y1="100" x2="32.3941113514809"   y2="141.38029965781843" />
<line x1="100" y1="100" x2="52.025180151898056"   y2="129.3644897068859" />
<line x1="100" y1="100" x2="52.02518014885775"   y2="129.36448970191876" />
<line x1="100" y1="100" x2="59.73949764973005"   y2="124.64270028166514" />
<line x1="100" y1="100" x2="59.73949763938567"   y2="124.64270026476481" />
<line x1="100" y1="100" x2="65.54631798060092"   y2="121.08845417319361" />
<line x1="100" y1="100" x2="65.54631798029928"   y2="121.0884541727008" />
<line x1="100" y1="100" x2="39.72827642468671"   y2="136.89119438093445" />
<line x1="100" y1="100" x2="39.72827642400636"   y2="136.8911943798229" />
<line x1="100" y1="100" x2="58.80206506371844"   y2="125.21648520413338" />
<line x1="100" y1="100" x2="58.802065063103605"   y2="125.21648520312888" />
<line x1="100" y1="100" x2="54.892091727697974"   y2="127.60970673007932" />
<line x1="100" y1="100" x2="54.89209172762303"   y2="127.6097067299569" />
<line x1="100" y1="100" x2="48.34819887028406"   y2="131.6151011182848" />
<line x1="100" y1="100" x2="48.348198870159436"   y2="131.6151011180812" />
<line x1="100" y1="100" x2="51.59254041360736"   y2="129.62930035771933" />
<line x1="100" y1="100" x2="51.592540413590626"   y2="129.629300357692" />
<line x1="100" y1="100" x2="65.34719344147547"   y2="121.21033457512371" />
<line x1="100" y1="100" x2="65.34719344146961"   y2="121.21033457511416" />
<line x1="100" y1="100" x2="69.2149961889512"   y2="118.84292487610277" />
<line x1="100" y1="100" x2="69.21499618894612"   y2="118.84292487609446" />
<line x1="100" y1="100" x2="62.72704861045266"   y2="122.81407620587584" />
<line x1="100" y1="100" x2="62.727048610450964"   y2="122.81407620587305" />
<line x1="100" y1="100" x2="72.00320049030739"   y2="117.13631718774401" />
<line x1="100" y1="100" x2="72.00320049030734"   y2="117.13631718774391" />
<line x1="100" y1="100" x2="68.47107811993287"   y2="119.29826320817057" />
<line x1="100" y1="100" x2="68.47107811993263"   y2="119.29826320817017" />
<line x1="100" y1="100" x2="71.35587563514623"   y2="117.53253262078644" />
<line x1="100" y1="100" x2="71.3558756351462"   y2="117.53253262078638" />
<line x1="100" y1="100" x2="73.89777946690586"   y2="115.97668084184667" />
<line x1="100" y1="100" x2="73.89777946690583"   y2="115.97668084184662" />
<line x1="100" y1="100" x2="60.60040720407593"   y2="124.11575362337881" />
<line x1="100" y1="100" x2="60.60040720407593"   y2="124.11575362337881" />
<line x1="100" y1="100" x2="39.326838633242545"   y2="137.1369069383782" />
<line x1="100" y1="100" x2="39.326838633242545"   y2="137.1369069383782" />
<line x1="100" y1="100" x2="48.18854959542725"   y2="131.7128194521809" />
<line x1="100" y1="100" x2="48.18854959542725"   y2="131.7128194521809" />
<line x1="100" y1="100" x2="65.0258292824632"   y2="121.4070355644224" />
<line x1="100" y1="100" x2="65.0258292824632"   y2="121.4070355644224" />
<line x1="100" y1="100" x2="43.545202988387494"   y2="134.55492503797532" />
<line x1="100" y1="100" x2="43.545202988387494"   y2="134.55492503797532" />
<line x1="100" y1="100" x2="33.815250671829006"   y2="140.5104468132568" />
<line x1="100" y1="100" x2="33.815250671829006"   y2="140.5104468132568" />
<line x1="100" y1="100" x2="70.54587909703422"   y2="118.02831634753892" />
<line x1="100" y1="100" x2="70.54587909703422"   y2="118.02831634753892" />
<line x1="100" y1="100" x2="53.489562213356294"   y2="128.4681688053949" />
<line x1="100" y1="100" x2="53.489562213356294"   y2="128.4681688053949" />
<line x1="100" y1="100" x2="67.30793611035162"   y2="120.01020067100997" />
<line x1="100" y1="100" x2="67.30793611035162"   y2="120.01020067100997" />
<line x1="100" y1="100" x2="61.641142404525574"   y2="123.4787390782991" />
<line x1="100" y1="100" x2="61.641142404525574"   y2="123.4787390782991" />
  <path d="M 44.36003786496267 134.0561798547699 A 7.441045449409997 7.441045449409997 0 1 1 38.11983865102162 120.6512567199487"/>
<path d="M 38.1198386510216 120.65125671994868 A 7.441045449409997 7.441045449409997 0 1 1 35.0587199636982 106.18537953042937"/>
<path d="M 35.0587199636982 106.18537953042937 A 7.441045449409997 7.441045449409997 0 1 1 35.33394614420276 91.40172974325907"/>
<path d="M 35.33394614420276 91.40172974325908 A 7.441045449409997 7.441045449409997 0 1 1 38.931377504276824 77.0598143171491"/>
<path d="M 38.93137750427682 77.05981431714909 A 7.441045449409997 7.441045449409997 0 1 1 45.66619674976115 63.8964461991183"/>
<path d="M 64.675239735439 76.52751498287176 A 13.033761011477818 13.033761011477818 0 1 1 83.95348778219048 60.740533800474225"/>
<path d="M 83.95348778219049 60.740533800474225 A 13.033761011477818 13.033761011477818 0 1 1 108.77041343171979 58.50450519797691"/>
<path d="M 108.7704134317198 58.50450519797692 A 13.033761011477818 13.033761011477818 0 1 1 130.56010850416118 70.59122564876405"/>
<path d="M 136.45869462583366 64.91486529749177 A 4.82000462952005 4.82000462952005 0 1 1 142.42726242956493 72.42953584638504"/>
<path d="M 142.42726242956493 72.42953584638502 A 4.82000462952005 4.82000462952005 0 1 1 146.86966244381256 80.9359544346955"/>
<path d="M 146.8696624438126 80.93595443469552 A 4.82000462952005 4.82000462952005 0 1 1 149.62609534565297 90.12813332458843"/>
<path d="M 149.62609534565297 90.1281333245884 A 4.82000462952005 4.82000462952005 0 1 1 150.59740840008124 99.67541702396795"/>
<path d="M 150.59740840008124 99.67541702396798 A 4.82000462952005 4.82000462952005 0 1 1 149.7486621221463 109.23437642558868"/>
<path d="M 139.76866343999473 107.38188309960555 A 0.6480715696390187 0.6480715696390187 0 1 1 139.51176070849158 108.65214167791514"/>
<path d="M 139.51176070849158 108.65214167791514 A 0.6480715696390187 0.6480715696390187 0 1 1 139.21429524093904 109.91351797578848"/>
<path d="M 139.21429524093904 109.91351797578848 A 0.6480715696390187 0.6480715696390187 0 1 1 138.87657241510382 111.16471706551512"/>
<path d="M 138.8765724151038 111.16471706551512 A 0.6480715696390187 0.6480715696390187 0 1 1 138.49893893691842 112.40445446729684"/>
<path d="M 138.49893893691842 112.40445446729686 A 0.6480715696390187 0.6480715696390187 0 1 1 138.08178248455326 113.63145746789343"/>
<path d="M 138.08178248455326 113.63145746789343 A 0.6480715696390187 0.6480715696390187 0 1 1 137.62553131042645 114.84446642718878"/>
<path d="M 167.04767835439264 126.45243736603206 A 8.003087862224449 8.003087862224449 0 1 1 159.61183385554452 140.51606940087967"/>
<path d="M 159.61183385554452 140.5160694008797 A 8.003087862224449 8.003087862224449 0 1 1 149.2720317884897 152.60598348811666"/>
<path d="M 149.27203178848973 152.60598348811664 A 8.003087862224449 8.003087862224449 0 1 1 136.53196990121472 162.13322613911726"/>
<path d="M 136.53196990121472 162.13322613911728 A 8.003087862224449 8.003087862224449 0 1 1 122.01227327340801 168.6336829891472"/>
<path d="M 122.01227327340801 168.6336829891472 A 8.003087862224449 8.003087862224449 0 1 1 106.4202609084165 171.79068787235434"/>
<path d="M 106.42026090841648 171.79068787235434 A 8.003087862224449 8.003087862224449 0 1 1 90.51548907858385 171.45044903917318"/>
<path d="M 95.77513012182652 131.82756100221778 A 1.3355794463735378 1.3355794463735378 0 1 1 93.14636864440942 131.36671646951683"/>
<path d="M 93.14636864440943 131.3667164695168 A 1.3355794463735378 1.3355794463735378 0 1 1 90.56496335500154 130.6891389313048"/>
<path d="M 90.56496335500154 130.6891389313048 A 1.3355794463735378 1.3355794463735378 0 1 1 88.0487508584435 129.79951021063664"/>
<path d="M 88.04875085844351 129.7995102106366 A 1.3355794463735378 1.3355794463735378 0 1 1 85.61511730025086 128.70397732983793"/>
<path d="M 85.61511730025086 128.7039773298379 A 1.3355794463735378 1.3355794463735378 0 1 1 83.2808782344486 127.41011003673746"/>
<path d="M 83.28087823444864 127.4101100367375 A 1.3355794463735378 1.3355794463735378 0 1 1 81.06216243399277 125.92684850036574"/>
<path d="M 71.43592309602336 139.1056524727779 A 0.5457986409300204 0.5457986409300204 0 1 1 70.56180396304966 138.45193309559423"/>
<path d="M 70.5618039630497 138.45193309559426 A 0.5457986409300204 0.5457986409300204 0 1 1 69.70264059783057 137.77867861577147"/>
<path d="M 69.70264059783058 137.7786786157715 A 0.5457986409300204 0.5457986409300204 0 1 1 68.85886948933216 137.08623107321"/>
<path d="M 68.85886948933212 137.08623107320994 A 0.5457986409300204 0.5457986409300204 0 1 1 68.03091930664544 136.374942258645"/>
<path d="M 68.03091930664547 136.37494225864504 A 0.5457986409300204 0.5457986409300204 0 1 1 67.2192106812056 135.6451735349232"/>
<path d="M 67.21921068120557 135.64517353492315 A 0.5457986409300204 0.5457986409300204 0 1 1 66.42415599309417 134.8972956534156"/>
<path d="M 66.4241559930942 134.8972956534156 A 0.5457986409300204 0.5457986409300204 0 1 1 65.64615916153423 134.13168856566188"/>
<path d="M 65.64615916153426 134.1316885656619 A 0.5457986409300204 0.5457986409300204 0 1 1 64.88561543968292 133.34874123033939"/>
<path d="M 44.7812657200415 152.442191529971 A 6.50357057495991 6.50357057495991 0 1 1 36.68849131643434 142.3195573719482"/>
<path d="M 35.43839083003348 143.15516688994842 A 0.02033158979960205 0.02033158979960205 0 1 1 35.4158024652759 143.12135476432232"/>
<path d="M 35.41580246527589 143.12135476432226 A 0.02033158979960205 0.02033158979960205 0 1 1 35.39323180856092 143.08753081545123"/>
<path d="M 35.39323180856098 143.08753081545132 A 0.02033158979960205 0.02033158979960205 0 1 1 35.37067886607716 143.05369505260936"/>
<path d="M 35.37067886607714 143.0536950526093 A 0.02033158979960205 0.02033158979960205 0 1 1 35.34814364400816 143.01984748507368"/>
<path d="M 35.34814364400815 143.01984748507368 A 0.02033158979960205 0.02033158979960205 0 1 1 35.325626148532834 142.98598812212492"/>
<path d="M 35.32562614853282 142.98598812212487 A 0.02033158979960205 0.02033158979960205 0 1 1 35.303126385825145 142.9521169730467"/>
<path d="M 43.28100470559507 137.65562050196507 A 0.054872932085877436 0.054872932085877436 0 1 1 43.22037775718213 137.56414088672392"/>
<path d="M 43.22037775718212 137.56414088672386 A 0.054872932085877436 0.054872932085877436 0 1 1 43.159898352147486 137.47256366005044"/>
<path d="M 43.15989835214748 137.47256366005044 A 0.054872932085877436 0.054872932085877436 0 1 1 43.09956664764852 137.38088905991063"/>
<path d="M 43.099566647648516 137.38088905991066 A 0.054872932085877436 0.054872932085877436 0 1 1 43.039382800458796 137.2891173245234"/>
<path d="M 43.03938280045886 137.2891173245235 A 0.054872932085877436 0.054872932085877436 0 1 1 42.97934696696773 137.19724869236012"/>
<path d="M 42.979346966967725 137.19724869236012 A 0.054872932085877436 0.054872932085877436 0 1 1 42.91945930317991 137.10528340214375"/>
<path d="M 42.919459303179906 137.10528340214375 A 0.054872932085877436 0.054872932085877436 0 1 1 42.859719964715126 137.01322169284867"/>
<path d="M 42.85971996471511 137.01322169284867 A 0.054872932085877436 0.054872932085877436 0 1 1 42.80012910680764 136.9210638036997"/>
<path d="M 42.80012910680763 136.92106380369972 A 0.054872932085877436 0.054872932085877436 0 1 1 42.740686884305916 136.82880997417163"/>
<path d="M 42.7406868843059 136.8288099741716 A 0.054872932085877436 0.054872932085877436 0 1 1 42.68139345167216 136.73646044398848"/>
<path d="M 32.85025637317916 143.03740179885162 A 0.2658477387344453 0.2658477387344453 0 1 1 32.564848117163116 142.58880502294335"/>
<path d="M 32.56484811716309 142.58880502294332 A 0.2658477387344453 0.2658477387344453 0 1 1 32.28243668460039 142.13831559719029"/>
<path d="M 38.256567338932385 138.42081912203525 A 0.009961822263383003 0.009961822263383003 0 1 1 38.24604342743539 138.40390170820856"/>
<path d="M 38.24604342743535 138.40390170820854 A 0.009961822263383003 0.009961822263383003 0 1 1 38.23552415123106 138.38698141175965"/>
<path d="M 38.2355241512311 138.3869814117597 A 0.009961822263383003 0.009961822263383003 0 1 1 38.2250095111091 138.37005823395867"/>
<path d="M 38.225009511109064 138.37005823395864 A 0.009961822263383003 0.009961822263383003 0 1 1 38.2144995078586 138.35313217607575"/>
<path d="M 38.21449950785862 138.35313217607577 A 0.009961822263383003 0.009961822263383003 0 1 1 38.20399414226856 138.3362032393815"/>
<path d="M 38.203994142268535 138.33620323938143 A 0.009961822263383003 0.009961822263383003 0 1 1 38.19349341512743 138.31927142514644"/>
<path d="M 38.19349341512747 138.3192714251465 A 0.009961822263383003 0.009961822263383003 0 1 1 38.18299732722351 138.30233673464173"/>
<path d="M 38.182997327223475 138.30233673464167 A 0.009961822263383003 0.009961822263383003 0 1 1 38.172505879344506 138.28539916913826"/>
<path d="M 38.17250587934454 138.2853991691383 A 0.009961822263383003 0.009961822263383003 0 1 1 38.162019072278056 138.26845872990756"/>
<path d="M 38.16201907227803 138.2684587299075 A 0.009961822263383003 0.009961822263383003 0 1 1 38.151536906811174 138.25151541822103"/>
<path d="M 48.91432268562983 131.59503851367484 A 0.017141703315420077 0.017141703315420077 0 1 1 48.89629792331334 131.5658758694544"/>
<path d="M 48.896297923313355 131.5658758694544 A 0.017141703315420077 0.017141703315420077 0 1 1 48.87828980871042 131.53670294222826"/>
<path d="M 48.87828980871038 131.53670294222823 A 0.017141703315420077 0.017141703315420077 0 1 1 48.86029834768737 131.50751974149986"/>
<path d="M 48.860298347687376 131.5075197414999 A 0.017141703315420077 0.017141703315420077 0 1 1 48.842323546105256 131.47832627677613"/>
<path d="M 48.84232354610527 131.47832627677616 A 0.017141703315420077 0.017141703315420077 0 1 1 48.82436540981957 131.44912255756716"/>
<path d="M 48.82436540981953 131.4491225575671 A 0.017141703315420077 0.017141703315420077 0 1 1 48.80642394468035 131.41990859338637"/>
<path d="M 48.80642394468037 131.4199085933864 A 0.017141703315420077 0.017141703315420077 0 1 1 48.78849915653238 131.39068439375075"/>
<path d="M 48.788499156532396 131.39068439375077 A 0.017141703315420077 0.017141703315420077 0 1 1 48.77059105121484 131.3614499681804"/>
<path d="M 34.41608985913456 140.14894098537448 A 0.00045561076749644044 0.00045561076749644044 0 1 1 34.415614104454676 140.14816382247628"/>
<path d="M 34.41561410445466 140.14816382247622 A 0.00045561076749644044 0.00045561076749644044 0 1 1 34.41513835898408 140.14738665394043"/>
<path d="M 34.41513835898412 140.14738665394054 A 0.00045561076749644044 0.00045561076749644044 0 1 1 34.414662622722915 140.14660947976728"/>
<path d="M 34.4146626227229 140.14660947976725 A 0.00045561076749644044 0.00045561076749644044 0 1 1 34.41418689567113 140.14583229995665"/>
<path d="M 46.46105705037102 132.77180419725377 A 0.00012697577067682738 0.00012697577067682738 0 1 1 46.46092447004361 132.77158760121932"/>
<path d="M 46.46092447004362 132.77158760121932 A 0.00012697577067682738 0.00012697577067682738 0 1 1 46.46079189059247 132.77137100464853"/>
<path d="M 46.46079189059248 132.77137100464853 A 0.00012697577067682738 0.00012697577067682738 0 1 1 46.46065931201759 132.77115440754136"/>
<path d="M 46.460659312017604 132.7711544075414 A 0.00012697577067682738 0.00012697577067682738 0 1 1 46.460526734318975 132.77093780989784"/>
<path d="M 46.46052673431898 132.7709378098979 A 0.00012697577067682738 0.00012697577067682738 0 1 1 46.460394157496616 132.770721211718"/>
<path d="M 37.58282520769123 138.20453665570315 A 1.9451225287408843e-05 1.9451225287408843e-05 0 1 1 37.58280489852529 138.20450347531076"/>
<path d="M 37.582804898525275 138.20450347531076 A 1.9451225287408843e-05 1.9451225287408843e-05 0 1 1 37.58278458937697 138.20447029490757"/>
<path d="M 46.901277967671966 132.5007858046223 A 2.300407447474107e-06 2.300407447474107e-06 0 1 1 46.901275565803076 132.50078188052706"/>
<path d="M 46.901275565803104 132.5007818805271 A 2.300407447474107e-06 2.300407447474107e-06 0 1 1 46.901273163934505 132.50077795643168"/>
<path d="M 46.90127316393448 132.50077795643162 A 2.300407447474107e-06 2.300407447474107e-06 0 1 1 46.90127076206617 132.50077403233604"/>
<path d="M 46.9012707620662 132.50077403233607 A 2.300407447474107e-06 2.300407447474107e-06 0 1 1 46.90126836019817 132.5007701082403"/>
<path d="M 46.90126836019815 132.50077010824026 A 2.300407447474107e-06 2.300407447474107e-06 0 1 1 46.90126595833042 132.50076618414428"/>
<path d="M 46.90126595833045 132.50076618414434 A 2.300407447474107e-06 2.300407447474107e-06 0 1 1 46.90126355646301 132.5007622600482"/>
<path d="M 46.901263556462986 132.50076226004816 A 2.300407447474107e-06 2.300407447474107e-06 0 1 1 46.901261154595836 132.50075833595184"/>
<path d="M 46.90126115459581 132.5007583359518 A 2.300407447474107e-06 2.300407447474107e-06 0 1 1 46.90125875272895 132.5007544118553"/>
<path d="M 46.90125875272898 132.50075441185535 A 2.300407447474107e-06 2.300407447474107e-06 0 1 1 46.90125635086241 132.5007504877587"/>
<path d="M 63.547773466711845 122.31172788399662 A 3.725377911703962e-08 3.725377911703962e-08 0 1 1 63.547773427815 122.31172782044813"/>
<path d="M 63.547773427815 122.31172782044814 A 3.725377911703962e-08 3.725377911703962e-08 0 1 1 63.54777338891816 122.31172775689964"/>
<path d="M 63.547773388918166 122.31172775689966 A 3.725377911703962e-08 3.725377911703962e-08 0 1 1 63.54777335002132 122.31172769335116"/>
<path d="M 63.54777335002132 122.31172769335117 A 3.725377911703962e-08 3.725377911703962e-08 0 1 1 63.54777331112448 122.31172762980268"/>
<path d="M 63.54777331112448 122.31172762980269 A 3.725377911703962e-08 3.725377911703962e-08 0 1 1 63.54777327222764 122.31172756625419"/>
<path d="M 63.5477732722276 122.31172756625415 A 3.725377911703962e-08 3.725377911703962e-08 0 1 1 63.54777323333076 122.31172750270565"/>
<path d="M 63.54777323333076 122.31172750270565 A 3.725377911703962e-08 3.725377911703962e-08 0 1 1 63.547773194433915 122.31172743915715"/>
<path d="M 63.547773194433915 122.31172743915718 A 3.725377911703962e-08 3.725377911703962e-08 0 1 1 63.54777315553707 122.31172737560868"/>
<path d="M 63.54777315553708 122.31172737560868 A 3.725377911703962e-08 3.725377911703962e-08 0 1 1 63.547773116640236 122.31172731206019"/>
<path d="M 63.547773116640236 122.31172731206021 A 3.725377911703962e-08 3.725377911703962e-08 0 1 1 63.54777307774339 122.31172724851172"/>
<path d="M 63.433839282028245 122.38146399682631 A 5.7438024753270426e-08 5.7438024753270426e-08 0 1 1 63.43383922205693 122.38146389884699"/>
<path d="M 63.43383922205693 122.38146389884699 A 5.7438024753270426e-08 5.7438024753270426e-08 0 1 1 63.43383916208562 122.38146380086766"/>
<path d="M 59.31358348077458 124.90339531537222 A 3.778179149247351e-08 3.778179149247351e-08 0 1 1 59.31358344132643 124.90339525092304"/>
<path d="M 59.31358344132644 124.90339525092304 A 3.778179149247351e-08 3.778179149247351e-08 0 1 1 59.31358340187829 124.90339518647386"/>
<path d="M 59.3135834018783 124.90339518647386 A 3.778179149247351e-08 3.778179149247351e-08 0 1 1 59.313583362430144 124.90339512202468"/>
<path d="M 59.31358336243016 124.90339512202468 A 3.778179149247351e-08 3.778179149247351e-08 0 1 1 59.313583322982005 124.9033950575755"/>
<path d="M 59.31358332298202 124.9033950575755 A 3.778179149247351e-08 3.778179149247351e-08 0 1 1 59.313583283533866 124.90339499312631"/>
<path d="M 59.31358328353387 124.90339499312631 A 3.778179149247351e-08 3.778179149247351e-08 0 1 1 59.31358324408572 124.90339492867713"/>
<path d="M 59.3135832440857 124.90339492867705 A 3.778179149247351e-08 3.778179149247351e-08 0 1 1 59.313583204637546 124.90339486422786"/>
<path d="M 59.31358320463755 124.90339486422786 A 3.778179149247351e-08 3.778179149247351e-08 0 1 1 59.3135831651894 124.90339479977868"/>
<path d="M 59.313583165189414 124.90339479977868 A 3.778179149247351e-08 3.778179149247351e-08 0 1 1 59.31358312574126 124.9033947353295"/>
<path d="M 59.313583125741275 124.9033947353295 A 3.778179149247351e-08 3.778179149247351e-08 0 1 1 59.31358308629312 124.90339467088032"/>
<path d="M 32.39411138647422 141.38029971498946 A 5.585854716926668e-09 5.585854716926668e-09 0 1 1 32.394111380642 141.38029970546097"/>
<path d="M 32.39411138064203 141.380299705461 A 5.585854716926668e-09 5.585854716926668e-09 0 1 1 32.39411137480981 141.3802996959325"/>
<path d="M 32.394111374809825 141.3802996959325 A 5.585854716926668e-09 5.585854716926668e-09 0 1 1 32.394111368977605 141.38029968640402"/>
<path d="M 32.39411136897762 141.38029968640404 A 5.585854716926668e-09 5.585854716926668e-09 0 1 1 32.3941113631454 141.38029967687555"/>
<path d="M 32.394111363145356 141.38029967687544 A 5.585854716926668e-09 5.585854716926668e-09 0 1 1 32.394111357313136 141.38029966734695"/>
<path d="M 32.39411135731315 141.38029966734697 A 5.585854716926668e-09 5.585854716926668e-09 0 1 1 32.39411135148093 141.38029965781848"/>
<path d="M 52.02518015189805 129.3644897068859 A 2.911869954866663e-09 2.911869954866663e-09 0 1 1 52.02518014885775 129.36448970191876"/>
<path d="M 59.73949764973003 124.64270028166511 A 1.6512378152714044e-09 1.6512378152714044e-09 0 1 1 59.73949764800597 124.64270027884838"/>
<path d="M 59.73949764800598 124.64270027884842 A 1.6512378152714044e-09 1.6512378152714044e-09 0 1 1 59.73949764628192 124.64270027603169"/>
<path d="M 59.73949764628194 124.64270027603173 A 1.6512378152714044e-09 1.6512378152714044e-09 0 1 1 59.73949764455788 124.642700273215"/>
<path d="M 59.739497644557844 124.64270027321496 A 1.6512378152714044e-09 1.6512378152714044e-09 0 1 1 59.73949764283378 124.64270027039822"/>
<path d="M 59.7394976428338 124.64270027039827 A 1.6512378152714044e-09 1.6512378152714044e-09 0 1 1 59.739497641109736 124.64270026758153"/>
<path d="M 59.73949764110971 124.64270026758149 A 1.6512378152714044e-09 1.6512378152714044e-09 0 1 1 59.73949763938565 124.64270026476476"/>
<path d="M 65.54631798060093 121.08845417319361 A 4.814717622867311e-11 4.814717622867311e-11 0 1 1 65.54631798055065 121.08845417311147"/>
<path d="M 65.54631798055065 121.08845417311149 A 4.814717622867311e-11 4.814717622867311e-11 0 1 1 65.54631798050038 121.08845417302935"/>
<path d="M 65.54631798050038 121.08845417302935 A 4.814717622867311e-11 4.814717622867311e-11 0 1 1 65.5463179804501 121.08845417294721"/>
<path d="M 65.5463179804501 121.08845417294721 A 4.814717622867311e-11 4.814717622867311e-11 0 1 1 65.54631798039982 121.08845417286507"/>
<path d="M 65.54631798039983 121.08845417286508 A 4.814717622867311e-11 4.814717622867311e-11 0 1 1 65.54631798034956 121.08845417278295"/>
<path d="M 65.54631798034956 121.08845417278295 A 4.814717622867311e-11 4.814717622867311e-11 0 1 1 65.54631798029928 121.0884541727008"/>
<path d="M 39.72827642468668 136.8911943809344 A 9.308510967027494e-11 9.308510967027494e-11 0 1 1 39.728276424589495 136.89119438077563"/>
<path d="M 39.7282764245895 136.8911943807756 A 9.308510967027494e-11 9.308510967027494e-11 0 1 1 39.728276424492314 136.89119438061684"/>
<path d="M 39.728276424492314 136.89119438061684 A 9.308510967027494e-11 9.308510967027494e-11 0 1 1 39.728276424395126 136.89119438045807"/>
<path d="M 39.72827642439513 136.89119438045807 A 9.308510967027494e-11 9.308510967027494e-11 0 1 1 39.728276424297945 136.8911943802993"/>
<path d="M 39.728276424297945 136.89119438029928 A 9.308510967027494e-11 9.308510967027494e-11 0 1 1 39.72827642420076 136.89119438014052"/>
<path d="M 39.728276424200764 136.8911943801405 A 9.308510967027494e-11 9.308510967027494e-11 0 1 1 39.728276424103576 136.89119437998173"/>
<path d="M 39.72827642410358 136.89119437998173 A 9.308510967027494e-11 9.308510967027494e-11 0 1 1 39.728276424006395 136.89119437982296"/>
<path d="M 58.80206506371844 125.21648520413336 A 7.361060065335949e-11 7.361060065335949e-11 0 1 1 58.802065063641585 125.2164852040078"/>
<path d="M 58.802065063641564 125.21648520400778 A 7.361060065335949e-11 7.361060065335949e-11 0 1 1 58.80206506356471 125.21648520388221"/>
<path d="M 58.802065063564704 125.2164852038822 A 7.361060065335949e-11 7.361060065335949e-11 0 1 1 58.80206506348785 125.21648520375663"/>
<path d="M 58.80206506348788 125.2164852037567 A 7.361060065335949e-11 7.361060065335949e-11 0 1 1 58.80206506341103 125.21648520363114"/>
<path d="M 58.802065063411014 125.21648520363112 A 7.361060065335949e-11 7.361060065335949e-11 0 1 1 58.80206506333416 125.21648520350556"/>
<path d="M 58.802065063334155 125.21648520350553 A 7.361060065335949e-11 7.361060065335949e-11 0 1 1 58.8020650632573 125.21648520337996"/>
<path d="M 58.80206506325728 125.21648520337996 A 7.361060065335949e-11 7.361060065335949e-11 0 1 1 58.80206506318043 125.2164852032544"/>
<path d="M 58.80206506318042 125.21648520325438 A 7.361060065335949e-11 7.361060065335949e-11 0 1 1 58.80206506310357 125.21648520312881"/>
<path d="M 54.89209172769799 127.60970673007937 A 7.175921440680363e-12 7.175921440680363e-12 0 1 1 54.8920917276905 127.60970673006712"/>
<path d="M 54.892091727690485 127.6097067300671 A 7.175921440680363e-12 7.175921440680363e-12 0 1 1 54.892091727682995 127.60970673005485"/>
<path d="M 54.89209172768298 127.60970673005484 A 7.175921440680363e-12 7.175921440680363e-12 0 1 1 54.89209172767549 127.60970673004259"/>
<path d="M 54.89209172767548 127.60970673004259 A 7.175921440680363e-12 7.175921440680363e-12 0 1 1 54.89209172766799 127.60970673003034"/>
<path d="M 54.892091727668024 127.60970673003041 A 7.175921440680363e-12 7.175921440680363e-12 0 1 1 54.892091727660535 127.60970673001816"/>
<path d="M 54.89209172766052 127.60970673001815 A 7.175921440680363e-12 7.175921440680363e-12 0 1 1 54.89209172765303 127.6097067300059"/>
<path d="M 54.89209172765302 127.60970673000588 A 7.175921440680363e-12 7.175921440680363e-12 0 1 1 54.89209172764553 127.60970672999363"/>
<path d="M 54.892091727645514 127.60970672999362 A 7.175921440680363e-12 7.175921440680363e-12 0 1 1 54.892091727638025 127.60970672998137"/>
<path d="M 54.89209172763801 127.60970672998137 A 7.175921440680363e-12 7.175921440680363e-12 0 1 1 54.89209172763052 127.60970672996912"/>
<path d="M 54.89209172763055 127.60970672996919 A 7.175921440680363e-12 7.175921440680363e-12 0 1 1 54.89209172762306 127.60970672995694"/>
<path d="M 48.34819887028406 131.6151011182848 A 1.1937285915675071e-11 1.1937285915675071e-11 0 1 1 48.348198870271595 131.61510111826445"/>
<path d="M 48.34819887027159 131.61510111826442 A 1.1937285915675071e-11 1.1937285915675071e-11 0 1 1 48.348198870259125 131.61510111824407"/>
<path d="M 48.34819887025912 131.61510111824404 A 1.1937285915675071e-11 1.1937285915675071e-11 0 1 1 48.348198870246655 131.6151011182237"/>
<path d="M 48.348198870246655 131.6151011182237 A 1.1937285915675071e-11 1.1937285915675071e-11 0 1 1 48.34819887023419 131.61510111820334"/>
<path d="M 48.34819887023418 131.6151011182033 A 1.1937285915675071e-11 1.1937285915675071e-11 0 1 1 48.348198870221715 131.61510111818296"/>
<path d="M 48.348198870221715 131.61510111818293 A 1.1937285915675071e-11 1.1937285915675071e-11 0 1 1 48.34819887020925 131.61510111816258"/>
<path d="M 48.34819887020925 131.61510111816258 A 1.1937285915675071e-11 1.1937285915675071e-11 0 1 1 48.34819887019679 131.61510111814223"/>
<path d="M 48.34819887019678 131.6151011181422 A 1.1937285915675071e-11 1.1937285915675071e-11 0 1 1 48.34819887018432 131.61510111812186"/>
<path d="M 48.348198870184376 131.61510111812194 A 1.1937285915675071e-11 1.1937285915675071e-11 0 1 1 48.34819887017191 131.6151011181016"/>
<path d="M 48.3481988701719 131.61510111810156 A 1.1937285915675071e-11 1.1937285915675071e-11 0 1 1 48.348198870159436 131.6151011180812"/>
<path d="M 51.59254041360738 129.62930035771936 A 8.00623771043881e-12 8.00623771043881e-12 0 1 1 51.592540413599025 129.62930035770572"/>
<path d="M 51.59254041359901 129.6293003577057 A 8.00623771043881e-12 8.00623771043881e-12 0 1 1 51.592540413590655 129.62930035769205"/>
<path d="M 65.34719344147544 121.21033457512368 A 6.986988958438489e-13 6.986988958438489e-13 0 1 1 65.3471934414747 121.21033457512249"/>
<path d="M 65.34719344147473 121.21033457512252 A 6.986988958438489e-13 6.986988958438489e-13 0 1 1 65.34719344147399 121.21033457512132"/>
<path d="M 65.34719344147402 121.21033457512135 A 6.986988958438489e-13 6.986988958438489e-13 0 1 1 65.34719344147328 121.21033457512016"/>
<path d="M 65.34719344147327 121.21033457512011 A 6.986988958438489e-13 6.986988958438489e-13 0 1 1 65.34719344147253 121.21033457511892"/>
<path d="M 65.34719344147254 121.21033457511895 A 6.986988958438489e-13 6.986988958438489e-13 0 1 1 65.3471934414718 121.21033457511776"/>
<path d="M 65.34719344147183 121.21033457511777 A 6.986988958438489e-13 6.986988958438489e-13 0 1 1 65.34719344147109 121.21033457511658"/>
<path d="M 65.34719344147108 121.21033457511655 A 6.986988958438489e-13 6.986988958438489e-13 0 1 1 65.34719344147034 121.21033457511535"/>
<path d="M 65.34719344147037 121.21033457511538 A 6.986988958438489e-13 6.986988958438489e-13 0 1 1 65.34719344146963 121.21033457511419"/>
<path d="M 69.2149961889512 118.84292487610278 A 4.87694078866378e-12 4.87694078866378e-12 0 1 1 69.21499618894612 118.84292487609446"/>
<path d="M 62.72704861045267 122.81407620587584 A 2.363888302681134e-13 2.363888302681134e-13 0 1 1 62.72704861045243 122.81407620587544"/>
<path d="M 62.72704861045242 122.81407620587544 A 2.363888302681134e-13 2.363888302681134e-13 0 1 1 62.72704861045218 122.81407620587504"/>
<path d="M 62.72704861045218 122.81407620587504 A 2.363888302681134e-13 2.363888302681134e-13 0 1 1 62.72704861045194 122.81407620587464"/>
<path d="M 62.72704861045194 122.81407620587464 A 2.363888302681134e-13 2.363888302681134e-13 0 1 1 62.727048610451696 122.81407620587424"/>
<path d="M 62.72704861045169 122.81407620587424 A 2.363888302681134e-13 2.363888302681134e-13 0 1 1 62.72704861045145 122.81407620587385"/>
<path d="M 62.72704861045145 122.81407620587385 A 2.363888302681134e-13 2.363888302681134e-13 0 1 1 62.727048610451206 122.81407620587345"/>
<path d="M 62.72704861045116 122.81407620587339 A 2.363888302681134e-13 2.363888302681134e-13 0 1 1 62.72704861045092 122.814076205873"/>
<path d="M 72.00320049030739 117.13631718774401 A 5.07732626245824e-14 5.07732626245824e-14 0 1 1 72.00320049030734 117.13631718774393"/>
<path d="M 68.47107811993288 119.29826320817058 A 2.2589414783426635e-14 2.2589414783426635e-14 0 1 1 68.47107811993286 119.29826320817055"/>
<path d="M 68.47107811993284 119.29826320817052 A 2.2589414783426635e-14 2.2589414783426635e-14 0 1 1 68.47107811993281 119.2982632081705"/>
<path d="M 68.47107811993281 119.29826320817047 A 2.2589414783426635e-14 2.2589414783426635e-14 0 1 1 68.47107811993278 119.29826320817044"/>
<path d="M 68.47107811993281 119.29826320817047 A 2.2589414783426635e-14 2.2589414783426635e-14 0 1 1 68.47107811993278 119.29826320817044"/>
<path d="M 68.47107811993278 119.29826320817041 A 2.2589414783426635e-14 2.2589414783426635e-14 0 1 1 68.47107811993276 119.29826320817038"/>
<path d="M 68.47107811993274 119.29826320817035 A 2.2589414783426635e-14 2.2589414783426635e-14 0 1 1 68.47107811993271 119.29826320817033"/>
<path d="M 68.47107811993274 119.29826320817035 A 2.2589414783426635e-14 2.2589414783426635e-14 0 1 1 68.47107811993271 119.29826320817033"/>
<path d="M 68.47107811993271 119.2982632081703 A 2.2589414783426635e-14 2.2589414783426635e-14 0 1 1 68.47107811993268 119.29826320817027"/>
<path d="M 68.47107811993267 119.29826320817024 A 2.2589414783426635e-14 2.2589414783426635e-14 0 1 1 68.47107811993264 119.29826320817021"/>
<path d="M 68.47107811993264 119.29826320817018 A 2.2589414783426635e-14 2.2589414783426635e-14 0 1 1 68.47107811993261 119.29826320817016"/>
<path d="M 71.35587563514623 117.53253262078641 A 4.0896931353590036e-14 4.0896931353590036e-14 0 1 1 71.35587563514618 117.53253262078636"/>
<path d="M 73.89777946690586 115.97668084184667 A 2.9043861115099087e-15 2.9043861115099087e-15 0 0 1 73.89777946690586 115.97668084184667"/>
<path d="M 73.89777946690586 115.97668084184667 A 2.9043861115099087e-15 2.9043861115099087e-15 0 0 1 73.89777946690586 115.97668084184667"/>
<path d="M 60.60040720407593 124.11575362337881 A 0.0 0.0 0 0 1 60.60040720407593 124.11575362337881"/>
<path d="M 60.60040720407593 124.11575362337881 A 0.0 0.0 0 0 1 60.60040720407593 124.11575362337881"/>
<path d="M 60.60040720407593 124.11575362337881 A 0.0 0.0 0 0 1 60.60040720407593 124.11575362337881"/>
<path d="M 60.60040720407593 124.11575362337881 A 0.0 0.0 0 0 1 60.60040720407593 124.11575362337881"/>
<path d="M 60.60040720407593 124.11575362337881 A 0.0 0.0 0 0 1 60.60040720407593 124.11575362337881"/>
<path d="M 60.60040720407593 124.11575362337881 A 0.0 0.0 0 0 1 60.60040720407593 124.11575362337881"/>
<path d="M 39.326838633242545 137.1369069383782 A 0.0 0.0 0 0 1 39.326838633242545 137.1369069383782"/>
<path d="M 39.326838633242545 137.1369069383782 A 0.0 0.0 0 0 1 39.326838633242545 137.1369069383782"/>
<path d="M 39.326838633242545 137.1369069383782 A 0.0 0.0 0 0 1 39.326838633242545 137.1369069383782"/>
<path d="M 39.326838633242545 137.1369069383782 A 0.0 0.0 0 0 1 39.326838633242545 137.1369069383782"/>
<path d="M 39.326838633242545 137.1369069383782 A 0.0 0.0 0 0 1 39.326838633242545 137.1369069383782"/>
<path d="M 39.326838633242545 137.1369069383782 A 0.0 0.0 0 0 1 39.326838633242545 137.1369069383782"/>
<path d="M 39.326838633242545 137.1369069383782 A 0.0 0.0 0 0 1 39.326838633242545 137.1369069383782"/>
<path d="M 39.326838633242545 137.1369069383782 A 0.0 0.0 0 0 1 39.326838633242545 137.1369069383782"/>
<path d="M 39.326838633242545 137.1369069383782 A 0.0 0.0 0 0 1 39.326838633242545 137.1369069383782"/>
<path d="M 39.326838633242545 137.1369069383782 A 0.0 0.0 0 0 1 39.326838633242545 137.1369069383782"/>
<path d="M 48.18854959542725 131.7128194521809 A 0.0 0.0 0 0 1 48.18854959542725 131.7128194521809"/>
<path d="M 48.18854959542725 131.7128194521809 A 0.0 0.0 0 0 1 48.18854959542725 131.7128194521809"/>
<path d="M 48.18854959542725 131.7128194521809 A 0.0 0.0 0 0 1 48.18854959542725 131.7128194521809"/>
<path d="M 48.18854959542725 131.7128194521809 A 0.0 0.0 0 0 1 48.18854959542725 131.7128194521809"/>
<path d="M 48.18854959542725 131.7128194521809 A 0.0 0.0 0 0 1 48.18854959542725 131.7128194521809"/>
<path d="M 48.18854959542725 131.7128194521809 A 0.0 0.0 0 0 1 48.18854959542725 131.7128194521809"/>
<path d="M 48.18854959542725 131.7128194521809 A 0.0 0.0 0 0 1 48.18854959542725 131.7128194521809"/>
<path d="M 48.18854959542725 131.7128194521809 A 0.0 0.0 0 0 1 48.18854959542725 131.7128194521809"/>
<path d="M 48.18854959542725 131.7128194521809 A 0.0 0.0 0 0 1 48.18854959542725 131.7128194521809"/>
<path d="M 48.18854959542725 131.7128194521809 A 0.0 0.0 0 0 1 48.18854959542725 131.7128194521809"/>
<path d="M 65.0258292824632 121.4070355644224 A 0.0 0.0 0 0 1 65.0258292824632 121.4070355644224"/>
<path d="M 65.0258292824632 121.4070355644224 A 0.0 0.0 0 0 1 65.0258292824632 121.4070355644224"/>
<path d="M 65.0258292824632 121.4070355644224 A 0.0 0.0 0 0 1 65.0258292824632 121.4070355644224"/>
<path d="M 65.0258292824632 121.4070355644224 A 0.0 0.0 0 0 1 65.0258292824632 121.4070355644224"/>
<path d="M 43.545202988387494 134.55492503797532 A 0.0 0.0 0 0 1 43.545202988387494 134.55492503797532"/>
<path d="M 33.815250671829006 140.5104468132568 A 0.0 0.0 0 0 1 33.815250671829006 140.5104468132568"/>
<path d="M 33.815250671829006 140.5104468132568 A 0.0 0.0 0 0 1 33.815250671829006 140.5104468132568"/>
<path d="M 33.815250671829006 140.5104468132568 A 0.0 0.0 0 0 1 33.815250671829006 140.5104468132568"/>
<path d="M 33.815250671829006 140.5104468132568 A 0.0 0.0 0 0 1 33.815250671829006 140.5104468132568"/>
<path d="M 33.815250671829006 140.5104468132568 A 0.0 0.0 0 0 1 33.815250671829006 140.5104468132568"/>
<path d="M 33.815250671829006 140.5104468132568 A 0.0 0.0 0 0 1 33.815250671829006 140.5104468132568"/>
<path d="M 33.815250671829006 140.5104468132568 A 0.0 0.0 0 0 1 33.815250671829006 140.5104468132568"/>
<path d="M 33.815250671829006 140.5104468132568 A 0.0 0.0 0 0 1 33.815250671829006 140.5104468132568"/>
<path d="M 33.815250671829006 140.5104468132568 A 0.0 0.0 0 0 1 33.815250671829006 140.5104468132568"/>
<path d="M 70.54587909703422 118.02831634753892 A 0.0 0.0 0 0 1 70.54587909703422 118.02831634753892"/>
<path d="M 70.54587909703422 118.02831634753892 A 0.0 0.0 0 0 1 70.54587909703422 118.02831634753892"/>
<path d="M 70.54587909703422 118.02831634753892 A 0.0 0.0 0 0 1 70.54587909703422 118.02831634753892"/>
<path d="M 53.489562213356294 128.4681688053949 A 0.0 0.0 0 0 1 53.489562213356294 128.4681688053949"/>
<path d="M 53.489562213356294 128.4681688053949 A 0.0 0.0 0 0 1 53.489562213356294 128.4681688053949"/>
<path d="M 53.489562213356294 128.4681688053949 A 0.0 0.0 0 0 1 53.489562213356294 128.4681688053949"/>
<path d="M 53.489562213356294 128.4681688053949 A 0.0 0.0 0 0 1 53.489562213356294 128.4681688053949"/>
<path d="M 53.489562213356294 128.4681688053949 A 0.0 0.0 0 0 1 53.489562213356294 128.4681688053949"/>
<path d="M 53.489562213356294 128.4681688053949 A 0.0 0.0 0 0 1 53.489562213356294 128.4681688053949"/>
<path d="M 53.489562213356294 128.4681688053949 A 0.0 0.0 0 0 1 53.489562213356294 128.4681688053949"/>
<path d="M 67.30793611035162 120.01020067100997 A 0.0 0.0 0 0 1 67.30793611035162 120.01020067100997"/>
<path d="M 67.30793611035162 120.01020067100997 A 0.0 0.0 0 0 1 67.30793611035162 120.01020067100997"/>
<path d="M 67.30793611035162 120.01020067100997 A 0.0 0.0 0 0 1 67.30793611035162 120.01020067100997"/>
<path d="M 67.30793611035162 120.01020067100997 A 0.0 0.0 0 0 1 67.30793611035162 120.01020067100997"/>
<path d="M 67.30793611035162 120.01020067100997 A 0.0 0.0 0 0 1 67.30793611035162 120.01020067100997"/>
<path d="M 61.641142404525574 123.4787390782991 A 0.0 0.0 0 0 1 61.641142404525574 123.4787390782991"/>
<path d="M 61.641142404525574 123.4787390782991 A 0.0 0.0 0 0 1 61.641142404525574 123.4787390782991"/>
<path d="M 61.641142404525574 123.4787390782991 A 0.0 0.0 0 0 1 61.641142404525574 123.4787390782991"/>
<path d="M 61.641142404525574 123.4787390782991 A 0.0 0.0 0 0 1 61.641142404525574 123.4787390782991"/>
<path d="M 61.641142404525574 123.4787390782991 A 0.0 0.0 0 0 1 61.641142404525574 123.4787390782991"/>
<path d="M 61.641142404525574 123.4787390782991 A 0.0 0.0 0 0 1 61.641142404525574 123.4787390782991"/>
</svg>