<svg viewBox="0 0 200 200" xmlns="http://www.w3.org/2000/svg">
  <defs>
    <style>
      line, path {
        stroke: currentColor;
        stroke-width: 1.5;
        stroke-linecap: round;
        fill: none;
      }
    </style>
  </defs>

  <line x1="100" y1="100" x2="66.83112385014132"   y2="101.4891887373452" />
<line x1="100" y1="100" x2="25.561592989469673"   y2="86.49043243000173" />
<line x1="100" y1="100" x2="71.77798220235664"   y2="87.93690165669754" />
<line x1="100" y1="100" x2="39.42318150217852"   y2="55.98717547264655" />
<line x1="100" y1="100" x2="49.33752437196433"   y2="42.010626408770186" />
<line x1="100" y1="100" x2="85.06109113254662"   y2="72.2380003685831" />
<line x1="100" y1="100" x2="83.64136051921372"   y2="40.72282995056819" />
<line x1="100" y1="100" x2="98.00028353641449"   y2="55.460079671469416" />
<line x1="100" y1="100" x2="110.41329276165122"   y2="42.62222525663679" />
<line x1="100" y1="100" x2="120.65590206174353"   y2="51.67483352760985" />
<line x1="100" y1="100" x2="131.8013081389333"   y2="56.2304375642102" />
<line x1="100" y1="100" x2="138.514883071442"   y2="66.35143295945724" />
<line x1="100" y1="100" x2="152.30824191757137"   y2="71.85260177948423" />
<line x1="100" y1="100" x2="155.33428468651658"   y2="84.72947319585148" />
<line x1="100" y1="100" x2="172.64775680969979"   y2="96.73832116754247" />
<line x1="100" y1="100" x2="137.85356325444252"   y2="106.86991152939035" />
<line x1="100" y1="100" x2="171.12544366285698"   y2="130.40155483452733" />
<line x1="100" y1="100" x2="149.54017761375647"   y2="135.99401880847535" />
<line x1="100" y1="100" x2="127.63534158556234"   y2="131.63201418131248" />
<line x1="100" y1="100" x2="125.02058066144346"   y2="146.49746224867636" />
<line x1="100" y1="100" x2="118.62656004824944"   y2="167.49520757596434" />
<line x1="100" y1="100" x2="102.1491132637756"   y2="147.86745285575356" />
<line x1="100" y1="100" x2="87.4247669529219"   y2="169.2901760889445" />
<line x1="100" y1="100" x2="77.3923346565735"   y2="152.8913812627244" />
<line x1="100" y1="100" x2="56.54097751642596"   y2="159.81459598086178" />
<line x1="100" y1="100" x2="76.16017049036967"   y2="120.82769146674895" />
<line x1="100" y1="100" x2="54.36483349382915"   y2="124.5565738288987" />
<line x1="100" y1="100" x2="59.908555024780384"   y2="111.06398119320619" />
  <path d="M 66.83112385014131 101.4891887373452 A 1.2423420209951046 1.2423420209951046 0 1 1 66.81258354141899 99.00631144476462"/>
<path d="M 66.81258354141897 99.00631144476463 A 1.2423420209951046 1.2423420209951046 0 1 1 66.97964072759831 96.52899126166241"/>
<path d="M 66.97964072759831 96.52899126166241 A 1.2423420209951046 1.2423420209951046 0 1 1 67.3313611571295 94.07108236739677"/>
<path d="M 25.561592989469677 86.49043243000172 A 1.6979652777891563 1.6979652777891563 0 1 1 26.242651969236608 83.1643691635103"/>
<path d="M 26.2426519692366 83.1643691635103 A 1.6979652777891563 1.6979652777891563 0 1 1 27.072248432115682 79.87221061699356"/>
<path d="M 27.07224843211567 79.87221061699356 A 1.6979652777891563 1.6979652777891563 0 1 1 28.04871168123555 76.62058675963505"/>
<path d="M 28.048711681235556 76.62058675963505 A 1.6979652777891563 1.6979652777891563 0 1 1 29.170075249562792 73.41604592914884"/>
<path d="M 29.170075249562792 73.41604592914885 A 1.6979652777891563 1.6979652777891563 0 1 1 30.43408086010479 70.26504164429883"/>
<path d="M 71.77798220235663 87.93690165669753 A 0.8611352524865201 0.8611352524865201 0 1 1 72.49876397609799 86.37345798199996"/>
<path d="M 72.49876397609799 86.37345798199999 A 0.8611352524865201 0.8611352524865201 0 1 1 73.30607481284792 84.85288844982604"/>
<path d="M 73.30607481284792 84.85288844982603 A 0.8611352524865201 0.8611352524865201 0 1 1 74.19737461403777 83.37997733448046"/>
<path d="M 74.19737461403777 83.37997733448047 A 0.8611352524865201 0.8611352524865201 0 1 1 75.16985902074381 81.95935895925679"/>
<path d="M 39.42318150217852 55.98717547264654 A 2.8017282859755417 2.8017282859755417 0 1 1 42.88164906874926 51.58333294114412"/>
<path d="M 42.88164906874926 51.583332941144135 A 2.8017282859755417 2.8017282859755417 0 1 1 46.65954562308061 47.45025605145737"/>
<path d="M 46.659545623080604 47.45025605145739 A 2.8017282859755417 2.8017282859755417 0 1 1 50.735743635183695 43.61105864608498"/>
<path d="M 49.33752437196434 42.01062640877017 A 1.7282321899957487 1.7282321899957487 0 1 1 51.9902215220772 39.796054475098465"/>
<path d="M 51.990221522077206 39.796054475098465 A 1.7282321899957487 1.7282321899957487 0 1 1 54.73960397677705 37.70272527561455"/>
<path d="M 54.73960397677705 37.70272527561455 A 1.7282321899957487 1.7282321899957487 0 1 1 57.580134845695156 35.734854496740425"/>
<path d="M 57.580134845695156 35.73485449674043 A 1.7282321899957487 1.7282321899957487 0 1 1 60.50609367768684 33.896405168335335"/>
<path d="M 60.50609367768685 33.89640516833535 A 1.7282321899957487 1.7282321899957487 0 1 1 63.51158798105878 32.191079682681014"/>
<path d="M 85.06109113254662 72.2380003685831 A 0.7075644501806129 0.7075644501806129 0 1 1 86.32167102337608 71.59572324293188"/>
<path d="M 86.3216710233761 71.5957232429319 A 0.7075644501806129 0.7075644501806129 0 1 1 87.6097972484165 71.01064855055358"/>
<path d="M 87.60979724841648 71.01064855055357 A 0.7075644501806129 0.7075644501806129 0 1 1 88.92287569287782 70.48395455401533"/>
<path d="M 88.92287569287782 70.48395455401534 A 0.7075644501806129 0.7075644501806129 0 1 1 90.25826199152087 70.01670194493238"/>
<path d="M 90.25826199152088 70.01670194493236 A 0.7075644501806129 0.7075644501806129 0 1 1 91.61326685405689 69.60983170787617"/>
<path d="M 83.6413605192137 40.7228299505682 A 3.4533723156526377 3.4533723156526377 0 1 1 90.38115750017232 39.26396585473247"/>
<path d="M 90.38115750017238 39.263965854732454 A 3.4533723156526377 3.4533723156526377 0 1 1 97.24191700654875 38.56889262814131"/>
<path d="M 98.00028353641447 55.46007967146941 A 1.6682450857215247 1.6682450857215247 0 1 1 101.33434756370977 55.435183323771994"/>
<path d="M 101.33434756370977 55.435183323772 A 1.6682450857215247 1.6682450857215247 0 1 1 104.6609493781672 55.65951150809511"/>
<path d="M 104.66094937816722 55.65951150809511 A 1.6682450857215247 1.6682450857215247 0 1 1 107.96148527304543 56.13180969023604"/>
<path d="M 110.4132927616512 42.62222525663679 A 3.2749032724775566 3.2749032724775566 0 1 1 116.77208865156 44.14892352958451"/>
<path d="M 116.77208865156004 44.14892352958453 A 3.2749032724775566 3.2749032724775566 0 1 1 122.91996579528296 46.37798149469711"/>
<path d="M 120.65590206174353 51.67483352760984 A 1.179520887929186 1.179520887929186 0 1 1 122.80320333828242 52.65021729636441"/>
<path d="M 122.8032033382824 52.65021729636441 A 1.179520887929186 1.179520887929186 0 1 1 124.90458199800824 53.720957226050515"/>
<path d="M 124.90458199800824 53.720957226050515 A 1.179520887929186 1.179520887929186 0 1 1 126.95580614395735 54.88489698894666"/>
<path d="M 126.95580614395733 54.884896988946664 A 1.179520887929186 1.179520887929186 0 1 1 128.95274488368207 56.13969256527054"/>
<path d="M 128.95274488368207 56.13969256527054 A 1.179520887929186 1.179520887929186 0 1 1 130.8913766483185 57.48281696372293"/>
<path d="M 131.80130813893328 56.230437564210185 A 2.024378700996569 2.024378700996569 0 1 1 134.98328872853645 58.729340871464856"/>
<path d="M 134.98328872853648 58.72934087146486 A 2.024378700996569 2.024378700996569 0 1 1 137.96962857703102 61.45904644549906"/>
<path d="M 137.969628577031 61.45904644549907 A 2.024378700996569 2.024378700996569 0 1 1 140.74362686061224 64.40428866547146"/>
<path d="M 138.514883071442 66.35143295945723 A 1.1478423820748984 1.1478423820748984 0 1 1 139.9857383988319 68.11327852241733"/>
<path d="M 139.9857383988319 68.11327852241735 A 1.1478423820748984 1.1478423820748984 0 1 1 141.37606777049373 69.93933969886456"/>
<path d="M 141.37606777049373 69.93933969886457 A 1.1478423820748984 1.1478423820748984 0 1 1 142.68307124810167 71.82593904460656"/>
<path d="M 142.6830712481017 71.82593904460657 A 1.1478423820748984 1.1478423820748984 0 1 1 143.90411670059132 73.76927719963462"/>
<path d="M 143.90411670059132 73.76927719963462 A 1.1478423820748984 1.1478423820748984 0 1 1 145.03674510492124 75.76544053952904"/>
<path d="M 152.30824191757134 71.85260177948422 A 2.222612667334811 2.222612667334811 0 1 1 154.2654351673074 75.8403074275723"/>
<path d="M 154.26543516730746 75.8403074275723 A 2.222612667334811 2.222612667334811 0 1 1 155.9191540914849 79.96312387660608"/>
<path d="M 155.9191540914849 79.96312387660609 A 2.222612667334811 2.222612667334811 0 1 1 157.2601504230691 84.19799466463301"/>
<path d="M 155.33428468651658 84.72947319585147 A 1.6105648978167177 1.6105648978167177 0 1 1 156.10345888830403 87.85611464921287"/>
<path d="M 156.10345888830403 87.85611464921288 A 1.6105648978167177 1.6105648978167177 0 1 1 156.69611085214822 91.02096525869271"/>
<path d="M 156.69611085214822 91.0209652586927 A 1.6105648978167177 1.6105648978167177 0 1 1 157.1103758757108 94.21406723339157"/>
<path d="M 157.11037587571082 94.2140672333916 A 1.6105648978167177 1.6105648978167177 0 1 1 157.34495052796433 97.42537389316318"/>
<path d="M 172.64775680969979 96.73832116754247 A 1.6321280407682228 1.6321280407682228 0 1 1 172.72094002014572 100.00093474570299"/>
<path d="M 172.72094002014575 100.00093474570299 A 1.6321280407682228 1.6321280407682228 0 1 1 172.64767293528502 103.26354644141007"/>
<path d="M 172.64767293528504 103.26354644141009 A 1.6321280407682228 1.6321280407682228 0 1 1 172.428103105276 106.5195857889055"/>
<path d="M 172.42810310527597 106.51958578890552 A 1.6321280407682228 1.6321280407682228 0 1 1 172.06267271453527 109.7624955582657"/>
<path d="M 172.06267271453527 109.7624955582657 A 1.6321280407682228 1.6321280407682228 0 1 1 171.55211769123747 112.98574496079011"/>
<path d="M 137.85356325444252 106.86991152939034 A 1.0794176895824754 1.0794176895824754 0 1 1 137.40881358527565 108.98157010894128"/>
<path d="M 137.40881358527565 108.98157010894131 A 1.0794176895824754 1.0794176895824754 0 1 1 136.84636194864146 111.06496934606864"/>
<path d="M 136.84636194864146 111.06496934606862 A 1.0794176895824754 1.0794176895824754 0 1 1 136.16797802547586 113.11355409598885"/>
<path d="M 136.1679780254759 113.11355409598885 A 1.0794176895824754 1.0794176895824754 0 1 1 135.37579626257906 115.12087875317535"/>
<path d="M 171.12544366285704 130.4015548345273 A 4.343904886476311 4.343904886476311 0 1 1 167.27432764208115 138.17391927613585"/>
<path d="M 167.2743276420811 138.17391927613588 A 4.343904886476311 4.343904886476311 0 1 1 162.57719791773195 145.46622453382315"/>
<path d="M 149.5401776137565 135.99401880847535 A 3.4389174775165565 3.4389174775165565 0 1 1 145.19862791632616 141.31443600569804"/>
<path d="M 145.19862791632613 141.31443600569807 A 3.4389174775165565 3.4389174775165565 0 1 1 140.28867924799323 146.115300198955"/>
<path d="M 127.63534158556234 131.63201418131246 A 0.942715221031704 0.942715221031704 0 1 1 126.18834968558797 132.84001775978248"/>
<path d="M 126.18834968558798 132.84001775978248 A 0.942715221031704 0.942715221031704 0 1 1 124.68861793456126 133.9818859129202"/>
<path d="M 124.68861793456128 133.9818859129202 A 0.942715221031704 0.942715221031704 0 1 1 123.13916659264055 135.05531907022802"/>
<path d="M 123.13916659264055 135.05531907022802 A 0.942715221031704 0.942715221031704 0 1 1 121.54311604862338 136.05815548018245"/>
<path d="M 121.54311604862336 136.05815548018245 A 0.942715221031704 0.942715221031704 0 1 1 119.90368053589879 136.98837556371393"/>
<path d="M 125.02058066144346 146.49746224867636 A 1.185071383458533 1.185071383458533 0 1 1 122.90928584610339 147.57318650484126"/>
<path d="M 122.90928584610337 147.57318650484123 A 1.185071383458533 1.185071383458533 0 1 1 120.75185477789724 148.55310469455011"/>
<path d="M 120.75185477789725 148.55310469455011 A 1.185071383458533 1.185071383458533 0 1 1 118.55263223587981 149.435243392979"/>
<path d="M 118.55263223587983 149.435243392979 A 1.185071383458533 1.185071383458533 0 1 1 116.31604716157241 150.2178260901866"/>
<path d="M 116.31604716157241 150.2178260901866 A 1.185071383458533 1.185071383458533 0 1 1 114.04660373966405 150.8992767687689"/>
<path d="M 118.62656004824946 167.49520757596434 A 1.5714690678659624 1.5714690678659624 0 1 1 115.57964330434824 168.26292184973357"/>
<path d="M 115.57964330434822 168.26292184973357 A 1.5714690678659624 1.5714690678659624 0 1 1 112.50135123221195 168.89316368350657"/>
<path d="M 112.50135123221193 168.89316368350657 A 1.5714690678659624 1.5714690678659624 0 1 1 109.39788310240667 169.38466385410436"/>
<path d="M 109.39788310240667 169.38466385410433 A 1.5714690678659624 1.5714690678659624 0 1 1 106.27548888672814 169.73643254559346"/>
<path d="M 106.27548888672816 169.73643254559346 A 1.5714690678659624 1.5714690678659624 0 1 1 103.14045667159031 169.94776134264356"/>
<path d="M 102.14911326377562 147.86745285575358 A 1.7928779935752555 1.7928779935752555 0 1 1 98.56596467555526 147.89420918447837"/>
<path d="M 98.56596467555526 147.89420918447834 A 1.7928779935752555 1.7928779935752555 0 1 1 94.99083579456791 147.65312166774956"/>
<path d="M 94.9908357945679 147.6531216677496 A 1.7928779935752555 1.7928779935752555 0 1 1 91.44372019172287 147.14553856475496"/>
<path d="M 87.42476695292193 169.29017608894452 A 2.635007164255706 2.635007164255706 0 1 1 82.28186851126884 168.15667836076884"/>
<path d="M 82.28186851126888 168.15667836076884 A 2.635007164255706 2.635007164255706 0 1 1 77.23805704804182 166.6420208402856"/>
<path d="M 77.23805704804174 166.6420208402856 A 2.635007164255706 2.635007164255706 0 1 1 72.32153960290285 164.75467410675145"/>
<path d="M 77.39233465657345 152.89138126272437 A 1.613868763198082 1.613868763198082 0 1 1 74.46225729378018 151.54055142924022"/>
<path d="M 74.4622572937802 151.54055142924025 A 1.613868763198082 1.613868763198082 0 1 1 71.6125311175955 150.02755595279223"/>
<path d="M 71.61253111759552 150.02755595279226 A 1.613868763198082 1.613868763198082 0 1 1 68.85212242086683 148.35715527690368"/>
<path d="M 68.85212242086685 148.3571552769037 A 1.613868763198082 1.613868763198082 0 1 1 66.18971647060691 146.53460510008966"/>
<path d="M 56.540977516425976 159.8145959808618 A 2.766474860012765 2.766474860012765 0 1 1 52.192547402113746 156.39964542160155"/>
<path d="M 52.192547402113775 156.39964542160158 A 2.766474860012765 2.766474860012765 0 1 1 48.11147595523116 152.66928516732466"/>
<path d="M 48.11147595523109 152.6692851673246 A 2.766474860012765 2.766474860012765 0 1 1 44.320586182745245 148.6443769057475"/>
<path d="M 76.16017049036965 120.82769146674893 A 0.8881940252858128 0.8881940252858128 0 1 1 75.02985697667316 119.45821575265651"/>
<path d="M 75.02985697667316 119.45821575265653 A 0.8881940252858128 0.8881940252858128 0 1 1 73.97810877099121 118.02751729295979"/>
<path d="M 73.97810877099121 118.0275172929598 A 0.8881940252858128 0.8881940252858128 0 1 1 73.00823506228824 116.54009759432039"/>
<path d="M 73.00823506228826 116.54009759432039 A 0.8881940252858128 0.8881940252858128 0 1 1 72.12328743207055 115.0006366294025"/>
<path d="M 54.36483349382917 124.55657382889875 A 1.1630942268761757 1.1630942268761757 0 1 1 53.30905855105347 122.4844329897629"/>
<path d="M 53.30905855105343 122.48443298976281 A 1.1630942268761757 1.1630942268761757 0 1 1 52.347312950602664 120.36701149487304"/>
<path d="M 52.3473129506027 120.36701149487311 A 1.1630942268761757 1.1630942268761757 0 1 1 51.48153352012453 118.20857354932811"/>
<path d="M 51.4815335201245 118.20857354932802 A 1.1630942268761757 1.1630942268761757 0 1 1 50.71346382417171 116.0134659598995"/>
<path d="M 50.71346382417174 116.0134659598996 A 1.1630942268761757 1.1630942268761757 0 1 1 50.04465065289525 113.78610938114201"/>
<path d="M 59.90855502478039 111.06398119320619 A 1.556191396552458 1.556191396552458 0 1 1 59.193846486223926 108.03700662279324"/>
<path d="M 59.19384648622391 108.0370066227932 A 1.556191396552458 1.556191396552458 0 1 1 58.70734251062828 104.9650858512332"/>
<path d="M 58.70734251062828 104.96508585123321 A 1.556191396552458 1.556191396552458 0 1 1 58.45176382556933 101.86539830556741"/>
</svg>