<svg viewBox="0 0 200 200" xmlns="http://www.w3.org/2000/svg">
  <defs>
    <style>
      line, path.round {
        stroke: currentColor;
        stroke-width: 1.5;
        stroke-linecap: round;
        fill: none;
      }
    </style>
  </defs>

  <line x1="100" y1="100" x2="151.27458432008035"   y2="131.15954111990374" />
<line x1="100" y1="100" x2="118.27701854473347"   y2="157.1484959829694" />
<line x1="100" y1="100" x2="118.27701854473347"   y2="157.1484959829694" />
<line x1="100" y1="100" x2="44.72156199853809"   y2="123.33011556161975" />
<line x1="100" y1="100" x2="44.72156199853809"   y2="123.33011556161975" />
<line x1="100" y1="100" x2="40.44016587776044"   y2="92.74561102977594" />
<line x1="100" y1="100" x2="40.44016587776044"   y2="92.74561102977594" />
<line x1="100" y1="100" x2="105.53506759293958"   y2="40.255853619441595" />
<line x1="100" y1="100" x2="105.53506759293958"   y2="40.255853619441595" />
<line x1="100" y1="100" x2="116.20061376772298"   y2="42.22855278297882" />
<line x1="100" y1="100" x2="116.20061376772298"   y2="42.22855278297882" />
<line x1="100" y1="100" x2="159.71839036706314"   y2="94.19363694150465" />
<line x1="100" y1="100" x2="159.71839036706314"   y2="94.19363694150465" />
<line x1="100" y1="100" x2="151.27458432008035"   y2="131.1595411199037" />
  <path class="round" d="M 127.98816461547575 169.47851013366233 A 22.419861333962288 22.419861333962288 0 0 1 135.8574079576083 128.21908537767342"/>
<path class="round" d="M 13.812400374060076 190.5579800075863 A 54.838513091475505 54.838513091475505 0 0 1 54.09308228463762 120.33295094485658"/>
<path class="round" d="M 32.29469398794684 93.88586137173071 A 15.97960538742631 15.97960538742631 0 0 1 51.22091870669694 118.28955552029677"/>
<path class="round" d="M 54.53670499008594 -22.98950252339747 A 58.29521619333629 58.29521619333629 0 0 1 105.12885401245134 43.590939947371304"/>
<path class="round" d="M 116.37965310517217 41.26056315944021 A 5.445513662453926 5.445513662453926 0 0 1 105.53322489256077 41.240259836451614"/>
<path class="round" d="M 195.2874814316463 64.40656387397927 A 41.06883493856219 41.06883493856219 0 0 1 131.09517073516108 86.16694298829297"/>
<path class="round" d="M 163.58597678053366 133.9717274417278 A 19.982834561878377 19.982834561878377 0 0 1 148.17932049846024 99.32478133544461"/>
</svg>