<svg viewBox="0 0 200 200" xmlns="http://www.w3.org/2000/svg">
  <defs>
    <style>
      line, path.round {
        stroke: currentColor;
        stroke-width: 1.5;
        stroke-linecap: round;
        fill: none;
      }
    </style>
  </defs>

  <line x1="100" y1="100" x2="54.94057985636706"   y2="54.403857683397845" />
<line x1="100" y1="100" x2="75.81941222679515"   y2="40.631163791273394" />
<line x1="100" y1="100" x2="78.68265503968388"   y2="47.66107535415826" />
<line x1="100" y1="100" x2="100.33458063344985"   y2="43.487344027731844" />
<line x1="100" y1="100" x2="100.4386157904833"   y2="25.9151881685262" />
<line x1="100" y1="100" x2="128.756258229254"   y2="31.722409675143027" />
<line x1="100" y1="100" x2="131.02048518680007"   y2="26.346329123308408" />
<line x1="100" y1="100" x2="156.84523093003511"   y2="43.82390672761704" />
<line x1="100" y1="100" x2="144.41794773138756"   y2="56.104905655192546" />
<line x1="100" y1="100" x2="157.83475815304544"   y2="76.44423345364098" />
<line x1="100" y1="100" x2="161.178241348976"   y2="75.0824518515359" />
<line x1="100" y1="100" x2="166.05685786893125"   y2="100.39108665075553" />
<line x1="100" y1="100" x2="162.76003577254153"   y2="100.37156796407544" />
<line x1="100" y1="100" x2="157.84051960607798"   y2="124.36050994173821" />
<line x1="100" y1="100" x2="151.90615797086463"   y2="121.861153494095" />
<line x1="100" y1="100" x2="139.58913570599907"   y2="140.060698963457" />
<line x1="100" y1="100" x2="144.46107827301898"   y2="144.99067333809487" />
<line x1="100" y1="100" x2="123.85949491238587"   y2="158.5804802911389" />
<line x1="100" y1="100" x2="122.67841598474197"   y2="155.68066321214428" />
<line x1="100" y1="100" x2="99.64405704369193"   y2="160.12087916799865" />
<line x1="100" y1="100" x2="99.54608381330769"   y2="176.66913961603245" />
<line x1="100" y1="100" x2="70.24062662089791"   y2="170.65934266217323" />
<line x1="100" y1="100" x2="84.69622776356195"   y2="136.33660133575552" />
<line x1="100" y1="100" x2="71.95574274089151"   y2="127.71414216755308" />
<line x1="100" y1="100" x2="67.76698401424727"   y2="131.85359409823644" />
<line x1="100" y1="100" x2="58.030733536976484"   y2="117.09384243137634" />
<line x1="100" y1="100" x2="38.93502407422472"   y2="124.871415788757" />
<line x1="100" y1="100" x2="34.06543982706093"   y2="99.60963740724337" />
<line x1="100" y1="100" x2="38.42445848376897"   y2="99.63544478080048" />
<line x1="100" y1="100" x2="43.25112673242504"   y2="76.099255317341" />
<line x1="100" y1="100" x2="53.0036760121027"   y2="80.20670586071259" />
<line x1="100" y1="100" x2="64.15562390334675"   y2="63.728666091506454" />
  <path class="round" d="M 54.94057985636706 54.40385768339784 A 4.20161691348079 4.20161691348079 0 1 1 61.2775602786212 48.91250446674394"/>
<path class="round" d="M 61.277560278621216 48.912504466743925 A 4.20161691348079 4.20161691348079 0 1 1 68.2770923803967 44.295272462793726"/>
<path class="round" d="M 68.27709238039667 44.29527246279373 A 4.20161691348079 4.20161691348079 0 1 1 75.81941222679517 40.631163791273366"/>
<path class="round" d="M 78.68265503968387 47.661075354158264 A 5.566108342606201 5.566108342606201 0 1 1 89.30307950877908 44.5079454223876"/>
<path class="round" d="M 89.3030795087791 44.50794542238759 A 5.566108342606201 5.566108342606201 0 1 1 100.33458063344982 43.487344027731844"/>
<path class="round" d="M 100.43861579048331 25.9151881685262 A 14.736643574329397 14.736643574329397 0 1 1 128.756258229254 31.72240967514302"/>
<path class="round" d="M 131.02048518680004 26.3463291233084 A 1.9619147188182378 1.9619147188182378 0 1 1 134.5971339894521 27.957151260153594"/>
<path class="round" d="M 134.5971339894521 27.957151260153594 A 1.9619147188182378 1.9619147188182378 0 1 1 138.0904352659725 29.74153092982136"/>
<path class="round" d="M 138.09043526597247 29.74153092982136 A 1.9619147188182378 1.9619147188182378 0 1 1 141.49197334760908 31.695169405394264"/>
<path class="round" d="M 141.4919733476091 31.695169405394296 A 1.9619147188182378 1.9619147188182378 0 1 1 144.79355363118367 33.813360200666175"/>
<path class="round" d="M 144.79355363118367 33.81336020066616 A 1.9619147188182378 1.9619147188182378 0 1 1 147.9872223206088 36.091000408479594"/>
<path class="round" d="M 147.98722232060877 36.09100040847957 A 1.9619147188182378 1.9619147188182378 0 1 1 151.0652855882793 38.522602994076216"/>
<path class="round" d="M 151.06528558827927 38.522602994076216 A 1.9619147188182378 1.9619147188182378 0 1 1 154.02032811017688 41.10231001384413"/>
<path class="round" d="M 154.02032811017685 41.102310013844125 A 1.9619147188182378 1.9619147188182378 0 1 1 156.84523093003511 43.82390672761705"/>
<path class="round" d="M 144.41794773138756 56.10490565519256 A 4.093048029248522 4.093048029248522 0 1 1 149.76740555302234 62.27813985592935"/>
<path class="round" d="M 149.76740555302234 62.278139855929346 A 4.093048029248522 4.093048029248522 0 1 1 154.26532926751332 69.09680554220665"/>
<path class="round" d="M 154.2653292675133 69.09680554220665 A 4.093048029248522 4.093048029248522 0 1 1 157.83475815304547 76.444233453641"/>
<path class="round" d="M 161.178241348976 75.08245185153591 A 1.441391027176744 1.441391027176744 0 1 1 162.20690140408243 77.77472524382763"/>
<path class="round" d="M 162.2069014040824 77.77472524382765 A 1.441391027176744 1.441391027176744 0 1 1 163.117147086757 80.50930570981978"/>
<path class="round" d="M 163.11714708675703 80.50930570981977 A 1.441391027176744 1.441391027176744 0 1 1 163.90724569260786 83.28098782017192"/>
<path class="round" d="M 163.9072456926078 83.28098782017192 A 1.441391027176744 1.441391027176744 0 1 1 164.57569322403236 86.0844955204549"/>
<path class="round" d="M 164.5756932240324 86.0844955204549 A 1.441391027176744 1.441391027176744 0 1 1 165.1212172531625 88.91449217442026"/>
<path class="round" d="M 165.12121725316254 88.91449217442026 A 1.441391027176744 1.441391027176744 0 1 1 165.54277934400324 91.7655907225907"/>
<path class="round" d="M 165.54277934400324 91.76559072259067 A 1.441391027176744 1.441391027176744 0 1 1 165.83957702915458 94.63236393683388"/>
<path class="round" d="M 165.83957702915458 94.6323639368339 A 1.441391027176744 1.441391027176744 0 1 1 166.011045337354 97.50935475139983"/>
<path class="round" d="M 166.01104533735403 97.50935475139983 A 1.441391027176744 1.441391027176744 0 1 1 166.05685786893125 100.3910866507555"/>
<path class="round" d="M 162.76003577254153 100.37156796407545 A 1.2324704069912185 1.2324704069912185 0 1 1 162.69706236961838 102.83522894010358"/>
<path class="round" d="M 162.69706236961838 102.83522894010359 A 1.2324704069912185 1.2324704069912185 0 1 1 162.537414640895 105.29451819860758"/>
<path class="round" d="M 162.53741464089504 105.29451819860752 A 1.2324704069912185 1.2324704069912185 0 1 1 162.28133875159764 107.74564369380359"/>
<path class="round" d="M 162.28133875159764 107.7456436938036 A 1.2324704069912185 1.2324704069912185 0 1 1 161.9292295521868 110.18482596783927"/>
<path class="round" d="M 161.92922955218677 110.18482596783927 A 1.2324704069912185 1.2324704069912185 0 1 1 161.48162996952655 112.60830397844344"/>
<path class="round" d="M 161.48162996952655 112.60830397844346 A 1.2324704069912185 1.2324704069912185 0 1 1 160.93923016973073 115.01234089818097"/>
<path class="round" d="M 160.93923016973073 115.01234089818094 A 1.2324704069912185 1.2324704069912185 0 1 1 160.3028664939767 117.39322987636963"/>
<path class="round" d="M 160.30286649397672 117.39322987636965 A 1.2324704069912185 1.2324704069912185 0 1 1 159.57352016892793 119.74729975477543"/>
<path class="round" d="M 159.57352016892793 119.74729975477544 A 1.2324704069912185 1.2324704069912185 0 1 1 158.75231579375352 122.07092072827218"/>
<path class="round" d="M 158.75231579375355 122.07092072827221 A 1.2324704069912185 1.2324704069912185 0 1 1 157.84051960607798 124.36050994173821"/>
<path class="round" d="M 151.90615797086463 121.86115349409502 A 3.691534015355415 3.691534015355415 0 1 1 148.60864047074867 128.44924144813407"/>
<path class="round" d="M 148.6086404707487 128.44924144813407 A 3.691534015355415 3.691534015355415 0 1 1 144.479415655317 134.55055499337567"/>
<path class="round" d="M 144.479415655317 134.55055499337567 A 3.691534015355415 3.691534015355415 0 1 1 139.58913570599907 140.06069896345704"/>
<path class="round" d="M 144.46107827301898 144.99067333809487 A 3.1074230204680857 3.1074230204680857 0 1 1 139.83712888658408 149.1319786970601"/>
<path class="round" d="M 139.83712888658408 149.13197869706013 A 3.1074230204680857 3.1074230204680857 0 1 1 134.82952617178154 152.80011624290108"/>
<path class="round" d="M 134.82952617178154 152.8001162429011 A 3.1074230204680857 3.1074230204680857 0 1 1 129.486496080189 155.95975980584336"/>
<path class="round" d="M 129.48649608018903 155.95975980584336 A 3.1074230204680857 3.1074230204680857 0 1 1 123.85949491238586 158.58048029113894"/>
<path class="round" d="M 122.67841598474197 155.68066321214428 A 1.1806431195386897 1.1806431195386897 0 1 1 120.4749191688484 156.5280858719837"/>
<path class="round" d="M 120.47491916884837 156.5280858719837 A 1.1806431195386897 1.1806431195386897 0 1 1 118.23985151164818 157.28834632064593"/>
<path class="round" d="M 118.23985151164823 157.2883463206459 A 1.1806431195386897 1.1806431195386897 0 1 1 115.97665932546788 157.96027229162385"/>
<path class="round" d="M 115.97665932546786 157.96027229162385 A 1.1806431195386897 1.1806431195386897 0 1 1 113.68883228861901 158.54282772377246"/>
<path class="round" d="M 113.688832288619 158.54282772377246 A 1.1806431195386897 1.1806431195386897 0 1 1 111.37989806456744 159.03511435883982"/>
<path class="round" d="M 111.37989806456743 159.0351143588398 A 1.1806431195386897 1.1806431195386897 0 1 1 109.05341686253179 159.43637312651626"/>
<path class="round" d="M 109.05341686253183 159.43637312651626 A 1.1806431195386897 1.1806431195386897 0 1 1 106.71297594789891 159.7459853148659"/>
<path class="round" d="M 106.71297594789888 159.7459853148659 A 1.1806431195386897 1.1806431195386897 0 1 1 104.36218411092051 159.9634735243354"/>
<path class="round" d="M 104.36218411092048 159.9634735243354 A 1.1806431195386897 1.1806431195386897 0 1 1 102.00466610222048 160.08850240386965"/>
<path class="round" d="M 102.00466610222047 160.08850240386963 A 1.1806431195386897 1.1806431195386897 0 1 1 99.64405704369194 160.12087916799865"/>
<path class="round" d="M 99.5460838133077 176.66913961603248 A 2.151166235453065 2.151166235453065 0 1 1 95.24792495987414 176.5230735933956"/>
<path class="round" d="M 95.24792495987411 176.52307359339554 A 2.151166235453065 2.151166235453065 0 1 1 90.96471789261521 176.13623767042336"/>
<path class="round" d="M 90.96471789261525 176.13623767042336 A 2.151166235453065 2.151166235453065 0 1 1 86.70993916559861 175.50984897604505"/>
<path class="round" d="M 86.70993916559864 175.50984897604505 A 2.151166235453065 2.151166235453065 0 1 1 82.49697588681597 174.64587836083462"/>
<path class="round" d="M 82.49697588681587 174.64587836083462 A 2.151166235453065 2.151166235453065 0 1 1 78.33908359738852 173.54704419598588"/>
<path class="round" d="M 78.33908359738855 173.54704419598585 A 2.151166235453065 2.151166235453065 0 1 1 74.24934456473103 172.2168038203109"/>
<path class="round" d="M 74.24934456473106 172.21680382031093 A 2.151166235453065 2.151166235453065 0 1 1 70.24062662089783 170.65934266217317"/>
<path class="round" d="M 84.69622776356195 136.33660133575552 A 2.584236727916621 2.584236727916621 0 1 1 80.0842754459741 134.02819355749835"/>
<path class="round" d="M 80.08427544597413 134.02819355749835 A 2.584236727916621 2.584236727916621 0 1 1 75.81308669718769 131.13755395307476"/>
<path class="round" d="M 75.81308669718766 131.13755395307476 A 2.584236727916621 2.584236727916621 0 1 1 71.95574274089158 127.71414216755313"/>
<path class="round" d="M 67.76698401424731 131.85359409823644 A 0.8899090424419959 0.8899090424419959 0 1 1 66.54126826586361 130.5635738626242"/>
<path class="round" d="M 66.5412682658636 130.56357386262422 A 0.8899090424419959 0.8899090424419959 0 1 1 65.36714345667667 129.22642681140783"/>
<path class="round" d="M 65.36714345667667 129.22642681140786 A 0.8899090424419959 0.8899090424419959 0 1 1 64.24642000204004 127.84421472842196"/>
<path class="round" d="M 64.24642000204003 127.84421472842196 A 0.8899090424419959 0.8899090424419959 0 1 1 63.18082597628908 126.41906888451378"/>
<path class="round" d="M 63.18082597628907 126.41906888451378 A 0.8899090424419959 0.8899090424419959 0 1 1 62.17200444817571 124.953186751278"/>
<path class="round" d="M 62.17200444817571 124.95318675127797 A 0.8899090424419959 0.8899090424419959 0 1 1 61.22151094737546 123.44882861271478"/>
<path class="round" d="M 61.22151094737545 123.44882861271478 A 0.8899090424419959 0.8899090424419959 0 1 1 60.330811065973386 121.90831408003578"/>
<path class="round" d="M 60.330811065973386 121.90831408003577 A 0.8899090424419959 0.8899090424419959 0 1 1 59.50127819862742 120.33401851499164"/>
<path class="round" d="M 59.50127819862745 120.33401851499168 A 0.8899090424419959 0.8899090424419959 0 1 1 58.73419142489329 118.7283693672365"/>
<path class="round" d="M 58.73419142489329 118.7283693672365 A 0.8899090424419959 0.8899090424419959 0 1 1 58.03073353697647 117.09384243137632"/>
<path class="round" d="M 38.935024074224714 124.87141578875705 A 13.115429309708864 13.115429309708864 0 1 1 34.06543982706094 99.60963740724344"/>
<path class="round" d="M 38.42445848376897 99.63544478080053 A 1.2092095197054842 1.2092095197054842 0 1 1 38.48624336547563 97.21828142447067"/>
<path class="round" d="M 38.48624336547563 97.21828142447066 A 1.2092095197054842 1.2092095197054842 0 1 1 38.6428780013067 94.80540727656128"/>
<path class="round" d="M 38.6428780013067 94.80540727656128 A 1.2092095197054842 1.2092095197054842 0 1 1 38.89412087200684 92.40054281411986"/>
<path class="round" d="M 38.89412087200683 92.40054281411985 A 1.2092095197054842 1.2092095197054842 0 1 1 39.239584579279864 90.0073961638394"/>
<path class="round" d="M 39.23958457927988 90.0073961638394 A 1.2092095197054842 1.2092095197054842 0 1 1 39.6787364431289 87.62965738439594"/>
<path class="round" d="M 39.67873644312889 87.62965738439594 A 1.2092095197054842 1.2092095197054842 0 1 1 40.21089932321021 85.27099277664543"/>
<path class="round" d="M 40.21089932321022 85.27099277664541 A 1.2092095197054842 1.2092095197054842 0 1 1 40.83525266293468 82.93503923045358"/>
<path class="round" d="M 40.835252662934685 82.93503923045357 A 1.2092095197054842 1.2092095197054842 0 1 1 41.55083375470647 80.62539861687534"/>
<path class="round" d="M 41.550833754706446 80.62539861687543 A 1.2092095197054842 1.2092095197054842 0 1 1 42.356539224348396 78.34563223433086"/>
<path class="round" d="M 42.356539224348396 78.34563223433084 A 1.2092095197054842 1.2092095197054842 0 1 1 43.25112673242502 76.09925531734105"/>
<path class="round" d="M 53.00367601210272 80.20670586071255 A 1.251842286538155 1.251842286538155 0 1 1 54.031496053235394 77.92454743032326"/>
<path class="round" d="M 54.0314960532354 77.92454743032326 A 1.251842286538155 1.251842286538155 0 1 1 55.17005824674124 75.6955706987556"/>
<path class="round" d="M 55.170058246741235 75.6955706987556 A 1.251842286538155 1.251842286538155 0 1 1 56.41661969656982 73.52514546619122"/>
<path class="round" d="M 56.41661969656982 73.52514546619125 A 1.251842286538155 1.251842286538155 0 1 1 57.76817732700262 71.41850047712218"/>
<path class="round" d="M 57.76817732700262 71.4185004771222 A 1.251842286538155 1.251842286538155 0 1 1 59.22147511732546 69.38071082384744"/>
<path class="round" d="M 59.22147511732545 69.38071082384744 A 1.251842286538155 1.251842286538155 0 1 1 60.77301194586759 67.41668572013101"/>
<path class="round" d="M 60.77301194586759 67.41668572013103 A 1.251842286538155 1.251842286538155 0 1 1 62.41905002451049 65.53115667447607"/>
<path class="round" d="M 62.419050024510476 65.5311566744761 A 1.251842286538155 1.251842286538155 0 1 1 64.15562390334678 63.728666091506426"/>
</svg>