<svg viewBox="0 0 200 200" xmlns="http://www.w3.org/2000/svg">
  <defs>
    <style>
      line, path {
        stroke: currentColor;
        stroke-width: 1.5;
        stroke-linecap: round;
        fill: none;
      }
    </style>
  </defs>

  <line x1="100" y1="100" x2="57.00540172507184"   y2="141.85050201822605" />
<line x1="100" y1="100" x2="48.24045188277129"   y2="130.34714449005517" />
<line x1="100" y1="100" x2="48.24045188277129"   y2="130.34714449005517" />
<line x1="100" y1="100" x2="43.93567032474634"   y2="121.37266801465066" />
<line x1="100" y1="100" x2="43.93567032474634"   y2="121.37266801465066" />
<line x1="100" y1="100" x2="40.413733650361195"   y2="107.03397913772159" />
<line x1="100" y1="100" x2="40.413733650361195"   y2="107.03397913772159" />
<line x1="100" y1="100" x2="40.09907567180809"   y2="103.44663090977643" />
<line x1="100" y1="100" x2="40.09907567180809"   y2="103.44663090977643" />
<line x1="100" y1="100" x2="40.184626834028606"   y2="95.29668914321095" />
<line x1="100" y1="100" x2="40.184626834028606"   y2="95.29668914321095" />
<line x1="100" y1="100" x2="40.64701090156672"   y2="91.21235611319732" />
<line x1="100" y1="100" x2="40.64701090156672"   y2="91.21235611319732" />
<line x1="100" y1="100" x2="41.811543169477034"   y2="85.36772431634897" />
<line x1="100" y1="100" x2="41.811543169477034"   y2="85.36772431634897" />
<line x1="100" y1="100" x2="42.872790886402726"   y2="81.65655487943096" />
<line x1="100" y1="100" x2="42.872790886402726"   y2="81.65655487943096" />
<line x1="100" y1="100" x2="47.123520258068886"   y2="71.64373278971387" />
<line x1="100" y1="100" x2="47.123520258068886"   y2="71.64373278971387" />
<line x1="100" y1="100" x2="53.0371341266769"   y2="62.65713951818549" />
<line x1="100" y1="100" x2="53.0371341266769"   y2="62.65713951818549" />
<line x1="100" y1="100" x2="58.08308278731051"   y2="57.07014964637618" />
<line x1="100" y1="100" x2="58.08308278731051"   y2="57.07014964637618" />
<line x1="100" y1="100" x2="67.93963840074463"   y2="49.28379732151675" />
<line x1="100" y1="100" x2="67.93963840074463"   y2="49.28379732151675" />
<line x1="100" y1="100" x2="74.78596745372413"   y2="45.5550501629826" />
<line x1="100" y1="100" x2="74.78596745372413"   y2="45.5550501629826" />
<line x1="100" y1="100" x2="86.41663608626885"   y2="41.5577873041485" />
<line x1="100" y1="100" x2="86.41663608626885"   y2="41.5577873041485" />
<line x1="100" y1="100" x2="96.7047400540333"   y2="40.090557823590885" />
<line x1="100" y1="100" x2="96.7047400540333"   y2="40.090557823590885" />
<line x1="100" y1="100" x2="105.50097443620696"   y2="40.25270482898663" />
<line x1="100" y1="100" x2="105.50097443620696"   y2="40.25270482898663" />
<line x1="100" y1="100" x2="114.12390251814593"   y2="41.686061892049246" />
<line x1="100" y1="100" x2="114.12390251814593"   y2="41.686061892049246" />
<line x1="100" y1="100" x2="122.76510088189693"   y2="44.486486493493715" />
<line x1="100" y1="100" x2="122.76510088189693"   y2="44.486486493493715" />
<line x1="100" y1="100" x2="125.6985720635838"   y2="45.782074976141054" />
<line x1="100" y1="100" x2="125.6985720635838"   y2="45.782074976141054" />
<line x1="100" y1="100" x2="132.4390495221774"   y2="49.52517393692453" />
<line x1="100" y1="100" x2="132.4390495221774"   y2="49.52517393692453" />
<line x1="100" y1="100" x2="143.67859495143912"   y2="58.86388031099533" />
<line x1="100" y1="100" x2="143.67859495143912"   y2="58.86388031099533" />
<line x1="100" y1="100" x2="149.45763890594927"   y2="66.03027886707439" />
<line x1="100" y1="100" x2="149.45763890594927"   y2="66.03027886707439" />
<line x1="100" y1="100" x2="154.22807667342045"   y2="74.32285646140451" />
<line x1="100" y1="100" x2="154.22807667342045"   y2="74.32285646140451" />
<line x1="100" y1="100" x2="158.5803737880786"   y2="87.02541689112928" />
<line x1="100" y1="100" x2="158.5803737880786"   y2="87.02541689112928" />
<line x1="100" y1="100" x2="159.4679715309241"   y2="92.02752472583317" />
<line x1="100" y1="100" x2="159.4679715309241"   y2="92.02752472583317" />
<line x1="100" y1="100" x2="159.95754822341593"   y2="102.25663710790076" />
<line x1="100" y1="100" x2="159.95754822341593"   y2="102.25663710790076" />
<line x1="100" y1="100" x2="157.39563423465313"   y2="117.48545597923929" />
<line x1="100" y1="100" x2="157.39563423465313"   y2="117.48545597923929" />
<line x1="100" y1="100" x2="153.5666763081852"   y2="127.02982037110324" />
<line x1="100" y1="100" x2="153.5666763081852"   y2="127.02982037110324" />
<line x1="100" y1="100" x2="147.97727139163237"   y2="136.03028489775863" />
<line x1="100" y1="100" x2="147.97727139163237"   y2="136.03028489775863" />
<line x1="100" y1="100" x2="143.9429540916734"   y2="140.85360186932218" />
<line x1="100" y1="100" x2="143.9429540916734"   y2="140.85360186932218" />
<line x1="100" y1="100" x2="140.31161480217995"   y2="144.44067632294392" />
<line x1="100" y1="100" x2="140.31161480217995"   y2="144.44067632294392" />
<line x1="100" y1="100" x2="137.0941471202312"   y2="147.1595615906535" />
<line x1="100" y1="100" x2="137.0941471202312"   y2="147.1595615906535" />
<line x1="100" y1="100" x2="124.02666764206704"   y2="154.9792619268179" />
<line x1="100" y1="100" x2="124.02666764206704"   y2="154.9792619268179" />
<line x1="100" y1="100" x2="120.58583705050779"   y2="156.3579924494294" />
<line x1="100" y1="100" x2="120.58583705050779"   y2="156.3579924494294" />
<line x1="100" y1="100" x2="116.75127356186208"   y2="157.6141895200797" />
<line x1="100" y1="100" x2="116.75127356186208"   y2="157.6141895200797" />
<line x1="100" y1="100" x2="114.1960462639924"   y2="158.29641730390117" />
<line x1="100" y1="100" x2="114.1960462639924"   y2="158.29641730390117" />
<line x1="100" y1="100" x2="101.9662610478894"   y2="159.9677731576849" />
<line x1="100" y1="100" x2="101.9662610478894"   y2="159.9677731576849" />
<line x1="100" y1="100" x2="93.58042076481225"   y2="159.65558651495388" />
<line x1="100" y1="100" x2="93.58042076481225"   y2="159.65558651495388" />
<line x1="100" y1="100" x2="78.67498410213882"   y2="156.08247227927785" />
<line x1="100" y1="100" x2="78.67498410213882"   y2="156.08247227927785" />
<line x1="100" y1="100" x2="64.96987321530791"   y2="148.71232100247738" />
<line x1="100" y1="100" x2="64.96987321530791"   y2="148.71232100247738" />
<line x1="100" y1="100" x2="64.63229865253658"   y2="148.46778003371554" />
<line x1="100" y1="100" x2="64.63229865253658"   y2="148.46778003371554" />
<line x1="100" y1="100" x2="63.057720548456956"   y2="147.27862084414159" />
<line x1="100" y1="100" x2="63.057720548456956"   y2="147.27862084414159" />
<line x1="100" y1="100" x2="57.005401725071835"   y2="141.85050201822605" />
  <path d="M 55.56068721046014 140.36629233895778 A 1.03562522187848 1.03562522187848 0 0 1 57.030581893918 141.82513101809784"/>
<path d="M 54.19409490762914 138.80862194241735 A 1.03562522187848 1.03562522187848 0 0 1 55.61276868498061 140.317318527443"/>
<path d="M 52.882072714951356 137.2047175336896 A 1.03562522187848 1.03562522187848 0 0 1 54.24783547257144 138.76147466378757"/>
<path d="M 51.626183688443966 135.5564898978597 A 1.03562522187848 1.03562522187848 0 0 1 52.93740834737906 137.15945295607824"/>
<path d="M 50.42792401080169 133.86590262375879 A 1.03562522187848 1.03562522187848 0 0 1 51.68304846516328 135.51316194647524"/>
<path d="M 49.288721208944274 132.13496976467513 A 1.03562522187848 1.03562522187848 0 0 1 50.48625018689803 133.82456291664215"/>
<path d="M 48.2099324533557 130.36575343894472 A 1.03562522187848 1.03562522187848 0 0 1 49.34843929848895 132.09566755120508"/>
<path d="M 47.52039890490247 129.11903497987808 A 0.7118162087093055 0.7118162087093055 0 0 1 48.25491830703067 130.33843044312107"/>
<path d="M 46.84435317775812 127.86582028523495 A 0.7118162087093055 0.7118162087093055 0 0 1 47.54973707205212 129.10229819023405"/>
<path d="M 46.19822882397881 126.5969198890206 A 0.7118162087093055 0.7118162087093055 0 0 1 46.87408014905136 127.8497842209728"/>
<path d="M 45.5823895476898 125.31304805669487 A 0.7118162087093055 0.7118162087093055 0 0 1 46.22832786607009 126.58159357685896"/>
<path d="M 44.99718200551215 124.01492748115574 A 0.7118162087093055 0.7118162087093055 0 0 1 45.61284371779446 125.29844012383207"/>
<path d="M 44.442935611429405 122.70328887593482 A 0.7118162087093055 0.7118162087093055 0 0 1 45.027974160943636 124.00104615041361"/>
<path d="M 43.91996235135995 121.3788705638778 A 0.7118162087093055 0.7118162087093055 0 0 1 44.47404841924876 122.69014196113004"/>
<path d="M 43.18233797773892 119.39654257122427 A 1.0574239208100011 1.0574239208100011 0 0 1 43.97025230700241 121.35878202366212"/>
<path d="M 42.53415503335796 117.3824406704889 A 1.0574239208100011 1.0574239208100011 0 0 1 43.25243757948989 119.37122493301828"/>
<path d="M 41.95734455124253 115.34674981388666 A 1.0574239208100011 1.0574239208100011 0 0 1 42.6051032087853 117.359608820509"/>
<path d="M 41.452622928835204 113.2919983253103 A 1.0574239208100011 1.0574239208100011 0 0 1 42.02905318285705 115.32643210924395"/>
<path d="M 41.02061702936178 111.22073820191864 A 1.0574239208100011 1.0574239208100011 0 0 1 41.52500295466265 113.27422000055252"/>
<path d="M 40.66186340326849 109.13554194456125 A 1.0574239208100011 1.0574239208100011 0 0 1 41.093578553557684 111.20552133768891"/>
<path d="M 40.37680762182737 107.03899936273774 A 1.0574239208100011 1.0574239208100011 0 0 1 40.73531580776857 109.12290544017392"/>
<path d="M 40.35341419067294 106.52300073976531 A 0.2572631728381705 0.2572631728381705 0 0 1 40.415923433222765 107.03371111562042"/>
<path d="M 40.29967073311978 106.01127463908276 A 0.2572631728381705 0.2572631728381705 0 0 1 40.35779819209634 106.52250227128113"/>
<path d="M 40.250317446962235 105.49910648847695 A 0.2572631728381705 0.2572631728381705 0 0 1 40.30405884785799 106.01081378297253"/>
<path d="M 40.20535796148323 104.98653395115663 A 0.2572631728381705 0.2572631728381705 0 0 1 40.25470935232733 105.49868327863054"/>
<path d="M 40.16479558285962 104.47359472006785 A 0.2572631728381705 0.2572631728381705 0 0 1 40.20975333450853 104.98614841869552"/>
<path d="M 40.12863329391909 103.96032651512222 A 0.2572631728381705 0.2572631728381705 0 0 1 40.16919410032344 104.47324689334292"/>
<path d="M 40.09687375392077 103.44676708042297 A 0.2572631728381705 0.2572631728381705 0 0 1 40.133034632368506 103.96001641971151"/>
<path d="M 40.032137777755146 102.28327984860525 A 0.5826376174751238 0.5826376174751238 0 0 1 40.11036516343307 103.4458712728162"/>
<path d="M 39.99910622697109 101.11830801252958 A 0.5826376174751238 0.5826376174751238 0 0 1 40.05474200660107 102.28219933200225"/>
<path d="M 39.98870398566509 99.95291440710155 A 0.5826376174751238 0.5826376174751238 0 0 1 40.021727176238436 101.11766666076034"/>
<path d="M 40.00093497703767 98.7875385599832 A 0.5826376174751238 0.5826376174751238 0 0 1 40.01133312387326 99.9527124620516"/>
<path d="M 40.035794588176095 97.62261999213905 A 0.5826376174751238 0.5826376174751238 0 0 1 40.023563769617624 98.787776097816"/>
<path d="M 40.09326967179403 96.45859805207098 A 0.5826376174751238 0.5826376174751238 0 0 1 40.058414500689096 97.62329692326738"/>
<path d="M 40.17333855119015 95.29591175011805 A 0.5826376174751238 0.5826376174751238 0 0 1 40.115872173150485 96.45971412119052"/>
<path d="M 40.23066619813501 94.711173571691 A 0.2936614153832899 0.2936614153832899 0 0 1 40.187493590407776 95.29690044536248"/>
<path d="M 40.28529921437432 94.12637605981318 A 0.2936614153832899 0.2936614153832899 0 0 1 40.236395299556946 94.71165227811909"/>
<path d="M 40.345653891616195 93.54214133874903 A 0.2936614153832899 0.2936614153832899 0 0 1 40.29102335551668 94.12691082249833"/>
<path d="M 40.41172444687926 92.95852538789684 A 0.2936614153832899 0.2936614153832899 0 0 1 40.35137252401111 93.54273210645206"/>
<path d="M 40.483504549505994 92.37558412736644 A 0.2936614153832899 0.2936614153832899 0 0 1 40.417437022586675 92.95917210401238"/>
<path d="M 40.56098732176934 91.7933734126211 A 0.2936614153832899 0.2936614153832899 0 0 1 40.48921052116621 92.37628672992832"/>
<path d="M 40.644165339531654 91.2119490291257 A 0.2936614153832899 0.2936614153832899 0 0 1 40.56668614265539 91.79413183430836"/>
<path d="M 40.77175507804319 90.36981631050683 A 0.4258621926992644 0.4258621926992644 0 0 1 40.65299698175326 91.21319902291876"/>
<path d="M 40.91441979126187 89.53005989389357 A 0.4258621926992644 0.4258621926992644 0 0 1 40.783702102538 90.37167190122497"/>
<path d="M 41.06899021418032 88.69241316406072 A 0.4258621926992644 0.4258621926992644 0 0 1 40.926339272559986 89.53208488198656"/>
<path d="M 41.23543520094913 87.85704490633216 A 0.4258621926992644 0.4258621926992644 0 0 1 41.08087975051326 88.69460714149457"/>
<path d="M 41.413721213001246 87.0241234469211 A 0.4258621926992644 0.4258621926992644 0 0 1 41.24729239658232 87.85940743102176"/>
<path d="M 41.60381232580999 86.19381661901228 A 0.4258621926992644 0.4258621926992644 0 0 1 41.42554367871673 87.02665404281913"/>
<path d="M 41.80567023612781 85.3662917289437 A 0.4258621926992644 0.4258621926992644 0 0 1 41.61559767938787 86.1965147762051"/>
<path d="M 41.94604230425339 84.83285897708932 A 0.2757584760242774 0.2757584760242774 0 0 1 41.81400418602977 85.36833116018661"/>
<path d="M 42.087907442910776 84.29988195561805 A 0.2757584760242774 0.2757584760242774 0 0 1 41.950952973507405 84.8341178556149"/>
<path d="M 42.23466558269026 83.76823143940354 A 0.2757584760242774 0.2757584760242774 0 0 1 42.09280633341018 84.30118591863108"/>
<path d="M 42.38630432397526 83.23795234767525 A 0.2757584760242774 0.2757584760242774 0 0 1 42.23955228052707 83.76958037673202"/>
<path d="M 42.54281085478648 82.70908948379076 A 0.2757584760242774 0.2757584760242774 0 0 1 42.39117841627168 83.23934614534728"/>
<path d="M 42.704171951864375 82.18168753145034 A 0.2757584760242774 0.2757584760242774 0 0 1 42.54767192972974 82.71052802404415"/>
<path d="M 42.87037398178639 81.65579105092162 A 0.2757584760242774 0.2757584760242774 0 0 1 42.70901959874155 82.1831706927426"/>
<path d="M 43.34855463373247 80.17487818763556 A 0.7780933366703047 0.7780933366703047 0 0 1 42.892082366213124 81.66247451325978"/>
<path d="M 43.88171283240822 78.71245522992409 A 0.7780933366703047 0.7780933366703047 0 0 1 43.38681760129648 80.18771401035816"/>
<path d="M 44.45261540785581 77.26434997773968 A 0.7780933366703047 0.7780933366703047 0 0 1 43.91963007277745 78.72627897451633"/>
<path d="M 45.06087837897042 75.83153640646547 A 0.7780933366703047 0.7780933366703047 0 0 1 44.49016141842357 77.2791523465439"/>
<path d="M 45.706092636566495 74.4149782065134 A 0.7780933366703047 0.7780933366703047 0 0 1 45.09802790681398 75.84730744361497"/>
<path d="M 46.387824218538874 73.01562813515949 A 0.7780933366703047 0.7780933366703047 0 0 1 45.74282069543189 74.43170730462867"/>
<path d="M 47.105614601739646 71.63442737573267 A 0.7780933366703047 0.7780933366703047 0 0 1 46.42410610564627 73.03330404248264"/>
<path d="M 47.85084675999378 70.28747299855033 A 0.7694875667496729 0.7694875667496729 0 0 1 47.14103075605244 71.65283603287577"/>
<path d="M 48.62998711039377 68.95986114426645 A 0.7694875667496729 0.7694875667496729 0 0 1 47.88538932564384 70.30657162313678"/>
<path d="M 49.442918298178945 67.65266727754945 A 0.7694875667496729 0.7694875667496729 0 0 1 48.664028523867245 68.97983934417319"/>
<path d="M 50.289105582865005 66.36675126143794 A 0.7694875667496729 0.7694875667496729 0 0 1 49.4764361672707 67.67351191125536"/>
<path d="M 51.16799234833826 65.10295896254846 A 0.7694875667496729 0.7694875667496729 0 0 1 50.322077859753726 66.38844861748792"/>
<path d="M 52.079000468993854 63.862121694670044 A 0.7694875667496729 0.7694875667496729 0 0 1 51.200397344089396 65.1254947685725"/>
<path d="M 53.021530690022836 62.64505567193197 A 0.7694875667496729 0.7694875667496729 0 0 1 52.11081686782649 63.885481126771616"/>
<path d="M 53.70694938139635 61.81477116285785 A 0.5381070807730206 0.5381070807730206 0 0 1 53.04474212968229 62.66307849170359"/>
<path d="M 54.39926541914729 60.99062622127681 A 0.5381070807730206 0.5381070807730206 0 0 1 53.72194990341734 61.826920105355576"/>
<path d="M 55.10625151428408 60.17903085279325 A 0.5381070807730206 0.5381070807730206 0 0 1 54.41404563141152 61.00304225084104"/>
<path d="M 55.82768022471219 59.380246152995596 A 0.5381070807730206 0.5381070807730206 0 0 1 55.1208066618997 60.19170997510527"/>
<path d="M 56.56331946205234 58.594529096195615 A 0.5381070807730206 0.5381070807730206 0 0 1 55.842005625192094 59.393184289098045"/>
<path d="M 57.31293256630493 57.8221324527581 A 0.5381070807730206 0.5381070807730206 0 0 1 56.577410506820605 58.60772208380474"/>
<path d="M 58.076278381985155 57.063304707782805 A 0.5381070807730206 0.5381070807730206 0 0 1 57.32678472217944 57.83557604760262"/>
<path d="M 59.369445449994714 55.81413881025461 A 0.8989288237122581 0.8989288237122581 0 0 1 58.102184981648186 57.089135929078644"/>
<path d="M 60.71138262618941 54.616778023429056 A 0.8989288237122581 0.8989288237122581 0 0 1 59.40649512566837 55.85323884311862"/>
<path d="M 62.08858752168027 53.460155823003596 A 0.8989288237122581 0.8989288237122581 0 0 1 60.74724433094474 54.65697042531712"/>
<path d="M 63.4998238782603 52.34531045949008 A 0.8989288237122581 0.8989288237122581 0 0 1 62.123229063991495 53.50140451490758"/>
<path d="M 64.94382488912872 51.273242682112205 A 0.8989288237122581 0.8989288237122581 0 0 1 63.53321416188963 52.38757841421517"/>
<path d="M 66.4192943360493 50.24491484047573 A 0.8989288237122581 0.8989288237122581 0 0 1 64.97593394103994 51.316491957514835"/>
<path d="M 67.92490775291047 49.26125002070804 A 0.8989288237122581 0.8989288237122581 0 0 1 66.45009333331343 50.28910661352247"/>
<path d="M 68.88170401356884 48.68826842537994 A 0.5572571859114546 0.5572571859114546 0 0 1 67.94525022508338 49.29249474823189"/>
<path d="M 69.84011756665849 48.11914000431356 A 0.5572571859114546 0.5572571859114546 0 0 1 68.89260264041246 48.705868742093564"/>
<path d="M 70.8089365736419 47.56791098646423 A 0.5572571859114546 0.5572571859114546 0 0 1 69.85068741153555 48.13693971202946"/>
<path d="M 71.78782678250295 47.03477155122484 A 0.5572571859114546 0.5572571859114546 0 0 1 70.81917398985267 47.585903944109496"/>
<path d="M 72.77645046656261 46.51990563690561 A 0.5572571859114546 0.5572571859114546 0 0 1 71.79772823803894 47.052951551053376"/>
<path d="M 73.77446654099779 46.023490877273694 A 0.5572571859114546 0.5572571859114546 0 0 1 72.78601254532497 46.53826640664"/>
<path d="M 74.78153068051908 45.54569854026774 A 0.5572571859114546 0.5572571859114546 0 0 1 73.78368594397598 46.04202608226914"/>
<path d="M 76.3831375438954 44.815383788854795 A 0.8800651455933685 0.8800651455933685 0 0 1 74.79715790933312 45.578312919615925"/>
<path d="M 78.01181772494583 44.14646028333615 A 0.8800651455933685 0.8800651455933685 0 0 1 76.40414427114816 44.862545701260906"/>
<path d="M 79.65941624643682 43.52559242270678 A 0.8800651455933685 0.8800651455933685 0 0 1 78.03143219432378 44.19421801739771"/>
<path d="M 81.32451553644962 42.95331439344051 A 0.8800651455933685 0.8800651455933685 0 0 1 79.6776215819107 43.57390488830269"/>
<path d="M 83.00568296563615 42.43011857596471 A 0.8800651455933685 0.8800651455933685 0 0 1 81.34129607439009 43.00214002316613"/>
<path d="M 84.70147207983464 41.956455121022515 A 0.8800651455933685 0.8800651455933685 0 0 1 83.02102426829094 42.47941536089565"/>
<path d="M 86.41042384457933 41.53273156236923 A 0.8800651455933685 0.8800651455933685 0 0 1 84.71536094775036 42.006180646858766"/>
<path d="M 87.86457912161664 41.22125081334452 A 0.7432691039009548 0.7432691039009548 0 0 1 86.4210265639542 41.575669771081294"/>
<path d="M 89.32436060353614 40.938671541185904 A 0.7432691039009548 0.7432691039009548 0 0 1 87.8724714193311 41.257222292441426"/>
<path d="M 90.79069413098101 40.692340450375994 A 0.7432691039009548 0.7432691039009548 0 0 1 89.33135939979121 40.97482748845068"/>
<path d="M 92.26267975935133 40.48240872366471 A 0.7432691039009548 0.7432691039009548 0 0 1 90.79679513034966 40.728658675530006"/>
<path d="M 93.73941407513776 40.30900520412922 A 0.7432691039009548 0.7432691039009548 0 0 1 92.26787921741828 40.51886693683324"/>
<path d="M 95.21999075038138 40.172236316098065 A 0.7432691039009548 0.7432691039009548 0 0 1 93.7437088007982 40.34558102952162"/>
<path d="M 96.703501098921 40.07218599983443 A 0.7432691039009548 0.7432691039009548 0 0 1 95.22337810779885 40.208907305740546"/>
<path d="M 97.96083447329363 40.02146758542855 A 0.6289965522771785 0.6289965522771785 0 0 1 96.70560229491275 40.10371676879937"/>
<path d="M 99.21868744453397 39.991899735604214 A 0.6289965522771785 0.6289965522771785 0 0 1 97.96200684128031 40.04781584432055"/>
<path d="M 100.47688384013449 39.98870832539825 A 0.6289965522771785 0.6289965522771785 0 0 1 99.21930718343633 40.01826678164713"/>
<path d="M 101.73487062240356 40.01189475758859 A 0.6289965522771785 0.6289965522771785 0 0 1 100.47695067754765 40.0150825690101"/>
<path d="M 102.99209484578442 40.06144884062565 A 0.6289965522771785 0.6289965522771785 0 0 1 101.73438452894914 40.03826460602369"/>
<path d="M 104.24800389990173 40.13734879311203 A 0.6289965522771785 0.6289965522771785 0 0 1 102.99105603512389 40.08780270307023"/>
<path d="M 105.5020457524601 40.23956125337648 A 0.6289965522771785 0.6289965522771785 0 0 1 104.24641282864226 40.163675085778934"/>
<path d="M 106.74561195141867 40.367299458482854 A 0.6249508927471251 0.6249508927471251 0 0 1 105.4999159813639 40.26567980912959"/>
<path d="M 107.98626400643587 40.52074444234454 A 0.6249508927471251 0.6249508927471251 0 0 1 106.74295497795566 40.39319969472649"/>
<path d="M 109.22345072166591 40.69999821873205 A 0.6249508927471251 0.6249508927471251 0 0 1 107.9830681220901 40.54658371610964"/>
<path d="M 110.4566352663271 40.90498300719098 A 0.6249508927471251 0.6249508927471251 0 0 1 109.21971731317143 40.725765318034696"/>
<path d="M 111.68528254622977 41.13560986225917 A 0.6249508927471251 0.6249508927471251 0 0 1 110.4523659536566 40.930666751364704"/>
<path d="M 112.90885943596 41.391778712061154 A 0.6249508927471251 0.6249508927471251 0 0 1 111.6804791818913 41.16119910680627"/>
<path d="M 114.12683501020965 41.67337840173068 A 0.6249508927471251 0.6249508927471251 0 0 1 112.90352410419344 41.417262353488546"/>
<path d="M 115.38635789681605 41.99183435881075 A 0.6494787110757776 0.6494787110757776 0 0 1 114.12074093575049 41.69976174659238"/>
<path d="M 116.63844107860952 42.33849144482776 A 0.6494787110757776 0.6494787110757776 0 0 1 115.37944309889826 42.019090771647754"/>
<path d="M 117.88272687358852 42.71217083926816 A 0.6494787110757776 0.6494787110757776 0 0 1 116.63093788809395 42.365591788055696"/>
<path d="M 119.11863216356275 43.112697422193186 A 0.6494787110757776 0.6494787110757776 0 0 1 117.87463880674682 42.739102412667215"/>
<path d="M 120.34557775775546 43.53988349208188 A 0.6494787110757776 0.6494787110757776 0 0 1 119.10996301076118 43.139447604635315"/>
<path d="M 121.56298866423364 43.993528853795 A 0.6494787110757776 0.6494787110757776 0 0 1 120.33633158167859 43.56643974744554"/>
<path d="M 122.77029435937041 44.473420912393806 A 0.6494787110757776 0.6494787110757776 0 0 1 121.55316979798042 44.01987873684001"/>
<path d="M 123.18901717466035 44.66032699755599 A 0.2290881621357418 0.2290881621357418 0 0 1 122.7644433247106 44.48810757420997"/>
<path d="M 123.61092371688108 44.83901553833773 A 0.2290881621357418 0.2290881621357418 0 0 1 123.18767734096521 44.66355902203563"/>
<path d="M 124.03145346361504 45.020920615472036 A 0.2290881621357418 0.2290881621357418 0 0 1 123.60955924199152 44.84223723739932"/>
<path d="M 124.4505818930153 45.20603162174621 A 0.2290881621357418 0.2290881621357418 0 0 1 124.03006442709605 45.02413180125248"/>
<path d="M 124.86828456494824 45.39433776300409 A 0.2290881621357418 0.2290881621357418 0 0 1 124.44916837586409 45.20923210699549"/>
<path d="M 125.28453712241877 45.58582805877545 A 0.2290881621357418 0.2290881621357418 0 0 1 124.86684664958956 45.397527361096174"/>
<path d="M 125.69931529299058 45.780491342916214 A 0.2290881621357418 0.2290881621357418 0 0 1 125.28307489270007 45.58900658371908"/>
<path d="M 126.69457840212715 46.25416867311634 A 0.5511127573242793 0.5511127573242793 0 0 1 125.69432017251683 45.79126256065701"/>
<path d="M 127.67732492284425 46.7535861658229 A 0.5511127573242793 0.5511127573242793 0 0 1 126.68573852357632 46.272384536937196"/>
<path d="M 128.65073189483203 47.270971344281364 A 0.5511127573242793 0.5511127573242793 0 0 1 127.66815193084108 46.77163657759778"/>
<path d="M 129.61447084769554 47.80614961993959 A 0.5511127573242793 0.5511127573242793 0 0 1 128.64122888474813 47.288850213006164"/>
<path d="M 130.56821657345537 48.358940400070516 A 0.5511127573242793 0.5511127573242793 0 0 1 129.60464102626514 47.823850912496326"/>
<path d="M 131.51164723628722 48.929157148712214 A 0.5511127573242793 0.5511127573242793 0 0 1 130.55806325769325 48.37645814326327"/>
<path d="M 132.4444444811235 49.51660744961332 A 0.5511127573242793 0.5511127573242793 0 0 1 131.50117385236945 48.94648543128273"/>
<path d="M 134.19975712537826 50.65674160320897 A 1.0464865798649363 1.0464865798649363 0 0 1 132.41985480251628 49.5562180018303"/>
<path d="M 135.8996678618386 51.87937672829847 A 1.0464865798649363 1.0464865798649363 0 0 1 134.15922588088458 50.71745324241235"/>
<path d="M 137.55590860213456 53.16054797806166 A 1.0464865798649363 1.0464865798649363 0 0 1 135.85704411623112 51.93863802448205"/>
<path d="M 139.16646461935966 54.498696877256386 A 1.0464865798649363 1.0464865798649363 0 0 1 137.51124420488483 53.21828684307722"/>
<path d="M 140.72937675959164 55.89219564042453 A 1.0464865798649363 1.0464865798649363 0 0 1 139.119813902281 54.55484307491052"/>
<path d="M 142.24274382509725 57.33934915200476 A 1.0464865798649363 1.0464865798649363 0 0 1 140.68079647074785 55.946680871917295"/>
<path d="M 143.70472488703544 58.8383970283482 A 1.0464865798649363 1.0464865798649363 0 0 1 142.19229305977103 57.39210713901115"/>
<path d="M 144.58120483726714 59.822277259961425 A 0.658260836937385 0.658260836937385 0 0 1 143.66819025845138 58.8738970066751"/>
<path d="M 145.45194887678213 60.8100322452268 A 0.658260836937385 0.658260836937385 0 0 1 144.5599609397251 59.841849284160936"/>
<path d="M 146.30081259145317 61.81665307115008 A 0.658260836937385 0.658260836937385 0 0 1 145.43028069437216 60.829133480398575"/>
<path d="M 147.12738734283266 62.84165515585503 A 0.658260836937385 0.658260836937385 0 0 1 146.27873055512217 61.835274322061785"/>
<path d="M 147.93127522226075 63.8845450688258 A 0.658260836937385 0.658260836937385 0 0 1 147.10490208275473 62.85978745833614"/>
<path d="M 148.71208924241614 64.94482076844186 A 0.658260836937385 0.658260836937385 0 0 1 147.90839756271964 63.90217969408303"/>
<path d="M 149.46945352361004 66.021971843658 A 0.658260836937385 0.658260836937385 0 0 1 148.68883019659478 64.96194922726099"/>
<path d="M 150.23226110879995 67.15807691543652 A 0.6840994070744951 0.6840994070744951 0 0 1 149.44488249714905 66.03925628776395"/>
<path d="M 150.96800996879543 68.31192767276922 A 0.6840994070744951 0.6840994070744951 0 0 1 150.2063455468965 67.17544538808356"/>
<path d="M 151.67725936159817 69.48225380423462 A 0.6840994070744951 0.6840994070744951 0 0 1 150.9417051366991 68.3287007464067"/>
<path d="M 152.35964053176676 70.66844682974993 A 0.6840994070744951 0.6840994070744951 0 0 1 151.65057893580996 69.49842275814704"/>
<path d="M 153.01479869328065 71.869890019661 A 0.6840994070744951 0.6840994070744951 0 0 1 152.33259838406758 70.68400325731793"/>
<path d="M 153.64239321400177 73.08595871539437 A 0.6840994070744951 0.6840994070744951 0 0 1 152.9874088835191 71.88482583273188"/>
<path d="M 154.2420977927773 74.31602065423222 A 0.6840994070744951 0.6840994070744951 0 0 1 153.6146699827842 73.10026614848765"/>
<path d="M 155.0507736908023 76.06032686462595 A 0.9612015637314997 0.9612015637314997 0 0 1 154.20046057768604 74.33647849963765"/>
<path d="M 155.78935591814627 77.83598862969804 A 0.9612015637314997 0.9612015637314997 0 0 1 154.99469716411036 76.08578777252639"/>
<path d="M 156.4706814431029 79.63439735396787 A 0.9612015637314997 0.9612015637314997 0 0 1 155.7324926076574 77.85964023846336"/>
<path d="M 157.09405102023064 81.45370732777626 A 0.9612015637314997 0.9612015637314997 0 0 1 156.4130897077207 79.65621538991533"/>
<path d="M 157.65882488436696 83.29205139047937 A 0.9612015637314997 0.9612015637314997 0 0 1 157.0357899664423 81.47366939902189"/>
<path d="M 158.16442340722043 85.14754284671832 A 0.9612015637314997 0.9612015637314997 0 0 1 157.5999543055823 83.31013700991849"/>
<path d="M 158.61032769224386 87.01827740273764 A 0.9612015637314997 0.9612015637314997 0 0 1 158.1050037224055 85.1637334530516"/>
<path d="M 158.73736093202822 87.73421543173164 A 0.36298771829274695 0.36298771829274695 0 0 1 158.5760916044567 87.02639253755004"/>
<path d="M 158.88146705197514 88.44578526503466 A 0.36298771829274695 0.36298771829274695 0 0 1 158.7287735826931 87.73606296019874"/>
<path d="M 159.01695323516407 89.15904657454045 A 0.36298771829274695 0.36298771829274695 0 0 1 158.87285797769144 88.44752875865888"/>
<path d="M 159.14379964713112 89.87389494254876 A 0.36298771829274695 0.36298771829274695 0 0 1 159.0083236962549 89.16068577808353"/>
<path d="M 159.26198771822942 90.59022571902223 A 0.36298771829274695 0.36298771829274695 0 0 1 159.13515090691556 89.8754296160399"/>
<path d="M 159.37150014634767 91.30793403690677 A 0.36298771829274695 0.36298771829274695 0 0 1 159.25332104283754 90.59165563779332"/>
<path d="M 159.472320899443 92.0269148274835 A 0.36298771829274695 0.36298771829274695 0 0 1 159.3628168045351 91.30925899162526"/>
<path d="M 159.6626100664875 93.47936477470869 A 0.7324144467180365 0.7324144467180365 0 0 1 159.45028069272257 92.03011661084663"/>
<path d="M 159.8040020964907 94.93768265218577 A 0.7324144467180365 0.7324144467180365 0 0 1 159.62711239611403 93.48368332710973"/>
<path d="M 159.90975419718325 96.39901739519196 A 0.7324144467180365 0.7324144467180365 0 0 1 159.76840958682575 94.94113341333886"/>
<path d="M 159.97980334607064 97.86249812778047 A 0.7324144467180365 0.7324144467180365 0 0 1 159.87408805942482 96.40159830863121"/>
<path d="M 160.0141077976738 99.32725269511178 A 0.7324144467180365 0.7324144467180365 0 0 1 159.944084835295 97.86420765542208"/>
<path d="M 160.0126471084073 100.79240818321011 A 0.7324144467180365 0.7324144467180365 0 0 1 159.9783582001688 99.32808981817034"/>
<path d="M 159.9754221487624 102.2570914391727 A 0.7324144467180365 0.7324144467180365 0 0 1 159.9768877289867 100.79237240280581"/>
<path d="M 159.87433468293887 104.46757295067553 A 1.1062506264613796 1.1062506264613796 0 0 1 159.9167696453132 102.25585471283895"/>
<path d="M 159.6689550770362 106.6716536037793 A 1.1062506264613796 1.1062506264613796 0 0 1 159.7928906393218 104.46300282422821"/>
<path d="M 159.3824671573523 108.86666544424448 A 1.1062506264613796 1.1062506264613796 0 0 1 159.58773485330968 106.66408435320446"/>
<path d="M 159.01526034837195 111.04962478132465 A 1.1062506264613796 1.1062506264613796 0 0 1 159.30158115657918 108.85610735846286"/>
<path d="M 158.5678337961761 113.21756430730254 A 1.1062506264613796 1.1062506264613796 0 0 1 158.93481851930392 111.03609221199592"/>
<path d="M 158.04079568995033 115.36753713096638 A 1.1062506264613796 1.1062506264613796 0 0 1 158.48794548380013 113.20107564931693"/>
<path d="M 157.43486243526996 117.49662078333412 A 1.1062506264613796 1.1062506264613796 0 0 1 157.96156948685527 115.34811479744045"/>
<path d="M 156.96695290702712 118.89259324308077 A 0.7354935349726756 0.7354935349726756 0 0 1 157.3783234144301 117.48041330676142"/>
<path d="M 156.48672555313385 120.28333402685271 A 0.7354935349726756 0.7354935349726756 0 0 1 156.9325888895156 118.88166225636776"/>
<path d="M 155.97255159354393 121.66188521500406 A 0.7354935349726756 0.7354935349726756 0 0 1 156.45263981016558 120.27156396753465"/>
<path d="M 155.42474002936316 123.0274183450393 A 0.7354935349726756 0.7354935349726756 0 0 1 155.93876460949394 121.64928315648729"/>
<path d="M 154.8436200767568 124.37911277787413 A 0.7354935349726756 0.7354935349726756 0 0 1 155.39127210906278 123.01399186073343"/>
<path d="M 154.22954096910127 125.7161561910118 A 0.7354935349726756 0.7354935349726756 0 0 1 154.81049133329057 124.36486993664073"/>
<path d="M 153.58287174710708 127.03774506672148 A 0.7354935349726756 0.7354935349726756 0 0 1 154.19677131172006 125.70110555231535"/>
<path d="M 152.88390444612017 128.38291183917215 A 0.7577984455956389 0.7577984455956389 0 0 1 153.54948062778405 127.02141416117172"/>
<path d="M 152.15019891785187 129.709489843568 A 0.7577984455956389 0.7577984455956389 0 0 1 152.84994866865134 128.36523619672346"/>
<path d="M 151.38322348092058 131.0171142862511 A 0.7577984455956389 0.7577984455956389 0 0 1 152.1167003862536 129.69096225494326"/>
<path d="M 150.5834674374433 132.30495095092553 A 0.7577984455956389 0.7577984455956389 0 0 1 151.35020356602382 130.9977465713704"/>
<path d="M 149.75144100235818 133.57217824516994 A 0.7577984455956389 0.7577984455956389 0 0 1 150.55094720473915 132.28475546567861"/>
<path d="M 148.88767497792642 134.81798772458305 A 0.7577984455956389 0.7577984455956389 0 0 1 149.71944119855902 133.55116787353344"/>
<path d="M 147.9927204150995 136.04158460854183 A 0.7577984455956389 0.7577984455956389 0 0 1 148.85621601772993 134.79617587040133"/>
<path d="M 147.43758138921515 136.7489262792186 A 0.4493636427927341 0.4493636427927341 0 0 1 147.97185923495744 136.02628348044152"/>
<path d="M 146.88183653717246 137.45532156631015 A 0.4493636427927341 0.4493636427927341 0 0 1 147.4268781561315 136.7407622163063"/>
<path d="M 146.3155736743752 138.153313695502 A 0.4493636427927341 0.4493636427927341 0 0 1 146.87125678564152 137.44699810673958"/>
<path d="M 145.73891984275093 138.8427460712069 A 0.4493636427927341 0.4493636427927341 0 0 1 146.30511977798022 138.14483270665386"/>
<path d="M 145.15200441545676 139.52346401823135 A 0.4493636427927341 0.4493636427927341 0 0 1 145.72859414683936 138.83410945580388"/>
<path d="M 144.5549590678542 140.19531481647695 A 0.4493636427927341 0.4493636427927341 0 0 1 145.141809236614 139.51467371391112"/>
<path d="M 143.94791774796778 140.85814773520352 A 0.4493636427927341 0.4493636427927341 0 0 1 144.54489669338403 140.18637279535753"/>
<path d="M 143.446301853702 141.38781098416382 A 0.3647063283869202 0.3647063283869202 0 0 1 143.9396887048886 140.85060284753934"/>
<path d="M 142.93996355141644 141.91290461214643 A 0.3647063283869202 0.3647063283869202 0 0 1 143.43984447749256 141.38173399292447"/>
<path d="M 142.42727940040905 142.43180417450438 A 0.3647063283869202 0.3647063283869202 0 0 1 142.93358052686543 141.90674957131688"/>
<path d="M 141.90832516730367 142.94443298607405 A 0.3647063283869202 0.3647063283869202 0 0 1 142.4209716708267 142.42557199370233"/>
<path d="M 141.38317754534313 143.45071528841004 A 0.3647063283869202 0.3647063283869202 0 0 1 141.90209366487278 142.93812458631757"/>
<path d="M 140.8519141430556 143.95057626098065 A 0.3647063283869202 0.3647063283869202 0 0 1 141.3770231909815 143.44433160198096"/>
<path d="M 140.31461347278483 144.4439420322255 A 0.3647063283869202 0.3647063283869202 0 0 1 140.84583784627955 143.94411823128712"/>
<path d="M 139.86579912389928 144.84507048123768 A 0.3009510982963023 0.3009510982963023 0 0 1 140.30957525621795 144.43845040770358"/>
<path d="M 139.41393210307794 145.24272585099428 A 0.3009510982963023 0.3009510982963023 0 0 1 139.8617648955388 144.84057795554622"/>
<path d="M 138.9580987582035 145.63582833038453 A 0.3009510982963023 0.3009510982963023 0 0 1 139.4099431442557 145.23819308218623"/>
<path d="M 138.49834496094275 146.02433836050787 A 0.3009510982963023 0.3009510982963023 0 0 1 138.95415547033855 145.63125577460391"/>
<path d="M 138.03471697748748 146.4082168446137 A 0.3009510982963023 0.3009510982963023 0 0 1 138.4944477408581 146.01972647790265"/>
<path d="M 137.5672614638988 146.78742515203552 A 0.3009510982963023 0.3009510982963023 0 0 1 138.03086621737032 146.4035660992893"/>
<path d="M 137.09602546141184 147.16192512207857 A 0.3009510982963023 0.3009510982963023 0 0 1 137.56345755126088 146.7827360120082"/>
<path d="M 135.37940969797273 148.50831717845838 A 1.090810027333885 1.090810027333885 0 0 1 137.0690680549318 147.12884331934453"/>
<path d="M 133.59283447065778 149.76224410423947 A 1.090810027333885 1.090810027333885 0 0 1 135.3315178279351 148.44509807044253"/>
<path d="M 131.7618617076541 150.95040340298382 A 1.090810027333885 1.090810027333885 0 0 1 133.54727215685276 149.69732598354304"/>
<path d="M 129.88891129045933 152.07122475930427 A 1.090810027333885 1.090810027333885 0 0 1 131.71868916692503 150.8838720678024"/>
<path d="M 127.97645857979546 153.12322685413525 A 1.090810027333885 1.090810027333885 0 0 1 129.8481855812369 152.00316813991748"/>
<path d="M 126.02703114408051 154.105019322499 A 1.090810027333885 1.090810027333885 0 0 1 127.93823352668726 153.05373489669483"/>
<path d="M 124.04320541889989 155.01530459106368 A 1.090810027333885 1.090810027333885 0 0 1 125.991357266734 154.03418387015282"/>
<path d="M 123.54135873987785 155.19134836246624 A 0.2648137962465846 0.2648137962465846 0 0 1 124.02572214998766 154.97712415826132"/>
<path d="M 123.0532700819128 155.39699670484956 A 0.2648137962465846 0.2648137962465846 0 0 1 123.53950556936061 155.18705630028956"/>
<path d="M 122.56338519048204 155.59832869909548 A 0.2648137962465846 0.2648137962465846 0 0 1 123.0514548694299 155.39268845203242"/>
<path d="M 122.07174223577293 155.79532865809043 A 0.2648137962465846 0.2648137962465846 0 0 1 122.56160807746883 155.59400459132246"/>
<path d="M 121.57837952495507 155.98798123225848 A 0.2648137962465846 0.2648137962465846 0 0 1 122.07000336069603 155.7909890322815"/>
<path d="M 121.08333549919578 156.17627141075744 A 0.2648137962465846 0.2648137962465846 0 0 1 121.57667902330184 155.98362642654277"/>
<path d="M 120.58664873066472 156.36018452264818 A 0.2648137962465846 0.2648137962465846 0 0 1 121.08167350346352 156.17190176444672"/>
<path d="M 120.04428015113756 156.5558064878556 A 0.2882768933915819 0.2882768933915819 0 0 1 120.5848741509862 156.35539510344836"/>
<path d="M 119.49990956032127 156.74580109055069 A 0.2882768933915819 0.2882768933915819 0 0 1 120.0424043568402 156.55059353070152"/>
<path d="M 118.95373844212921 156.9305560603127 A 0.2882768933915819 0.2882768933915819 0 0 1 119.49808394397162 156.74057034954396"/>
<path d="M 118.40581722736196 157.11005433776086 A 0.2882768933915819 0.2882768933915819 0 0 1 118.95196317229588 156.92530801843455"/>
<path d="M 117.85619650841548 157.28427934889208 A 0.2882768933915819 0.2882768933915819 0 0 1 118.4040924679647 157.10478947959018"/>
<path d="M 117.30492703460988 157.4532150066111 A 0.2882768933915819 0.2882768933915819 0 0 1 117.85452241871032 157.27899816056038"/>
<path d="M 116.75205970750312 157.61684571221602 A 0.2882768933915819 0.2882768933915819 0 0 1 117.30330376917405 157.4479179757578"/>
<path d="M 116.38844717021142 157.71968096572235 A 0.18892553796535835 0.18892553796535835 0 0 1 116.75093780074704 157.61304812445667"/>
<path d="M 116.02463507885375 157.82174194907267 A 0.18892553796535835 0.18892553796535835 0 0 1 116.3877900370734 157.71739399086078"/>
<path d="M 115.66018747708729 157.92150981818466 A 0.18892553796535835 0.18892553796535835 0 0 1 116.02399236086856 157.81945088129325"/>
<path d="M 115.29511881829846 158.0189806164303 A 0.18892553796535835 0.18892553796535835 0 0 1 115.65955919974397 157.9192147483473"/>
<path d="M 114.929443580504 158.1141504782796 A 0.18892553796535835 0.18892553796535835 0 0 1 115.29450500651359 158.01668163555362"/>
<path d="M 114.5631762657763 158.20701562945408 A 0.18892553796535835 0.18892553796535835 0 0 1 114.92884425862023 158.1118476775375"/>
<path d="M 114.1963313996687 158.29757238707597 A 0.18892553796535835 0.18892553796535835 0 0 1 114.56259145756177 158.20470910017167"/>
<path d="M 112.47960161322163 158.7143971523865 A 0.883301957557464 0.883301957557464 0 0 1 114.18952230192622 158.27124436570782"/>
<path d="M 110.74581660674295 159.05631477536627 A 0.883301957557464 0.883301957557464 0 0 1 112.46804137608302 158.66368900204947"/>
<path d="M 109.00271792295128 159.34704676218246 A 0.883301957557464 0.883301957557464 0 0 1 110.73575407615475 159.00528830114487"/>
<path d="M 107.25181635058047 159.58634112789903 A 0.883301957557464 0.883301957557464 0 0 1 108.99416182036913 159.29574619004225"/>
<path d="M 105.49462944132978 159.77399046989729 A 0.883301957557464 0.883301957557464 0 0 1 107.24477409179984 159.53481092137343"/>
<path d="M 103.73268019456263 159.90983214763685 A 0.883301957557464 0.883301957557464 0 0 1 105.4891071300586 159.72227529154964"/>
<path d="M 101.96749573728361 159.9937484236205 A 0.883301957557464 0.883301957557464 0 0 1 103.72868261713099 159.85797682035036"/>
<path d="M 100.76707923359513 160.0070926849347 A 0.5999131289105974 0.5999131289105974 0 0 1 101.96574807736873 159.95578820474162"/>
<path d="M 99.56707773659204 160.0104337708269 A 0.5999131289105974 0.5999131289105974 0 0 1 100.76653277845591 159.98310705736296"/>
<path d="M 98.36724934104824 159.98978003239094 A 0.5999131289105974 0.5999131289105974 0 0 1 99.56701098585182 159.9864420120842"/>
<path d="M 97.16807379139756 159.94513972790443 A 0.5999131289105974 0.5999131289105974 0 0 1 98.36766232139692 159.96579173544302"/>
<path d="M 95.97003057103727 159.87653070653462 A 0.5999131289105974 0.5999131289105974 0 0 1 97.16896633770739 159.9211644843329"/>
<path d="M 94.77359871060916 159.78398040120123 A 0.5999131289105974 0.5999131289105974 0 0 1 95.97140232642866 159.85257810270173"/>
<path d="M 93.57925659646236 159.66752581760773 A 0.5999131289105974 0.5999131289105974 0 0 1 94.77544912659381 159.76006001441684"/>
<path d="M 91.39710729398826 159.42063863094148 A 1.0979592683796944 1.0979592683796944 0 0 1 93.58398784150118 159.61556808552086"/>
<path d="M 89.22888027838403 159.06610735576453 A 1.0979592683796944 1.0979592683796944 0 0 1 91.40716493080144 159.3409163701651"/>
<path d="M 87.07507592379787 158.63248584056873 A 1.0979592683796944 1.0979592683796944 0 0 1 89.24184793133378 158.98680644215983"/>
<path d="M 84.93857820059777 158.1203547098654 A 1.0979592683796944 1.0979592683796944 0 0 1 87.09093622903848 158.55371245902882"/>
<path d="M 82.82224790536048 157.53039971350094 A 1.0979592683796944 1.0979592683796944 0 0 1 84.95730992098653 158.04221433891135"/>
<path d="M 80.72891883023011 156.86341080842956 A 1.0979592683796944 1.0979592683796944 0 0 1 82.8438259588947 157.452996984045"/>
<path d="M 78.66139396843579 156.12028110095116 A 1.0979592683796944 1.0979592683796944 0 0 1 80.75331432363222 156.7868493636729"/>
<path d="M 76.59100148718686 155.29005067964846 A 1.1147775036954009 1.1147775036954009 0 0 1 78.68898277003521 156.0434925736563"/>
<path d="M 74.55332976205912 154.3823306721262 A 1.1147775036954009 1.1147775036954009 0 0 1 76.62187541373635 155.21318507438653"/>
<path d="M 72.55078292514939 153.3995449185544 A 1.1147775036954009 1.1147775036954009 0 0 1 74.58703766305429 154.30666497300587"/>
<path d="M 70.58612515869191 152.34304999090946 A 1.1147775036954009 1.1147775036954009 0 0 1 72.58727827244928 153.32518356946554"/>
<path d="M 68.66206834537275 151.2143042044007 A 1.1147775036954009 1.1147775036954009 0 0 1 70.62535757655073 152.27009563530393"/>
<path d="M 66.78126832502721 150.01486560450945 A 1.1147775036954009 1.1147775036954009 0 0 1 68.70398367997478 151.14285754361052"/>
<path d="M 64.94632122869537 148.7463898163666 A 1.1147775036954009 1.1147775036954009 0 0 1 66.82580871923702 149.94502525874498"/>
<path d="M 64.92152711653209 148.67755423434133 A 0.029774458154024325 0.029774458154024325 0 0 1 64.96989045609288 148.71229700260685"/>
<path d="M 64.87323281154416 148.64271551796278 A 0.029774458154024325 0.029774458154024325 0 0 1 64.92156164572401 148.67750626884632"/>
<path d="M 64.82497310712982 148.60782888752894 A 0.029774458154024325 0.029774458154024325 0 0 1 64.87326738832387 148.6426675867609"/>
<path d="M 64.77674805082604 148.572894377404 A 0.029774458154024325 0.029774458154024325 0 0 1 64.82500773146343 148.60778099066758"/>
<path d="M 64.72855769013536 148.5379120219991 A 0.029774458154024325 0.029774458154024325 0 0 1 64.77678272267933 148.57284651493026"/>
<path d="M 64.68040207252619 148.50288185577244 A 0.029774458154024325 0.029774458154024325 0 0 1 64.72859240947412 148.53786419396002"/>
<path d="M 64.63228124543296 148.46780391322966 A 0.029774458154024325 0.029774458154024325 0 0 1 64.6804368393164 148.50283406221533"/>
<path d="M 64.40458530585373 148.30161402337407 A 0.14094725188015345 0.14094725188015345 0 0 1 64.63268773782507 148.46724419353328"/>
<path d="M 64.1780467546324 148.13384599424762 A 0.14094725188015345 0.14094725188015345 0 0 1 64.40536850282807 148.30054601085075"/>
<path d="M 63.95229891404949 147.9650154897214 A 0.14094725188015345 0.14094725188015345 0 0 1 64.17883496071616 148.13278167314002"/>
<path d="M 63.72734676711681 147.79512623645073 A 0.14094725188015345 0.14094725188015345 0 0 1 63.95309211184423 147.96395488352255"/>
<path d="M 63.50319527928279 147.62418198446125 A 0.14094725188015345 0.14094725188015345 0 0 1 63.72814493911415 147.79406936857188"/>
<path d="M 63.27984939832231 147.45218650706582 A 0.14094725188015345 0.14094725188015345 0 0 1 63.50399840786426 147.623128878231"/>
<path d="M 63.05731405422814 147.27914360078154 A 0.14094725188015345 0.14094725188015345 0 0 1 63.280657465760335 147.45113718572983"/>
<path d="M 62.14182424357525 146.56296339391443 A 0.5811694304076797 0.5811694304076797 0 0 1 63.06456594586166 147.26968302298272"/>
<path d="M 61.24697966790396 145.8208953073542 A 0.5811694304076797 0.5811694304076797 0 0 1 62.155858729715526 146.5453563030257"/>
<path d="M 60.366677215679054 145.06163286767568 A 0.5811694304076797 0.5811694304076797 0 0 1 61.26135257891498 145.8035633749791"/>
<path d="M 59.501247221589985 144.2854609891394 A 0.5811694304076797 0.5811694304076797 0 0 1 60.38138315810662 145.04458259764547"/>
<path d="M 58.65101443941578 143.49267093129555 A 0.5811694304076797 0.5811694304076797 0 0 1 59.516280677009085 144.26869877959095"/>
<path d="M 57.81629792016144 142.6835601896888 A 0.5811694304076797 0.5811694304076797 0 0 1 58.66636976650206 143.47620307227078"/>
<path d="M 56.997410892332894 141.85843238422234 A 0.5811694304076797 0.5811694304076797 0 0 1 57.83196935680739 142.66739286077407"/>
</svg>