<svg viewBox="30 30 140 140" xmlns="http://www.w3.org/2000/svg">
  <defs>
    <style>
      line, path.round {
        stroke: currentColor;
        stroke-width: 1.5;
        stroke-linecap: round;
        fill: none;
      }
    </style>
  </defs>

  <line x1="100" y1="100" x2="58.4533819257202"   y2="63.96004263889971" />
<line x1="100" y1="100" x2="63.297993812195564"   y2="59.03705648039481" />
<line x1="100" y1="100" x2="68.72141826096838"   y2="54.76008041127043" />
<line x1="100" y1="100" x2="74.63812462868471"   y2="51.19656489907835" />
<line x1="100" y1="100" x2="80.9548029214567"   y2="48.40270871218678" />
<line x1="100" y1="100" x2="87.5718353492066"   y2="46.42257263163181" />
<line x1="100" y1="100" x2="94.3848673577252"   y2="45.287384586279735" />
<line x1="100" y1="100" x2="101.28645336233012"   y2="45.01504716973425" />
<line x1="100" y1="100" x2="108.16775122892112"   y2="45.609855305740744" />
<line x1="100" y1="100" x2="114.9202387794539"   y2="47.06242851467324" />
<line x1="100" y1="100" x2="121.4374252515161"   y2="49.34985884930172" />
<line x1="100" y1="100" x2="127.61653072126481"   y2="52.436072166804415" />
<line x1="100" y1="100" x2="133.36010700422335"   y2="56.27239703954986" />
<line x1="100" y1="100" x2="138.57757447136333"   y2="60.79833233258544" />
<line x1="100" y1="100" x2="143.18665054396394"   y2="65.94250134267728" />
<line x1="100" y1="100" x2="147.11464733903173"   y2="71.62377745155865" />
<line x1="100" y1="100" x2="150.29961800063688"   y2="77.75256354116266" />
<line x1="100" y1="100" x2="152.69133363883668"   y2="84.2322049936969" />
<line x1="100" y1="100" x2="154.252075469275"   y2="90.96051399270469" />
<line x1="100" y1="100" x2="154.95722966094388"   y2="97.83138108597467" />
<line x1="100" y1="100" x2="154.795675511002"   y2="104.73644859498904" />
<line x1="100" y1="100" x2="153.76996082490174"   y2="111.56681948024318" />
<line x1="100" y1="100" x2="151.8962617359751"   y2="118.21477471261085" />
<line x1="100" y1="100" x2="149.20412759814803"   y2="124.57547206678166" />
<line x1="100" y1="100" x2="145.73601497497714"   y2="130.54859954578387" />
<line x1="100" y1="100" x2="141.54661807427976"   y2="136.03995736110033" />
<line x1="100" y1="100" x2="136.70200618780444"   y2="140.96294351960518" />
<line x1="100" y1="100" x2="131.27858173903164"   y2="145.23991958872958" />
<line x1="100" y1="100" x2="125.36187537131525"   y2="148.80343510092166" />
<line x1="100" y1="100" x2="119.04519707854331"   y2="151.59729128781322" />
<line x1="100" y1="100" x2="112.42816465079336"   y2="153.5774273683682" />
<line x1="100" y1="100" x2="105.61513264227482"   y2="154.71261541372027" />
<line x1="100" y1="100" x2="98.71354663766988"   y2="154.98495283026574" />
<line x1="100" y1="100" x2="91.8322487710789"   y2="154.39014469425925" />
<line x1="100" y1="100" x2="85.07976122054612"   y2="152.93757148532677" />
<line x1="100" y1="100" x2="78.56257474848394"   y2="150.65014115069832" />
<line x1="100" y1="100" x2="72.3834692787352"   y2="147.56392783319558" />
<line x1="100" y1="100" x2="66.63989299577662"   y2="143.72760296045013" />
<line x1="100" y1="100" x2="61.42242552863667"   y2="139.20166766741457" />
<line x1="100" y1="100" x2="56.813349456036065"   y2="134.05749865732272" />
<line x1="100" y1="100" x2="52.8853526609683"   y2="128.37622254844138" />
<line x1="100" y1="100" x2="49.7003819993631"   y2="122.24743645883734" />
<line x1="100" y1="100" x2="47.3086663611633"   y2="115.76779500630307" />
<line x1="100" y1="100" x2="45.74792453072499"   y2="109.03948600729532" />
<line x1="100" y1="100" x2="45.042770339056105"   y2="102.16861891402533" />
<line x1="100" y1="100" x2="45.20432448899798"   y2="95.26355140501093" />
<line x1="100" y1="100" x2="46.23003917509826"   y2="88.43318051975683" />
<line x1="100" y1="100" x2="48.103738264024926"   y2="81.78522528738911" />
<line x1="100" y1="100" x2="50.79587240185195"   y2="75.42452793321834" />
<line x1="100" y1="100" x2="54.26398502502285"   y2="69.45140045421614" />
  <path class="round" d="M 58.45338192572021 63.960042638899715 A 3.460306698950737 3.460306698950737 0 1 1 63.297993812195564 59.03705648039482"/>
<path class="round" d="M 63.29799381219556 59.03705648039482 A 3.460306698950737 3.460306698950737 0 1 1 68.72141826096836 54.760080411270444"/>
<path class="round" d="M 68.72141826096835 54.76008041127045 A 3.460306698950737 3.460306698950737 0 1 1 74.63812462868472 51.19656489907835"/>
<path class="round" d="M 74.63812462868474 51.196564899078346 A 3.460306698950737 3.460306698950737 0 1 1 80.95480292145672 48.40270871218678"/>
<path class="round" d="M 80.95480292145673 48.40270871218677 A 3.460306698950737 3.460306698950737 0 1 1 87.57183534920661 46.4225726316318"/>
<path class="round" d="M 87.57183534920662 46.4225726316318 A 3.460306698950737 3.460306698950737 0 1 1 94.38486735772521 45.287384586279735"/>
<path class="round" d="M 94.38486735772517 45.28738458627974 A 3.460306698950737 3.460306698950737 0 1 1 101.28645336233009 45.01504716973425"/>
<path class="round" d="M 101.28645336233009 45.01504716973425 A 3.460306698950737 3.460306698950737 0 1 1 108.16775122892108 45.60985530574075"/>
<path class="round" d="M 108.16775122892109 45.609855305740744 A 3.460306698950737 3.460306698950737 0 1 1 114.92023877945391 47.06242851467325"/>
<path class="round" d="M 114.92023877945391 47.06242851467326 A 3.460306698950737 3.460306698950737 0 1 1 121.43742525151613 49.349858849301725"/>
<path class="round" d="M 121.43742525151613 49.34985884930173 A 3.460306698950737 3.460306698950737 0 1 1 127.61653072126481 52.43607216680442"/>
<path class="round" d="M 127.6165307212648 52.43607216680441 A 3.460306698950737 3.460306698950737 0 1 1 133.36010700422332 56.272397039549844"/>
<path class="round" d="M 133.36010700422335 56.272397039549844 A 3.460306698950737 3.460306698950737 0 1 1 138.57757447136333 60.798332332585424"/>
<path class="round" d="M 138.57757447136333 60.798332332585424 A 3.460306698950737 3.460306698950737 0 1 1 143.18665054396396 65.94250134267729"/>
<path class="round" d="M 143.18665054396394 65.94250134267729 A 3.460306698950737 3.460306698950737 0 1 1 147.11464733903173 71.62377745155867"/>
<path class="round" d="M 147.11464733903173 71.6237774515587 A 3.460306698950737 3.460306698950737 0 1 1 150.2996180006369 77.75256354116269"/>
<path class="round" d="M 150.29961800063688 77.75256354116264 A 3.460306698950737 3.460306698950737 0 1 1 152.69133363883668 84.23220499369685"/>
<path class="round" d="M 152.69133363883668 84.23220499369688 A 3.460306698950737 3.460306698950737 0 1 1 154.252075469275 90.96051399270466"/>
<path class="round" d="M 154.252075469275 90.96051399270466 A 3.460306698950737 3.460306698950737 0 1 1 154.9572296609439 97.83138108597468"/>
<path class="round" d="M 154.95722966094388 97.83138108597471 A 3.460306698950737 3.460306698950737 0 1 1 154.79567551100203 104.73644859498906"/>
<path class="round" d="M 154.79567551100203 104.73644859498907 A 3.460306698950737 3.460306698950737 0 1 1 153.76996082490174 111.5668194802432"/>
<path class="round" d="M 153.76996082490172 111.56681948024315 A 3.460306698950737 3.460306698950737 0 1 1 151.8962617359751 118.21477471261082"/>
<path class="round" d="M 151.8962617359751 118.21477471261088 A 3.460306698950737 3.460306698950737 0 1 1 149.20412759814806 124.57547206678167"/>
<path class="round" d="M 149.20412759814806 124.57547206678164 A 3.460306698950737 3.460306698950737 0 1 1 145.73601497497714 130.54859954578387"/>
<path class="round" d="M 145.7360149749771 130.5485995457839 A 3.460306698950737 3.460306698950737 0 1 1 141.5466180742798 136.0399573611003"/>
<path class="round" d="M 141.54661807427976 136.0399573611003 A 3.460306698950737 3.460306698950737 0 1 1 136.70200618780441 140.9629435196052"/>
<path class="round" d="M 136.70200618780444 140.96294351960518 A 3.460306698950737 3.460306698950737 0 1 1 131.27858173903164 145.23991958872955"/>
<path class="round" d="M 131.2785817390316 145.23991958872958 A 3.460306698950737 3.460306698950737 0 1 1 125.36187537131524 148.80343510092166"/>
<path class="round" d="M 125.36187537131526 148.80343510092166 A 3.460306698950737 3.460306698950737 0 1 1 119.04519707854328 151.59729128781322"/>
<path class="round" d="M 119.04519707854327 151.59729128781322 A 3.460306698950737 3.460306698950737 0 1 1 112.42816465079339 153.5774273683682"/>
<path class="round" d="M 112.42816465079338 153.5774273683682 A 3.460306698950737 3.460306698950737 0 1 1 105.61513264227479 154.71261541372024"/>
<path class="round" d="M 105.61513264227483 154.71261541372027 A 3.460306698950737 3.460306698950737 0 1 1 98.71354663766991 154.98495283026574"/>
<path class="round" d="M 98.71354663766991 154.98495283026574 A 3.460306698950737 3.460306698950737 0 1 1 91.83224877107892 154.39014469425925"/>
<path class="round" d="M 91.83224877107891 154.39014469425928 A 3.460306698950737 3.460306698950737 0 1 1 85.07976122054609 152.93757148532677"/>
<path class="round" d="M 85.07976122054615 152.93757148532674 A 3.460306698950737 3.460306698950737 0 1 1 78.56257474848393 150.6501411506983"/>
<path class="round" d="M 78.56257474848388 150.65014115069826 A 3.460306698950737 3.460306698950737 0 1 1 72.38346927873519 147.56392783319558"/>
<path class="round" d="M 72.38346927873515 147.56392783319552 A 3.460306698950737 3.460306698950737 0 1 1 66.6398929957766 143.7276029604501"/>
<path class="round" d="M 66.63989299577663 143.72760296045013 A 3.460306698950737 3.460306698950737 0 1 1 61.42242552863666 139.20166766741454"/>
<path class="round" d="M 61.42242552863668 139.20166766741457 A 3.460306698950737 3.460306698950737 0 1 1 56.81334945603605 134.0574986573227"/>
<path class="round" d="M 56.81334945603608 134.05749865732275 A 3.460306698950737 3.460306698950737 0 1 1 52.885352660968294 128.37622254844138"/>
<path class="round" d="M 52.885352660968266 128.37622254844132 A 3.460306698950737 3.460306698950737 0 1 1 49.70038199936309 122.24743645883733"/>
<path class="round" d="M 49.70038199936308 122.24743645883727 A 3.460306698950737 3.460306698950737 0 1 1 47.3086663611633 115.76779500630306"/>
<path class="round" d="M 47.308666361163304 115.76779500630309 A 3.460306698950737 3.460306698950737 0 1 1 45.74792453072498 109.03948600729531"/>
<path class="round" d="M 45.74792453072499 109.03948600729534 A 3.460306698950737 3.460306698950737 0 1 1 45.042770339056105 102.16861891402532"/>
<path class="round" d="M 45.042770339056105 102.16861891402534 A 3.460306698950737 3.460306698950737 0 1 1 45.204324488997976 95.263551405011"/>
<path class="round" d="M 45.20432448899798 95.26355140501094 A 3.460306698950737 3.460306698950737 0 1 1 46.23003917509828 88.43318051975682"/>
<path class="round" d="M 46.230039175098284 88.43318051975675 A 3.460306698950737 3.460306698950737 0 1 1 48.103738264024926 81.78522528738908"/>
<path class="round" d="M 48.10373826402492 81.78522528738912 A 3.460306698950737 3.460306698950737 0 1 1 50.79587240185196 75.42452793321833"/>
<path class="round" d="M 50.79587240185194 75.42452793321836 A 3.460306698950737 3.460306698950737 0 1 1 54.263985025022855 69.45140045421613"/>
<path class="round" d="M 54.26398502502284 69.45140045421616 A 3.460306698950737 3.460306698950737 0 1 1 58.45338192572017 63.96004263889974"/>
</svg>