<svg viewBox="0 0 200 200" xmlns="http://www.w3.org/2000/svg">
  <defs>
    <style>
      line {
        stroke: currentColor;
        stroke-width: 1.5;
        stroke-linecap: round;
      }
    </style>
  </defs>

  <line x1="100" y1="100" x2="198.11612047416858"   y2="119.31908132128538" />
<line x1="100" y1="100" x2="184.5117004733481"   y2="153.45813766961112" />
<line x1="100" y1="100" x2="159.49350702810352"   y2="180.3773763038891" />
<line x1="100" y1="100" x2="126.44038579381072"   y2="196.44120488190953" />
<line x1="100" y1="100" x2="89.81634394682834"   y2="199.48011434146375" />
<line x1="100" y1="100" x2="54.567661279413024"   y2="189.08368312086031" />
<line x1="100" y1="100" x2="25.454867705492504"   y2="166.65600686505587" />
<line x1="100" y1="100" x2="6.40980731678286"   y2="135.22606752844106" />
<line x1="100" y1="100" x2="0.004621051102077445"   y2="99.03865257773177" />
<line x1="100" y1="100" x2="7.10436480599266"   y2="62.981072923409776" />
<line x1="100" y1="100" x2="26.75017884631842"   y2="31.92310449973749" />
<line x1="100" y1="100" x2="56.28878712471966"   y2="10.05929804047598" />
<line x1="100" y1="100" x2="91.73083691411962"   y2="0.3424817594823253" />
<line x1="100" y1="100" x2="128.28968299928218"   y2="4.084965538242528" />
<line x1="100" y1="100" x2="161.02785063684655"   y2="20.7813062046164" />
<line x1="100" y1="100" x2="185.52386887891058"   y2="48.17657043399277" />
<line x1="100" y1="100" x2="198.46941472476055"   y2="82.57087598979496" />
</svg>