<svg viewBox="0 0 22 22" xmlns="http://www.w3.org/2000/svg" style="background-color: #c1f1c9;">

    <defs>
      <style>
        #green_octagon path {
          stroke: #166023;
          stroke-width: 0.26527892323417934;
          stroke-linecap: round;
          fill: none;
        }
      </style>
    </defs>

<svg id="green_octagon">
<path d="M 11,11 L 11.0,10.0"/>
<path d="M 11.707106781186548 10.292893218813452 L 12.414213562373096 9.585786437626904"/>
<path d="M 11,11 L 11.707106781186548,11.707106781186548"/>
<path d="M 11,11 L 10.292893218813452,10.292893218813452"/>
<path d="M 11,11 L 10.0,11.0"/>
<path d="M 10.292893218813452 10.292893218813452 L 9.585786437626904 9.585786437626904"/>
<path d="M 11.0 9.0 L 9.585786437626904 9.585786437626904"/>
<path d="M 12.0 11.0 L 11.707106781186548 11.707106781186548"/>
<path d="M 12.414213562373096 9.585786437626904 L 13.0 11.0"/>
<path d="M 11.0 12.0 L 11.0 13.0"/>
<path d="M 10.292893218813452 11.707106781186548 L 10.0 11.0"/>
<path d="M 10.0 11.0 L 9.0 11.0"/>
<path d="M 13.0 11.0 L 12.414213562373096 12.414213562373096"/>
<path d="M 13.0 11.0 L 14.0 11.0"/>
<path d="M 11.0 13.0 L 9.585786437626904 12.414213562373096"/>
<path d="M 9.585786437626904 12.414213562373096 L 9.0 11.0"/>
<path d="M 9.585786437626904 9.585786437626904 L 8.878679656440358 8.878679656440358"/>
<path d="M 11.0 8.0 L 8.878679656440358 8.878679656440358"/>
<path d="M 11.0 8.0 L 11.0 7.0"/>
<path d="M 13.121320343559642 8.878679656440358 L 13.82842712474619 8.17157287525381"/>
<path d="M 14.0 11.0 L 15.0 11.0"/>
<path d="M 14.0 11.0 L 13.121320343559642 13.121320343559642"/>
<path d="M 11.0 14.0 L 8.878679656440358 13.121320343559642"/>
<path d="M 8.878679656440358 13.121320343559642 L 8.0 11.0"/>
<path d="M 8.878679656440358 13.121320343559642 L 8.17157287525381 13.82842712474619"/>
<path d="M 11.0 7.0 L 8.17157287525381 8.17157287525381"/>
<path d="M 13.82842712474619 8.17157287525381 L 14.535533905932738 7.464466094067262"/>
<path d="M 15.0 11.0 L 13.82842712474619 13.82842712474619"/>
<path d="M 15.0 11.0 L 16.0 11.0"/>
<path d="M 13.82842712474619 13.82842712474619 L 14.535533905932738 14.535533905932738"/>
<path d="M 11.0 15.0 L 11.0 16.0"/>
<path d="M 11.0 15.0 L 8.17157287525381 13.82842712474619"/>
<path d="M 8.17157287525381 13.82842712474619 L 7.0 11.0"/>
<path d="M 8.17157287525381 13.82842712474619 L 7.464466094067262 14.535533905932738"/>
<path d="M 7.0 11.0 L 6.0 11.0"/>
<path d="M 8.17157287525381 8.17157287525381 L 7.464466094067262 7.464466094067262"/>
<path d="M 11.0 6.0 L 14.535533905932738 7.464466094067262"/>
<path d="M 14.535533905932738 7.464466094067262 L 15.242640687119286 6.757359312880715"/>
<path d="M 14.535533905932738 7.464466094067262 L 16.0 11.0"/>
<path d="M 14.535533905932738 14.535533905932738 L 15.242640687119284 15.242640687119286"/>
<path d="M 7.464466094067262 14.535533905932738 L 6.757359312880715 15.242640687119286"/>
<path d="M 6.0 11.0 L 7.464466094067262 7.464466094067262"/>
<path d="M 7.464466094067262 7.464466094067262 L 6.757359312880714 6.757359312880715"/>
<path d="M 11.0 5.0 L 15.242640687119286 6.757359312880715"/>
<path d="M 15.242640687119286 6.757359312880715 L 15.949747468305834 6.050252531694168"/>
<path d="M 17.0 11.0 L 15.242640687119284 15.242640687119286"/>
<path d="M 15.242640687119284 15.242640687119286 L 15.949747468305832 15.949747468305834"/>
<path d="M 11.0 17.0 L 11.0 18.0"/>
<path d="M 11.0 17.0 L 6.757359312880715 15.242640687119286"/>
<path d="M 6.757359312880715 15.242640687119286 L 5.0 11.0"/>
<path d="M 6.757359312880714 6.757359312880715 L 6.050252531694167 6.050252531694168"/>
<path d="M 11.0 4.0 L 11.000000000000002 3.0"/>
<path d="M 11.0 4.0 L 6.050252531694167 6.050252531694168"/>
<path d="M 18.0 11.0 L 15.949747468305832 15.949747468305834"/>
<path d="M 18.0 11.0 L 19.0 11.0"/>
<path d="M 15.949747468305832 15.949747468305834 L 11.0 18.0"/>
<path d="M 11.0 18.0 L 6.050252531694168 15.949747468305834"/>
<path d="M 6.050252531694168 15.949747468305834 L 4.0 11.0"/>
<path d="M 4.0 11.0 L 3.0 11.0"/>
<path d="M 11.000000000000002 3.0 L 16.65685424949238 5.34314575050762"/>
<path d="M 11.000000000000002 3.0 L 11.000000000000002 2.0"/>
<path d="M 19.0 11.0 L 16.65685424949238 16.65685424949238"/>
<path d="M 19.0 11.0 L 20.0 11.0"/>
<path d="M 11.0 19.0 L 11.0 20.0"/>
<path d="M 5.34314575050762 16.65685424949238 L 3.0 11.0"/>
<path d="M 3.0 11.0 L 5.343145750507619 5.34314575050762"/>
<path d="M 5.343145750507619 5.34314575050762 L 4.6360389693210715 4.636038969321072"/>
<path d="M 17.36396103067893 4.636038969321072 L 20.0 11.0"/>
<path d="M 17.36396103067893 17.36396103067893 L 11.0 20.0"/>
<path d="M 17.36396103067893 17.36396103067893 L 18.071067811865476 18.071067811865476"/>
<path d="M 11.0 20.0 L 4.636038969321072 17.36396103067893"/>
<path d="M 4.636038969321072 17.36396103067893 L 2.0 11.0"/>
<path d="M 2.0 11.0 L 4.6360389693210715 4.636038969321072"/>
<path d="M 2.0 11.0 L 1.0 11.0"/>
<path d="M 11.000000000000002 1.0 L 3.9289321881345245 3.9289321881345254"/>
<path d="M 18.071067811865476 3.9289321881345254 L 21.0 11.0"/>
<path d="M 21.0 11.0 L 18.071067811865476 18.071067811865476"/>
<path d="M 18.071067811865476 18.071067811865476 L 11.0 21.0"/>
<path d="M 3.9289321881345254 18.071067811865476 L 1.0 11.0"/>
<path d="M 1.0 11.0 L 3.9289321881345245 3.9289321881345254"/>
</svg>
</svg>