<svg viewBox="0 0 120 120" xmlns="http://www.w3.org/2000/svg">

    <defs>
      <style>
        .radial line {
  	      stroke: #aaa;
  	      stroke-width: 1;
          stroke-linecap: round;
          fill: none;
        }
      </style>
    </defs>

  	<svg class="radial">

<line x2="95.35533905932743" y2="24.644660940672665" x1="60.0" y1="10.0"/>
<line x2="60.0" y2="20.0" x1="60.0" y1="10.0"/>
<line x2="10.0" y2="59.999999999999986" x1="24.644660940672622" y1="24.644660940672622"/>
<line x2="31.715728752538098" y2="31.715728752538098" x1="24.644660940672622" y1="24.644660940672622"/>
<line x2="88.28427124746193" y2="31.715728752538126" x1="60.0" y1="20.0"/>
<line x2="60.0" y2="30.0" x1="60.0" y1="20.0"/>
<line x2="24.644660940672622" y2="95.35533905932738" x1="10.0" y1="59.999999999999986"/>
<line x2="38.78679656440357" y2="38.78679656440357" x1="31.715728752538098" y1="31.715728752538098"/>
<line x2="31.715728752538098" y2="88.2842712474619" x1="20.0" y1="59.999999999999986"/>
<line x2="95.35533905932738" y2="95.35533905932738" x1="59.999999999999986" y1="110.0"/>
<line x2="59.999999999999986" y2="100.0" x1="31.715728752538098" y1="88.2842712474619"/>
<line x2="110.0" y2="60.000000000000014" x1="95.35533905932738" y1="95.35533905932738"/>
<line x2="59.999999999999986" y2="90.0" x1="59.999999999999986" y1="100.0"/>
<line x2="95.35533905932743" y2="24.644660940672665" x1="110.0" y1="60.000000000000014"/>
<line x2="81.21320343559643" y2="81.21320343559643" x1="88.2842712474619" y1="88.2842712474619"/>
<line x2="88.28427124746193" y2="31.715728752538126" x1="100.0" y1="60.000000000000014"/>
<line x2="38.78679656440357" y2="38.78679656440357" x1="60.0" y1="30.0"/>
<line x2="60.0" y2="40.0" x1="60.0" y1="30.0"/>
<line x2="45.85786437626905" y2="45.85786437626905" x1="38.78679656440357" y1="38.78679656440357"/>
<line x2="40.0" y2="60.0" x1="30.0" y1="60.0"/>
<line x2="45.85786437626905" y2="74.14213562373095" x1="38.78679656440357" y1="81.21320343559643"/>
<line x2="60.0" y2="80.0" x1="59.999999999999986" y1="90.0"/>
<line x2="74.14213562373095" y2="74.14213562373095" x1="81.21320343559643" y1="81.21320343559643"/>
<line x2="90.0" y2="60.000000000000014" x1="81.21320343559643" y1="81.21320343559643"/>
<line x2="74.14213562373097" y2="45.85786437626906" x1="81.21320343559645" y1="38.7867965644036"/>
<line x2="40.0" y2="60.0" x1="45.85786437626905" y1="45.85786437626905"/>
<line x2="60.0" y2="60.0" x1="40.0" y1="60.0"/>
<line x2="60.0" y2="80.0" x1="45.85786437626905" y1="74.14213562373095"/>
<line x2="74.14213562373095" y2="74.14213562373095" x1="60.0" y1="80.0"/>
<line x2="60.0" y2="60.0" x1="60.0" y1="80.0"/>
<line x2="74.14213562373097" y2="45.85786437626906" x1="80.0" y1="60.0"/>
<line x2="60.0" y2="60.0" x1="74.14213562373097" y1="45.85786437626906"/>
</svg></svg>