<svg viewBox="0 0 120 120" xmlns="http://www.w3.org/2000/svg">

    <defs>
      <style>
        .radial line {
  	      stroke: #aaa;
  	      stroke-width: 1;
          stroke-linecap: round;
          fill: none;
        }
      </style>
    </defs>

  	<svg class="radial">

<line x2="16.698729810778083" y2="34.99999999999997" x1="60.0" y1="10.0"/>
<line x2="25.358983848622472" y2="39.999999999999986" x1="16.698729810778083" y1="34.99999999999997"/>
<line x2="25.358983848622472" y2="39.999999999999986" x1="60.0" y1="20.0"/>
<line x2="94.64101615137753" y2="39.99999999999997" x1="60.0" y1="20.0"/>
<line x2="25.358983848622444" y2="79.99999999999997" x1="16.698729810778048" y1="84.99999999999997"/>
<line x2="25.358983848622444" y2="79.99999999999997" x1="25.358983848622472" y1="39.999999999999986"/>
<line x2="34.01923788646684" y2="44.999999999999986" x1="25.358983848622472" y1="39.999999999999986"/>
<line x2="59.999999999999986" y2="100.0" x1="59.999999999999986" y1="110.0"/>
<line x2="59.999999999999986" y2="100.0" x1="25.358983848622444" y1="79.99999999999997"/>
<line x2="94.64101615137753" y2="80.00000000000003" x1="103.30127018922192" y1="85.00000000000003"/>
<line x2="103.3012701892219" y2="34.99999999999997" x1="103.30127018922192" y1="85.00000000000003"/>
<line x2="94.64101615137753" y2="80.00000000000003" x1="59.999999999999986" y1="100.0"/>
<line x2="59.999999999999986" y2="90.0" x1="59.999999999999986" y1="100.0"/>
<line x2="34.01923788646684" y2="44.999999999999986" x1="60.0" y1="30.0"/>
<line x2="60.0" y2="40.0" x1="60.0" y1="30.0"/>
<line x2="59.999999999999986" y2="90.0" x1="34.019237886466826" y1="74.99999999999997"/>
<line x2="60.0" y2="80.0" x1="59.999999999999986" y1="90.0"/>
<line x2="77.32050807568876" y2="70.00000000000001" x1="85.98076211353316" y1="75.00000000000001"/>
<line x2="77.32050807568876" y2="49.999999999999986" x1="85.98076211353315" y1="44.999999999999986"/>
<line x2="60.0" y2="50.0" x1="60.0" y1="40.0"/>
<line x2="51.33974596215562" y2="55.0" x1="42.679491924311236" y1="49.999999999999986"/>
<line x2="42.67949192431122" y2="69.99999999999999" x1="42.679491924311236" y1="49.999999999999986"/>
<line x2="51.339745962155604" y2="65.0" x1="42.67949192431122" y1="69.99999999999999"/>
<line x2="60.0" y2="80.0" x1="42.67949192431122" y1="69.99999999999999"/>
<line x2="77.32050807568876" y2="70.00000000000001" x1="60.0" y1="80.0"/>
<line x2="60.0" y2="70.0" x1="60.0" y1="80.0"/>
<line x2="77.32050807568876" y2="49.999999999999986" x1="77.32050807568876" y1="70.00000000000001"/>
<line x2="68.66025403784438" y2="65.0" x1="77.32050807568876" y1="70.00000000000001"/>
<line x2="68.66025403784438" y2="55.0" x1="77.32050807568876" y1="49.999999999999986"/>
</svg></svg>