<svg viewBox="0 0 30 30" xmlns="http://www.w3.org/2000/svg" style="background-color: #dedede;">

    <defs>
      <style>
        .lavender_pentagram path {
          stroke: #333;
          stroke-width: 0.36321390720047586;
          stroke-linecap: round;
          fill: none;
        }
      </style>
    </defs>

<svg class="lavender_pentagram">
<path d="M 14.412214747707527 15.809016994374947 L 13.824429495415053 16.618033988749893"/>
<path d="M 14.048943483704846 14.690983005625053 L 13.097886967409693 14.381966011250105"/>
<path d="M 16.175570504584947 16.618033988749893 A 2 2 0 0 1 13.824429495415053 16.618033988749893"/>
<path d="M 13.824429495415053 16.618033988749893 L 13.23664424312258 17.427050983124843"/>
<path d="M 13.097886967409693 14.381966011250105 A 2 2 0 0 1 15.0 13.0"/>
<path d="M 13.097886967409693 14.381966011250105 L 12.146830451114539 14.072949016875159"/>
<path d="M 15.0 13.0 L 15.0 12.0"/>
<path d="M 15.0 13.0 A 2 2 0 0 1 16.902113032590307 14.381966011250105"/>
<path d="M 16.902113032590307 14.381966011250105 L 17.85316954888546 14.072949016875159"/>
<path d="M 16.902113032590307 14.381966011250105 A 2 2 0 0 1 16.175570504584947 16.618033988749893"/>
<path d="M 15.0 12.0 L 15.0 11.0"/>
<path d="M 17.85316954888546 14.072949016875157 A 3 3 0 0 1 16.76335575687742 17.427050983124843"/>
<path d="M 16.76335575687742 17.427050983124843 L 17.351141009169893 18.23606797749979"/>
<path d="M 11.195773934819385 13.76393202250021 A 4 4 0 0 1 14.999999999999998 11.0"/>
<path d="M 18.804226065180615 13.76393202250021 A 4 4 0 0 1 17.351141009169893 18.23606797749979"/>
<path d="M 18.804226065180615 13.76393202250021 L 19.755282581475768 13.454915028125264"/>
<path d="M 12.648858990830108 18.23606797749979 A 4 4 0 0 1 11.195773934819385 13.76393202250021"/>
<path d="M 11.195773934819385 13.76393202250021 L 10.244717418524232 13.454915028125264"/>
<path d="M 15.0 10.0 A 5 5 0 0 1 19.755282581475768 13.454915028125264"/>
<path d="M 15.0 10.0 L 15.0 9.0"/>
<path d="M 12.061073738537635 19.045084971874736 A 5 5 0 0 1 10.244717418524232 13.454915028125264"/>
<path d="M 15.0 9.0 A 6 6 0 0 1 20.706339097770922 13.145898033750315"/>
<path d="M 9.293660902229078 13.145898033750317 A 6 6 0 0 1 14.999999999999998 9.0"/>
<path d="M 20.706339097770922 13.145898033750315 L 21.657395614066075 12.836881039375369"/>
<path d="M 20.706339097770922 13.145898033750315 A 6 6 0 0 1 18.52671151375484 19.854101966249683"/>
<path d="M 18.52671151375484 19.854101966249686 L 19.11449676604731 20.663118960624633"/>
<path d="M 19.114496766047314 20.66311896062463 A 7 7 0 0 1 10.88550323395269 20.663118960624633"/>
<path d="M 22.60845213036123 12.52786404500042 L 23.559508646656383 12.218847050625474"/>
<path d="M 10.885503233952688 20.663118960624633 L 10.297717981660215 21.47213595499958"/>
<path d="M 19.702282018339787 21.47213595499958 L 20.290067270632257 22.281152949374526"/>
<path d="M 10.297717981660215 21.47213595499958 L 9.709932729367742 22.281152949374526"/>
<path d="M 10.297717981660217 21.47213595499958 A 8 8 0 0 1 7.391547869638771 12.527864045000422"/>
<path d="M 23.559508646656383 12.218847050625474 L 24.510565162951536 11.909830056250527"/>
<path d="M 15.0 6.0 A 9 9 0 0 1 23.559508646656383 12.218847050625474"/>
<path d="M 20.29006727063226 22.281152949374526 A 9 9 0 0 1 9.709932729367743 22.281152949374526"/>
<path d="M 7.391547869638771 12.52786404500042 L 6.440491353343617 12.218847050625474"/>
<path d="M 6.440491353343617 12.218847050625474 A 9 9 0 0 1 14.999999999999998 6.0"/>
<path d="M 15.000000000000002 6.0 L 15.000000000000002 5.0"/>
<path d="M 15.000000000000002 5.0 L 15.000000000000002 4.0"/>
<path d="M 24.510565162951536 11.909830056250527 L 25.46162167924669 11.600813061875579"/>
<path d="M 20.877852522924734 23.090169943749473 L 21.465637775217203 23.899186938124423"/>
<path d="M 9.12214747707527 23.090169943749473 A 10 10 0 0 1 5.489434837048464 11.909830056250527"/>
<path d="M 9.122147477075268 23.090169943749473 L 8.534362224782797 23.899186938124423"/>
<path d="M 5.489434837048464 11.909830056250527 L 4.53837832075331 11.600813061875579"/>
<path d="M 15.000000000000002 4.0 L 15.000000000000002 3.0"/>
<path d="M 25.46162167924669 11.600813061875577 A 11 11 0 0 1 21.465637775217207 23.899186938124423"/>
<path d="M 4.53837832075331 11.600813061875579 L 3.5873218044581563 11.291796067500632"/>
<path d="M 3.5873218044581563 11.291796067500634 A 12 12 0 0 1 14.999999999999996 3.0"/>
<path d="M 15.000000000000002 3.0 L 15.000000000000002 2.0"/>
<path d="M 22.053423027509677 24.70820393249937 L 22.64120827980215 25.517220926874316"/>
<path d="M 22.05342302750968 24.708203932499366 A 12 12 0 0 1 7.946576972490323 24.70820393249937"/>
<path d="M 7.946576972490323 24.70820393249937 A 12 12 0 0 1 3.5873218044581563 11.291796067500634"/>
<path d="M 3.5873218044581563 11.291796067500632 L 2.6362652881630027 10.982779073125684"/>
<path d="M 22.64120827980215 25.517220926874316 A 13 13 0 0 1 7.358791720197851 25.517220926874316"/>
<path d="M 27.363734711836997 10.982779073125684 A 13 13 0 0 1 22.64120827980215 25.517220926874316"/>
<path d="M 22.64120827980215 25.517220926874316 L 23.228993532094623 26.326237921249266"/>
<path d="M 7.358791720197849 25.517220926874316 L 6.7710064679053765 26.326237921249266"/>
<path d="M 15.0 1.0 A 14 14 0 0 1 28.31479122813215 10.673762078750736"/>
<path d="M 28.31479122813215 10.673762078750736 A 14 14 0 0 1 23.228993532094627 26.326237921249263"/>
</svg>
</svg>