<svg viewBox="0 0 8 8" xmlns="http://www.w3.org/2000/svg">

  <defs>
    <style>
      .radial path {
	      stroke: #aaa;
	      stroke-width: 0.08;
        stroke-linecap: round;
        fill: none;
      }
    </style>
  </defs>

<svg x="0" y="0" class="radial">
<path d="M 4.0 3.0 A 1 1 0 0 1 4.707106781186548 3.2928932188134525"/>
<path d="M 4,4 L 4.0,3.0"/>
<path d="M 3.292893218813452 3.2928932188134525 A 1 1 0 0 1 3.9999999999999996 3.0"/>
<path d="M 4.0 3.0 L 4.0 2.0"/>
<path d="M 4.707106781186548 3.2928932188134525 A 1 1 0 0 1 5.0 4.0"/>
<path d="M 4,4 L 4.707106781186548,3.2928932188134525"/>
<path d="M 4.707106781186548 3.2928932188134525 L 5.414213562373095 2.585786437626905"/>
<path d="M 4,4 L 5.0,4.0"/>
<path d="M 4,4 L 4.707106781186548,4.707106781186548"/>
<path d="M 4,4 L 4.0,5.0"/>
<path d="M 4,4 L 3.2928932188134525,4.707106781186548"/>
<path d="M 4,4 L 3.0,4.0"/>
<path d="M 4,4 L 3.2928932188134525,3.2928932188134525"/>
<path d="M 5.0 4.0 A 1 1 0 0 1 4.707106781186548 4.707106781186548"/>
<path d="M 5.0 4.0 L 6.0 4.0"/>
<path d="M 4.707106781186548 4.707106781186548 A 1 1 0 0 1 4.0 5.0"/>
<path d="M 4.707106781186548 4.707106781186548 L 5.414213562373095 5.414213562373095"/>
<path d="M 4.0 5.0 A 1 1 0 0 1 3.2928932188134525 4.707106781186548"/>
<path d="M 4.0 5.0 L 4.0 6.0"/>
<path d="M 3.2928932188134525 4.707106781186548 A 1 1 0 0 1 3.0 4.0"/>
<path d="M 3.2928932188134525 4.707106781186548 L 2.585786437626905 5.414213562373095"/>
<path d="M 3.0 4.0 A 1 1 0 0 1 3.292893218813452 3.2928932188134525"/>
<path d="M 3.0 4.0 L 2.0 4.0"/>
<path d="M 3.2928932188134525 3.2928932188134525 L 2.585786437626905 2.585786437626905"/>
<path d="M 4.0 2.0 A 2 2 0 0 1 5.414213562373095 2.585786437626905"/>
<path d="M 2.5857864376269046 2.585786437626905 A 2 2 0 0 1 3.9999999999999996 2.0"/>
<path d="M 4.0 2.0 L 4.0 1.0"/>
<path d="M 5.414213562373095 2.585786437626905 A 2 2 0 0 1 6.0 4.0"/>
<path d="M 5.414213562373095 2.585786437626905 L 6.121320343559643 1.8786796564403576"/>
<path d="M 6.0 4.0 A 2 2 0 0 1 5.414213562373095 5.414213562373095"/>
<path d="M 6.0 4.0 L 7.0 4.0"/>
<path d="M 5.414213562373095 5.414213562373095 A 2 2 0 0 1 4.0 6.0"/>
<path d="M 5.414213562373095 5.414213562373095 L 6.121320343559642 6.121320343559643"/>
<path d="M 4.0 6.0 A 2 2 0 0 1 2.585786437626905 5.414213562373096"/>
<path d="M 4.0 6.0 L 4.0 7.0"/>
<path d="M 2.585786437626905 5.414213562373096 A 2 2 0 0 1 2.0 4.0"/>
<path d="M 2.585786437626905 5.414213562373095 L 1.8786796564403576 6.121320343559643"/>
<path d="M 2.0 4.0 A 2 2 0 0 1 2.5857864376269046 2.585786437626905"/>
<path d="M 2.0 4.0 L 1.0 4.0"/>
<path d="M 2.585786437626905 2.585786437626905 L 1.8786796564403572 1.8786796564403576"/>
<path d="M 4.0 1.0 A 3 3 0 0 1 6.121320343559642 1.8786796564403572"/>
<path d="M 1.8786796564403572 1.8786796564403576 A 3 3 0 0 1 3.999999999999999 1.0"/>
<path d="M 6.121320343559642 1.8786796564403572 A 3 3 0 0 1 7.0 4.0"/>
<path d="M 7.0 4.0 A 3 3 0 0 1 6.121320343559643 6.121320343559642"/>
<path d="M 6.121320343559643 6.121320343559642 A 3 3 0 0 1 4.0 7.0"/>
<path d="M 4.0 7.0 A 3 3 0 0 1 1.8786796564403576 6.121320343559643"/>
<path d="M 1.8786796564403576 6.121320343559643 A 3 3 0 0 1 1.0 4.000000000000001"/>
<path d="M 1.0 4.000000000000001 A 3 3 0 0 1 1.8786796564403572 1.8786796564403576"/>
</svg>
</svg>