<svg viewBox="0 0 24 24" xmlns="http://www.w3.org/2000/svg" style="background-color: #FFF8C5;">

    <defs>
      <style>
        .yellow_busy path {
          stroke: #6B6800;
          stroke-width: 0.3190019857546282;
          stroke-linecap: round;
          fill: none;
        }
      </style>
    </defs>

<svg class="yellow_busy">
<path d="M 11.74118095489748 11.034074173710932 A 1 1 0 0 1 12.0 11.0"/>
<path d="M 12.0 11.0 A 1 1 0 0 1 12.25881904510252 11.034074173710932"/>
<path d="M 12,12 L 12.86602540378444,11.5"/>
<path d="M 12,12 L 11.74118095489748,12.965925826289068"/>
<path d="M 12,12 L 12.5,11.13397459621556"/>
<path d="M 12,12 L 11.13397459621556,12.5"/>
<path d="M 12,12 L 13.0,12.0"/>
<path d="M 12,12 L 12.707106781186548,11.292893218813452"/>
<path d="M 12,12 L 11.292893218813452,11.292893218813452"/>
<path d="M 12,12 L 11.74118095489748,11.034074173710932"/>
<path d="M 12,12 L 11.0,12.0"/>
<path d="M 12,12 L 12.965925826289068,12.258819045102522"/>
<path d="M 11.482361909794959 10.068148347421863 A 2 2 0 0 1 12.0 10.0"/>
<path d="M 12.0 10.0 L 12.0 9.0"/>
<path d="M 12.5 11.13397459621556 L 13.0 10.267949192431123"/>
<path d="M 12.517638090205041 10.068148347421863 A 2 2 0 0 1 13.0 10.267949192431123"/>
<path d="M 12.965925826289068 11.74118095489748 A 1 1 0 0 1 13.0 12.0"/>
<path d="M 12.965925826289068 11.74118095489748 L 13.931851652578137 11.482361909794959"/>
<path d="M 12.965925826289068 12.258819045102522 A 1 1 0 0 1 12.86602540378444 12.5"/>
<path d="M 12.86602540378444 12.5 A 1 1 0 0 1 12.707106781186548 12.707106781186548"/>
<path d="M 12.707106781186548 12.707106781186548 A 1 1 0 0 1 12.5 12.86602540378444"/>
<path d="M 12.5 12.86602540378444 A 1 1 0 0 1 12.25881904510252 12.965925826289068"/>
<path d="M 12.258819045102522 12.965925826289068 A 1 1 0 0 1 12.0 13.0"/>
<path d="M 12.258819045102522 12.965925826289068 L 12.517638090205041 13.931851652578136"/>
<path d="M 12.0 13.0 L 12.0 14.0"/>
<path d="M 11.74118095489748 12.965925826289068 L 11.482361909794959 13.931851652578137"/>
<path d="M 11.74118095489748 12.965925826289068 A 1 1 0 0 1 11.5 12.86602540378444"/>
<path d="M 11.5 12.86602540378444 L 11.0 13.732050807568877"/>
<path d="M 11.292893218813452 12.707106781186548 A 1 1 0 0 1 11.133974596215563 12.5"/>
<path d="M 11.292893218813452 12.707106781186548 L 10.585786437626904 13.414213562373096"/>
<path d="M 11.034074173710932 12.25881904510252 A 1 1 0 0 1 11.0 12.0"/>
<path d="M 11.0 12.0 L 10.0 12.0"/>
<path d="M 11.0 12.0 A 1 1 0 0 1 11.034074173710932 11.74118095489748"/>
<path d="M 11.034074173710932 11.74118095489748 A 1 1 0 0 1 11.13397459621556 11.5"/>
<path d="M 11.5 11.13397459621556 L 11.0 10.267949192431123"/>
<path d="M 13.0 10.267949192431123 L 13.5 9.401923788646684"/>
<path d="M 13.0 10.267949192431123 A 2 2 0 0 1 13.414213562373096 10.585786437626904"/>
<path d="M 13.732050807568877 11.0 L 14.598076211353316 10.5"/>
<path d="M 13.732050807568877 11.0 A 2 2 0 0 1 13.931851652578136 11.482361909794959"/>
<path d="M 13.931851652578137 11.482361909794959 L 14.897777478867205 11.223542864692439"/>
<path d="M 14.0 12.0 L 15.0 12.0"/>
<path d="M 13.931851652578137 12.517638090205041 A 2 2 0 0 1 13.732050807568877 13.0"/>
<path d="M 13.931851652578136 12.517638090205041 L 14.897777478867205 12.776457135307563"/>
<path d="M 13.414213562373096 13.414213562373096 L 14.121320343559642 14.121320343559642"/>
<path d="M 13.0 13.732050807568877 L 13.5 14.598076211353316"/>
<path d="M 11.482361909794959 13.931851652578137 L 11.223542864692439 14.897777478867205"/>
<path d="M 10.585786437626904 13.414213562373096 A 2 2 0 0 1 10.267949192431123 13.0"/>
<path d="M 10.267949192431123 13.0 L 9.401923788646684 13.5"/>
<path d="M 10.068148347421863 12.517638090205041 A 2 2 0 0 1 10.0 12.0"/>
<path d="M 10.0 12.0 A 2 2 0 0 1 10.068148347421863 11.48236190979496"/>
<path d="M 10.068148347421863 11.482361909794959 L 9.102222521132795 11.223542864692439"/>
<path d="M 10.267949192431123 11.0 L 9.401923788646684 10.5"/>
<path d="M 10.585786437626904 10.585786437626904 A 2 2 0 0 1 11.0 10.267949192431123"/>
<path d="M 11.0 10.267949192431123 A 2 2 0 0 1 11.482361909794957 10.068148347421864"/>
<path d="M 11.0 10.267949192431123 L 10.5 9.401923788646684"/>
<path d="M 12.0 9.0 A 3 3 0 0 1 12.776457135307563 9.102222521132795"/>
<path d="M 12.0 9.0 L 12.0 8.0"/>
<path d="M 12.776457135307563 9.102222521132795 A 3 3 0 0 1 13.5 9.401923788646684"/>
<path d="M 13.5 9.401923788646684 L 14.0 8.535898384862245"/>
<path d="M 13.5 9.401923788646684 A 3 3 0 0 1 14.121320343559642 9.878679656440358"/>
<path d="M 14.897777478867205 11.223542864692437 A 3 3 0 0 1 15.0 12.0"/>
<path d="M 14.897777478867205 12.776457135307563 L 15.863703305156273 13.035276180410083"/>
<path d="M 14.598076211353316 13.5 A 3 3 0 0 1 14.121320343559642 14.121320343559642"/>
<path d="M 14.121320343559642 14.121320343559642 A 3 3 0 0 1 13.5 14.598076211353316"/>
<path d="M 13.5 14.598076211353316 L 14.0 15.464101615137755"/>
<path d="M 12.776457135307563 14.897777478867205 A 3 3 0 0 1 12.0 15.0"/>
<path d="M 12.0 15.0 L 12.0 16.0"/>
<path d="M 11.223542864692439 14.897777478867205 L 10.964723819589919 15.863703305156273"/>
<path d="M 10.5 14.598076211353316 A 3 3 0 0 1 9.878679656440358 14.121320343559642"/>
<path d="M 9.878679656440358 14.121320343559642 A 3 3 0 0 1 9.401923788646684 13.500000000000002"/>
<path d="M 9.102222521132795 12.776457135307561 L 8.136296694843727 13.035276180410083"/>
<path d="M 9.102222521132795 12.776457135307561 A 3 3 0 0 1 9.0 12.0"/>
<path d="M 9.0 12.0 A 3 3 0 0 1 9.102222521132795 11.223542864692439"/>
<path d="M 9.102222521132795 11.223542864692439 L 8.136296694843725 10.964723819589919"/>
<path d="M 9.401923788646684 10.5 L 8.535898384862247 10.0"/>
<path d="M 9.401923788646684 10.5 A 3 3 0 0 1 9.878679656440358 9.878679656440358"/>
<path d="M 9.878679656440358 9.878679656440358 A 3 3 0 0 1 10.499999999999998 9.401923788646684"/>
<path d="M 9.878679656440358 9.878679656440358 L 9.17157287525381 9.17157287525381"/>
<path d="M 11.223542864692439 9.102222521132795 L 10.964723819589917 8.136296694843727"/>
<path d="M 12.0 8.0 L 12.0 7.0"/>
<path d="M 13.035276180410085 8.136296694843727 L 13.294095225512605 7.170370868554659"/>
<path d="M 13.035276180410083 8.136296694843727 A 4 4 0 0 1 14.0 8.535898384862245"/>
<path d="M 14.0 8.535898384862245 L 14.5 7.669872981077806"/>
<path d="M 14.82842712474619 9.17157287525381 A 4 4 0 0 1 15.464101615137753 10.0"/>
<path d="M 15.464101615137753 10.0 A 4 4 0 0 1 15.863703305156273 10.964723819589917"/>
<path d="M 15.863703305156273 10.964723819589917 L 16.82962913144534 10.705904774487397"/>
<path d="M 16.0 12.0 L 17.0 12.0"/>
<path d="M 15.863703305156273 13.035276180410083 L 16.82962913144534 13.294095225512605"/>
<path d="M 15.464101615137755 14.0 A 4 4 0 0 1 14.82842712474619 14.82842712474619"/>
<path d="M 15.464101615137755 14.0 L 16.330127018922195 14.5"/>
<path d="M 14.82842712474619 14.82842712474619 L 15.535533905932738 15.535533905932738"/>
<path d="M 14.0 15.464101615137755 L 14.5 16.330127018922195"/>
<path d="M 13.035276180410083 15.863703305156273 L 13.294095225512605 16.82962913144534"/>
<path d="M 12.0 16.0 L 12.0 17.0"/>
<path d="M 10.964723819589919 15.863703305156275 A 4 4 0 0 1 10.0 15.464101615137755"/>
<path d="M 10.964723819589919 15.863703305156273 L 10.705904774487397 16.82962913144534"/>
<path d="M 10.0 15.464101615137753 A 4 4 0 0 1 9.171572875253808 14.82842712474619"/>
<path d="M 9.17157287525381 14.82842712474619 L 8.464466094067262 15.535533905932738"/>
<path d="M 9.17157287525381 14.828427124746192 A 4 4 0 0 1 8.535898384862247 14.000000000000002"/>
<path d="M 8.535898384862247 14.000000000000002 L 7.669872981077807 14.500000000000002"/>
<path d="M 8.0 12.0 L 7.0 12.0"/>
<path d="M 8.136296694843725 10.964723819589919 L 7.170370868554658 10.705904774487397"/>
<path d="M 9.999999999999998 8.535898384862247 A 4 4 0 0 1 10.964723819589913 8.136296694843727"/>
<path d="M 10.964723819589917 8.136296694843727 L 10.705904774487397 7.1703708685546585"/>
<path d="M 14.5 7.669872981077806 L 15.0 6.803847577293368"/>
<path d="M 15.535533905932738 8.464466094067262 A 5 5 0 0 1 16.33012701892219 9.5"/>
<path d="M 15.535533905932738 8.464466094067262 L 16.242640687119284 7.757359312880715"/>
<path d="M 16.33012701892219 9.5 A 5 5 0 0 1 16.82962913144534 10.705904774487395"/>
<path d="M 16.82962913144534 10.705904774487397 A 5 5 0 0 1 17.0 12.0"/>
<path d="M 17.0 12.0 A 5 5 0 0 1 16.82962913144534 13.294095225512603"/>
<path d="M 15.535533905932738 15.535533905932738 L 16.242640687119284 16.242640687119284"/>
<path d="M 14.5 16.330127018922195 L 15.0 17.196152422706632"/>
<path d="M 13.294095225512605 16.82962913144534 L 13.552914270615126 17.79555495773441"/>
<path d="M 13.294095225512605 16.82962913144534 A 5 5 0 0 1 12.0 17.0"/>
<path d="M 12.0 17.0 A 5 5 0 0 1 10.705904774487395 16.82962913144534"/>
<path d="M 12.0 17.0 L 12.0 18.0"/>
<path d="M 10.705904774487397 16.82962913144534 L 10.447085729384877 17.79555495773441"/>
<path d="M 9.5 16.33012701892219 L 8.999999999999998 17.196152422706632"/>
<path d="M 7.669872981077808 14.500000000000002 A 5 5 0 0 1 7.170370868554659 13.294095225512606"/>
<path d="M 7.0 12.000000000000002 A 5 5 0 0 1 7.170370868554658 10.705904774487399"/>
<path d="M 7.170370868554658 10.705904774487397 L 6.20444504226559 10.447085729384877"/>
<path d="M 7.669872981077807 9.5 L 6.803847577293368 9.0"/>
<path d="M 7.669872981077807 9.5 A 5 5 0 0 1 8.464466094067262 8.464466094067262"/>
<path d="M 8.464466094067262 8.464466094067262 A 5 5 0 0 1 9.499999999999998 7.669872981077808"/>
<path d="M 9.499999999999998 7.669872981077807 L 8.999999999999998 6.803847577293369"/>
<path d="M 10.705904774487397 7.1703708685546585 L 10.447085729384877 6.20444504226559"/>
<path d="M 10.447085729384876 6.20444504226559 A 6 6 0 0 1 11.999999999999998 6.0"/>
<path d="M 12.0 6.0 L 12.0 5.0"/>
<path d="M 13.552914270615124 6.20444504226559 A 6 6 0 0 1 15.0 6.803847577293368"/>
<path d="M 15.0 6.803847577293368 L 15.5 5.937822173508929"/>
<path d="M 16.242640687119284 7.757359312880715 L 16.949747468305834 7.050252531694168"/>
<path d="M 17.196152422706632 9.0 A 6 6 0 0 1 17.79555495773441 10.447085729384874"/>
<path d="M 17.79555495773441 10.447085729384876 L 18.761480784023476 10.188266684282356"/>
<path d="M 18.0 12.0 A 6 6 0 0 1 17.79555495773441 13.552914270615124"/>
<path d="M 17.79555495773441 13.552914270615126 L 18.761480784023476 13.811733315717646"/>
<path d="M 17.196152422706632 15.0 L 18.062177826491073 15.5"/>
<path d="M 17.196152422706632 14.999999999999998 A 6 6 0 0 1 16.242640687119284 16.242640687119284"/>
<path d="M 16.242640687119284 16.242640687119284 L 16.94974746830583 16.949747468305834"/>
<path d="M 16.242640687119284 16.242640687119284 A 6 6 0 0 1 15.0 17.196152422706632"/>
<path d="M 15.0 17.196152422706632 A 6 6 0 0 1 13.552914270615123 17.79555495773441"/>
<path d="M 15.0 17.196152422706632 L 15.499999999999998 18.062177826491073"/>
<path d="M 12.0 18.0 L 12.0 19.0"/>
<path d="M 10.447085729384877 17.79555495773441 L 10.188266684282357 18.761480784023476"/>
<path d="M 9.0 17.196152422706632 A 6 6 0 0 1 7.757359312880714 16.242640687119284"/>
<path d="M 8.999999999999998 17.196152422706632 L 8.499999999999998 18.06217782649107"/>
<path d="M 6.803847577293369 15.000000000000002 L 5.9378221735089305 15.500000000000002"/>
<path d="M 6.80384757729337 15.000000000000004 A 6 6 0 0 1 6.204445042265592 13.55291427061513"/>
<path d="M 6.0 12.0 L 5.0 12.0"/>
<path d="M 6.20444504226559 10.447085729384877 L 5.238519215976521 10.188266684282357"/>
<path d="M 6.803847577293368 9.0 L 5.93782217350893 8.5"/>
<path d="M 7.757359312880714 7.757359312880715 A 6 6 0 0 1 8.999999999999996 6.80384757729337"/>
<path d="M 8.999999999999996 6.80384757729337 A 6 6 0 0 1 10.44708572938487 6.204445042265592"/>
<path d="M 10.188266684282356 5.238519215976522 A 7 7 0 0 1 11.999999999999998 5.0"/>
<path d="M 13.811733315717646 5.238519215976522 A 7 7 0 0 1 15.5 5.937822173508929"/>
<path d="M 13.811733315717648 5.238519215976522 L 14.070552360820168 4.272593389687454"/>
<path d="M 15.5 5.937822173508929 A 7 7 0 0 1 16.94974746830583 7.050252531694167"/>
<path d="M 15.5 5.937822173508929 L 16.0 5.07179676972449"/>
<path d="M 16.94974746830583 7.050252531694167 A 7 7 0 0 1 18.06217782649107 8.5"/>
<path d="M 18.06217782649107 8.5 A 7 7 0 0 1 18.761480784023476 10.188266684282354"/>
<path d="M 18.761480784023476 10.188266684282354 A 7 7 0 0 1 19.0 12.0"/>
<path d="M 18.761480784023476 13.811733315717646 A 7 7 0 0 1 18.06217782649107 15.5"/>
<path d="M 15.5 18.062177826491073 A 7 7 0 0 1 13.811733315717644 18.761480784023476"/>
<path d="M 15.499999999999998 18.062177826491073 L 15.999999999999998 18.92820323027551"/>
<path d="M 13.811733315717646 18.761480784023476 L 14.070552360820168 19.727406610312546"/>
<path d="M 10.188266684282357 18.76148078402348 A 7 7 0 0 1 8.500000000000002 18.062177826491073"/>
<path d="M 10.188266684282357 18.761480784023476 L 9.929447639179836 19.727406610312546"/>
<path d="M 8.5 18.06217782649107 A 7 7 0 0 1 7.050252531694166 16.94974746830583"/>
<path d="M 7.050252531694168 16.949747468305834 L 6.34314575050762 17.65685424949238"/>
<path d="M 5.937822173508931 15.500000000000004 A 7 7 0 0 1 5.238519215976523 13.81173331571765"/>
<path d="M 5.238519215976522 13.811733315717644 L 4.2725933896874535 14.070552360820164"/>
<path d="M 5.238519215976522 13.811733315717644 A 7 7 0 0 1 5.0 12.000000000000002"/>
<path d="M 5.0 12.000000000000002 A 7 7 0 0 1 5.238519215976521 10.188266684282357"/>
<path d="M 5.238519215976521 10.188266684282357 A 7 7 0 0 1 5.937822173508927 8.500000000000005"/>
<path d="M 5.238519215976521 10.188266684282357 L 4.272593389687453 9.929447639179838"/>
<path d="M 5.93782217350893 8.5 A 7 7 0 0 1 7.050252531694166 7.050252531694168"/>
<path d="M 7.050252531694166 7.050252531694168 A 7 7 0 0 1 8.499999999999996 5.937822173508931"/>
<path d="M 12.000000000000002 4.0 L 12.000000000000002 3.0"/>
<path d="M 14.070552360820168 4.272593389687454 L 14.32937140592269 3.3066675633983866"/>
<path d="M 16.0 5.07179676972449 L 16.5 4.205771365940052"/>
<path d="M 17.65685424949238 6.343145750507619 A 8 8 0 0 1 18.928203230275507 7.999999999999999"/>
<path d="M 17.65685424949238 6.34314575050762 L 18.36396103067893 5.636038969321072"/>
<path d="M 18.928203230275507 7.999999999999999 L 19.794228634059948 7.499999999999999"/>
<path d="M 18.928203230275507 7.999999999999999 A 8 8 0 0 1 19.727406610312546 9.929447639179832"/>
<path d="M 20.0 12.0 A 8 8 0 0 1 19.727406610312546 14.070552360820166"/>
<path d="M 19.727406610312546 14.070552360820166 A 8 8 0 0 1 18.928203230275507 16.0"/>
<path d="M 18.92820323027551 16.0 L 19.794228634059948 16.5"/>
<path d="M 17.65685424949238 17.65685424949238 A 8 8 0 0 1 16.0 18.92820323027551"/>
<path d="M 14.070552360820168 19.727406610312546 L 14.329371405922688 20.693332436601615"/>
<path d="M 12.000000000000002 20.0 A 8 8 0 0 1 9.929447639179834 19.727406610312546"/>
<path d="M 9.929447639179838 19.72740661031255 A 8 8 0 0 1 8.000000000000002 18.92820323027551"/>
<path d="M 7.999999999999998 18.928203230275507 L 7.499999999999998 19.794228634059948"/>
<path d="M 5.071796769724492 16.000000000000004 L 4.205771365940054 16.500000000000004"/>
<path d="M 4.2725933896874535 14.070552360820166 A 8 8 0 0 1 4.0 12.000000000000002"/>
<path d="M 4.272593389687453 9.929447639179838 A 8 8 0 0 1 5.071796769724488 8.000000000000005"/>
<path d="M 4.272593389687453 9.929447639179838 L 3.306667563398385 9.670628594077316"/>
<path d="M 5.071796769724491 8.0 A 8 8 0 0 1 6.3431457505076185 6.34314575050762"/>
<path d="M 7.9999999999999964 5.071796769724493 A 8 8 0 0 1 9.929447639179827 4.272593389687455"/>
<path d="M 9.929447639179836 4.2725933896874535 L 9.670628594077314 3.306667563398385"/>
<path d="M 9.670628594077314 3.306667563398385 A 9 9 0 0 1 11.999999999999998 3.0"/>
<path d="M 12.000000000000002 3.0 L 12.000000000000002 2.0"/>
<path d="M 18.36396103067893 5.636038969321072 L 19.071067811865476 4.928932188134525"/>
<path d="M 19.794228634059948 7.499999999999999 A 9 9 0 0 1 20.693332436601615 9.67062859407731"/>
<path d="M 19.794228634059948 7.499999999999999 L 20.660254037844386 6.999999999999999"/>
<path d="M 20.693332436601615 9.670628594077314 A 9 9 0 0 1 21.0 12.0"/>
<path d="M 20.693332436601615 14.32937140592269 L 21.65925826289068 14.58819045102521"/>
<path d="M 19.794228634059948 16.5 A 9 9 0 0 1 18.36396103067893 18.36396103067893"/>
<path d="M 18.36396103067893 18.36396103067893 L 19.071067811865476 19.071067811865476"/>
<path d="M 16.5 19.794228634059948 A 9 9 0 0 1 14.329371405922686 20.693332436601615"/>
<path d="M 14.32937140592269 20.693332436601615 A 9 9 0 0 1 12.000000000000002 21.0"/>
<path d="M 12.000000000000002 21.0 A 9 9 0 0 1 9.670628594077312 20.693332436601615"/>
<path d="M 7.499999999999999 19.794228634059948 A 9 9 0 0 1 5.636038969321071 18.363961030678926"/>
<path d="M 5.636038969321072 18.36396103067893 A 9 9 0 0 1 4.205771365940055 16.500000000000004"/>
<path d="M 5.636038969321072 18.36396103067893 L 4.928932188134525 19.071067811865476"/>
<path d="M 3.306667563398385 14.329371405922686 A 9 9 0 0 1 3.0 12.000000000000002"/>
<path d="M 3.306667563398385 14.329371405922686 L 2.340741737109317 14.588190451025206"/>
<path d="M 3.0 12.000000000000002 A 9 9 0 0 1 3.306667563398385 9.670628594077318"/>
<path d="M 3.0 12.0 L 2.0 12.0"/>
<path d="M 4.205771365940053 7.5 A 9 9 0 0 1 5.636038969321071 5.636038969321072"/>
<path d="M 5.6360389693210715 5.636038969321072 L 4.9289321881345245 4.928932188134525"/>
<path d="M 5.636038969321071 5.636038969321072 A 9 9 0 0 1 7.4999999999999964 4.205771365940055"/>
<path d="M 12.0 2.0 A 10 10 0 0 1 14.588190451025207 2.340741737109317"/>
<path d="M 9.411809548974793 2.340741737109317 A 10 10 0 0 1 11.999999999999998 2.0"/>
<path d="M 14.588190451025207 2.340741737109317 A 10 10 0 0 1 17.0 3.3397459621556127"/>
<path d="M 17.0 3.3397459621556127 A 10 10 0 0 1 19.071067811865476 4.9289321881345245"/>
<path d="M 17.0 3.3397459621556127 L 17.5 2.4737205583711734"/>
<path d="M 19.071067811865476 4.928932188134525 L 19.77817459305202 4.221825406947978"/>
<path d="M 20.660254037844386 6.999999999999999 A 10 10 0 0 1 21.65925826289068 9.41180954897479"/>
<path d="M 21.65925826289068 9.411809548974793 A 10 10 0 0 1 22.0 12.0"/>
<path d="M 22.0 12.0 A 10 10 0 0 1 21.65925826289068 14.588190451025206"/>
<path d="M 22.0 12.0 L 23.0 12.0"/>
<path d="M 21.65925826289068 14.58819045102521 A 10 10 0 0 1 20.660254037844386 17.0"/>
<path d="M 21.65925826289068 14.58819045102521 L 22.62518408917975 14.84700949612773"/>
<path d="M 20.66025403784439 17.0 A 10 10 0 0 1 19.071067811865476 19.071067811865476"/>
<path d="M 19.071067811865476 19.071067811865476 L 19.77817459305202 19.77817459305202"/>
<path d="M 19.071067811865476 19.071067811865476 A 10 10 0 0 1 17.0 20.66025403784439"/>
<path d="M 17.0 20.66025403784439 A 10 10 0 0 1 14.588190451025206 21.65925826289068"/>
<path d="M 12.0 22.0 L 12.0 23.0"/>
<path d="M 9.411809548974796 21.659258262890685 A 10 10 0 0 1 7.000000000000002 20.66025403784439"/>
<path d="M 9.411809548974794 21.65925826289068 L 9.152990503872275 22.62518408917975"/>
<path d="M 6.999999999999998 20.660254037844386 L 6.499999999999997 21.526279441628823"/>
<path d="M 4.928932188134525 19.071067811865476 A 10 10 0 0 1 3.3397459621556163 17.000000000000004"/>
<path d="M 3.3397459621556145 17.000000000000004 L 2.473720558371177 17.500000000000004"/>
<path d="M 2.340741737109317 14.588190451025206 L 1.3748159108202493 14.847009496127725"/>
<path d="M 2.0 12.000000000000002 A 10 10 0 0 1 2.3407417371093153 9.411809548974798"/>
<path d="M 2.0 12.0 L 1.0 12.0"/>
<path d="M 2.3407417371093153 9.411809548974798 A 10 10 0 0 1 3.339745962155609 7.000000000000007"/>
<path d="M 3.3397459621556145 7.0 A 10 10 0 0 1 4.928932188134523 4.928932188134525"/>
<path d="M 3.3397459621556145 6.999999999999999 L 2.473720558371175 6.499999999999999"/>
<path d="M 4.928932188134523 4.928932188134525 A 10 10 0 0 1 6.999999999999996 3.3397459621556163"/>
<path d="M 4.9289321881345245 4.928932188134525 L 4.221825406947977 4.221825406947978"/>
<path d="M 9.411809548974794 2.340741737109317 L 9.152990503872275 1.3748159108202493"/>
<path d="M 9.152990503872273 1.3748159108202493 A 11 11 0 0 1 11.999999999999996 1.0"/>
<path d="M 14.847009496127729 1.3748159108202493 A 11 11 0 0 1 17.5 2.4737205583711734"/>
<path d="M 19.77817459305202 4.221825406947977 A 11 11 0 0 1 21.526279441628823 6.499999999999999"/>
<path d="M 22.62518408917975 9.152990503872271 A 11 11 0 0 1 23.0 12.0"/>
<path d="M 22.62518408917975 14.847009496127729 A 11 11 0 0 1 21.526279441628823 17.5"/>
<path d="M 19.77817459305202 19.77817459305202 A 11 11 0 0 1 17.5 21.526279441628827"/>
<path d="M 17.5 21.526279441628827 A 11 11 0 0 1 14.847009496127725 22.62518408917975"/>
<path d="M 14.84700949612773 22.62518408917975 A 11 11 0 0 1 12.000000000000002 23.0"/>
<path d="M 12.000000000000002 23.0 A 11 11 0 0 1 9.152990503872271 22.62518408917975"/>
<path d="M 6.499999999999999 21.526279441628823 A 11 11 0 0 1 4.221825406947976 19.77817459305202"/>
<path d="M 4.221825406947978 19.778174593052025 A 11 11 0 0 1 2.473720558371177 17.500000000000007"/>
<path d="M 1.0 12.000000000000002 A 11 11 0 0 1 1.3748159108202476 9.152990503872276"/>
<path d="M 4.221825406947976 4.221825406947978 A 11 11 0 0 1 6.499999999999995 2.473720558371177"/>
</svg>
</svg>