<svg viewBox="0 0 640 80" xmlns="http://www.w3.org/2000/svg">
  <defs>
    <style>
      line {
        stroke: currentColor;
        stroke-width: 1.5;
        stroke-linecap: round;
      }

      text {
        fill: currentColor;
        stroke: none;
				font-size: 11px;
      }

			text.service {
				text-anchor: middle;
				dominant-baseline: middle;
			}

			tspan {
				text-anchor: middle;
				dominant-baseline: middle;
				font-size: 8.5px;
			}

    	.slack0{fill:#E01E5A;}
    	.slack1{fill:#36C5F0;}
    	.slack2{fill:#2EB67D;}
    	.slack3{fill:#ECB22E;}

      .aws_pink   { fill: #B0084D; }
      .aws_orange { fill: #D45B07; }

      @media (prefers-color-scheme: dark) {
        .aws_pink   { fill: #FF4F8B; }
        .aws_orange { fill: #FF9900; }
      }
    </style>
  </defs>

  <svg y="10">
    <marker id="arrowhead" markerWidth="7" markerHeight="4.9" refX="0" refY="2.45" orient="auto">
      <polygon fill="currentColor" points="0 0, 7 2.45, 0 4.9"/>
    </marker>

  	<text x="54" y="48" dy="12" class="service">ECS service</text>

  	<svg x="30" y="0">
      <g id="Icon-Resource/Containers/Res_Amazon-Elastic-Container-Service_Service_48" stroke="none" stroke-width="1" fill="none" fill-rule="evenodd">
          <path d="M24.933,38.213 L37.674,38.213 L37.674,36.213 L24.933,36.213 L24.933,38.213 Z M24.933,28.303 L37.674,28.303 L37.674,26.303 L24.933,26.303 L24.933,28.303 Z M24.933,18.393 L37.674,18.393 L37.674,16.393 L24.933,16.393 L24.933,18.393 Z M19.561,38.337 L21.808,38.337 L21.808,36.09 L19.561,36.09 L19.561,38.337 Z M18.561,40.337 L22.808,40.337 C23.361,40.337 23.808,39.89 23.808,39.337 L23.808,35.09 C23.808,34.537 23.361,34.09 22.808,34.09 L18.561,34.09 C18.009,34.09 17.561,34.537 17.561,35.09 L17.561,39.337 C17.561,39.89 18.009,40.337 18.561,40.337 L18.561,40.337 Z M19.561,28.427 L21.808,28.427 L21.808,26.18 L19.561,26.18 L19.561,28.427 Z M18.561,30.427 L22.808,30.427 C23.361,30.427 23.808,29.98 23.808,29.427 L23.808,25.18 C23.808,24.627 23.361,24.18 22.808,24.18 L18.561,24.18 C18.009,24.18 17.561,24.627 17.561,25.18 L17.561,29.427 C17.561,29.98 18.009,30.427 18.561,30.427 L18.561,30.427 Z M19.561,18.517 L21.808,18.517 L21.808,16.27 L19.561,16.27 L19.561,18.517 Z M18.561,20.517 L22.808,20.517 C23.361,20.517 23.808,20.07 23.808,19.517 L23.808,15.27 C23.808,14.717 23.361,14.27 22.808,14.27 L18.561,14.27 C18.009,14.27 17.561,14.717 17.561,15.27 L17.561,19.517 C17.561,20.07 18.009,20.517 18.561,20.517 L18.561,20.517 Z M16.023,44 L39.506,44 L39.506,12.022 L16.023,12.022 L16.023,44 Z M14.022,11.023 L14.022,39.753 L11.775,39.753 L11.775,7.776 L35.259,7.776 L35.259,10.023 L15.022,10.023 C14.469,10.023 14.022,10.47 14.022,11.023 L14.022,11.023 Z M9.775,6.776 L9.775,35.978 L8,35.978 L8,4 L31.483,4 L31.483,5.776 L10.775,5.776 C10.222,5.776 9.775,6.223 9.775,6.776 L9.775,6.776 Z M40.506,10.023 L37.259,10.023 L37.259,6.776 C37.259,6.223 36.811,5.776 36.259,5.776 L33.483,5.776 L33.483,3 C33.483,2.448 33.036,2 32.483,2 L7,2 C6.447,2 6,2.448 6,3 L6,36.978 C6,37.531 6.447,37.978 7,37.978 L9.775,37.978 L9.775,40.753 C9.775,41.306 10.222,41.753 10.775,41.753 L14.022,41.753 L14.022,45 C14.022,45.553 14.469,46 15.022,46 L40.506,46 C41.058,46 41.506,45.553 41.506,45 L41.506,11.023 C41.506,10.47 41.058,10.023 40.506,10.023 L40.506,10.023 Z" id="Amazon-Elastic-Container-Service_Service_Resource-Icon_light-bg" class="aws_orange"></path>
      </g>
  	</svg>

    <marker id="arrowhead" markerWidth="7" markerHeight="4.9" refX="0" refY="2.45" orient="auto">
      <polygon fill="currentColor" points="0 0, 7 2.45, 0 4.9"/>
    </marker>

    <path d="M 78 24 L 190 24" stroke="currentColor"
    stroke-width="1.75" fill="none"  marker-end="url(#arrowhead)" />
  	<text x="139" y="36" text-anchor="middle" class="process">
  		<tspan x="139" dy="0em">all events</tspan>
  	</text>

    <path d="M 257 24 L 364 24" stroke="currentColor"
    stroke-width="1.75" fill="none"  marker-end="url(#arrowhead)" />

  	<text x="308" y="36" text-anchor="middle" class="process">
  		<tspan x="308" dy="0em">“can’t start tasks”</tspan>
      <tspan x="308" dy="1.2em">events only</tspan>
  	</text>

  	<text x="229" y="48" dy="12" class="service">CloudWatch rule</text>

  	<svg x="205" y="0">
      <g id="Icon-Resource/Managment-Governance/Res_Amazon-Cloudwatch_Rule_48" stroke="none" stroke-width="1" fill="none" fill-rule="evenodd">
          <path d="M2.042,2 L2.042,14.473 L13.06,14.497 L15.725,17.13 L45.967,17.079 L45.951,4.607 L16.537,4.607 L13.888,2 L2.042,2 Z M13.882,12.499 L4.043,12.477 L4.043,4 L13.07,4 L15.719,6.607 L43.953,6.607 L43.965,15.082 L16.546,15.127 L13.882,12.499 Z M37.94,9.454 L36.048,7.556 L34.631,8.968 L36.526,10.868 L34.624,12.77 L36.038,14.184 L37.938,12.285 L39.838,14.192 L41.254,12.78 L39.352,10.871 L41.253,8.969 L39.839,7.555 L37.94,9.454 Z M2,15.968 L2,28.468 L13.061,28.468 L15.71,31.09 L45.96,31.076 L45.945,18.617 L16.528,18.607 L13.948,15.968 L2,15.968 Z M4,17.968 L13.106,17.968 L15.687,20.607 L43.947,20.617 L43.959,29.076 L16.533,29.09 L13.883,26.468 L4,26.468 L4,17.968 Z M35.419,25.276 L34.299,24.158 L32.885,25.572 L35.297,27.985 L41.229,23.023 L39.946,21.49 L35.419,25.276 Z M2,29.95 L2,42.451 L13.084,42.438 L15.741,45.022 L45.951,45.074 L45.96,32.586 L16.532,32.587 L13.819,29.95 L2,29.95 Z M4,31.95 L13.007,31.95 L15.719,34.588 L43.959,34.585 L43.953,43.07 L16.555,43.024 L13.895,40.438 L4,40.449 L4,31.95 Z M35.179,39.211 L34.06,38.093 L32.646,39.507 L35.058,41.92 L40.99,36.958 L39.706,35.424 L35.179,39.211 Z" id="Amazon-Cloudwatch_rule_Resource-Icon_light-bg" class="aws_pink"></path>
      </g>
  	</svg>

  	<text x="404" y="48" dy="12" class="service">Lambda function</text>

  	<svg x="380" y="0">
      <g id="Icon-Resource/Compute/Res_Amazon-Lambda_Lambda-Function_48"  stroke="none" stroke-width="1" fill="none" fill-rule="evenodd">
        <path d="M24,44 C12.972,44 4,35.028 4,24 C4,12.972 12.972,4 24,4 C35.028,4 44,12.972 44,24 C44,35.028 35.028,44 24,44 L24,44 Z M24,2 C11.869,2 2,11.869 2,24 C2,36.131 11.869,46 24,46 C36.131,46 46,36.131 46,24 C46,11.869 36.131,2 24,2 L24,2 Z M17.231,35.25 L11.876,35.25 L18.221,21.959 L20.902,27.492 L17.231,35.25 Z M19.114,19.215 C18.946,18.87 18.597,18.651 18.214,18.651 L18.211,18.651 C17.826,18.652 17.477,18.874 17.312,19.221 L9.389,35.819 C9.24,36.129 9.262,36.493 9.445,36.783 C9.628,37.074 9.947,37.25 10.291,37.25 L17.864,37.25 C18.251,37.25 18.603,37.027 18.769,36.678 L22.915,27.915 C23.044,27.642 23.043,27.323 22.911,27.051 L19.114,19.215 Z M36.125,35.25 L30.673,35.25 L20.761,13.953 C20.597,13.601 20.243,13.375 19.854,13.375 L16.251,13.375 L16.255,9.25 L23.475,9.25 L33.339,30.545 C33.503,30.898 33.856,31.125 34.246,31.125 L36.125,31.125 L36.125,35.25 Z M37.125,29.125 L34.885,29.125 L25.021,7.83 C24.856,7.477 24.503,7.25 24.113,7.25 L15.256,7.25 C14.704,7.25 14.257,7.697 14.256,8.249 L14.25,14.374 C14.25,14.64 14.355,14.894 14.543,15.082 C14.73,15.27 14.984,15.375 15.25,15.375 L19.217,15.375 L29.129,36.672 C29.293,37.024 29.646,37.25 30.035,37.25 L37.125,37.25 C37.678,37.25 38.125,36.803 38.125,36.25 L38.125,30.125 C38.125,29.572 37.678,29.125 37.125,29.125 L37.125,29.125 Z" id="Amazon-Lambda-Lambda-Function_Resource-Icon_light-bg" class="aws_orange"></path>
      </g>
  	</svg>

  	<text x="493" y="36" text-anchor="middle" class="process">
  		<tspan x="493" dy="0em">POST request to</tspan>
      <tspan x="493" dy="1.2em">Slack webhook</tspan>
  	</text>

    <path d="M 434 24 L 543 24" stroke="currentColor"
    stroke-width="1.75" fill="none"  marker-end="url(#arrowhead)" />

    <text x="578" y="48" dy="12" class="service">Slack channel</text>

  	<svg x="539" y="-16">
      <g transform="scale(0.3)">
        <g>
        	<g>
        		<path class="slack0" d="M99.4,151.2c0,7.1-5.8,12.9-12.9,12.9c-7.1,0-12.9-5.8-12.9-12.9c0-7.1,5.8-12.9,12.9-12.9h12.9V151.2z"/>
        		<path class="slack0" d="M105.9,151.2c0-7.1,5.8-12.9,12.9-12.9s12.9,5.8,12.9,12.9v32.3c0,7.1-5.8,12.9-12.9,12.9
        			s-12.9-5.8-12.9-12.9V151.2z"/>
        	</g>
        	<g>
        		<path class="slack1" d="M118.8,99.4c-7.1,0-12.9-5.8-12.9-12.9c0-7.1,5.8-12.9,12.9-12.9s12.9,5.8,12.9,12.9v12.9H118.8z"/>
        		<path class="slack1" d="M118.8,105.9c7.1,0,12.9,5.8,12.9,12.9s-5.8,12.9-12.9,12.9H86.5c-7.1,0-12.9-5.8-12.9-12.9
        			s5.8-12.9,12.9-12.9H118.8z"/>
        	</g>
        	<g>
        		<path class="slack2" d="M170.6,118.8c0-7.1,5.8-12.9,12.9-12.9c7.1,0,12.9,5.8,12.9,12.9s-5.8,12.9-12.9,12.9h-12.9V118.8z"/>
        		<path class="slack2" d="M164.1,118.8c0,7.1-5.8,12.9-12.9,12.9c-7.1,0-12.9-5.8-12.9-12.9V86.5c0-7.1,5.8-12.9,12.9-12.9
        			c7.1,0,12.9,5.8,12.9,12.9V118.8z"/>
        	</g>
        	<g>
        		<path class="slack3" d="M151.2,170.6c7.1,0,12.9,5.8,12.9,12.9c0,7.1-5.8,12.9-12.9,12.9c-7.1,0-12.9-5.8-12.9-12.9v-12.9H151.2z"/>
        		<path class="slack3" d="M151.2,164.1c-7.1,0-12.9-5.8-12.9-12.9c0-7.1,5.8-12.9,12.9-12.9h32.3c7.1,0,12.9,5.8,12.9,12.9
        			c0,7.1-5.8,12.9-12.9,12.9H151.2z"/>
        	</g>
        </g>
      </g>
    </svg>
  </svg>
</svg>
