<svg width="30px" height="30px" version="1.1" viewBox="0 0 2000 2000" xmlns="http://www.w3.org/2000/svg"><circle cx="1000" cy="1000" r="1000" class="background"/><svg x="400" y="400"><path fill="white" d="m204 30c-63.602 0-115.2 51.602-115.2 115.2 0 63.602 51.602 115.2 115.2 115.2 405.6 0 734.4 328.8 734.4 734.4 0 63.602 51.602 115.2 115.2 115.2 63.602 0 115.2-51.602 115.2-115.2 1.2031-531.6-432-964.8-964.8-964.8z"/><path fill="white" d="m204 426c-63.602 0-115.2 51.602-115.2 115.2 0 63.602 51.602 115.2 115.2 115.2 187.2 0 339.6 151.2 339.6 338.4 0 63.602 51.602 115.2 115.2 115.2 63.602 0 115.2-51.602 115.2-115.2 0-313.2-255.6-568.8-570-568.8z"/><path fill="white" d="m204 822c-96 0-174 78-174 172.8 0 97.199 78 175.2 174 175.2s175.2-78 175.2-175.2c-1.1992-94.801-79.199-172.8-175.2-172.8z"/></svg></svg>