<svg viewBox="0 0 440 220" xmlns="http://www.w3.org/2000/svg">
  <defs>
    <style>
      line {
        stroke: #aaa;
        stroke-width: 2;
      }
    </style>

  </defs>

  <title>An illustration of a circular arc. There's a grey dashed circle, with a vertical line from the centre denoting zero degrees. Going clockwise, there's a blue angle labelled "start", then a green angle labelled "sweep". Along the dashed circle is a thick black arc that follows the sweep angle.</title>

  <!-- <svg x="110" y="-18">
    <path d="M 240 28 L 256 28 M 248 28 L 242 34 M 248 28 L 254 34 M 248 28 L 248 138 M 240 138 L 256 138 M 248 138 L 242 132 M 248 138 L 254 132" stroke="#aaa" stroke-width="1.5"/>
  </svg> -->

  <svg x="100">
    <circle cx="110" cy="110" r="100" stroke-dasharray="3 3" stroke="#aaa" fill="none" stroke-width="2.5"/>

    <circle cx="110" cy="110" r="10" fill="#aaa" style="stroke: none; fill: #aaa;"/>

    <line x1="110" y1="110" x2="110" y2="10"  stroke-dasharray="3 3" style="stroke-width: 2.5"/>


    <!-- x = c_x + r sin(40), y = c_y - r cos(40) -->
    <line x1="110" y1="110" x2="174.27876097" y2="33.39555569"  stroke-dasharray="3 3"  style="stroke-width: 2.5"/>

    <!-- x = c_x + r sin(140), y = c_y - r cos(140) -->
    <line x1="110" y1="110" x2="174.27876097" y2="186.60444431"  stroke-dasharray="3 3" style="stroke-width: 2.5"/>

    <!-- start angle / blue -->
    <!-- radius = 55, 0 to 40 deg -->
    <path d="M 110 110 L 110 55 A 55 55 -90 0 1 145 68 Z" stroke="blue" fill="rgba(0, 0, 255, 0.4)" stroke-linejoin="round" stroke-width="3"/>

    <!-- end angle / green -->
    <!-- radius = 40, 40 to 140 deg -->
    <path d="M 110 110 L  136 79 A 40 40 -50 0 1 136 141 Z" stroke="green" fill="rgba(0, 255, 0, 0.4)" stroke-linejoin="round" stroke-width="3" />

    <path d="M 174 33 A 100 100 -50 0 1 174 187" stroke="black" fill="none" stroke-width="10"/>

    <path d="M 200 100 L 210 110 L 220 100" stroke="black" fill="none" stroke-width="7" stroke-linecap="round"/>
  </svg>
</svg>
