<svg viewBox="0 0 50 50" xmlns="http://www.w3.org/2000/svg">
<title></title>
<line x2="10" y2="10" x1="10" y1="20" stroke="#aaa" stroke-width="1" stroke-linecap="round"/>
<line x2="10" y2="10" x1="20" y1="10" stroke="#aaa" stroke-width="1" stroke-linecap="round"/>
<line x2="10" y2="20" x1="20" y1="20" stroke="#aaa" stroke-width="1" stroke-linecap="round"/>
<line x2="10" y2="20" x1="10" y1="30" stroke="#aaa" stroke-width="1" stroke-linecap="round"/>
<line x2="20" y2="20" x1="20" y1="30" stroke="#aaa" stroke-width="1" stroke-linecap="round"/>
<line x2="20" y2="20" x1="30" y1="20" stroke="#aaa" stroke-width="1" stroke-linecap="round"/>
<line x2="10" y2="30" x1="10" y1="40" stroke="#aaa" stroke-width="1" stroke-linecap="round"/>
<line x2="20" y2="30" x1="30" y1="30" stroke="#aaa" stroke-width="1" stroke-linecap="round"/>
<line x2="10" y2="40" x1="20" y1="40" stroke="#aaa" stroke-width="1" stroke-linecap="round"/>
<line x2="20" y2="40" x1="30" y1="40" stroke="#aaa" stroke-width="1" stroke-linecap="round"/>
<line x2="30" y2="10" x1="30" y1="20" stroke="#aaa" stroke-width="1" stroke-linecap="round"/>
<line x2="30" y2="30" x1="40" y1="30" stroke="#aaa" stroke-width="1" stroke-linecap="round"/>
<line x2="40" y2="10" x1="40" y1="20" stroke="#aaa" stroke-width="1" stroke-linecap="round"/>
<line x2="40" y2="20" x1="40" y1="30" stroke="#aaa" stroke-width="1" stroke-linecap="round"/>
<line x2="40" y2="30" x1="40" y1="40" stroke="#aaa" stroke-width="1" stroke-linecap="round"/>
</svg>
