<?xml version="1.0" encoding="UTF-8"?>
<svg width="1000px" height="500px" viewBox="0 0 180 90" version="1.1" xmlns="http://www.w3.org/2000/svg" xmlns:xlink="http://www.w3.org/1999/xlink">
    <!-- Generator: Sketch 64 (93537) - https://sketch.com -->
    <title>Icon-Architecture/64/Arch_Amazon-Route-53_64</title>
    <desc>Created with Sketch.</desc>
    <defs>
        <linearGradient x1="0%" y1="100%" x2="100%" y2="0%" id="linearGradient-1">
            <stop stop-color="#4D27A8" offset="0%"></stop>
            <stop stop-color="#A166FF" offset="100%"></stop>
        </linearGradient>
    </defs>

    <svg x="50" y="10">
      <g id="Icon-Architecture/64/Arch_Amazon-Route-53_64" stroke="none" stroke-width="1" fill="none" fill-rule="evenodd">
          <g id="Icon-Architecture-BG/64/Networking-Content-Delivery" fill="url(#linearGradient-1)">
              <rect id="Rectangle" x="0" y="0" width="80" height="80"></rect>
          </g>
          <path d="M51.957,54.37777 C47.103,55.250105 42.852,57.2268639 40,58.8374822 C37.147,57.2268639 32.896,55.250105 28.043,54.37777 C26.677,54.1326759 19.869,52.7111302 19.869,48.7756192 C19.869,46.951919 20.522,45.7424547 21.776,43.5826255 C23.274,40.9996338 25.138,37.7843994 25.138,33.1556222 C25.138,29.8473521 24.271,26.6751342 22.559,23.7149977 C22.76,23.4669025 22.965,23.2158061 23.171,22.9627089 C25.707,24.2301955 28.347,24.8724421 31.031,24.8724421 C34.311,24.8724421 37.325,24.0111114 40,22.3114589 C42.674,24.0111114 45.688,24.8724421 48.968,24.8724421 C51.652,24.8724421 54.293,24.2301955 56.829,22.9627089 C57.034,23.2158061 57.239,23.4669025 57.44,23.7149977 C55.728,26.6751342 54.861,29.8473521 54.861,33.1556222 C54.861,37.7843994 56.725,40.9996338 58.226,43.586627 C59.477,45.7424547 60.13,46.951919 60.13,48.7756192 C60.13,52.7111302 53.322,54.1326759 51.957,54.37777 M56.861,33.1556222 C56.861,29.9974097 57.752,26.9702475 59.507,24.1581679 C59.735,23.7950284 59.706,23.3278491 59.434,22.9957216 C58.926,22.3734827 58.393,21.7182311 57.867,21.0669811 C57.562,20.6898363 57.032,20.5857963 56.606,20.8198862 C54.143,22.1814089 51.574,22.8716739 48.968,22.8716739 C45.824,22.8716739 43.077,22.0263494 40.569,20.2886823 C40.227,20.0515912 39.772,20.0515912 39.43,20.2886823 C36.922,22.0263494 34.175,22.8716739 31.031,22.8716739 C28.425,22.8716739 25.856,22.1814089 23.393,20.8198862 C22.968,20.5857963 22.437,20.6898363 22.132,21.0669811 C21.606,21.7182311 21.073,22.3734827 20.565,22.9957216 C20.294,23.3278491 20.264,23.7950284 20.492,24.1581679 C22.248,26.9702475 23.138,29.9974097 23.138,33.1556222 C23.138,37.2461927 21.423,40.2023277 20.045,42.581241 C18.695,44.9041328 17.869,46.4467251 17.869,48.7756192 C17.869,54.1646882 25.385,55.9343677 27.689,56.3475263 C32.549,57.2208616 36.793,59.2806524 39.497,60.8542565 C39.652,60.9452915 39.826,60.9903088 40,60.9903088 C40.173,60.9903088 40.347,60.9452915 40.503,60.8542565 C43.207,59.2806524 47.45,57.2208616 52.31,56.3475263 C54.614,55.9343677 62.13,54.1646882 62.13,48.7756192 C62.13,46.4467251 61.304,44.9041328 59.954,42.5782399 C58.576,40.2023277 56.861,37.2461927 56.861,33.1556222 M52.994,60.1569888 C46.863,61.2594121 41.723,64.556678 40,65.7641416 C38.276,64.556678 33.136,61.2594121 27.005,60.1569888 C14.937,57.9891566 14,50.8974338 14,48.7756192 C14,45.2852792 15.371,42.9233724 16.697,40.6374948 C17.961,38.4596586 19.268,36.2067937 19.268,33.1556222 C19.268,28.3357718 16.485,24.9314648 15.112,23.5459328 C16.556,21.7892584 20.204,17.3415508 22.003,15.0236609 C24.729,17.5966487 27.898,19.0001876 31.031,19.0001876 C34.509,19.0001876 37.385,17.5846441 40,14.5644846 C42.614,17.5846441 45.49,19.0001876 48.968,19.0001876 C52.101,19.0001876 55.27,17.5966487 57.997,15.0236609 C59.796,17.3415508 63.443,21.7892584 64.887,23.5459328 C63.514,24.9314648 60.731,28.3357718 60.731,33.1556222 C60.731,36.2067937 62.039,38.4596586 63.302,40.6374948 C64.629,42.9233724 66,45.2852792 66,48.7756192 C66,50.8974338 65.062,57.9891566 52.994,60.1569888 M65.032,39.6341095 C63.797,37.5052922 62.731,35.6675867 62.731,33.1556222 C62.731,27.867592 66.847,24.4472789 66.887,24.4152666 C67.094,24.2472021 67.226,24.0031083 67.254,23.7370062 C67.28,23.470904 67.2,23.2058022 67.03,22.9997231 C66.963,22.9196924 60.408,14.9726413 58.906,12.9138509 C58.73,12.6727583 58.457,12.5227007 58.159,12.5046938 C57.86,12.4826853 57.572,12.601731 57.368,12.8198148 C54.848,15.5148495 51.866,16.9994194 48.968,16.9994194 C45.764,16.9994194 43.244,15.5718713 40.794,12.3706423 C40.415,11.8764526 39.585,11.8764526 39.206,12.3706423 C36.755,15.5718713 34.235,16.9994194 31.031,16.9994194 C28.133,16.9994194 25.151,15.5148495 22.631,12.8198148 C22.427,12.601731 22.137,12.4776834 21.84,12.5046938 C21.543,12.5227007 21.269,12.6727583 21.093,12.9138509 C19.591,14.9726413 13.036,22.9196924 12.969,22.9997231 C12.8,23.2058022 12.72,23.470904 12.747,23.7360058 C12.773,24.0011076 12.904,24.2452013 13.11,24.4132658 C13.152,24.4472789 17.268,27.867592 17.268,33.1556222 C17.268,35.6675867 16.202,37.5052922 14.967,39.6341095 C13.576,42.0310298 12,44.7470725 12,48.7756192 C12,55.487196 17.477,60.4781121 26.652,62.1267451 C33.559,63.3682217 39.334,67.7489036 39.391,67.7939209 C39.57,67.9309735 39.785,68 40,68 C40.214,68 40.429,67.9309735 40.609,67.7929205 C40.667,67.7489036 46.422,63.3712229 53.347,62.1267451 C62.522,60.4781121 68,55.487196 68,48.7756192 C68,44.7470725 66.423,42.0310298 65.032,39.6341095" id="Amazon-Route-53-Icon_64_Squid" fill="#FFFFFF"></path>
      </g>
    </svg>

    <svg x="78" y="38">
      <g id="Icon-Resource/General-Resource/Res_Question_48" stroke="none" stroke-width="1" fill="none" fill-rule="evenodd" transform="scale(0.5)">
          <path d="M24.684,43.34 C24.174,43.864 23.509,44.119 22.652,44.119 C21.794,44.119 21.129,43.864 20.619,43.34 C20.101,42.808 19.849,42.127 19.849,41.258 C19.849,40.39 20.101,39.709 20.619,39.177 C21.129,38.652 21.794,38.397 22.652,38.397 C23.509,38.397 24.173,38.652 24.684,39.177 C25.203,39.71 25.455,40.391 25.455,41.258 C25.455,42.126 25.203,42.807 24.684,43.34 M22.652,36.397 C21.246,36.397 20.08,36.862 19.185,37.782 C18.298,38.694 17.849,39.862 17.849,41.258 C17.849,42.653 18.298,43.823 19.186,44.736 C20.08,45.653 21.246,46.119 22.652,46.119 C24.058,46.119 25.224,45.653 26.118,44.735 C27.004,43.822 27.455,42.653 27.455,41.258 C27.455,39.863 27.004,38.694 26.118,37.782 C25.224,36.863 24.058,36.397 22.652,36.397 M32.006,18.793 C30.463,20.618 27.967,22.32 24.587,23.852 C24.23,24.014 24,24.37 24,24.763 L24,31.134 L21.174,31.134 L20.74,23.314 L22.825,22.266 C25.487,20.949 27.376,19.639 28.6,18.26 C29.887,16.811 30.539,15.121 30.539,13.237 C30.539,11.187 29.884,9.584 28.591,8.472 C27.341,7.4 25.546,6.856 23.254,6.856 C21.732,6.856 20.181,7.075 18.648,7.507 C17.539,7.819 16.317,8.272 15,8.857 L15,6.389 C17.872,4.803 20.959,4 24.186,4 C27.373,4 29.882,4.783 31.645,6.326 C33.394,7.859 34.244,9.928 34.244,12.653 C34.244,15.004 33.512,17.013 32.006,18.793 M32.963,4.822 C30.825,2.949 27.872,2 24.186,2 C20.413,2 16.815,2.991 13.494,4.945 C13.188,5.125 13,5.453 13,5.808 L13,10.43 C13,10.776 13.179,11.096 13.472,11.278 C13.765,11.461 14.132,11.48 14.442,11.327 C16.205,10.46 17.803,9.822 19.19,9.433 C20.547,9.05 21.914,8.856 23.254,8.856 C25.054,8.856 26.412,9.237 27.288,9.988 C28.13,10.713 28.539,11.776 28.539,13.237 C28.539,14.636 28.07,15.845 27.104,16.932 C26.069,18.098 24.33,19.289 21.932,20.476 L19.255,21.821 C18.9,22 18.684,22.373 18.706,22.771 L19.23,32.19 C19.259,32.719 19.698,33.134 20.228,33.134 L25,33.134 C25.553,33.134 26,32.687 26,32.134 L26,25.402 C29.359,23.814 31.891,22.027 33.534,20.084 C35.331,17.958 36.244,15.457 36.244,12.653 C36.244,9.364 35.14,6.73 32.963,4.822" id="Fill-1" fill="#FFFFFF"></path>
      </g>
    </svg>
</svg>