<svg viewBox="0 0 330 160" xmlns="http://www.w3.org/2000/svg" width="1000px" height="500px">
  <!--
    Intentionally omit the alt text on promos, so screen reader users
    don't have to listen to the alt text before hearing the title
    of the item in the list.

    See https://github.com/wellcomecollection/wellcomecollection.org/issues/6007
  -->
  <title></title>

  <defs>
    <style>
      path.autoscaling {
        stroke: #222;
        stroke-width: 2;
        stroke-linecap: round;
      }
    </style>
  </defs>

  <marker id="arrowhead" markerWidth="7" markerHeight="4.9" refX="0" refY="2.45" orient="auto">
    <polygon fill="#000" points="0 0, 7 2.45, 0 4.9"/>
  </marker>

  <path class="autoscaling" d="M 44 110 q 0 -41 31 -41" stroke="black"
  stroke-width="1.75" fill="none"  marker-end="url(#arrowhead)" />

	<svg x="20" y="105">
    <g id="Icon-Resource/Application-Integration/Res_Amazon-Simple-Notification-Service_Queue_48" stroke="none" stroke-width="1" fill="none" fill-rule="evenodd">
      <path d="M37.449,22.261 L37.449,26.221 L35.026,24.207 L37.449,22.261 Z M37.81,29.121 C37.993,29.273 38.22,29.352 38.449,29.352 C38.594,29.352 38.738,29.321 38.874,29.257 C39.224,29.092 39.449,28.74 39.449,28.352 L39.449,20.176 C39.449,19.791 39.228,19.441 38.882,19.275 C38.535,19.108 38.123,19.156 37.823,19.397 L32.819,23.414 C32.585,23.602 32.448,23.885 32.4449503,24.185 C32.442,24.486 32.575,24.771 32.806,24.963 L37.81,29.121 Z M10.527,22.307 L12.951,24.322 L10.527,26.267 L10.527,22.307 Z M9.095,29.253 C9.232,29.32 9.38,29.352 9.527,29.352 C9.751,29.352 9.972,29.277 10.153,29.132 L15.158,25.115 C15.392,24.927 15.529,24.644 15.5320497,24.344 C15.535,24.043 15.402,23.758 15.171,23.566 L10.166,19.407 C9.868,19.16 9.453,19.107 9.102,19.271 C8.752,19.436 8.527,19.788 8.527,20.176 L8.527,28.352 C8.527,28.737 8.748,29.087 9.095,29.253 L9.095,29.253 Z M28.368,34.027 L30.368,34.027 L30.368,14.747 L28.368,14.747 L28.368,34.027 Z M23.121,34.027 L25.121,34.027 L25.121,14.747 L23.121,14.747 L23.121,34.027 Z M17.711,34.027 L19.711,34.027 L19.711,14.747 L17.711,14.747 L17.711,34.027 Z M3.999,35.773 L43.977,35.773 L43.977,13.001 L3.999,13.001 L3.999,35.773 Z M44.977,11 L3,11 C2.447,11 2,11.448 2,12 L2,36.773 C2,37.325 2.447,37.773 3,37.773 L44.977,37.773 C45.53,37.773 45.977,37.325 45.977,36.773 L45.977,12 C45.977,11.448 45.53,11 44.977,11 L44.977,11 Z" id="Amazon-Simple-Notification-Service_Queue" fill="#B0084D"></path>
    </g>
	</svg>

	<svg x="90" y="35">
    <g id="Icon-Resource/Managment-Governance/Res_Amazon-Cloudwatch_Alarm_48" stroke="none" stroke-width="1" fill="none" fill-rule="evenodd">
        <path d="M41.4246,40.6675 L34.6366,40.6675 L34.6366,9.1515 L41.4246,9.1515 L41.4246,40.6675 Z M32.6366,8.1515 L32.6366,41.6675 C32.6366,42.2205 33.0836,42.6675 33.6366,42.6675 L42.4246,42.6675 C42.9776,42.6675 43.4246,42.2205 43.4246,41.6675 L43.4246,8.1515 C43.4246,7.5985 42.9776,7.1515 42.4246,7.1515 L33.6366,7.1515 C33.0846,7.1515 32.6366,7.5985 32.6366,8.1515 Z M2.0006,46.1835 L45.9406,46.1835 L45.9406,44.1835 L2.0006,44.1835 L2.0006,46.1835 Z M20.5756,40.6675 L27.3636,40.6675 L27.3636,27.7285 L20.5756,27.7285 L20.5756,40.6675 Z M19.5756,42.6675 L28.3636,42.6675 C28.9166,42.6675 29.3636,42.2205 29.3636,41.6675 L29.3636,26.7285 C29.3636,26.1755 28.9166,25.7285 28.3636,25.7285 L19.5756,25.7285 C19.0236,25.7285 18.5756,26.1755 18.5756,26.7285 L18.5756,41.6675 C18.5756,42.2205 19.0236,42.6675 19.5756,42.6675 L19.5756,42.6675 Z M6.5156,40.6675 L13.3036,40.6675 L13.3036,23.3345 L6.5156,23.3345 L6.5156,40.6675 Z M5.5156,42.6675 L14.3036,42.6675 C14.8566,42.6675 15.3036,42.2205 15.3036,41.6675 L15.3036,22.3345 C15.3036,21.7815 14.8566,21.3345 14.3036,21.3345 L5.5156,21.3345 C4.9626,21.3345 4.5156,21.7815 4.5156,22.3345 L4.5156,41.6675 C4.5156,42.2205 4.9626,42.6675 5.5156,42.6675 L5.5156,42.6675 Z" id="Amazon-Cloudwatch_alarm_Resource-Icon_light-bg" fill="#B0084D"></path>
    </g>
	</svg>

	<svg x="210" y="35">
    <g id="Icon-Resource/Managment-Governance/Res_Amazon-Cloudwatch_Alarm_48" stroke="none" stroke-width="1" fill="none" fill-rule="evenodd">
        <path d="M41.4246,40.6675 L34.6366,40.6675 L34.6366,19.8305 C36.8216,20.5265 39.2386,20.5265 41.4246,19.8305 L41.4246,40.6675 Z M41.9946,17.4595 C39.4996,18.6475 36.5596,18.6465 34.0666,17.4595 C33.7586,17.3125 33.3946,17.3335 33.1026,17.5165 C32.8126,17.6995 32.6366,18.0185 32.6366,18.3615 L32.6366,41.6675 C32.6366,42.2205 33.0836,42.6675 33.6366,42.6675 L42.4246,42.6675 C42.9776,42.6675 43.4246,42.2205 43.4246,41.6675 L43.4246,18.3615 C43.4246,18.0185 43.2486,17.6995 42.9586,17.5165 C42.6676,17.3335 42.3036,17.3115 41.9946,17.4595 L41.9946,17.4595 Z M38.0306,4.0005 C40.8716,4.0005 43.1826,6.3115 43.1826,9.1515 C43.1826,11.9925 40.8716,14.3035 38.0306,14.3035 C35.1906,14.3035 32.8796,11.9925 32.8796,9.1515 C32.8796,6.3115 35.1906,4.0005 38.0306,4.0005 L38.0306,4.0005 Z M38.0306,16.3035 C41.9746,16.3035 45.1826,13.0955 45.1826,9.1515 C45.1826,5.2085 41.9746,2.0005 38.0306,2.0005 C34.0876,2.0005 30.8796,5.2085 30.8796,9.1515 C30.8796,13.0955 34.0876,16.3035 38.0306,16.3035 L38.0306,16.3035 Z M2.0006,46.1835 L45.9406,46.1835 L45.9406,44.1835 L2.0006,44.1835 L2.0006,46.1835 Z M20.5756,40.6675 L27.3636,40.6675 L27.3636,27.7285 L20.5756,27.7285 L20.5756,40.6675 Z M19.5756,42.6675 L28.3636,42.6675 C28.9166,42.6675 29.3636,42.2205 29.3636,41.6675 L29.3636,26.7285 C29.3636,26.1755 28.9166,25.7285 28.3636,25.7285 L19.5756,25.7285 C19.0236,25.7285 18.5756,26.1755 18.5756,26.7285 L18.5756,41.6675 C18.5756,42.2205 19.0236,42.6675 19.5756,42.6675 L19.5756,42.6675 Z M6.5156,40.6675 L13.3036,40.6675 L13.3036,23.3345 L6.5156,23.3345 L6.5156,40.6675 Z M5.5156,42.6675 L14.3036,42.6675 C14.8566,42.6675 15.3036,42.2205 15.3036,41.6675 L15.3036,22.3345 C15.3036,21.7815 14.8566,21.3345 14.3036,21.3345 L5.5156,21.3345 C4.9626,21.3345 4.5156,21.7815 4.5156,22.3345 L4.5156,41.6675 C4.5156,42.2205 4.9626,42.6675 5.5156,42.6675 L5.5156,42.6675 Z" id="Amazon-Cloudwatch_alarm_Resource-Icon_light-bg" fill="#B0084D"></path>
    </g>
	</svg>

  <marker id="arrowhead" markerWidth="7" markerHeight="4.9" refX="0" refY="2.45" orient="auto">
    <polygon fill="#000" points="0 0, 7 2.45, 0 4.9"/>
  </marker>

  <path class="autoscaling" d="M 73 129 L 255 129" stroke="black"
  stroke-width="1.75" fill="none"  marker-end="url(#arrowhead)" />

  <path class="autoscaling" d="M 142 67 L 195 67" stroke="black"
  stroke-width="1.75" fill="none"  marker-end="url(#arrowhead)" />

  <path class="autoscaling" d="M 262 67 q 32 0 32 20" stroke="black"
  stroke-width="1.75" fill="none"  marker-end="url(#arrowhead)" />

	<svg x="270" y="105">
    <g id="Icon-Resource/Containers/Res_Amazon-Elastic-Container-Service_Service_48" stroke="none" stroke-width="1" fill="none" fill-rule="evenodd">
        <path d="M24.933,38.213 L37.674,38.213 L37.674,36.213 L24.933,36.213 L24.933,38.213 Z M24.933,28.303 L37.674,28.303 L37.674,26.303 L24.933,26.303 L24.933,28.303 Z M24.933,18.393 L37.674,18.393 L37.674,16.393 L24.933,16.393 L24.933,18.393 Z M19.561,38.337 L21.808,38.337 L21.808,36.09 L19.561,36.09 L19.561,38.337 Z M18.561,40.337 L22.808,40.337 C23.361,40.337 23.808,39.89 23.808,39.337 L23.808,35.09 C23.808,34.537 23.361,34.09 22.808,34.09 L18.561,34.09 C18.009,34.09 17.561,34.537 17.561,35.09 L17.561,39.337 C17.561,39.89 18.009,40.337 18.561,40.337 L18.561,40.337 Z M19.561,28.427 L21.808,28.427 L21.808,26.18 L19.561,26.18 L19.561,28.427 Z M18.561,30.427 L22.808,30.427 C23.361,30.427 23.808,29.98 23.808,29.427 L23.808,25.18 C23.808,24.627 23.361,24.18 22.808,24.18 L18.561,24.18 C18.009,24.18 17.561,24.627 17.561,25.18 L17.561,29.427 C17.561,29.98 18.009,30.427 18.561,30.427 L18.561,30.427 Z M19.561,18.517 L21.808,18.517 L21.808,16.27 L19.561,16.27 L19.561,18.517 Z M18.561,20.517 L22.808,20.517 C23.361,20.517 23.808,20.07 23.808,19.517 L23.808,15.27 C23.808,14.717 23.361,14.27 22.808,14.27 L18.561,14.27 C18.009,14.27 17.561,14.717 17.561,15.27 L17.561,19.517 C17.561,20.07 18.009,20.517 18.561,20.517 L18.561,20.517 Z M16.023,44 L39.506,44 L39.506,12.022 L16.023,12.022 L16.023,44 Z M14.022,11.023 L14.022,39.753 L11.775,39.753 L11.775,7.776 L35.259,7.776 L35.259,10.023 L15.022,10.023 C14.469,10.023 14.022,10.47 14.022,11.023 L14.022,11.023 Z M9.775,6.776 L9.775,35.978 L8,35.978 L8,4 L31.483,4 L31.483,5.776 L10.775,5.776 C10.222,5.776 9.775,6.223 9.775,6.776 L9.775,6.776 Z M40.506,10.023 L37.259,10.023 L37.259,6.776 C37.259,6.223 36.811,5.776 36.259,5.776 L33.483,5.776 L33.483,3 C33.483,2.448 33.036,2 32.483,2 L7,2 C6.447,2 6,2.448 6,3 L6,36.978 C6,37.531 6.447,37.978 7,37.978 L9.775,37.978 L9.775,40.753 C9.775,41.306 10.222,41.753 10.775,41.753 L14.022,41.753 L14.022,45 C14.022,45.553 14.469,46 15.022,46 L40.506,46 C41.058,46 41.506,45.553 41.506,45 L41.506,11.023 C41.506,10.47 41.058,10.023 40.506,10.023 L40.506,10.023 Z" id="Amazon-Elastic-Container-Service_Service_Resource-Icon_light-bg" fill="#D45B07"></path>
    </g>
	</svg>
</svg>
