<?xml version="1.0" encoding="UTF-8"?>
<svg width="50px" height="50px" fill='#f0f0f0' version="1.1" viewBox="0 0 1200 1200" xmlns="http://www.w3.org/2000/svg">
 <path d="m912 482.4c1.1992-12 2.3984-24 2.3984-36 0-83.383-33.121-163.35-92.086-222.31-58.961-58.961-138.93-92.086-222.31-92.086s-163.35 33.125-222.31 92.086c-58.965 58.961-92.086 138.93-92.086 222.31 0 12 1.1992 24 2.3984 36-59.496 34.895-105.86 88.379-131.96 152.22-26.102 63.84-30.484 134.49-12.477 201.07 18.008 66.578 57.41 125.39 112.14 167.37 54.723 41.98 121.73 64.797 190.7 64.941 53.902 0.16406 106.89-13.91 153.6-40.801 46.715 26.891 99.699 40.965 153.6 40.801 68.969-0.14453 135.98-22.961 190.7-64.941 54.727-41.977 94.129-100.79 112.14-167.37 18.008-66.578 13.625-137.23-12.477-201.07-26.102-63.844-72.469-117.33-131.96-152.22zm-554.4-36c0-64.285 25.535-125.94 70.996-171.4 45.457-45.457 107.11-70.996 171.4-70.996s125.95 25.539 171.4 70.996c45.461 45.461 70.996 107.12 70.996 171.4v6c-28.809-8.6562-58.719-13.102-88.797-13.199-53.824 0.43359-106.66 14.469-153.6 40.801-46.941-26.332-99.777-40.367-153.6-40.801-30.078 0.097656-59.988 4.543-88.797 13.199zm331.2 307.2c0.035157 35.84-7.9141 71.238-23.277 103.62-15.359 32.379-37.742 60.934-65.523 83.578-27.781-22.645-50.164-51.199-65.523-83.578-15.363-32.383-23.312-67.781-23.277-103.62 0-2.3984 1.1992-3.6016 1.1992-6 57.078 17.578 118.12 17.578 175.2 0 0 2.3984 1.1992 3.5977 1.1992 6zm-88.801-64.801c-25.766-0.097656-51.328-4.5625-75.602-13.199 14.77-42.617 40.91-80.379 75.602-109.2 34.691 28.824 60.832 66.586 75.602 109.2-24.273 8.6367-49.836 13.102-75.602 13.199zm-140.4-45.602c-41.176-29.465-72.199-70.969-88.801-118.8 24.273-8.6367 49.836-13.102 75.598-13.199 30.465 0.42188 60.578 6.5273 88.801 18-33.48 31.809-59.324 70.781-75.598 114zm205.2-114c28.223-11.473 58.336-17.578 88.801-18 25.762 0.097656 51.324 4.5625 75.598 13.199-16.602 47.832-47.625 89.336-88.801 118.8-16.273-43.219-42.117-82.191-75.598-114zm-218.4 466.8c-51.195-0.23438-101-16.676-142.28-46.961-41.277-30.285-71.906-72.863-87.496-121.63s-15.336-101.21 0.71875-149.82c16.055-48.617 47.09-90.898 88.656-120.79 25.652 67.43 73.469 124.13 135.6 160.8-1.1992 12-2.3984 24-2.3984 36h-0.003906c0.074219 42.117 8.6133 83.789 25.105 122.54 16.488 38.754 40.598 73.797 70.895 103.05-28.293 11.09-58.41 16.789-88.801 16.801zm307.2 0h0.003906c-30.391-0.011719-60.508-5.7109-88.801-16.801 30.297-29.258 54.406-64.301 70.895-103.05 16.492-38.754 25.031-80.426 25.105-122.54 0-12-1.1992-24-2.3984-36h-0.003906c62.133-36.668 109.95-93.371 135.6-160.8 41.566 29.887 72.602 72.168 88.656 120.79 16.055 48.613 16.309 101.06 0.71875 149.82s-46.219 91.344-87.496 121.63c-41.277 30.285-91.082 46.727-142.28 46.961z"/>
</svg>
