<svg xmlns="http://www.w3.org/2000/svg" xmlns:xlink="http://www.w3.org/1999/xlink" version="1.1" x="0px" y="0px" viewBox="0 0 98 98" style="enable-background:new 0 0 98 98;" xml:space="preserve" width="50px"><style type="text/css">
	.st0{fill-rule:evenodd;clip-rule:evenodd}
</style><path class="st0" fill="rgba(23, 130, 62, 0.2)" d="M30.636,61.596c-1.006,1.497-1.859,2.997-2.56,4.5c-3.046,6.531-3.178,13.179-0.396,19.941  c0.536,1.304-0.087,2.797-1.391,3.333c-1.305,0.536-2.797-0.087-3.333-1.391c-3.354-8.155-3.195-16.171,0.476-24.045  c3.45-7.397,10.028-14.608,19.732-21.633c2.324-1.893,4.818-3.785,7.483-5.678c1.069-0.759,1.321-2.241,0.562-3.31  c-0.759-1.069-2.241-1.321-3.31-0.561C37.653,40.026,29.77,47.454,24.243,55.01c-2.331-13.176-0.587-23.597,5.221-31.032  c8.019-10.267,24.155-15.49,47.983-15.54c-0.048,23.828-5.272,39.965-15.538,47.984C54.43,62.264,43.927,63.992,30.636,61.596z"></path></svg>