<?xml version="1.0" encoding="UTF-8"?>
<svg width="50px" height="50px" version="1.1" fill="#f0f0f0" viewBox="0 0 1200 1200" xmlns="http://www.w3.org/2000/svg">
<!-- https://thenounproject.com/icon/marquee-870892/ -->
 <path d="m1156.2 1159.2c-1.1992-3.6016-2.3984-6-4.8008-8.3984-64.801-138-103.2-283.2-112.8-435.6-1.1992-21.602 0-40.801 21.602-51.602 6-2.3984 9.6016-8.3984 14.398-13.199 32.398-34.801 39.602-79.199 37.199-124.8 0-8.3984-9.6016-20.398-18-24-100.8-43.199-199.2-91.199-294-146.4-55.199-31.199-109.2-64.801-153.6-110.4-14.398-14.398-21.602-46.801-21.602-46.801v-18l127.2-44.398c30-13.199 33.602-55.199 4.8008-72-42-24-115.2-51.602-138-58.801-30-10.801-42-2.3984-43.199 31.199v163.2c0 10.801-2.3984 20.398-8.3984 28.801-26.398 37.199-63.602 61.199-100.8 85.199-114 73.199-235.2 132-358.8 186-15.602 7.1992-21.602 16.801-20.398 33.602 0 6 0 10.801 1.1992 16.801 1.1992 51.602 21.602 93.602 62.398 123.6 4.8008 3.6016 9.6016 13.199 9.6016 19.199 0 22.801-1.1992 46.801-3.6016 69.602-13.195 138-50.395 268.8-110.39 392.39-14.398 30-4.8008 45.602 27.602 45.602h524.4 157.2 373.2c27.602 0 38.402-16.801 27.602-40.801zm-530.4-1100.4c14.398 4.8008 78 33.602 94.801 39.602-15.602 6-79.199 25.199-94.801 31.199v-70.801zm336 590.4c-51.602-1.1992-94.801-48-91.199-99.602h192c0 57.602-45.602 102-100.8 99.602zm4.8008-150h-106.8c-4.8008 0-10.801-2.3984-14.398-6-31.199-33.602-62.398-68.398-91.199-105.6 69.598 37.203 139.2 73.203 212.4 111.6zm-340.8-194.4c51.602 66 102 129.6 153.6 194.4h-153.6v-194.4zm192 246c1.1992 37.199-15.602 64.801-44.398 84-33.602 21.602-67.199 21.602-100.8 1.1992-30-19.199-46.801-46.801-46.801-85.199h192zm-243.6-246v194.4h-153.6c51.602-64.801 102-128.4 153.6-194.4zm0 246c2.3984 33.602-12 60-38.398 79.199-32.398 25.199-69.602 27.602-105.6 7.1992-32.398-18-49.199-46.801-49.199-86.398h193.2zm-128.4-163.2 2.3984 2.3984c-32.398 34.801-63.602 69.602-96 104.4-2.3984 3.6016-8.3984 4.8008-13.199 4.8008h-105.6c73.203-38.398 142.8-74.398 212.4-111.6zm-308.4 163.2h192c3.6016 49.199-38.398 96-88.801 99.602-56.398 2.3984-100.8-40.801-103.2-99.602zm-33.598 597.6c63.602-144 100.8-292.8 105.6-451.2 61.199 7.1992 109.2-14.398 146.4-64.801 50.398 62.398 110.4 80.398 184.8 52.801 1.1992 1.1992 2.3984 2.3984 2.3984 3.6016-20.398 25.199-39.602 51.602-61.199 75.602-66 72-142.8 130.8-225.6 181.2-22.801 14.398-24 19.199-19.199 46.801 8.3984 51.602 15.602 103.2 24 156-54-0.003906-104.4-0.003906-157.2-0.003906zm184.8-152.4c0-4.8008 4.8008-12 8.3984-14.398 55.199-42 110.4-84 164.4-126 13.199-10.801 25.199-24 38.398-36-56.398 102-122.4 196.8-194.4 289.2-6-39.602-12-76.801-16.797-112.8zm50.398 152.4c46.801-66 94.801-132 141.6-199.2 45.602-67.199 87.602-138 120-217.2 67.199 154.8 164.4 285.6 264 417.6-176.4-1.2031-351.6-1.2031-525.6-1.2031zm556.8-39.598c-72-93.602-139.2-187.2-194.4-289.2 21.602 19.199 42 39.602 63.602 57.602 45.602 34.801 92.398 68.398 138 103.2 4.8008 3.6016 10.801 9.6016 9.6016 14.398-4.8047 37.199-10.805 73.199-16.805 114zm43.199 40.801c8.3984-52.801 15.602-104.4 24-156 4.8008-27.602 3.6016-32.398-20.398-46.801-92.402-58.801-178.8-124.8-249.6-210-8.3984-10.801-16.801-21.602-25.199-32.398-3.6016-4.8008-6-9.6016-12-19.199 76.801 30 138 12 188.4-51.602 37.199 49.199 85.199 70.801 146.4 64.801 6 158.4 43.199 307.2 106.8 451.2h-158.4z"/>
</svg>
