<?xml version="1.0" encoding="UTF-8"?>
<svg width="50px" height="50px" version="1.1" viewBox="0 0 1200 1200" xmlns="http://www.w3.org/2000/svg">
 <path d="m411.03 245.76c-38.844 0-70.781 32.008-70.781 70.848v23.617h-23.637c-38.844 0-70.848 32.004-70.848 70.848v472.32c0 38.84 32.004 70.848 70.848 70.848h94.418c6.3203 0.089843 12.414-2.3594 16.914-6.7969 4.5039-4.4375 7.0391-10.496 7.0391-16.82 0-6.3203-2.5352-12.379-7.0391-16.816-4.5-4.4375-10.594-6.8867-16.914-6.7969h-94.418c-13.492 0-23.617-10.125-23.617-23.617v-472.32c0-13.492 10.125-23.617 23.617-23.617h23.637v23.641c0 38.84 31.941 70.777 70.781 70.777s70.871-31.938 70.871-70.777v-23.617h47.23v23.617c0 38.84 32.031 70.777 70.871 70.777 38.844 0 70.871-31.938 70.871-70.777v-23.617h47.258v23.617c0 38.84 31.914 70.777 70.754 70.777 38.844 0 70.871-31.938 70.871-70.777v-23.641h23.641c13.492 0 23.617 10.125 23.617 23.617v472.32c0 13.492-10.125 23.617-23.617 23.617h-283.39c-6.3203-0.089844-12.414 2.3594-16.914 6.7969-4.5039 4.4375-7.0352 10.496-7.0352 16.816 0 6.3242 2.5312 12.383 7.0352 16.82 4.5 4.4375 10.594 6.8867 16.914 6.7969h283.39c38.84 0 70.848-32.008 70.848-70.848v-472.32c0-38.844-32.008-70.848-70.848-70.848h-23.641v-23.617c0-38.84-32.027-70.848-70.871-70.848-38.84 0-70.754 32.008-70.754 70.848v23.637h-47.258v-23.637c0-38.84-32.027-70.848-70.871-70.848-38.84 0-70.871 32.008-70.871 70.848v23.637h-47.23v-23.637c0-38.84-32.031-70.848-70.871-70.848zm0 47.23c13.492 0 23.617 10.125 23.617 23.617v94.488c0 13.492-10.125 23.637-23.617 23.637-13.492 0-23.523-10.145-23.523-23.637v-94.488c0-13.492 10.031-23.617 23.523-23.617zm188.97 0c13.492 0 23.641 10.125 23.641 23.617v94.488c0 13.492-10.148 23.637-23.641 23.637s-23.613-10.145-23.613-23.637v-94.488c0-13.492 10.125-23.617 23.613-23.617zm188.88 0c13.492 0 23.641 10.125 23.641 23.617v94.488c0 13.492-10.148 23.637-23.641 23.637-13.492 0-23.613-10.145-23.613-23.637v-94.488c0-13.492 10.121-23.617 23.613-23.617zm-425 236.14c-8.3125 0.1875-15.91 4.7305-20.016 11.961-4.1016 7.2305-4.1016 16.082 0 23.312 4.1055 7.2305 11.703 11.773 20.016 11.961h472.25c6.3555 0.14062 12.5-2.2812 17.043-6.7266 4.5469-4.4453 7.1094-10.535 7.1094-16.891 0-6.3555-2.5625-12.445-7.1094-16.891-4.543-4.4414-10.688-6.8672-17.043-6.7266zm141.65 94.488c-6.2656 0-12.273 2.4883-16.699 6.918-4.4297 4.4297-6.918 10.434-6.918 16.699 0 6.2617 2.4883 12.27 6.918 16.699 4.4258 4.4297 10.434 6.918 16.699 6.918 6.2617 0 12.27-2.4883 16.699-6.918 4.4258-4.4297 6.9141-10.438 6.9141-16.699 0-6.2656-2.4883-12.27-6.9141-16.699-4.4297-4.4297-10.438-6.918-16.699-6.918zm94.461 0c-6.2617 0-12.27 2.4883-16.699 6.918-4.4258 4.4297-6.9141 10.434-6.9141 16.699 0 6.2617 2.4883 12.27 6.9141 16.699 4.4297 4.4297 10.438 6.918 16.699 6.918 6.2656 0 12.273-2.4883 16.699-6.918 4.4297-4.4297 6.918-10.438 6.918-16.699 0-6.2656-2.4883-12.27-6.918-16.699-4.4258-4.4297-10.434-6.918-16.699-6.918zm94.465 0c-6.2617 0-12.27 2.4883-16.699 6.918-4.4258 4.4297-6.9141 10.434-6.9141 16.699 0 6.2617 2.4883 12.27 6.9141 16.699 4.4297 4.4297 10.438 6.918 16.699 6.918 6.2656 0 12.27-2.4883 16.699-6.918 4.4297-4.4297 6.918-10.438 6.918-16.699 0-6.2656-2.4883-12.27-6.918-16.699-4.4297-4.4297-10.434-6.918-16.699-6.918zm94.465 0c-6.2617 0-12.27 2.4883-16.699 6.918-4.4297 4.4297-6.918 10.434-6.918 16.699 0 6.2617 2.4883 12.27 6.918 16.699 4.4297 4.4297 10.438 6.918 16.699 6.918 6.2656 0 12.27-2.4883 16.699-6.918 4.4297-4.4297 6.918-10.438 6.918-16.699 0-6.2656-2.4883-12.27-6.918-16.699-4.4297-4.4297-10.434-6.918-16.699-6.918zm-377.86 94.465c-6.2656 0-12.27 2.4883-16.699 6.918s-6.918 10.434-6.918 16.699c0 6.2617 2.4883 12.27 6.918 16.699 4.4297 4.4258 10.434 6.9141 16.699 6.9141 6.2617 0 12.27-2.4883 16.699-6.9141 4.4258-4.4297 6.9141-10.438 6.9141-16.699 0-6.2656-2.4883-12.27-6.9141-16.699-4.4297-4.4297-10.438-6.918-16.699-6.918zm94.465 0c-6.2656 0-12.273 2.4883-16.699 6.918-4.4297 4.4297-6.918 10.434-6.918 16.699 0 6.2617 2.4883 12.27 6.918 16.699 4.4258 4.4258 10.434 6.9141 16.699 6.9141 6.2617 0 12.27-2.4883 16.699-6.9141 4.4258-4.4297 6.9141-10.438 6.9141-16.699 0-6.2656-2.4883-12.27-6.9141-16.699-4.4297-4.4297-10.438-6.918-16.699-6.918zm94.461 0c-6.2617 0-12.27 2.4883-16.699 6.918-4.4258 4.4297-6.9141 10.434-6.9141 16.699 0 6.2617 2.4883 12.27 6.9141 16.699 4.4297 4.4258 10.438 6.9141 16.699 6.9141 6.2656 0 12.273-2.4883 16.699-6.9141 4.4297-4.4297 6.918-10.438 6.918-16.699 0-6.2656-2.4883-12.27-6.918-16.699-4.4258-4.4297-10.434-6.918-16.699-6.918zm94.465 0c-6.2617 0-12.27 2.4883-16.699 6.918-4.4258 4.4297-6.9141 10.434-6.9141 16.699 0 6.2617 2.4883 12.27 6.9141 16.699 4.4297 4.4258 10.438 6.9141 16.699 6.9141 6.2656 0 12.27-2.4883 16.699-6.9141 4.4297-4.4297 6.918-10.438 6.918-16.699 0-6.2656-2.4883-12.27-6.918-16.699-4.4297-4.4297-10.434-6.918-16.699-6.918zm94.465 0c-6.2617 0-12.27 2.4883-16.699 6.918-4.4297 4.4297-6.918 10.434-6.918 16.699 0 6.2617 2.4883 12.27 6.918 16.699 4.4297 4.4258 10.438 6.9141 16.699 6.9141 6.2656 0 12.27-2.4883 16.699-6.9141 4.4297-4.4297 6.918-10.438 6.918-16.699 0-6.2656-2.4883-12.27-6.918-16.699-4.4297-4.4297-10.434-6.918-16.699-6.918zm-377.86 94.465c-6.2656 0-12.27 2.4883-16.699 6.918-4.4297 4.4258-6.918 10.434-6.918 16.699 0 6.2617 2.4883 12.27 6.918 16.699 4.4297 4.4258 10.434 6.9141 16.699 6.9141 6.2617 0 12.27-2.4883 16.699-6.9141 4.4258-4.4297 6.9141-10.438 6.9141-16.699 0-6.2656-2.4883-12.273-6.9141-16.699-4.4297-4.4297-10.438-6.918-16.699-6.918zm94.465 0c-6.2656 0-12.273 2.4883-16.699 6.918-4.4297 4.4258-6.918 10.434-6.918 16.699 0 6.2617 2.4883 12.27 6.918 16.699 4.4258 4.4258 10.434 6.9141 16.699 6.9141 6.2617 0 12.27-2.4883 16.699-6.9141 4.4258-4.4297 6.9141-10.438 6.9141-16.699 0-6.2656-2.4883-12.273-6.9141-16.699-4.4297-4.4297-10.438-6.918-16.699-6.918zm94.461 0c-6.2617 0-12.27 2.4883-16.699 6.918-4.4258 4.4258-6.9141 10.434-6.9141 16.699 0 6.2617 2.4883 12.27 6.9141 16.699 4.4297 4.4258 10.438 6.9141 16.699 6.9141 6.2656 0 12.273-2.4883 16.699-6.9141 4.4297-4.4297 6.918-10.438 6.918-16.699 0-6.2656-2.4883-12.273-6.918-16.699-4.4258-4.4297-10.434-6.918-16.699-6.918zm94.465 0c-6.2617 0-12.27 2.4883-16.699 6.918-4.4258 4.4258-6.9141 10.434-6.9141 16.699 0 6.2617 2.4883 12.27 6.9141 16.699 4.4297 4.4258 10.438 6.9141 16.699 6.9141 6.2656 0 12.27-2.4883 16.699-6.9141 4.4297-4.4297 6.918-10.438 6.918-16.699 0-6.2656-2.4883-12.273-6.918-16.699-4.4297-4.4297-10.434-6.918-16.699-6.918zm-188.93 94.465c-6.2656 0-12.273 2.4883-16.699 6.9141-4.4297 4.4297-6.918 10.438-6.918 16.699 0 6.2656 2.4883 12.273 6.918 16.699 4.4258 4.4297 10.434 6.918 16.699 6.918 6.2617 0 12.27-2.4883 16.699-6.918 4.4258-4.4258 6.9141-10.434 6.9141-16.699 0-6.2617-2.4883-12.27-6.9141-16.699-4.4297-4.4258-10.438-6.9141-16.699-6.9141z" fill="#f0f0f0" fill-rule="evenodd"/>
</svg>
