<svg height='300px' width='300px'  fill="#000000" xmlns="http://www.w3.org/2000/svg" xmlns:xlink="http://www.w3.org/1999/xlink" viewBox="0 0 58 60" version="1.1" x="0px" y="0px"><title>60 -Oboe- (sound, audio, play, music)</title><desc>Created with Sketch.</desc><g stroke="none" stroke-width="1" fill="none" fill-rule="evenodd"><g transform="translate(-1199.000000, -950.000000)" fill="#000000"><g transform="translate(1199.000000, 950.000000)"><path d="M57.7092,2.4141 L55.5882,0.2931 C55.1992,-0.0949 54.5722,-0.0989 54.1822,0.2851 L49.2652,5.0961 L53.4222,9.2541 L57.7862,3.7421 C58.1012,3.3441 58.0682,2.7721 57.7092,2.4141"></path><path d="M46.3049,19.9395 L44.3059,19.9405 L44.3049,19.9395 L44.3049,17.9395 L46.3049,17.9395 L46.3049,19.9395 Z M38.0539,26.1935 C38.0529,26.1935 38.0529,26.1925 38.0529,26.1925 L38.0529,24.1925 L40.0519,24.1945 L40.0519,26.1925 L38.0539,26.1935 Z M33.6949,32.5495 L31.6949,32.5515 C31.6949,32.5515 31.6949,32.5515 31.6949,32.5505 L31.6949,30.5495 L33.6949,30.5495 L33.6949,32.5495 Z M45.0149,9.3315 L47.1359,11.4525 C47.5269,11.8425 47.5269,12.4755 47.1359,12.8665 C46.9409,13.0615 46.6849,13.1595 46.4289,13.1595 C46.1729,13.1595 45.9169,13.0615 45.7219,12.8665 L43.6009,10.7455 L37.9439,16.4025 L40.0649,18.5235 C40.4549,18.9145 40.4549,19.5465 40.0649,19.9375 C39.8689,20.1325 39.6139,20.2305 39.3579,20.2305 C39.1019,20.2305 38.8459,20.1325 38.6509,19.9375 L36.5289,17.8165 L31.5789,22.7665 L33.7009,24.8875 C34.0909,25.2785 34.0909,25.9115 33.7009,26.3015 C33.5049,26.4975 33.2489,26.5945 32.9929,26.5945 C32.7379,26.5945 32.4819,26.4975 32.2859,26.3015 L30.1649,24.1805 L25.2149,29.1295 L27.3359,31.2515 C27.7269,31.6415 27.7269,32.2745 27.3359,32.6655 C27.1409,32.8605 26.8849,32.9585 26.6289,32.9585 C26.3729,32.9585 26.1179,32.8605 25.9219,32.6655 L23.8009,30.5435 L14.6079,39.7365 L20.2649,45.3945 L31.1839,34.4755 C31.3479,34.5195 31.5169,34.5495 31.6949,34.5495 L33.6949,34.5495 C34.7969,34.5495 35.6949,33.6525 35.6949,32.5495 L35.6949,30.5495 C35.6949,30.3725 35.6639,30.2025 35.6199,30.0385 L37.5409,28.1175 C37.7049,28.1615 37.8739,28.1925 38.0519,28.1925 L40.0519,28.1925 C41.1549,28.1925 42.0519,27.2945 42.0519,26.1925 L42.0519,24.1925 C42.0519,24.0145 42.0209,23.8455 41.9779,23.6815 L43.7939,21.8645 C43.9579,21.9085 44.1269,21.9395 44.3049,21.9395 L46.3049,21.9395 C47.4079,21.9395 48.3049,21.0425 48.3049,19.9395 L48.3049,17.9395 C48.3049,17.7615 48.2739,17.5925 48.2299,17.4285 L50.6709,14.9875 C50.7609,14.8975 50.8329,14.7915 50.8829,14.6735 L52.4219,11.0825 L47.8429,6.5025 L45.0149,9.3315 Z"></path><path d="M6.6663,45.7031 C4.7543,46.5531 3.1913,46.7041 2.5883,46.1001 C2.1973,45.7101 1.5643,45.7101 1.1743,46.1001 C0.4183,46.8561 0.0023,47.8601 0.0023,48.9291 C0.0023,49.9981 0.4183,51.0021 1.1743,51.7571 L8.2443,58.8281 C9.0003,59.5841 10.0043,60.0001 11.0733,60.0001 C12.1423,60.0001 13.1453,59.5841 13.9013,58.8281 C14.0893,58.6411 14.1943,58.3871 14.1943,58.1211 C14.1943,57.8551 14.0893,57.6011 13.9013,57.4141 C13.2973,56.8091 13.4493,55.2471 14.2993,53.3361 C15.2153,51.2731 16.8233,48.9871 18.8643,46.8211 L13.1813,41.1381 C11.0153,43.1791 8.7293,44.7871 6.6663,45.7031"></path></g></g></g></svg>