<!-- https://thenounproject.com/search/?i=2861542&q=brush -->
<svg height='50px' width='50px'  fill="#f0f0f0" xmlns="http://www.w3.org/2000/svg" viewBox="0 0 16.933333 16.933334" version="1.1" x="0px" y="0px"><g transform="translate(0,-280.06665)"><path d="m 15.058497,281.20919 c -0.201938,0.0125 -0.413436,0.0866 -0.63717,0.21549 -5.29e-4,2.6e-4 -0.0011,2e-4 -0.0021,5.3e-4 -0.0231,0.0115 -3.196987,1.59657 -5.6110259,4.0106 -2.0132149,2.01322 -3.0436191,4.10493 -3.354835,4.79764 -0.2284021,-0.0804 -0.4671779,-0.12443 -0.7059009,-0.12609 -0.5484781,-0.004 -1.0925569,0.2035 -1.4903471,0.64027 -0.674468,0.74056 -0.5465549,1.52616 -0.5937621,2.13682 -0.0236,0.30534 -0.0823,0.57471 -0.2790539,0.85732 -0.196752,0.2826 -0.5442109,0.58655 -1.179774,0.90433 -0.1770009,0.0875 -0.1990439,0.33093 -0.04082,0.44907 1.6868941,1.26517 3.5750211,0.7847 4.706689,-0.30851 0.565835,-0.5466 0.9587129,-1.24452 1.0666021,-1.97042 0.06377,-0.42906 0.018709,-0.8702 -0.1477941,-1.28158 0.7220241,-0.32695 2.787486,-1.35657 4.7743849,-3.34346 2.41404,-2.41405 3.999088,-5.58792 4.010608,-5.61103 l 5.29e-4,-0.002 c 0.12904,-0.22392 0.203042,-0.4356 0.215482,-0.63769 0.01249,-0.20256 -0.0444,-0.40612 -0.185002,-0.54673 -0.140491,-0.1405 -0.34382,-0.19735 -0.546219,-0.185 z m 0.03256,0.52813 c 0.0923,-0.006 0.124153,0.0151 0.140044,0.031 0.0159,0.0159 0.0367,0.0478 0.031,0.14004 -0.006,0.0923 -0.0462,0.23486 -0.145727,0.40721 l -0.0041,0.007 -0.0036,0.007 c 0,0 -1.579451,3.14783 -3.919141,5.48752 -0.690991,0.69099 -1.4057949,1.26755 -2.0701579,1.73943 -0.202549,-0.32435 -0.44531,-0.6608 -0.730189,-0.94568 -0.2851089,-0.28501 -0.6216989,-0.52804 -0.9462469,-0.73066 0.4719789,-0.6646 1.0481809,-1.37891 1.7394289,-2.07016 2.3396729,-2.33967 5.4875209,-3.91914 5.4875209,-3.91914 l 0.0072,-0.004 0.0067,-0.004 c 0.172361,-0.0995 0.314929,-0.14004 0.407211,-0.14573 z m -7.9493857,6.57996 c 0.3083221,0.1916 0.6244219,0.41874 0.8733319,0.66766 0.2488171,0.24881 0.4761119,0.56462 0.6676599,0.87281 -1.0284487,0.68454 -1.7857597,1.04845 -2.1481889,1.2113 -0.08033,-0.11452 -0.168556,-0.22643 -0.2733699,-0.33125 -0.1027991,-0.1028 -0.214326,-0.19277 -0.3322799,-0.27078 0.1618539,-0.36054 0.5266238,-1.1186 1.2128469,-2.14974 z m -2.3884859,2.31717 c 0.408993,0.004 0.8219229,0.16718 1.133266,0.47852 0.4740299,0.47403 0.614444,1.03755 0.5270979,1.62523 -0.08734,0.58768 -0.4189439,1.19321 -0.9100219,1.6676 -0.8954292,0.865 -2.2704531,1.27664 -3.632853,0.50126 0.36817,-0.2422 0.768895,-0.60336 0.9492958,-0.86248 0.2621442,-0.37653 0.3437382,-0.76619 0.3710382,-1.11931 0.0546,-0.70625 -0.0747,-1.23851 0.456819,-1.82211 0.2915791,-0.32016 0.6963648,-0.47315 1.105358,-0.46871 z"></path></g></svg>