<?xml version="1.0" encoding="UTF-8"?>
<svg width="65px" height="65px" version="1.1" viewBox="0 0 1200 1200" xmlns="http://www.w3.org/2000/svg" fill="#f0f0f0">
<!-- https://thenounproject.com/icon/triangular-prism-1037605/ -->
 <path d="m1155.6 673.85c0.53906-0.89844 1.1289-1.7148 1.4766-2.6875 0.37109-0.97266 0.44531-1.9688 0.61328-2.9883 0.19141-1.0312 0.42188-2.0273 0.39453-3.1094-0.046876-1.043-0.37109-2.0625-0.63672-3.1211-0.19141-0.86328-0.14453-1.7539-0.49219-2.6055-0.097656-0.19141-0.25391-0.3125-0.34766-0.50391-0.070313-0.19141-0.070313-0.39453-0.16797-0.58984l-206.91-409.5c-0.39453-0.82812-1.1055-1.3672-1.6211-2.0742-0.66016-0.86328-1.1992-1.7891-1.9922-2.4961-0.76953-0.73047-1.7148-1.1875-2.6055-1.7383-0.86328-0.52734-1.6914-1.1289-2.6523-1.4766-1.0078-0.37109-2.0625-0.46875-3.1211-0.63672-0.98438-0.15625-1.9219-0.39453-2.9297-0.35938-1.1523 0.023437-2.2305 0.38281-3.3477 0.64844-0.79297 0.20312-1.6211 0.15625-2.4375 0.48047l-670.02 278.25c-2.293 0.96094-4.1523 2.4492-5.7227 4.1875-0.98438 0.99609-1.8477 2.1484-2.5312 3.4805l-206.87 409.49c-2.5547 5.0273-2.293 11.016 0.66016 15.816 2.9531 4.8008 8.1836 7.7266 13.801 7.7266h413.76 0.046875 0.023437 0.27734c2.4844 0 4.7539-0.64844 6.8398-1.6328l669.1-277.87c0.12109-0.058594 0.21484-0.16797 0.32422-0.22656 0.25391-0.10938 0.51562-0.15625 0.76953-0.27734 0.81641-0.40625 1.3555-1.1055 2.0625-1.6328 0.86328-0.64844 1.8008-1.1875 2.5312-1.9805 0.71875-0.77734 1.1836-1.6797 1.7266-2.5781zm-675.96 249.23-60.781-120.27 310.92-129.12h350.36zm-214.6-352.79 116.44 230.47-294.71 122.4zm22.355-27.695 624.94-259.54-190.05 376.17-310.75 129.06zm831.8 114.88h-377.87l189.19-374.43 189.07 374.25zm-1000.9 270.14 270.47-112.33 56.746 112.33z"/>
</svg>
