<!-- https://thenounproject.com/search/?i=625542&q=scripture -->
<svg xmlns="http://www.w3.org/2000/svg" xmlns:xlink="http://www.w3.org/1999/xlink" height="50px" width="50px" fill="#f0f0f0" version="1.1" x="0px" y="0px" viewBox="0 0 100 100" enable-background="new 0 0 100 100" xml:space="preserve">
  <path d="M72.474,67.777h-5.323c-0.829,0-1.5-0.672-1.5-1.5s0.671-1.5,1.5-1.5h5.323  c0.829,0,1.5,0.672,1.5,1.5S73.302,67.777,72.474,67.777z M62.938,67.777h-7.616c-0.829,0-1.5-0.672-1.5-1.5s0.671-1.5,1.5-1.5  h7.616c0.829,0,1.5,0.672,1.5,1.5S63.767,67.777,62.938,67.777z M50.814,67.777h-4.067c-0.829,0-1.5-0.672-1.5-1.5  s0.671-1.5,1.5-1.5h4.067c0.829,0,1.5,0.672,1.5,1.5S51.643,67.777,50.814,67.777z M41.72,67.777h-1.479c-0.829,0-1.5-0.672-1.5-1.5  s0.671-1.5,1.5-1.5h1.479c0.829,0,1.5,0.672,1.5,1.5S42.549,67.777,41.72,67.777z M36.252,67.777h-0.964c-0.829,0-1.5-0.672-1.5-1.5  s0.671-1.5,1.5-1.5h0.964c0.829,0,1.5,0.672,1.5,1.5S37.081,67.777,36.252,67.777z M31.371,67.777h-3.844  c-0.829,0-1.5-0.672-1.5-1.5s0.671-1.5,1.5-1.5h3.844c0.829,0,1.5,0.672,1.5,1.5S32.199,67.777,31.371,67.777z M72.474,55.771  h-2.366c-0.829,0-1.5-0.672-1.5-1.5s0.671-1.5,1.5-1.5h2.366c0.829,0,1.5,0.672,1.5,1.5S73.302,55.771,72.474,55.771z   M64.231,55.771H49.409c-0.829,0-1.5-0.672-1.5-1.5s0.671-1.5,1.5-1.5h14.822c0.829,0,1.5,0.672,1.5,1.5S65.06,55.771,64.231,55.771  z M44.532,55.771h-5.473c-0.829,0-1.5-0.672-1.5-1.5s0.671-1.5,1.5-1.5h5.473c0.829,0,1.5,0.672,1.5,1.5S45.36,55.771,44.532,55.771  z M34.478,55.771h-6.951c-0.829,0-1.5-0.672-1.5-1.5s0.671-1.5,1.5-1.5h6.951c0.829,0,1.5,0.672,1.5,1.5  S35.306,55.771,34.478,55.771z M72.474,44.907h-5.323c-0.829,0-1.5-0.672-1.5-1.5s0.671-1.5,1.5-1.5h5.323  c0.829,0,1.5,0.672,1.5,1.5S73.302,44.907,72.474,44.907z M62.124,44.907h-2.957c-0.829,0-1.5-0.672-1.5-1.5s0.671-1.5,1.5-1.5  h2.957c0.829,0,1.5,0.672,1.5,1.5S62.953,44.907,62.124,44.907z M53.323,44.907h-11.42c-0.829,0-1.5-0.672-1.5-1.5  s0.671-1.5,1.5-1.5h11.42c0.829,0,1.5,0.672,1.5,1.5S54.151,44.907,53.323,44.907z M35.618,44.907h-8.091  c-0.829,0-1.5-0.672-1.5-1.5s0.671-1.5,1.5-1.5h8.091c0.829,0,1.5,0.672,1.5,1.5S36.446,44.907,35.618,44.907z M72.474,35.188  h-7.393c-0.829,0-1.5-0.672-1.5-1.5s0.671-1.5,1.5-1.5h7.393c0.829,0,1.5,0.672,1.5,1.5S73.302,35.188,72.474,35.188z   M59.795,35.188h-2.698c-0.829,0-1.5-0.672-1.5-1.5s0.671-1.5,1.5-1.5h2.698c0.829,0,1.5,0.672,1.5,1.5S60.624,35.188,59.795,35.188  z M52.253,35.188h-1.957c-0.829,0-1.5-0.672-1.5-1.5s0.671-1.5,1.5-1.5h1.957c0.829,0,1.5,0.672,1.5,1.5  S53.082,35.188,52.253,35.188z M43.495,35.188H27.526c-0.829,0-1.5-0.672-1.5-1.5s0.671-1.5,1.5-1.5h15.968  c0.829,0,1.5,0.672,1.5,1.5S44.323,35.188,43.495,35.188z M85.521,94.883c-3.453,0-5.253-2.027-5.353-6.026h-1.289  c-1.104,0-2-0.896-2-2v-7.707c0-0.373,0.102-0.723,0.28-1.021H22.84c0.178,0.299,0.28,0.648,0.28,1.021v7.707c0,1.104-0.896,2-2,2  h-1.288c-0.022,1.843-0.357,6.026-5.355,6.026c-3.453,0-5.253-2.027-5.353-6.026H7.834c-1.104,0-2-0.896-2-2v-7.707  c0-1.043,0.799-1.9,1.818-1.992v-54.35c-1.02-0.092-1.818-0.949-1.818-1.992v-7.707c0-1.104,0.896-2,2-2h1.288  c0.026-1.86,0.389-5.991,5.355-5.991c3.443,0,5.242,2.015,5.352,5.991h1.292c1.104,0,2,0.896,2,2v7.707  c0,0.524-0.202,1.001-0.531,1.357h54.821c-0.33-0.356-0.531-0.833-0.531-1.357v-7.707c0-1.104,0.896-2,2-2h1.286  c0.026-1.86,0.389-5.991,5.355-5.991c3.443,0,5.242,2.015,5.352,5.991h1.293c1.104,0,2,0.896,2,2v7.707  c0,1.063-0.829,1.932-1.875,1.996v54.342c1.046,0.064,1.875,0.934,1.875,1.996v7.707c0,1.104-0.896,2-2,2h-1.29  C90.854,90.699,90.519,94.883,85.521,94.883z M84.167,88.856c0.035,2.026,0.393,2.026,1.354,2.026c0.961,0,1.319,0,1.354-2.026  H84.167z M13.123,88.856c0.035,2.026,0.393,2.026,1.354,2.026c0.961,0,1.319,0,1.354-2.026H13.123z M80.879,84.856h9.287v-3.707  h-9.287V84.856z M9.834,84.856h9.287v-3.707H9.834V84.856z M82.698,77.149h5.594V22.815h-5.594V77.149z M11.652,77.149h5.594V22.815  h-5.594V77.149z M21.246,74.128h57.452V26.173H21.246V74.128z M80.879,18.815h9.287v-3.707h-9.287V18.815z M9.834,18.815h9.287  v-3.707H9.834V18.815z M84.167,11.108h2.708c-0.039-1.991-0.398-1.991-1.354-1.991C84.565,9.117,84.206,9.117,84.167,11.108z   M13.124,11.108h2.708c-0.039-1.991-0.398-1.991-1.354-1.991C13.521,9.117,13.162,9.117,13.124,11.108z"/>
</svg>