<!-- https://thenounproject.com/term/shhh/1585/ -->
<svg height='50px' width='50px'  fill="#f0f0f0" xmlns="http://www.w3.org/2000/svg" xmlns:xlink="http://www.w3.org/1999/xlink" version="1.1" x="0px" y="0px" viewBox="0 0 100 100" enable-background="new 0 0 100 100" xml:space="preserve"><path fill="#f0f0f0" d="M77.42,53.888l-6.873-17.303c0,0-0.707-7.168-1.355-9.914C66.331,14.327,52.568,3.125,37.645,3.125  c-18.156,0-32.879,14.726-32.879,32.897c0,10.494,4.915,19.846,12.569,25.868v27.914h35.093V79.735h5.153  c7.159,0,12.966-5.806,12.966-12.973v-9.193h4.409c1.465,0,2.661-1.191,2.661-2.651C77.619,54.551,77.551,54.198,77.42,53.888z   M59.107,43.953c-2.484,0-4.498-2.012-4.498-4.496c0-2.483,2.014-4.498,4.498-4.498c2.482,0,4.496,2.015,4.496,4.498  C63.604,41.941,61.592,43.953,59.107,43.953z"></path><path fill="#f0f0f0" d="M92.757,78.647h-0.179"></path><path fill="#f0f0f0" d="M84.966,78.647h-0.179"></path><path fill="#f0f0f0" d="M92.736,75.753c-1.288,0-2.378,0.841-2.754,2.002c-0.376-1.161-1.467-2.002-2.754-2.002  c-1.189,0-2.213,0.719-2.657,1.746c-0.444-1.027-1.466-1.746-2.656-1.746c-1.193,0-2.219,0.723-2.661,1.754l-0.028-8.412  c0-1.532-1.242-2.774-2.773-2.774c-1.532,0-2.775,1.242-2.775,2.774v7.117c0.093-0.003,0.186-0.008,0.28-0.008  c3.683,0,6.679,2.997,6.679,6.68v10.262c0,1.836-0.764,3.578-2.092,4.838c1.74,1.167,3.828,1.855,6.08,1.855  c4.984,0,9.188-3.332,10.513-7.89l0.411-2.356l0.082-10.945C95.63,77.049,94.334,75.753,92.736,75.753z"></path><path fill="#f0f0f0" d="M73.957,77.416c2.911,0,5.271,2.36,5.271,5.272v10.261c0,1.59-0.704,3.012-1.814,3.979  c-0.649-0.569-1.23-1.214-1.73-1.92c-1.261-1.783-2.006-3.961-2.006-6.312v-9.148v-2.124C73.77,77.419,73.862,77.416,73.957,77.416"></path></svg>