<?xml version="1.0" encoding="UTF-8" standalone="no"?>
<svg xmlns="http://www.w3.org/2000/svg" viewBox="0 0 705 1050" version="1.1">
  <title>7.11 Место отдыха</title>
  <rect style="fill:#ffffff;" x="0" y="0" width="700" height="1050" rx="45" ry="45"/>
  <rect style="fill:none;stroke:#000000;stroke-width:2;" x="1" y="1" width="698" height="1048" rx="44" ry="44"/>
  <path style="fill:#0d69e1;" d="m 655 1030 a 25 25 0 0 0 25 -25 l 0 -960 a 25 25 0 0 0 -25 -25 l -610 0 a 25 25 0 0 0 -25 25 l 0 960 a 25 25 0 0 0 25 25 z m -544.38 -286.25 a 45 45 0 0 1 -45 -45 l 0 -478.75 a 45 45 0 0 1 45 -45 l 478.75 0 a 45 45 0 0 1 45 45 l 0 478.75 a 45 45 0 0 1 -45 45 z"/>
  <path style="fill:#000000;" transform="scale(1.09375)" d="m 420 620 v -52 a 190 190 0 0 0 120 -38 a 230 230 0 0 1 -130 -80 a 100 100 0 0 0 70 -20 a 210 210 0 0 1 -104 -100 a 220 220 0 0 0 34 -14 a 440 440 0 0 1 -99 -84 a 190 190 0 0 1 -19 121 a 180 180 0 0 0 34 -13 a 150 150 0 0 1 -55 140 a 210 210 0 0 0 69 -20 a 194 194 0 0 1 -80 120 a 120 120 0 0 0 100 -10 v 50 z"/>
  <path style="fill:#000000;" transform="scale(1.09375)" d="m 130 540 a 10 10 0 0 0 -10 10 a 10 10 0 0 0 10 10 h 6.08 l -16.08 60 h 16 l 16.08 -60 h 35.84 l 16.08 60 h 16 l -16.08 -60 h 6.08 a 10 10 0 0 0 10 -10 a 10 10 0 0 0 -10 -10 z"/>
</svg>
