<?xml version="1.0" encoding="UTF-8"?>
<svg xmlns="http://www.w3.org/2000/svg" viewBox="0 0 837 737" version="1.1">
<title>1.25 Дорожные работы</title>
<path style="fill:#ffffff;" d="m 0,689.423 c 0,24.853 20.147,45 45,45 l 744.116,0 c 24.853,0 45,-20.147 45,-45 c 0,-7.899 -2.079,-15.659 -6.029,-22.5 l -372.058,-644.423 c -8.038,-13.923 -22.894,-22.5 -38.971,-22.5 c -16.077,0 -30.933,8.577 -38.971,22.5 l -372.058,644.423 c -3.950,6.841 -6.029,14.601 -6.029,22.5 z"/>
<path style="fill:none;stroke:#000000;stroke-width:2px;" d="m 1,689.423 c 0,24.301 19.699,44 44,44 l 744.116,0 c 24.301,0 44,-19.699 44,-44 c 0,-7.724 -2.033,-15.311 -5.895,-22.0 l -372.058,-644.423 c -7.860,-13.614 -22.385,-22.0 -38.105,-22.0 c -15.720,0 -30.245,8.386 -38.105,22.0 l -372.058,644.423 c -3.862,6.689 -5.895,14.276 -5.895,22.0 z"/>
<path style="fill:#ff0000;" d="m 10,689.423 c 0,19.330 15.670,35 35,35 l 744.116,0 c 19.330,0 35,-15.670 35,-35 c 0,-6.144 -1.617,-12.179 -4.689,-17.5 l -372.058,-644.423 c -6.252,-10.829 -17.807,-17.5 -30.311,-17.5 c -12.504,0 -24.059,6.671 -30.311,17.5 l -372.058,644.423 c -3.072,5.321 -4.689,11.357 -4.689,17.5 z m 83.634,-33.852 c 0,-1.755 0.462,-3.480 1.340,-5.000 l 313.424,-542.866 c 1.786,-3.094 5.087,-5 8.660,-5.000 c 3.573,0 6.873,1.906 8.660,5.000 l 313.424,542.866 c 0.878,1.520 1.340,3.245 1.340,5.000 c 0,5.523 -4.477,10 -10,10 l -626.848,0 c -5.523,0 -10,-4.477 -10,-10 z"/>
<path style="fill:#000000;" d="m 452.632,261.064 c -16.811,0 -26.967,12.680 -26.967,29.377 c 0,25.762 22.951,61.852 40.279,61.852 c 17.328,0 36.606,-17.500 36.606,-41.197 c 0,-19.680 -19.967,-50.033 -49.918,-50.033 z"/>
<path style="fill:#000000;" d="m 430.829,621.965 c 0,11.408 9.248,20.656 20.656,20.656 c 11.408,0 20.656,-9.248 20.656,-20.656 l 0,-91.839 c 0.382,0.024 0.765,0.036 1.148,0.036 c 6.203,0 11.987,-3.132 15.376,-8.327 l 86.447,49.910 c -34.017,22.821 -52.631,10.633 -97.226,70.875 l 230.166,0 l -80.427,-139.304 c -17.123,19.357 -20.333,36.478 -41.128,59.101 l -95.376,-55.065 l -37.731,-140.816 c -0.495,-1.847 -1.444,-3.542 -2.760,-4.929 l -36.951,-39.016 c -2.167,-2.283 -5.176,-3.576 -8.324,-3.576 l -72.754,0 c -4.100,0 -7.888,2.187 -9.938,5.738 l -48.422,83.885 c -1.611,2.791 -2.460,5.957 -2.460,9.180 c 0,10.140 8.220,18.361 18.361,18.361 c 6.560,0 12.621,-3.500 15.901,-9.180 l 4.590,-7.950 l 26.037,15.033 l -8.033,13.913 c -1.007,1.744 -1.537,3.723 -1.537,5.738 c 0,4.100 2.187,7.888 5.738,9.938 l 97.992,56.576 z m -113.312,-214.842 l 29.668,-51.386 l 34.717,0 l -38.347,66.419 z m 81.967,44.408 l 26.404,-45.733 l 19.329,72.138 z"/>
<path style="fill:#000000;" d="m 284.416,611.637 c -1.813,3.140 -2.767,6.702 -2.767,10.328 c 0,11.408 9.248,20.656 20.656,20.656 c 7.380,0 14.199,-3.937 17.888,-10.328 l 57.461,-99.838 c 1.007,-1.744 1.537,-3.723 1.537,-5.738 c 0,-0.468 -0.029,-0.935 -0.085,-1.399 l -3.216,-26.192 l -46.388,-26.782 l 6.197,50.468 z"/>
</svg>