<svg viewBox="0 0 302 102" xmlns="http://www.w3.org/2000/svg" stroke-width="0.5" class="dark_aware">
  <style>
    rect {
      fill: var(--background-color);
      stroke: currentColor;
    }
    
    marker polygon {
      fill: currentColor;
    }
    
    text {
      fill: currentColor;
    }
    
    line {
      stroke: currentColor;
    }
  </style>

  <svg x="0" y="80">
    <rect x="1" y="1" width="300" height="20"/>
    <text x="150.5" y="12" font-size="8px" stroke-width="0" text-anchor="middle" font-family="monospace" dominant-baseline="middle">archiveInputStream</text>
  </svg>

  <marker id="arrowhead" markerWidth="10" markerHeight="7" refX="0" refY="3.5" orient="auto">
    <polygon points="0 0, 10 3.5, 0 7"/>
  </marker>

  <svg x="0">
    <rect x="1" y="1" width="75" height="20"/>
    <text x="38.5" y="11.5" font-size="6px" stroke-width="0" text-anchor="middle" font-family="monospace" dominant-baseline="middle">file1.txt</text>
    <line x1="38.5" y1="21" x2="38.5" y2="70.5" marker-end="url(#arrowhead)" />
  </svg>

  <svg x="75" y="6">
    <rect x="1" y="1" width="75" height="20"/>
    <text x="38.5" y="11.5" font-size="6px" stroke-width="0" text-anchor="middle" font-family="monospace" dominant-baseline="middle">file2.txt</text>
    <line x1="38.5" y1="21" x2="38.5" y2="64" marker-end="url(#arrowhead)" />
  </svg>

  <svg x="150" y="12">
    <rect x="1" y="1" width="75" height="20"/>
    <text x="38.5" y="11.5" font-size="6px" stroke-width="0" text-anchor="middle" font-family="monospace" dominant-baseline="middle">file3.txt</text>
    <line x1="38.5" y1="21" x2="38.5" y2="58" marker-end="url(#arrowhead)" />
  </svg>

  <svg x="225" y="18">
    <rect x="1" y="1" width="75" height="20"/>
    <text x="38.5" y="11.5" font-size="6px" stroke-width="0" text-anchor="middle" font-family="monospace" dominant-baseline="middle">file4.txt</text>
    <line x1="38.5" y1="21" x2="38.5" y2="52" marker-end="url(#arrowhead)" />
  </svg>
</svg>
