<svg viewBox="0 0 900 270" xmlns="http://www.w3.org/2000/svg" xmlns:xlink="http://www.w3.org/1999/xlink">
  <title>
    Left: A red heart with a double-width stroke.
    Middle: A dashed grey heart with a pair of grey scissors.
    Right: A red heart with an inner stroke.
  </title>
  <defs>
    <style>
      text {
        fill: black;
        stroke: none;
        dominant-baseline: middle;
        text-anchor: middle;
        font-size: 15pt;
      }

      .operator {
        font-size: 25pt;
      }

      .outline5 {
        fill: rgba(204, 204, 204, 0.3);
        stroke-width: 2.5;
        stroke: #ccc;
        stroke-dasharray: 2.5;
      }

      .inner5 {
        fill: none;
        stroke: #d01c11;
      }
    </style>

    <!-- Based on the heart from https://thenounproject.com/search/?q=heart5&i=585522 -->
    <path id="heart5" d="m 31,11.375 c -14.986319,0 -25,12.30467 -25,26 0,12.8493 7.296975,23.9547 16.21875,32.7188 8.921775,8.764 19.568704,15.2612 26.875,19.0312 a 2.0002,2.0002 0 0 0 1.8125,0 c 7.306296,-3.77 17.953225,-10.2672 26.875,-19.0312 C 86.703025,61.3297 94,50.2243 94,37.375 c 0,-13.69533 -10.013684,-26 -25,-26 -8.834204,0 -14.702885,4.50444 -19,10.59375 C 45.702885,15.87944 39.834204,11.375 31,11.375 z"/>

    <clipPath id="insideHeartOnly">
      <use xlink:href="#heart5"/>
    </clipPath>
  </defs>

  <svg x="0">
    <use xlink:href="#heart5" x="25" y="2" class="inner5" transform="scale(2)" stroke-width="12"/>
    <text x="150" y="240">double-width stroke</text>
  </svg>

  <text class="operator" x="300" y="240">+</text>

  <svg x="300">
    <use xlink:href="#heart5" x="25" y="2" class="outline5" transform="scale(2)"/>
    <text x="0" y="0" style="fill: #999; font-size: 45pt;" transform="translate(212 125) rotate(131)">✂</text>
    <text x="150" y="240">shape clip</text>
  </svg>

  <text class="operator" x="600" y="240">→</text>

  <svg x="600">
    <use xlink:href="#heart5" x="25" y="2" class="inner5" transform="scale(2)" stroke-width="12" clip-path="url(#insideHeartOnly)"/>
    <text x="150" y="240">inner stroke</text>
  </svg>
</svg>
