<svg viewBox="0 0 900 248" xmlns="http://www.w3.org/2000/svg" xmlns:xlink="http://www.w3.org/1999/xlink">
  <title>
    Left: A blue heart with a double-width stroke.
    Middle: A red heart with an inner stroke.
    Right: A heart with a blue-red striped stroke.
  </title>
  <defs>
    <style>
      text {
        fill: black;
        stroke: none;
        dominant-baseline: middle;
        text-anchor: middle;
        font-size: 15pt;
      }

      .operator {
        font-size: 25pt;
      }

      .border10 {
        fill: none;
      }

      .inner10 {
        stroke: #d01c11;
      }

      .outer10 {
        stroke: #1B48D3;
      }
    </style>

    <!-- Based on the heart from https://thenounproject.com/search/?q=heart10&i=585522 -->
    <path id="heart10" d="m 31,11.375 c -14.986319,0 -25,12.30467 -25,26 0,12.8493 7.296975,23.9547 16.21875,32.7188 8.921775,8.764 19.568704,15.2612 26.875,19.0312 a 2.0002,2.0002 0 0 0 1.8125,0 c 7.306296,-3.77 17.953225,-10.2672 26.875,-19.0312 C 86.703025,61.3297 94,50.2243 94,37.375 c 0,-13.69533 -10.013684,-26 -25,-26 -8.834204,0 -14.702885,4.50444 -19,10.59375 C 45.702885,15.87944 39.834204,11.375 31,11.375 z"/>

    <clipPath id="heart10InnerOnly">
      <use xlink:href="#heart10"/>
    </clipPath>
  </defs>

  <svg x="0">
    <use xlink:href="#heart10" x="25" class="border10 outer10" transform="scale(2)" stroke-width="12"/>
    <text x="150" y="228">double-width stroke</text>
  </svg>

  <text class="operator" x="300" y="228">+</text>

  <svg x="300">
    <use xlink:href="#heart10" x="25" class="border10 inner10" transform="scale(2)" clip-path="url(#heart10InnerOnly)" stroke-width="12"/>
    <text x="150" y="228">inner stroke</text>
  </svg>

  <text class="operator" x="600" y="228">→</text>

  <svg x="600">
    <use xlink:href="#heart10" x="25" class="border10 outer10" transform="scale(2)" stroke-width="12"/>
    <use xlink:href="#heart10" x="25" class="border10 inner10" transform="scale(2)" clip-path="url(#heart10InnerOnly)" stroke-width="12"/>
    <text x="150" y="228">striped stroke</text>
  </svg>
</svg>
