<svg viewBox="0 0 32 32" xmlns="http://www.w3.org/2000/svg" style="background-color: #001e47;">

    <defs>
      <style>
        #blue_circle_quadrants path {
          stroke: #6bd5ff;
          stroke-width: 0.26165988178983873;
          stroke-linecap: round;
          fill: none;
        }
      </style>
    </defs>

<svg x="1" y="1" id="blue_circle_quadrants">
<path d="M 15,15 L 15.0,14.0"/>
<path d="M 14.0 15.0 A 1 1 0 0 1 15.0 14.0"/>
<path d="M 15.0 14.0 A 1 1 0 0 0 16.0 15.0"/>
<path d="M 16.0 15.0 A 1 1 0 0 1 15.0 16.0"/>
<path d="M 15.0 13.0 L 15.0 12.0"/>
<path d="M 13.0 15.0 A 2 2 0 0 1 15.0 13.0"/>
<path d="M 15.0 16.0 L 15.0 17.0"/>
<path d="M 17.0 15.0 A 2 2 0 0 1 15.0 17.0"/>
<path d="M 17.0 15.0 L 18.0 15.0"/>
<path d="M 15.0 17.0 L 15.0 18.0"/>
<path d="M 12.0 15.0 A 3 3 0 0 1 15.0 12.0"/>
<path d="M 15.0 18.0 L 15.0 19.0"/>
<path d="M 15.0 18.0 A 3 3 0 0 0 12.0 15.0"/>
<path d="M 15.0 11.0 L 15.0 10.0"/>
<path d="M 19.0 15.0 L 20.0 15.0"/>
<path d="M 15.0 19.0 A 4 4 0 0 0 11.0 15.0"/>
<path d="M 11.0 15.0 L 10.0 15.0"/>
<path d="M 15.0 10.0 L 15.0 9.0"/>
<path d="M 20.0 15.0 L 21.0 15.0"/>
<path d="M 15.0 20.0 L 15.0 21.0"/>
<path d="M 10.0 15.0 L 9.0 15.0"/>
<path d="M 15.0 9.0 L 15.0 8.0"/>
<path d="M 9.0 15.000000000000002 A 6 6 0 0 1 14.999999999999998 9.0"/>
<path d="M 21.0 15.0 L 22.0 15.0"/>
<path d="M 15.0 21.0 A 6 6 0 0 0 9.0 15.000000000000002"/>
<path d="M 9.0 15.0 L 8.0 15.0"/>
<path d="M 15.0 8.0 A 7 7 0 0 0 22.0 15.0"/>
<path d="M 22.0 15.0 L 23.0 15.0"/>
<path d="M 15.0 22.0 A 7 7 0 0 0 8.0 15.000000000000002"/>
<path d="M 8.0 15.0 L 7.0 15.0"/>
<path d="M 15.0 7.0 A 8 8 0 0 0 23.0 15.0"/>
<path d="M 23.0 15.0 A 8 8 0 0 1 15.000000000000002 23.0"/>
<path d="M 23.0 15.0 L 24.0 15.0"/>
<path d="M 15.0 23.0 L 15.0 24.0"/>
<path d="M 15.0 6.0 A 9 9 0 0 0 24.0 15.0"/>
<path d="M 15.000000000000002 6.0 L 15.000000000000002 5.0"/>
<path d="M 15.0 24.0 L 15.0 25.0"/>
<path d="M 6.0 15.0 L 5.0 15.0"/>
<path d="M 5.0 15.000000000000002 A 10 10 0 0 1 14.999999999999998 5.0"/>
<path d="M 15.000000000000002 5.0 L 15.000000000000002 4.0"/>
<path d="M 25.0 15.0 A 10 10 0 0 1 15.000000000000002 25.0"/>
<path d="M 5.0 15.0 L 4.0 15.0"/>
<path d="M 26.0 15.0 L 27.0 15.0"/>
<path d="M 15.000000000000002 26.0 A 11 11 0 0 0 4.0 15.000000000000002"/>
<path d="M 4.0 15.0 L 3.0 15.0"/>
<path d="M 3.0 15.000000000000002 A 12 12 0 0 1 14.999999999999996 3.0"/>
<path d="M 27.0 15.0 A 12 12 0 0 1 15.000000000000002 27.0"/>
<path d="M 27.0 15.0 L 28.0 15.0"/>
<path d="M 15.000000000000002 27.0 A 12 12 0 0 0 3.0 15.000000000000002"/>
<path d="M 2.0 15.000000000000002 A 13 13 0 0 1 14.999999999999996 2.0"/>
<path d="M 15.0 2.0 A 13 13 0 0 0 28.0 15.0"/>
<path d="M 15.000000000000002 2.0 L 15.000000000000002 1.0"/>
<path d="M 28.0 15.0 A 13 13 0 0 1 15.000000000000002 28.0"/>
<path d="M 15.0 28.0 L 15.0 29.0"/>
<path d="M 1.0 15.000000000000002 A 14 14 0 0 1 14.999999999999996 1.0"/>
<path d="M 29.0 15.0 A 14 14 0 0 1 15.000000000000002 29.0"/>
</svg>
</svg>