<svg viewBox="0 0 26 26" xmlns="http://www.w3.org/2000/svg" style="background-color: #2e4040;">

    <defs>
      <style>
        .ghost_heptagon path {
          stroke: #b8feff;
          stroke-width: 0.4928523370898992;
          stroke-linecap: round;
          fill: none;
        }
      </style>
    </defs>

<svg x="0" y="0.15" class="ghost_heptagon">
<path d="M 13.0 12.0 L 13.78183148246803 12.376510198141267"/>
<path d="M 13.0 12.0 L 12.21816851753197 12.376510198141267"/>
<path d="M 13.78183148246803 12.376510198141267 L 14.56366296493606 11.753020396282533"/>
<path d="M 13,13 L 12.21816851753197,12.376510198141267"/>
<path d="M 12.21816851753197 12.376510198141267 L 11.43633703506394 11.753020396282533"/>
<path d="M 12.21816851753197 12.376510198141267 L 12.025072087818176 13.222520933956314"/>
<path d="M 13.0 11.0 L 11.43633703506394 11.753020396282533"/>
<path d="M 13.974927912181824 13.222520933956314 L 13.433883739117558 13.900968867902419"/>
<path d="M 13.974927912181824 13.222520933956314 L 14.949855824363647 13.445041867912629"/>
<path d="M 13.433883739117558 13.900968867902419 L 12.566116260882442 13.900968867902419"/>
<path d="M 12.566116260882442 13.900968867902419 L 12.132232521764884 14.801937735804838"/>
<path d="M 13.867767478235116 14.801937735804838 L 12.132232521764884 14.801937735804838"/>
<path d="M 12.132232521764884 14.801937735804838 L 11.050144175636353 13.445041867912629"/>
<path d="M 11.050144175636353 13.445041867912629 L 10.075216263454529 13.667562801868943"/>
<path d="M 11.050144175636353 13.445041867912629 L 11.43633703506394 11.753020396282533"/>
<path d="M 13.0 10.0 L 15.34549444740409 11.1295305944238"/>
<path d="M 15.34549444740409 11.1295305944238 L 16.12732592987212 10.506040792565067"/>
<path d="M 15.924783736545471 13.667562801868943 L 14.301651217352674 15.702906603707257"/>
<path d="M 14.301651217352674 15.702906603707257 L 11.698348782647326 15.702906603707257"/>
<path d="M 14.301651217352674 15.702906603707257 L 14.735534956470232 16.603875471609676"/>
<path d="M 11.698348782647326 15.702906603707257 L 10.075216263454529 13.667562801868943"/>
<path d="M 10.075216263454529 13.667562801868943 L 10.65450555259591 11.1295305944238"/>
<path d="M 10.65450555259591 11.1295305944238 L 9.87267407012788 10.506040792565067"/>
<path d="M 13.0 9.0 L 16.12732592987212 10.506040792565067"/>
<path d="M 13.0 9.0 L 9.87267407012788 10.506040792565067"/>
<path d="M 16.12732592987212 10.506040792565067 L 16.90915741234015 9.882550990706333"/>
<path d="M 16.899711648727294 13.890083735825257 L 17.874639560909117 14.112604669781572"/>
<path d="M 14.735534956470232 16.603875471609676 L 15.16941869558779 17.504844339512097"/>
<path d="M 14.735534956470232 16.603875471609676 L 11.264465043529768 16.603875471609676"/>
<path d="M 9.100288351272706 13.890083735825257 L 9.87267407012788 10.506040792565067"/>
<path d="M 13.0 8.0 L 16.90915741234015 9.882550990706333"/>
<path d="M 13.0 8.0 L 9.09084258765985 9.882550990706333"/>
<path d="M 16.90915741234015 9.882550990706333 L 17.874639560909117 14.112604669781572"/>
<path d="M 15.16941869558779 17.504844339512097 L 10.83058130441221 17.504844339512097"/>
<path d="M 8.125360439090882 14.112604669781572 L 9.09084258765985 9.882550990706333"/>
<path d="M 9.09084258765985 9.882550990706333 L 8.309011105191821 9.2590611888476"/>
<path d="M 13.0 7.0 L 13.0 6.0"/>
<path d="M 13.0 7.0 L 8.309011105191821 9.2590611888476"/>
<path d="M 17.69098889480818 9.2590611888476 L 18.472820377276207 8.635571386988866"/>
<path d="M 18.849567473090943 14.335125603737886 L 19.824495385272765 14.5576465376942"/>
<path d="M 18.849567473090943 14.335125603737886 L 15.603302434705348 18.405813207414514"/>
<path d="M 15.603302434705348 18.405813207414514 L 10.396697565294652 18.405813207414514"/>
<path d="M 15.603302434705348 18.405813207414514 L 16.037186173822906 19.306782075316935"/>
<path d="M 10.396697565294652 18.405813207414514 L 9.962813826177094 19.306782075316935"/>
<path d="M 10.396697565294652 18.405813207414514 L 7.150432526909058 14.335125603737886"/>
<path d="M 7.150432526909058 14.335125603737886 L 6.1755046147272346 14.5576465376942"/>
<path d="M 7.150432526909058 14.335125603737886 L 8.309011105191821 9.2590611888476"/>
<path d="M 13.0 6.0 L 18.472820377276207 8.635571386988866"/>
<path d="M 13.0 6.0 L 13.000000000000002 5.0"/>
<path d="M 6.1755046147272346 14.5576465376942 L 5.200576702545411 14.780167471650515"/>
<path d="M 7.527179622723791 8.635571386988866 L 6.745348140255761 8.012081585130133"/>
<path d="M 13.000000000000002 5.0 L 19.25465185974424 8.012081585130133"/>
<path d="M 20.799423297454588 14.780167471650515 L 21.774351209636414 15.002688405606829"/>
<path d="M 20.799423297454588 14.780167471650515 L 16.471069912940465 20.207750943219352"/>
<path d="M 16.471069912940465 20.207750943219352 L 16.904953652058023 21.108719811121773"/>
<path d="M 9.528930087059535 20.207750943219352 L 9.095046347941977 21.108719811121773"/>
<path d="M 5.200576702545411 14.780167471650515 L 4.2256487903635875 15.002688405606829"/>
<path d="M 6.745348140255761 8.012081585130133 L 5.96351665778773 7.3885917832714"/>
<path d="M 13.000000000000002 4.0 L 13.000000000000002 3.0"/>
<path d="M 13.000000000000002 4.0 L 20.03648334221227 7.3885917832714"/>
<path d="M 16.904953652058023 21.108719811121773 L 9.095046347941977 21.108719811121773"/>
<path d="M 9.095046347941977 21.108719811121773 L 4.2256487903635875 15.002688405606829"/>
<path d="M 4.2256487903635875 15.002688405606829 L 3.250720878181763 15.225209339563143"/>
<path d="M 4.2256487903635875 15.002688405606829 L 5.96351665778773 7.3885917832714"/>
<path d="M 13.000000000000002 3.0 L 13.000000000000002 2.0"/>
<path d="M 20.8183148246803 6.765101981412666 L 21.60014630714833 6.141612179553933"/>
<path d="M 20.8183148246803 6.765101981412666 L 22.749279121818237 15.225209339563143"/>
<path d="M 22.749279121818237 15.225209339563143 L 17.33883739117558 22.009688679024194"/>
<path d="M 8.66116260882442 22.009688679024194 L 3.250720878181763 15.225209339563143"/>
<path d="M 3.250720878181763 15.225209339563143 L 2.2757929659999405 15.44773027351946"/>
<path d="M 3.250720878181763 15.225209339563143 L 5.181685175319701 6.765101981412666"/>
<path d="M 5.181685175319701 6.765101981412666 L 4.399853692851671 6.141612179553933"/>
<path d="M 13.000000000000002 2.0 L 21.60014630714833 6.141612179553933"/>
<path d="M 13.000000000000002 2.0 L 4.399853692851671 6.141612179553933"/>
<path d="M 21.60014630714833 6.141612179553933 L 22.381977789616357 5.5181223776951995"/>
<path d="M 23.72420703400006 15.44773027351946 L 17.77272113029314 22.91065754692661"/>
<path d="M 17.77272113029314 22.91065754692661 L 8.227278869706861 22.91065754692661"/>
<path d="M 17.77272113029314 22.91065754692661 L 18.206604869410697 23.81162641482903"/>
<path d="M 8.227278869706861 22.91065754692661 L 2.2757929659999405 15.44773027351946"/>
<path d="M 2.2757929659999405 15.44773027351946 L 1.3008650538181161 15.670251207475774"/>
<path d="M 13.000000000000002 1.0 L 22.381977789616357 5.5181223776951995"/>
<path d="M 22.381977789616357 5.5181223776951995 L 24.699134946181886 15.670251207475774"/>
<path d="M 18.206604869410697 23.81162641482903 L 7.793395130589302 23.81162641482903"/>
<path d="M 1.3008650538181161 15.670251207475774 L 3.618022210383641 5.5181223776951995"/>
</svg>
</svg>