<svg viewBox="0 0 18 18" xmlns="http://www.w3.org/2000/svg" style="background-color: #a3fab2;">

    <defs>
      <style>
        .green_spider path {
          stroke: #08821c;
          stroke-width: 0.1360491428667393;
          stroke-linecap: round;
          fill: none;
        }
      </style>
    </defs>

<svg class="green_spider">
<path d="M 9,9 L 9.0,8.0"/>
<path d="M 9,9 L 9.64278760968654,8.233955556881021"/>
<path d="M 9,9 L 9.86602540378444,9.5"/>
<path d="M 8.35721239031346 8.233955556881021 L 7.714424780626921 7.467911113762044"/>
<path d="M 9.0 7.0 L 9.0 6.0"/>
<path d="M 9.984807753012207 8.82635182233307 L 10.969615506024416 8.65270364466614"/>
<path d="M 9.984807753012207 8.82635182233307 A 1 1 0 0 0 9.86602540378444 9.5"/>
<path d="M 10.28557521937308 7.467911113762044 A 2 2 0 0 0 10.969615506024416 8.65270364466614"/>
<path d="M 9.86602540378444 9.5 L 10.732050807568877 10.0"/>
<path d="M 9.34202014332567 9.939692620785909 L 9.684040286651337 10.879385241571818"/>
<path d="M 8.65797985667433 9.939692620785909 A 1 1 0 0 0 8.133974596215563 9.5"/>
<path d="M 8.65797985667433 9.939692620785909 L 8.315959713348663 10.879385241571818"/>
<path d="M 8.13397459621556 9.5 L 7.267949192431123 10.0"/>
<path d="M 8.015192246987791 8.82635182233307 L 7.030384493975584 8.65270364466614"/>
<path d="M 10.969615506024416 8.65270364466614 L 11.954423259036624 8.47905546699921"/>
<path d="M 9.684040286651339 10.879385241571816 A 2 2 0 0 0 8.315959713348663 10.879385241571818"/>
<path d="M 8.315959713348663 10.879385241571818 L 7.973939570022994 11.819077862357725"/>
<path d="M 7.267949192431123 10.0 A 2 2 0 0 0 7.030384493975584 8.65270364466614"/>
<path d="M 7.030384493975584 8.65270364466614 L 6.045576740963376 8.47905546699921"/>
<path d="M 7.714424780626921 7.467911113762044 L 7.071637170940382 6.701866670643066"/>
<path d="M 7.071637170940381 6.701866670643066 A 3 3 0 0 0 9.0 6.0"/>
<path d="M 9.0 6.0 A 3 3 0 0 0 10.928362829059617 6.701866670643065"/>
<path d="M 10.928362829059619 6.701866670643066 L 11.571150438746159 5.935822227524088"/>
<path d="M 11.954423259036624 8.47905546699921 L 12.939231012048833 8.30540728933228"/>
<path d="M 11.598076211353316 10.5 L 12.464101615137755 11.0"/>
<path d="M 11.598076211353316 10.5 A 3 3 0 0 0 10.026060429977006 11.819077862357725"/>
<path d="M 10.026060429977006 11.819077862357725 A 3 3 0 0 0 7.973939570022994 11.819077862357725"/>
<path d="M 10.026060429977006 11.819077862357725 L 10.368080573302676 12.758770483143634"/>
<path d="M 6.401923788646684 10.5 L 5.5358983848622465 11.000000000000002"/>
<path d="M 6.045576740963376 8.47905546699921 A 3 3 0 0 0 7.071637170940381 6.701866670643066"/>
<path d="M 9.0 5.0 A 4 4 0 0 0 11.571150438746157 5.9358222275240875"/>
<path d="M 9.0 5.0 L 9.0 4.0"/>
<path d="M 12.939231012048833 8.305407289332278 A 4 4 0 0 0 12.464101615137755 11.0"/>
<path d="M 12.939231012048833 8.30540728933228 L 13.92403876506104 8.131759111665348"/>
<path d="M 12.464101615137755 11.0 L 13.330127018922195 11.5"/>
<path d="M 10.368080573302676 12.758770483143634 A 4 4 0 0 0 7.631919426697325 12.758770483143634"/>
<path d="M 10.368080573302676 12.758770483143634 L 10.710100716628343 13.698463103929543"/>
<path d="M 7.6319194266973245 12.758770483143634 L 7.289899283371656 13.698463103929543"/>
<path d="M 7.631919426697325 12.758770483143634 A 4 4 0 0 0 5.5358983848622465 11.000000000000002"/>
<path d="M 5.0607689879511675 8.30540728933228 A 4 4 0 0 0 6.428849561253841 5.935822227524088"/>
<path d="M 6.428849561253842 5.935822227524088 L 5.786061951567302 5.1697777844051105"/>
<path d="M 9.0 4.0 A 5 5 0 0 0 12.213938048432697 5.16977778440511"/>
<path d="M 9.0 4.0 L 9.0 3.0"/>
<path d="M 12.213938048432698 5.1697777844051105 L 12.856725658119236 4.403733341286133"/>
<path d="M 7.289899283371656 13.698463103929543 L 6.947879140045988 14.63815572471545"/>
<path d="M 7.289899283371657 13.698463103929543 A 5 5 0 0 0 4.669872981077808 11.500000000000002"/>
<path d="M 4.075961234938959 8.13175911166535 A 5 5 0 0 0 5.7860619515673015 5.1697777844051105"/>
<path d="M 5.786061951567302 5.1697777844051105 L 5.143274341880764 4.403733341286133"/>
<path d="M 9.0 3.0 L 9.0 2.0"/>
<path d="M 12.856725658119235 4.403733341286131 A 6 6 0 0 0 14.908846518073247 7.958110933998418"/>
<path d="M 14.908846518073247 7.958110933998418 A 6 6 0 0 0 14.196152422706632 11.999999999999998"/>
<path d="M 11.052120859954012 14.63815572471545 A 6 6 0 0 0 6.947879140045988 14.63815572471545"/>
<path d="M 6.947879140045988 14.63815572471545 A 6 6 0 0 0 3.8038475772933698 12.000000000000004"/>
<path d="M 3.091153481926751 7.9581109339984195 L 2.106345728914543 7.784462756331489"/>
<path d="M 3.091153481926751 7.95811093399842 A 6 6 0 0 0 5.143274341880763 4.403733341286133"/>
<path d="M 5.143274341880764 4.403733341286133 L 4.500486732194224 3.6376888981671547"/>
<path d="M 4.500486732194223 3.6376888981671547 A 7 7 0 0 0 8.999999999999998 2.0"/>
<path d="M 9.0 2.0 L 9.000000000000002 1.0"/>
<path d="M 13.499513267805776 3.6376888981671547 L 14.142300877492316 2.871644455048177"/>
<path d="M 15.893654271085456 7.784462756331488 L 16.878462024097665 7.610814578664558"/>
<path d="M 15.062177826491071 12.499999999999998 A 7 7 0 0 0 11.394141003279682 15.577848345501359"/>
<path d="M 11.394141003279682 15.577848345501359 L 11.736161146605351 16.517540966287267"/>
<path d="M 6.605858996720318 15.577848345501359 L 6.26383885339465 16.517540966287267"/>
<path d="M 6.605858996720319 15.577848345501359 A 7 7 0 0 0 2.9378221735089314 12.500000000000004"/>
<path d="M 2.9378221735089314 12.500000000000004 A 7 7 0 0 0 2.106345728914543 7.78446275633149"/>
<path d="M 2.9378221735089305 12.500000000000002 L 2.071796769724492 13.000000000000004"/>
<path d="M 2.106345728914543 7.784462756331489 L 1.121537975902335 7.610814578664559"/>
<path d="M 14.142300877492314 2.871644455048175 A 8 8 0 0 0 16.878462024097665 7.610814578664557"/>
<path d="M 16.878462024097665 7.610814578664557 A 8 8 0 0 0 15.92820323027551 12.999999999999998"/>
<path d="M 15.92820323027551 12.999999999999998 A 8 8 0 0 0 11.736161146605351 16.517540966287267"/>
<path d="M 11.736161146605351 16.517540966287267 A 8 8 0 0 0 6.263838853394651 16.517540966287267"/>
<path d="M 1.121537975902335 7.61081457866456 A 8 8 0 0 0 3.8576991225076833 2.871644455048177"/>
</svg>
</svg>