<svg viewBox="0 0 120 120" xmlns="http://www.w3.org/2000/svg">

    <defs>
      <style>
        .radial line {
  	      stroke: #aaa;
  	      stroke-width: 1;
          stroke-linecap: round;
          fill: none;
        }
      </style>
    </defs>

  	<svg class="radial">

<line x2="27.860619515673037" y2="21.697777844051096" x1="60.0" y1="10.0"/>
<line x2="60.0" y2="20.0" x1="60.0" y1="10.0"/>
<line x2="34.288495612538426" y2="29.358222275240877" x1="27.860619515673037" y1="21.697777844051096"/>
<line x2="85.71150438746156" y2="29.358222275240863" x1="60.0" y1="20.0"/>
<line x2="60.0" y2="30.0" x1="60.0" y1="20.0"/>
<line x2="16.698729810778048" y2="84.99999999999997" x1="10.759612349389599" y1="51.31759111665349"/>
<line x2="20.607689879511682" y2="53.05407289332278" x1="10.759612349389599" y1="51.31759111665349"/>
<line x2="40.71637170940383" y2="37.01866670643065" x1="34.288495612538426" y1="29.358222275240877"/>
<line x2="25.358983848622444" y2="79.99999999999997" x1="16.698729810778048" y1="84.99999999999997"/>
<line x2="42.89899283371658" y2="106.98463103929544" x1="16.698729810778048" y1="84.99999999999997"/>
<line x2="30.45576740963375" y2="54.79055466999209" x1="20.607689879511682" y1="53.05407289332278"/>
<line x2="77.10100716628341" y2="106.98463103929544" x1="42.89899283371658" y1="106.98463103929544"/>
<line x2="103.30127018922192" y2="85.00000000000003" x1="77.10100716628341" y1="106.98463103929544"/>
<line x2="73.68080573302673" y2="97.58770483143635" x1="46.319194266973255" y1="97.58770483143633"/>
<line x2="109.24038765061042" y2="51.3175911166535" x1="103.30127018922192" y1="85.00000000000003"/>
<line x2="70.26060429977005" y2="88.19077862357727" x1="73.68080573302673" y1="97.58770483143635"/>
<line x2="99.39231012048833" y2="53.05407289332281" x1="109.24038765061042" y1="51.3175911166535"/>
<line x2="92.13938048432695" y2="21.697777844051082" x1="109.24038765061042" y1="51.3175911166535"/>
<line x2="99.39231012048833" y2="53.05407289332281" x1="94.64101615137753" y1="80.00000000000003"/>
<line x2="85.98076211353316" y2="75.00000000000001" x1="94.64101615137753" y1="80.00000000000003"/>
<line x2="60.0" y2="40.0" x1="60.0" y1="30.0"/>
<line x2="47.14424780626922" y2="44.67911113762044" x1="40.71637170940383" y1="37.01866670643065"/>
<line x2="30.45576740963375" y2="54.79055466999209" x1="40.71637170940383" y1="37.01866670643065"/>
<line x2="34.019237886466826" y2="74.99999999999997" x1="30.45576740963375" y1="54.79055466999209"/>
<line x2="42.67949192431122" y2="69.99999999999999" x1="34.019237886466826" y1="74.99999999999997"/>
<line x2="70.26060429977005" y2="88.19077862357727" x1="49.73939570022995" y1="88.19077862357724"/>
<line x2="66.84040286651336" y2="78.79385241571818" x1="70.26060429977005" y1="88.19077862357727"/>
<line x2="89.54423259036625" y2="54.790554669992105" x1="85.98076211353316" y1="75.00000000000001"/>
<line x2="72.85575219373078" y2="44.67911113762044" x1="79.28362829059617" y1="37.01866670643065"/>
<line x2="72.85575219373078" y2="44.67911113762044" x1="60.0" y1="40.0"/>
<line x2="60.0" y2="50.0" x1="60.0" y1="40.0"/>
<line x2="40.303844939755834" y2="56.5270364466614" x1="47.14424780626922" y1="44.67911113762044"/>
<line x2="53.57212390313461" y2="52.339555568810226" x1="47.14424780626922" y1="44.67911113762044"/>
<line x2="50.15192246987792" y2="58.26351822333069" x1="40.303844939755834" y1="56.5270364466614"/>
<line x2="51.339745962155604" y2="65.0" x1="42.67949192431122" y1="69.99999999999999"/>
<line x2="66.84040286651336" y2="78.79385241571818" x1="53.15959713348663" y1="78.79385241571816"/>
<line x2="56.57979856674332" y2="69.39692620785908" x1="53.15959713348663" y1="78.79385241571816"/>
<line x2="77.32050807568876" y2="70.00000000000001" x1="66.84040286651336" y1="78.79385241571818"/>
<line x2="63.42020143325668" y2="69.39692620785908" x1="66.84040286651336" y1="78.79385241571818"/>
<line x2="79.69615506024417" y2="56.5270364466614" x1="77.32050807568876" y1="70.00000000000001"/>
<line x2="68.66025403784438" y2="65.0" x1="77.32050807568876" y1="70.00000000000001"/>
<line x2="72.85575219373078" y2="44.67911113762044" x1="79.69615506024417" y1="56.5270364466614"/>
<line x2="69.84807753012208" y2="58.263518223330706" x1="79.69615506024417" y1="56.5270364466614"/>
<line x2="66.42787609686539" y2="52.33955556881021" x1="72.85575219373078" y1="44.67911113762044"/>
</svg></svg>