<svg viewBox="0 0 18 18" xmlns="http://www.w3.org/2000/svg" style="background-color: #ffd09e;">

    <defs>
      <style>
        .orange_spider path {
          stroke: #b35c00;
          stroke-width: 0.3137989607450026;
          stroke-linecap: round;
          fill: none;
        }
      </style>
    </defs>

<svg class="orange_spider">
<path d="M 9.0 8.0 A 1 1 0 0 0 9.951056516295154 8.690983005625053"/>
<path d="M 9,9 L 9.0,8.0"/>
<path d="M 9,9 L 9.587785252292473,9.809016994374947"/>
<path d="M 9,9 L 8.048943483704846,8.690983005625053"/>
<path d="M 9.0 7.0 L 9.0 6.0"/>
<path d="M 7.097886967409693 8.381966011250105 A 2 2 0 0 0 9.0 7.0"/>
<path d="M 9.587785252292473 9.809016994374947 A 1 1 0 0 0 8.412214747707527 9.809016994374947"/>
<path d="M 9.587785252292473 9.809016994374947 L 10.175570504584947 10.618033988749895"/>
<path d="M 10.902113032590307 8.381966011250105 A 2 2 0 0 0 10.175570504584947 10.618033988749895"/>
<path d="M 10.902113032590307 8.381966011250105 L 11.853169548885461 8.072949016875159"/>
<path d="M 10.175570504584947 10.618033988749895 A 2 2 0 0 0 7.824429495415054 10.618033988749895"/>
<path d="M 9.0 6.0 L 9.0 5.0"/>
<path d="M 6.146830451114539 8.072949016875159 A 3 3 0 0 0 9.0 6.0"/>
<path d="M 11.853169548885461 8.072949016875157 A 3 3 0 0 0 10.76335575687742 11.427050983124841"/>
<path d="M 11.853169548885461 8.072949016875159 L 12.804226065180615 7.76393202250021"/>
<path d="M 7.236644243122581 11.427050983124843 L 6.6488589908301075 12.23606797749979"/>
<path d="M 9.0 5.0 L 9.0 4.0"/>
<path d="M 12.804226065180615 7.76393202250021 L 13.755282581475768 7.454915028125264"/>
<path d="M 12.804226065180615 7.76393202250021 A 4 4 0 0 0 11.351141009169893 12.23606797749979"/>
<path d="M 11.351141009169893 12.23606797749979 L 11.938926261462367 13.045084971874736"/>
<path d="M 6.648858990830108 12.23606797749979 A 4 4 0 0 0 5.195773934819385 7.763932022500211"/>
<path d="M 5.195773934819385 7.76393202250021 L 4.244717418524232 7.454915028125264"/>
<path d="M 9.0 4.0 A 5 5 0 0 0 13.755282581475768 7.454915028125263"/>
<path d="M 13.755282581475768 7.454915028125264 L 14.706339097770922 7.145898033750316"/>
<path d="M 11.938926261462367 13.045084971874736 L 12.526711513754838 13.854101966249685"/>
<path d="M 6.061073738537634 13.045084971874736 L 5.473288486245162 13.854101966249685"/>
<path d="M 6.061073738537635 13.045084971874736 A 5 5 0 0 0 4.244717418524232 7.454915028125264"/>
<path d="M 3.293660902229078 7.145898033750317 A 6 6 0 0 0 8.999999999999998 3.0"/>
<path d="M 9.0 3.0 A 6 6 0 0 0 14.706339097770922 7.145898033750315"/>
<path d="M 9.0 3.0 L 9.0 2.0"/>
<path d="M 14.706339097770922 7.145898033750316 L 15.657395614066075 6.836881039375369"/>
<path d="M 12.526711513754838 13.854101966249685 L 13.114496766047312 14.663118960624633"/>
<path d="M 5.473288486245162 13.854101966249685 A 6 6 0 0 0 3.293660902229078 7.145898033750317"/>
<path d="M 5.473288486245162 13.854101966249685 L 4.885503233952688 14.663118960624633"/>
<path d="M 9.0 2.0 L 9.000000000000002 1.0"/>
<path d="M 4.885503233952688 14.663118960624633 L 4.297717981660215 15.47213595499958"/>
<path d="M 4.885503233952689 14.663118960624633 A 7 7 0 0 0 2.3426043859339245 6.83688103937537"/>
<path d="M 9.0 1.0 A 8 8 0 0 0 16.60845213036123 6.52786404500042"/>
<path d="M 16.60845213036123 6.52786404500042 A 8 8 0 0 0 13.702282018339787 15.47213595499958"/>
<path d="M 4.297717981660216 15.47213595499958 A 8 8 0 0 0 1.3915478696387709 6.527864045000422"/>
</svg>
</svg>