<svg viewBox="0 0 24 24" xmlns="http://www.w3.org/2000/svg" style="background-color: #14043e;">

    <defs>
      <style>
        .purple_spider path {
          stroke: #b096f8;
          stroke-width: 0.4627186293261475;
          stroke-linecap: round;
          fill: none;
        }
      </style>
    </defs>

<svg class="purple_spider">
<path d="M 12.0 11.0 L 12.0 10.0"/>
<path d="M 12.0 11.0 A 1 1 0 0 0 12.4067366430758 11.0864545423574"/>
<path d="M 12.4067366430758 11.0864545423574 A 1 1 0 0 0 12.743144825477394 11.33086939364114"/>
<path d="M 11.5932633569242 11.0864545423574 L 11.1865267138484 10.172909084714798"/>
<path d="M 11.256855174522606 11.33086939364114 A 1 1 0 0 0 11.5932633569242 11.0864545423574"/>
<path d="M 12.743144825477394 11.33086939364114 L 13.486289650954788 10.661738787282284"/>
<path d="M 12.8134732861516 10.172909084714798 A 2 2 0 0 0 13.486289650954788 10.661738787282284"/>
<path d="M 12.951056516295154 11.690983005625053 L 13.902113032590307 11.381966011250105"/>
<path d="M 13.486289650954788 10.661738787282284 L 14.229434476432182 9.992608180923426"/>
<path d="M 13.486289650954788 10.661738787282284 A 2 2 0 0 0 13.902113032590307 11.381966011250105"/>
<path d="M 12.994521895368273 12.104528463267654 A 1 1 0 0 0 12.86602540378444 12.5"/>
<path d="M 12.994521895368273 12.104528463267654 L 13.989043790736547 12.209056926535307"/>
<path d="M 13.902113032590307 11.381966011250105 A 2 2 0 0 0 13.989043790736547 12.209056926535307"/>
<path d="M 12.86602540378444 12.5 A 1 1 0 0 0 12.587785252292473 12.809016994374947"/>
<path d="M 13.989043790736547 12.209056926535307 L 14.98356568610482 12.31358538980296"/>
<path d="M 13.989043790736547 12.209056926535307 A 2 2 0 0 0 13.732050807568879 13.0"/>
<path d="M 12.587785252292473 12.809016994374947 A 1 1 0 0 0 12.20791169081776 12.978147600733806"/>
<path d="M 13.732050807568879 13.0 A 2 2 0 0 0 13.175570504584947 13.618033988749895"/>
<path d="M 13.175570504584947 13.618033988749895 L 13.76335575687742 14.427050983124843"/>
<path d="M 13.175570504584947 13.618033988749895 A 2 2 0 0 0 12.41582338163552 13.956295201467611"/>
<path d="M 11.79208830918224 12.978147600733806 L 11.58417661836448 13.956295201467611"/>
<path d="M 11.412214747707527 12.809016994374947 A 1 1 0 0 0 11.133974596215563 12.5"/>
<path d="M 11.412214747707527 12.809016994374947 L 10.824429495415053 13.618033988749895"/>
<path d="M 11.58417661836448 13.956295201467611 L 11.376264927546723 14.934442802201417"/>
<path d="M 11.133974596215563 12.5 A 1 1 0 0 0 11.005478104631727 12.104528463267654"/>
<path d="M 10.824429495415053 13.618033988749895 L 10.23664424312258 14.427050983124843"/>
<path d="M 11.005478104631727 12.104528463267654 A 1 1 0 0 0 11.048943483704846 11.690983005625053"/>
<path d="M 10.267949192431123 13.0 L 9.401923788646684 13.5"/>
<path d="M 11.048943483704846 11.690983005625053 A 1 1 0 0 0 11.256855174522606 11.330869393641143"/>
<path d="M 10.010956209263453 12.20905692653531 A 2 2 0 0 0 10.097886967409693 11.381966011250107"/>
<path d="M 10.010956209263453 12.209056926535307 L 9.01643431389518 12.313585389802963"/>
<path d="M 10.097886967409693 11.381966011250105 L 9.146830451114539 11.072949016875159"/>
<path d="M 10.513710349045212 10.661738787282284 A 2 2 0 0 0 11.1865267138484 10.172909084714798"/>
<path d="M 11.1865267138484 10.172909084714798 L 10.7797900707726 9.259363627072197"/>
<path d="M 12.0 9.0 A 3 3 0 0 0 13.220209929227401 9.259363627072197"/>
<path d="M 10.779790070772599 9.259363627072197 A 3 3 0 0 0 12.0 9.0"/>
<path d="M 13.220209929227401 9.259363627072197 L 13.626946572303202 8.345818169429597"/>
<path d="M 14.229434476432182 9.992608180923424 A 3 3 0 0 0 14.853169548885461 11.072949016875157"/>
<path d="M 14.853169548885461 11.072949016875159 L 15.804226065180615 10.76393202250021"/>
<path d="M 14.98356568610482 12.31358538980296 L 15.978087581473094 12.418113853070613"/>
<path d="M 14.598076211353316 13.5 L 15.464101615137755 14.0"/>
<path d="M 12.623735072453277 14.934442802201417 L 12.831646763271037 15.912590402935223"/>
<path d="M 11.376264927546723 14.934442802201417 A 3 3 0 0 0 10.23664424312258 14.427050983124843"/>
<path d="M 10.23664424312258 14.427050983124843 A 3 3 0 0 0 9.401923788646684 13.500000000000002"/>
<path d="M 10.23664424312258 14.427050983124843 L 9.648858990830107 15.23606797749979"/>
<path d="M 9.401923788646684 13.5 L 8.535898384862247 14.000000000000002"/>
<path d="M 9.01643431389518 12.313585389802963 L 8.021912418526906 12.418113853070617"/>
<path d="M 9.146830451114539 11.072949016875159 A 3 3 0 0 0 9.770565523567816 9.992608180923426"/>
<path d="M 9.146830451114539 11.072949016875159 L 8.195773934819385 10.76393202250021"/>
<path d="M 9.770565523567818 9.992608180923424 A 3 3 0 0 0 10.779790070772599 9.259363627072197"/>
<path d="M 10.7797900707726 9.259363627072197 L 10.3730534276968 8.345818169429595"/>
<path d="M 10.3730534276968 8.345818169429595 A 4 4 0 0 0 11.999999999999998 8.0"/>
<path d="M 14.972579301909576 9.323477574564567 A 4 4 0 0 0 15.804226065180615 10.76393202250021"/>
<path d="M 15.978087581473094 12.418113853070613 L 16.972609476841367 12.522642316338267"/>
<path d="M 15.464101615137755 14.0 A 4 4 0 0 0 14.351141009169893 15.23606797749979"/>
<path d="M 15.464101615137755 14.0 L 16.330127018922195 14.5"/>
<path d="M 14.351141009169893 15.23606797749979 A 4 4 0 0 0 12.831646763271037 15.912590402935223"/>
<path d="M 12.831646763271037 15.912590402935223 L 13.039558454088796 16.89073800366903"/>
<path d="M 12.831646763271037 15.912590402935223 A 4 4 0 0 0 11.168353236728962 15.912590402935223"/>
<path d="M 11.168353236728963 15.912590402935223 L 10.960441545911204 16.89073800366903"/>
<path d="M 9.648858990830107 15.23606797749979 L 9.061073738537633 16.045084971874736"/>
<path d="M 8.535898384862247 14.000000000000002 L 7.669872981077807 14.500000000000002"/>
<path d="M 8.195773934819385 10.76393202250021 A 4 4 0 0 0 9.02742069809042 9.323477574564569"/>
<path d="M 9.027420698090424 9.323477574564565 L 8.28427587261303 8.654346968205708"/>
<path d="M 10.3730534276968 8.345818169429595 L 9.966316784621 7.432272711786995"/>
<path d="M 12.0 7.0 L 12.0 6.0"/>
<path d="M 12.0 7.0 A 5 5 0 0 0 14.033683215379 7.432272711786996"/>
<path d="M 14.033683215379002 7.432272711786997 L 14.440419858454803 6.5187272541443955"/>
<path d="M 14.033683215379 7.432272711786996 A 5 5 0 0 0 15.71572412738697 8.654346968205708"/>
<path d="M 16.755282581475768 10.454915028125264 A 5 5 0 0 0 16.972609476841367 12.522642316338267"/>
<path d="M 16.972609476841367 12.522642316338267 L 17.96713137220964 12.62717077960592"/>
<path d="M 16.972609476841367 12.522642316338267 A 5 5 0 0 0 16.330127018922195 14.5"/>
<path d="M 14.938926261462367 16.045084971874736 A 5 5 0 0 0 13.039558454088796 16.89073800366903"/>
<path d="M 10.960441545911205 16.89073800366903 A 5 5 0 0 0 9.061073738537635 16.045084971874736"/>
<path d="M 10.960441545911204 16.89073800366903 L 10.752529855093446 17.868885604402834"/>
<path d="M 7.669872981077808 14.500000000000002 A 5 5 0 0 0 7.027390523158633 12.52264231633827"/>
<path d="M 7.027390523158633 12.52264231633827 A 5 5 0 0 0 7.244717418524231 10.454915028125267"/>
<path d="M 9.966316784621 7.432272711786995 L 9.5595801415452 6.518727254144395"/>
<path d="M 9.559580141545199 6.518727254144395 A 6 6 0 0 0 11.999999999999998 6.0"/>
<path d="M 14.440419858454801 6.518727254144395 A 6 6 0 0 0 16.458868952864364 7.98521636184685"/>
<path d="M 17.706339097770922 10.145898033750315 L 18.657395614066075 9.836881039375369"/>
<path d="M 17.96713137220964 12.62717077960592 L 18.961653267577912 12.731699242873574"/>
<path d="M 17.96713137220964 12.62717077960592 A 6 6 0 0 0 17.196152422706632 14.999999999999998"/>
<path d="M 17.196152422706632 15.0 L 18.062177826491073 15.5"/>
<path d="M 15.526711513754838 16.854101966249686 L 16.11449676604731 17.663118960624633"/>
<path d="M 13.247470144906554 17.868885604402834 L 13.455381835724314 18.84703320513664"/>
<path d="M 10.752529855093446 17.868885604402834 L 10.544618164275686 18.84703320513664"/>
<path d="M 8.473288486245162 16.854101966249686 A 6 6 0 0 0 6.80384757729337 15.000000000000004"/>
<path d="M 8.473288486245162 16.854101966249686 L 7.885503233952688 17.663118960624633"/>
<path d="M 6.803847577293369 15.000000000000002 L 5.9378221735089305 15.500000000000002"/>
<path d="M 6.032868627790361 12.627170779605924 L 5.038346732422087 12.731699242873578"/>
<path d="M 6.293660902229078 10.145898033750317 A 6 6 0 0 0 7.541131047135632 7.985216361846853"/>
<path d="M 7.541131047135636 7.985216361846849 L 6.797986221658242 7.31608575548799"/>
<path d="M 9.5595801415452 6.518727254144395 L 9.1528434984694 5.605181796501793"/>
<path d="M 12.0 5.0 A 7 7 0 0 0 14.847156501530602 5.605181796501794"/>
<path d="M 12.0 5.0 L 12.000000000000002 4.0"/>
<path d="M 14.847156501530602 5.605181796501794 A 7 7 0 0 0 17.202013778341758 7.3160857554879914"/>
<path d="M 17.202013778341758 7.316085755487992 L 17.945158603819152 6.646955149129134"/>
<path d="M 17.202013778341758 7.3160857554879914 A 7 7 0 0 0 18.657395614066075 9.836881039375367"/>
<path d="M 18.657395614066075 9.836881039375369 L 19.60845213036123 9.52786404500042"/>
<path d="M 16.114496766047314 17.66311896062463 A 7 7 0 0 0 13.455381835724316 18.84703320513664"/>
<path d="M 13.455381835724316 18.84703320513664 A 7 7 0 0 0 10.544618164275683 18.84703320513664"/>
<path d="M 10.544618164275686 18.84703320513664 A 7 7 0 0 0 7.885503233952689 17.663118960624633"/>
<path d="M 5.937822173508931 15.500000000000004 A 7 7 0 0 0 5.038346732422087 12.73169924287358"/>
<path d="M 5.038346732422087 12.73169924287358 A 7 7 0 0 0 5.342604385933923 9.836881039375376"/>
<path d="M 5.038346732422087 12.731699242873578 L 4.043824837053814 12.836227706141234"/>
<path d="M 5.3426043859339245 9.836881039375369 L 4.391547869638771 9.52786404500042"/>
<path d="M 6.797986221658242 7.316085755487991 A 7 7 0 0 0 9.152843498469398 5.605181796501793"/>
<path d="M 6.797986221658242 7.31608575548799 L 6.054841396180848 6.646955149129131"/>
<path d="M 9.1528434984694 5.605181796501793 L 8.746106855393599 4.691636338859192"/>
<path d="M 8.746106855393599 4.691636338859192 A 8 8 0 0 0 11.999999999999998 4.0"/>
<path d="M 15.253893144606403 4.691636338859194 L 15.660629787682204 3.7780908812165936"/>
<path d="M 19.60845213036123 9.52786404500042 A 8 8 0 0 0 19.956175162946188 12.836227706141226"/>
<path d="M 18.92820323027551 16.0 L 19.794228634059948 16.5"/>
<path d="M 16.702282018339787 18.47213595499958 A 8 8 0 0 0 13.663293526542073 19.825180805870446"/>
<path d="M 13.663293526542073 19.825180805870446 L 13.871205217359833 20.80332840660425"/>
<path d="M 10.336706473457927 19.825180805870446 L 10.128794782640167 20.80332840660425"/>
<path d="M 7.297717981660215 18.47213595499958 L 6.7099327293677415 19.281152949374526"/>
<path d="M 7.297717981660216 18.47213595499958 A 8 8 0 0 0 5.071796769724493 16.000000000000004"/>
<path d="M 8.746106855393599 4.691636338859192 L 8.3393702123178 3.778090881216592"/>
<path d="M 12.0 3.0 A 9 9 0 0 0 15.6606297876822 3.778090881216592"/>
<path d="M 8.3393702123178 3.778090881216592 A 9 9 0 0 0 11.999999999999998 3.0"/>
<path d="M 15.660629787682204 3.7780908812165936 L 16.067366430758003 2.8645454235739933"/>
<path d="M 18.688303429296546 5.977824542770275 A 9 9 0 0 0 20.559508646656383 9.218847050625474"/>
<path d="M 18.688303429296546 5.977824542770276 L 19.43144825477394 5.308693936411418"/>
<path d="M 20.559508646656383 9.218847050625474 L 21.510565162951536 8.909830056250527"/>
<path d="M 20.95069705831446 12.94075616940888 A 9 9 0 0 0 19.794228634059948 16.5"/>
<path d="M 20.95069705831446 12.94075616940888 L 21.945218953682733 13.045284632676534"/>
<path d="M 19.794228634059948 16.5 A 9 9 0 0 0 17.29006727063226 19.281152949374526"/>
<path d="M 13.871205217359833 20.80332840660425 L 14.079116908177593 21.781476007338057"/>
<path d="M 10.128794782640169 20.80332840660425 A 9 9 0 0 0 6.709932729367742 19.281152949374526"/>
<path d="M 6.7099327293677415 19.281152949374526 L 6.122147477075268 20.090169943749473"/>
<path d="M 6.709932729367742 19.281152949374526 A 9 9 0 0 0 4.205771365940055 16.500000000000004"/>
<path d="M 4.205771365940055 16.500000000000004 A 9 9 0 0 0 3.049302941685541 12.940756169408887"/>
<path d="M 3.440491353343617 9.218847050625474 L 2.4894348370484636 8.909830056250527"/>
<path d="M 3.440491353343617 9.218847050625474 A 9 9 0 0 0 5.311696570703448 5.97782454277028"/>
<path d="M 8.3393702123178 3.778090881216592 L 7.932633569241999 2.86454542357399"/>
<path d="M 12.0 2.0 A 10 10 0 0 0 16.067366430758 2.8645454235739916"/>
<path d="M 16.067366430758003 2.8645454235739933 L 16.474103073833803 1.9509999659313912"/>
<path d="M 16.067366430758 2.8645454235739916 A 10 10 0 0 0 19.43144825477394 5.308693936411417"/>
<path d="M 19.43144825477394 5.308693936411418 L 20.174593080251334 4.639563330052559"/>
<path d="M 21.510565162951536 8.909830056250525 A 10 10 0 0 0 21.945218953682733 13.045284632676534"/>
<path d="M 20.66025403784439 17.0 A 10 10 0 0 0 17.877852522924734 20.090169943749473"/>
<path d="M 17.877852522924734 20.090169943749473 A 10 10 0 0 0 14.079116908177593 21.781476007338057"/>
<path d="M 14.079116908177593 21.781476007338057 L 14.28702859899535 22.759623608071863"/>
<path d="M 9.920883091822407 21.781476007338057 L 9.71297140100465 22.759623608071863"/>
<path d="M 6.122147477075268 20.090169943749473 L 5.534362224782796 20.899186938124423"/>
<path d="M 3.3397459621556145 17.000000000000004 L 2.473720558371177 17.500000000000004"/>
<path d="M 3.3397459621556163 17.000000000000004 A 10 10 0 0 0 2.0547810463172667 13.045284632676543"/>
<path d="M 2.4894348370484636 8.909830056250527 L 1.53837832075331 8.600813061875579"/>
<path d="M 2.4894348370484636 8.909830056250527 A 10 10 0 0 0 4.568551745226053 5.308693936411422"/>
<path d="M 4.56855174522606 5.308693936411416 A 10 10 0 0 0 7.9326335692419985 2.86454542357399"/>
<path d="M 7.525896926166198 1.9509999659313895 A 11 11 0 0 0 11.999999999999996 1.0"/>
<path d="M 12.0 1.0 A 11 11 0 0 0 16.474103073833803 1.9509999659313912"/>
<path d="M 20.174593080251334 4.6395633300525585 A 11 11 0 0 0 22.46162167924669 8.600813061875577"/>
<path d="M 22.46162167924669 8.600813061875577 A 11 11 0 0 0 22.939740849051006 13.149813095944186"/>
<path d="M 21.526279441628827 17.499999999999996 A 11 11 0 0 0 18.465637775217207 20.899186938124423"/>
<path d="M 18.465637775217207 20.899186938124423 A 11 11 0 0 0 14.287028598995352 22.759623608071863"/>
<path d="M 14.287028598995352 22.759623608071863 A 11 11 0 0 0 9.712971401004646 22.759623608071863"/>
<path d="M 9.712971401004651 22.759623608071863 A 11 11 0 0 0 5.534362224782797 20.899186938124423"/>
<path d="M 5.534362224782797 20.899186938124423 A 11 11 0 0 0 2.473720558371177 17.500000000000007"/>
<path d="M 2.473720558371177 17.500000000000007 A 11 11 0 0 0 1.060259150948994 13.149813095944197"/>
<path d="M 1.060259150948994 13.149813095944197 A 11 11 0 0 0 1.5383783207533082 8.60081306187559"/>
<path d="M 3.8254069197486658 4.639563330052557 A 11 11 0 0 0 7.525896926166198 1.9509999659313895"/>
</svg>
</svg>