<svg width="60px" height="60px" version="1.1" viewBox="0 0 1600 1600" xmlns="http://www.w3.org/2000/svg">
  <defs>
    <!-- https://thenounproject.com/icon/book-open-6650169/ -->
    <g id="bookIcon">
      <svg x="200" y="200">
        <path d="m351.94 214.69c-64.547-1.3125-138.94 16.078-216.84 50.297l0.046875-0.046875c-19.734 9-32.344 28.641-32.297 50.297v615c-0.09375 9.375 4.5938 18.141 12.469 23.297 7.8281 5.1094 17.719 5.8594 26.297 2.0156 218.39-101.48 379.45 18.844 386.39 24.375 4.8281 3.6562 10.734 5.5312 16.781 5.3906 15.094-0.046875 27.328-12.281 27.375-27.375v-660c0.09375-9.0469-4.4062-17.531-12-22.547-62.625-38.953-134.81-59.719-208.55-60zm712.92 50.297v-0.046875c-68.016-31.453-141.84-48.562-216.79-50.25-73.734 0.60938-145.82 21.328-208.6 60-7.5 5.0156-12.047 13.5-12 22.547v658.82c-0.23438 7.5469 2.5312 14.859 7.7812 20.344 5.2031 5.4375 12.375 8.5781 19.969 8.6719 6.0938 0.14062 12.047-1.9219 16.781-5.7656 6.9375-5.1562 168-125.53 386.39-24 8.5781 3.7969 18.422 3 26.25-2.1094s12.562-13.875 12.516-23.203v-614.76c-0.84375-21.375-13.172-40.641-32.297-50.297z"/>
      </svg>
    </g>
  </defs>
  <mask id="book">
    <rect x="0" y="0" width="1600" height="1600" fill="white"/>
    <use xlink:href="#bookIcon" fill="black"/>
  </mask>
  <circle cx="800" cy="800" r="756" class="accent" fill="white"/>
  <circle cx="800" cy="800" r="800" class="background" mask="url(#book)"/>
</svg>
