<?xml version="1.0" encoding="UTF-8"?>
<svg width="112px" height="31px" viewBox="0 0 112 31" version="1.1" xmlns="http://www.w3.org/2000/svg" xmlns:xlink="http://www.w3.org/1999/xlink">
    <defs>
        <polygon id="path-1" points="0.228424 0.218384318 16.897944 0.218384318 16.897944 17.0156371 0.228424 17.0156371"></polygon>
        <polygon id="path-3" points="0.208544 14.1075141 12.945744 14.1075141 12.945744 0.0865072765 0.208544 0.0865072765 0.208544 14.1075141"></polygon>
        <polygon id="path-5" points="0.415968 14.1075141 13.802208 14.1075141 13.802208 0.0864508465 0.415968 0.0864508465 0.415968 14.1075141"></polygon>
        <polygon id="path-7" points="10.870832 14.1075141 0.000112 14.1075141 0.000112 0.0865072765 10.870832 0.0865072765"></polygon>
        <polygon id="path-9" points="14.37184 14.1075141 0.32312 14.1075141 0.32312 0.0864508465 14.37184 0.0864508465 14.37184 14.1075141"></polygon>
        <polygon id="path-11" points="14.229656 14.1075141 0.180376 14.1075141 0.180376 0.0864508465 14.229656 0.0864508465 14.229656 14.1075141"></polygon>
        <polygon id="path-13" points="0.51744 0.621703475 1.14665348 0.621703475 1.14665348 0.0859429759 0.51744 0.0859429759"></polygon>
    </defs>
    <g id="Page-1" stroke="none" stroke-width="1" fill="none" fill-rule="evenodd">
        <g id="Desktop-HD" transform="translate(-25.000000, -51.000000)">
            <g id="Page-1" transform="translate(25.000000, 51.000000)">
                <g id="Group-3" transform="translate(37.520000, 0.346086)">
                    <mask id="mask-2" fill="white">
                        <use xlink:href="#path-1"></use>
                    </mask>
                    <g id="Clip-2"></g>
                    <path d="M16.897944,8.61658747 C16.897944,13.2557024 13.166664,17.0156371 8.563464,17.0156371 C3.960264,17.0156371 0.228424,13.2557024 0.228424,8.61658747 C0.228424,3.97916543 3.960264,0.218102168 8.563464,0.218102168 C13.166664,0.218102168 16.897944,3.97916543 16.897944,8.61658747" id="Fill-1" fill="#B1D39A" mask="url(#mask-2)"></path>
                </g>
                <g id="Group-6" transform="translate(49.840000, 16.710802)">
                    <mask id="mask-4" fill="white">
                        <use xlink:href="#path-3"></use>
                    </mask>
                    <g id="Clip-5"></g>
                    <path d="M9.701104,5.3057232 C9.277184,3.67038016 8.253504,2.85214434 6.630624,2.85214434 C6.261584,2.85214434 5.914944,2.909703 5.590144,3.02369171 C5.265344,3.13711613 4.970224,3.30019899 4.704224,3.5135046 C4.438784,3.72737452 4.210864,3.98413127 4.021584,4.28377487 C3.832864,4.58341847 3.688384,4.92425601 3.588704,5.3057232 L9.701104,5.3057232 Z M12.824224,7.8123463 L3.386544,7.8123463 C3.467184,8.90201069 3.818304,9.76990496 4.440464,10.4154648 C5.062624,11.0508672 5.860624,11.3685685 6.833904,11.3685685 C7.591024,11.3685685 8.218224,11.1868637 8.713824,10.8234541 C9.200464,10.4611732 9.754864,9.78739828 10.376464,8.8077725 L12.945744,10.2512533 C12.548704,10.9329284 12.129824,11.5164152 11.688544,12.002278 C11.247264,12.4881408 10.773504,12.8876656 10.268384,13.2014167 C9.763824,13.5151678 9.218384,13.7437095 8.633184,13.8892991 C8.046864,14.0343243 7.411264,14.1076834 6.726384,14.1076834 C4.760224,14.1076834 3.183824,13.4728453 1.992704,12.1997832 C0.803824,10.9193852 0.208544,9.22027621 0.208544,7.10471339 C0.208544,5.0055153 0.785344,3.3075349 1.939504,2.0079507 C3.102064,0.727552718 4.644304,0.0865072765 6.563424,0.0865072765 C8.501584,0.0865072765 10.034304,0.708366498 11.161584,1.95434214 C12.278784,3.18846748 12.838224,4.90055539 12.838224,7.09004158 L12.824224,7.8123463 Z" id="Fill-4" fill="#B1D39A" mask="url(#mask-4)"></path>
                </g>
                <g id="Group-9" transform="translate(64.400000, 16.710802)">
                    <mask id="mask-6" fill="white">
                        <use xlink:href="#path-5"></use>
                    </mask>
                    <g id="Clip-8"></g>
                    <path d="M3.525088,7.04935551 C3.525088,8.32128898 3.863328,9.35734482 4.539248,10.1569587 C5.232528,10.9639085 6.107808,11.368512 7.161728,11.368512 C8.288448,11.368512 9.199568,10.9791446 9.893968,10.1964598 C10.587808,9.38838135 10.934448,8.36304722 10.934448,7.11763588 C10.934448,5.87335313 10.587808,4.84689041 9.893968,4.038812 C9.199568,3.24879121 8.298528,2.85265221 7.189168,2.85265221 C6.143648,2.85265221 5.269488,3.25217701 4.565568,4.05179091 C3.871168,4.86099792 3.525088,5.85980992 3.525088,7.04935551 L3.525088,7.04935551 Z M10.746288,0.454374814 L13.802208,0.454374814 L13.802208,13.7261598 L10.746288,13.7261598 L10.746288,12.3362875 C9.492448,13.5173686 8.143968,14.107627 6.702528,14.107627 C4.881408,14.107627 3.375568,13.4440095 2.186688,12.1179032 C1.005088,10.7647104 0.415968,9.07575884 0.415968,7.04935551 C0.415968,5.06019602 1.005088,3.40228096 2.186688,2.07617464 C3.366608,0.750632611 4.845568,0.0864508465 6.621328,0.0864508465 C8.154048,0.0864508465 9.528848,0.722417582 10.746288,1.99378675 L10.746288,0.454374814 Z" id="Fill-7" fill="#B1D39A" mask="url(#mask-6)"></path>
                </g>
                <path d="M80.93428,17.1659667 L83.97676,17.1659667 L83.97676,18.3509979 C84.5362,17.7607395 85.03124,17.356136 85.46412,17.1388803 C85.9054,16.9103386 86.42844,16.7980428 87.03212,16.7980428 C87.8346,16.7980428 88.67236,17.0610068 89.54764,17.5874993 L88.15436,20.3948946 C87.57756,19.9773121 87.01308,19.7679566 86.46428,19.7679566 C84.805,19.7679566 83.97676,21.0314256 83.97676,23.5561063 L83.97676,30.4371874 L80.93428,30.4371874 L80.93428,17.1659667 Z" id="Fill-10" fill="#B1D39A"></path>
                <polygon id="Fill-12" fill="#B1D39A" points="95.429768 20.026632 95.429768 30.4368488 92.386728 30.4368488 92.386728 20.026632 91.088648 20.026632 91.088648 17.1656282 92.386728 17.1656282 92.386728 12.3013573 95.429768 12.3013573 95.429768 17.1656282 97.795768 17.1656282 97.795768 20.026632"></polygon>
                <path d="M100.41836,7.42354321 L103.4614,7.42354321 L103.4614,18.2699644 C104.54276,17.2880814 105.73724,16.7965756 107.04428,16.7965756 C108.53164,16.7965756 109.72164,17.283567 110.61428,18.2558568 C111.37196,19.1006148 111.7494,20.4492931 111.7494,22.3018919 L111.7494,30.4368488 L108.70804,30.4368488 L108.70804,22.5885566 C108.70804,21.5254143 108.52044,20.7557083 108.14692,20.2788744 C107.77284,19.8026047 107.17084,19.5633413 106.34204,19.5633413 C105.27692,19.5633413 104.52988,19.89515 104.09588,20.5582031 C103.67308,21.2302851 103.4614,22.3842798 103.4614,24.0196228 L103.4614,30.4368488 L100.41836,30.4368488 L100.41836,7.42354321 Z" id="Fill-14" fill="#B1D39A"></path>
                <g id="Group-18" transform="translate(0.000000, 16.710802)">
                    <mask id="mask-8" fill="white">
                        <use xlink:href="#path-7"></use>
                    </mask>
                    <g id="Clip-17"></g>
                    <path d="M10.870832,1.02719632 L10.870832,5.10201069 C10.176992,4.24709534 9.554832,3.66135135 9.004912,3.34308583 C8.464512,3.01635581 7.828912,2.85214434 7.098672,2.85214434 C5.953472,2.85214434 5.002592,3.25674785 4.244912,4.06595486 C3.487792,4.87346896 3.109792,5.88695278 3.109792,7.10471339 C3.109792,8.34899614 3.474912,9.36981586 4.204032,10.1694298 C4.944352,10.9690437 5.886272,11.3685685 7.031472,11.3685685 C7.761152,11.3685685 8.405712,11.2105643 8.965152,10.8922988 C9.505552,10.5836264 10.141152,9.98377487 10.870832,9.09330858 L10.870832,13.1399079 C9.636032,13.7849035 8.401232,14.1076834 7.166432,14.1076834 C5.129712,14.1076834 3.425632,13.4440659 2.055312,12.1179596 C0.684992,10.7822602 0.000112,9.12603802 0.000112,7.14477873 C0.000112,5.16464805 0.694512,3.49318978 2.081632,2.13096822 C3.470432,0.768182358 5.173392,0.0865072765 7.192752,0.0865072765 C8.490832,0.0865072765 9.716672,0.401386991 10.870832,1.02719632" id="Fill-16" fill="#65BADC" mask="url(#mask-8)"></path>
                </g>
                <g id="Group-21" transform="translate(12.320000, 16.710802)">
                    <mask id="mask-10" fill="white">
                        <use xlink:href="#path-9"></use>
                    </mask>
                    <g id="Clip-20"></g>
                    <path d="M3.43336,7.04935551 C3.43336,8.37602614 3.78448,9.42506089 4.48784,10.1964598 C5.20856,10.9791446 6.16,11.368512 7.3416,11.368512 C8.5316,11.368512 9.48192,10.9830947 10.19368,10.2111316 C10.906,9.4380398 11.26216,8.40819127 11.26216,7.11763588 C11.26216,5.82877339 10.906,4.79666766 10.19368,4.02526879 C9.47296,3.2431482 8.52152,2.85265221 7.3416,2.85265221 C6.17736,2.85265221 5.236,3.2431482 4.51416,4.02526879 C3.79344,4.80626077 3.43336,5.81410157 3.43336,7.04935551 M0.32312,6.99461835 C0.32312,5.07881794 1.00296,3.44742501 2.36488,2.10326106 C3.72568,0.75966142 5.3844,0.0864508465 7.3416,0.0864508465 C9.30552,0.0864508465 10.97376,0.763611524 12.34408,2.11736858 C13.69592,3.46999703 14.37184,5.13299079 14.37184,7.10465696 C14.37184,9.09325215 13.69144,10.760196 12.33008,12.10436 C10.96032,13.4400594 9.2792,14.107627 7.28672,14.107627 C5.31272,14.107627 3.65848,13.4265162 2.32456,12.0642946 C0.99008,10.7195664 0.32312,9.03005049 0.32312,6.99461835" id="Fill-19" fill="#65BADC" mask="url(#mask-10)"></path>
                </g>
                <g id="Group-24" transform="translate(28.000000, 16.710802)">
                    <mask id="mask-12" fill="white">
                        <use xlink:href="#path-11"></use>
                    </mask>
                    <g id="Clip-23"></g>
                    <path d="M3.290616,7.04935551 C3.290616,8.37602614 3.642296,9.42506089 4.345656,10.1964598 C5.066376,10.9791446 6.017256,11.368512 7.197736,11.368512 C8.388856,11.368512 9.339176,10.9830947 10.051496,10.2111316 C10.763816,9.4380398 11.119416,8.40819127 11.119416,7.11763588 C11.119416,5.82877339 10.763816,4.79666766 10.051496,4.02526879 C9.330216,3.2431482 8.379336,2.85265221 7.197736,2.85265221 C6.035176,2.85265221 5.093816,3.2431482 4.373096,4.02526879 C3.651816,4.80626077 3.290616,5.81410157 3.290616,7.04935551 M0.180376,6.99461835 C0.180376,5.07881794 0.861336,3.44742501 2.222696,2.10326106 C3.582936,0.75966142 5.242216,0.0864508465 7.197736,0.0864508465 C9.163336,0.0864508465 10.831576,0.763611524 12.201336,2.11736858 C13.553736,3.46999703 14.229656,5.13299079 14.229656,7.10465696 C14.229656,9.09325215 13.549256,10.760196 12.187896,12.10436 C10.817576,13.4400594 9.135896,14.107627 7.144536,14.107627 C5.169976,14.107627 3.515176,13.4265162 2.182376,12.0642946 C0.848456,10.7195664 0.180376,9.03005049 0.180376,6.99461835" id="Fill-22" fill="#65BADC" mask="url(#mask-12)"></path>
                </g>
                <g id="Group-27" transform="translate(42.560000, 30.254015)">
                    <mask id="mask-14" fill="white">
                        <use xlink:href="#path-13"></use>
                    </mask>
                    <g id="Clip-26"></g>
                    <path d="M0.777934382,0.0859429759 L0.51744,0.0859429759 L0.777934382,0.0859429759 Z" id="Fill-25" fill="#65BADC" mask="url(#mask-14)"></path>
                </g>
                <path d="M47.77836,18.2538254 C48.18156,16.3510039 50.5162,14.1874755 51.54716,13.2050282 C53.12244,11.7056816 55.06396,7.74034155 53.69196,9.23686665 C53.19132,9.78198099 51.51804,13.0955539 50.62876,11.7937125 C50.24012,11.2232046 50.63436,4.92448173 50.27876,5.26870508 C49.93492,5.60220671 50.00884,12.973665 49.66276,13.2919305 C48.34396,14.5023552 47.11532,16.2212147 46.48756,16.6269468 C45.86092,17.0326789 45.56244,16.3177101 44.90388,15.0739917 C44.0146,13.3912474 42.94836,9.69677161 42.16268,8.21378972 C41.28908,6.56095337 41.44868,7.187327 41.01356,6.7872379 C40.74756,6.54346005 43.55764,14.385545 43.71052,14.7969201 C43.86284,15.2088595 41.33612,12.6666855 40.48828,12.2513603 C39.641,11.8371636 38.94716,11.7638046 39.04348,11.7451827 C39.14036,11.7276893 37.92124,11.9584883 39.82132,12.7586665 C41.7214,13.5588447 45.0842,18.868913 45.27796,19.5009296 C45.47284,20.1335105 45.27796,30.7948411 45.27796,30.7948411 L47.73132,30.7948411 C47.73132,30.7948411 47.3746,20.1572112 47.77836,18.2538254" id="Fill-28" fill="#65BADC"></path>
            </g>
        </g>
    </g>
</svg>