<svg viewBox="0 0 200 200" xmlns="http://www.w3.org/2000/svg">
  <defs>
    <style>
      line {
        stroke: currentColor;
        stroke-width: 1.5;
        stroke-linecap: round;
      }
    </style>
  </defs>

  <line x1="100" y1="100" x2="179.9254650674767"   y2="103.45254018768296" />
<line x1="191.35991715804818" y1="110.82800556832582" x2="179.9254650674767"   y2="103.45254018768296" />
<line x1="191.35991715804818" y1="110.82800556832582" x2="178.51818924546404"   y2="115.32625060520338" />
<line x1="100" y1="100" x2="178.51818924546404"   y2="115.32625060520338" />
<line x1="188.72567187918057" y1="124.32355478340098" x2="178.51818924546404"   y2="115.32625060520338" />
<line x1="188.72567187918057" y1="124.32355478340098" x2="175.35694682310972"   y2="126.85759791007033" />
<line x1="100" y1="100" x2="175.35694682310972"   y2="126.85759791007033" />
<line x1="184.10944170529137" y1="137.2757559780793" x2="175.35694682310972"   y2="126.85759791007033" />
<line x1="184.10944170529137" y1="137.2757559780793" x2="170.51235473233328"   y2="137.78899085847087" />
<line x1="100" y1="100" x2="170.51235473233328"   y2="137.78899085847087" />
<line x1="177.6143455903745" y1="149.3952783805399" x2="170.51235473233328"   y2="137.78899085847087" />
<line x1="177.6143455903745" y1="149.3952783805399" x2="164.09263315499524"   y2="147.87624019552084" />
<line x1="100" y1="100" x2="164.09263315499524"   y2="147.87624019552084" />
<line x1="169.38547324881404" y1="160.41139188721968" x2="164.09263315499524"   y2="147.87624019552084" />
<line x1="169.38547324881404" y1="160.41139188721968" x2="156.24118806286276"   y2="156.89401343970826" />
<line x1="100" y1="100" x2="156.24118806286276"   y2="156.89401343970826" />
<line x1="159.60664409091817" y1="170.07801472595906" x2="156.24118806286276"   y2="156.89401343970826" />
<line x1="159.60664409091817" y1="170.07801472595906" x2="147.13340776517157"   y2="164.64086843817978" />
<line x1="100" y1="100" x2="147.13340776517157"   y2="164.64086843817978" />
<line x1="148.4963010010455" y1="178.17921051615394" x2="147.13340776517157"   y2="164.64086843817978" />
<line x1="148.4963010010455" y1="178.17921051615394" x2="136.97274502361822"   y2="170.943753251562" />
<line x1="100" y1="100" x2="136.97274502361822"   y2="170.943753251562" />
<line x1="136.30263068453456" y1="184.53401193067447" x2="136.97274502361822"   y2="170.943753251562" />
<line x1="136.30263068453456" y1="184.53401193067447" x2="125.98617225385925"   y2="175.66187184832765" />
<line x1="100" y1="100" x2="125.98617225385925"   y2="175.66187184832765" />
<line x1="123.29801958682253" y1="189.00046320691348" x2="125.98617225385925"   y2="175.66187184832765" />
<line x1="123.29801958682253" y1="189.00046320691348" x2="114.41911133680611"   y2="178.68982925548124" />
<line x1="100" y1="100" x2="114.41911133680611"   y2="178.68982925548124" />
<line x1="109.77296923035937" y1="191.47879120394833" x2="114.41911133680611"   y2="178.68982925548124" />
<line x1="109.77296923035937" y1="191.47879120394833" x2="102.52995129935296"   y2="179.95998590809594" />
<line x1="100" y1="100" x2="102.52995129935296"   y2="179.95998590809594" />
<line x1="96.02960689063543" y1="191.913634169639" x2="102.52995129935296"   y2="179.95998590809594" />
<line x1="96.02960689063543" y1="191.913634169639" x2="90.58427633049094"   y2="179.44396860542307" />
<line x1="100" y1="100" x2="90.58427633049094"   y2="179.44396860542307" />
<line x1="82.37493657209762" y1="190.2952784306884" x2="90.58427633049094"   y2="179.44396860542307" />
<line x1="82.37493657209762" y1="190.2952784306884" x2="78.84893306939074"   y2="177.1533043213114" />
<line x1="100" y1="100" x2="78.84893306939074"   y2="177.1533043213114" />
<line x1="69.11398104599854" y1="186.65987538005226" x2="78.84893306939074"   y2="177.1533043213114" />
<line x1="69.11398104599854" y1="186.65987538005226" x2="67.58606969243435"   y2="173.13916271065918" />
<line x1="100" y1="100" x2="67.58606969243435"   y2="173.13916271065918" />
<line x1="56.542968145721915" y1="181.08863391455907" x2="67.58606969243435"   y2="173.13916271065918" />
<line x1="56.542968145721915" y1="181.08863391455907" x2="57.04727995614155"   y2="167.49121306387906" />
<line x1="100" y1="100" x2="57.04727995614155"   y2="167.49121306387906" />
<line x1="44.94271352648638" y1="173.70600636234863" x2="57.04727995614155"   y2="167.49121306387906" />
<line x1="44.94271352648638" y1="173.70600636234863" x2="47.46798300839523"   y2="160.33562124312425" />
<line x1="100" y1="100" x2="47.46798300839523"   y2="160.33562124312425" />
<line x1="34.57234770764197" y1="164.6769084235125" x2="47.46798300839523"   y2="160.33562124312425" />
<line x1="34.57234770764197" y1="164.6769084235125" x2="39.06216451369639"   y2="151.8322313454109" />
<line x1="100" y1="100" x2="39.06216451369639"   y2="151.8322313454109" />
<line x1="25.663527525067977" y1="154.203035225869" x2="39.06216451369639"   y2="151.8322313454109" />
<line x1="25.663527525067977" y1="154.203035225869" x2="32.01759656701965"   y2="142.17099504962505" />
<line x1="100" y1="100" x2="32.01759656701965"   y2="142.17099504962505" />
<line x1="18.415261300260923" y1="142.51835578909913" x2="32.01759656701965"   y2="142.17099504962505" />
<line x1="18.415261300260923" y1="142.51835578909913" x2="26.491643175495682"   y2="131.56772840990226" />
<line x1="100" y1="100" x2="26.491643175495682"   y2="131.56772840990226" />
<line x1="12.989463323283573" y1="129.8838865434687" x2="26.491643175495682"   y2="131.56772840990226" />
<line x1="12.989463323283573" y1="129.8838865434687" x2="22.607745006527992"   y2="120.25929088160314" />
<line x1="100" y1="100" x2="22.607745006527992"   y2="120.25929088160314" />
<line x1="9.50733695508039" y1="116.5818606540932" x2="22.607745006527992"   y2="120.25929088160314" />
<line x1="9.50733695508039" y1="116.5818606540932" x2="20.45266192726281"   y2="108.49829427247943" />
<line x1="100" y1="100" x2="20.45266192726281"   y2="108.49829427247943" />
<line x1="8.046667144676391" y1="102.90942339840518" x2="20.45266192726281"   y2="108.49829427247943" />
<line x1="8.046667144676391" y1="102.90942339840518" x2="20.07453493252332"   y2="96.54745981231706" />
<line x1="100" y1="100" x2="20.07453493252332"   y2="96.54745981231706" />
<line x1="8.64008284195181" y1="89.17199443167421" x2="20.07453493252332"   y2="96.54745981231706" />
<line x1="8.64008284195181" y1="89.17199443167421" x2="21.481810754535957"   y2="84.67374939479664" />
<line x1="100" y1="100" x2="21.481810754535957"   y2="84.67374939479664" />
<line x1="11.274328120819419" y1="75.67644521659903" x2="21.481810754535957"   y2="84.67374939479664" />
<line x1="11.274328120819419" y1="75.67644521659903" x2="24.643053176890277"   y2="73.1424020899297" />
<line x1="100" y1="100" x2="24.643053176890277"   y2="73.1424020899297" />
<line x1="15.89055829470864" y1="62.72424402192068" x2="24.643053176890277"   y2="73.1424020899297" />
<line x1="15.89055829470864" y1="62.72424402192068" x2="29.487645267666693"   y2="62.21100914152914" />
<line x1="100" y1="100" x2="29.487645267666693"   y2="62.21100914152914" />
<line x1="22.38565440962546" y1="50.604721619460115" x2="29.487645267666693"   y2="62.21100914152914" />
<line x1="22.38565440962546" y1="50.604721619460115" x2="35.90736684500476"   y2="52.12375980447917" />
<line x1="100" y1="100" x2="35.90736684500476"   y2="52.12375980447917" />
<line x1="30.61452675118595" y1="39.588608112780314" x2="35.90736684500476"   y2="52.12375980447917" />
<line x1="30.61452675118595" y1="39.588608112780314" x2="43.758811937137274"   y2="43.10598656029171" />
<line x1="100" y1="100" x2="43.758811937137274"   y2="43.10598656029171" />
<line x1="40.393355909081876" y1="29.921985274040907" x2="43.758811937137274"   y2="43.10598656029171" />
<line x1="40.393355909081876" y1="29.921985274040907" x2="52.86659223482844"   y2="35.359131561820234" />
<line x1="100" y1="100" x2="52.86659223482844"   y2="35.359131561820234" />
<line x1="51.5036989989545" y1="21.820789483846056" x2="52.86659223482844"   y2="35.359131561820234" />
<line x1="51.5036989989545" y1="21.820789483846056" x2="63.027254976381755"   y2="29.056246748438014" />
<line x1="100" y1="100" x2="63.027254976381755"   y2="29.056246748438014" />
<line x1="63.697369315465416" y1="15.465988069325547" x2="63.027254976381755"   y2="29.056246748438014" />
<line x1="63.697369315465416" y1="15.465988069325547" x2="74.01382774614075"   y2="24.33812815167235" />
<line x1="100" y1="100" x2="74.01382774614075"   y2="24.33812815167235" />
<line x1="76.70198041317741" y1="10.999536793086548" x2="74.01382774614075"   y2="24.33812815167235" />
<line x1="76.70198041317741" y1="10.999536793086548" x2="85.58088866319387"   y2="21.31017074451877" />
<line x1="100" y1="100" x2="85.58088866319387"   y2="21.31017074451877" />
<line x1="90.22703076964066" y1="8.521208796051681" x2="85.58088866319387"   y2="21.31017074451877" />
<line x1="90.22703076964066" y1="8.521208796051681" x2="97.47004870064701"   y2="20.040014091904055" />
<line x1="100" y1="100" x2="97.47004870064701"   y2="20.040014091904055" />
<line x1="103.97039310936455" y1="8.086365830360975" x2="97.47004870064701"   y2="20.040014091904055" />
<line x1="103.97039310936455" y1="8.086365830360975" x2="109.41572366950909"   y2="20.556031394576934" />
<line x1="100" y1="100" x2="109.41572366950909"   y2="20.556031394576934" />
<line x1="117.62506342790233" y1="9.704721569311587" x2="109.41572366950909"   y2="20.556031394576934" />
<line x1="117.62506342790233" y1="9.704721569311587" x2="121.15106693060926"   y2="22.846695678688604" />
<line x1="100" y1="100" x2="121.15106693060926"   y2="22.846695678688604" />
<line x1="130.88601895400146" y1="13.340124619947758" x2="121.15106693060926"   y2="22.846695678688604" />
<line x1="130.88601895400146" y1="13.340124619947758" x2="132.41393030756566"   y2="26.860837289340836" />
<line x1="100" y1="100" x2="132.41393030756566"   y2="26.860837289340836" />
<line x1="143.45703185427806" y1="18.911366085440903" x2="132.41393030756566"   y2="26.860837289340836" />
<line x1="143.45703185427806" y1="18.911366085440903" x2="142.95272004385842"   y2="32.50878693612091" />
<line x1="100" y1="100" x2="142.95272004385842"   y2="32.50878693612091" />
<line x1="155.05728647351364" y1="26.293993637651383" x2="142.95272004385842"   y2="32.50878693612091" />
<line x1="155.05728647351364" y1="26.293993637651383" x2="152.53201699160476"   y2="39.664378756875735" />
<line x1="100" y1="100" x2="152.53201699160476"   y2="39.664378756875735" />
<line x1="165.427652292358" y1="35.32309157648747" x2="152.53201699160476"   y2="39.664378756875735" />
<line x1="165.427652292358" y1="35.32309157648747" x2="160.93783548630364"   y2="48.16776865458912" />
<line x1="100" y1="100" x2="160.93783548630364"   y2="48.16776865458912" />
<line x1="174.336472474932" y1="45.796964774130984" x2="160.93783548630364"   y2="48.16776865458912" />
<line x1="174.336472474932" y1="45.796964774130984" x2="167.9824034329803"   y2="57.829004950374866" />
<line x1="100" y1="100" x2="167.9824034329803"   y2="57.829004950374866" />
<line x1="181.5847386997391" y1="57.481644210900846" x2="167.9824034329803"   y2="57.829004950374866" />
<line x1="181.5847386997391" y1="57.481644210900846" x2="173.50835682450432"   y2="68.43227159009774" />
<line x1="100" y1="100" x2="173.50835682450432"   y2="68.43227159009774" />
<line x1="187.0105366767164" y1="70.11611345653131" x2="173.50835682450432"   y2="68.43227159009774" />
<line x1="187.0105366767164" y1="70.11611345653131" x2="177.392254993472"   y2="79.74070911839684" />
<line x1="100" y1="100" x2="177.392254993472"   y2="79.74070911839684" />
<line x1="190.4926630449196" y1="83.41813934590678" x2="177.392254993472"   y2="79.74070911839684" />
<line x1="190.4926630449196" y1="83.41813934590678" x2="179.54733807273718"   y2="91.50170572752053" />
<line x1="100" y1="100" x2="179.54733807273718"   y2="91.50170572752053" />
<line x1="191.9533328553236" y1="97.09057660159488" x2="179.54733807273718"   y2="91.50170572752053" />
<line x1="191.9533328553236" y1="97.09057660159488" x2="179.9254650674767"   y2="103.45254018768293" />
</svg>