<svg viewBox="0 0 200 200" xmlns="http://www.w3.org/2000/svg">
  <defs>
    <style>
      line {
        stroke: currentColor;
        stroke-width: 1.5;
        stroke-linecap: round;
        fill: none;
      }
    </style>
  </defs>

  <line x1="100" y1="100" x2="21.1440509125961"   y2="113.48107167567787" />
<line x1="55.621838635137834" y1="78.06829190234325" x2="21.1440509125961"   y2="113.48107167567787" />
<line x1="55.621838635137834" y1="78.06829190234325" x2="62.81091056063113"   y2="29.16941602195685" />
<line x1="100" y1="100" x2="62.81091056063113"   y2="29.16941602195685" />
<line x1="107.14468785890354" y1="51.01658993490342" x2="62.81091056063113"   y2="29.16941602195685" />
<line x1="107.14468785890354" y1="51.01658993490342" x2="155.87182780321416"   y2="42.74321998288776" />
<line x1="100" y1="100" x2="155.87182780321416"   y2="42.74321998288776" />
<line x1="148.79382130067327" y1="91.65829579255339" x2="155.87182780321416"   y2="42.74321998288776" />
<line x1="148.79382130067327" y1="91.65829579255339" x2="171.71977803533662"   y2="135.44394784109198" />
<line x1="100" y1="100" x2="171.71977803533662"   y2="135.44394784109198" />
<line x1="123.01155214590113" y1="143.82795334079657" x2="171.71977803533662"   y2="135.44394784109198" />
<line x1="123.01155214590113" y1="143.82795334079657" x2="88.45343268822202"   y2="179.16234447838556" />
<line x1="100" y1="100" x2="88.45343268822202"   y2="179.16234447838556" />
<line x1="65.42810005938422" y1="135.4288690294034" x2="88.45343268822202"   y2="179.16234447838556" />
<line x1="65.42810005938422" y1="135.4288690294034" x2="21.1440509125961"   y2="113.48107167567785" />
  
</svg>