<svg viewBox="0 0 200 200" xmlns="http://www.w3.org/2000/svg">
  <defs>
    <style>
      line {
        stroke: currentColor;
        stroke-width: 1.5;
        stroke-linecap: round;
        fill: none;
      }
    </style>
  </defs>

  <line x1="100" y1="100" x2="170.97319403234727"   y2="63.083801267644226" />
<line x1="195.09026795933386" y1="75.18877954267123" x2="170.97319403234727"   y2="63.083801267644226" />
<line x1="195.09026795933386" y1="75.18877954267123" x2="179.96197661874402"   y2="97.53376902471949" />
<line x1="100" y1="100" x2="179.96197661874402"   y2="97.53376902471949" />
<line x1="196.43855617595455" y1="118.90398380916946" x2="179.96197661874402"   y2="97.53376902471949" />
<line x1="196.43855617595455" y1="118.90398380916946" x2="173.11330906651176"   y2="132.47220407278706" />
<line x1="100" y1="100" x2="173.11330906651176"   y2="132.47220407278706" />
<line x1="178.6860056006534" y1="158.8750222401149" x2="173.11330906651176"   y2="132.47220407278706" />
<line x1="178.6860056006534" y1="158.8750222401149" x2="151.78365397776554"   y2="160.97912085879108" />
<line x1="100" y1="100" x2="151.78365397776554"   y2="160.97912085879108" />
<line x1="145.34872659561364" y1="187.1851404616427" x2="151.78365397776554"   y2="160.97912085879108" />
<line x1="145.34872659561364" y1="187.1851404616427" x2="120.19761113388427"   y2="177.4083748988725" />
<line x1="100" y1="100" x2="120.19761113388427"   y2="177.4083748988725" />
<line x1="103.02957612267932" y1="198.22717235916434" x2="120.19761113388427"   y2="177.4083748988725" />
<line x1="103.02957612267932" y1="198.22717235916434" x2="84.61118369749248"   y2="178.50595093881532" />
<line x1="100" y1="100" x2="84.61118369749248"   y2="178.50595093881532" />
<line x1="60.110380943335514" y1="189.81410809374148" x2="84.61118369749248"   y2="178.50595093881532" />
<line x1="60.110380943335514" y1="189.81410809374148" x2="52.07270006125874"   y2="164.0544605830221" />
<line x1="100" y1="100" x2="52.07270006125874"   y2="164.0544605830221" />
<line x1="25.091814032237153" y1="163.61225822260315" x2="52.07270006125874"   y2="164.0544605830221" />
<line x1="25.091814032237153" y1="163.61225822260315" x2="29.026805967652734"   y2="136.91619873235578" />
<line x1="100" y1="100" x2="29.026805967652734"   y2="136.91619873235578" />
<line x1="4.909732040666142" y1="124.81122045732877" x2="29.026805967652734"   y2="136.91619873235578" />
<line x1="4.909732040666142" y1="124.81122045732877" x2="20.038023381255968"   y2="102.46623097528052" />
<line x1="100" y1="100" x2="20.038023381255968"   y2="102.46623097528052" />
<line x1="3.5614438240454263" y1="81.09601619083054" x2="20.038023381255968"   y2="102.46623097528052" />
<line x1="3.5614438240454263" y1="81.09601619083054" x2="26.886690933488225"   y2="67.52779592721295" />
<line x1="100" y1="100" x2="26.886690933488225"   y2="67.52779592721295" />
<line x1="21.313994399346583" y1="41.124977759885084" x2="26.886690933488225"   y2="67.52779592721295" />
<line x1="21.313994399346583" y1="41.124977759885084" x2="48.21634602223446"   y2="39.020879141208944" />
<line x1="100" y1="100" x2="48.21634602223446"   y2="39.020879141208944" />
<line x1="54.65127340438633" y1="12.814859538357297" x2="48.21634602223446"   y2="39.020879141208944" />
<line x1="54.65127340438633" y1="12.814859538357297" x2="79.80238886611559"   y2="22.591625101127534" />
<line x1="100" y1="100" x2="79.80238886611559"   y2="22.591625101127534" />
<line x1="96.97042387732067" y1="1.772827640835672" x2="79.80238886611559"   y2="22.591625101127534" />
<line x1="96.97042387732067" y1="1.772827640835672" x2="115.38881630250751"   y2="21.49404906118467" />
<line x1="100" y1="100" x2="115.38881630250751"   y2="21.49404906118467" />
<line x1="139.8896190566645" y1="10.185891906258533" x2="115.38881630250751"   y2="21.49404906118467" />
<line x1="139.8896190566645" y1="10.185891906258533" x2="147.92729993874136"   y2="35.94553941697798" />
<line x1="100" y1="100" x2="147.92729993874136"   y2="35.94553941697798" />
<line x1="174.90818596776285" y1="36.387741777396826" x2="147.92729993874136"   y2="35.94553941697798" />
<line x1="174.90818596776285" y1="36.387741777396826" x2="170.97319403234727"   y2="63.083801267644205" />
  
</svg>