<svg viewBox="0 0 200 200" xmlns="http://www.w3.org/2000/svg">
  <defs>
    <style>
      line {
        stroke: currentColor;
        stroke-width: 1.5;
        stroke-linecap: round;
      }
    </style>
  </defs>

  <line x1="100" y1="100" x2="20.34969143451616"   y2="92.52816318277692" />
<line x1="75.3301494228498" y1="95.21176236549464" x2="20.34969143451616"   y2="92.52816318277692" />
<line x1="75.3301494228498" y1="95.21176236549464" x2="23.33783283012211"   y2="77.13272808536844" />
<line x1="100" y1="100" x2="23.33783283012211"   y2="77.13272808536844" />
<line x1="76.73831250618935" y1="90.49091791581836" x2="23.33783283012211"   y2="77.13272808536844" />
<line x1="76.73831250618935" y1="90.49091791581836" x2="29.27205831742782"   y2="62.61606942352546" />
<line x1="100" y1="100" x2="29.27205831742782"   y2="62.61606942352546" />
<line x1="79.04040919461139" y1="86.1355021578825" x2="29.27205831742782"   y2="62.61606942352546" />
<line x1="79.04040919461139" y1="86.1355021578825" x2="37.9243189389081"   y2="49.53605424858658" />
<line x1="100" y1="100" x2="37.9243189389081"   y2="49.53605424858658" />
<line x1="82.14797120341058" y1="82.31289127671926" x2="37.9243189389081"   y2="49.53605424858658" />
<line x1="82.14797120341058" y1="82.31289127671926" x2="48.96211317112317"   y2="38.39534020836767" />
<line x1="100" y1="100" x2="48.96211317112317"   y2="38.39534020836767" />
<line x1="85.9415766673296" y1="79.16998606474685" x2="48.96211317112317"   y2="38.39534020836767" />
<line x1="85.9415766673296" y1="79.16998606474685" x2="61.961264771795285"   y2="29.62205869564997" />
<line x1="100" y1="100" x2="61.961264771795285"   y2="29.62205869564997" />
<line x1="90.27543945586852" y1="76.82756660669983" x2="61.961264771795285"   y2="29.62205869564997" />
<line x1="90.27543945586852" y1="76.82756660669983" x2="76.42222363491877"   y2="23.55336199885427" />
<line x1="100" y1="100" x2="76.42222363491877"   y2="23.55336199885427" />
<line x1="94.98301165252204" y1="75.37565076870696" x2="76.42222363491877"   y2="23.55336199885427" />
<line x1="94.98301165252204" y1="75.37565076870696" x2="91.78926322118306"   y2="20.42246672867408" />
<line x1="100" y1="100" x2="91.78926322118306"   y2="20.42246672867408" />
<line x1="99.88338389780965" y1="74.87003486217856" x2="91.78926322118306"   y2="20.42246672867408" />
<line x1="99.88338389780965" y1="74.87003486217856" x2="107.47183681722306"   y2="20.34969143451616" />
<line x1="100" y1="100" x2="107.47183681722306"   y2="20.34969143451616" />
<line x1="104.78823763450536" y1="75.3301494228498" x2="107.47183681722306"   y2="20.34969143451616" />
<line x1="104.78823763450536" y1="75.3301494228498" x2="122.86727191463154"   y2="23.33783283012211" />
<line x1="100" y1="100" x2="122.86727191463154"   y2="23.33783283012211" />
<line x1="109.50908208418164" y1="76.73831250618935" x2="122.86727191463154"   y2="23.33783283012211" />
<line x1="109.50908208418164" y1="76.73831250618935" x2="137.38393057647457"   y2="29.272058317427835" />
<line x1="100" y1="100" x2="137.38393057647457"   y2="29.272058317427835" />
<line x1="113.8644978421175" y1="79.04040919461139" x2="137.38393057647457"   y2="29.272058317427835" />
<line x1="113.8644978421175" y1="79.04040919461139" x2="150.4639457514134"   y2="37.9243189389081" />
<line x1="100" y1="100" x2="150.4639457514134"   y2="37.9243189389081" />
<line x1="117.68710872328073" y1="82.14797120341056" x2="150.4639457514134"   y2="37.9243189389081" />
<line x1="117.68710872328073" y1="82.14797120341056" x2="161.60465979163232"   y2="48.962113171123164" />
<line x1="100" y1="100" x2="161.60465979163232"   y2="48.962113171123164" />
<line x1="120.83001393525316" y1="85.94157666732961" x2="161.60465979163232"   y2="48.962113171123164" />
<line x1="120.83001393525316" y1="85.94157666732961" x2="170.37794130435003"   y2="61.96126477179528" />
<line x1="100" y1="100" x2="170.37794130435003"   y2="61.96126477179528" />
<line x1="123.17243339330017" y1="90.27543945586852" x2="170.37794130435003"   y2="61.96126477179528" />
<line x1="123.17243339330017" y1="90.27543945586852" x2="176.44663800114571"   y2="76.42222363491877" />
<line x1="100" y1="100" x2="176.44663800114571"   y2="76.42222363491877" />
<line x1="124.62434923129304" y1="94.98301165252204" x2="176.44663800114571"   y2="76.42222363491877" />
<line x1="124.62434923129304" y1="94.98301165252204" x2="179.57753327132593"   y2="91.78926322118306" />
<line x1="100" y1="100" x2="179.57753327132593"   y2="91.78926322118306" />
<line x1="125.12996513782144" y1="99.88338389780965" x2="179.57753327132593"   y2="91.78926322118306" />
<line x1="125.12996513782144" y1="99.88338389780965" x2="179.65030856548384"   y2="107.47183681722306" />
<line x1="100" y1="100" x2="179.65030856548384"   y2="107.47183681722306" />
<line x1="124.6698505771502" y1="104.78823763450535" x2="179.65030856548384"   y2="107.47183681722306" />
<line x1="124.6698505771502" y1="104.78823763450535" x2="176.66216716987788"   y2="122.86727191463154" />
<line x1="100" y1="100" x2="176.66216716987788"   y2="122.86727191463154" />
<line x1="123.26168749381065" y1="109.50908208418164" x2="176.66216716987788"   y2="122.86727191463154" />
<line x1="123.26168749381065" y1="109.50908208418164" x2="170.72794168257218"   y2="137.38393057647457" />
<line x1="100" y1="100" x2="170.72794168257218"   y2="137.38393057647457" />
<line x1="120.95959080538861" y1="113.8644978421175" x2="170.72794168257218"   y2="137.38393057647457" />
<line x1="120.95959080538861" y1="113.8644978421175" x2="162.0756810610919"   y2="150.4639457514134" />
<line x1="100" y1="100" x2="162.0756810610919"   y2="150.4639457514134" />
<line x1="117.85202879658944" y1="117.68710872328073" x2="162.0756810610919"   y2="150.4639457514134" />
<line x1="117.85202879658944" y1="117.68710872328073" x2="151.03788682887682"   y2="161.60465979163232" />
<line x1="100" y1="100" x2="151.03788682887682"   y2="161.60465979163232" />
<line x1="114.0584233326704" y1="120.83001393525315" x2="151.03788682887682"   y2="161.60465979163232" />
<line x1="114.0584233326704" y1="120.83001393525315" x2="138.03873522820473"   y2="170.37794130435003" />
<line x1="100" y1="100" x2="138.03873522820473"   y2="170.37794130435003" />
<line x1="109.72456054413148" y1="123.17243339330017" x2="138.03873522820473"   y2="170.37794130435003" />
<line x1="109.72456054413148" y1="123.17243339330017" x2="123.57777636508123"   y2="176.44663800114571" />
<line x1="100" y1="100" x2="123.57777636508123"   y2="176.44663800114571" />
<line x1="105.01698834747796" y1="124.62434923129304" x2="123.57777636508123"   y2="176.44663800114571" />
<line x1="105.01698834747796" y1="124.62434923129304" x2="108.21073677881694"   y2="179.57753327132593" />
<line x1="100" y1="100" x2="108.21073677881694"   y2="179.57753327132593" />
<line x1="100.11661610219035" y1="125.12996513782144" x2="108.21073677881694"   y2="179.57753327132593" />
<line x1="100.11661610219035" y1="125.12996513782144" x2="92.52816318277694"   y2="179.65030856548384" />
<line x1="100" y1="100" x2="92.52816318277694"   y2="179.65030856548384" />
<line x1="95.21176236549465" y1="124.6698505771502" x2="92.52816318277694"   y2="179.65030856548384" />
<line x1="95.21176236549465" y1="124.6698505771502" x2="77.1327280853684"   y2="176.66216716987788" />
<line x1="100" y1="100" x2="77.1327280853684"   y2="176.66216716987788" />
<line x1="90.49091791581834" y1="123.26168749381065" x2="77.1327280853684"   y2="176.66216716987788" />
<line x1="90.49091791581834" y1="123.26168749381065" x2="62.61606942352544"   y2="170.72794168257218" />
<line x1="100" y1="100" x2="62.61606942352544"   y2="170.72794168257218" />
<line x1="86.1355021578825" y1="120.95959080538861" x2="62.61606942352544"   y2="170.72794168257218" />
<line x1="86.1355021578825" y1="120.95959080538861" x2="49.53605424858659"   y2="162.07568106109193" />
<line x1="100" y1="100" x2="49.53605424858659"   y2="162.07568106109193" />
<line x1="82.31289127671927" y1="117.85202879658944" x2="49.53605424858659"   y2="162.07568106109193" />
<line x1="82.31289127671927" y1="117.85202879658944" x2="38.39534020836773"   y2="151.0378868288769" />
<line x1="100" y1="100" x2="38.39534020836773"   y2="151.0378868288769" />
<line x1="79.16998606474687" y1="114.05842333267042" x2="38.39534020836773"   y2="151.0378868288769" />
<line x1="79.16998606474687" y1="114.05842333267042" x2="29.622058695649983"   y2="138.03873522820473" />
<line x1="100" y1="100" x2="29.622058695649983"   y2="138.03873522820473" />
<line x1="76.82756660669983" y1="109.72456054413148" x2="29.622058695649983"   y2="138.03873522820473" />
<line x1="76.82756660669983" y1="109.72456054413148" x2="23.553361998854285"   y2="123.57777636508125" />
<line x1="100" y1="100" x2="23.553361998854285"   y2="123.57777636508125" />
<line x1="75.37565076870696" y1="105.01698834747795" x2="23.553361998854285"   y2="123.57777636508125" />
<line x1="75.37565076870696" y1="105.01698834747795" x2="20.42246672867408"   y2="108.21073677881688" />
<line x1="100" y1="100" x2="20.42246672867408"   y2="108.21073677881688" />
<line x1="74.87003486217856" y1="100.11661610219035" x2="20.42246672867408"   y2="108.21073677881688" />
<line x1="74.87003486217856" y1="100.11661610219035" x2="20.34969143451616"   y2="92.52816318277695" />
</svg>