<svg viewBox="0 0 200 200" xmlns="http://www.w3.org/2000/svg">
  <defs>
    <style>
      line {
        stroke: currentColor;
        stroke-width: 1.5;
        stroke-linecap: round;
        fill: none;
      }
    </style>
  </defs>

  <line x1="100" y1="100" x2="176.46533897695474"   y2="76.48294373992769" />
<line x1="193.16376450848026" y1="114.12114545651946" x2="176.46533897695474"   y2="76.48294373992769" />
<line x1="193.16376450848026" y1="114.12114545651946" x2="166.0617340068988"   y2="145.12036458187976" />
<line x1="100" y1="100" x2="166.0617340068988"   y2="145.12036458187976" />
<line x1="147.04630098738878" y1="181.64275430067124" x2="166.0617340068988"   y2="145.12036458187976" />
<line x1="147.04630098738878" y1="181.64275430067124" x2="105.91229591585665"   y2="179.78123060597238" />
<line x1="100" y1="100" x2="105.91229591585665"   y2="179.78123060597238" />
<line x1="65.5020132531464" y1="187.68570394773405" x2="105.91229591585665"   y2="179.78123060597238" />
<line x1="65.5020132531464" y1="187.68570394773405" x2="41.31077841131648"   y2="154.3652027432475" />
<line x1="100" y1="100" x2="41.31077841131648"   y2="154.3652027432475" />
<line x1="9.935413169969351" y1="127.69953005976127" x2="41.31077841131648"   y2="154.3652027432475" />
<line x1="9.935413169969351" y1="127.69953005976127" x2="20.903441805000227"   y2="88.01106836682212" />
<line x1="100" y1="100" x2="20.903441805000227"   y2="88.01106836682212" />
<line x1="22.18928395256458" y1="46.855045069347135" x2="20.903441805000227"   y2="88.01106836682212" />
<line x1="22.18928395256458" y1="46.855045069347135" x2="60.057426795267126"   y2="30.684844039816554" />
<line x1="100" y1="100" x2="60.057426795267126"   y2="30.684844039816554" />
<line x1="93.03621096822711" y1="6.02979510123059" x2="60.057426795267126"   y2="30.684844039816554" />
<line x1="93.03621096822711" y1="6.02979510123059" x2="129.28898408870606"   y2="25.55434592233391" />
<line x1="100" y1="100" x2="129.28898408870606"   y2="25.55434592233391" />
<line x1="169.1270131602234" y1="35.96602606473617" x2="129.28898408870606"   y2="25.55434592233391" />
<line x1="169.1270131602234" y1="35.96602606473617" x2="176.46533897695474"   y2="76.48294373992773" />
  
</svg>