<svg viewBox="0 0 200 200" xmlns="http://www.w3.org/2000/svg">
  <defs>
    <style>
      line {
        stroke: currentColor;
        stroke-width: 1.5;
        stroke-linecap: round;
      }
    </style>
  </defs>

  <line x1="100" y1="100" x2="175.6482697783988"   y2="73.97425736824033" />
<line x1="155.6417980757156" y1="87.38078101956981" x2="175.6482697783988"   y2="73.97425736824033" />
<line x1="155.6417980757156" y1="87.38078101956981" x2="179.47442061985458"   y2="90.84486662366788" />
<line x1="100" y1="100" x2="179.47442061985458"   y2="90.84486662366788" />
<line x1="157.05368281675618" y1="99.6371531731745" x2="179.47442061985458"   y2="90.84486662366788" />
<line x1="157.05368281675618" y1="99.6371531731745" x2="179.58443588260033"   y2="108.14355974057281" />
<line x1="100" y1="100" x2="179.58443588260033"   y2="108.14355974057281" />
<line x1="155.7978007598993" y1="111.91049164112626" x2="179.58443588260033"   y2="108.14355974057281" />
<line x1="155.7978007598993" y1="111.91049164112626" x2="175.9731713752232"   y2="125.06146905492511" />
<line x1="100" y1="100" x2="175.9731713752232"   y2="125.06146905492511" />
<line x1="151.93287555431093" y1="123.62690875749963" x2="175.9731713752232"   y2="125.06146905492511" />
<line x1="151.93287555431093" y1="123.62690875749963" x2="168.80948581245588"   y2="140.80753193009141" />
<line x1="100" y1="100" x2="168.80948581245588"   y2="140.80753193009141" />
<line x1="145.6396268070485" y1="134.23855787979537" x2="168.80948581245588"   y2="140.80753193009141" />
<line x1="145.6396268070485" y1="134.23855787979537" x2="158.42834516934886"   y2="154.64547996652078" />
<line x1="100" y1="100" x2="158.42834516934886"   y2="154.64547996652078" />
<line x1="137.21231983509045" y1="143.2492500890558" x2="158.42834516934886"   y2="154.64547996652078" />
<line x1="137.21231983509045" y1="143.2492500890558" x2="145.31516004456452"   y2="165.92826609380458" />
<line x1="100" y1="100" x2="145.31516004456452"   y2="165.92826609380458" />
<line x1="127.04500614616651" y1="150.237655432241" x2="145.31516004456452"   y2="165.92826609380458" />
<line x1="127.04500614616651" y1="150.237655432241" x2="130.08308840027948"   y2="174.12831977254692" />
<line x1="100" y1="100" x2="130.08308840027948"   y2="174.12831977254692" />
<line x1="115.61309802821324" y1="154.87700384255834" x2="130.08308840027948"   y2="174.12831977254692" />
<line x1="115.61309802821324" y1="154.87700384255834" x2="113.44436497734863"   y2="178.86221560643503" />
<line x1="100" y1="100" x2="113.44436497734863"   y2="178.86221560643503" />
<line x1="103.45113879917285" y1="156.95036454460674" x2="113.44436497734863"   y2="178.86221560643503" />
<line x1="103.45113879917285" y1="156.95036454460674" x2="96.17699799041542"   y2="179.90860188762355" />
<line x1="100" y1="100" x2="96.17699799041542"   y2="179.90860188762355" />
<line x1="91.12780815554842" y1="156.36078949633338" x2="96.17699799041542"   y2="179.90860188762355" />
<line x1="91.12780815554842" y1="156.36078949633338" x2="79.08839032848874"   y2="177.21855075657894" />
<line x1="100" y1="100" x2="79.08839032848874"   y2="177.21855075657894" />
<line x1="79.21933134183759" y1="153.13584657172993" x2="79.08839032848874"   y2="177.21855075657894" />
<line x1="79.21933134183759" y1="153.13584657172993" x2="62.97758629321723"   y2="170.9178460144118" />
<line x1="100" y1="100" x2="62.97758629321723"   y2="170.9178460144118" />
<line x1="68.28253549852806" y1="147.42633051768422" x2="62.97758629321723"   y2="170.9178460144118" />
<line x1="68.28253549852806" y1="147.42633051768422" x2="48.597909175417406"   y2="161.3011016121355" />
<line x1="100" y1="100" x2="48.597909175417406"   y2="161.3011016121355" />
<line x1="58.82881304387739" y1="139.499211959212" x2="48.597909175417406"   y2="161.3011016121355" />
<line x1="58.82881304387739" y1="139.499211959212" x2="36.62173669525427"   y2="148.81798582975665" />
<line x1="100" y1="100" x2="36.62173669525427"   y2="148.81798582975665" />
<line x1="51.30020953280729" y1="129.72515414974805" x2="36.62173669525427"   y2="148.81798582975665" />
<line x1="51.30020953280729" y1="129.72515414974805" x2="27.60906136734073"   y2="134.05219528727275" />
<line x1="100" y1="100" x2="27.60906136734073"   y2="134.05219528727275" />
<line x1="46.04875409805359" y1="118.5611811693779" x2="27.60906136734073"   y2="134.05219528727275" />
<line x1="46.04875409805359" y1="118.5611811693779" x2="21.981305873140755"   y2="117.69416193945278" />
<line x1="100" y1="100" x2="21.981305873140755"   y2="117.69416193945278" />
<line x1="43.31999895917183" y1="106.52930798679887" x2="21.981305873140755"   y2="117.69416193945278" />
<line x1="43.31999895917183" y1="106.52930798679887" x2="20.001617804762134"   y2="100.5087692449924" />
<line x1="100" y1="100" x2="20.001617804762134"   y2="100.5087692449924" />
<line x1="43.2415376736626" y1="94.19213161956164" x2="20.001617804762134"   y2="100.5087692449924" />
<line x1="43.2415376736626" y1="94.19213161956164" x2="21.762565176017063"   y2="83.29958706609256" />
<line x1="100" y1="100" x2="21.762565176017063"   y2="83.29958706609256" />
<line x1="45.81703900403286" y1="82.12652472281171" x2="21.762565176017063"   y2="83.29958706609256" />
<line x1="45.81703900403286" y1="82.12652472281171" x2="27.18180804497804"   y2="66.87129763480654" />
<line x1="100" y1="100" x2="27.18180804497804"   y2="66.87129763480654" />
<line x1="50.92607537053867" y1="70.89666166508202" x2="27.18180804497804"   y2="66.87129763480654" />
<line x1="50.92607537053867" y1="70.89666166508202" x2="36.005948638148276"   y2="51.99206950620883" />
<line x1="100" y1="100" x2="36.005948638148276"   y2="51.99206950620883" />
<line x1="58.32975391096822" y1="61.02763836185586" x2="36.005948638148276"   y2="51.99206950620883" />
<line x1="58.32975391096822" y1="61.02763836185586" x2="47.82237994871914"   y2="39.357638850518256" />
<line x1="100" y1="100" x2="47.82237994871914"   y2="39.357638850518256" />
<line x1="67.68188684536884" y1="52.9809193741603" x2="47.82237994871914"   y2="39.357638850518256" />
<line x1="67.68188684536884" y1="52.9809193741603" x2="62.07857878162839"   y2="29.55877760303393" />
<line x1="100" y1="100" x2="62.07857878162839"   y2="29.55877760303393" />
<line x1="78.545178831877" y1="47.132760338574336" x2="62.07857878162839"   y2="29.55877760303393" />
<line x1="78.545178831877" y1="47.132760338574336" x2="78.1079411240759"   y2="23.053669625036235" />
<line x1="100" y1="100" x2="78.1079411240759"   y2="23.053669625036235" />
<line x1="90.41167441088552" y1="43.75661467183994" x2="78.1079411240759"   y2="23.053669625036235" />
<line x1="90.41167441088552" y1="43.75661467183994" x2="95.16095180828599"   y2="20.14648653566789" />
<line x1="100" y1="100" x2="95.16095180828599"   y2="20.14648653566789" />
<line x1="102.72650943778265" y1="43.010347193017225" x2="95.16095180828599"   y2="20.14648653566789" />
<line x1="102.72650943778265" y1="43.010347193017225" x2="112.44023100772486"   y2="20.973164985085987" />
<line x1="100" y1="100" x2="112.44023100772486"   y2="20.973164985085987" />
<line x1="114.91385591366665" y1="44.92885253999924" x2="112.44023100772486"   y2="20.973164985085987" />
<line x1="114.91385591366665" y1="44.92885253999924" x2="129.13781883156622"   y2="25.4950504077828" />
<line x1="100" y1="100" x2="129.13781883156622"   y2="25.4950504077828" />
<line x1="126.40384706258783" y1="49.42242353502662" x2="129.13781883156622"   y2="25.4950504077828" />
<line x1="126.40384706258783" y1="49.42242353502662" x2="144.47295463120307"   y2="33.50070446710767" />
<line x1="100" y1="100" x2="144.47295463120307"   y2="33.50070446710767" />
<line x1="136.6592236686307" y1="56.280945792617324" x2="144.47295463120307"   y2="33.50070446710767" />
<line x1="136.6592236686307" y1="56.280945792617324" x2="157.7285845004238"   y2="44.61579167689198" />
<line x1="100" y1="100" x2="157.7285845004238"   y2="44.61579167689198" />
<line x1="145.20045571972918" y1="65.18372243470651" x2="157.7285845004238"   y2="44.61579167689198" />
<line x1="145.20045571972918" y1="65.18372243470651" x2="168.28488991911826"   y2="58.320582912738516" />
<line x1="100" y1="100" x2="168.28488991911826"   y2="58.320582912738516" />
<line x1="151.6281646980714" y1="75.71446952023548" x2="168.28488991911826"   y2="58.320582912738516" />
<line x1="151.6281646980714" y1="75.71446952023548" x2="175.6482697783988"   y2="73.97425736824032" />
</svg>