<svg viewBox="0 0 200 200" xmlns="http://www.w3.org/2000/svg">
  <defs>
    <style>
      line, path.round {
        stroke: currentColor;
        stroke-width: 1.5;
        stroke-linecap: round;
      }
    </style>
  </defs>

  <line x1="100" y1="100" x2="150.13293120527692"   y2="132.96496941856572" />
<line x1="100" y1="100" x2="145.5058738088187"   y2="139.10518442477758" />
<line x1="100" y1="100" x2="140.1316112224975"   y2="144.60329338385577" />
<line x1="100" y1="100" x2="134.09838868940113"   y2="149.36901749869568" />
<line x1="100" y1="100" x2="127.50527155672566"   y2="153.32410371108716" />
<line x1="100" y1="100" x2="120.46051862551302"   y2="156.403609614767" />
<line x1="100" y1="100" x2="113.07980454413104"   y2="158.5569698079343" />
<line x1="100" y1="100" x2="105.48432043374513"   y2="159.74882617575014" />
<line x1="100" y1="100" x2="97.79878393345935"   y2="159.95960846960563" />
<line x1="100" y1="100" x2="90.14939134013025"   y2="159.18585565006305" />
<line x1="100" y1="100" x2="82.66174546866145"   y2="157.4402727170277" />
<line x1="100" y1="100" x2="75.45879325725532"   y2="154.75152209400085" />
<line x1="100" y1="100" x2="68.65880698208677"   y2="151.16375299187803" />
<line x1="100" y1="100" x2="62.37344222979828"   y2="146.73587648012685" />
<line x1="100" y1="100" x2="56.70590451585419"   y2="141.54059816865504" />
<line x1="100" y1="100" x2="51.749254652829904"   y2="135.66322438370574" />
<line x1="100" y1="100" x2="47.58488069444228"   y2="129.20026144033903" />
<line x1="100" y1="100" x2="44.28116154595773"   y2="122.25783101140676" />
<line x1="100" y1="100" x2="41.892344184458125"   y2="114.94992761261815" />
<line x1="100" y1="100" x2="40.45765292497687"   y2="107.39654681574345" />
<line x1="100" y1="100" x2="40.00064535833045"   y2="99.72171492464275" />
<line x1="100" y1="100" x2="40.52882553612855"   y2="92.05145246678585" />
<line x1="100" y1="100" x2="42.03352075445405"   y2="84.51170493967489" />
<line x1="100" y1="100" x2="44.49002395942162"   y2="77.22627478925737" />
<line x1="100" y1="100" x2="47.85799943631935"   y2="70.31478857718668" />
<line x1="100" y1="100" x2="52.08214512092932"   y2="63.89073271598657" />
<line x1="100" y1="100" x2="57.09310065789302"   y2="58.05959002529542" />
<line x1="100" y1="100" x2="62.80858629582885"   y2="52.9171077068837" />
<line x1="100" y1="100" x2="69.13475391857502"   y2="48.54772517824814" />
<line x1="100" y1="100" x2="75.96772802866245"   y2="45.02318757971081" />
<line x1="100" y1="100" x2="83.19531138011122"   y2="42.40136772119862" />
<line x1="100" y1="100" x2="90.69882725410781"   y2="40.72531581230422" />
<line x1="100" y1="100" x2="98.35506812744717"   y2="40.02255257903468" />
<line x1="100" y1="100" x2="106.03831873665735"   y2="40.30461737425136" />
<line x1="100" y1="100" x2="113.62242031914984"   y2="41.5668787018149" />
<line x1="100" y1="100" x2="120.98284213661402"   y2="43.78861026562379" />
<line x1="100" y1="100" x2="127.99872626629708"   y2="46.93333129482344" />
<line x1="100" y1="100" x2="134.55487208475404"   y2="50.94940555705479" />
<line x1="100" y1="100" x2="140.54362785890032"   y2="55.77088922396243" />
<line x1="100" y1="100" x2="145.86665838449255"   y2="61.31861366703283" />
<line x1="100" y1="100" x2="150.4365596474637"   y2="67.50148540428599" />
<line x1="100" y1="100" x2="154.1782939954174"   y2="74.21798185273076" />
<line x1="100" y1="100" x2="157.0304222538061"   y2="81.35781832637132" />
<line x1="100" y1="100" x2="158.94611255547846"   y2="88.80375890770192" />
<line x1="100" y1="100" x2="159.89390931864313"   y2="96.43354145823128" />
<line x1="100" y1="100" x2="159.85824974665215"   y2="104.1218851594165" />
<line x1="100" y1="100" x2="158.8397193686918"   y2="111.74254762023966" />
<line x1="100" y1="100" x2="156.85504242540932"   y2="119.17039777377886" />
<line x1="100" y1="100" x2="153.93680725734416"   y2="126.28347052586676" />
  <path class="round" d="M 150.01835353254305 119.73294234918288 A 17.95918934934489 17.95918934934489 0 0 1 167.97754288188793 137.69213169852776"/>
<path class="round" d="M 145.75930662723755 122.48988886989105 A 22.23867715401584 22.23867715401584 0 0 1 167.9979837812534 144.7285660239069"/>
<path class="round" d="M 140.71436893285534 124.8160168882716 A 26.7268005613602 26.7268005613602 0 0 1 167.44116949421553 151.5428174496318"/>
<path class="round" d="M 134.85533598876629 126.62455307861745 A 31.47918993277495 31.47918993277495 0 0 1 166.33452592154123 158.1037430113924"/>
<path class="round" d="M 128.14286742400748 127.81741408509617 A 36.562896906058675 36.562896906058675 0 0 1 164.70576433006616 164.38031099115486"/>
<path class="round" d="M 120.52247233593411 128.28087413767796 A 42.06058616943747 42.06058616943747 0 0 1 162.58305850537158 170.34146030711543"/>
<path class="round" d="M 111.91872075693618 127.87938366407097 A 48.0764584743025 48.0764584743025 0 0 1 159.9951792312387 175.95584213837347"/>
<path class="round" d="M 102.2267418744093 126.44652887249083 A 54.74485413912361 54.74485413912361 0 0 1 156.97159601353292 181.19138301161445"/>
<path class="round" d="M 91.29943799708802 123.7714503940641 A 62.24311764617808 62.24311764617808 0 0 1 153.5425556432661 186.01456804024218"/>
<path class="round" d="M 78.92769390874042 119.57781481659445 A 70.81145441863221 70.81145441863221 0 0 1 149.73914832737262 190.38926923522666"/>
<path class="round" d="M 64.8086744135927 113.49010216632426 A 80.78470126247736 80.78470126247736 0 0 1 145.59337567607005 194.27480342880162"/>
<path class="round" d="M 48.49292094727556 104.97730086012379 A 92.64532218585524 92.64532218585524 0 0 1 141.1382431331308 197.62262304597903"/>
<path class="round" d="M 29.291624610763932 93.25415027075668 A 107.11629348114455 107.11629348114455 0 0 1 136.40791809190847 200.37044375190123"/>
<path class="round" d="M 6.10405731116542 77.09725813674666 A 125.33398124464159 125.33398124464159 0 0 1 131.438038555807 202.43123938138825"/>
<path class="round" d="M -22.928540779596858 54.476179822471664 A 149.19490816878172 149.19490816878172 0 0 1 126.26636738918486 203.6710879912534"/>
<path class="round" d="M -61.187336765685984 21.73852263071288 A 182.12163462700653 182.12163462700653 0 0 1 120.93429786132054 203.8601572577194"/>
<path class="round" d="M -115.49717018542901 -28.43849546991848 A 230.98790304033483 230.98790304033483 0 0 1 115.49073285490581 202.54940757041635"/>
<path class="round" d="M -201.93704627091455 -113.24342029291779 A 311.94101094955295 311.94101094955295 0 0 1 110.0039646786384 198.69759065663513"/>
<path class="round" d="M -369.402855428564 -284.8544444029201 A 474.0129539457663 474.0129539457663 0 0 1 104.61009851720229 189.1585095428462"/>
<path class="round" d="M -869.851322965431 -811.9637646064957 A 969.7147876134214 969.7147876134214 0 0 1 99.86346464799044 157.75102300692566"/>
<path class="round" d="M 25911.555453849447 27750.013777073906 A -25872.61019750084 -25872.61019750084 0 0 1 38.94525634860838 1877.4035795730692"/>
<path class="round" d="M 986.3495051558508 1178.7213435720473 A -901.8340065123383 -901.8340065123383 0 0 1 84.5154986435125 276.88733705970907"/>
<path class="round" d="M 536.7524062215358 704.2538230624921 A -456.9895348174094 -456.9895348174094 0 0 1 79.76287140412643 247.26428824508267"/>
<path class="round" d="M 378.8377238785803 540.2022809501299 A -304.3243254364666 -304.3243254364666 0 0 1 74.51339844211367 235.87795551366327"/>
<path class="round" d="M 295.91050510242417 455.4835475761909 A -226.66235850521565 -226.66235850521565 0 0 1 69.24814659720852 228.82118907097527"/>
<path class="round" d="M 243.4121865151169 402.55917666972334 A -179.3188225564171 -179.3188225564171 0 0 1 64.0933639586998 223.24035411330624"/>
<path class="round" d="M 206.3326884156321 365.3995859049373 A -147.21873163019575 -147.21873163019575 0 0 1 59.11395678543636 218.18085427474153"/>
<path class="round" d="M 178.2123429677954 337.0946784467882 A -123.85570508171296 -123.85570508171296 0 0 1 54.35663788608244 213.2389733650752"/>
<path class="round" d="M 155.8214203803326 314.1808609683562 A -105.9606165863955 -105.9606165863955 0 0 1 49.860803793937094 208.2202443819607"/>
<path class="round" d="M 137.37238017036395 294.73485302914764 A -91.71023375701438 -91.71023375701438 0 0 1 45.662146413349575 203.02461927213324"/>
<path class="round" d="M 121.80085732710327 277.60702999382613 A -80.00678375290798 -80.00678375290798 0 0 1 41.794073574195295 197.60024624091818"/>
<path class="round" d="M 108.43751363689275 262.0715120554646 A -70.14917787814485 -70.14917787814485 0 0 1 38.28833575874789 191.92233417731978"/>
<path class="round" d="M 96.84344030506645 247.6506218938747 A -61.66811145517805 -61.66811145517805 0 0 1 35.1753288498884 185.98251043869666"/>
<path class="round" d="M 86.72129615421281 234.02007468934625 A -54.23704034361997 -54.23704034361997 0 0 1 32.48425581059284 179.78303434572626"/>
<path class="round" d="M 77.86441765436706 220.9546323669989 A -47.62119015773743 -47.62119015773743 0 0 1 30.24322749662963 173.33344220926148"/>
<path class="round" d="M 70.12623021659755 208.29537810320159 A -41.6468883417678 -41.6468883417678 0 0 1 28.47934187482975 166.64848976143378"/>
<path class="round" d="M 63.40110661852509 195.92916720584526 A -36.18234328387141 -36.18234328387141 0 0 1 27.21876333465368 159.74682392197386"/>
<path class="round" d="M 57.61197747763475 183.77524439801442 A -31.125161524609013 -31.125161524609013 0 0 1 26.48681595302574 152.6500828734054"/>
<path class="round" d="M 52.70208266890983 171.7762386655827 A -26.393981429498815 -26.393981429498815 0 0 1 26.308101239411016 145.3822572360839"/>
<path class="round" d="M 48.62935165766095 159.89191749433806 A -21.922701777824276 -21.922701777824276 0 0 1 26.70664987983667 137.9692157165138"/>
<path class="round" d="M 45.3625065755883 148.09472668750755 A -17.656389170102354 -17.656389170102354 0 0 1 27.706117405485944 130.4383375174052"/>
<path class="round" d="M 42.8783291356241 136.3665100509439 A -13.548293941913702 -13.548293941913702 0 0 1 29.330035193710398 122.81821610903019"/>
<path class="round" d="M 41.15973873013724 124.69602022064682 A -9.55760800377138 -9.55760800377138 0 0 1 31.602130726365864 115.13841221687544"/>
<path class="round" d="M 40.19445580807098 113.07696309552516 A -5.6477210654913845 -5.6477210654913845 0 0 1 34.546734742579595 107.42924203003378"/>
<path class="round" d="M 39.97410537419 101.50639902794389 A -1.7848071993165837 -1.7848071993165837 0 0 1 38.18929817487342 99.7215918286273"/>
<path class="round" d="M 40.49366916145796 89.98337373263097 A 2.0633799516323887 2.0633799516323887 0 0 1 42.55704911309035 92.04675368426335"/>
<path class="round" d="M 41.75123291867668 78.50768187555263 A 5.928597450054177 5.928597450054177 0 0 1 47.679830368730855 84.43627932560682"/>
<path class="round" d="M 43.748004390700444 67.07868268831916 A 9.843168446590058 9.843168446590058 0 0 1 53.5911728372905 76.92185113490922"/>
<path class="round" d="M 46.488602850875566 55.694092907378085 A 13.841077958153457 13.841077958153457 0 0 1 60.32968080902902 69.53517086553154"/>
</svg>