<svg viewBox="40 40 120 120" xmlns="http://www.w3.org/2000/svg">
  <defs>
    <style>
      line, path.round {
        stroke: currentColor;
        stroke-width: 1.5;
        stroke-linecap: round;
        fill: none;
      }
    </style>
  </defs>

  <line x1="100" y1="100" x2="115.40391994176281"   y2="133.11855647406406" />
<line x1="100" y1="100" x2="109.42251535333885"   y2="130.28153751061157" />
<line x1="100" y1="100" x2="106.44430142642678"   y2="138.00147778088186" />
<line x1="100" y1="100" x2="101.66133276910301"   y2="148.42002210607265" />
<line x1="100" y1="100" x2="96.60744461733977"   y2="134.02220152128828" />
<line x1="100" y1="100" x2="89.21737836816466"   y2="145.42225548585907" />
<line x1="100" y1="100" x2="85.77270398935981"   y2="137.0370426694483" />
<line x1="100" y1="100" x2="76.73113007758899"   y2="142.5486944017746" />
<line x1="100" y1="100" x2="74.47822590034856"   y2="134.7020618735493" />
<line x1="100" y1="100" x2="66.83485969571959"   y2="134.35268590835292" />
<line x1="100" y1="100" x2="63.83977667737584"   y2="128.60692151057745" />
<line x1="100" y1="100" x2="73.27585682920231"   y2="115.8603816613034" />
<line x1="100" y1="100" x2="59.63528520580444"   y2="117.15786054807967" />
<line x1="100" y1="100" x2="70.39831277711"   y2="108.13663013193607" />
<line x1="100" y1="100" x2="63.20087644301571"   y2="104.98183149913508" />
<line x1="100" y1="100" x2="57.10078057930021"   y2="100.03758875919006" />
<line x1="100" y1="100" x2="62.944703582617656"   y2="95.04959904611613" />
<line x1="100" y1="100" x2="64.7913801460781"   y2="90.388519715505" />
<line x1="100" y1="100" x2="60.03136876217533"   y2="83.09313892644231" />
<line x1="100" y1="100" x2="58.35526423935247"   y2="75.38305019038916" />
<line x1="100" y1="100" x2="61.46983035799309"   y2="69.62780490781262" />
<line x1="100" y1="100" x2="74.25942192211443"   y2="73.43106350631332" />
<line x1="100" y1="100" x2="76.41459571385968"   y2="68.04829356192056" />
<line x1="100" y1="100" x2="84.89711338976936"   y2="72.49795042106948" />
<line x1="100" y1="100" x2="87.3428894200517"   y2="67.22223620585305" />
<line x1="100" y1="100" x2="92.14093700670333"   y2="67.14963941766283" />
<line x1="100" y1="100" x2="96.82122555465367"   y2="68.67773097535559" />
<line x1="100" y1="100" x2="101.23112172538316"   y2="62.18505161897167" />
<line x1="100" y1="100" x2="105.13182454722626"   y2="69.41300719638704" />
<line x1="100" y1="100" x2="114.7372677490961"   y2="52.34400044266064" />
<line x1="100" y1="100" x2="117.39483482195612"   y2="62.42891934466372" />
<line x1="100" y1="100" x2="123.88051301539167"   y2="62.519417141780494" />
<line x1="100" y1="100" x2="132.03571401877707"   y2="62.04056943424852" />
<line x1="100" y1="100" x2="127.42806682558125"   y2="75.14905124312268" />
<line x1="100" y1="100" x2="132.73835711012777"   y2="77.4841613849956" />
<line x1="100" y1="100" x2="130.8761932508656"   y2="84.36357812167223" />
<line x1="100" y1="100" x2="140.97100194299557"   y2="85.73307765857862" />
<line x1="100" y1="100" x2="139.74796935568855"   y2="91.88459663498325" />
<line x1="100" y1="100" x2="136.89486716330373"   y2="97.49770478687728" />
<line x1="100" y1="100" x2="130.77710597793703"   y2="102.03319834281479" />
<line x1="100" y1="100" x2="140.99587877035435"   y2="108.29538076557937" />
<line x1="100" y1="100" x2="130.3206738907293"   y2="110.49872382823962" />
<line x1="100" y1="100" x2="138.1110441006272"   y2="119.21647782777393" />
<line x1="100" y1="100" x2="130.90134712785917"   y2="121.17276282665173" />
<line x1="100" y1="100" x2="128.47360366442032"   y2="125.7075324729889" />
<line x1="100" y1="100" x2="122.75448941384823"   y2="126.86635436178773" />
<line x1="100" y1="100" x2="126.21857477964971"   y2="140.99149179453372" />
  <path class="round" d="M 115.40391994176281 133.11855647406406 A 2.4451013016353595 2.4451013016353595 0 1 1 110.85220672481707 134.87619735148664"/>
<path class="round" d="M 109.42251535333885 130.28153751061157 A 2.1229787765138965 2.1229787765138965 0 1 1 105.30230890966062 131.2672485168909"/>
<path class="round" d="M 106.44430142642678 138.00147778088186 A 2.5802184276430458 2.5802184276430458 0 1 1 101.32170079749727 138.52135046188542"/>
<path class="round" d="M 101.66133276910301 148.42002210607265 A 3.2432464544197983 3.2432464544197983 0 1 1 95.19275218214234 148.20942787194184"/>
<path class="round" d="M 96.60744461733977 134.02220152128825 A 2.288813398669142 2.288813398669142 0 1 1 92.10299907704146 133.2664546473224"/>
<path class="round" d="M 89.21737836816465 145.42225548585907 A 3.1251622108812573 3.1251622108812573 0 1 1 83.25939229747715 143.5797920649951"/>
<path class="round" d="M 85.77270398935981 137.0370426694483 A 2.6559733461034254 2.6559733461034254 0 1 1 80.9630925530807 134.81026624905851"/>
<path class="round" d="M 76.731130077589 142.5486944017746 A 3.2464043059616037 3.2464043059616037 0 1 1 71.26756091315471 139.06761634502948"/>
<path class="round" d="M 74.47822590034856 134.7020618735493 A 2.883639536569004 2.883639536569004 0 1 1 70.08061205974585 130.9907127499491"/>
<path class="round" d="M 66.8348596957196 134.35268590835295 A 3.1964661178315787 3.1964661178315787 0 1 1 62.55201113929685 129.6256930857188"/>
<path class="round" d="M 63.839776677375845 128.60692151057748 A 3.086545691250268 3.086545691250268 0 1 1 60.34948722753622 123.53198984223559"/>
<path class="round" d="M 73.27585682920231 115.8603816613034 A 2.080308252998552 2.080308252998552 0 1 1 71.40032133049586 112.15688753985212"/>
<path class="round" d="M 59.63528520580444 117.15786054807967 A 2.936083663269831 2.936083663269831 0 1 1 57.708520858503164 111.62467939465154"/>
<path class="round" d="M 70.39831277710998 108.13663013193607 A 2.0550955422855073 2.0550955422855073 0 1 1 69.57792752470641 104.1185121893378"/>
<path class="round" d="M 63.2008764430157 104.98183149913507 A 2.4858830654416875 2.4858830654416875 0 1 1 62.8652039061417 100.0325379092392"/>
<path class="round" d="M 57.100780579300206 100.03758875919004 A 2.8717659525865096 2.8717659525865096 0 1 1 57.47853928146337 94.31934702854417"/>
<path class="round" d="M 62.944703582617656 95.04959904611611 A 2.5025983777657417 2.5025983777657417 0 1 1 63.935153774852516 90.15478141731995"/>
<path class="round" d="M 64.79138014607811 90.38851971550497 A 2.4431834362946963 2.4431834362946963 0 1 1 66.386614417534 85.78142851895144"/>
<path class="round" d="M 60.03136876217534 83.0931389264423 A 2.905113427864948 2.905113427864948 0 1 1 62.64145338525402 77.91669342648963"/>
<path class="round" d="M 58.35526423935248 75.38305019038913 A 3.238420442469543 3.238420442469543 0 1 1 62.00795817818006 70.05199517977633"/>
<path class="round" d="M 61.469830357993075 69.62780490781263 A 3.284290157546403 3.284290157546403 0 1 1 65.8618336648783 64.7632321766697"/>
<path class="round" d="M 74.25942192211441 73.43106350631334 A 2.476393324728142 2.476393324728142 0 1 1 78.03038518767994 70.23724187533074"/>
<path class="round" d="M 76.41459571385967 68.04829356192057 A 2.6585235214255665 2.6585235214255665 0 1 1 80.88378243310544 65.18975631253001"/>
<path class="round" d="M 84.89711338976934 72.49795042106949 A 2.1003830467098012 2.1003830467098012 0 1 1 88.69753352936051 70.73032001057227"/>
<path class="round" d="M 87.34288942005169 67.22223620585306 A 2.3521220391596978 2.3521220391596978 0 1 1 91.82467097921027 65.82766845853561"/>
<path class="round" d="M 92.14093700670331 67.14963941766281 A 2.2611292128633926 2.2611292128633926 0 1 1 96.58958413430385 66.39523657061122"/>
<path class="round" d="M 96.82122555465365 68.6777309753556 A 2.1075493554241578 2.1075493554241578 0 1 1 101.02443808098882 68.53351512410697"/>
<path class="round" d="M 101.23112172538313 62.18505161897166 A 2.532754147791419 2.532754147791419 0 1 1 106.26037636452936 62.686548410298606"/>
<path class="round" d="M 105.13182454722627 69.41300719638707 A 2.076177078005796 2.076177078005796 0 1 1 109.1628829267493 70.36992527139917"/>
<path class="round" d="M 114.73726774909612 52.34400044266066 A 3.339252256927213 3.339252256927213 0 1 1 120.95769738933055 54.73349721201201"/>
<path class="round" d="M 117.39483482195614 62.428919344663726 A 2.7715707674863306 2.7715707674863306 0 1 1 122.24736415286405 65.082652329497"/>
<path class="round" d="M 123.88051301539168 62.51941714178051 A 2.9750280227024466 2.9750280227024466 0 1 1 128.66311162994865 66.03679895888418"/>
<path class="round" d="M 132.03571401877707 62.0405694342485 A 3.325080269148511 3.325080269148511 0 1 1 136.80937190880582 66.64920568789711"/>
<path class="round" d="M 127.42806682558125 75.14905124312268 A 2.4776441186927545 2.4776441186927545 0 1 1 130.49564687239248 79.02658764674115"/>
<path class="round" d="M 132.73835711012774 77.48416138499559 A 2.65985497172723 2.65985497172723 0 1 1 135.4473163077009 82.04865516489146"/>
<path class="round" d="M 130.8761932508656 84.36357812167223 A 2.316852294639969 2.316852294639969 0 1 1 132.6848311159517 88.61848807303876"/>
<path class="round" d="M 140.97100194299557 85.73307765857861 A 2.9042144818977125 2.9042144818977125 0 1 1 142.50703233429087 91.32127454975982"/>
<path class="round" d="M 139.74796935568855 91.88459663498324 A 2.7157065993452867 2.7157065993452867 0 1 1 140.47499503444217 97.25489223534632"/>
<path class="round" d="M 136.89486716330373 97.49770478687726 A 2.4754946641028663 2.4754946641028663 0 1 1 136.89919558441485 102.43763605867335"/>
<path class="round" d="M 130.77710597793703 102.03319834281477 A 2.0647756792045464 2.0647756792045464 0 1 1 130.2314980685025 106.11724385753269"/>
<path class="round" d="M 140.99587877035435 108.29538076557934 A 2.7999701913825334 2.7999701913825334 0 1 1 139.52442651051038 113.68558099661092"/>
<path class="round" d="M 130.3206738907293 110.49872382823965 A 2.14796242657934 2.14796242657934 0 1 1 128.65079438440802 114.44639914829902"/>
<path class="round" d="M 138.11104410062717 119.21647782777394 A 2.8572014327953457 2.8572014327953457 0 1 1 135.20969203553392 124.12472361102064"/>
<path class="round" d="M 130.90134712785914 121.17276282665175 A 2.5075872063840006 2.5075872063840006 0 1 1 127.80357639806203 125.10259507515553"/>
<path class="round" d="M 128.47360366442032 125.70753247298892 A 2.5680165474512733 2.5680165474512733 0 1 1 124.7930688649512 129.27331665093755"/>
<path class="round" d="M 122.75448941384822 126.86635436178776 A 2.3568645600856764 2.3568645600856764 0 1 1 118.9705276376455 129.65951561181353"/>
<path class="round" d="M 126.21857477964969 140.99149179453372 A 3.2573490255214597 3.2573490255214597 0 1 1 120.52100809809085 144.12033873006303"/>
</svg>