<svg viewBox="40 40 120 120" xmlns="http://www.w3.org/2000/svg">
  <defs>
    <style>
      line, path.round {
        stroke: currentColor;
        stroke-width: 1.5;
        stroke-linecap: round;
        fill: none;
      }
    </style>
  </defs>

  <line x1="100" y1="100" x2="136.8430534047581"   y2="110.43203727597506" />
<line x1="100" y1="100" x2="125.35270922171594"   y2="116.43420071304742" />
<line x1="100" y1="100" x2="130.7231591907445"   y2="136.7380731171154" />
<line x1="100" y1="100" x2="112.1813647961972"   y2="129.0321150486393" />
<line x1="100" y1="100" x2="104.17470727116006"   y2="142.43049279109474" />
<line x1="100" y1="100" x2="91.09932177680487"   y2="143.6559864425862" />
<line x1="100" y1="100" x2="79.71800055891612"   y2="137.09729550560337" />
<line x1="100" y1="100" x2="76.0344248271806"   y2="123.29788372494721" />
<line x1="100" y1="100" x2="70.5497959980163"   y2="115.0365756351861" />
<line x1="100" y1="100" x2="62.27430913470115"   y2="106.58752625328691" />
<line x1="100" y1="100" x2="50.78352371130371"   y2="93.74940390355131" />
<line x1="100" y1="100" x2="65.07127539037066"   y2="84.16974411735363" />
<line x1="100" y1="100" x2="74.73037360412431"   y2="77.62472132785939" />
<line x1="100" y1="100" x2="82.3545559353241"   y2="71.01652343233796" />
<line x1="100" y1="100" x2="88.88050450499965"   y2="56.02596141199562" />
<line x1="100" y1="100" x2="101.89582216122251"   y2="63.239050841125135" />
<line x1="100" y1="100" x2="113.15537371069361"   y2="64.04168174383867" />
<line x1="100" y1="100" x2="125.69322930267265"   y2="66.19691811928203" />
<line x1="100" y1="100" x2="133.36318541120056"   y2="76.09738438538514" />
<line x1="100" y1="100" x2="146.69804086868947"   y2="84.39648471421332" />
<line x1="100" y1="100" x2="149.40568502002003"   y2="98.84993231719942" />
  <path class="round" d="M 136.8430534047581 110.43203727597505 A 5.77151304789783 5.77151304789783 0 1 1 132.13132294897224 120.82825176201882"/>
<path class="round" d="M 125.35270922171595 116.4342007130474 A 4.553920556121191 4.553920556121191 0 1 1 119.38229378779718 123.17691751465513"/>
<path class="round" d="M 130.7231591907445 136.7380731171154 A 7.218486507298788 7.218486507298788 0 1 1 118.52947828135808 144.1617137534202"/>
<path class="round" d="M 112.1813647961972 129.03211504863927 A 4.745466444692001 4.745466444692001 0 1 1 103.08281480192757 131.33281994000023"/>
<path class="round" d="M 104.17470727116006 142.43049279109474 A 6.426248264837294 6.426248264837294 0 1 1 91.48262943745848 141.77594161710027"/>
<path class="round" d="M 91.09932177680489 143.6559864425862 A 6.71544904236447 6.71544904236447 0 1 1 78.62692603889727 139.09295249225062"/>
<path class="round" d="M 79.71800055891612 137.09729550560337 A 6.372631937349834 6.372631937349834 0 1 1 69.68445308020355 129.47094247070845"/>
<path class="round" d="M 76.03442482718062 123.29788372494723 A 5.037804204796864 5.037804204796864 0 1 1 70.23197630907852 115.19884683000507"/>
<path class="round" d="M 70.5497959980163 115.03657563518608 A 4.984017853982238 4.984017853982238 0 1 1 67.42607745695817 105.68794275208887"/>
<path class="round" d="M 62.27430913470115 106.58752625328691 A 5.772271257108044 5.772271257108044 0 1 1 62.008648279901806 95.17501835427022"/>
<path class="round" d="M 50.7835237113037 93.74940390355133 A 7.4777768780227785 7.4777768780227785 0 1 1 54.81246920448425 79.52028929791582"/>
<path class="round" d="M 65.07127539037066 84.16974411735363 A 5.780116874423928 5.780116874423928 0 1 1 71.28911045590374 74.5776156556453"/>
<path class="round" d="M 74.7303736041243 77.62472132785939 A 5.087316912172218 5.087316912172218 0 1 1 82.44826137122492 71.17043904340109"/>
<path class="round" d="M 82.3545559353241 71.01652343233798 A 5.114477141645967 5.114477141645967 0 1 1 91.68152319651082 67.10309203196093"/>
<path class="round" d="M 88.88050450499964 56.02596141199562 A 6.836636908329237 6.836636908329237 0 1 1 102.3360879044752 54.70207573072254"/>
<path class="round" d="M 101.89582216122254 63.23905084112514 A 5.5481849523783335 5.5481849523783335 0 1 1 112.64707608270551 65.43104006067549"/>
<path class="round" d="M 113.1553737106936 64.04168174383867 A 5.771171612100392 5.771171612100392 0 1 1 123.16981773701035 69.51682340514502"/>
<path class="round" d="M 125.69322930267265 66.19691811928203 A 6.399706603557563 6.399706603557563 0 1 1 134.5153845098387 75.27190648731231"/>
<path class="round" d="M 133.3631854112006 76.09738438538517 A 6.186070386407337 6.186070386407337 0 1 1 138.9263723277068 86.99328206629664"/>
<path class="round" d="M 146.69804086868947 84.3964847142133 A 7.421122248153196 7.421122248153196 0 1 1 149.22259480709474 98.85419429913198"/>
<path class="round" d="M 149.40568502002 98.84993231719939 A 7.448726133277169 7.448726133277169 0 1 1 147.54971745679507 113.46360790246845"/>
</svg>