<svg viewBox="-20 -28 230 230" xmlns="http://www.w3.org/2000/svg">
  <defs>
    <style>
      line, path.round {
        stroke: currentColor;
        stroke-width: 1.5;
        stroke-linecap: round;
        fill: none;
      }
    </style>
  </defs>

  <line x1="100" y1="100" x2="107.94088383793039"   y2="69.76789031006656" />
<line x1="100" y1="100" x2="153.93074276755635"   y2="76.15258477383598" />
<line x1="100" y1="100" x2="155.5660519407596"   y2="129.0174171613276" />
<line x1="100" y1="100" x2="107.77351050559406"   y2="140.0016935029488" />
<line x1="100" y1="100" x2="67.92067416070823"   y2="137.6512884816122" />
<line x1="100" y1="100" x2="31.491366584142042"   y2="97.77527865989437" />
<line x1="100" y1="100" x2="58.098110886653316"   y2="43.80780870014395" />
  <path class="round" d="M 107.94088383793039 69.76789031006655 A 15.052870923584864 15.052870923584864 0 0 1 132.26224151263776 62.134024625668786"/>
<path class="round" d="M 153.93074276755638 76.15258477383597 A 28.397488873244594 28.397488873244594 0 0 1 193.79758030934767 103.0459442578251"/>
<path class="round" d="M 155.5660519407596 129.01741716132761 A 30.188224824965502 30.188224824965502 0 0 1 159.63809295416422 179.97718477498344"/>
<path class="round" d="M 107.77351050559406 140.00169350294883 A 19.624168367634056 19.624168367634056 0 0 1 83.524260305568 162.72555798960997"/>
<path class="round" d="M 67.92067416070823 137.6512884816122 A 23.820681787202123 23.820681787202123 0 0 1 28.00293272451015 131.83608958965704"/>
<path class="round" d="M 31.491366584142042 97.77527865989435 A 33.00941004334486 33.00941004334486 0 0 1 3.3028036185963963 49.5032886496696"/>
<path class="round" d="M 58.098110886653316 43.80780870014395 A 33.75604727413074 33.75604727413074 0 0 1 78.71950773019428 -9.507246276447368"/>
</svg>