<svg viewBox="30 30 140 140" xmlns="http://www.w3.org/2000/svg">
  <defs>
    <style>
      line, path.round {
        stroke: currentColor;
        stroke-width: 1.5;
        stroke-linecap: round;
        fill: none;
      }
    </style>
  </defs>

  <line x1="100" y1="100" x2="159.9971345426029"   y2="100.58638441043718" />
<line x1="100" y1="100" x2="156.17830931788163"   y2="121.0712496588222" />
<line x1="100" y1="100" x2="156.17830931788163"   y2="121.0712496588222" />
<line x1="100" y1="100" x2="145.5835508858803"   y2="139.01461121982842" />
<line x1="100" y1="100" x2="145.5835508858803"   y2="139.01461121982842" />
<line x1="100" y1="100" x2="129.49074347547972"   y2="152.25223487338556" />
<line x1="100" y1="100" x2="129.49074347547972"   y2="152.25223487338556" />
<line x1="100" y1="100" x2="109.84091716491662"   y2="159.18746784035662" />
<line x1="100" y1="100" x2="109.84091716491662"   y2="159.18746784035662" />
<line x1="100" y1="100" x2="89.00413100779534"   y2="158.9838186717872" />
<line x1="100" y1="100" x2="89.00413100779534"   y2="158.9838186717872" />
<line x1="100" y1="100" x2="69.49360893287678"   y2="151.6658504629484" />
<line x1="100" y1="100" x2="69.49360893287678"   y2="151.6658504629484" />
<line x1="100" y1="100" x2="53.66260784703498"   y2="138.11621818153444" />
<line x1="100" y1="100" x2="53.66260784703498"   y2="138.11621818153444" />
<line x1="100" y1="100" x2="43.42058012191505"   y2="119.96920745195877" />
<line x1="100" y1="100" x2="43.42058012191505"   y2="119.96920745195877" />
<line x1="100" y1="100" x2="40.00286545739708"   y2="99.41361558956282" />
<line x1="100" y1="100" x2="40.00286545739708"   y2="99.41361558956282" />
<line x1="100" y1="100" x2="43.82169068211838"   y2="78.9287503411778" />
<line x1="100" y1="100" x2="43.82169068211838"   y2="78.9287503411778" />
<line x1="100" y1="100" x2="54.416449114119715"   y2="60.98538878017156" />
<line x1="100" y1="100" x2="54.416449114119715"   y2="60.98538878017156" />
<line x1="100" y1="100" x2="70.50925652452027"   y2="47.747765126614446" />
<line x1="100" y1="100" x2="70.50925652452027"   y2="47.747765126614446" />
<line x1="100" y1="100" x2="90.15908283508338"   y2="40.812532159643375" />
<line x1="100" y1="100" x2="90.15908283508338"   y2="40.812532159643375" />
<line x1="100" y1="100" x2="110.99586899220462"   y2="41.016181328212795" />
<line x1="100" y1="100" x2="110.99586899220462"   y2="41.016181328212795" />
<line x1="100" y1="100" x2="130.50639106712322"   y2="48.3341495370516" />
<line x1="100" y1="100" x2="130.50639106712322"   y2="48.3341495370516" />
<line x1="100" y1="100" x2="146.33739215296498"   y2="61.88378181846554" />
<line x1="100" y1="100" x2="146.33739215296498"   y2="61.88378181846554" />
<line x1="100" y1="100" x2="156.57941987808493"   y2="80.03079254804118" />
<line x1="100" y1="100" x2="156.57941987808493"   y2="80.03079254804118" />
<line x1="100" y1="100" x2="159.9971345426029"   y2="100.58638441043715" />
  <path class="round" d="M 159.99713454260294 100.58638441043719 A 5.24931981155544 5.24931981155544 0 1 1 158.98381867178722 110.99586899220466"/>
<path class="round" d="M 158.9838186717872 110.99586899220468 A 5.24931981155544 5.24931981155544 0 1 1 156.17830931788163 121.0712496588222"/>
<path class="round" d="M 156.17830931788163 121.0712496588222 A 5.24931981155544 5.24931981155544 0 1 1 151.66585046294838 130.50639106712322"/>
<path class="round" d="M 151.6658504629484 130.50639106712322 A 5.24931981155544 5.24931981155544 0 1 1 145.5835508858803 139.01461121982842"/>
<path class="round" d="M 145.5835508858803 139.01461121982845 A 5.24931981155544 5.24931981155544 0 1 1 138.11621818153444 146.33739215296504"/>
<path class="round" d="M 138.11621818153444 146.337392152965 A 5.24931981155544 5.24931981155544 0 1 1 129.4907434754797 152.25223487338556"/>
<path class="round" d="M 129.49074347547972 152.2522348733856 A 5.24931981155544 5.24931981155544 0 1 1 119.96920745195878 156.57941987808496"/>
<path class="round" d="M 119.96920745195878 156.57941987808496 A 5.24931981155544 5.24931981155544 0 1 1 109.84091716491663 159.18746784035665"/>
<path class="round" d="M 109.84091716491662 159.18746784035662 A 5.24931981155544 5.24931981155544 0 1 1 99.41361558956284 159.9971345426029"/>
<path class="round" d="M 99.41361558956282 159.99713454260294 A 5.24931981155544 5.24931981155544 0 1 1 89.00413100779534 158.98381867178722"/>
<path class="round" d="M 89.00413100779537 158.9838186717872 A 5.24931981155544 5.24931981155544 0 1 1 78.92875034117783 156.17830931788163"/>
<path class="round" d="M 78.9287503411778 156.17830931788163 A 5.24931981155544 5.24931981155544 0 1 1 69.49360893287678 151.66585046294838"/>
<path class="round" d="M 69.49360893287678 151.6658504629484 A 5.24931981155544 5.24931981155544 0 1 1 60.98538878017157 145.5835508858803"/>
<path class="round" d="M 60.98538878017157 145.5835508858803 A 5.24931981155544 5.24931981155544 0 1 1 53.66260784703498 138.11621818153444"/>
<path class="round" d="M 53.662607847034984 138.11621818153444 A 5.24931981155544 5.24931981155544 0 1 1 47.747765126614425 129.4907434754797"/>
<path class="round" d="M 47.747765126614425 129.4907434754797 A 5.24931981155544 5.24931981155544 0 1 1 43.420580121915044 119.96920745195877"/>
<path class="round" d="M 43.420580121915044 119.96920745195877 A 5.24931981155544 5.24931981155544 0 1 1 40.812532159643375 109.84091716491662"/>
<path class="round" d="M 40.812532159643375 109.84091716491659 A 5.24931981155544 5.24931981155544 0 1 1 40.00286545739708 99.41361558956281"/>
<path class="round" d="M 40.00286545739708 99.41361558956282 A 5.24931981155544 5.24931981155544 0 1 1 41.0161813282128 89.00413100779535"/>
<path class="round" d="M 41.0161813282128 89.00413100779534 A 5.24931981155544 5.24931981155544 0 1 1 43.82169068211837 78.9287503411778"/>
<path class="round" d="M 43.82169068211837 78.9287503411778 A 5.24931981155544 5.24931981155544 0 1 1 48.3341495370516 69.49360893287678"/>
<path class="round" d="M 48.334149537051616 69.49360893287677 A 5.24931981155544 5.24931981155544 0 1 1 54.416449114119715 60.985388780171554"/>
<path class="round" d="M 54.41644911411971 60.985388780171576 A 5.24931981155544 5.24931981155544 0 1 1 61.883781818465565 53.662607847034984"/>
<path class="round" d="M 61.883781818465565 53.66260784703497 A 5.24931981155544 5.24931981155544 0 1 1 70.5092565245203 47.74776512661442"/>
<path class="round" d="M 70.50925652452025 47.747765126614446 A 5.24931981155544 5.24931981155544 0 1 1 80.03079254804118 43.420580121915066"/>
<path class="round" d="M 80.03079254804118 43.420580121915066 A 5.24931981155544 5.24931981155544 0 1 1 90.15908283508332 40.81253215964338"/>
<path class="round" d="M 90.15908283508337 40.812532159643375 A 5.24931981155544 5.24931981155544 0 1 1 100.58638441043715 40.00286545739708"/>
<path class="round" d="M 100.58638441043715 40.00286545739708 A 5.24931981155544 5.24931981155544 0 1 1 110.99586899220462 41.016181328212795"/>
<path class="round" d="M 110.9958689922046 41.016181328212795 A 5.24931981155544 5.24931981155544 0 1 1 121.07124965882214 43.82169068211836"/>
<path class="round" d="M 121.07124965882214 43.82169068211836 A 5.24931981155544 5.24931981155544 0 1 1 130.50639106712316 48.33414953705158"/>
<path class="round" d="M 130.5063910671232 48.334149537051594 A 5.24931981155544 5.24931981155544 0 1 1 139.0146112198284 54.41644911411969"/>
<path class="round" d="M 139.01461121982842 54.41644911411969 A 5.24931981155544 5.24931981155544 0 1 1 146.337392152965 61.88378181846554"/>
<path class="round" d="M 146.33739215296498 61.88378181846554 A 5.24931981155544 5.24931981155544 0 1 1 152.25223487338553 70.50925652452027"/>
<path class="round" d="M 152.25223487338556 70.50925652452025 A 5.24931981155544 5.24931981155544 0 1 1 156.57941987808493 80.03079254804118"/>
<path class="round" d="M 156.57941987808493 80.03079254804118 A 5.24931981155544 5.24931981155544 0 1 1 159.18746784035662 90.15908283508332"/>
<path class="round" d="M 159.18746784035662 90.15908283508331 A 5.24931981155544 5.24931981155544 0 1 1 159.99713454260294 100.58638441043709"/>
</svg>