<svg viewBox="0 0 200 200" xmlns="http://www.w3.org/2000/svg">
  <defs>
    <style>
      line, path.round {
        stroke: currentColor;
        stroke-width: 1.5;
        stroke-linecap: round;
        fill: none;
      }
    </style>
  </defs>

  <line x1="100" y1="100" x2="101.35171992278086"   y2="131.04776681608035" />
<line x1="100" y1="100" x2="90.65123958042872"   y2="129.63767281067797" />
<line x1="100" y1="100" x2="81.4570244798513"   y2="158.78540220712824" />
<line x1="100" y1="100" x2="62.46951104796345"   y2="148.89813751888445" />
<line x1="100" y1="100" x2="75.98204150696472"   y2="131.29278275101098" />
<line x1="100" y1="100" x2="66.72773959619272"   y2="121.19097142880369" />
<line x1="100" y1="100" x2="55.75713730554784"   y2="128.1781047607856" />
<line x1="100" y1="100" x2="48.78782897464956"   y2="111.3468068715481" />
<line x1="100" y1="100" x2="25.84274638130067"   y2="116.43062612048352" />
<line x1="100" y1="100" x2="24.695370896100883"   y2="90.07646360900506" />
<line x1="100" y1="100" x2="30.71871853776223"   y2="90.87021175209955" />
<line x1="100" y1="100" x2="38.019462536423525"   y2="67.7252115386095" />
<line x1="100" y1="100" x2="54.16643021526387"   y2="76.13333427284257" />
<line x1="100" y1="100" x2="65.09341312171571"   y2="61.89666622652371" />
<line x1="100" y1="100" x2="61.764881983164734"   y2="58.26330804716766" />
<line x1="100" y1="100" x2="78.34553110834854"   y2="47.703158011716994" />
<line x1="100" y1="100" x2="71.45557665306634"   y2="31.063504494595804" />
<line x1="100" y1="100" x2="96.75468608942514"   y2="25.458116106463933" />
<line x1="100" y1="100" x2="97.25813023436613"   y2="37.02176635206518" />
<line x1="100" y1="100" x2="118.96330971274196"   y2="39.882043880682424" />
<line x1="100" y1="100" x2="112.3439447379894"   y2="60.866919364867194" />
<line x1="100" y1="100" x2="124.98381562928078"   y2="67.44881064703705" />
<line x1="100" y1="100" x2="139.35228716593232"   y2="48.72825792433565" />
<line x1="100" y1="100" x2="154.51502243415"   y2="65.27959721334486" />
<line x1="100" y1="100" x2="144.67218405052336"   y2="71.548462160732" />
<line x1="100" y1="100" x2="151.70912075628888"   y2="88.5430866340595" />
<line x1="100" y1="100" x2="172.1844686778554"   y2="84.00647328918171" />
<line x1="100" y1="100" x2="173.30132084984922"   y2="109.65954329258905" />
<line x1="100" y1="100" x2="140.0539262655127"   y2="105.278249154506" />
<line x1="100" y1="100" x2="135.83311141287243"   y2="118.65918138324518" />
<line x1="100" y1="100" x2="139.53865628538676"   y2="120.58874962819421" />
<line x1="100" y1="100" x2="130.11241644843705"   y2="132.87011298645504" />
<line x1="100" y1="100" x2="149.76826326563156"   y2="154.32604319491134" />
<line x1="100" y1="100" x2="128.18626866020435"   y2="168.0715304419356" />
<line x1="100" y1="100" x2="117.62167334513506"   y2="142.5573987111251" />
<line x1="100" y1="100" x2="102.00346880157649"   y2="146.01784077182919" />
  <path class="round" d="M 101.35171992278086 131.04776681608035 A 5.479744904889026 5.479744904889026 0 1 1 90.65123958042874 129.637672810678"/>
<path class="round" d="M 81.4570244798513 158.78540220712824 A 10.868903583762666 10.868903583762666 0 1 1 62.469511047963444 148.89813751888443"/>
<path class="round" d="M 75.9820415069647 131.29278275101098 A 6.955648125800625 6.955648125800625 0 1 1 66.7277395961927 121.19097142880369"/>
<path class="round" d="M 55.75713730554785 128.17810476078563 A 9.249079601021236 9.249079601021236 0 1 1 48.78782897464956 111.34680687154811"/>
<path class="round" d="M 25.84274638130066 116.43062612048351 A 13.393033881983854 13.393033881983854 0 1 1 24.695370896100872 90.07646360900505"/>
<path class="round" d="M 30.718718537762225 90.87021175209958 A 12.321773057680014 12.321773057680014 0 1 1 38.01946253642353 67.7252115386095"/>
<path class="round" d="M 54.16643021526389 76.13333427284253 A 9.111744886735456 9.111744886735456 0 1 1 65.09341312171571 61.89666622652369"/>
<path class="round" d="M 61.76488198316471 58.26330804716766 A 9.980598856554527 9.980598856554527 0 1 1 78.34553110834854 47.70315801171699"/>
<path class="round" d="M 71.45557665306633 31.0635044945958 A 13.156196092495692 13.156196092495692 0 1 1 96.75468608942509 25.458116106463912"/>
<path class="round" d="M 97.25813023436612 37.02176635206518 A 11.11528107626871 11.11528107626871 0 1 1 118.96330971274197 39.88204388068244"/>
<path class="round" d="M 112.3439447379894 60.86691936486718 A 7.235362256436052 7.235362256436052 0 1 1 124.98381562928077 67.44881064703704"/>
<path class="round" d="M 139.35228716593232 48.72825792433563 A 11.396499937788569 11.396499937788569 0 1 1 154.51502243415007 65.27959721334486"/>
<path class="round" d="M 144.67218405052336 71.54846216073199 A 9.338830289717496 9.338830289717496 0 1 1 151.70912075628888 88.54308663405945"/>
<path class="round" d="M 172.1844686778554 84.0064732891817 A 13.0367426998637 13.0367426998637 0 1 1 173.30132084984922 109.65954329258906"/>
<path class="round" d="M 140.0539262655127 105.278249154506 A 7.1236469519072205 7.1236469519072205 0 1 1 135.83311141287243 118.65918138324517"/>
<path class="round" d="M 139.53865628538676 120.58874962819421 A 7.860311796109374 7.860311796109374 0 1 1 130.11241644843705 132.87011298645504"/>
<path class="round" d="M 149.76826326563156 154.32604319491134 A 12.991121701859479 12.991121701859479 0 1 1 128.18626866020432 168.07153044193564"/>
<path class="round" d="M 117.62167334513502 142.5573987111251 A 8.121873305645384 8.121873305645384 0 1 1 102.00346880157647 146.0178407718292"/>
</svg>