<svg viewBox="0 0 200 200" xmlns="http://www.w3.org/2000/svg">
  <defs>
    <style>
      line, path.round {
        stroke: currentColor;
        stroke-width: 1.5;
        stroke-linecap: round;
        fill: none;
      }
    </style>
  </defs>

  <line x1="100" y1="100" x2="71.28378522715313"   y2="166.63832547236018" />
<line x1="100" y1="100" x2="37.5990692845268"   y2="137.03257023868565" />
<line x1="100" y1="100" x2="67.5298830276019"   y2="119.26977488399075" />
<line x1="100" y1="100" x2="62.40463406818185"   y2="96.50411946234091" />
<line x1="100" y1="100" x2="25.957061939391323"   y2="93.11496883454697" />
<line x1="100" y1="100" x2="44.144924576143325"   y2="50.90854575191653" />
<line x1="100" y1="100" x2="52.4739206767191"   y2="58.228964315513004" />
<line x1="100" y1="100" x2="86.10299289977804"   y2="38.2713937331009" />
<line x1="100" y1="100" x2="86.94897362991694"   y2="42.02912451811958" />
<line x1="100" y1="100" x2="123.51592354329983"   y2="45.42937572874977" />
<line x1="100" y1="100" x2="112.40701411193136"   y2="71.20850881388355" />
<line x1="100" y1="100" x2="126.96069917671024"   y2="83.99985425701313" />
<line x1="100" y1="100" x2="157.01907562489419"   y2="66.16135530651256" />
<line x1="100" y1="100" x2="166.0192574924866"   y2="106.13893312801507" />
<line x1="100" y1="100" x2="174.92285251942235"   y2="106.96685177698663" />
<line x1="100" y1="100" x2="156.51884822584015"   y2="149.6748492554739" />
<line x1="100" y1="100" x2="156.28803876208607"   y2="149.47198904726676" />
<line x1="100" y1="100" x2="116.45907437500524"   y2="173.10895894959134" />
<line x1="100" y1="100" x2="114.75291350053678"   y2="165.5304255223205" />
<line x1="100" y1="100" x2="73.41754004000761"   y2="161.68677288014118" />
  <path class="round" d="M 71.28378522715312 166.63832547236015 A 23.576920544151644 23.576920544151644 0 1 1 37.59906928452679 137.03257023868568"/>
<path class="round" d="M 67.5298830276019 119.26977488399075 A 12.268172271470815 12.268172271470815 0 1 1 62.40463406818185 96.50411946234091"/>
<path class="round" d="M 25.957061939391316 93.11496883454697 A 24.161794867505378 24.161794867505378 0 1 1 44.1449245761433 50.90854575191652"/>
<path class="round" d="M 52.473920676719096 58.228964315513 A 20.55883678881286 20.55883678881286 0 1 1 86.10299289977803 38.27139373310089"/>
<path class="round" d="M 86.94897362991694 42.02912451811957 A 19.307316973648607 19.307316973648607 0 1 1 123.51592354329983 45.429375728749775"/>
<path class="round" d="M 112.40701411193136 71.20850881388355 A 10.186550985952737 10.186550985952737 0 1 1 126.96069917671022 83.99985425701313"/>
<path class="round" d="M 157.0190756248942 66.16135530651256 A 21.54349622826631 21.54349622826631 0 1 1 166.0192574924866 106.13893312801505"/>
<path class="round" d="M 174.92285251942235 106.96685177698663 A 24.448929781538705 24.448929781538705 0 1 1 156.51884822584015 149.67484925547387"/>
<path class="round" d="M 156.28803876208605 149.47198904726676 A 24.349086197506526 24.349086197506526 0 1 1 116.45907437500523 173.1089589495913"/>
<path class="round" d="M 114.75291350053678 165.53042552232054 A 21.825040357946218 21.825040357946218 0 1 1 73.41754004000757 161.68677288014115"/>
</svg>