<svg viewBox="0 0 200 200" xmlns="http://www.w3.org/2000/svg">
  <defs>
    <style>
      line, path.round {
        stroke: currentColor;
        stroke-width: 1.5;
        stroke-linecap: round;
        fill: none;
      }
    </style>
  </defs>

  <line x1="100" y1="100" x2="142.61756727744825"   y2="97.17939273956064" />
<line x1="100" y1="100" x2="142.6228772817417"   y2="102.73919663241902" />
<line x1="100" y1="100" x2="174.8369438727931"   y2="104.80946190661557" />
<line x1="100" y1="100" x2="144.09757177572138"   y2="160.6556119047189" />
<line x1="100" y1="100" x2="121.43422214627344"   y2="129.48248186081955" />
<line x1="100" y1="100" x2="70.20143007423503"   y2="120.99256644787978" />
<line x1="100" y1="100" x2="39.7174601867069"   y2="142.46798506875083" />
<line x1="100" y1="100" x2="75.10077572363467"   y2="30.59147752202061" />
<line x1="100" y1="100" x2="76.92991576021934"   y2="35.690347508310495" />
<line x1="100" y1="100" x2="168.17332402061018"   y2="95.48800682476836" />
  <path class="round" d="M 142.61756727744825 97.17939273956065 A 0.6955288980920756 0.6955288980920756 0 1 1 142.68681052030468 98.56854145394429"/>
<path class="round" d="M 142.68681052030468 98.56854145394428 A 0.6955288980920756 0.6955288980920756 0 1 1 142.71078554643833 99.95920819169163"/>
<path class="round" d="M 142.7107855464383 99.95920819169166 A 0.6955288980920756 0.6955288980920756 0 1 1 142.68946693097752 101.34991818805676"/>
<path class="round" d="M 142.68946693097752 101.34991818805675 A 0.6955288980920756 0.6955288980920756 0 1 1 142.62287728174172 102.73919663241902"/>
<path class="round" d="M 174.8369438727931 104.8094619066156 A 4.709152783554529 4.709152783554529 0 1 1 173.6473910395852 114.13367910747954"/>
<path class="round" d="M 173.64739103958522 114.13367910747948 A 4.709152783554529 4.709152783554529 0 1 1 171.30073620496597 123.23583673295698"/>
<path class="round" d="M 171.30073620496592 123.23583673295701 A 4.709152783554529 4.709152783554529 0 1 1 167.83384855014373 131.9729273437222"/>
<path class="round" d="M 167.8338485501437 131.97292734372223 A 4.709152783554529 4.709152783554529 0 1 1 163.3011976576446 140.20767920632304"/>
<path class="round" d="M 163.30119765764465 140.207679206323 A 4.709152783554529 4.709152783554529 0 1 1 157.77399771911047 147.81071302127793"/>
<path class="round" d="M 157.77399771911044 147.81071302127793 A 4.709152783554529 4.709152783554529 0 1 1 151.33908866221276 154.66257465015926"/>
<path class="round" d="M 151.3390886622128 154.66257465015923 A 4.709152783554529 4.709152783554529 0 1 1 144.0975717757214 160.65561190471888"/>
<path class="round" d="M 121.43422214627346 129.48248186081955 A 9.863978950884878 9.863978950884878 0 1 1 103.64125193764593 136.26822162742397"/>
<path class="round" d="M 103.64125193764593 136.26822162742394 A 9.863978950884878 9.863978950884878 0 1 1 84.85444846253606 133.15501295905906"/>
<path class="round" d="M 84.85444846253603 133.15501295905906 A 9.863978950884878 9.863978950884878 0 1 1 70.20143007423505 120.99256644787981"/>
<path class="round" d="M 39.717460186706894 142.4679850687508 A 6.803572222807614 6.803572222807614 0 1 1 32.96468076921101 130.72100808513812"/>
<path class="round" d="M 32.96468076921099 130.7210080851381 A 6.803572222807614 6.803572222807614 0 1 1 28.47527278662646 117.93677114737805"/>
<path class="round" d="M 28.47527278662648 117.93677114737815 A 6.803572222807614 6.803572222807614 0 1 1 26.400816001741653 104.54691949911381"/>
<path class="round" d="M 26.40081600174165 104.54691949911377 A 6.803572222807614 6.803572222807614 0 1 1 26.811352092342833 91.00354627701006"/>
<path class="round" d="M 26.811352092342826 91.00354627701003 A 6.803572222807614 6.803572222807614 0 1 1 29.69301977349653 77.76392809934809"/>
<path class="round" d="M 29.693019773496545 77.76392809934806 A 6.803572222807614 6.803572222807614 0 1 1 34.948522808095646 65.27508564024875"/>
<path class="round" d="M 34.94852280809561 65.27508564024883 A 6.803572222807614 6.803572222807614 0 1 1 42.400415103824955 53.95869048420503"/>
<path class="round" d="M 42.400415103824955 53.958690484205 A 6.803572222807614 6.803572222807614 0 1 1 51.797091978977555 44.19682786384128"/>
<path class="round" d="M 51.79709197897759 44.19682786384126 A 6.803572222807614 6.803572222807614 0 1 1 62.82128530883414 36.319095985893874"/>
<path class="round" d="M 62.82128530883416 36.31909598589385 A 6.803572222807614 6.803572222807614 0 1 1 75.10077572363477 30.591477522020575"/>
<path class="round" d="M 76.92991576021936 35.690347508310495 A 6.334963456295338 6.334963456295338 0 1 1 89.14733657963704 32.54497878499512"/>
<path class="round" d="M 89.14733657963707 32.544978784995116 A 6.334963456295338 6.334963456295338 0 1 1 101.73478968370242 31.699555673584655"/>
<path class="round" d="M 101.73478968370232 31.69955567358464 A 6.334963456295338 6.334963456295338 0 1 1 114.26309341906622 33.18290371056648"/>
<path class="round" d="M 114.26309341906625 33.18290371056648 A 6.334963456295338 6.334963456295338 0 1 1 126.3050828885609 36.94444667867561"/>
<path class="round" d="M 126.30508288856093 36.944446678675625 A 6.334963456295338 6.334963456295338 0 1 1 137.45017456052167 42.85593105300518"/>
<path class="round" d="M 137.4501745605217 42.855931053005186 A 6.334963456295338 6.334963456295338 0 1 1 147.31836552006544 50.71579893168677"/>
<path class="round" d="M 147.31836552006536 50.715798931686706 A 6.334963456295338 6.334963456295338 0 1 1 155.57319004401782 60.256060351747706"/>
<path class="round" d="M 155.57319004401785 60.25606035174773 A 6.334963456295338 6.334963456295338 0 1 1 161.93319173226325 71.1514306717445"/>
<path class="round" d="M 161.93319173226323 71.15143067174454 A 6.334963456295338 6.334963456295338 0 1 1 166.18152004186032 83.03042147308061"/>
<path class="round" d="M 166.18152004186032 83.03042147308064 A 6.334963456295338 6.334963456295338 0 1 1 168.1733240206102 95.48800682476848"/>
</svg>