<svg viewBox="-40 -40 280 280" xmlns="http://www.w3.org/2000/svg">
  <defs>
    <style>
      line, path.round {
        stroke: currentColor;
        stroke-width: 1.5;
        stroke-linecap: round;
        fill: none;
      }
    </style>
  </defs>

  <line x1="100" y1="100" x2="50.663270474289"   y2="110.13601986729587" />
<line x1="100" y1="100" x2="124.56173680824935"   y2="26.123232142208337" />
<line x1="100" y1="100" x2="147.2834825142812"   y2="153.23863877488134" />
  <path class="round" d="M 50.663270474289 110.13601986729589 A 29.079498958564027 29.079498958564027 0 1 1 66.55358453880248 62.34114882474043"/>
<path class="round" d="M 66.55358453880251 62.341148824740415 A 29.079498958564027 29.079498958564027 0 1 1 115.89031406451352 52.20512895744454"/>
<path class="round" d="M 124.56173680824938 26.123232142208362 A 44.94832493783555 44.94832493783555 0 1 1 176.26002611845803 84.33270410811542"/>
<path class="round" d="M 176.26002611845792 84.33270410811542 A 44.94832493783555 44.94832493783555 0 1 1 151.69828931020862 158.20947196590708"/>
<path class="round" d="M 147.28348251428116 153.23863877488137 A 41.10993544663963 41.10993544663963 0 1 1 77.5357276151901 167.5680164242055"/>
<path class="round" d="M 77.5357276151901 167.5680164242055 A 41.10993544663963 41.10993544663963 0 1 1 30.252245100908887 114.32937764932416"/>
</svg>