<svg viewBox="30 30 140 140" xmlns="http://www.w3.org/2000/svg">
  <defs>
    <style>
      line, path.round {
        stroke: currentColor;
        stroke-width: 1.5;
        stroke-linecap: round;
        fill: none;
      }
    </style>
  </defs>

  <line x1="100" y1="100" x2="153.3119485213569"   y2="113.52169164180992" />
<line x1="100" y1="100" x2="147.99571660766796"   y2="126.85909878079357" />
<line x1="100" y1="100" x2="139.40865592383835"   y2="138.36610272462553" />
<line x1="100" y1="100" x2="128.13596046468234"   y2="147.25852017075687" />
<line x1="100" y1="100" x2="114.94584579673135"   y2="152.93034756564828" />
<line x1="100" y1="100" x2="100.7371964369111"   y2="154.99505924547591" />
<line x1="100" y1="100" x2="86.47830835819008"   y2="153.3119485213569" />
<line x1="100" y1="100" x2="73.14090121920646"   y2="147.99571660766796" />
<line x1="100" y1="100" x2="61.63389727537446"   y2="139.40865592383835" />
<line x1="100" y1="100" x2="52.74147982924315"   y2="128.13596046468234" />
<line x1="100" y1="100" x2="47.06965243435174"   y2="114.94584579673136" />
<line x1="100" y1="100" x2="45.00494075452409"   y2="100.73719643691112" />
<line x1="100" y1="100" x2="46.688051478643104"   y2="86.47830835819009" />
<line x1="100" y1="100" x2="52.004283392332034"   y2="73.14090121920646" />
<line x1="100" y1="100" x2="60.59134407616164"   y2="61.63389727537446" />
<line x1="100" y1="100" x2="71.8640395353176"   y2="52.74147982924318" />
<line x1="100" y1="100" x2="85.05415420326864"   y2="47.06965243435174" />
<line x1="100" y1="100" x2="99.26280356308885"   y2="45.00494075452409" />
<line x1="100" y1="100" x2="113.52169164180991"   y2="46.688051478643104" />
<line x1="100" y1="100" x2="126.85909878079354"   y2="52.004283392332034" />
<line x1="100" y1="100" x2="138.36610272462553"   y2="60.59134407616162" />
<line x1="100" y1="100" x2="147.25852017075684"   y2="71.86403953531766" />
<line x1="100" y1="100" x2="152.93034756564828"   y2="85.05415420326862" />
<line x1="100" y1="100" x2="154.99505924547591"   y2="99.26280356308885" />
  <path class="round" d="M 153.3119485213569 113.52169164180992 A 7.240887367306771 7.240887367306771 0 1 1 147.99571660766796 126.85909878079357"/>
<path class="round" d="M 147.99571660766796 126.85909878079356 A 7.240887367306771 7.240887367306771 0 1 1 139.40865592383835 138.36610272462553"/>
<path class="round" d="M 139.40865592383835 138.36610272462556 A 7.240887367306771 7.240887367306771 0 1 1 128.13596046468234 147.25852017075687"/>
<path class="round" d="M 128.13596046468234 147.25852017075684 A 7.240887367306771 7.240887367306771 0 1 1 114.94584579673135 152.93034756564828"/>
<path class="round" d="M 114.94584579673135 152.93034756564828 A 7.240887367306771 7.240887367306771 0 1 1 100.7371964369111 154.99505924547591"/>
<path class="round" d="M 100.7371964369111 154.99505924547591 A 7.240887367306771 7.240887367306771 0 1 1 86.47830835819009 153.3119485213569"/>
<path class="round" d="M 86.47830835819009 153.3119485213569 A 7.240887367306771 7.240887367306771 0 1 1 73.14090121920644 147.99571660766796"/>
<path class="round" d="M 73.14090121920644 147.99571660766796 A 7.240887367306771 7.240887367306771 0 1 1 61.63389727537446 139.40865592383835"/>
<path class="round" d="M 61.63389727537446 139.40865592383838 A 7.240887367306771 7.240887367306771 0 1 1 52.74147982924316 128.13596046468237"/>
<path class="round" d="M 52.74147982924315 128.13596046468234 A 7.240887367306771 7.240887367306771 0 1 1 47.06965243435173 114.94584579673135"/>
<path class="round" d="M 47.069652434351724 114.94584579673133 A 7.240887367306771 7.240887367306771 0 1 1 45.00494075452408 100.7371964369111"/>
<path class="round" d="M 45.004940754524085 100.73719643691112 A 7.240887367306771 7.240887367306771 0 1 1 46.6880514786431 86.4783083581901"/>
<path class="round" d="M 46.6880514786431 86.47830835819009 A 7.240887367306771 7.240887367306771 0 1 1 52.004283392332034 73.14090121920644"/>
<path class="round" d="M 52.00428339233203 73.14090121920646 A 7.240887367306771 7.240887367306771 0 1 1 60.59134407616162 61.633897275374466"/>
<path class="round" d="M 60.591344076161604 61.63389727537447 A 7.240887367306771 7.240887367306771 0 1 1 71.8640395353176 52.741479829243175"/>
<path class="round" d="M 71.86403953531766 52.741479829243154 A 7.240887367306771 7.240887367306771 0 1 1 85.05415420326864 47.06965243435172"/>
<path class="round" d="M 85.05415420326864 47.06965243435173 A 7.240887367306771 7.240887367306771 0 1 1 99.26280356308887 45.004940754524085"/>
<path class="round" d="M 99.26280356308885 45.004940754524085 A 7.240887367306771 7.240887367306771 0 1 1 113.52169164180987 46.68805147864309"/>
<path class="round" d="M 113.52169164180991 46.6880514786431 A 7.240887367306771 7.240887367306771 0 1 1 126.85909878079356 52.004283392332034"/>
<path class="round" d="M 126.85909878079356 52.00428339233203 A 7.240887367306771 7.240887367306771 0 1 1 138.36610272462553 60.59134407616162"/>
<path class="round" d="M 138.36610272462553 60.591344076161604 A 7.240887367306771 7.240887367306771 0 1 1 147.25852017075684 71.8640395353176"/>
<path class="round" d="M 147.25852017075684 71.86403953531763 A 7.240887367306771 7.240887367306771 0 1 1 152.93034756564828 85.05415420326864"/>
<path class="round" d="M 152.93034756564828 85.05415420326861 A 7.240887367306771 7.240887367306771 0 1 1 154.99505924547591 99.26280356308885"/>
<path class="round" d="M 154.99505924547591 99.26280356308885 A 7.240887367306771 7.240887367306771 0 1 1 153.3119485213569 113.52169164180987"/>
</svg>