<svg viewBox="0 0 200 200" xmlns="http://www.w3.org/2000/svg">
  <defs>
    <style>
      line, path.round {
        stroke: currentColor;
        stroke-width: 1.5;
        stroke-linecap: round;
        fill: none;
      }
    </style>
  </defs>

  <line x1="100" y1="100" x2="104.21636554188579"   y2="45.16185395532414" />
<line x1="100" y1="100" x2="141.75784560251728"   y2="64.20499573074018" />
<line x1="100" y1="100" x2="154.83814604467585"   y2="104.21636554188578" />
<line x1="100" y1="100" x2="135.79500426925983"   y2="141.75784560251728" />
<line x1="100" y1="100" x2="95.78363445811422"   y2="154.83814604467585" />
<line x1="100" y1="100" x2="58.24215439748273"   y2="135.79500426925983" />
<line x1="100" y1="100" x2="45.16185395532415"   y2="95.78363445811418" />
<line x1="100" y1="100" x2="64.20499573074017"   y2="58.24215439748273" />
  <path class="round" d="M 104.21636554188575 45.161853955324126 A 22.78174593052023 22.78174593052023 0 1 1 141.75784560251725 64.20499573074017"/>
<path class="round" d="M 141.75784560251728 64.20499573074021 A 22.78174593052023 22.78174593052023 0 1 1 154.83814604467585 104.2163655418858"/>
<path class="round" d="M 154.83814604467585 104.21636554188575 A 22.78174593052023 22.78174593052023 0 1 1 135.79500426925983 141.75784560251725"/>
<path class="round" d="M 135.79500426925978 141.75784560251728 A 22.78174593052023 22.78174593052023 0 1 1 95.78363445811418 154.83814604467588"/>
<path class="round" d="M 95.78363445811425 154.83814604467585 A 22.78174593052023 22.78174593052023 0 1 1 58.24215439748274 135.79500426925983"/>
<path class="round" d="M 58.24215439748275 135.7950042692599 A 22.78174593052023 22.78174593052023 0 1 1 45.16185395532419 95.7836344581143"/>
<path class="round" d="M 45.161853955324105 95.78363445811425 A 22.78174593052023 22.78174593052023 0 1 1 64.2049957307402 58.24215439748277"/>
<path class="round" d="M 64.2049957307402 58.24215439748272 A 22.78174593052023 22.78174593052023 0 1 1 104.2163655418858 45.16185395532411"/>
</svg>