<svg viewBox="0 0 200 200" xmlns="http://www.w3.org/2000/svg">
  <defs>
    <style>
      line {
        stroke: currentColor;
        stroke-width: 1.5;
        stroke-linecap: round;
      }
    </style>
  </defs>

  <line x1="100" y1="100" x2="199.69411272936867"   y2="92.18438184761257" />
<line x1="100" y1="100" x2="199.84631077553797"   y2="105.54204154754282" />
<line x1="100" y1="100" x2="198.21674904051474"   y2="118.80080338476375" />
<line x1="100" y1="100" x2="194.83450709206556"   y2="131.7240644401843" />
<line x1="100" y1="100" x2="189.7599411178873"   y2="144.08120881411267" />
<line x1="100" y1="100" x2="183.08360686800785"   y2="155.65172297245002" />
<line x1="100" y1="100" x2="174.92464368528158"   y2="166.22913081593018" />
<line x1="100" y1="100" x2="165.42864846099383"   y2="175.62467825100276" />
<line x1="100" y1="100" x2="154.76507745488598"   y2="183.67070151110448" />
<line x1="100" y1="100" x2="143.1242223441871"   y2="190.22361912054467" />
<line x1="100" y1="100" x2="130.71381446412434"   y2="195.16649410934158" />
<line x1="100" y1="100" x2="117.7553178373255"   y2="198.41112075622118" />
<line x1="100" y1="100" x2="104.4799771430883"   y2="199.8995986218033" />
<line x1="100" y1="100" x2="91.12469115060006"   y2="199.6053657833139" />
<line x1="100" y1="100" x2="77.92778525478924"   y2="197.53367283272635" />
<line x1="100" y1="100" x2="65.12475855400737"   y2="193.7214891798232" />
<line x1="100" y1="100" x2="52.94408136303902"   y2="188.23684333220285" />
<line x1="100" y1="100" x2="41.60311815492249"   y2="181.1776089249496" />
<line x1="100" y1="100" x2="31.304248686779218"   y2="172.6697581632974" />
<line x1="100" y1="100" x2="22.23125652825304"   y2="162.86511384564267" />
<line x1="100" y1="100" x2="14.546049439355912"   y2="151.9386400821103" />
<line x1="100" y1="100" x2="8.38577012265506"   y2="140.08532005586332" />
<line x1="100" y1="100" x2="3.8603489084968885"   y2="127.51667654358073" />
<line x1="100" y1="100" x2="1.0505420456571812"   y2="114.45699728649561" />
<line x1="100" y1="100" x2="0.006490604168902792"   y2="101.13933257034053" />
<line x1="100" y1="100" x2="0.7468257067394575"   y2="87.80133643747625" />
<line x1="100" y1="100" x2="3.2583360559245733"   y2="74.68102574487709" />
<line x1="100" y1="100" x2="7.496203690044339"   y2="62.012532747678065" />
<line x1="100" y1="100" x2="13.384803760770794"   y2="50.02192700353669" />
<line x1="100" y1="100" x2="20.819054060338487"   y2="38.92318115601958" />
<line x1="100" y1="100" x2="29.66629021603076"   y2="28.91435258771014" />
<line x1="100" y1="100" x2="39.76863308905462"   y2="20.174049081523165" />
<line x1="100" y1="100" x2="50.94580613151173"   y2="12.858241560588368" />
<line x1="100" y1="100" x2="62.99835242566742"   y2="7.09748078343145" />
<line x1="100" y1="100" x2="75.71119399737255"   y2="2.9945676625956708" />
<line x1="100" y1="100" x2="88.85746988760707"   y2="0.6227187799222662" />
<line x1="100" y1="100" x2="102.2025844916685"   y2="0.024259834912641054" />
<line x1="100" y1="100" x2="115.50839392329591"   y2="1.2098703416182417" />
<line x1="100" y1="100" x2="128.53745569796146"   y2="4.1583930524592745" />
<line x1="100" y1="100" x2="141.05726589963214"   y2="8.817211509809027" />
<line x1="100" y1="100" x2="152.84440821865923"   y2="15.103188987926629" />
<line x1="100" y1="100" x2="163.68854082111687"   y2="22.904152069797377" />
<line x1="100" y1="100" x2="173.39614990381233"   y2="32.080892384417254" />
<line x1="100" y1="100" x2="181.79400295268704"   y2="42.469650783470605" />
<line x1="100" y1="100" x2="188.73224008113525"   y2="53.885039627212336" />
<line x1="100" y1="100" x2="194.0870482832297"   y2="66.12335103129001" />
<line x1="100" y1="100" x2="197.7628708797464"   y2="78.96619203876702" />
</svg>