<svg viewBox="0 0 200 200" xmlns="http://www.w3.org/2000/svg">
  <defs>
    <style>
      line, circle {
        stroke: currentColor;
        stroke-width: 1.5;
        stroke-linecap: round;
      }
    </style>
  </defs>
  
  <path d="M 100 100 L 113.13704424765982 199.1333347993248 L 65.56271718514407 193.88329751521104 z" fill="rgba(0, 128, 0, 0.25)" stroke="none"/>
  <path d="M 100 100 L 65.56271718514407 193.88329751521104 L 25.87755660126436 167.1257281867484 z" fill="rgba(0, 128, 0, 0.16666667)" stroke="none"/>
  <path d="M 100 100 L 25.87755660126436 167.1257281867484 L 3.172954527757014 124.9904634834208 z" fill="rgba(0, 128, 0, 0.08333333)" stroke="none"/>
  <path d="M 100 100 L 3.172954527757014 124.9904634834208 L 2.6502616795458067 77.13018476377451 z" fill="rgba(0, 128, 0, 0)" stroke="none"/>
  <path d="M 100 100 L 2.6502616795458067 77.13018476377451 L 24.42922068902429 34.50910510359623 z" fill="rgba(0, 128, 0, 1.0)" stroke="none"/>
  <path d="M 100 100 L 24.42922068902429 34.50910510359623 L 63.52053451202948 6.891200213341989  z" fill="rgba(0, 128, 0, 0.91666667)" stroke="none"/>
  <path d="M 100 100 L 63.52053451202948 6.891200213341989 L 110.96885425311203 0.6033992715345136 z" fill="rgba(0, 128, 0, 0.83333333)" stroke="none"/>
  <path d="M 100 100 L 110.96885425311203 0.6033992715345136 L 155.9043416738303 17.08616169772597 z" fill="rgba(0, 128, 0, 0.75)" stroke="none"/>
  <path d="M 100 100 L 155.9043416738303 17.08616169772597 L 188.03281813742575 52.56348525889656 z" fill="rgba(0, 128, 0, 0.66666667)" stroke="none"/>
  <path d="M 100 100 L 188.03281813742575 52.56348525889656 L 199.99403687620338 98.90794267527949 z" fill="rgba(0, 128, 0, 0.58333333)" stroke="none"/>
  <path d="M 100 100 L 199.99403687620338 98.90794267527949 L 189.0478268254214 145.5025772640381 z" fill="rgba(0, 128, 0, 0.5)" stroke="none"/>
  <path d="M 100 100 L 189.0478268254214 145.5025772640381 L 157.70183279158238 181.67311976710738 z" fill="rgba(0, 128, 0, 0.41666667)" stroke="none"/>
  <path d="M 100 100 L 157.70183279158238 181.67311976710738 L 113.1370442476597 199.13333479932484 z" fill="rgba(0, 128, 0, 0.33333333)" stroke="none"/>

  <line x1="100" y1="100" x2="113.13704424765982"   y2="199.1333347993248" />
<line x1="113.13704424765982" y1="199.1333347993248" x2="65.56271718514407"   y2="193.88329751521104" />
<line x1="100" y1="100" x2="65.56271718514407"   y2="193.88329751521104" />
<line x1="65.56271718514407" y1="193.88329751521104" x2="25.87755660126436"   y2="167.1257281867484" />
<line x1="100" y1="100" x2="25.87755660126436"   y2="167.1257281867484" />
<line x1="25.87755660126436" y1="167.1257281867484" x2="3.172954527757014"   y2="124.9904634834208" />
<line x1="100" y1="100" x2="3.172954527757014"   y2="124.9904634834208" />
<line x1="3.172954527757014" y1="124.9904634834208" x2="2.6502616795458067"   y2="77.13018476377451" />
<line x1="100" y1="100" x2="2.6502616795458067"   y2="77.13018476377451" />
<line x1="2.6502616795458067" y1="77.13018476377451" x2="24.42922068902429"   y2="34.50910510359623" />
<line x1="100" y1="100" x2="24.42922068902429"   y2="34.50910510359623" />
<line x1="24.42922068902429" y1="34.50910510359623" x2="63.52053451202948"   y2="6.891200213341989" />
<line x1="100" y1="100" x2="63.52053451202948"   y2="6.891200213341989" />
<line x1="63.52053451202948" y1="6.891200213341989" x2="110.96885425311203"   y2="0.6033992715345136" />
<line x1="100" y1="100" x2="110.96885425311203"   y2="0.6033992715345136" />
<line x1="110.96885425311203" y1="0.6033992715345136" x2="155.9043416738303"   y2="17.08616169772597" />
<line x1="100" y1="100" x2="155.9043416738303"   y2="17.08616169772597" />
<line x1="155.9043416738303" y1="17.08616169772597" x2="188.03281813742575"   y2="52.56348525889656" />
<line x1="100" y1="100" x2="188.03281813742575"   y2="52.56348525889656" />
<line x1="188.03281813742575" y1="52.56348525889656" x2="199.99403687620338"   y2="98.90794267527949" />
<line x1="100" y1="100" x2="199.99403687620338"   y2="98.90794267527949" />
<line x1="199.99403687620338" y1="98.90794267527949" x2="189.0478268254214"   y2="145.5025772640381" />
<line x1="100" y1="100" x2="189.0478268254214"   y2="145.5025772640381" />
<line x1="189.0478268254214" y1="145.5025772640381" x2="157.70183279158238"   y2="181.67311976710738" />
<line x1="100" y1="100" x2="157.70183279158238"   y2="181.67311976710738" />
<line x1="157.70183279158238" y1="181.67311976710738" x2="113.1370442476597"   y2="199.13333479932484" />
</svg>