<svg viewBox="0 0 200 200" xmlns="http://www.w3.org/2000/svg">
  <defs>
    <style>
      line {
        stroke: currentColor;
        stroke-width: 1.5;
        stroke-linecap: round;
      }
    </style>
  </defs>

  <line x1="100" y1="100" x2="4.416849866598611"   y2="70.60848063512796" />
<line x1="4.416849866598611" y1="70.60848063512796" x2="10.1914836644482"   y2="56.01784005296096" />
<line x1="100" y1="100" x2="10.1914836644482"   y2="56.01784005296096" />
<line x1="10.1914836644482" y1="56.01784005296096" x2="18.177501191856436"   y2="42.5101862171102" />
<line x1="100" y1="100" x2="18.177501191856436"   y2="42.5101862171102" />
<line x1="18.177501191856436" y1="42.5101862171102" x2="28.17826019322591"   y2="30.418122394347222" />
<line x1="100" y1="100" x2="28.17826019322591"   y2="30.418122394347222" />
<line x1="28.17826019322591" y1="30.418122394347222" x2="39.94750879132663"   y2="20.039395327247504" />
<line x1="100" y1="100" x2="39.94750879132663"   y2="20.039395327247504" />
<line x1="39.94750879132663" y1="20.039395327247504" x2="53.195449025776796"   y2="11.62956372122325" />
<line x1="100" y1="100" x2="53.195449025776796"   y2="11.62956372122325" />
<line x1="53.195449025776796" y1="11.62956372122325" x2="67.5958726406111"   y2="5.395705541045842" />
<line x1="100" y1="100" x2="67.5958726406111"   y2="5.395705541045842" />
<line x1="67.5958726406111" y1="5.395705541045842" x2="82.79419341416676"   y2="1.4913190641002672" />
<line x1="100" y1="100" x2="82.79419341416676"   y2="1.4913190641002672" />
<line x1="82.79419341416676" y1="1.4913190641002672" x2="98.41617824866364"   y2="0.012543243364802947" />
<line x1="100" y1="100" x2="98.41617824866364"   y2="0.012543243364802947" />
<line x1="98.41617824866364" y1="0.012543243364802947" x2="114.07716203108164"   y2="0.9957904473215251" />
<line x1="100" y1="100" x2="114.07716203108164"   y2="0.9957904473215251" />
<line x1="114.07716203108164" y1="0.9957904473215251" x2="129.39151936487198"   y2="4.416849866598582" />
<line x1="100" y1="100" x2="129.39151936487198"   y2="4.416849866598582" />
<line x1="129.39151936487198" y1="4.416849866598582" x2="143.982159947039"   y2="10.191483664448171" />
<line x1="100" y1="100" x2="143.982159947039"   y2="10.191483664448171" />
<line x1="143.982159947039" y1="10.191483664448171" x2="157.48981378288977"   y2="18.17750119185642" />
<line x1="100" y1="100" x2="157.48981378288977"   y2="18.17750119185642" />
<line x1="157.48981378288977" y1="18.17750119185642" x2="169.58187760565278"   y2="28.17826019322594" />
<line x1="100" y1="100" x2="169.58187760565278"   y2="28.17826019322594" />
<line x1="169.58187760565278" y1="28.17826019322594" x2="179.96060467275248"   y2="39.94750879132663" />
<line x1="100" y1="100" x2="179.96060467275248"   y2="39.94750879132663" />
<line x1="179.96060467275248" y1="39.94750879132663" x2="188.37043627877674"   y2="53.19544902577679" />
<line x1="100" y1="100" x2="188.37043627877674"   y2="53.19544902577679" />
<line x1="188.37043627877674" y1="53.19544902577679" x2="194.60429445895414"   y2="67.5958726406111" />
<line x1="100" y1="100" x2="194.60429445895414"   y2="67.5958726406111" />
<line x1="194.60429445895414" y1="67.5958726406111" x2="198.50868093589975"   y2="82.79419341416674" />
<line x1="100" y1="100" x2="198.50868093589975"   y2="82.79419341416674" />
<line x1="198.50868093589975" y1="82.79419341416674" x2="199.9874567566352"   y2="98.41617824866364" />
<line x1="100" y1="100" x2="199.9874567566352"   y2="98.41617824866364" />
<line x1="199.9874567566352" y1="98.41617824866364" x2="199.00420955267847"   y2="114.07716203108163" />
<line x1="100" y1="100" x2="199.00420955267847"   y2="114.07716203108163" />
<line x1="199.00420955267847" y1="114.07716203108163" x2="195.58315013340143"   y2="129.39151936487198" />
<line x1="100" y1="100" x2="195.58315013340143"   y2="129.39151936487198" />
<line x1="195.58315013340143" y1="129.39151936487198" x2="189.8085163355518"   y2="143.98215994703907" />
<line x1="100" y1="100" x2="189.8085163355518"   y2="143.98215994703907" />
<line x1="189.8085163355518" y1="143.98215994703907" x2="181.8224988081436"   y2="157.48981378288977" />
<line x1="100" y1="100" x2="181.8224988081436"   y2="157.48981378288977" />
<line x1="181.8224988081436" y1="157.48981378288977" x2="171.82173980677408"   y2="169.58187760565278" />
<line x1="100" y1="100" x2="171.82173980677408"   y2="169.58187760565278" />
<line x1="171.82173980677408" y1="169.58187760565278" x2="160.05249120867336"   y2="179.96060467275248" />
<line x1="100" y1="100" x2="160.05249120867336"   y2="179.96060467275248" />
<line x1="160.05249120867336" y1="179.96060467275248" x2="146.80455097422322"   y2="188.37043627877674" />
<line x1="100" y1="100" x2="146.80455097422322"   y2="188.37043627877674" />
<line x1="146.80455097422322" y1="188.37043627877674" x2="132.4041273593889"   y2="194.60429445895414" />
<line x1="100" y1="100" x2="132.4041273593889"   y2="194.60429445895414" />
<line x1="132.4041273593889" y1="194.60429445895414" x2="117.20580658583326"   y2="198.50868093589975" />
<line x1="100" y1="100" x2="117.20580658583326"   y2="198.50868093589975" />
<line x1="117.20580658583326" y1="198.50868093589975" x2="101.58382175133637"   y2="199.9874567566352" />
<line x1="100" y1="100" x2="101.58382175133637"   y2="199.9874567566352" />
<line x1="101.58382175133637" y1="199.9874567566352" x2="85.92283796891837"   y2="199.0042095526785" />
<line x1="100" y1="100" x2="85.92283796891837"   y2="199.0042095526785" />
<line x1="85.92283796891837" y1="199.0042095526785" x2="70.60848063512802"   y2="195.58315013340143" />
<line x1="100" y1="100" x2="70.60848063512802"   y2="195.58315013340143" />
<line x1="70.60848063512802" y1="195.58315013340143" x2="56.017840052960935"   y2="189.8085163355518" />
<line x1="100" y1="100" x2="56.017840052960935"   y2="189.8085163355518" />
<line x1="56.017840052960935" y1="189.8085163355518" x2="42.510186217110245"   y2="181.8224988081436" />
<line x1="100" y1="100" x2="42.510186217110245"   y2="181.8224988081436" />
<line x1="42.510186217110245" y1="181.8224988081436" x2="30.418122394347208"   y2="171.82173980677408" />
<line x1="100" y1="100" x2="30.418122394347208"   y2="171.82173980677408" />
<line x1="30.418122394347208" y1="171.82173980677408" x2="20.03939532724752"   y2="160.0524912086734" />
<line x1="100" y1="100" x2="20.03939532724752"   y2="160.0524912086734" />
<line x1="20.03939532724752" y1="160.0524912086734" x2="11.629563721223263"   y2="146.80455097422322" />
<line x1="100" y1="100" x2="11.629563721223263"   y2="146.80455097422322" />
<line x1="11.629563721223263" y1="146.80455097422322" x2="5.395705541045842"   y2="132.4041273593889" />
<line x1="100" y1="100" x2="5.395705541045842"   y2="132.4041273593889" />
<line x1="5.395705541045842" y1="132.4041273593889" x2="1.4913190641002672"   y2="117.20580658583327" />
<line x1="100" y1="100" x2="1.4913190641002672"   y2="117.20580658583327" />
<line x1="1.4913190641002672" y1="117.20580658583327" x2="0.012543243364802947"   y2="101.58382175133637" />
<line x1="100" y1="100" x2="0.012543243364802947"   y2="101.58382175133637" />
<line x1="0.012543243364802947" y1="101.58382175133637" x2="0.9957904473215109"   y2="85.92283796891837" />
<line x1="100" y1="100" x2="0.9957904473215109"   y2="85.92283796891837" />
<line x1="0.9957904473215109" y1="85.92283796891837" x2="4.416849866598582"   y2="70.60848063512803" />
</svg>