<svg xmlns="http://www.w3.org/2000/svg" viewBox="0 0 600 280">
  <g transform="scale(0.09) translate(-1000 -1600)" id="g12">
    <defs>
      <style>
        .green {
          fill: #6fbd3f;
          stroke: #286500;
          stroke-width: 30;
        }

        .yellow {
          fill: #e2b22c;
          stroke: #775900;
          stroke-width: 22.22220039;
        }

        .arrow {
          stroke: #000000;
          stroke-width: 20;
          stroke-linecap: round;
        }

        .arrowhead {
          fill: #000000;
        }
      </style>
    </defs>

    <path class="green" d="m 1878.03,3375.04 h 446.93 c 33.14,0 60,-26.86 60,-60 v -446.93 c 0,-33.14 -26.86,-60 -60,-60 h -446.93 c -33.14,0 -60,26.86 -60,60 v 446.93 c 0,33.14 26.86,60 60,60 z" />
    <path class="yellow" d="m 3077.32,3294.05 h 316.06 c 24.55,0 44.45,-19.9 44.45,-44.44 v -316.07 c 0,-24.54 -19.9,-44.44 -44.45,-44.44 h -316.06 c -24.54,0 -44.44,19.9 -44.44,44.44 v 316.07 c 0,24.54 19.9,44.44 44.44,44.44 z" />
    <path class="arrow" d="M 2951.89,3091.57 H 2627.35" />
    <path class="arrowhead" d="m 2531.35,3091.57 96,-36 v 72 z" />
    <path class="arrow" d="m 2531.35,3091.57 96,-36 v 72 z" />
    <path class="green" d="m 3011.89,4367.16 h 446.93 c 33.14,0 60,-26.86 60,-60 v -446.92 c 0,-33.14 -26.86,-60 -60,-60 h -446.93 c -33.14,0 -60,26.86 -60,60 v 446.92 c 0,33.14 26.86,60 60,60 z" />
    <path class="arrow" d="M 2839.29,3737.14 2594.65,3523.08" />
    <path class="arrowhead" d="m 2522.4,3459.87 95.95,36.12 -47.41,54.19 z" />
    <path class="arrow" d="m 2522.4,3459.87 95.95,36.12 -47.41,54.19 z" />
    <path class="yellow" d="m 4209.59,4286.18 h 319.24 c 23.67,0 42.86,-19.19 42.86,-42.86 v -319.24 c 0,-23.67 -19.19,-42.85 -42.86,-42.85 h -319.24 c -23.66,0 -42.85,19.18 -42.85,42.85 v 319.24 c 0,23.67 19.19,42.86 42.85,42.86 z" />
    <path class="arrow" d="m 3632.2,4083.7 h 324.55" />
    <path class="arrowhead" d="m 4052.75,4083.7 -96,36 v -72 z" />
    <path class="arrow" d="m 4052.75,4083.7 -96,36 v -72 z" />
    <path class="green" d="m 5279.61,3375.04 h 446.93 c 33.13,0 60,-26.86 60,-60 v -446.93 c 0,-33.14 -26.87,-60 -60,-60 h -446.93 c -33.14,0 -60,26.86 -60,60 v 446.93 c 0,33.14 26.86,60 60,60 z" />
    <path class="yellow" d="m 4209.59,3294.05 h 319.24 c 23.67,0 42.86,-19.19 42.86,-42.86 v -319.23 c 0,-23.67 -19.19,-42.86 -42.86,-42.86 h -319.24 c -23.66,0 -42.85,19.19 -42.85,42.86 v 319.23 c 0,23.67 19.19,42.86 42.85,42.86 z" />
    <path class="arrow" d="M 4085.75,3091.57 H 3647.82" />
    <path class="arrowhead" d="m 3551.82,3091.57 96,-36 v 72 z" />
    <path class="arrow" d="m 3551.82,3091.57 96,-36 v 72 z" />
    <path class="arrow" d="m 4652.68,3091.57 h 324.54" />
    <path class="arrowhead" d="m 5073.22,3091.57 -96,36 v -72 z" />
    <path class="arrow" d="m 5073.22,3091.57 -96,36 v -72 z" />
    <path class="yellow" d="m 3079.55,2301.92 h 311.61 c 25.78,0 46.67,-20.89 46.67,-46.66 v -311.62 c 0,-25.77 -20.89,-46.67 -46.67,-46.67 h -311.61 c -25.78,0 -46.67,20.9 -46.67,46.67 v 311.62 c 0,25.77 20.89,46.66 46.67,46.66 z" />
    <path class="arrow" d="m 2497.57,2745.02 358.37,-313.58" />
    <path class="arrowhead" d="m 2928.18,2368.22 -48.54,90.31 -47.41,-54.18 z" />
    <path class="arrow" d="m 2928.18,2368.22 -48.54,90.31 -47.41,-54.18 z" />
    <path class="yellow" d="m 4213.41,2301.92 h 311.61 c 25.77,0 46.67,-20.89 46.67,-46.66 v -311.62 c 0,-25.77 -20.9,-46.67 -46.67,-46.67 h -311.61 c -25.78,0 -46.67,20.9 -46.67,46.67 v 311.62 c 0,25.77 20.89,46.66 46.67,46.66 z" />
    <path class="arrow" d="m 3518.82,2099.45 h 437.93" />
    <path class="arrowhead" d="m 4052.75,2099.45 -96,36 v -72 z" />
    <path class="arrow" d="m 4052.75,2099.45 -96,36 v -72 z" />
    <path class="yellow" d="m 5347.26,2301.92 h 311.62 c 25.77,0 46.67,-20.89 46.67,-46.66 v -311.62 c 0,-25.77 -20.9,-46.67 -46.67,-46.67 h -311.62 c -25.77,0 -46.66,20.9 -46.66,46.67 v 311.62 c 0,25.77 20.89,46.66 46.66,46.66 z" />
    <path class="green" d="m 6413.46,2382.91 h 446.93 c 33.14,0 60,-26.86 60,-60 v -446.93 c 0,-33.13 -26.86,-60 -60,-60 h -446.93 c -33.13,0 -60,26.87 -60,60 v 446.93 c 0,33.14 26.87,60 60,60 z" />
    <path class="arrow" d="m 4652.68,2099.45 h 437.93" />
    <path class="arrowhead" d="m 5186.61,2099.45 -96,36 v -72 z" />
    <path class="arrow" d="m 5186.61,2099.45 -96,36 v -72 z" />
    <path class="arrow" d="M 5107,2745.02 4748.63,2431.44" />
    <path class="arrowhead" d="m 4676.38,2368.22 95.96,36.13 -47.41,54.18 z" />
    <path class="arrow" d="m 4676.38,2368.22 95.96,36.13 -47.41,54.18 z" />
    <path class="arrow" d="m 5786.54,2099.45 h 324.54" />
    <path class="arrowhead" d="m 6207.08,2099.45 -96,36 v -72 z" />
    <path class="arrow" d="m 6207.08,2099.45 -96,36 v -72 z" />
  </g>
</svg>