<?xml version="1.0"?>
<svg xmlns="http://www.w3.org/2000/svg" xmlns:xlink="http://www.w3.org/1999/xlink" version="1.1" viewBox="0 0 256 128" width="1000px" height="500px">

  <!--
    Intentionally omit the alt text on promos, so screen reader users
    don't have to listen to the alt text before hearing the title
    of the item in the list.

    See https://github.com/wellcomecollection/wellcomecollection.org/issues/6007
  -->
  <title></title>

  <svg x="64">
    <g>
      <path d="M124.2,9.6H3.8c-1.7,0-3.1,1.4-3.1,3.1v102.4c0,1.8,1.4,3.3,3.1,3.3h120.5c1.7,0,3.1-1.5,3.1-3.3V12.7   C127.3,11,125.9,9.6,124.2,9.6z M111.1,18.3c2.7,0,4.9,2.2,4.9,4.9c0,2.7-2.2,4.9-4.9,4.9c-2.7,0-4.9-2.2-4.9-4.9   C106.2,20.5,108.4,18.3,111.1,18.3z M92.8,18.3c2.7,0,4.9,2.2,4.9,4.9c0,2.7-2.2,4.9-4.9,4.9c-2.7,0-4.9-2.2-4.9-4.9   C87.9,20.5,90.1,18.3,92.8,18.3z M74.5,18.3c2.7,0,4.9,2.2,4.9,4.9c0,2.7-2.2,4.9-4.9,4.9c-2.7,0-4.9-2.2-4.9-4.9   C69.6,20.5,71.8,18.3,74.5,18.3z M11.9,20.1H61v6.2H11.9V20.1z M121.1,112.2H6.9V36.8h114.3V112.2z" fill="#d01c11"/>
      <path d="M43,107.3h42c1.7,0,3.1-1.4,3.1-3.1V74.5c0-1.7-1.4-3.1-3.1-3.1h-2.4v-11c0-10.2-8.3-18.6-18.6-18.6s-18.6,8.3-18.6,18.6   v11H43c-1.7,0-3.1,1.4-3.1,3.1v29.6C39.9,105.9,41.3,107.3,43,107.3z M66.5,89.3v4.1c0,1.4-1.1,2.5-2.5,2.5c-1.4,0-2.5-1.1-2.5-2.5   v-4.1c-0.7-0.7-1.2-1.6-1.2-2.7c0-2,1.6-3.7,3.7-3.7s3.7,1.6,3.7,3.7C67.7,87.6,67.2,88.6,66.5,89.3z M51.6,60.4   C51.6,53.6,57.2,48,64,48c6.8,0,12.4,5.6,12.4,12.4v11H51.6V60.4z" fill="#d01c11"/>
    </g>
  </svg>
</svg>
