<?xml version="1.0" encoding="UTF-8" standalone="no"?>
<!-- Generator: Adobe Illustrator 12.0.0, SVG Export Plug-In . SVG Version: 6.00 Build 51448)  -->

<svg
   xmlns:dc="http://purl.org/dc/elements/1.1/"
   xmlns:cc="http://creativecommons.org/ns#"
   xmlns:rdf="http://www.w3.org/1999/02/22-rdf-syntax-ns#"
   xmlns:svg="http://www.w3.org/2000/svg"
   xmlns="http://www.w3.org/2000/svg"
   xmlns:sodipodi="http://sodipodi.sourceforge.net/DTD/sodipodi-0.dtd"
   xmlns:inkscape="http://www.inkscape.org/namespaces/inkscape"
   version="1.1"
   id="Layer_1"
   width="500"
   height="550"
   viewBox="0 0 500.00001 549.99998"
   overflow="visible"
   enable-background="new 0 0 499.524 554.546"
   xml:space="preserve"
   inkscape:version="0.48.1 "
   sodipodi:docname="20111009182803!Apple_Computer_Logo_rainbow.svg"
   style="overflow:visible"><metadata
   id="metadata25"><rdf:RDF><cc:Work
       rdf:about=""><dc:format>image/svg+xml</dc:format><dc:type
         rdf:resource="http://purl.org/dc/dcmitype/StillImage" /></cc:Work></rdf:RDF></metadata><defs
   id="defs23" /><sodipodi:namedview
   pagecolor="#ffffff"
   bordercolor="#666666"
   borderopacity="1"
   objecttolerance="10"
   gridtolerance="10"
   guidetolerance="10"
   inkscape:pageopacity="0"
   inkscape:pageshadow="2"
   inkscape:window-width="1280"
   inkscape:window-height="738"
   id="namedview21"
   showgrid="false"
   showguides="true"
   inkscape:guide-bbox="true"
   inkscape:zoom="0.93590068"
   inkscape:cx="249.76199"
   inkscape:cy="277.27301"
   inkscape:window-x="-8"
   inkscape:window-y="-8"
   inkscape:window-maximized="1"
   inkscape:current-layer="Layer_1" />
<g
   id="g3"
   transform="matrix(0.9869271,0,0,0.99106002,3.5008005,0.90716963)">
	
		<path
   clip-rule="evenodd"
   stroke-miterlimit="2.6131"
   d="m 25.824,200.612 c 0.166,-0.273 0.342,-0.542 0.518,-0.806 28.447,-43.799 73.32,-69.434 115.518,-69.434 42.969,0 69.98,23.555 105.498,23.555 34.463,0 55.454,-23.589 105.132,-23.589 37.534,0 77.329,20.439 105.674,55.781 -7.837,4.292 -14.907,9.165 -21.226,14.521 l -411.114,-0.028 0,0 z"
   id="path5"
   inkscape:connector-curvature="0"
   style="fill:#61bb46;fill-rule:evenodd;stroke:#61bb46;stroke-width:2.9849;stroke-miterlimit:2.61310005" />
	
		<path
   clip-rule="evenodd"
   stroke-miterlimit="2.6131"
   d="M 314.808,90.875 C 332.84,67.716 346.556,35.016 341.585,1.583 312.103,3.604 277.62,22.374 257.479,46.808 c -18.276,22.197 -33.364,55.117 -27.49,87.095 32.187,1.001 65.483,-18.218 84.819,-43.028 l 0,0 z"
   id="path7"
   inkscape:connector-curvature="0"
   style="fill:#61bb46;fill-rule:evenodd;stroke:#61bb46;stroke-width:2.9849;stroke-miterlimit:2.61310005" />
	
		<path
   clip-rule="evenodd"
   stroke-miterlimit="2.6131"
   d="M 24.356544,199.96661 C 12.105918,219.15949 3.6294315,246.66842 1.38,270.79701 l 397.43701,-0.0102 c 4.29717,-26.39752 18.58564,-51.61732 41.233,-70.79103 l -415.693466,-0.0292 0.02346,0 z"
   id="path9"
   style="fill:#fdb827;fill-rule:evenodd;stroke:none"
   inkscape:connector-curvature="0"
   sodipodi:nodetypes="ccccccc" />
	
		<path
   clip-rule="evenodd"
   stroke-miterlimit="2.6131"
   d="M 4.989,340.998 C 1.127,316.354 0.502,292.595 2.928,270.798 l 394.341,-0.01 c -3.857,23.638 -0.62,48.237 9.136,70.225 l -401.416,-0.015 0,0 z"
   id="path11"
   inkscape:connector-curvature="0"
   style="fill:#f5821f;fill-rule:evenodd;stroke:#f5821f;stroke-width:2.9849;stroke-miterlimit:2.61310005" />
	
		<path
   clip-rule="evenodd"
   stroke-miterlimit="2.6131"
   d="M 24.261,411.193 C 14.949,387.609 8.573,363.922 4.989,340.998 l 401.416,0.015 c 12.427,28.018 35.425,51.821 67.808,64.053 -0.962,2.139 -1.89,4.185 -2.783,6.157 l -447.169,-0.03 0,0 z"
   id="path13"
   inkscape:connector-curvature="0"
   style="fill:#e03a3e;fill-rule:evenodd;stroke:#e03a3e;stroke-width:2.9849;stroke-miterlimit:2.61310005" />
	
		<path
   clip-rule="evenodd"
   stroke-miterlimit="2.6131"
   d="m 471.429,411.222 c -11.118,24.443 -17.563,37.129 -32.949,60.547 -2.07,3.145 -4.209,6.362 -6.436,9.609 L 61.517,481.412 C 60.33,479.644 59.154,477.877 57.996,476.124 44.143,455.025 32.928,433.15 24.261,411.192 l 447.168,0.03 0,0 z"
   id="path15"
   inkscape:connector-curvature="0"
   style="fill:#963d97;fill-rule:evenodd;stroke:#963d97;stroke-width:2.9849;stroke-miterlimit:2.61310005" />
	<path
   stroke-miterlimit="2.6131"
   d="m 472.972,550.7778 c 13.589,0 24.604,-11.016 24.604,-24.595 0,-13.589 -11.016,-24.6 -24.604,-24.6 -13.588,0 -24.604,11.011 -24.604,24.6 0,13.579 11.015,24.595 24.604,24.595 m -6.992,-9.648 v -27.485 h 11.011 m 6.645,27.182 -6.553,-13.892 m -11.054,-0.244 h 11.006 m -0.01,-0.034 c 2.734,0 5.503,-2.891 5.503,-6.46 0,-3.799 -2.886,-6.553 -5.537,-6.553"
   id="path17"
   inkscape:connector-curvature="0"
   style="fill:none;stroke:#000000;stroke-width:3.89479995;stroke-miterlimit:2.61310005" />
	
		<path
   clip-rule="evenodd"
   stroke-miterlimit="2.6131"
   d="m 432.044,481.378 c -22.666,33.203 -53.096,69.741 -90.02,70.088 -36.03,0.327 -45.273,-23.447 -94.155,-23.179 -48.882,0.273 -59.087,23.594 -95.117,23.257 -38.521,-0.356 -68.433,-36.24 -91.235,-70.132 l 370.527,-0.034 0,0 z"
   id="path19"
   inkscape:connector-curvature="0"
   style="fill:#009ddc;fill-rule:evenodd;stroke:#009ddc;stroke-width:2.9849;stroke-miterlimit:2.61310005" />
</g>
</svg>