<?xml version="1.0"?>
<svg xmlns="http://www.w3.org/2000/svg" viewBox="0 0 1000, 500" width="1000px" height="500px">
  <!--
    Intentionally omit the alt text on promos, so screen reader users
    don't have to listen to the alt text before hearing the title
    of the item in the list.

    See https://github.com/wellcomecollection/wellcomecollection.org/issues/6007
  -->
  <title></title>

  <rect width="1000" height="500" fill="black"/>

  <g transform="translate(299 450)">
    <polygon points="0.000000,-0.000000 350.000000,-0.000000 295.000000,-95.262794 285.000000,-95.262794 335.000000,-8.660254 15.000000,-8.660254 65.000000,-95.262794 55.000000,-95.262794" fill="#3e9b44"/>
    <polygon points="90.000000,-155.884573 100.000000,-155.884573 175.000000,-285.788383 250.000000,-155.884573 260.000000,-155.884573 175.000000,-303.108891" fill="#3e9b44"/>
    <polygon points="15.000000,-8.660254 335.000000,-8.660254 285.000000,-95.262794 275.000000,-95.262794 320.000000,-17.320508 30.000000,-17.320508 75.000000,-95.262794 65.000000,-95.262794" fill="#9abe72"/>
    <polygon points="100.000000,-155.884573 110.000000,-155.884573 175.000000,-268.467875 240.000000,-155.884573 250.000000,-155.884573 175.000000,-285.788383" fill="#9abe72"/>
    <polygon points="30.000000,-17.320508 320.000000,-17.320508 275.000000,-95.262794 265.000000,-95.262794 305.000000,-25.980762 45.000000,-25.980762 85.000000,-95.262794 75.000000,-95.262794" fill="#dfdfdf"/>
    <polygon points="110.000000,-155.884573 120.000000,-155.884573 175.000000,-251.147367 230.000000,-155.884573 240.000000,-155.884573 175.000000,-268.467875" fill="#dfdfdf"/>
    <polygon points="45.000000,-25.980762 305.000000,-25.980762 265.000000,-95.262794 255.000000,-95.262794 290.000000,-34.641016 60.000000,-34.641016 95.000000,-95.262794 85.000000,-95.262794" fill="#9b9b9b"/>
    <polygon points="120.000000,-155.884573 130.000000,-155.884573 175.000000,-233.826859 220.000000,-155.884573 230.000000,-155.884573 175.000000,-251.147367" fill="#9b9b9b"/>
    <polygon points="60.000000,-34.641016 290.000000,-34.641016 255.000000,-95.262794 245.000000,-95.262794 275.000000,-43.301270 75.000000,-43.301270 105.000000,-95.262794 95.000000,-95.262794" fill="#141414"/>
    <polygon points="130.000000,-155.884573 140.000000,-155.884573 175.000000,-216.506351 210.000000,-155.884573 220.000000,-155.884573 175.000000,-233.826859" fill="#141414"/>
    <g transform="rotate(120 205.000000,-152.997821)">
      <polygon points="0.000000,-0.000000 350.000000,-0.000000 295.000000,-95.262794 282.500000,-95.262794 331.250000,-10.825318 18.750000,-10.825318 67.500000,-95.262794 55.000000,-95.262794" fill="#e2d938"/>
      <polygon points="90.000000,-155.884573 102.500000,-155.884573 175.000000,-281.458256 247.500000,-155.884573 260.000000,-155.884573 175.000000,-303.108891" fill="#e2d938"/>
      <polygon points="18.750000,-10.825318 331.250000,-10.825318 282.500000,-95.262794 270.000000,-95.262794 312.500000,-21.650635 37.500000,-21.650635 80.000000,-95.262794 67.500000,-95.262794" fill="#dfdfdf"/>
      <polygon points="102.500000,-155.884573 115.000000,-155.884573 175.000000,-259.807621 235.000000,-155.884573 247.500000,-155.884573 175.000000,-281.458256" fill="#dfdfdf"/>
      <polygon points="37.500000,-21.650635 312.500000,-21.650635 270.000000,-95.262794 257.500000,-95.262794 293.750000,-32.475953 56.250000,-32.475953 92.500000,-95.262794 80.000000,-95.262794" fill="#8d57bc"/>
      <polygon points="115.000000,-155.884573 127.500000,-155.884573 175.000000,-238.156986 222.500000,-155.884573 235.000000,-155.884573 175.000000,-259.807621" fill="#8d57bc"/>
      <polygon points="56.250000,-32.475953 293.750000,-32.475953 257.500000,-95.262794 245.000000,-95.262794 275.000000,-43.301270 75.000000,-43.301270 105.000000,-95.262794 92.500000,-95.262794" fill="#383838"/>
      <polygon points="127.500000,-155.884573 140.000000,-155.884573 175.000000,-216.506351 210.000000,-155.884573 222.500000,-155.884573 175.000000,-238.156986" fill="#383838"/>
    </g>
    <g transform="rotate(240 205.000000,-152.997821)">
      <polygon points="0.000000,-0.000000 350.000000,-0.000000 295.000000,-95.262794 278.333333,-95.262794 325.000000,-14.433757 25.000000,-14.433757 71.666667,-95.262794 55.000000,-95.262794" fill="#e70c86"/>
      <polygon points="90.000000,-155.884573 106.666667,-155.884573 175.000000,-274.241378 243.333333,-155.884573 260.000000,-155.884573 175.000000,-303.108891" fill="#e70c86"/>
      <polygon points="25.000000,-14.433757 325.000000,-14.433757 278.333333,-95.262794 261.666667,-95.262794 300.000000,-28.867513 50.000000,-28.867513 88.333333,-95.262794 71.666667,-95.262794" fill="#e7c60c"/>
      <polygon points="106.666667,-155.884573 123.333333,-155.884573 175.000000,-245.373864 226.666667,-155.884573 243.333333,-155.884573 175.000000,-274.241378" fill="#e7c60c"/>
      <polygon points="50.000000,-28.867513 300.000000,-28.867513 261.666667,-95.262794 245.000000,-95.262794 275.000000,-43.301270 75.000000,-43.301270 105.000000,-95.262794 88.333333,-95.262794" fill="#0ca6e7"/>
      <polygon points="123.333333,-155.884573 140.000000,-155.884573 175.000000,-216.506351 210.000000,-155.884573 226.666667,-155.884573 175.000000,-245.373864" fill="#0ca6e7"/>
    </g>
  </g>
</svg>
