<svg id="straight_edge" viewBox="0.5 0 11.5 8" xmlns="http://www.w3.org/2000/svg" class="dark_aware">
  <defs>
    <style>
      #straight_edge path {
        stroke: currentColor;
        stroke-width: 0.5;
        fill: none;
      }

      #straight_edge path.length_marker {
        stroke: var(--accent-grey);
        stroke-width: 0.08;
        fill: none;
      }

      #straight_edge path.dashed {
        stroke: var(--accent-grey);
        stroke-width: 0.08;
        fill: none;
        stroke-dasharray: 0.2 0.2;
      }

      #straight_edge circle {
        stroke: none;
        fill: var(--primary-color);
      }

      #straight_edge circle.center {
        stroke: var(--primary-color);
        stroke-width: 0.1;
        fill: white;
      }
      
      @media (prefers-color-scheme: dark) {
        #straight_edge circle.center {
          stroke: var(--primary-color);
          stroke-width: 0.1;
          fill: black;
        }
      }

      #straight_edge path.angle {
        fill: var(--primary-color);
        opacity: 0.35;
        stroke: none;
      }

      #straight_edge text.blue {
        font-size: 0.65px;
        stroke: none;
        fill: var(--primary-color);
      }

      #straight_edge text.grey {
        font-size: 0.65px;
        stroke: none;
        fill: var(--accent-grey);
      }

      #straight_edge text.italic {
        font-style: italic;
      }
    </style>
  </defs>

  <path class="length_marker"
    d="M 3 1  L 3 0.65 L 3 1.35
       M 3 1  L 3.3 0.7
       M 3 1  L 3.3 1.3
       M 3 1  L 11 1
       M 11 1 L 11 0.65 L 11 1.35
       M 11 1 L 10.7 0.7
       M 11 1 L 10.7 1.3"
    />
  <text x="7" y="0.6" text-anchor="middle" dominant-baseline="middle" class="grey italic">L′</text>

  <svg x="0.5">
    <path class="length_marker"
      d="M 1 2.5 L 0.65 2.5 L 1.35 2.5
         M 1 2.5 L 0.7 2.8
         M 1 2.5 L 1.3 2.8
         M 1 2.5 L 1 6.5
         M 1 6.5 L 0.65 6.5 L 1.35 6.5
         M 1 6.5 L 0.7 6.2
         M 1 6.5 L 1.3 6.2"
    />
  </svg>
  <text x="1" y="4.5" text-anchor="middle" dominant-baseline="middle" class="grey italic">h′</text>

  <svg y="1.5">
    <path d="M 3 1 L 11 1"/>

    <path d="M 3 1 L 7 5 L 11 1" class="dashed"/>

    <!-- radius = sqrt(2) -->
    <path d="M 7 5 L 8 4 A 1.41421356 1.41421356 0 0 0 6 4 Z" class="angle"/>
    <text x="7" y="3.3" text-anchor="middle" dominant-baseline="end" class="blue italic">θ′</text>

    <text x="7" y="6.1" text-anchor="middle" dominant-baseline="middle" class="blue">centre</text>

    <circle cx="3" cy="1" r="0.5"/>
    <circle cx="11" cy="1" r="0.5"/>
    <circle cx="7" cy="5" r="0.5" class="center"/>
  </svg>
</svg>
