<svg viewBox="0 0 2500 550" xmlns="http://www.w3.org/2000/svg">
  <defs>
    <style>
      path {
        stroke: currentColor;
        stroke-width: 1.5;
        stroke-linecap: round;
      }
    </style>


    <path id="shape1"
          d="M 0 250
             a 250 250
             0 0 0
             124.99999999999999 -33.49364905389032
             a 250 250
             0 0 1
             124.99999999999999 -33.49364905389032
             a 250 250
             0 0 1
             124.99999999999999 33.49364905389032
             a 250 250
             0 0 0
             124.99999999999999 33.49364905389032
             l 0 100
             a 250 250
             0 0 1
             -124.99999999999999 -33.49364905389032
             a 250 250
             0 0 0
             -124.99999999999999 -33.49364905389032
             a 250 250
             0 0 0
             -124.99999999999999 33.49364905389032
             a 250 250
             0 0 1
             -124.99999999999999 33.49364905389032
             Z"/>
  </defs>

  <rect width="2500" height="550" fill="yellow"/>


<circle cx="100" cy="100" r="1" fill="black" />


<circle cx="100" cy="100" r="250" stroke="red" fill="none" />

<svg y="-200">

        <use x="0.0" href="#shape1" fill="rgb(121, 121, 121)"/>
        
</svg>
<svg y="-100">

        <use x="0.0" href="#shape1" fill="rgb(169, 169, 169)"/>
        
</svg>
<rect width="2500" height="550" fill="none" stroke="yellow"/>
</svg>
