<svg xmlns="http://www.w3.org/2000/svg" viewBox="0 0 96 96"><!--numberOfSides = 29, lengthOfStraightEdge = -1, radiusOfLoop = 24, angleOfRotation = 70, color = #a200ff--><defs><path class="example" id="loopedHook4b" d="
        M 48.5 52.59742407786334
        L 47.5 52.59742407786334
        L 50.11015729607807 52.59742407786334
        A 24 24
        0 1 0
        44.950866731013484 52.03631741490542
        L 47.5 52.59742407786334
        "></path></defs><use href="#loopedHook4b" transform="rotate(70, 48, 48)"></use><use href="#loopedHook4b" transform="rotate(82.41379310344827, 48, 48)"></use><use href="#loopedHook4b" transform="rotate(94.82758620689656, 48, 48)"></use><use href="#loopedHook4b" transform="rotate(107.24137931034483, 48, 48)"></use><use href="#loopedHook4b" transform="rotate(119.65517241379311, 48, 48)"></use><use href="#loopedHook4b" transform="rotate(132.0689655172414, 48, 48)"></use><use href="#loopedHook4b" transform="rotate(144.48275862068965, 48, 48)"></use><use href="#loopedHook4b" transform="rotate(156.89655172413794, 48, 48)"></use><use href="#loopedHook4b" transform="rotate(169.31034482758622, 48, 48)"></use><use href="#loopedHook4b" transform="rotate(181.72413793103448, 48, 48)"></use><use href="#loopedHook4b" transform="rotate(194.13793103448276, 48, 48)"></use><use href="#loopedHook4b" transform="rotate(206.55172413793105, 48, 48)"></use><use href="#loopedHook4b" transform="rotate(218.9655172413793, 48, 48)"></use><use href="#loopedHook4b" transform="rotate(231.3793103448276, 48, 48)"></use><use href="#loopedHook4b" transform="rotate(243.79310344827587, 48, 48)"></use><use href="#loopedHook4b" transform="rotate(256.2068965517241, 48, 48)"></use><use href="#loopedHook4b" transform="rotate(268.62068965517244, 48, 48)"></use><use href="#loopedHook4b" transform="rotate(281.0344827586207, 48, 48)"></use><use href="#loopedHook4b" transform="rotate(293.44827586206895, 48, 48)"></use><use href="#loopedHook4b" transform="rotate(305.8620689655172, 48, 48)"></use><use href="#loopedHook4b" transform="rotate(318.2758620689655, 48, 48)"></use><use href="#loopedHook4b" transform="rotate(330.6896551724138, 48, 48)"></use><use href="#loopedHook4b" transform="rotate(343.1034482758621, 48, 48)"></use><use href="#loopedHook4b" transform="rotate(355.51724137931035, 48, 48)"></use><use href="#loopedHook4b" transform="rotate(367.9310344827586, 48, 48)"></use><use href="#loopedHook4b" transform="rotate(380.3448275862069, 48, 48)"></use><use href="#loopedHook4b" transform="rotate(392.7586206896552, 48, 48)"></use><use href="#loopedHook4b" transform="rotate(405.17241379310343, 48, 48)"></use><use href="#loopedHook4b" transform="rotate(417.58620689655174, 48, 48)"></use></svg>