<svg xmlns="http://www.w3.org/2000/svg" viewBox="0 0 113 113"><!--numberOfSides = 45, lengthOfStraightEdge = 1, radiusOfLoop = 22, angleOfRotation = 77, color = #ff4d00--><defs><path class="example" id="loopedHook3c" d="
        M 56 49.34966687164403
        L 57 49.34966687164403
        L 58.53838986275723 49.34966687164403
        A 22 22
        0 1 0
        55.476581641635775 49.13556438395858
        L 57 49.34966687164403
        "></path></defs><use href="#loopedHook3c" transform="rotate(77, 56.5, 56.5)"></use><use href="#loopedHook3c" transform="rotate(85, 56.5, 56.5)"></use><use href="#loopedHook3c" transform="rotate(93, 56.5, 56.5)"></use><use href="#loopedHook3c" transform="rotate(101, 56.5, 56.5)"></use><use href="#loopedHook3c" transform="rotate(109, 56.5, 56.5)"></use><use href="#loopedHook3c" transform="rotate(117, 56.5, 56.5)"></use><use href="#loopedHook3c" transform="rotate(125, 56.5, 56.5)"></use><use href="#loopedHook3c" transform="rotate(133, 56.5, 56.5)"></use><use href="#loopedHook3c" transform="rotate(141, 56.5, 56.5)"></use><use href="#loopedHook3c" transform="rotate(149, 56.5, 56.5)"></use><use href="#loopedHook3c" transform="rotate(157, 56.5, 56.5)"></use><use href="#loopedHook3c" transform="rotate(165, 56.5, 56.5)"></use><use href="#loopedHook3c" transform="rotate(173, 56.5, 56.5)"></use><use href="#loopedHook3c" transform="rotate(181, 56.5, 56.5)"></use><use href="#loopedHook3c" transform="rotate(189, 56.5, 56.5)"></use><use href="#loopedHook3c" transform="rotate(197, 56.5, 56.5)"></use><use href="#loopedHook3c" transform="rotate(205, 56.5, 56.5)"></use><use href="#loopedHook3c" transform="rotate(213, 56.5, 56.5)"></use><use href="#loopedHook3c" transform="rotate(221, 56.5, 56.5)"></use><use href="#loopedHook3c" transform="rotate(229, 56.5, 56.5)"></use><use href="#loopedHook3c" transform="rotate(237, 56.5, 56.5)"></use><use href="#loopedHook3c" transform="rotate(245, 56.5, 56.5)"></use><use href="#loopedHook3c" transform="rotate(253, 56.5, 56.5)"></use><use href="#loopedHook3c" transform="rotate(261, 56.5, 56.5)"></use><use href="#loopedHook3c" transform="rotate(269, 56.5, 56.5)"></use><use href="#loopedHook3c" transform="rotate(277, 56.5, 56.5)"></use><use href="#loopedHook3c" transform="rotate(285, 56.5, 56.5)"></use><use href="#loopedHook3c" transform="rotate(293, 56.5, 56.5)"></use><use href="#loopedHook3c" transform="rotate(301, 56.5, 56.5)"></use><use href="#loopedHook3c" transform="rotate(309, 56.5, 56.5)"></use><use href="#loopedHook3c" transform="rotate(317, 56.5, 56.5)"></use><use href="#loopedHook3c" transform="rotate(325, 56.5, 56.5)"></use><use href="#loopedHook3c" transform="rotate(333, 56.5, 56.5)"></use><use href="#loopedHook3c" transform="rotate(341, 56.5, 56.5)"></use><use href="#loopedHook3c" transform="rotate(349, 56.5, 56.5)"></use><use href="#loopedHook3c" transform="rotate(357, 56.5, 56.5)"></use><use href="#loopedHook3c" transform="rotate(365, 56.5, 56.5)"></use><use href="#loopedHook3c" transform="rotate(373, 56.5, 56.5)"></use><use href="#loopedHook3c" transform="rotate(381, 56.5, 56.5)"></use><use href="#loopedHook3c" transform="rotate(389, 56.5, 56.5)"></use><use href="#loopedHook3c" transform="rotate(397, 56.5, 56.5)"></use><use href="#loopedHook3c" transform="rotate(405, 56.5, 56.5)"></use><use href="#loopedHook3c" transform="rotate(413, 56.5, 56.5)"></use><use href="#loopedHook3c" transform="rotate(421, 56.5, 56.5)"></use><use href="#loopedHook3c" transform="rotate(429, 56.5, 56.5)"></use></svg>