<?xml version="1.0" encoding="UTF-8" standalone="no"?>
<svg xmlns="http://www.w3.org/2000/svg"  viewBox="0 0 837 737" version="1.1">
  <title>1.26 Перегон скота</title>
  <path style="fill:#ffffff;" d="m 789.12 734.42 a 45 45 0 0 0 45 -45 a 45 45 0 0 0 -6.03 -22.50 l -372.06 -644.42 a 45 45 0 0 0 -38.97 -22.50 a 45 45 0 0 0 -38.97 22.50 l -372.06 644.42 a 45 45 0 0 0 -6.03 22.50 a 45 45 0 0 0 45 45 z"/>
  <path style="fill:none;stroke:#000000;stroke-width:2;" d="m 789.12 733.42 a 44 44 0 0 0 44 -44 a 44 44 0 0 0 -5.89 -22 l -372.06 -644.42 a 44 44 0 0 0 -38.11 -22 a 44 44 0 0 0 -38.11 22 l -372.06 644.42 a 44 44 0 0 0 -5.89 22 a 44 44 0 0 0 44 44 z"/>
  <path style="fill:#ff0000;" d="m 789.12 724.42 a 35 35 0 0 0 35 -35 a 35 35 0 0 0 -4.69 -17.50 l -372.06 -644.42 a 35 35 0 0 0 -30.31 -17.50 a 35 35 0 0 0 -30.31 17.50 l -372.06 644.42 a 35 35 0 0 0 -4.69 17.50 a 35 35 0 0 0 35 35 z m -685.48 -58.85 a 10 10 0 0 1 -10 -10 a 10 10 0 0 1 1.34 -5 l 313.42 -542.87 a 10 10 0 0 1 8.66 -5 a 10 10 0 0 1 8.66 5 l 313.42 542.87 a 10 10 0 0 1 1.34 5 a 10 10 0 0 1 -10 10 z"/>
  <path style="fill:#000000;" transform="scale(1.14753125) translate(-16.55891724 -20)" d="m 360 370 l -8.78 49.78 a 16 16 0 0 1 -15.76 13.22 h -40.46 l 15.18 52.89 a 25 25 0 0 0 24.03 18.11 h 28.29 a 16 16 0 0 1 16 16 v 46.50 a 9.50 9.50 0 0 0 9.50 9.50 a 9.50 9.50 0 0 0 9.50 -9.50 v -60.50 a 8 8 0 0 1 5 -7.42 l 56.29 -22.52 c 18.78 -7.51 17.63 17.88 26 22.71 c 8.02 4.63 38.14 5.35 40.87 21.67 l 7.98 47.71 a 9.50 9.50 0 0 0 9.36 7.85 a 9.50 9.50 0 0 0 9.50 -9.50 a 9.50 9.50 0 0 0 -0.02 -0.66 l -5.54 -79.23 a 20 20 0 0 0 -4.33 -11.10 l -19.32 -24.14 a 15 15 0 0 1 -3.29 -9.37 v -52 a 20 20 0 0 0 -20 -20 z"/>
  <path style="fill:#000000;" transform="scale(1.14753125) translate(-16.55891724 -20)" d="m 335.04 420.50 a 4 4 0 0 0 3.94 -3.31 l 10.70 -60.69 h 5.82 a 7.50 7.50 0 0 0 7.50 -7.50 a 7.50 7.50 0 0 0 -6.20 -7.39 l -1.15 -0.20 a 12 12 0 0 1 -9.51 -8.71 l -4.21 -15.72 a 2 2 0 0 0 -1.93 -1.48 a 2 2 0 0 0 -1.93 1.48 l -6.17 23.02 h -43.80 l -6.17 -23.02 a 2 2 0 0 0 -1.93 -1.48 a 2 2 0 0 0 -1.93 1.48 l -4.21 15.72 a 12 12 0 0 1 -9.51 8.71 l -1.15 0.20 a 7.50 7.50 0 0 0 -6.20 7.39 a 7.50 7.50 0 0 0 7.50 7.50 h 5.82 l 10.70 60.69 a 4 4 0 0 0 3.94 3.31 z"/>
  <path style="fill:#000000;" transform="scale(1.14753125) translate(-16.55891724 -20)" d="m 336.21 516 l -18.08 47.10 a 9.50 9.50 0 0 0 -0.63 3.40 a 9.50 9.50 0 0 0 9.50 9.50 a 9.50 9.50 0 0 0 8.87 -6.10 l 20.69 -53.90 z"/>
  <path style="fill:#000000;" transform="scale(1.14753125) translate(-16.55891724 -20)" d="m 474.93 500.79 l -25.71 62.07 a 9.50 9.50 0 0 0 -0.72 3.64 a 9.50 9.50 0 0 0 9.50 9.50 a 9.50 9.50 0 0 0 8.78 -5.86 l 22.70 -54.80 z"/>
</svg>
