<?xml version="1.0" encoding="UTF-8"?>
<svg xmlns="http://www.w3.org/2000/svg"  viewBox="0 0 837 737" version="1.1">
<title>1.22 Пешеходный переход</title>
<path style="fill:#ffffff;" d="m 0,689.423 c 0,24.853 20.147,45 45,45 l 744.116,0 c 24.853,0 45,-20.147 45,-45 c 0,-7.899 -2.079,-15.659 -6.029,-22.5 l -372.058,-644.423 c -8.038,-13.923 -22.894,-22.5 -38.971,-22.5 c -16.077,0 -30.933,8.577 -38.971,22.5 l -372.058,644.423 c -3.950,6.841 -6.029,14.601 -6.029,22.5 z"/>
<path style="fill:none;stroke:#000000;stroke-width:2px;" d="m 1,689.423 c 0,24.301 19.699,44 44,44 l 744.116,0 c 24.301,0 44,-19.699 44,-44 c 0,-7.724 -2.033,-15.311 -5.895,-22.0 l -372.058,-644.423 c -7.860,-13.614 -22.385,-22.0 -38.105,-22.0 c -15.720,0 -30.245,8.386 -38.105,22.0 l -372.058,644.423 c -3.862,6.689 -5.895,14.276 -5.895,22.0 z"/>
<path style="fill:#ff0000;" d="m 10,689.423 c 0,19.330 15.670,35 35,35 l 744.116,0 c 19.330,0 35,-15.670 35,-35 c 0,-6.144 -1.617,-12.179 -4.689,-17.5 l -372.058,-644.423 c -6.252,-10.829 -17.807,-17.5 -30.311,-17.5 c -12.504,0 -24.059,6.671 -30.311,17.5 l -372.058,644.423 c -3.072,5.321 -4.689,11.357 -4.689,17.5 z m 83.634,-33.852 c 0,-1.755 0.462,-3.480 1.340,-5.000 l 313.424,-542.866 c 1.786,-3.094 5.087,-5 8.660,-5.000 c 3.573,0 6.873,1.906 8.660,5.000 l 313.424,542.866 c 0.878,1.520 1.340,3.245 1.340,5.000 c 0,5.523 -4.477,10 -10,10 l -626.848,0 c -5.523,0 -10,-4.477 -10,-10 z"/>
<path style="fill:#000000;" d="m 233.452,573.768 l -45.901,68.852 l 64.262,0 l 27.541,-68.852 z"/>
<path style="fill:#000000;" d="m 396.402,573.768 l -9.180,68.852 l 59.672,0 l -9.180,-68.852 z"/>
<path style="fill:#000000;" d="m 554.762,573.768 l 27.541,68.852 l 64.262,0 l -45.901,-68.852 z"/>
<path style="fill:#000000;" d="m 347.232,601.805 c -2.281,9.149 -10.499,15.570 -19.928,15.570 c -11.343,0 -20.538,-9.195 -20.538,-20.538 c 0,-1.675 0.205,-3.344 0.610,-4.969 l 30.078,-120.638 c 0.380,-1.523 1.166,-2.913 2.276,-4.023 l 54.378,-54.378 l 0,-114.907 c 0,-3.862 2.060,-7.430 5.405,-9.362 l 27.905,-16.111 c 6.689,-3.862 14.930,-3.862 21.619,0 l 68.841,39.746 c 6.689,3.862 10.810,10.999 10.810,18.723 l 0,75.668 c 0,8.955 -7.259,16.215 -16.215,16.215 c -8.955,0 -16.215,-7.259 -16.215,-16.215 l 0,-64.426 c 0,-3.090 -1.648,-5.944 -4.324,-7.489 l -29.186,-16.851 l 0,90.711 c 0,2.867 -1.139,5.616 -3.166,7.644 l -86.316,86.316 c -1.110,1.110 -1.896,2.500 -2.276,4.023 z"/>
<path style="fill:#000000;" d="m 456.733,434.312 l -30.070,30.070 l 82.401,142.723 c 3.669,6.355 10.449,10.269 17.787,10.269 c 11.343,0 20.538,-9.195 20.538,-20.538 c 0,-3.605 -0.949,-7.147 -2.752,-10.269 z"/>
<path style="fill:#000000;" d="m 383.298,389.520 l 0,-45.862 l -61.731,61.731 c -3.041,3.041 -4.749,7.165 -4.749,11.465 c 0,8.955 7.259,16.215 16.215,16.215 c 4.300,0 8.425,-1.708 11.465,-4.749 z"/>
<path style="fill:#000000;" d="m 430.320,188.770 c 11.891,0 31.672,6.918 31.672,29.186 c 0,25.511 -41.401,45.941 -54.373,45.941 c -18.268,0 -26.700,-21.079 -26.700,-34.051 c 0,-31.997 39.347,-41.077 49.400,-41.077 z"/>
</svg>