<?xml version="1.0" encoding="UTF-8"?>
<svg xmlns="http://www.w3.org/2000/svg" version="1.1" viewBox="0 0 837 737">
<title>1.23 Дети</title>
<path style="fill:#ffffff;" d="m 0,689.423 c 0,24.853 20.147,45 45,45 l 744.116,0 c 24.853,0 45,-20.147 45,-45 c 0,-7.899 -2.079,-15.659 -6.029,-22.5 l -372.058,-644.423 c -8.038,-13.923 -22.894,-22.5 -38.971,-22.5 c -16.077,0 -30.933,8.577 -38.971,22.5 l -372.058,644.423 c -3.950,6.841 -6.029,14.601 -6.029,22.5 z"/>
<path style="fill:none;stroke:#000000;stroke-width:2px;" d="m 1,689.423 c 0,24.301 19.699,44 44,44 l 744.116,0 c 24.301,0 44,-19.699 44,-44 c 0,-7.724 -2.033,-15.311 -5.895,-22.0 l -372.058,-644.423 c -7.860,-13.614 -22.385,-22.0 -38.105,-22.0 c -15.720,0 -30.245,8.386 -38.105,22.0 l -372.058,644.423 c -3.862,6.689 -5.895,14.276 -5.895,22.0 z"/>
<path style="fill:#ff0000;" d="m 10,689.423 c 0,19.330 15.670,35 35,35 l 744.116,0 c 19.330,0 35,-15.670 35,-35 c 0,-6.144 -1.617,-12.179 -4.689,-17.5 l -372.058,-644.423 c -6.252,-10.829 -17.807,-17.5 -30.311,-17.5 c -12.504,0 -24.059,6.671 -30.311,17.5 l -372.058,644.423 c -3.072,5.321 -4.689,11.357 -4.689,17.5 z m 83.634,-33.852 c 0,-1.755 0.462,-3.480 1.340,-5.000 l 313.424,-542.866 c 1.786,-3.094 5.087,-5 8.660,-5.000 c 3.573,0 6.873,1.906 8.660,5.000 l 313.424,542.866 c 0.878,1.520 1.340,3.245 1.340,5.000 c 0,5.523 -4.477,10 -10,10 l -626.848,0 c -5.523,0 -10,-4.477 -10,-10 z"/>
<path style="fill:#000000;" d="m 251.135,593.850 c -1.511,2.617 -2.306,5.585 -2.306,8.607 c 0,9.507 7.707,17.213 17.213,17.213 c 6.150,0 11.832,-3.281 14.907,-8.607 l 47.413,-82.121 l 49.584,-29.793 c 4.144,-2.490 6.678,-6.970 6.678,-11.804 c 0,-2.417 -0.636,-4.792 -1.845,-6.885 l -31.705,-54.915 c -1.209,-2.093 -1.845,-4.468 -1.845,-6.885 c 0,-2.417 0.636,-4.792 1.845,-6.885 l 44.478,-77.038 c 1.309,-2.268 1.999,-4.840 1.999,-7.459 c 0,-8.239 -6.679,-14.918 -14.918,-14.918 c -5.330,0 -10.254,2.843 -12.919,7.459 l -65.016,112.612 c -1.209,2.093 -1.845,4.468 -1.845,6.885 c 0,2.417 0.636,4.792 1.845,6.885 l 22.997,39.831 l -21.518,15.067 c -1.647,1.153 -3.022,2.653 -4.027,4.395 z"/>
<path style="fill:#000000;" d="m 351.625,527.013 l 29.313,50.772 c 2.460,4.261 7.006,6.885 11.926,6.885 l 31.080,0 l 0,-34.426 l -19.154,0 l -23.651,-40.964 z"/>
<path style="fill:#000000;" d="m 295.830,449.204 l -24.766,14.299 l -17.233,-29.849 c -2.665,-4.616 -7.590,-7.459 -12.919,-7.459 c -8.239,0 -14.918,6.679 -14.918,14.918 c 0,2.619 0.689,5.191 1.999,7.459 l 25.266,43.762 c 2.460,4.261 7.006,6.885 11.926,6.885 c 2.417,0 4.792,-0.636 6.885,-1.845 l 38.679,-22.331 z"/>
<path style="fill:#000000;" d="m 266.042,380.638 c 0,17.901 14.918,31.672 29.262,31.672 c 22.033,0 30.869,-38.902 30.869,-46.475 c 0,-14.459 -7.229,-26.164 -22.492,-26.164 c -15.606,0 -37.639,20.770 -37.639,40.967 z"/>
<path style="fill:#000000;" d="m 433.124,601.309 c 0,10.140 8.220,18.361 18.361,18.361 c 10.140,0 18.361,-8.220 18.361,-18.361 l 0,-97.122 l 80.673,-46.577 c 7.101,-4.100 11.475,-11.676 11.475,-19.876 c 0,-4.029 -1.060,-7.986 -3.075,-11.475 l -39.391,-68.228 l 40.779,0 l -18.541,-32.131 l -53.705,0 c -4.493,0 -8.703,2.192 -11.280,5.872 l -14.708,21.006 c -1.621,2.315 -2.490,5.072 -2.490,7.898 c 0,2.417 0.636,4.792 1.845,6.885 l 42.904,74.312 l -64.322,37.137 c -4.261,2.460 -6.885,7.006 -6.885,11.926 z"/>
<path style="fill:#000000;" d="m 528.184,483.755 l 36.442,63.119 c 2.050,3.550 5.838,5.738 9.938,5.738 c 2.014,0 3.993,-0.530 5.738,-1.537 l 68.615,-39.566 l -18.361,-31.801 l -46.730,26.979 l -23.840,-41.292 z"/>
<path style="fill:#000000;" d="m 453.184,373.939 l -24.905,43.137 l -38.647,-22.313 c -2.617,-1.511 -5.585,-2.306 -8.607,-2.306 c -9.507,0 -17.213,7.707 -17.213,17.213 c 0,6.150 3.281,11.832 8.607,14.907 l 56.535,32.641 c 1.744,1.007 3.723,1.537 5.738,1.537 c 4.100,0 7.888,-2.187 9.938,-5.738 l 27.105,-46.947 z"/>
<path style="fill:#000000;" d="m 416.599,305.015 c 0,23.639 21.918,36.262 32.820,36.262 c 16.754,0 35.458,-35.114 35.458,-54.622 c -0.459,-16.181 -9.754,-26.967 -23.983,-26.967 c -19.393,0 -44.295,21.458 -44.295,45.327 z"/>
</svg>