<?xml version="1.0"?>
<svg xmlns="http://www.w3.org/2000/svg" xmlns:xlink="http://www.w3.org/1999/xlink" viewBox="0 0 54 110" height="220"><animate attributeName="viewBox" values="0 0 54 110; 0 0 2054 110;" dur="50s" repeatCount="indefinite"/><defs><mask id="upperCurlyLine"><rect x="0" y="0" width="2054" height="100" fill="white"/><svg x="2" y="37.5"><path d="           M 5 10           A 5 5 0 0 1 15 10           A 5 5 0 0 0 25 10           A 5 5 0 0 1 35 10           A 5 5 0 0 0 45 10           A 5 5 0 0 1 55 10           A 5 5 0 0 0 65 10           A 5 5 0 0 1 75 10           A 5 5 0 0 0 85 10           A 5 5 0 0 1 95 10           A 5 5 0 0 0 105 10           A 5 5 0 0 1 115 10           A 5 5 0 0 0 125 10           A 5 5 0 0 1 135 10           A 5 5 0 0 0 145 10           A 5 5 0 0 1 155 10           A 5 5 0 0 0 165 10           A 5 5 0 0 1 175 10           A 5 5 0 0 0 185 10           A 5 5 0 0 1 195 10           A 5 5 0 0 0 205 10           A 5 5 0 0 1 215 10           A 5 5 0 0 0 225 10           A 5 5 0 0 1 235 10           A 5 5 0 0 0 245 10           A 5 5 0 0 1 255 10           A 5 5 0 0 0 265 10           A 5 5 0 0 1 275 10           A 5 5 0 0 0 285 10           A 5 5 0 0 1 295 10           A 5 5 0 0 0 305 10           A 5 5 0 0 1 315 10           A 5 5 0 0 0 325 10           A 5 5 0 0 1 335 10           A 5 5 0 0 0 345 10           A 5 5 0 0 1 355 10           A 5 5 0 0 0 365 10           A 5 5 0 0 1 375 10           A 5 5 0 0 0 385 10           A 5 5 0 0 1 395 10           A 5 5 0 0 0 405 10           A 5 5 0 0 1 415 10           A 5 5 0 0 0 425 10           A 5 5 0 0 1 435 10           A 5 5 0 0 0 445 10           A 5 5 0 0 1 455 10           A 5 5 0 0 0 465 10           A 5 5 0 0 1 475 10           A 5 5 0 0 0 485 10           A 5 5 0 0 1 495 10           A 5 5 0 0 0 505 10           A 5 5 0 0 1 515 10           A 5 5 0 0 0 525 10           A 5 5 0 0 1 535 10           A 5 5 0 0 0 545 10           A 5 5 0 0 1 555 10           A 5 5 0 0 0 565 10           A 5 5 0 0 1 575 10           A 5 5 0 0 0 585 10           A 5 5 0 0 1 595 10           A 5 5 0 0 0 605 10           A 5 5 0 0 1 615 10           A 5 5 0 0 0 625 10           A 5 5 0 0 1 635 10           A 5 5 0 0 0 645 10           A 5 5 0 0 1 655 10           A 5 5 0 0 0 665 10           A 5 5 0 0 1 675 10           A 5 5 0 0 0 685 10           A 5 5 0 0 1 695 10           A 5 5 0 0 0 705 10           A 5 5 0 0 1 715 10           A 5 5 0 0 0 725 10           A 5 5 0 0 1 735 10           A 5 5 0 0 0 745 10           A 5 5 0 0 1 755 10           A 5 5 0 0 0 765 10           A 5 5 0 0 1 775 10           A 5 5 0 0 0 785 10           A 5 5 0 0 1 795 10           A 5 5 0 0 0 805 10           A 5 5 0 0 1 815 10           A 5 5 0 0 0 825 10           A 5 5 0 0 1 835 10           A 5 5 0 0 0 845 10           A 5 5 0 0 1 855 10           A 5 5 0 0 0 865 10           A 5 5 0 0 1 875 10           A 5 5 0 0 0 885 10           A 5 5 0 0 1 895 10           A 5 5 0 0 0 905 10           A 5 5 0 0 1 915 10           A 5 5 0 0 0 925 10           A 5 5 0 0 1 935 10           A 5 5 0 0 0 945 10           A 5 5 0 0 1 955 10           A 5 5 0 0 0 965 10           A 5 5 0 0 1 975 10           A 5 5 0 0 0 985 10           A 5 5 0 0 1 995 10           A 5 5 0 0 0 1005 10           A 5 5 0 0 1 1015 10           A 5 5 0 0 0 1025 10           A 5 5 0 0 1 1035 10           A 5 5 0 0 0 1045 10           A 5 5 0 0 1 1055 10           A 5 5 0 0 0 1065 10           A 5 5 0 0 1 1075 10           A 5 5 0 0 0 1085 10           A 5 5 0 0 1 1095 10           A 5 5 0 0 0 1105 10           A 5 5 0 0 1 1115 10           A 5 5 0 0 0 1125 10           A 5 5 0 0 1 1135 10           A 5 5 0 0 0 1145 10           A 5 5 0 0 1 1155 10           A 5 5 0 0 0 1165 10           A 5 5 0 0 1 1175 10           A 5 5 0 0 0 1185 10           A 5 5 0 0 1 1195 10           A 5 5 0 0 0 1205 10           A 5 5 0 0 1 1215 10           A 5 5 0 0 0 1225 10           A 5 5 0 0 1 1235 10           A 5 5 0 0 0 1245 10           A 5 5 0 0 1 1255 10           A 5 5 0 0 0 1265 10           A 5 5 0 0 1 1275 10           A 5 5 0 0 0 1285 10           A 5 5 0 0 1 1295 10           A 5 5 0 0 0 1305 10           A 5 5 0 0 1 1315 10           A 5 5 0 0 0 1325 10           A 5 5 0 0 1 1335 10           A 5 5 0 0 0 1345 10           A 5 5 0 0 1 1355 10           A 5 5 0 0 0 1365 10           A 5 5 0 0 1 1375 10           A 5 5 0 0 0 1385 10           A 5 5 0 0 1 1395 10           A 5 5 0 0 0 1405 10           A 5 5 0 0 1 1415 10           A 5 5 0 0 0 1425 10           A 5 5 0 0 1 1435 10           A 5 5 0 0 0 1445 10           A 5 5 0 0 1 1455 10           A 5 5 0 0 0 1465 10           A 5 5 0 0 1 1475 10           A 5 5 0 0 0 1485 10           A 5 5 0 0 1 1495 10           A 5 5 0 0 0 1505 10           A 5 5 0 0 1 1515 10           A 5 5 0 0 0 1525 10           A 5 5 0 0 1 1535 10           A 5 5 0 0 0 1545 10           A 5 5 0 0 1 1555 10           A 5 5 0 0 0 1565 10           A 5 5 0 0 1 1575 10           A 5 5 0 0 0 1585 10           A 5 5 0 0 1 1595 10           A 5 5 0 0 0 1605 10           A 5 5 0 0 1 1615 10           A 5 5 0 0 0 1625 10           A 5 5 0 0 1 1635 10           A 5 5 0 0 0 1645 10           A 5 5 0 0 1 1655 10           A 5 5 0 0 0 1665 10           A 5 5 0 0 1 1675 10           A 5 5 0 0 0 1685 10           A 5 5 0 0 1 1695 10           A 5 5 0 0 0 1705 10           A 5 5 0 0 1 1715 10           A 5 5 0 0 0 1725 10           A 5 5 0 0 1 1735 10           A 5 5 0 0 0 1745 10           A 5 5 0 0 1 1755 10           A 5 5 0 0 0 1765 10           A 5 5 0 0 1 1775 10           A 5 5 0 0 0 1785 10           A 5 5 0 0 1 1795 10           A 5 5 0 0 0 1805 10           A 5 5 0 0 1 1815 10           A 5 5 0 0 0 1825 10           A 5 5 0 0 1 1835 10           A 5 5 0 0 0 1845 10           A 5 5 0 0 1 1855 10           A 5 5 0 0 0 1865 10           A 5 5 0 0 1 1875 10           A 5 5 0 0 0 1885 10           A 5 5 0 0 1 1895 10           A 5 5 0 0 0 1905 10           A 5 5 0 0 1 1915 10           A 5 5 0 0 0 1925 10           A 5 5 0 0 1 1935 10           A 5 5 0 0 0 1945 10           A 5 5 0 0 1 1955 10           A 5 5 0 0 0 1965 10           A 5 5 0 0 1 1975 10           A 5 5 0 0 0 1985 10           A 5 5 0 0 1 1995 10           A 5 5 0 0 0 2005 10           A 5 5 0 0 1 2015 10           A 5 5 0 0 0 2025 10           A 5 5 0 0 1 2035 10           A 5 5 0 0 0 2045 10           A 5 5 0 0 1 2055 10           A 5 5 0 0 0 2065 10           A 5 5 0 0 1 2075 10           A 5 5 0 0 0 2085 10           A 5 5 0 0 1 2095 10           " stroke="black" stroke-width="2" fill="none"/></svg></mask><mask id="lowerCurlyLine"><rect x="0" y="0" width="2054" height="100" fill="white"/><svg x="-3" y="73"><path d="           M 0 10           A 5 5 0 0 1 10 10           A 5 5 0 0 0 20 10           A 5 5 0 0 1 30 10           A 5 5 0 0 0 40 10           A 5 5 0 0 1 50 10           A 5 5 0 0 0 60 10           A 5 5 0 0 1 70 10           A 5 5 0 0 0 80 10           A 5 5 0 0 1 90 10           A 5 5 0 0 0 100 10           A 5 5 0 0 1 110 10           A 5 5 0 0 0 120 10           A 5 5 0 0 1 130 10           A 5 5 0 0 0 140 10           A 5 5 0 0 1 150 10           A 5 5 0 0 0 160 10           A 5 5 0 0 1 170 10           A 5 5 0 0 0 180 10           A 5 5 0 0 1 190 10           A 5 5 0 0 0 200 10           A 5 5 0 0 1 210 10           A 5 5 0 0 0 220 10           A 5 5 0 0 1 230 10           A 5 5 0 0 0 240 10           A 5 5 0 0 1 250 10           A 5 5 0 0 0 260 10           A 5 5 0 0 1 270 10           A 5 5 0 0 0 280 10           A 5 5 0 0 1 290 10           A 5 5 0 0 0 300 10           A 5 5 0 0 1 310 10           A 5 5 0 0 0 320 10           A 5 5 0 0 1 330 10           A 5 5 0 0 0 340 10           A 5 5 0 0 1 350 10           A 5 5 0 0 0 360 10           A 5 5 0 0 1 370 10           A 5 5 0 0 0 380 10           A 5 5 0 0 1 390 10           A 5 5 0 0 0 400 10           A 5 5 0 0 1 410 10           A 5 5 0 0 0 420 10           A 5 5 0 0 1 430 10           A 5 5 0 0 0 440 10           A 5 5 0 0 1 450 10           A 5 5 0 0 0 460 10           A 5 5 0 0 1 470 10           A 5 5 0 0 0 480 10           A 5 5 0 0 1 490 10           A 5 5 0 0 0 500 10           A 5 5 0 0 1 510 10           A 5 5 0 0 0 520 10           A 5 5 0 0 1 530 10           A 5 5 0 0 0 540 10           A 5 5 0 0 1 550 10           A 5 5 0 0 0 560 10           A 5 5 0 0 1 570 10           A 5 5 0 0 0 580 10           A 5 5 0 0 1 590 10           A 5 5 0 0 0 600 10           A 5 5 0 0 1 610 10           A 5 5 0 0 0 620 10           A 5 5 0 0 1 630 10           A 5 5 0 0 0 640 10           A 5 5 0 0 1 650 10           A 5 5 0 0 0 660 10           A 5 5 0 0 1 670 10           A 5 5 0 0 0 680 10           A 5 5 0 0 1 690 10           A 5 5 0 0 0 700 10           A 5 5 0 0 1 710 10           A 5 5 0 0 0 720 10           A 5 5 0 0 1 730 10           A 5 5 0 0 0 740 10           A 5 5 0 0 1 750 10           A 5 5 0 0 0 760 10           A 5 5 0 0 1 770 10           A 5 5 0 0 0 780 10           A 5 5 0 0 1 790 10           A 5 5 0 0 0 800 10           A 5 5 0 0 1 810 10           A 5 5 0 0 0 820 10           A 5 5 0 0 1 830 10           A 5 5 0 0 0 840 10           A 5 5 0 0 1 850 10           A 5 5 0 0 0 860 10           A 5 5 0 0 1 870 10           A 5 5 0 0 0 880 10           A 5 5 0 0 1 890 10           A 5 5 0 0 0 900 10           A 5 5 0 0 1 910 10           A 5 5 0 0 0 920 10           A 5 5 0 0 1 930 10           A 5 5 0 0 0 940 10           A 5 5 0 0 1 950 10           A 5 5 0 0 0 960 10           A 5 5 0 0 1 970 10           A 5 5 0 0 0 980 10           A 5 5 0 0 1 990 10           A 5 5 0 0 0 1000 10           A 5 5 0 0 1 1010 10           A 5 5 0 0 0 1020 10           A 5 5 0 0 1 1030 10           A 5 5 0 0 0 1040 10           A 5 5 0 0 1 1050 10           A 5 5 0 0 0 1060 10           A 5 5 0 0 1 1070 10           A 5 5 0 0 0 1080 10           A 5 5 0 0 1 1090 10           A 5 5 0 0 0 1100 10           A 5 5 0 0 1 1110 10           A 5 5 0 0 0 1120 10           A 5 5 0 0 1 1130 10           A 5 5 0 0 0 1140 10           A 5 5 0 0 1 1150 10           A 5 5 0 0 0 1160 10           A 5 5 0 0 1 1170 10           A 5 5 0 0 0 1180 10           A 5 5 0 0 1 1190 10           A 5 5 0 0 0 1200 10           A 5 5 0 0 1 1210 10           A 5 5 0 0 0 1220 10           A 5 5 0 0 1 1230 10           A 5 5 0 0 0 1240 10           A 5 5 0 0 1 1250 10           A 5 5 0 0 0 1260 10           A 5 5 0 0 1 1270 10           A 5 5 0 0 0 1280 10           A 5 5 0 0 1 1290 10           A 5 5 0 0 0 1300 10           A 5 5 0 0 1 1310 10           A 5 5 0 0 0 1320 10           A 5 5 0 0 1 1330 10           A 5 5 0 0 0 1340 10           A 5 5 0 0 1 1350 10           A 5 5 0 0 0 1360 10           A 5 5 0 0 1 1370 10           A 5 5 0 0 0 1380 10           A 5 5 0 0 1 1390 10           A 5 5 0 0 0 1400 10           A 5 5 0 0 1 1410 10           A 5 5 0 0 0 1420 10           A 5 5 0 0 1 1430 10           A 5 5 0 0 0 1440 10           A 5 5 0 0 1 1450 10           A 5 5 0 0 0 1460 10           A 5 5 0 0 1 1470 10           A 5 5 0 0 0 1480 10           A 5 5 0 0 1 1490 10           A 5 5 0 0 0 1500 10           A 5 5 0 0 1 1510 10           A 5 5 0 0 0 1520 10           A 5 5 0 0 1 1530 10           A 5 5 0 0 0 1540 10           A 5 5 0 0 1 1550 10           A 5 5 0 0 0 1560 10           A 5 5 0 0 1 1570 10           A 5 5 0 0 0 1580 10           A 5 5 0 0 1 1590 10           A 5 5 0 0 0 1600 10           A 5 5 0 0 1 1610 10           A 5 5 0 0 0 1620 10           A 5 5 0 0 1 1630 10           A 5 5 0 0 0 1640 10           A 5 5 0 0 1 1650 10           A 5 5 0 0 0 1660 10           A 5 5 0 0 1 1670 10           A 5 5 0 0 0 1680 10           A 5 5 0 0 1 1690 10           A 5 5 0 0 0 1700 10           A 5 5 0 0 1 1710 10           A 5 5 0 0 0 1720 10           A 5 5 0 0 1 1730 10           A 5 5 0 0 0 1740 10           A 5 5 0 0 1 1750 10           A 5 5 0 0 0 1760 10           A 5 5 0 0 1 1770 10           A 5 5 0 0 0 1780 10           A 5 5 0 0 1 1790 10           A 5 5 0 0 0 1800 10           A 5 5 0 0 1 1810 10           A 5 5 0 0 0 1820 10           A 5 5 0 0 1 1830 10           A 5 5 0 0 0 1840 10           A 5 5 0 0 1 1850 10           A 5 5 0 0 0 1860 10           A 5 5 0 0 1 1870 10           A 5 5 0 0 0 1880 10           A 5 5 0 0 1 1890 10           A 5 5 0 0 0 1900 10           A 5 5 0 0 1 1910 10           A 5 5 0 0 0 1920 10           A 5 5 0 0 1 1930 10           A 5 5 0 0 0 1940 10           A 5 5 0 0 1 1950 10           A 5 5 0 0 0 1960 10           A 5 5 0 0 1 1970 10           A 5 5 0 0 0 1980 10           A 5 5 0 0 1 1990 10           A 5 5 0 0 0 2000 10           A 5 5 0 0 1 2010 10           A 5 5 0 0 0 2020 10           A 5 5 0 0 1 2030 10           A 5 5 0 0 0 2040 10           A 5 5 0 0 1 2050 10           A 5 5 0 0 0 2060 10           A 5 5 0 0 1 2070 10           A 5 5 0 0 0 2080 10           A 5 5 0 0 1 2090 10           " stroke="black" stroke-width="3" fill="none"/></svg></mask><mask id="candles"><rect x="0" y="0" width="29" height="100" fill="white"><animate attributeName="width" values="31; 41; 51; 61; 71; 81; 91; 101; 111; 121; 131; 141; 151; 161; 171; 181; 191; 201; 211; 221; 231; 241; 251; 261; 271; 281; 291; 301; 311; 321; 331; 341; 351; 361; 371; 381; 391; 401; 411; 421; 431; 441; 451; 461; 471; 481; 491; 501; 511; 521; 531; 541; 551; 561; 571; 581; 591; 601; 611; 621; 631; 641; 651; 661; 671; 681; 691; 701; 711; 721; 731; 741; 751; 761; 771; 781; 791; 801; 811; 821; 831; 841; 851; 861; 871; 881; 891; 901; 911; 921; 931; 941; 951; 961; 971; 981; 991; 1001; 1011; 1021; 1031; 1041; 1051; 1061; 1071; 1081; 1091; 1101; 1111; 1121; 1131; 1141; 1151; 1161; 1171; 1181; 1191; 1201; 1211; 1221; 1231; 1241; 1251; 1261; 1271; 1281; 1291; 1301; 1311; 1321; 1331; 1341; 1351; 1361; 1371; 1381; 1391; 1401; 1411; 1421; 1431; 1441; 1451; 1461; 1471; 1481; 1491; 1501; 1511; 1521; 1531; 1541; 1551; 1561; 1571; 1581; 1591; 1601; 1611; 1621; 1631; 1641; 1651; 1661; 1671; 1681; 1691; 1701; 1711; 1721; 1731; 1741; 1751; 1761; 1771; 1781; 1791; 1801; 1811; 1821; 1831; 1841; 1851; 1861; 1871; 1881; 1891; 1901; 1911; 1921; 1931; 1941; 1951; 1961; 1971; 1981; 1991; 2001" dur="50s" repeatCount="indefinite" calcMode="discrete"/></rect></mask><g id="singleCandle" fill="currentColor" stroke-linejoin="round" stroke-width="1" stroke="currentColor"><rect x="25" y="13" width="4" height="18"/><path d="M 27 2 L 29 8 C 30 11, 24 11, 25 8 Z"/></g></defs><rect x="0" y="105" width="54" height="5" fill="currentColor" rx="1"><animate attributeName="width" values="54; 2054" dur="50s" repeatCount="indefinite"/></rect><rect x="5" y="63" width="44" height="40" fill="currentColor" rx="4" mask="url(#lowerCurlyLine)"><animate attributeName="width" values="44; 2034" dur="50s" repeatCount="indefinite"/></rect><rect x="5" y="98" width="44" height="5" fill="currentColor"><animate attributeName="width" values="44; 2034" dur="50s" repeatCount="indefinite"/></rect><rect x="15" y="33" width="24" height="28" fill="currentColor" mask="url(#upperCurlyLine)" rx="4"><animate attributeName="width" values="24; 2014" dur="50s" repeatCount="indefinite"/></rect><rect x="15" y="56" width="24" height="5" fill="currentColor"><animate attributeName="width" values="24; 2014" dur="50s" repeatCount="indefinite"/></rect><svg mask="url(#candles)" class="candles"><use xlink:href="#singleCandle" x="0"/><use xlink:href="#singleCandle" x="10"/><use xlink:href="#singleCandle" x="20"/><use xlink:href="#singleCandle" x="30"/><use xlink:href="#singleCandle" x="40"/><use xlink:href="#singleCandle" x="50"/><use xlink:href="#singleCandle" x="60"/><use xlink:href="#singleCandle" x="70"/><use xlink:href="#singleCandle" x="80"/><use xlink:href="#singleCandle" x="90"/><use xlink:href="#singleCandle" x="100"/><use xlink:href="#singleCandle" x="110"/><use xlink:href="#singleCandle" x="120"/><use xlink:href="#singleCandle" x="130"/><use xlink:href="#singleCandle" x="140"/><use xlink:href="#singleCandle" x="150"/><use xlink:href="#singleCandle" x="160"/><use xlink:href="#singleCandle" x="170"/><use xlink:href="#singleCandle" x="180"/><use xlink:href="#singleCandle" x="190"/><use xlink:href="#singleCandle" x="200"/><use xlink:href="#singleCandle" x="210"/><use xlink:href="#singleCandle" x="220"/><use xlink:href="#singleCandle" x="230"/><use xlink:href="#singleCandle" x="240"/><use xlink:href="#singleCandle" x="250"/><use xlink:href="#singleCandle" x="260"/><use xlink:href="#singleCandle" x="270"/><use xlink:href="#singleCandle" x="280"/><use xlink:href="#singleCandle" x="290"/><use xlink:href="#singleCandle" x="300"/><use xlink:href="#singleCandle" x="310"/><use xlink:href="#singleCandle" x="320"/><use xlink:href="#singleCandle" x="330"/><use xlink:href="#singleCandle" x="340"/><use xlink:href="#singleCandle" x="350"/><use xlink:href="#singleCandle" x="360"/><use xlink:href="#singleCandle" x="370"/><use xlink:href="#singleCandle" x="380"/><use xlink:href="#singleCandle" x="390"/><use xlink:href="#singleCandle" x="400"/><use xlink:href="#singleCandle" x="410"/><use xlink:href="#singleCandle" x="420"/><use xlink:href="#singleCandle" x="430"/><use xlink:href="#singleCandle" x="440"/><use xlink:href="#singleCandle" x="450"/><use xlink:href="#singleCandle" x="460"/><use xlink:href="#singleCandle" x="470"/><use xlink:href="#singleCandle" x="480"/><use xlink:href="#singleCandle" x="490"/><use xlink:href="#singleCandle" x="500"/><use xlink:href="#singleCandle" x="510"/><use xlink:href="#singleCandle" x="520"/><use xlink:href="#singleCandle" x="530"/><use xlink:href="#singleCandle" x="540"/><use xlink:href="#singleCandle" x="550"/><use xlink:href="#singleCandle" x="560"/><use xlink:href="#singleCandle" x="570"/><use xlink:href="#singleCandle" x="580"/><use xlink:href="#singleCandle" x="590"/><use xlink:href="#singleCandle" x="600"/><use xlink:href="#singleCandle" x="610"/><use xlink:href="#singleCandle" x="620"/><use xlink:href="#singleCandle" x="630"/><use xlink:href="#singleCandle" x="640"/><use xlink:href="#singleCandle" x="650"/><use xlink:href="#singleCandle" x="660"/><use xlink:href="#singleCandle" x="670"/><use xlink:href="#singleCandle" x="680"/><use xlink:href="#singleCandle" x="690"/><use xlink:href="#singleCandle" x="700"/><use xlink:href="#singleCandle" x="710"/><use xlink:href="#singleCandle" x="720"/><use xlink:href="#singleCandle" x="730"/><use xlink:href="#singleCandle" x="740"/><use xlink:href="#singleCandle" x="750"/><use xlink:href="#singleCandle" x="760"/><use xlink:href="#singleCandle" x="770"/><use xlink:href="#singleCandle" x="780"/><use xlink:href="#singleCandle" x="790"/><use xlink:href="#singleCandle" x="800"/><use xlink:href="#singleCandle" x="810"/><use xlink:href="#singleCandle" x="820"/><use xlink:href="#singleCandle" x="830"/><use xlink:href="#singleCandle" x="840"/><use xlink:href="#singleCandle" x="850"/><use xlink:href="#singleCandle" x="860"/><use xlink:href="#singleCandle" x="870"/><use xlink:href="#singleCandle" x="880"/><use xlink:href="#singleCandle" x="890"/><use xlink:href="#singleCandle" x="900"/><use xlink:href="#singleCandle" x="910"/><use xlink:href="#singleCandle" x="920"/><use xlink:href="#singleCandle" x="930"/><use xlink:href="#singleCandle" x="940"/><use xlink:href="#singleCandle" x="950"/><use xlink:href="#singleCandle" x="960"/><use xlink:href="#singleCandle" x="970"/><use xlink:href="#singleCandle" x="980"/><use xlink:href="#singleCandle" x="990"/><use xlink:href="#singleCandle" x="1000"/><use xlink:href="#singleCandle" x="1010"/><use xlink:href="#singleCandle" x="1020"/><use xlink:href="#singleCandle" x="1030"/><use xlink:href="#singleCandle" x="1040"/><use xlink:href="#singleCandle" x="1050"/><use xlink:href="#singleCandle" x="1060"/><use xlink:href="#singleCandle" x="1070"/><use xlink:href="#singleCandle" x="1080"/><use xlink:href="#singleCandle" x="1090"/><use xlink:href="#singleCandle" x="1100"/><use xlink:href="#singleCandle" x="1110"/><use xlink:href="#singleCandle" x="1120"/><use xlink:href="#singleCandle" x="1130"/><use xlink:href="#singleCandle" x="1140"/><use xlink:href="#singleCandle" x="1150"/><use xlink:href="#singleCandle" x="1160"/><use xlink:href="#singleCandle" x="1170"/><use xlink:href="#singleCandle" x="1180"/><use xlink:href="#singleCandle" x="1190"/><use xlink:href="#singleCandle" x="1200"/><use xlink:href="#singleCandle" x="1210"/><use xlink:href="#singleCandle" x="1220"/><use xlink:href="#singleCandle" x="1230"/><use xlink:href="#singleCandle" x="1240"/><use xlink:href="#singleCandle" x="1250"/><use xlink:href="#singleCandle" x="1260"/><use xlink:href="#singleCandle" x="1270"/><use xlink:href="#singleCandle" x="1280"/><use xlink:href="#singleCandle" x="1290"/><use xlink:href="#singleCandle" x="1300"/><use xlink:href="#singleCandle" x="1310"/><use xlink:href="#singleCandle" x="1320"/><use xlink:href="#singleCandle" x="1330"/><use xlink:href="#singleCandle" x="1340"/><use xlink:href="#singleCandle" x="1350"/><use xlink:href="#singleCandle" x="1360"/><use xlink:href="#singleCandle" x="1370"/><use xlink:href="#singleCandle" x="1380"/><use xlink:href="#singleCandle" x="1390"/><use xlink:href="#singleCandle" x="1400"/><use xlink:href="#singleCandle" x="1410"/><use xlink:href="#singleCandle" x="1420"/><use xlink:href="#singleCandle" x="1430"/><use xlink:href="#singleCandle" x="1440"/><use xlink:href="#singleCandle" x="1450"/><use xlink:href="#singleCandle" x="1460"/><use xlink:href="#singleCandle" x="1470"/><use xlink:href="#singleCandle" x="1480"/><use xlink:href="#singleCandle" x="1490"/><use xlink:href="#singleCandle" x="1500"/><use xlink:href="#singleCandle" x="1510"/><use xlink:href="#singleCandle" x="1520"/><use xlink:href="#singleCandle" x="1530"/><use xlink:href="#singleCandle" x="1540"/><use xlink:href="#singleCandle" x="1550"/><use xlink:href="#singleCandle" x="1560"/><use xlink:href="#singleCandle" x="1570"/><use xlink:href="#singleCandle" x="1580"/><use xlink:href="#singleCandle" x="1590"/><use xlink:href="#singleCandle" x="1600"/><use xlink:href="#singleCandle" x="1610"/><use xlink:href="#singleCandle" x="1620"/><use xlink:href="#singleCandle" x="1630"/><use xlink:href="#singleCandle" x="1640"/><use xlink:href="#singleCandle" x="1650"/><use xlink:href="#singleCandle" x="1660"/><use xlink:href="#singleCandle" x="1670"/><use xlink:href="#singleCandle" x="1680"/><use xlink:href="#singleCandle" x="1690"/><use xlink:href="#singleCandle" x="1700"/><use xlink:href="#singleCandle" x="1710"/><use xlink:href="#singleCandle" x="1720"/><use xlink:href="#singleCandle" x="1730"/><use xlink:href="#singleCandle" x="1740"/><use xlink:href="#singleCandle" x="1750"/><use xlink:href="#singleCandle" x="1760"/><use xlink:href="#singleCandle" x="1770"/><use xlink:href="#singleCandle" x="1780"/><use xlink:href="#singleCandle" x="1790"/><use xlink:href="#singleCandle" x="1800"/><use xlink:href="#singleCandle" x="1810"/><use xlink:href="#singleCandle" x="1820"/><use xlink:href="#singleCandle" x="1830"/><use xlink:href="#singleCandle" x="1840"/><use xlink:href="#singleCandle" x="1850"/><use xlink:href="#singleCandle" x="1860"/><use xlink:href="#singleCandle" x="1870"/><use xlink:href="#singleCandle" x="1880"/><use xlink:href="#singleCandle" x="1890"/><use xlink:href="#singleCandle" x="1900"/><use xlink:href="#singleCandle" x="1910"/><use xlink:href="#singleCandle" x="1920"/><use xlink:href="#singleCandle" x="1930"/><use xlink:href="#singleCandle" x="1940"/><use xlink:href="#singleCandle" x="1950"/><use xlink:href="#singleCandle" x="1960"/><use xlink:href="#singleCandle" x="1970"/><use xlink:href="#singleCandle" x="1980"/><use xlink:href="#singleCandle" x="1990"/><use xlink:href="#singleCandle" x="2000"/><use xlink:href="#singleCandle" x="2010"/><use xlink:href="#singleCandle" x="2020"/><use xlink:href="#singleCandle" x="2030"/><use xlink:href="#singleCandle" x="2040"/><use xlink:href="#singleCandle" x="2050"/></svg></svg>
