<svg xmlns="http://www.w3.org/2000/svg" viewBox="0 0 76 76"><!--numberOfSides = 33, lengthOfStraightEdge = 1, radiusOfLoop = 14, angleOfRotation = 36, strokeColor = #ff0048, backgroundColor = #544549--><defs><path class="example" id="blooper8" d="
        M 37.5 37.95225578886319
        L 38.5 37.95225578886319
        L 52.5 37.95225578886319
        A 14 14
        0 1 0
        55.14951742104575 10.205254027185298
        L 38.5 37.95225578886319
        "></path></defs><use href="#blooper8" transform="rotate(36, 38, 38)"></use><use href="#blooper8" transform="rotate(46.90909090909091, 38, 38)"></use><use href="#blooper8" transform="rotate(57.81818181818181, 38, 38)"></use><use href="#blooper8" transform="rotate(68.72727272727272, 38, 38)"></use><use href="#blooper8" transform="rotate(79.63636363636363, 38, 38)"></use><use href="#blooper8" transform="rotate(90.54545454545453, 38, 38)"></use><use href="#blooper8" transform="rotate(101.45454545454545, 38, 38)"></use><use href="#blooper8" transform="rotate(112.36363636363636, 38, 38)"></use><use href="#blooper8" transform="rotate(123.27272727272727, 38, 38)"></use><use href="#blooper8" transform="rotate(134.1818181818182, 38, 38)"></use><use href="#blooper8" transform="rotate(145.09090909090907, 38, 38)"></use><use href="#blooper8" transform="rotate(156, 38, 38)"></use><use href="#blooper8" transform="rotate(166.9090909090909, 38, 38)"></use><use href="#blooper8" transform="rotate(177.8181818181818, 38, 38)"></use><use href="#blooper8" transform="rotate(188.72727272727272, 38, 38)"></use><use href="#blooper8" transform="rotate(199.63636363636363, 38, 38)"></use><use href="#blooper8" transform="rotate(210.54545454545453, 38, 38)"></use><use href="#blooper8" transform="rotate(221.45454545454544, 38, 38)"></use><use href="#blooper8" transform="rotate(232.36363636363635, 38, 38)"></use><use href="#blooper8" transform="rotate(243.27272727272725, 38, 38)"></use><use href="#blooper8" transform="rotate(254.18181818181816, 38, 38)"></use><use href="#blooper8" transform="rotate(265.09090909090907, 38, 38)"></use><use href="#blooper8" transform="rotate(276, 38, 38)"></use><use href="#blooper8" transform="rotate(286.9090909090909, 38, 38)"></use><use href="#blooper8" transform="rotate(297.8181818181818, 38, 38)"></use><use href="#blooper8" transform="rotate(308.7272727272727, 38, 38)"></use><use href="#blooper8" transform="rotate(319.6363636363636, 38, 38)"></use><use href="#blooper8" transform="rotate(330.5454545454545, 38, 38)"></use><use href="#blooper8" transform="rotate(341.45454545454544, 38, 38)"></use><use href="#blooper8" transform="rotate(352.3636363636363, 38, 38)"></use><use href="#blooper8" transform="rotate(363.27272727272725, 38, 38)"></use><use href="#blooper8" transform="rotate(374.18181818181813, 38, 38)"></use><use href="#blooper8" transform="rotate(385.09090909090907, 38, 38)"></use></svg>