<svg xmlns="http://www.w3.org/2000/svg" viewBox="0 0 248 248"><!--numberOfSides = 32, lengthOfStraightEdge = 13, radiusOfLoop = 23, angleOfRotation = 54, color = hsl(270, 100%, 50%)--><defs><style>
        #loopedHook2d {
          stroke: currentColor;
          stroke-width: 1px;
          fill: none;
        }</style><path id="loopedHook2d" d="
        M 117.5 58.00439248054241
        L 130.5 58.00439248054241
        L 132.76530227721477 58.00439248054241
        A 23 23
        0 1 0
        128.27822487084381 57.562453929816705
        L 130.5 58.00439248054241
        "></path></defs><use href="#loopedHook2d" transform="rotate(54, 124, 124)"></use><use href="#loopedHook2d" transform="rotate(65.25, 124, 124)"></use><use href="#loopedHook2d" transform="rotate(76.5, 124, 124)"></use><use href="#loopedHook2d" transform="rotate(87.75, 124, 124)"></use><use href="#loopedHook2d" transform="rotate(99, 124, 124)"></use><use href="#loopedHook2d" transform="rotate(110.25, 124, 124)"></use><use href="#loopedHook2d" transform="rotate(121.5, 124, 124)"></use><use href="#loopedHook2d" transform="rotate(132.75, 124, 124)"></use><use href="#loopedHook2d" transform="rotate(144, 124, 124)"></use><use href="#loopedHook2d" transform="rotate(155.25, 124, 124)"></use><use href="#loopedHook2d" transform="rotate(166.5, 124, 124)"></use><use href="#loopedHook2d" transform="rotate(177.75, 124, 124)"></use><use href="#loopedHook2d" transform="rotate(189, 124, 124)"></use><use href="#loopedHook2d" transform="rotate(200.25, 124, 124)"></use><use href="#loopedHook2d" transform="rotate(211.5, 124, 124)"></use><use href="#loopedHook2d" transform="rotate(222.75, 124, 124)"></use><use href="#loopedHook2d" transform="rotate(234, 124, 124)"></use><use href="#loopedHook2d" transform="rotate(245.25, 124, 124)"></use><use href="#loopedHook2d" transform="rotate(256.5, 124, 124)"></use><use href="#loopedHook2d" transform="rotate(267.75, 124, 124)"></use><use href="#loopedHook2d" transform="rotate(279, 124, 124)"></use><use href="#loopedHook2d" transform="rotate(290.25, 124, 124)"></use><use href="#loopedHook2d" transform="rotate(301.5, 124, 124)"></use><use href="#loopedHook2d" transform="rotate(312.75, 124, 124)"></use><use href="#loopedHook2d" transform="rotate(324, 124, 124)"></use><use href="#loopedHook2d" transform="rotate(335.25, 124, 124)"></use><use href="#loopedHook2d" transform="rotate(346.5, 124, 124)"></use><use href="#loopedHook2d" transform="rotate(357.75, 124, 124)"></use><use href="#loopedHook2d" transform="rotate(369, 124, 124)"></use><use href="#loopedHook2d" transform="rotate(380.25, 124, 124)"></use><use href="#loopedHook2d" transform="rotate(391.5, 124, 124)"></use><use href="#loopedHook2d" transform="rotate(402.75, 124, 124)"></use></svg>