<svg xmlns="http://www.w3.org/2000/svg" viewBox="0 0 199 199"><!--numberOfSides = 25, lengthOfStraightEdge = -22, radiusOfLoop = -300, angleOfRotation = 36, color = #ff009d--><defs><path class="example" id="loopedHook5b" d="
        M 110.5 186.5739659713641
        L 88.5 186.5739659713641
        L 50.60118646616755 186.5739659713641
        A -300 -300
        0 1 0
        125.20815261562416 195.99901763277478
        L 88.5 186.5739659713641
        "></path></defs><use href="#loopedHook5b" transform="rotate(36, 99.5, 99.5)"></use><use href="#loopedHook5b" transform="rotate(50.4, 99.5, 99.5)"></use><use href="#loopedHook5b" transform="rotate(64.8, 99.5, 99.5)"></use><use href="#loopedHook5b" transform="rotate(79.2, 99.5, 99.5)"></use><use href="#loopedHook5b" transform="rotate(93.6, 99.5, 99.5)"></use><use href="#loopedHook5b" transform="rotate(108, 99.5, 99.5)"></use><use href="#loopedHook5b" transform="rotate(122.4, 99.5, 99.5)"></use><use href="#loopedHook5b" transform="rotate(136.8, 99.5, 99.5)"></use><use href="#loopedHook5b" transform="rotate(151.2, 99.5, 99.5)"></use><use href="#loopedHook5b" transform="rotate(165.6, 99.5, 99.5)"></use><use href="#loopedHook5b" transform="rotate(180, 99.5, 99.5)"></use><use href="#loopedHook5b" transform="rotate(194.4, 99.5, 99.5)"></use><use href="#loopedHook5b" transform="rotate(208.8, 99.5, 99.5)"></use><use href="#loopedHook5b" transform="rotate(223.20000000000002, 99.5, 99.5)"></use><use href="#loopedHook5b" transform="rotate(237.6, 99.5, 99.5)"></use><use href="#loopedHook5b" transform="rotate(252, 99.5, 99.5)"></use><use href="#loopedHook5b" transform="rotate(266.4, 99.5, 99.5)"></use><use href="#loopedHook5b" transform="rotate(280.8, 99.5, 99.5)"></use><use href="#loopedHook5b" transform="rotate(295.2, 99.5, 99.5)"></use><use href="#loopedHook5b" transform="rotate(309.6, 99.5, 99.5)"></use><use href="#loopedHook5b" transform="rotate(324, 99.5, 99.5)"></use><use href="#loopedHook5b" transform="rotate(338.40000000000003, 99.5, 99.5)"></use><use href="#loopedHook5b" transform="rotate(352.8, 99.5, 99.5)"></use><use href="#loopedHook5b" transform="rotate(367.2, 99.5, 99.5)"></use><use href="#loopedHook5b" transform="rotate(381.6, 99.5, 99.5)"></use></svg>