<svg xmlns="http://www.w3.org/2000/svg" viewBox="0 0 32 32"><!--numberOfSides = 26, lengthOfStraightEdge = 2, radiusOfLoop = 3, angleOfRotation = 60, color = #ff4d00--><defs><style>
        #loopedHook3d {
          stroke: currentColor;
          stroke-width: 1px;
          fill: none;
        }</style><path id="loopedHook3d" d="
        M 15 7.764259045501506
        L 17 7.764259045501506
        L 17.36426594966678 7.764259045501506
        A 3 3
        0 1 0
        16.64631895680411 7.677084497779662
        L 17 7.764259045501506
        "></path></defs><use href="#loopedHook3d" transform="rotate(60, 16, 16)"></use><use href="#loopedHook3d" transform="rotate(73.84615384615384, 16, 16)"></use><use href="#loopedHook3d" transform="rotate(87.6923076923077, 16, 16)"></use><use href="#loopedHook3d" transform="rotate(101.53846153846155, 16, 16)"></use><use href="#loopedHook3d" transform="rotate(115.38461538461539, 16, 16)"></use><use href="#loopedHook3d" transform="rotate(129.23076923076923, 16, 16)"></use><use href="#loopedHook3d" transform="rotate(143.0769230769231, 16, 16)"></use><use href="#loopedHook3d" transform="rotate(156.92307692307693, 16, 16)"></use><use href="#loopedHook3d" transform="rotate(170.76923076923077, 16, 16)"></use><use href="#loopedHook3d" transform="rotate(184.6153846153846, 16, 16)"></use><use href="#loopedHook3d" transform="rotate(198.46153846153845, 16, 16)"></use><use href="#loopedHook3d" transform="rotate(212.30769230769232, 16, 16)"></use><use href="#loopedHook3d" transform="rotate(226.15384615384616, 16, 16)"></use><use href="#loopedHook3d" transform="rotate(240, 16, 16)"></use><use href="#loopedHook3d" transform="rotate(253.84615384615387, 16, 16)"></use><use href="#loopedHook3d" transform="rotate(267.69230769230774, 16, 16)"></use><use href="#loopedHook3d" transform="rotate(281.53846153846155, 16, 16)"></use><use href="#loopedHook3d" transform="rotate(295.38461538461536, 16, 16)"></use><use href="#loopedHook3d" transform="rotate(309.2307692307692, 16, 16)"></use><use href="#loopedHook3d" transform="rotate(323.0769230769231, 16, 16)"></use><use href="#loopedHook3d" transform="rotate(336.9230769230769, 16, 16)"></use><use href="#loopedHook3d" transform="rotate(350.7692307692308, 16, 16)"></use><use href="#loopedHook3d" transform="rotate(364.61538461538464, 16, 16)"></use><use href="#loopedHook3d" transform="rotate(378.46153846153845, 16, 16)"></use><use href="#loopedHook3d" transform="rotate(392.3076923076923, 16, 16)"></use><use href="#loopedHook3d" transform="rotate(406.1538461538462, 16, 16)"></use></svg>