<svg xmlns="http://www.w3.org/2000/svg" viewBox="0 0 179 179"><defs><style>
        #loopedHook3a {
          stroke: currentColor;
          stroke-width: 1px;
          fill: none;
        }</style><path id="loopedHook3a" d="
        M 86.5 50.424538219331424
        L 92.5 50.424538219331424
        L 94.11226501566688 50.424538219331424
        A 21 21
        0 1 0
        90.90663004707051 50.178427118718744
        L 92.5 50.424538219331424
        "></path></defs><use href="#loopedHook3a" transform="rotate(51, 89.5, 89.5)"></use><use href="#loopedHook3a" transform="rotate(59.78048780487805, 89.5, 89.5)"></use><use href="#loopedHook3a" transform="rotate(68.5609756097561, 89.5, 89.5)"></use><use href="#loopedHook3a" transform="rotate(77.34146341463415, 89.5, 89.5)"></use><use href="#loopedHook3a" transform="rotate(86.1219512195122, 89.5, 89.5)"></use><use href="#loopedHook3a" transform="rotate(94.90243902439025, 89.5, 89.5)"></use><use href="#loopedHook3a" transform="rotate(103.6829268292683, 89.5, 89.5)"></use><use href="#loopedHook3a" transform="rotate(112.46341463414635, 89.5, 89.5)"></use><use href="#loopedHook3a" transform="rotate(121.2439024390244, 89.5, 89.5)"></use><use href="#loopedHook3a" transform="rotate(130.02439024390245, 89.5, 89.5)"></use><use href="#loopedHook3a" transform="rotate(138.8048780487805, 89.5, 89.5)"></use><use href="#loopedHook3a" transform="rotate(147.58536585365854, 89.5, 89.5)"></use><use href="#loopedHook3a" transform="rotate(156.3658536585366, 89.5, 89.5)"></use><use href="#loopedHook3a" transform="rotate(165.14634146341464, 89.5, 89.5)"></use><use href="#loopedHook3a" transform="rotate(173.9268292682927, 89.5, 89.5)"></use><use href="#loopedHook3a" transform="rotate(182.70731707317074, 89.5, 89.5)"></use><use href="#loopedHook3a" transform="rotate(191.4878048780488, 89.5, 89.5)"></use><use href="#loopedHook3a" transform="rotate(200.26829268292684, 89.5, 89.5)"></use><use href="#loopedHook3a" transform="rotate(209.0487804878049, 89.5, 89.5)"></use><use href="#loopedHook3a" transform="rotate(217.82926829268294, 89.5, 89.5)"></use><use href="#loopedHook3a" transform="rotate(226.609756097561, 89.5, 89.5)"></use><use href="#loopedHook3a" transform="rotate(235.39024390243904, 89.5, 89.5)"></use><use href="#loopedHook3a" transform="rotate(244.1707317073171, 89.5, 89.5)"></use><use href="#loopedHook3a" transform="rotate(252.95121951219514, 89.5, 89.5)"></use><use href="#loopedHook3a" transform="rotate(261.7317073170732, 89.5, 89.5)"></use><use href="#loopedHook3a" transform="rotate(270.5121951219512, 89.5, 89.5)"></use><use href="#loopedHook3a" transform="rotate(279.2926829268293, 89.5, 89.5)"></use><use href="#loopedHook3a" transform="rotate(288.07317073170736, 89.5, 89.5)"></use><use href="#loopedHook3a" transform="rotate(296.8536585365854, 89.5, 89.5)"></use><use href="#loopedHook3a" transform="rotate(305.6341463414634, 89.5, 89.5)"></use><use href="#loopedHook3a" transform="rotate(314.4146341463415, 89.5, 89.5)"></use><use href="#loopedHook3a" transform="rotate(323.19512195121956, 89.5, 89.5)"></use><use href="#loopedHook3a" transform="rotate(331.9756097560976, 89.5, 89.5)"></use><use href="#loopedHook3a" transform="rotate(340.7560975609756, 89.5, 89.5)"></use><use href="#loopedHook3a" transform="rotate(349.5365853658537, 89.5, 89.5)"></use><use href="#loopedHook3a" transform="rotate(358.31707317073176, 89.5, 89.5)"></use><use href="#loopedHook3a" transform="rotate(367.0975609756098, 89.5, 89.5)"></use><use href="#loopedHook3a" transform="rotate(375.8780487804878, 89.5, 89.5)"></use><use href="#loopedHook3a" transform="rotate(384.6585365853659, 89.5, 89.5)"></use><use href="#loopedHook3a" transform="rotate(393.43902439024396, 89.5, 89.5)"></use><use href="#loopedHook3a" transform="rotate(402.219512195122, 89.5, 89.5)"></use></svg>