<svg  xmlns="http://www.w3.org/2000/svg" viewBox="0 0 119 119"><defs><style>
        #loopedHook2b {
          stroke: currentColor;
          stroke-width: 1px;
          fill: none;
        }</style><path id="loopedHook2b" d="
        M 56.5 15.641552445138267
        L 62.5 15.641552445138267
        L 62.8420093696029 15.641552445138267
        A 5 5
        0 1 0
        62.16117612412167 15.59498217531992
        L 62.5 15.641552445138267
        "></path></defs><use href="#loopedHook2b" transform="rotate(44, 59.5, 59.5)"></use><use href="#loopedHook2b" transform="rotate(51.82608695652174, 59.5, 59.5)"></use><use href="#loopedHook2b" transform="rotate(59.65217391304348, 59.5, 59.5)"></use><use href="#loopedHook2b" transform="rotate(67.47826086956522, 59.5, 59.5)"></use><use href="#loopedHook2b" transform="rotate(75.30434782608695, 59.5, 59.5)"></use><use href="#loopedHook2b" transform="rotate(83.13043478260869, 59.5, 59.5)"></use><use href="#loopedHook2b" transform="rotate(90.95652173913044, 59.5, 59.5)"></use><use href="#loopedHook2b" transform="rotate(98.78260869565217, 59.5, 59.5)"></use><use href="#loopedHook2b" transform="rotate(106.6086956521739, 59.5, 59.5)"></use><use href="#loopedHook2b" transform="rotate(114.43478260869566, 59.5, 59.5)"></use><use href="#loopedHook2b" transform="rotate(122.26086956521739, 59.5, 59.5)"></use><use href="#loopedHook2b" transform="rotate(130.08695652173913, 59.5, 59.5)"></use><use href="#loopedHook2b" transform="rotate(137.91304347826087, 59.5, 59.5)"></use><use href="#loopedHook2b" transform="rotate(145.73913043478262, 59.5, 59.5)"></use><use href="#loopedHook2b" transform="rotate(153.56521739130434, 59.5, 59.5)"></use><use href="#loopedHook2b" transform="rotate(161.3913043478261, 59.5, 59.5)"></use><use href="#loopedHook2b" transform="rotate(169.2173913043478, 59.5, 59.5)"></use><use href="#loopedHook2b" transform="rotate(177.04347826086956, 59.5, 59.5)"></use><use href="#loopedHook2b" transform="rotate(184.8695652173913, 59.5, 59.5)"></use><use href="#loopedHook2b" transform="rotate(192.69565217391303, 59.5, 59.5)"></use><use href="#loopedHook2b" transform="rotate(200.52173913043478, 59.5, 59.5)"></use><use href="#loopedHook2b" transform="rotate(208.34782608695653, 59.5, 59.5)"></use><use href="#loopedHook2b" transform="rotate(216.17391304347825, 59.5, 59.5)"></use><use href="#loopedHook2b" transform="rotate(224, 59.5, 59.5)"></use><use href="#loopedHook2b" transform="rotate(231.82608695652175, 59.5, 59.5)"></use><use href="#loopedHook2b" transform="rotate(239.65217391304347, 59.5, 59.5)"></use><use href="#loopedHook2b" transform="rotate(247.47826086956522, 59.5, 59.5)"></use><use href="#loopedHook2b" transform="rotate(255.30434782608697, 59.5, 59.5)"></use><use href="#loopedHook2b" transform="rotate(263.1304347826087, 59.5, 59.5)"></use><use href="#loopedHook2b" transform="rotate(270.95652173913044, 59.5, 59.5)"></use><use href="#loopedHook2b" transform="rotate(278.7826086956522, 59.5, 59.5)"></use><use href="#loopedHook2b" transform="rotate(286.6086956521739, 59.5, 59.5)"></use><use href="#loopedHook2b" transform="rotate(294.4347826086956, 59.5, 59.5)"></use><use href="#loopedHook2b" transform="rotate(302.2608695652174, 59.5, 59.5)"></use><use href="#loopedHook2b" transform="rotate(310.0869565217391, 59.5, 59.5)"></use><use href="#loopedHook2b" transform="rotate(317.9130434782609, 59.5, 59.5)"></use><use href="#loopedHook2b" transform="rotate(325.7391304347826, 59.5, 59.5)"></use><use href="#loopedHook2b" transform="rotate(333.5652173913044, 59.5, 59.5)"></use><use href="#loopedHook2b" transform="rotate(341.39130434782606, 59.5, 59.5)"></use><use href="#loopedHook2b" transform="rotate(349.2173913043478, 59.5, 59.5)"></use><use href="#loopedHook2b" transform="rotate(357.04347826086956, 59.5, 59.5)"></use><use href="#loopedHook2b" transform="rotate(364.8695652173913, 59.5, 59.5)"></use><use href="#loopedHook2b" transform="rotate(372.69565217391306, 59.5, 59.5)"></use><use href="#loopedHook2b" transform="rotate(380.5217391304348, 59.5, 59.5)"></use><use href="#loopedHook2b" transform="rotate(388.3478260869565, 59.5, 59.5)"></use><use href="#loopedHook2b" transform="rotate(396.17391304347825, 59.5, 59.5)"></use></svg>