<svg xmlns="http://www.w3.org/2000/svg" viewBox="0 0 155 155"><!--numberOfSides = 88, lengthOfStraightEdge = -5, radiusOfLoop = -60, angleOfRotation = 68, color = #ff0008--><defs><path class="example" id="loopedHook5d" d="
        M 80 147.4984225019746
        L 75 147.4984225019746
        L 72.8570945652987 147.4984225019746
        A -60 -60
        0 1 0
        77.13744555725262 147.65129562535938
        L 75 147.4984225019746
        "></path></defs><use href="#loopedHook5d" transform="rotate(68, 77.5, 77.5)"></use><use href="#loopedHook5d" transform="rotate(72.0909090909091, 77.5, 77.5)"></use><use href="#loopedHook5d" transform="rotate(76.18181818181819, 77.5, 77.5)"></use><use href="#loopedHook5d" transform="rotate(80.27272727272728, 77.5, 77.5)"></use><use href="#loopedHook5d" transform="rotate(84.36363636363636, 77.5, 77.5)"></use><use href="#loopedHook5d" transform="rotate(88.45454545454545, 77.5, 77.5)"></use><use href="#loopedHook5d" transform="rotate(92.54545454545455, 77.5, 77.5)"></use><use href="#loopedHook5d" transform="rotate(96.63636363636364, 77.5, 77.5)"></use><use href="#loopedHook5d" transform="rotate(100.72727272727272, 77.5, 77.5)"></use><use href="#loopedHook5d" transform="rotate(104.81818181818181, 77.5, 77.5)"></use><use href="#loopedHook5d" transform="rotate(108.9090909090909, 77.5, 77.5)"></use><use href="#loopedHook5d" transform="rotate(113, 77.5, 77.5)"></use><use href="#loopedHook5d" transform="rotate(117.0909090909091, 77.5, 77.5)"></use><use href="#loopedHook5d" transform="rotate(121.18181818181819, 77.5, 77.5)"></use><use href="#loopedHook5d" transform="rotate(125.27272727272728, 77.5, 77.5)"></use><use href="#loopedHook5d" transform="rotate(129.36363636363637, 77.5, 77.5)"></use><use href="#loopedHook5d" transform="rotate(133.45454545454544, 77.5, 77.5)"></use><use href="#loopedHook5d" transform="rotate(137.54545454545456, 77.5, 77.5)"></use><use href="#loopedHook5d" transform="rotate(141.63636363636363, 77.5, 77.5)"></use><use href="#loopedHook5d" transform="rotate(145.72727272727272, 77.5, 77.5)"></use><use href="#loopedHook5d" transform="rotate(149.8181818181818, 77.5, 77.5)"></use><use href="#loopedHook5d" transform="rotate(153.9090909090909, 77.5, 77.5)"></use><use href="#loopedHook5d" transform="rotate(158, 77.5, 77.5)"></use><use href="#loopedHook5d" transform="rotate(162.0909090909091, 77.5, 77.5)"></use><use href="#loopedHook5d" transform="rotate(166.1818181818182, 77.5, 77.5)"></use><use href="#loopedHook5d" transform="rotate(170.27272727272725, 77.5, 77.5)"></use><use href="#loopedHook5d" transform="rotate(174.36363636363637, 77.5, 77.5)"></use><use href="#loopedHook5d" transform="rotate(178.45454545454544, 77.5, 77.5)"></use><use href="#loopedHook5d" transform="rotate(182.54545454545456, 77.5, 77.5)"></use><use href="#loopedHook5d" transform="rotate(186.63636363636363, 77.5, 77.5)"></use><use href="#loopedHook5d" transform="rotate(190.72727272727272, 77.5, 77.5)"></use><use href="#loopedHook5d" transform="rotate(194.8181818181818, 77.5, 77.5)"></use><use href="#loopedHook5d" transform="rotate(198.9090909090909, 77.5, 77.5)"></use><use href="#loopedHook5d" transform="rotate(203, 77.5, 77.5)"></use><use href="#loopedHook5d" transform="rotate(207.0909090909091, 77.5, 77.5)"></use><use href="#loopedHook5d" transform="rotate(211.1818181818182, 77.5, 77.5)"></use><use href="#loopedHook5d" transform="rotate(215.27272727272728, 77.5, 77.5)"></use><use href="#loopedHook5d" transform="rotate(219.36363636363637, 77.5, 77.5)"></use><use href="#loopedHook5d" transform="rotate(223.45454545454544, 77.5, 77.5)"></use><use href="#loopedHook5d" transform="rotate(227.54545454545453, 77.5, 77.5)"></use><use href="#loopedHook5d" transform="rotate(231.63636363636363, 77.5, 77.5)"></use><use href="#loopedHook5d" transform="rotate(235.72727272727272, 77.5, 77.5)"></use><use href="#loopedHook5d" transform="rotate(239.8181818181818, 77.5, 77.5)"></use><use href="#loopedHook5d" transform="rotate(243.9090909090909, 77.5, 77.5)"></use><use href="#loopedHook5d" transform="rotate(248, 77.5, 77.5)"></use><use href="#loopedHook5d" transform="rotate(252.0909090909091, 77.5, 77.5)"></use><use href="#loopedHook5d" transform="rotate(256.1818181818182, 77.5, 77.5)"></use><use href="#loopedHook5d" transform="rotate(260.27272727272725, 77.5, 77.5)"></use><use href="#loopedHook5d" transform="rotate(264.3636363636364, 77.5, 77.5)"></use><use href="#loopedHook5d" transform="rotate(268.45454545454544, 77.5, 77.5)"></use><use href="#loopedHook5d" transform="rotate(272.5454545454545, 77.5, 77.5)"></use><use href="#loopedHook5d" transform="rotate(276.6363636363636, 77.5, 77.5)"></use><use href="#loopedHook5d" transform="rotate(280.72727272727275, 77.5, 77.5)"></use><use href="#loopedHook5d" transform="rotate(284.8181818181818, 77.5, 77.5)"></use><use href="#loopedHook5d" transform="rotate(288.9090909090909, 77.5, 77.5)"></use><use href="#loopedHook5d" transform="rotate(293, 77.5, 77.5)"></use><use href="#loopedHook5d" transform="rotate(297.0909090909091, 77.5, 77.5)"></use><use href="#loopedHook5d" transform="rotate(301.1818181818182, 77.5, 77.5)"></use><use href="#loopedHook5d" transform="rotate(305.27272727272725, 77.5, 77.5)"></use><use href="#loopedHook5d" transform="rotate(309.3636363636364, 77.5, 77.5)"></use><use href="#loopedHook5d" transform="rotate(313.45454545454544, 77.5, 77.5)"></use><use href="#loopedHook5d" transform="rotate(317.5454545454545, 77.5, 77.5)"></use><use href="#loopedHook5d" transform="rotate(321.6363636363636, 77.5, 77.5)"></use><use href="#loopedHook5d" transform="rotate(325.72727272727275, 77.5, 77.5)"></use><use href="#loopedHook5d" transform="rotate(329.8181818181818, 77.5, 77.5)"></use><use href="#loopedHook5d" transform="rotate(333.9090909090909, 77.5, 77.5)"></use><use href="#loopedHook5d" transform="rotate(338, 77.5, 77.5)"></use><use href="#loopedHook5d" transform="rotate(342.09090909090907, 77.5, 77.5)"></use><use href="#loopedHook5d" transform="rotate(346.1818181818182, 77.5, 77.5)"></use><use href="#loopedHook5d" transform="rotate(350.27272727272725, 77.5, 77.5)"></use><use href="#loopedHook5d" transform="rotate(354.3636363636364, 77.5, 77.5)"></use><use href="#loopedHook5d" transform="rotate(358.45454545454544, 77.5, 77.5)"></use><use href="#loopedHook5d" transform="rotate(362.54545454545456, 77.5, 77.5)"></use><use href="#loopedHook5d" transform="rotate(366.6363636363636, 77.5, 77.5)"></use><use href="#loopedHook5d" transform="rotate(370.72727272727275, 77.5, 77.5)"></use><use href="#loopedHook5d" transform="rotate(374.8181818181818, 77.5, 77.5)"></use><use href="#loopedHook5d" transform="rotate(378.9090909090909, 77.5, 77.5)"></use><use href="#loopedHook5d" transform="rotate(383, 77.5, 77.5)"></use><use href="#loopedHook5d" transform="rotate(387.09090909090907, 77.5, 77.5)"></use><use href="#loopedHook5d" transform="rotate(391.1818181818182, 77.5, 77.5)"></use><use href="#loopedHook5d" transform="rotate(395.27272727272725, 77.5, 77.5)"></use><use href="#loopedHook5d" transform="rotate(399.3636363636364, 77.5, 77.5)"></use><use href="#loopedHook5d" transform="rotate(403.45454545454544, 77.5, 77.5)"></use><use href="#loopedHook5d" transform="rotate(407.54545454545456, 77.5, 77.5)"></use><use href="#loopedHook5d" transform="rotate(411.6363636363636, 77.5, 77.5)"></use><use href="#loopedHook5d" transform="rotate(415.72727272727275, 77.5, 77.5)"></use><use href="#loopedHook5d" transform="rotate(419.8181818181818, 77.5, 77.5)"></use><use href="#loopedHook5d" transform="rotate(423.9090909090909, 77.5, 77.5)"></use></svg>