<svg id="furthest_point" viewBox="0.5 0 15 14" xmlns="http://www.w3.org/2000/svg" class="dark_aware">
  <defs>
    <style>
      #furthest_point path {
        stroke: currentColor;
        stroke-width: 0.5;
        fill: none;
      }

      #furthest_point path.length_marker {
        stroke: var(--accent-grey);
        stroke-width: 0.08;
        fill: none;
      }

      #furthest_point path.dashed {
        stroke: var(--accent-grey);
        stroke-width: 0.08;
        fill: none;
        stroke-dasharray: 0.2 0.2;
      }

      #furthest_point circle {
        stroke: none;
        fill: var(--primary-color);
      }

      #furthest_point circle.center {
        stroke: var(--primary-color);
        stroke-width: 0.1;
        fill: white;
      }

      @media (prefers-color-scheme: dark) {
        #furthest_point circle.center {
          stroke: var(--primary-color);
          stroke-width: 0.1;
          fill: black;
        }
      }

      #furthest_point path.angle {
        fill: var(--primary-color);
        opacity: 0.35;
        stroke: none;
      }

      #furthest_point text.blue {
        font-size: 0.65px;
        stroke: none;
        fill: var(--primary-color);
      }

      #furthest_point text.grey {
        font-size: 0.65px;
        stroke: none;
        fill: var(--accent-grey);
      }

      #furthest_point text.italic {
        font-style: italic;
      }

      #furthest_point circle.grey {
        stroke: none;
        fill: var(--accent-grey);
      }
    </style>
  </defs>

  <svg x="3.55">
  <path d="M 6.5 6 L 5.75 4.7 A 2.598076211353316 2.598076211353316 0 1 1 8 6 Z"/>
</svg>

  <svg x="4.5" y="-3">
    <path d="M 7 9"/>
    <circle cx="7" cy="6.5" r="0.25" class="grey"/>
  </svg>

  <svg y="11.5">
    <path class="length_marker"
      d="M 7.5 1  L 7.5 0.65 L 7.5 1.35
         M 7.5 1  L 7.8 0.7
         M 7.5 1  L 7.8 1.3
         M 7.5 1  L 11.5 1
         M 11.5 1 L 11.5 0.65 L 11.5 1.35
         M 11.5 1 L 11.2 0.7
         M 11.5 1 L 11.2 1.3"
      />
    <text x="9.5" y="1.7" text-anchor="middle" dominant-baseline="middle" class="grey italic">L / 2 + s</text>
  </svg>

  <svg x="0.5" y="1">
    <svg x="0.5">
      <path class="length_marker"
        d="M 1 2.5 L 0.65 2.5 L 1.35 2.5
           M 1 2.5 L 0.7 2.8
           M 1 2.5 L 1.3 2.8
           M 1 2.5 L 1 5
           M 1 5 L 0.65 5 L 1.35 5
           M 1 5 L 0.7 4.7
           M 1 5 L 1.3 4.7"
      />
    </svg>
    <text x="1" y="3.75" text-anchor="middle" dominant-baseline="middle" class="grey italic">r</text>
  </svg>

  <path d="M 7.5 10 l 4 -6.5 l 4 -6.5" class="dashed"/>

  <svg x="0.5" y="3.5">
    <svg x="0.5">
      <path class="length_marker"
        d="M 1 2.5 L 0.65 2.5 L 1.35 2.5
           M 1 2.5 L 0.7 2.8
           M 1 2.5 L 1.3 2.8
           M 1 2.5 L 1 6.5
           M 1 6.5 L 0.65 6.5 L 1.35 6.5
           M 1 6.5 L 0.7 6.2
           M 1 6.5 L 1.3 6.2"
      />
    </svg>
    <text x="1" y="4.5" text-anchor="middle" dominant-baseline="middle" class="grey italic">h</text>

    <svg y="1.5">
      <path d="M 3 1 L 10.8 1"/>

      <text x="7" y="6.1" text-anchor="middle" dominant-baseline="middle" class="blue">centre</text>

      <circle cx="7" cy="5" r="0.5" class="center"/>
    </svg>
  </svg>
</svg>
