<svg viewBox="0 0 22 22" xmlns="http://www.w3.org/2000/svg" style="background-color: #0F295D;">

    <defs>
      <style>
        .blue_quarters path {
          stroke: #DCE8FF;
          stroke-width: 0.15770652887316539;
          stroke-linecap: round;
          fill: none;
        }
      </style>
    </defs>

		<title>
			A graphic made of thick blue lines and circular arcs, split into quarters.
			It looks vaguely like some sort of radar scanner.
		</title>

<svg class="blue_quarters">
<path d="M 11.0 10.0 A 1 1 0 0 1 12.0 11.0"/>
<path d="M 10.0 11.0 A 1 1 0 0 1 11.0 10.0"/>
<path d="M 12.0 11.0 L 13.0 11.0"/>
<path d="M 11.0 9.0 L 11.0 8.0"/>
<path d="M 11.0 12.0 L 11.0 13.0"/>
<path d="M 13.0 11.0 L 14.0 11.0"/>
<path d="M 11.0 13.0 L 11.0 14.0"/>
<path d="M 11.0 13.0 A 2 2 0 0 1 9.0 11.0"/>
<path d="M 11.0 8.0 L 11.0 7.0"/>
<path d="M 14.0 11.0 L 15.0 11.0"/>
<path d="M 11.0 14.0 L 11.0 15.0"/>
<path d="M 8.0 11.0 L 7.0 11.0"/>
<path d="M 11.0 7.0 A 4 4 0 0 1 15.0 11.0"/>
<path d="M 7.0 11.0 A 4 4 0 0 1 10.999999999999998 7.0"/>
<path d="M 15.0 11.0 L 16.0 11.0"/>
<path d="M 11.0 15.0 L 11.0 16.0"/>
<path d="M 7.0 11.0 L 6.0 11.0"/>
<path d="M 11.0 6.0 L 11.0 5.0"/>
<path d="M 6.0 11.000000000000002 A 5 5 0 0 1 10.999999999999998 6.0"/>
<path d="M 16.0 11.0 L 17.0 11.0"/>
<path d="M 11.0 16.0 L 11.0 17.0"/>
<path d="M 17.0 11.0 A 6 6 0 0 1 11.0 17.0"/>
<path d="M 11.0 17.0 A 6 6 0 0 1 5.0 11.000000000000002"/>
<path d="M 11.0 17.0 L 11.0 18.0"/>
<path d="M 5.0 11.0 L 4.0 11.0"/>
<path d="M 11.0 4.0 L 11.000000000000002 3.0"/>
<path d="M 18.0 11.0 A 7 7 0 0 1 11.0 18.0"/>
<path d="M 18.0 11.0 L 19.0 11.0"/>
<path d="M 3.0 11.000000000000002 A 8 8 0 0 1 10.999999999999998 3.0"/>
<path d="M 11.000000000000002 3.0 L 11.000000000000002 2.0"/>
<path d="M 19.0 11.0 L 20.0 11.0"/>
<path d="M 19.0 11.0 A 8 8 0 0 1 11.000000000000002 19.0"/>
<path d="M 3.0 11.0 L 2.0 11.0"/>
<path d="M 11.0 2.0 A 9 9 0 0 1 20.0 11.0"/>
<path d="M 11.000000000000002 2.0 L 11.000000000000002 1.0"/>
<path d="M 20.0 11.0 L 21.0 11.0"/>
<path d="M 20.0 11.0 A 9 9 0 0 1 11.000000000000002 20.0"/>
<path d="M 21.0 11.0 A 10 10 0 0 1 11.000000000000002 21.0"/>
<path d="M 11.000000000000002 21.0 A 10 10 0 0 1 1.0 11.000000000000002"/>
</svg>
</svg>
