<svg viewBox="0 0 12 12" xmlns="http://www.w3.org/2000/svg" style="background-color: #122440;">

    <defs>
      <style>
        .blue_hexagon path {
          stroke: #4990ff;
          stroke-width: 0.25432253791405857;
          stroke-linecap: round;
          fill: none;
        }
      </style>
    </defs>

		<title>
			A graphic made of blue lines in a hexagon shape.
			There's a spoke running through the centre, and the two upper-right sides are open, helping to give a very clear sense of direction: this shape is moving up and to the right.
		</title>


<svg x="0" y="0" class="blue_hexagon">
<path d="M 6,6 L 6.0,5.0"/>
<path d="M 6.866025403784438 5.5 L 7.732050807568877 5.0"/>
<path d="M 6,6 L 6.866025403784438,5.5"/>
<path d="M 6,6 L 5.133974596215562,6.5"/>
<path d="M 5.133974596215562 5.5 L 5.133974596215562 6.5"/>
<path d="M 6.0 4.0 L 4.267949192431123 5.0"/>
<path d="M 6.0 4.0 L 7.732050807568877 5.0"/>
<path d="M 6.0 4.0 L 6.0 3.0"/>
<path d="M 6.866025403784438 6.5 L 6.0 7.0"/>
<path d="M 7.732050807568877 5.0 L 8.598076211353316 4.5"/>
<path d="M 7.732050807568877 5.0 L 7.732050807568878 7.0"/>
<path d="M 6.0 7.0 L 5.133974596215562 6.5"/>
<path d="M 5.133974596215562 6.5 L 4.267949192431123 7.000000000000001"/>
<path d="M 6.0 8.0 L 6.0 9.0"/>
<path d="M 4.267949192431123 7.000000000000001 L 3.4019237886466844 7.500000000000001"/>
<path d="M 4.267949192431123 5.0 L 3.401923788646684 4.5"/>
<path d="M 8.598076211353316 4.5 L 8.598076211353316 7.5"/>
<path d="M 6.0 9.0 L 6.0 10.0"/>
<path d="M 3.4019237886466844 7.500000000000001 L 2.535898384862246 8.000000000000002"/>
<path d="M 6.000000000000001 2.0 L 2.5358983848622456 3.9999999999999996"/>
<path d="M 6.000000000000001 2.0 L 9.464101615137753 3.9999999999999996"/>
<path d="M 9.464101615137753 3.9999999999999996 L 9.464101615137755 8.0"/>
<path d="M 9.464101615137753 3.9999999999999996 L 10.330127018922193 3.4999999999999996"/>
<path d="M 9.464101615137755 8.0 L 6.0 10.0"/>
<path d="M 2.535898384862246 8.000000000000002 L 2.5358983848622456 3.9999999999999996"/>
<path d="M 2.5358983848622456 3.9999999999999996 L 1.6698729810778072 3.4999999999999996"/>
<path d="M 6.000000000000001 1.0 L 1.6698729810778072 3.4999999999999996"/>
<path d="M 10.330127018922195 8.5 L 6.0 11.0"/>
<path d="M 6.0 11.0 L 1.6698729810778072 8.500000000000002"/>
<path d="M 1.6698729810778072 8.500000000000002 L 1.6698729810778072 3.4999999999999996"/>
</svg>
</svg>
