<svg viewBox="0 0 5 5" xmlns="http://www.w3.org/2000/svg" style="background-color: #ffece0;">
  <defs>
    <style>
      path.brown1 {
        stroke: #a33f00;
        stroke-width: 0.3019583846169761;
        stroke-linecap: round;
        fill: none;
      }
    </style>
  </defs>

	<title>
		A simple graphic made of connected dark brown lines on a light brown background.
		All the lines are at right angles to each other, and rise up from a single horizontal line on the base.
		The left-hand side looks like a "y" and a "u" placed on top of each other; the right-hand side looks like a capital "E" with an extra bar.
	</title>

	<path class="brown1" d="M 1,1 L 1,2"/>
	<path class="brown1" d="M 2,1 L 2,2"/>
	<path class="brown1" d="M 1,2 L 2,2"/>
	<path class="brown1" d="M 3,1 L 3,2"/>
	<path class="brown1" d="M 3,1 L 4,1"/>
	<path class="brown1" d="M 2,2 L 2,3"/>
	<path class="brown1" d="M 1,3 L 1,4"/>
	<path class="brown1" d="M 3,2 L 4,2"/>
	<path class="brown1" d="M 3,2 L 3,3"/>
	<path class="brown1" d="M 2,3 L 2,4"/>
	<path class="brown1" d="M 1,4 L 2,4"/>
	<path class="brown1" d="M 3,3 L 4,3"/>
	<path class="brown1" d="M 3,3 L 3,4"/>
	<path class="brown1" d="M 2,4 L 3,4"/>
	<path class="brown1" d="M 3,4 L 4,4"/>
</svg>
