<svg viewBox="0 0 5 5" xmlns="http://www.w3.org/2000/svg" style="background-color: #ffece0;">

    <defs>
      <style>
        .brown2 path {
          stroke: #a33f00;
          stroke-width: 0.6588740620799088;
          stroke-linecap: round;
          fill: none;
        }
      </style>
    </defs>

<svg class="brown2">
<path d="M 1,1 L 1,2"/>
<path d="M 2,1 L 3,1"/>
<path d="M 2,1 L 2,2"/>
<path d="M 1,2 L 2,2"/>
<path d="M 2,2 L 3,2"/>
<path d="M 1,3 L 2,3"/>
<path d="M 1,3 L 1,4"/>
<path d="M 3,2 L 3,3"/>
<path d="M 2,3 L 3,3"/>
<path d="M 1,4 L 2,4"/>
<path d="M 3,3 L 4,3"/>
<path d="M 3,3 L 3,4"/>
<path d="M 4,1 L 4,2"/>
<path d="M 4,2 L 4,3"/>
<path d="M 4,3 L 4,4"/>
</svg>
</svg>