<svg viewBox="0 0 12 12" xmlns="http://www.w3.org/2000/svg" style="background-color: #f1faba;">

    <defs>
      <style>
        #cream_clock path {
          stroke: #475106;
          stroke-width: 0.3976454555617417;
          stroke-linecap: round;
          fill: none;
        }
      </style>
    </defs>

		<title>
			A simple graphic made of connected dark brown lines.
			The lines form a sort of curved pentagon shape, with three lines coming out of the central point that make it look vaguely like a clock.
		</title>

<svg x="0" y="0" id="cream_clock">
<path d="M 6,6 L 6.0,5.0"/>
<path d="M 6,6 L 6.951056516295154,5.6909830056250525"/>
<path d="M 6.951056516295154 5.6909830056250525 L 7.902113032590307 5.381966011250105"/>
<path d="M 6,6 L 5.412214747707527,6.8090169943749475"/>
<path d="M 5.048943483704846 5.6909830056250525 L 4.097886967409693 5.381966011250105"/>
<path d="M 7.902113032590307 5.381966011250105 A 2 2 0 0 1 7.175570504584947 7.618033988749895"/>
<path d="M 4.097886967409693 5.381966011250105 L 3.146830451114539 5.072949016875158"/>
<path d="M 7.175570504584947 7.618033988749895 L 7.763355756877419 8.427050983124843"/>
<path d="M 7.76335575687742 8.427050983124841 A 3 3 0 0 0 4.236644243122581 8.427050983124843"/>
<path d="M 4.236644243122581 8.427050983124843 A 3 3 0 0 1 3.146830451114539 5.0729490168751585"/>
<path d="M 3.146830451114539 5.0729490168751585 A 3 3 0 0 0 5.999999999999999 3.0"/>
<path d="M 4.236644243122581 8.427050983124843 L 3.6488589908301075 9.23606797749979"/>
<path d="M 9.804226065180615 4.76393202250021 L 10.755282581475768 4.454915028125264"/>
<path d="M 10.755282581475768 4.454915028125263 A 5 5 0 0 1 8.938926261462367 10.045084971874736"/>
<path d="M 6.0 1.0 A 5 5 0 0 0 10.755282581475768 4.454915028125263"/>
<path d="M 1.2447174185242318 4.454915028125264 A 5 5 0 0 0 5.999999999999999 1.0"/>
</svg>
</svg>
