<svg viewBox="0 0 18 18" xmlns="http://www.w3.org/2000/svg" style="background-color: #ffcda3;">

    <defs>
      <style>
        .curvy_hex path {
          stroke: #8a3e00;
          stroke-width: 0.43140129039048075;
          stroke-linecap: round;
          fill: none;
        }
      </style>
    </defs>

		<title>
			An orange graphic with three sets of curves bending inwards, three outwards, to form a sort of curvy hexagon.
		</title>

<svg class="curvy_hex">
<path d="M 9.0 8.0 A 1 1 0 0 0 9.86602540378444 8.5"/>
<path d="M 8.13397459621556 8.5 A 1 1 0 0 1 9.0 8.0"/>
<path d="M 8.13397459621556 8.5 L 7.267949192431123 8.0"/>
<path d="M 9.0 7.0 A 2 2 0 0 0 10.732050807568877 8.0"/>
<path d="M 7.267949192431123 8.0 A 2 2 0 0 1 9.0 7.0"/>
<path d="M 9.86602540378444 9.5 A 1 1 0 0 0 9.0 10.0"/>
<path d="M 9.86602540378444 9.5 L 10.732050807568877 10.0"/>
<path d="M 10.732050807568877 8.0 A 2 2 0 0 1 10.732050807568879 10.0"/>
<path d="M 9.0 10.0 A 1 1 0 0 1 8.133974596215563 9.5"/>
<path d="M 9.0 10.0 L 9.0 11.0"/>
<path d="M 9.0 11.0 A 2 2 0 0 1 7.267949192431123 10.0"/>
<path d="M 9.0 11.0 L 9.0 12.0"/>
<path d="M 7.267949192431123 10.0 L 6.401923788646684 10.5"/>
<path d="M 9.0 6.0 A 3 3 0 0 0 11.598076211353316 7.5"/>
<path d="M 11.598076211353316 7.5 A 3 3 0 0 1 11.598076211353316 10.5"/>
<path d="M 11.598076211353316 10.5 A 3 3 0 0 0 9.0 12.0"/>
<path d="M 11.598076211353316 10.5 L 12.464101615137755 11.0"/>
<path d="M 6.401923788646685 10.500000000000002 A 3 3 0 0 0 6.401923788646683 7.500000000000002"/>
<path d="M 6.401923788646684 7.5 L 5.535898384862246 7.0"/>
<path d="M 9.0 5.0 A 4 4 0 0 0 12.464101615137753 7.0"/>
<path d="M 12.464101615137753 7.0 A 4 4 0 0 1 12.464101615137755 11.0"/>
<path d="M 12.464101615137755 11.0 A 4 4 0 0 0 9.0 13.0"/>
<path d="M 9.0 13.0 L 9.0 14.0"/>
<path d="M 5.5358983848622465 11.000000000000002 A 4 4 0 0 0 5.535898384862244 7.000000000000003"/>
<path d="M 9.0 4.0 A 5 5 0 0 0 13.330127018922193 6.5"/>
<path d="M 9.0 4.0 L 9.0 3.0"/>
<path d="M 13.330127018922193 6.5 A 5 5 0 0 1 13.330127018922195 11.5"/>
<path d="M 13.330127018922195 11.5 A 5 5 0 0 0 9.0 14.0"/>
<path d="M 9.0 14.0 L 9.0 15.0"/>
<path d="M 9.0 14.0 A 5 5 0 0 1 4.669872981077808 11.500000000000002"/>
<path d="M 4.669872981077808 11.500000000000002 A 5 5 0 0 0 4.669872981077805 6.5000000000000036"/>
<path d="M 4.669872981077807 6.5 L 3.803847577293368 5.999999999999999"/>
<path d="M 9.0 3.0 A 6 6 0 0 0 14.196152422706632 5.999999999999999"/>
<path d="M 14.196152422706632 5.999999999999999 L 15.06217782649107 5.499999999999999"/>
<path d="M 14.196152422706632 11.999999999999998 A 6 6 0 0 0 9.0 15.0"/>
<path d="M 3.8038475772933698 12.000000000000004 A 6 6 0 0 0 3.803847577293366 6.000000000000004"/>
<path d="M 2.9378221735089296 5.5 A 7 7 0 0 1 8.999999999999998 2.0"/>
<path d="M 15.06217782649107 5.499999999999999 A 7 7 0 0 1 15.062177826491071 12.499999999999998"/>
<path d="M 15.062177826491071 12.5 L 15.92820323027551 13.0"/>
<path d="M 9.0 16.0 L 9.0 17.0"/>
<path d="M 9.0 16.0 A 7 7 0 0 1 2.9378221735089314 12.500000000000004"/>
<path d="M 2.9378221735089314 12.500000000000004 A 7 7 0 0 0 2.937822173508927 5.500000000000005"/>
<path d="M 2.9378221735089305 12.500000000000002 L 2.071796769724492 13.000000000000004"/>
<path d="M 2.9378221735089296 5.499999999999999 L 2.0717967697244912 4.999999999999999"/>
<path d="M 9.0 1.0 A 8 8 0 0 0 15.928203230275509 4.999999999999999"/>
<path d="M 15.928203230275509 4.999999999999999 A 8 8 0 0 1 15.92820323027551 12.999999999999998"/>
<path d="M 15.92820323027551 12.999999999999998 A 8 8 0 0 0 9.000000000000002 17.0"/>
</svg>
</svg>
