<svg viewBox="0 0 100 100" xmlns="http://www.w3.org/2000/svg">

	<defs>
		<style>
			.experiment path {
				stroke: #aaa;
				stroke-width: 1;
				stroke-linecap: round;
				fill: black;
			}
		</style>
	</defs>

	<svg class="experiment">
		<path d="M 90.0 50.0 A 40 40 0.0 0 1 78.2842712474619 78.2842712474619"/>
		<path d="M 78.2842712474619 78.2842712474619 A 40 40 0.0 0 1 50.0 90.0"/>
		<path d="M 80.0 50.0 A 30 30 0.0 0 1 71.21320343559643 71.21320343559643"/>
		<path d="M 50.0 90.0 A 40 40 0.0 0 1 21.715728752538098 78.2842712474619"/>
		<path d="M 21.715728752538098 78.2842712474619 A 40 40 0.0 0 1 10.0 50.0"/>
		<path d="M 50.0 80.0 A 30 30 0.0 0 1 28.786796564403573 71.21320343559643"/>
		<path d="M 28.786796564403573 71.21320343559643 A 30 30 0.0 0 1 20.0 50.0"/>
		<path d="M 20.0 50.0 A 30 30 0.0 0 1 28.786796564403573 28.786796564403573"/>
		<path d="M 49.999999999999986 10.0 A 40 40 0.0 0 1 78.2842712474619 21.715728752538098"/>
		<path d="M 50.0 20.0 A 30 30 0.0 0 1 71.21320343559643 28.786796564403573"/>
		<path d="M 70.0 50.0 A 20 20 0.0 0 1 64.14213562373095 64.14213562373095"/>
		<path d="M 50.0 70.0 A 20 20 0.0 0 1 35.85786437626905 64.14213562373095"/>
		<path d="M 30.0 50.0 A 20 20 0.0 0 1 35.85786437626905 35.85786437626905"/>
		<path d="M 50.0 30.0 A 20 20 0.0 0 1 64.14213562373095 35.85786437626905"/>
		<path d="M 60.0 50.0 A 10 10 0.0 0 1 57.071067811865476 57.071067811865476"/>
		<path d="M 57.071067811865476 57.071067811865476 A 10 10 0.0 0 1 50.0 60.0"/>
		<path d="M 42.928932188134524 57.071067811865476 A 10 10 0.0 0 1 40.0 50.0"/>
		<path d="M 50.0 40.0 A 10 10 0.0 0 1 57.071067811865476 42.928932188134524"/>
	</svg>
</svg>