<svg viewBox="0 0 12 12" xmlns="http://www.w3.org/2000/svg" style="background-color: #38002f;">

    <defs>
      <style>
        .four_point_curve path {
          stroke: #ff00d4;
          stroke-width: 0.07059437958079653;
          stroke-linecap: round;
          fill: none;
        }
      </style>
    </defs>

		<title>
			A graphic made of pink curves around a four pointed cross.
			The four points are at right angles; three of the right angles have sweeping curves that approach the centre, but the fourth is empty.
		</title>

<svg x="0" y="0" class="four_point_curve">
<path d="M 6,6 L 6.0,5.0"/>
<path d="M 6.0 5.0 L 6.0 4.0"/>
<path d="M 5.0 6.0 A 1 1 0 0 0 6.0 5.0"/>
<path d="M 7.0 6.0 L 8.0 6.0"/>
<path d="M 7.0 6.0 A 1 1 0 0 0 6.0 7.0"/>
<path d="M 6,6 L 6.0,7.0"/>
<path d="M 5.0 6.0 L 4.0 6.0"/>
<path d="M 6.0 7.0 L 6.0 8.0"/>
<path d="M 8.0 6.0 L 9.0 6.0"/>
<path d="M 6.0 3.0 A 3 3 0 0 0 9.0 6.0"/>
<path d="M 3.0 6.000000000000001 A 3 3 0 0 0 5.999999999999999 3.0"/>
<path d="M 9.0 6.0 L 10.0 6.0"/>
<path d="M 9.0 6.0 A 3 3 0 0 0 6.0 9.0"/>
<path d="M 6.0 9.0 L 6.0 10.0"/>
<path d="M 6.0 2.0 A 4 4 0 0 0 10.0 6.0"/>
<path d="M 2.0 6.000000000000001 A 4 4 0 0 0 5.999999999999999 2.0"/>
<path d="M 2.0 6.0 L 1.0 6.0"/>
<path d="M 6.0 1.0 A 5 5 0 0 0 11.0 6.0"/>
<path d="M 1.0 6.000000000000001 A 5 5 0 0 0 5.999999999999999 1.0"/>
<path d="M 11.0 6.0 A 5 5 0 0 0 6.000000000000001 11.0"/>
</svg>
</svg>
