<svg viewBox="0 0 30 30" xmlns="http://www.w3.org/2000/svg" style="background-color: #D0E4DF;">

    <defs>
      <style>
        .green_radar path {
          stroke: #097C5F;
          stroke-width: 0.21160133454272986;
          stroke-linecap: round;
          fill: none;
        }
      </style>
    </defs>

<svg class="green_radar">
<path d="M 15.0 14.0 L 15.0 13.0"/>
<path d="M 15.707106781186548 14.292893218813452 L 16.414213562373096 13.585786437626904"/>
<path d="M 15.707106781186548 14.292893218813452 A 1 1 0 0 1 16.0 15.0"/>
<path d="M 15,15 L 15.707106781186548,14.292893218813452"/>
<path d="M 15,15 L 14.0,15.0"/>
<path d="M 14.292893218813452 14.292893218813452 L 13.585786437626904 13.585786437626904"/>
<path d="M 13.585786437626904 13.585786437626904 A 2 2 0 0 1 15.0 13.0"/>
<path d="M 16.414213562373096 13.585786437626904 L 17.121320343559642 12.878679656440358"/>
<path d="M 16.414213562373096 13.585786437626904 A 2 2 0 0 1 17.0 15.0"/>
<path d="M 15.707106781186548 15.707106781186548 A 1 1 0 0 1 15.0 16.0"/>
<path d="M 15.0 16.0 L 15.0 17.0"/>
<path d="M 15.0 16.0 A 1 1 0 0 1 14.292893218813452 15.707106781186548"/>
<path d="M 14.292893218813452 15.707106781186548 A 1 1 0 0 1 14.0 15.0"/>
<path d="M 17.0 15.0 L 18.0 15.0"/>
<path d="M 17.0 15.0 A 2 2 0 0 1 16.414213562373096 16.414213562373096"/>
<path d="M 15.0 17.0 L 15.0 18.0"/>
<path d="M 13.585786437626904 16.414213562373096 A 2 2 0 0 1 13.0 15.0"/>
<path d="M 13.0 15.0 L 12.0 15.0"/>
<path d="M 13.0 15.0 A 2 2 0 0 1 13.585786437626904 13.585786437626904"/>
<path d="M 12.878679656440358 12.878679656440358 A 3 3 0 0 1 15.0 12.0"/>
<path d="M 17.121320343559642 17.121320343559642 A 3 3 0 0 1 15.0 18.0"/>
<path d="M 15.0 18.0 L 15.0 19.0"/>
<path d="M 12.878679656440358 17.121320343559642 A 3 3 0 0 1 12.0 15.0"/>
<path d="M 12.0 15.0 L 11.0 15.0"/>
<path d="M 12.878679656440358 12.878679656440358 L 12.17157287525381 12.17157287525381"/>
<path d="M 12.171572875253808 12.17157287525381 A 4 4 0 0 1 14.999999999999998 11.0"/>
<path d="M 15.0 11.0 L 15.0 10.0"/>
<path d="M 17.82842712474619 12.17157287525381 A 4 4 0 0 1 19.0 15.0"/>
<path d="M 19.0 15.0 L 20.0 15.0"/>
<path d="M 19.0 15.0 A 4 4 0 0 1 17.82842712474619 17.82842712474619"/>
<path d="M 17.82842712474619 17.82842712474619 A 4 4 0 0 1 15.0 19.0"/>
<path d="M 15.0 19.0 A 4 4 0 0 1 12.17157287525381 17.82842712474619"/>
<path d="M 12.17157287525381 17.82842712474619 A 4 4 0 0 1 11.0 15.0"/>
<path d="M 11.0 15.0 A 4 4 0 0 1 12.171572875253808 12.17157287525381"/>
<path d="M 15.0 10.0 L 15.0 9.0"/>
<path d="M 18.535533905932738 11.464466094067262 A 5 5 0 0 1 20.0 15.0"/>
<path d="M 20.0 15.0 L 21.0 15.0"/>
<path d="M 18.535533905932738 18.535533905932738 L 19.242640687119284 19.242640687119284"/>
<path d="M 15.0 20.0 L 15.0 21.0"/>
<path d="M 11.464466094067262 18.535533905932738 L 10.757359312880716 19.242640687119284"/>
<path d="M 10.0 15.000000000000002 A 5 5 0 0 1 11.464466094067262 11.464466094067262"/>
<path d="M 10.0 15.0 L 9.0 15.0"/>
<path d="M 15.0 9.0 A 6 6 0 0 1 19.242640687119284 10.757359312880714"/>
<path d="M 10.757359312880714 10.757359312880716 A 6 6 0 0 1 14.999999999999998 9.0"/>
<path d="M 19.242640687119284 19.242640687119284 L 19.94974746830583 19.949747468305834"/>
<path d="M 15.0 21.0 L 15.0 22.0"/>
<path d="M 10.757359312880716 19.242640687119284 L 10.050252531694168 19.949747468305834"/>
<path d="M 10.757359312880716 19.242640687119284 A 6 6 0 0 1 9.0 15.000000000000002"/>
<path d="M 9.0 15.000000000000002 A 6 6 0 0 1 10.757359312880714 10.757359312880716"/>
<path d="M 10.757359312880714 10.757359312880716 L 10.050252531694166 10.050252531694168"/>
<path d="M 15.0 8.0 A 7 7 0 0 1 19.94974746830583 10.050252531694166"/>
<path d="M 10.050252531694166 10.050252531694168 A 7 7 0 0 1 14.999999999999998 8.0"/>
<path d="M 22.0 15.0 L 23.0 15.0"/>
<path d="M 22.0 15.0 A 7 7 0 0 1 19.949747468305834 19.94974746830583"/>
<path d="M 19.94974746830583 19.949747468305834 L 20.65685424949238 20.65685424949238"/>
<path d="M 19.949747468305834 19.94974746830583 A 7 7 0 0 1 15.0 22.0"/>
<path d="M 15.0 22.0 A 7 7 0 0 1 10.050252531694168 19.949747468305834"/>
<path d="M 10.050252531694168 19.949747468305834 A 7 7 0 0 1 8.0 15.000000000000002"/>
<path d="M 15.000000000000002 7.0 L 15.000000000000002 6.0"/>
<path d="M 15.0 7.0 A 8 8 0 0 1 20.65685424949238 9.34314575050762"/>
<path d="M 20.65685424949238 20.65685424949238 A 8 8 0 0 1 15.000000000000002 23.0"/>
<path d="M 20.65685424949238 20.65685424949238 L 21.36396103067893 21.36396103067893"/>
<path d="M 15.000000000000002 23.0 A 8 8 0 0 1 9.34314575050762 20.656854249492383"/>
<path d="M 9.34314575050762 20.656854249492383 A 8 8 0 0 1 7.0 15.000000000000002"/>
<path d="M 9.34314575050762 20.65685424949238 L 8.636038969321072 21.36396103067893"/>
<path d="M 7.0 15.0 L 6.0 15.0"/>
<path d="M 7.0 15.000000000000002 A 8 8 0 0 1 9.343145750507619 9.34314575050762"/>
<path d="M 15.000000000000002 6.0 L 15.000000000000002 5.0"/>
<path d="M 15.0 6.0 A 9 9 0 0 1 21.36396103067893 8.63603896932107"/>
<path d="M 8.63603896932107 8.636038969321072 A 9 9 0 0 1 14.999999999999998 6.0"/>
<path d="M 24.0 15.0 A 9 9 0 0 1 21.36396103067893 21.36396103067893"/>
<path d="M 21.36396103067893 21.36396103067893 L 22.071067811865476 22.071067811865476"/>
<path d="M 15.0 24.0 L 15.0 25.0"/>
<path d="M 6.0 15.0 L 5.0 15.0"/>
<path d="M 6.0 15.000000000000002 A 9 9 0 0 1 8.63603896932107 8.636038969321072"/>
<path d="M 8.63603896932107 8.636038969321072 L 7.9289321881345245 7.928932188134525"/>
<path d="M 15.000000000000002 5.0 L 15.000000000000002 4.0"/>
<path d="M 22.071067811865476 7.928932188134525 L 22.77817459305202 7.221825406947978"/>
<path d="M 22.071067811865476 7.9289321881345245 A 10 10 0 0 1 25.0 15.0"/>
<path d="M 25.0 15.0 A 10 10 0 0 1 22.071067811865476 22.071067811865476"/>
<path d="M 22.071067811865476 22.071067811865476 A 10 10 0 0 1 15.000000000000002 25.0"/>
<path d="M 7.928932188134525 22.071067811865476 L 7.221825406947978 22.77817459305202"/>
<path d="M 7.928932188134525 22.071067811865476 A 10 10 0 0 1 5.0 15.000000000000002"/>
<path d="M 5.0 15.0 L 4.0 15.0"/>
<path d="M 22.77817459305202 7.221825406947977 A 11 11 0 0 1 26.0 15.0"/>
<path d="M 22.77817459305202 22.77817459305202 L 23.485281374238568 23.48528137423857"/>
<path d="M 15.000000000000002 26.0 A 11 11 0 0 1 7.221825406947978 22.778174593052025"/>
<path d="M 15.0 26.0 L 15.0 27.0"/>
<path d="M 4.0 15.0 L 3.0 15.0"/>
<path d="M 7.221825406947977 7.221825406947978 L 6.514718625761429 6.5147186257614305"/>
<path d="M 15.0 3.0 A 12 12 0 0 1 23.485281374238568 6.514718625761429"/>
<path d="M 23.485281374238568 6.514718625761429 A 12 12 0 0 1 27.0 15.0"/>
<path d="M 27.0 15.0 L 28.0 15.0"/>
<path d="M 23.48528137423857 23.485281374238568 A 12 12 0 0 1 15.000000000000002 27.0"/>
<path d="M 15.000000000000002 27.0 A 12 12 0 0 1 6.5147186257614305 23.48528137423857"/>
<path d="M 3.0 15.000000000000002 A 12 12 0 0 1 6.514718625761429 6.5147186257614305"/>
<path d="M 3.0 15.0 L 2.0 15.0"/>
<path d="M 6.514718625761429 6.5147186257614305 L 5.807611844574881 5.8076118445748826"/>
<path d="M 15.000000000000002 2.0 L 15.000000000000002 1.0"/>
<path d="M 24.19238815542512 5.8076118445748826 L 24.899494936611667 5.100505063388336"/>
<path d="M 24.192388155425117 5.807611844574881 A 13 13 0 0 1 28.0 15.0"/>
<path d="M 24.19238815542512 24.192388155425117 A 13 13 0 0 1 15.000000000000002 28.0"/>
<path d="M 24.192388155425117 24.19238815542512 L 24.899494936611664 24.899494936611667"/>
<path d="M 15.000000000000002 28.0 A 13 13 0 0 1 5.8076118445748826 24.19238815542512"/>
<path d="M 2.0 15.0 L 1.0 15.0"/>
<path d="M 15.0 1.0 A 14 14 0 0 1 24.899494936611664 5.100505063388335"/>
<path d="M 24.899494936611664 5.100505063388335 A 14 14 0 0 1 29.0 15.0"/>
<path d="M 29.0 15.0 A 14 14 0 0 1 24.899494936611667 24.899494936611664"/>
<path d="M 24.899494936611667 24.899494936611664 A 14 14 0 0 1 15.000000000000002 29.0"/>
<path d="M 15.000000000000002 29.0 A 14 14 0 0 1 5.100505063388336 24.899494936611667"/>
<path d="M 5.100505063388336 24.899494936611667 A 14 14 0 0 1 1.0 15.000000000000002"/>
<path d="M 1.0 15.000000000000002 A 14 14 0 0 1 5.100505063388333 5.100505063388336"/>
</svg>
</svg>