<svg viewBox="0 0 120 120" xmlns="http://www.w3.org/2000/svg">

    <defs>
      <style>
        .radial line {
  	      stroke: #aaa;
  	      stroke-width: 1;
          stroke-linecap: round;
          fill: none;
        }
      </style>
    </defs>

  	<title>
  		A partially completed pentagonal lattice made of thin grey lines.
			Unlike the previous lattice, the central point is included, and the three lines going into the centre give it quite a different look.
  	</title>

  	<svg class="radial">

<line x2="107.55282581475768" y2="44.54915028125265" x1="60.0" y1="10.0"/>
<line x2="12.447174185242325" y2="44.54915028125262" x1="60.0" y1="10.0"/>
<line x2="21.95773934819386" y2="47.639320225002095" x1="60.0" y1="20.0"/>
<line x2="60.0" y2="30.0" x1="60.0" y1="20.0"/>
<line x2="36.488589908301066" y2="92.36067977499789" x1="30.61073738537634" y1="100.45084971874735"/>
<line x2="36.488589908301066" y2="92.36067977499789" x1="21.95773934819386" y1="47.639320225002095"/>
<line x2="83.51141009169892" y2="92.36067977499789" x1="89.38926261462365" y1="100.45084971874738"/>
<line x2="83.51141009169892" y2="92.36067977499789" x1="36.488589908301066" y1="92.36067977499789"/>
<line x2="98.04226065180615" y2="47.63932022500211" x1="107.55282581475768" y1="44.54915028125265"/>
<line x2="98.04226065180615" y2="47.63932022500211" x1="83.51141009169892" y1="92.36067977499789"/>
<line x2="88.53169548885461" y2="50.72949016875158" x1="98.04226065180615" y1="47.63932022500211"/>
<line x2="60.0" y2="40.0" x1="60.0" y1="30.0"/>
<line x2="42.366442431225806" y2="84.27050983124842" x1="31.46830451114539" y1="50.72949016875157"/>
<line x2="40.97886967409693" y2="53.819660112501055" x1="31.46830451114539" y1="50.72949016875157"/>
<line x2="71.75570504584945" y2="76.18033988749895" x1="77.6335575687742" y1="84.27050983124843"/>
<line x2="79.02113032590307" y2="53.819660112501055" x1="60.0" y1="40.0"/>
<line x2="48.24429495415053" y2="76.18033988749895" x1="40.97886967409693" y1="53.819660112501055"/>
<line x2="60.0" y2="60.0" x1="48.24429495415053" y1="76.18033988749895"/>
<line x2="60.0" y2="60.0" x1="71.75570504584945" y1="76.18033988749895"/>
<line x2="60.0" y2="60.0" x1="79.02113032590307" y1="53.819660112501055"/>
</svg></svg>
