<svg viewBox="0 0 120 120" xmlns="http://www.w3.org/2000/svg">

    <defs>
      <style>
        .radial line {
  	      stroke: #aaa;
  	      stroke-width: 1;
          stroke-linecap: round;
          fill: none;
        }
      </style>
    </defs>

  	<title>
  		A partially completed decagonal lattice (ten sides) made of thin grey lines.
			Several of the segments are completely empty; others are filled.
  	</title>

  	<svg class="radial">

<line x2="30.610737385376353" y2="19.54915028125263" x1="60.0" y1="10.0"/>
<line x2="12.447174185242325" y2="44.54915028125262" x1="30.610737385376353" y1="19.54915028125263"/>
<!-- R0-P8, C -->
<line x2="60.0" y2="60.0" x1="107.55282581475768" y1="44.54915028125265"/>
<!-- R2-P1, C -->
<line x2="60.0" y2="60.0" x1="42.366442431225806" y1="35.72949016875157"/>
<!-- R0-P5, C -->
<line x2="60.0" y2="60.0" x1="59.999999999999986" y1="110.0"/>
<!-- R2-P4, C -->
<line x2="60.0" y2="60.0" x1="42.366442431225806" y1="84.27050983124842"/>
<!-- R2-P7, C -->
<line x2="60.0" y2="60.0" x1="88.53169548885461" y1="69.27050983124843"/>
<!-- R1-P1, C -->
<line x2="60.0" y2="60.0" x1="36.48858990830108" y1="27.63932022500211"/>
<!-- R1-P0, C -->
<line x2="60.0" y2="60.0" x1="60.0" y1="20.0"/>
<!-- R0-P7, C -->
<line x2="60.0" y2="60.0" x1="107.55282581475768" y1="75.45084971874739"/>
<!-- R0-P4, C -->
<line x2="60.0" y2="60.0" x1="30.61073738537634" y1="100.45084971874735"/>
<!-- R1-P2, C -->
<line x2="60.0" y2="60.0" x1="21.95773934819386" y1="47.639320225002095"/>
<!-- R0-P3, C -->
<line x2="60.0" y2="60.0" x1="12.447174185242318" y1="75.45084971874736"/>
<!-- R1-P5, C -->
<line x2="60.0" y2="60.0" x1="59.999999999999986" y1="100.0"/>
<!-- R2-P8, C -->
<line x2="60.0" y2="60.0" x1="88.53169548885461" y1="50.72949016875158"/>
<!-- R1-P6, C -->
<line x2="60.0" y2="60.0" x1="83.51141009169892" y1="92.36067977499789"/>
<line x2="12.447174185242318" y2="75.45084971874736" x1="12.447174185242325" y1="44.54915028125262"/>
<line x2="107.55282581475768" y2="75.45084971874739" x1="89.38926261462365" y1="100.45084971874738"/>
<line x2="89.38926261462368" y2="19.549150281252636" x1="107.55282581475768" y1="44.54915028125265"/>
<line x2="83.51141009169893" y2="27.63932022500211" x1="60.0" y1="20.0"/>
<line x2="21.957739348193854" y2="72.36067977499789" x1="21.95773934819386" y1="47.639320225002095"/>
<line x2="36.488589908301066" y2="92.36067977499789" x1="21.957739348193854" y1="72.36067977499789"/>
<line x2="98.04226065180615" y2="72.3606797749979" x1="83.51141009169892" y1="92.36067977499789"/>
<line x2="83.51141009169893" y2="27.63932022500211" x1="98.04226065180615" y1="47.63932022500211"/>
<line x2="42.366442431225806" y2="35.72949016875157" x1="60.0" y1="30.0"/>
<line x2="31.46830451114539" y2="69.27050983124842" x1="31.46830451114539" y1="50.72949016875157"/>
<line x2="42.366442431225806" y2="84.27050983124842" x1="31.46830451114539" y1="69.27050983124842"/>
<line x2="59.999999999999986" y2="90.0" x1="42.366442431225806" y1="84.27050983124842"/>
<line x2="88.53169548885461" y2="69.27050983124843" x1="77.6335575687742" y1="84.27050983124843"/>
<line x2="77.6335575687742" y2="35.72949016875158" x1="88.53169548885461" y1="50.72949016875158"/>
<line x2="48.24429495415055" y2="43.819660112501055" x1="60.0" y1="40.0"/>
<line x2="60.0" y2="50.0" x1="60.0" y1="40.0"/>
<line x2="71.75570504584947" y2="43.819660112501055" x1="60.0" y1="40.0"/>
<line x2="40.97886967409693" y2="53.819660112501055" x1="48.24429495415055" y1="43.819660112501055"/>
<line x2="54.12214747707527" y2="51.90983005625053" x1="48.24429495415055" y1="43.819660112501055"/>
<line x2="40.97886967409693" y2="66.18033988749895" x1="40.97886967409693" y1="53.819660112501055"/>
<line x2="50.489434837048464" y2="56.90983005625053" x1="40.97886967409693" y1="53.819660112501055"/>
<line x2="48.24429495415053" y2="76.18033988749895" x1="40.97886967409693" y1="66.18033988749895"/>
<line x2="50.489434837048464" y2="63.09016994374947" x1="40.97886967409693" y1="66.18033988749895"/>
<line x2="60.0" y2="80.0" x1="48.24429495415053" y1="76.18033988749895"/>
<line x2="54.12214747707527" y2="68.09016994374947" x1="48.24429495415053" y1="76.18033988749895"/>
<line x2="60.0" y2="70.0" x1="60.0" y1="80.0"/>
<line x2="71.75570504584945" y2="76.18033988749895" x1="60.0" y1="80.0"/>
<line x2="79.02113032590307" y2="66.18033988749896" x1="71.75570504584945" y1="76.18033988749895"/>
<line x2="65.87785252292473" y2="68.09016994374947" x1="71.75570504584945" y1="76.18033988749895"/>
<line x2="69.51056516295154" y2="63.09016994374947" x1="79.02113032590307" y1="66.18033988749896"/>
<line x2="69.51056516295154" y2="56.90983005625053" x1="79.02113032590307" y1="53.819660112501055"/>
<line x2="71.75570504584947" y2="43.819660112501055" x1="79.02113032590307" y1="53.819660112501055"/>
<line x2="65.87785252292474" y2="51.90983005625053" x1="71.75570504584947" y1="43.819660112501055"/>
</svg></svg>
