<svg viewBox="0 0 50 50" xmlns="http://www.w3.org/2000/svg">
	<defs>
	  <style>
	    .grey_conlang line {
	      stroke: #aaa;
	      stroke-width: 1;
	      stroke-linecap: round;
	      fill: none;
	    }
	  </style>
	</defs>
	<title>
		A graphic made of straight grey lines arranged at right angles to each other.
		There's a big enclosing square and then a slightly smaller square in the upper-left, a bit like one is enclosing the other.
	</title>
	<svg class="grey_conlang">
		<line x2="10" y2="10" x1="20" y1="10"/>
		<line x2="20" y2="10" x1="30" y1="10"/>
		<line x2="10" y2="20" x1="10" y1="30"/>
		<line x2="20" y2="20" x1="30" y1="20"/>
		<line x2="10" y2="30" x1="20" y1="30"/>
		<line x2="10" y2="30" x1="10" y1="40"/>
		<line x2="20" y2="30" x1="30" y1="30"/>
		<line x2="10" y2="40" x1="20" y1="40"/>
		<line x2="30" y2="10" x1="30" y1="20"/>
		<line x2="30" y2="10" x1="40" y1="10"/>
		<line x2="30" y2="20" x1="30" y1="30"/>
		<line x2="30" y2="40" x1="40" y1="40"/>
		<line x2="40" y2="10" x1="40" y1="20"/>
		<line x2="40" y2="20" x1="40" y1="30"/>
		<line x2="40" y2="30" x1="40" y1="40"/>
	</svg>
</svg>
