<svg viewBox="0 0 120 120" xmlns="http://www.w3.org/2000/svg">

    <defs>
      <style>
        .radial line {
  	      stroke: #aaa;
  	      stroke-width: 1;
          stroke-linecap: round;
          fill: none;
        }
      </style>
    </defs>

  	<title>
  		A partially completed radial lattice (don't ask me to count the number of sides).
			Although all the edges are straight lines, it looks a bit like a circle.
  	</title>

  	<svg class="radial">

<line x2="74.73775872054529" y2="12.221359710692987" x1="60.0" y1="10.0"/>
<line x2="31.83399709681892" y2="18.688061284200245" x1="45.2622412794548" y1="12.221359710692958"/>
<line x2="48.20979302356385" y2="21.777087768554367" x1="45.2622412794548" y1="12.221359710692958"/>
<line x2="71.79020697643622" y2="21.777087768554388" x1="60.0" y1="20.0"/>
<line x2="20.908425876598514" y2="28.82550990706332" x1="31.83399709681892" y1="18.688061284200245"/>
<line x2="51.15734476767288" y2="31.332815826415782" x1="48.20979302356385" y1="21.777087768554367"/>
<line x2="37.46719767745513" y2="26.950449027360193" x1="48.20979302356385" y1="21.777087768554367"/>
<line x2="28.726740701278814" y2="35.06040792565065" x1="20.908425876598514" y1="28.82550990706332"/>
<line x2="43.10039825809136" y2="35.21283677052014" x1="37.46719767745513" y1="26.950449027360193"/>
<line x2="10.139810140940995" y2="56.26349532067876" x1="13.456312567789801" y1="41.73294878168022"/>
<line x2="22.765050054231835" y2="45.38635902534418" x1="13.456312567789801" y1="41.73294878168022"/>
<line x2="22.765050054231835" y2="45.38635902534418" x1="28.726740701278814" y1="35.06040792565065"/>
<line x2="11.25360439090882" y2="71.12604669781571" x1="10.139810140940995" y1="56.26349532067876"/>
<line x2="20.111848112752796" y2="57.01079625654302" x1="22.765050054231835" y1="45.38635902534418"/>
<line x2="16.698729810778048" y2="84.99999999999997" x1="11.25360439090882" y1="71.12604669781571"/>
<line x2="25.991363111454007" y2="96.6525935914913" x1="16.698729810778048" y1="84.99999999999997"/>
<line x2="25.358983848622444" y2="79.99999999999997" x1="16.698729810778048" y1="84.99999999999997"/>
<line x2="25.358983848622444" y2="79.99999999999997" x1="21.002883512727053" y1="68.90083735825257"/>
<line x2="32.793090489163205" y2="89.32207487319303" x1="25.991363111454007" y1="96.6525935914913"/>
<line x2="52.54788669119124" y2="109.44154131125643" x1="38.30581304412209" y1="105.04844339512096"/>
<line x2="39.594817866872404" y2="81.99155615489478" x1="32.793090489163205" y1="89.32207487319303"/>
<line x2="54.03830935295299" y2="99.55323304900514" x1="52.54788669119124" y1="109.44154131125643"/>
<line x2="46.98348782647325" y2="87.02906603707257" x1="42.64465043529768" y1="96.03875471609678"/>
<line x2="81.6941869558779" y2="105.04844339512096" x1="67.45211330880873" y1="109.44154131125643"/>
<line x2="65.96169064704699" y2="99.55323304900514" x1="67.45211330880873" y1="109.44154131125643"/>
<line x2="65.96169064704699" y2="99.55323304900514" x1="54.03830935295299" y1="99.55323304900514"/>
<line x2="55.52873201471475" y2="89.66492478675386" x1="54.03830935295299" y1="99.55323304900514"/>
<line x2="94.00863688854596" y2="96.65259359149132" x1="81.6941869558779" y1="105.04844339512096"/>
<line x2="77.35534956470232" y2="96.03875471609678" x1="81.6941869558779" y1="105.04844339512096"/>
<line x2="64.47126798528524" y2="89.66492478675386" x1="65.96169064704699" y1="99.55323304900514"/>
<line x2="103.30127018922192" y2="85.00000000000003" x1="94.00863688854596" y1="96.65259359149132"/>
<line x2="73.01651217352673" y2="87.02906603707258" x1="77.35534956470232" y1="96.03875471609678"/>
<line x2="94.64101615137753" y2="80.00000000000003" x1="87.20690951083678" y1="89.32207487319306"/>
<line x2="80.40518213312758" y2="81.9915561548948" x1="87.20690951083678" y1="89.32207487319306"/>
<line x2="109.860189859059" y2="56.26349532067883" x1="108.74639560909117" y1="71.12604669781574"/>
<line x2="85.98076211353316" y2="75.00000000000001" x1="94.64101615137753" y1="80.00000000000003"/>
<line x2="106.54368743221025" y2="41.73294878168032" x1="109.860189859059" y1="56.26349532067883"/>
<line x2="89.2478373654547" y2="66.67562801868944" x1="98.99711648727293" y1="68.90083735825259"/>
<line x2="97.2349499457682" y2="45.38635902534426" x1="106.54368743221025" y1="41.73294878168032"/>
<line x2="89.9161139154354" y2="57.758097192407305" x1="99.8881518872472" y1="57.01079625654306"/>
<line x2="97.2349499457682" y2="45.38635902534426" x1="99.8881518872472" y1="57.01079625654306"/>
<line x2="88.16600290318107" y2="18.68806128420023" x1="99.0915741234015" y1="28.825509907063335"/>
<line x2="91.2732592987212" y2="35.060407925650665" x1="97.2349499457682" y1="45.38635902534426"/>
<line x2="82.53280232254485" y2="26.95044902736018" x1="88.16600290318107" y1="18.68806128420023"/>
<line x2="74.73775872054529" y2="12.221359710692987" x1="88.16600290318107" y1="18.68806128420023"/>
<line x2="83.4549444740409" y2="41.29530594423801" x1="91.2732592987212" y1="35.060407925650665"/>
<line x2="82.53280232254485" y2="26.95044902736018" x1="91.2732592987212" y1="35.060407925650665"/>
<line x2="76.89960174190864" y2="35.21283677052014" x1="82.53280232254485" y1="26.95044902736018"/>
<line x2="68.84265523232717" y2="31.332815826415796" x1="71.79020697643622" y1="21.777087768554388"/>
<line x2="68.84265523232717" y2="31.332815826415796" x1="60.0" y1="30.0"/>
<line x2="36.545055525959114" y2="41.29530594423798" x1="43.10039825809136" y1="35.21283677052014"/>
<line x2="41.38252502711592" y2="52.69317951267209" x1="32.07378754067388" y1="49.03976926900813"/>
<line x2="40.0559240563764" y2="58.50539812827151" x1="30.083886084564597" y1="57.75809719240726"/>
<line x2="40.50144175636353" y2="64.45041867912629" x1="30.7521626345453" y1="66.67562801868942"/>
<line x2="42.67949192431122" y2="69.99999999999999" x1="34.019237886466826" y1="74.99999999999997"/>
<line x2="46.3965452445816" y2="74.66103743659652" x1="39.594817866872404" y1="81.99155615489478"/>
<line x2="46.98348782647325" y2="87.02906603707257" x1="39.594817866872404" y1="81.99155615489478"/>
<line x2="51.32232521764884" y2="78.01937735804839" x1="46.98348782647325" y1="87.02906603707257"/>
<line x2="55.52873201471475" y2="89.66492478675386" x1="46.98348782647325" y1="87.02906603707257"/>
<line x2="62.980845323523496" y2="79.77661652450257" x1="64.47126798528524" y1="89.66492478675386"/>
<line x2="89.2478373654547" y2="66.67562801868944" x1="85.98076211353316" y1="75.00000000000001"/>
<line x2="77.32050807568876" y2="70.00000000000001" x1="85.98076211353316" y1="75.00000000000001"/>
<line x2="79.49855824363647" y2="64.4504186791263" x1="89.2478373654547" y1="66.67562801868944"/>
<line x2="87.92621245932614" y2="49.03976926900819" x1="89.9161139154354" y1="57.758097192407305"/>
<line x2="71.26640116127243" y2="43.47522451368009" x1="76.89960174190864" y1="35.21283677052014"/>
<line x2="65.89510348821811" y2="40.8885438842772" x1="68.84265523232717" y1="31.332815826415796"/>
<line x2="60.0" y2="60.0" x1="60.0" y1="40.0"/>
<line x2="65.89510348821811" y2="40.8885438842772" x1="60.0" y1="40.0"/>
<line x2="60.0" y2="60.0" x1="54.10489651178192" y1="40.88854388427718"/>
<line x2="60.0" y2="60.0" x1="48.73359883872757" y1="43.475224513680104"/>
<line x2="60.0" y2="60.0" x1="44.3633703506394" y1="47.530203962825325"/>
<line x2="40.0559240563764" y2="58.50539812827151" x1="41.38252502711592" y1="52.69317951267209"/>
<line x2="60.0" y2="60.0" x1="40.0559240563764" y1="58.50539812827151"/>
<line x2="42.67949192431122" y2="69.99999999999999" x1="40.50144175636353" y1="64.45041867912629"/>
<line x2="46.3965452445816" y2="74.66103743659652" x1="42.67949192431122" y1="69.99999999999999"/>
<line x2="60.0" y2="60.0" x1="46.3965452445816" y1="74.66103743659652"/>
<line x2="57.01915467647649" y2="79.77661652450257" x1="51.32232521764884" y1="78.01937735804839"/>
<line x2="73.6034547554184" y2="74.66103743659653" x1="68.67767478235116" y1="78.01937735804839"/>
<line x2="60.0" y2="60.0" x1="68.67767478235116" y1="78.01937735804839"/>
<line x2="60.0" y2="60.0" x1="79.49855824363647" y1="64.4504186791263"/>
<line x2="78.6174749728841" y2="52.69317951267213" x1="79.9440759436236" y1="58.50539812827154"/>
<line x2="60.0" y2="60.0" x1="78.6174749728841" y1="52.69317951267213"/>
<line x2="75.6366296493606" y2="47.53020396282534" x1="78.6174749728841" y1="52.69317951267213"/>
<line x2="60.0" y2="60.0" x1="71.26640116127243" y1="43.47522451368009"/>
</svg></svg>
