<svg viewBox="0 0 20 20" xmlns="http://www.w3.org/2000/svg" style="background-color: #beff99;">

    <defs>
      <style>
        .inverse_three_points path {
          stroke: #1a4700;
          stroke-width: 0.4324651222806398;
          stroke-linecap: round;
          fill: none;
        }
      </style>
    </defs>

<svg class="inverse_three_points">
<path d="M 10.0 9.0 L 10.0 8.0"/>
<path d="M 10.0 9.0 A 1 1 0 0 0 10.86602540378444 10.5"/>
<path d="M 10.86602540378444 10.5 L 11.732050807568877 11.0"/>
<path d="M 9.13397459621556 10.5 L 8.267949192431123 11.0"/>
<path d="M 10.0 8.0 L 10.0 7.0"/>
<path d="M 8.267949192431123 11.0 A 2 2 0 0 0 10.0 8.0"/>
<path d="M 7.401923788646685 11.500000000000002 A 3 3 0 0 0 10.0 7.0"/>
<path d="M 10.0 7.0 A 3 3 0 0 0 12.598076211353316 11.5"/>
<path d="M 12.598076211353316 11.5 L 13.464101615137755 12.0"/>
<path d="M 10.0 6.0 L 10.0 5.0"/>
<path d="M 6.5358983848622465 12.000000000000002 A 4 4 0 0 0 9.999999999999998 6.0"/>
<path d="M 10.0 6.0 A 4 4 0 0 0 13.464101615137755 12.0"/>
<path d="M 13.464101615137755 12.0 L 14.330127018922195 12.5"/>
<path d="M 14.330127018922195 12.5 L 15.196152422706632 13.0"/>
<path d="M 14.330127018922195 12.5 A 5 5 0 0 1 5.669872981077808 12.500000000000002"/>
<path d="M 5.669872981077807 12.500000000000002 L 4.803847577293369 13.000000000000002"/>
<path d="M 10.0 4.0 L 10.0 3.0"/>
<path d="M 4.803847577293369 13.000000000000002 L 3.9378221735089305 13.500000000000002"/>
<path d="M 3.9378221735089314 13.500000000000004 A 7 7 0 0 0 9.999999999999998 3.0"/>
<path d="M 16.062177826491073 13.499999999999998 A 7 7 0 0 1 3.9378221735089314 13.500000000000004"/>
<path d="M 3.9378221735089305 13.500000000000002 L 3.071796769724492 14.000000000000004"/>
<path d="M 3.071796769724493 14.000000000000004 A 8 8 0 0 0 9.999999999999998 2.0"/>
<path d="M 10.0 2.0 A 8 8 0 0 0 16.92820323027551 13.999999999999998"/>
<path d="M 16.92820323027551 14.0 L 17.794228634059948 14.5"/>
<path d="M 3.071796769724492 14.000000000000004 L 2.2057713659400537 14.500000000000004"/>
<path d="M 10.0 1.0 A 9 9 0 0 0 17.794228634059948 14.499999999999998"/>
</svg>
</svg>