<svg viewBox="0 0 10 10" xmlns="http://www.w3.org/2000/svg" style="background-color: #ffe4e9;">

    <defs>
      <style>
        .light_heptagon path {
          stroke: #771F2E;
          stroke-width: 0.3106038891072894;
          stroke-linecap: round;
          fill: none;
        }
      </style>
    </defs>

		<title>
			A graphic made of dark lines on a cream background.
			They're arranged in a heptagon shape, with several spokes almost completely open, giving a sense of direction: as if the shape is moving up the page.
		</title>


<svg x="0" y="0.15" class="light_heptagon">
<path d="M 5.0 4.0 L 5.0 3.0"/>
<path d="M 5.78183148246803 4.376510198141267 L 6.56366296493606 3.7530203962825333"/>
<path d="M 4.21816851753197 4.376510198141267 L 4.0250720878181765 5.222520933956314"/>
<path d="M 5.0 3.0 L 3.43633703506394 3.7530203962825333"/>
<path d="M 5.0 3.0 L 6.56366296493606 3.7530203962825333"/>
<path d="M 5.0 3.0 L 5.0 2.0"/>
<path d="M 6.56366296493606 3.7530203962825333 L 6.949855824363647 5.445041867912629"/>
<path d="M 5.433883739117558 5.900968867902419 L 5.867767478235116 6.801937735804838"/>
<path d="M 5.433883739117558 5.900968867902419 L 4.566116260882442 5.900968867902419"/>
<path d="M 4.566116260882442 5.900968867902419 L 4.132232521764884 6.801937735804838"/>
<path d="M 4.0250720878181765 5.222520933956314 L 3.050144175636353 5.445041867912629"/>
<path d="M 4.132232521764884 6.801937735804838 L 3.698348782647326 7.702906603707257"/>
<path d="M 4.132232521764884 6.801937735804838 L 3.050144175636353 5.445041867912629"/>
<path d="M 5.0 2.0 L 5.000000000000001 1.0"/>
<path d="M 6.949855824363647 5.445041867912629 L 7.924783736545471 5.667562801868943"/>
<path d="M 7.345494447404089 3.1295305944238 L 7.924783736545471 5.667562801868943"/>
<path d="M 7.924783736545471 5.667562801868943 L 8.899711648727294 5.890083735825257"/>
<path d="M 3.698348782647326 7.702906603707257 L 3.2644650435297677 8.603875471609676"/>
<path d="M 3.698348782647326 7.702906603707257 L 2.075216263454529 5.667562801868943"/>
<path d="M 2.6545055525959103 3.1295305944238 L 1.8726740701278803 2.5060407925650665"/>
<path d="M 5.000000000000001 1.0 L 1.8726740701278803 2.5060407925650665"/>
<path d="M 8.12732592987212 2.5060407925650665 L 8.899711648727294 5.890083735825257"/>
<path d="M 3.2644650435297677 8.603875471609676 L 1.1002883512727055 5.890083735825257"/>
<path d="M 3.2644650435297677 8.603875471609676 L 6.735534956470232 8.603875471609676"/>
<path d="M 1.1002883512727055 5.890083735825257 L 1.8726740701278803 2.5060407925650665"/>
</svg>
</svg>
