<svg viewBox="0 0 28 28" xmlns="http://www.w3.org/2000/svg" style="background-color: #212e00;">

    <defs>
      <style>
        .lime_circle path {
          stroke: #bbff0f;
          stroke-width: 0.4169899006759023;
          stroke-linecap: round;
          fill: none;
        }
      </style>
    </defs>

		<title>
			A simple graphic made of connected lime-coloured lines.
			They're arranged around a circle: some concentric rings around a central point, then spokes going from the centre to the outer edge.
			Some of the lines are missing -- some of the circles and spokes have gaps.
		</title>

<svg class="lime_circle" x="1" y="1">
<path d="M 13.0 12.0 A 1 1 0 0 1 13.64278760968654 12.233955556881021"/>
<path d="M 13.0 12.0 L 13.0 11.0"/>
<path d="M 12.35721239031346 12.233955556881021 A 1 1 0 0 1 13.0 12.0"/>
<path d="M 13,13 L 13.64278760968654,12.233955556881021"/>
<path d="M 13.64278760968654 12.233955556881021 L 14.28557521937308 11.467911113762044"/>
<path d="M 13.64278760968654 12.233955556881021 A 1 1 0 0 1 13.984807753012207 12.82635182233307"/>
<path d="M 12.015192246987791 12.82635182233307 A 1 1 0 0 1 12.35721239031346 12.233955556881021"/>
<path d="M 13.86602540378444 13.5 L 14.732050807568877 14.0"/>
<path d="M 13.34202014332567 13.939692620785909 L 13.684040286651337 14.879385241571818"/>
<path d="M 13.34202014332567 13.939692620785909 A 1 1 0 0 1 12.65797985667433 13.939692620785909"/>
<path d="M 12.65797985667433 13.939692620785909 L 12.315959713348663 14.879385241571818"/>
<path d="M 12.65797985667433 13.939692620785909 A 1 1 0 0 1 12.133974596215563 13.5"/>
<path d="M 12.133974596215563 13.5 A 1 1 0 0 1 12.015192246987791 12.82635182233307"/>
<path d="M 14.969615506024416 12.65270364466614 A 2 2 0 0 1 14.732050807568879 14.0"/>
<path d="M 14.732050807568879 14.0 A 2 2 0 0 1 13.684040286651339 14.879385241571816"/>
<path d="M 13.684040286651337 14.879385241571818 L 14.026060429977006 15.819077862357725"/>
<path d="M 11.267949192431123 14.0 L 10.401923788646684 14.5"/>
<path d="M 11.267949192431123 14.0 A 2 2 0 0 1 11.030384493975584 12.65270364466614"/>
<path d="M 11.030384493975584 12.65270364466614 A 2 2 0 0 1 11.71442478062692 11.467911113762044"/>
<path d="M 13.0 10.0 A 3 3 0 0 1 14.928362829059617 10.701866670643065"/>
<path d="M 14.928362829059619 10.701866670643067 L 15.571150438746159 9.935822227524088"/>
<path d="M 15.954423259036624 12.47905546699921 L 16.939231012048833 12.30540728933228"/>
<path d="M 15.598076211353316 14.5 A 3 3 0 0 1 14.026060429977006 15.819077862357725"/>
<path d="M 15.598076211353316 14.5 L 16.464101615137753 15.0"/>
<path d="M 14.026060429977006 15.819077862357725 A 3 3 0 0 1 11.973939570022994 15.819077862357725"/>
<path d="M 11.973939570022994 15.819077862357725 A 3 3 0 0 1 10.401923788646684 14.500000000000002"/>
<path d="M 10.401923788646684 14.500000000000002 A 3 3 0 0 1 10.045576740963376 12.47905546699921"/>
<path d="M 10.045576740963376 12.47905546699921 L 9.060768987951167 12.30540728933228"/>
<path d="M 11.071637170940381 10.701866670643067 L 10.428849561253841 9.935822227524088"/>
<path d="M 13.0 9.0 A 4 4 0 0 1 15.571150438746157 9.935822227524088"/>
<path d="M 13.0 9.0 L 13.0 8.0"/>
<path d="M 10.428849561253841 9.935822227524088 A 4 4 0 0 1 12.999999999999998 9.0"/>
<path d="M 16.939231012048833 12.30540728933228 L 17.92403876506104 12.131759111665348"/>
<path d="M 14.368080573302676 16.758770483143632 A 4 4 0 0 1 11.631919426697326 16.758770483143635"/>
<path d="M 11.631919426697324 16.758770483143635 L 11.289899283371657 17.69846310392954"/>
<path d="M 11.631919426697326 16.758770483143635 A 4 4 0 0 1 9.535898384862247 15.000000000000002"/>
<path d="M 9.535898384862247 15.000000000000002 A 4 4 0 0 1 9.060768987951167 12.30540728933228"/>
<path d="M 9.060768987951167 12.30540728933228 A 4 4 0 0 1 10.428849561253841 9.935822227524088"/>
<path d="M 16.2139380484327 9.16977778440511 L 16.856725658119238 8.403733341286133"/>
<path d="M 16.213938048432695 9.16977778440511 A 5 5 0 0 1 17.92403876506104 12.131759111665348"/>
<path d="M 17.92403876506104 12.131759111665348 A 5 5 0 0 1 17.330127018922195 15.5"/>
<path d="M 17.330127018922195 15.5 A 5 5 0 0 1 14.710100716628345 17.69846310392954"/>
<path d="M 17.330127018922195 15.5 L 18.196152422706632 16.0"/>
<path d="M 14.710100716628345 17.69846310392954 A 5 5 0 0 1 11.289899283371657 17.69846310392954"/>
<path d="M 11.289899283371657 17.69846310392954 A 5 5 0 0 1 8.669872981077809 15.500000000000002"/>
<path d="M 11.289899283371657 17.69846310392954 L 10.947879140045988 18.63815572471545"/>
<path d="M 8.075961234938958 12.13175911166535 L 7.091153481926751 11.95811093399842"/>
<path d="M 9.786061951567302 9.16977778440511 L 9.143274341880764 8.403733341286133"/>
<path d="M 9.143274341880762 8.403733341286133 A 6 6 0 0 1 12.999999999999998 7.0"/>
<path d="M 18.908846518073247 11.958110933998418 A 6 6 0 0 1 18.196152422706632 15.999999999999998"/>
<path d="M 18.908846518073247 11.958110933998418 L 19.893654271085456 11.784462756331488"/>
<path d="M 18.196152422706632 15.999999999999998 A 6 6 0 0 1 15.052120859954012 18.63815572471545"/>
<path d="M 18.196152422706632 16.0 L 19.062177826491073 16.5"/>
<path d="M 15.052120859954012 18.63815572471545 L 15.394141003279682 19.57784834550136"/>
<path d="M 10.947879140045988 18.63815572471545 A 6 6 0 0 1 7.80384757729337 16.000000000000004"/>
<path d="M 7.80384757729337 16.000000000000004 A 6 6 0 0 1 7.091153481926751 11.95811093399842"/>
<path d="M 7.091153481926751 11.95811093399842 A 6 6 0 0 1 9.143274341880762 8.403733341286133"/>
<path d="M 9.143274341880764 8.403733341286133 L 8.500486732194224 7.637688898167155"/>
<path d="M 13.0 6.0 L 13.000000000000002 5.0"/>
<path d="M 8.500486732194222 7.637688898167155 A 7 7 0 0 1 12.999999999999998 6.0"/>
<path d="M 17.499513267805774 7.637688898167153 A 7 7 0 0 1 19.893654271085456 11.784462756331488"/>
<path d="M 17.499513267805774 7.637688898167155 L 18.142300877492318 6.871644455048177"/>
<path d="M 19.893654271085456 11.784462756331488 L 20.878462024097665 11.610814578664558"/>
<path d="M 19.062177826491073 16.5 L 19.92820323027551 17.0"/>
<path d="M 15.394141003279682 19.57784834550136 L 15.736161146605351 20.517540966287267"/>
<path d="M 15.394141003279682 19.57784834550136 A 7 7 0 0 1 10.605858996720318 19.57784834550136"/>
<path d="M 6.9378221735089305 16.500000000000004 L 6.071796769724492 17.000000000000004"/>
<path d="M 6.937822173508931 16.500000000000004 A 7 7 0 0 1 6.106345728914543 11.78446275633149"/>
<path d="M 6.106345728914543 11.78446275633149 L 5.121537975902335 11.61081457866456"/>
<path d="M 8.500486732194224 7.637688898167155 L 7.857699122507684 6.871644455048177"/>
<path d="M 13.000000000000002 5.0 L 13.000000000000002 4.0"/>
<path d="M 20.878462024097665 11.610814578664558 L 21.86326977710987 11.437166400997627"/>
<path d="M 19.92820323027551 17.0 L 20.794228634059948 17.5"/>
<path d="M 15.736161146605351 20.517540966287267 L 16.07818128993102 21.457233587073176"/>
<path d="M 10.26383885339465 20.517540966287267 A 8 8 0 0 1 6.071796769724493 17.000000000000004"/>
<path d="M 5.121537975902335 11.61081457866456 A 8 8 0 0 1 7.857699122507683 6.871644455048177"/>
<path d="M 7.857699122507684 6.871644455048177 L 7.2149115128211445 6.105600011929199"/>
<path d="M 13.0 4.0 A 9 9 0 0 1 18.785088487178854 6.105600011929197"/>
<path d="M 18.785088487178854 6.105600011929199 L 19.427876096865397 5.339555568810221"/>
<path d="M 21.86326977710987 11.437166400997627 L 22.84807753012208 11.263518223330697"/>
<path d="M 16.07818128993102 21.457233587073176 L 16.420201433256686 22.396926207859085"/>
<path d="M 9.921818710068983 21.457233587073176 A 9 9 0 0 1 5.205771365940055 17.500000000000004"/>
<path d="M 5.205771365940055 17.500000000000004 A 9 9 0 0 1 4.136730222890126 11.43716640099763"/>
<path d="M 4.136730222890126 11.43716640099763 L 3.1519224698779187 11.2635182233307"/>
<path d="M 4.136730222890126 11.43716640099763 A 9 9 0 0 1 7.214911512821144 6.105600011929199"/>
<path d="M 6.572123903134604 5.339555568810221 A 10 10 0 0 1 12.999999999999998 3.0"/>
<path d="M 21.66025403784439 18.0 L 22.526279441628827 18.5"/>
<path d="M 21.66025403784439 18.0 A 10 10 0 0 1 16.42020143325669 22.39692620785908"/>
<path d="M 16.420201433256686 22.396926207859085 L 16.762221576582355 23.336618828644994"/>
<path d="M 9.579798566743314 22.396926207859085 A 10 10 0 0 1 4.339745962155616 18.000000000000004"/>
<path d="M 9.579798566743312 22.396926207859085 L 9.237778423417645 23.336618828644994"/>
<path d="M 3.1519224698779187 11.2635182233307 L 2.1671147168657114 11.089870045663769"/>
<path d="M 3.1519224698779187 11.263518223330701 A 10 10 0 0 1 6.572123903134604 5.339555568810221"/>
<path d="M 5.929336293448064 4.573511125691244 A 11 11 0 0 1 12.999999999999996 2.0"/>
<path d="M 13.0 2.0 A 11 11 0 0 1 20.070663706551933 4.57351112569124"/>
<path d="M 20.070663706551933 4.573511125691244 L 20.713451316238473 3.807466682572265"/>
<path d="M 23.83288528313429 11.089870045663767 L 24.817693036146494 10.916221867996835"/>
<path d="M 23.83288528313429 11.089870045663766 A 11 11 0 0 1 22.526279441628827 18.499999999999996"/>
<path d="M 16.76222157658236 23.336618828644994 A 11 11 0 0 1 9.237778423417645 23.336618828644994"/>
<path d="M 16.762221576582355 23.336618828644994 L 17.104241719908025 24.2763114494309"/>
<path d="M 9.237778423417645 23.336618828644994 L 8.895758280091975 24.2763114494309"/>
<path d="M 3.473720558371177 18.500000000000004 L 2.6076951545867377 19.000000000000004"/>
<path d="M 5.929336293448066 4.573511125691244 L 5.286548683761526 3.807466682572265"/>
<path d="M 5.286548683761525 3.807466682572265 A 12 12 0 0 1 12.999999999999996 1.0"/>
<path d="M 20.71345131623847 3.8074666825722616 A 12 12 0 0 1 24.817693036146494 10.916221867996835"/>
<path d="M 23.392304845413264 18.999999999999996 A 12 12 0 0 1 17.104241719908025 24.2763114494309"/>
<path d="M 8.895758280091975 24.2763114494309 A 12 12 0 0 1 2.6076951545867395 19.000000000000007"/>
<path d="M 1.1823069638535024 10.91622186799684 A 12 12 0 0 1 5.286548683761525 3.807466682572265"/>
</svg>
</svg>
