<svg viewBox="0 0 16 16" xmlns="http://www.w3.org/2000/svg" style="background-color: #3b2902;">

    <defs>
      <style>
        .ochre_spider path {
          stroke: #f8c85e;
          stroke-width: 0.26946294638229057;
          stroke-linecap: round;
          fill: none;
        }
      </style>
    </defs>

		<title>
			An ochre graphic that looks like a damaged seven-point spider web.
		</title>

<svg class="ochre_spider" y="0.15">
<path d="M 8.0 7.0 L 8.0 6.0"/>
<path d="M 8,8 L 8.0,7.0"/>
<path d="M 8,8 L 8.78183148246803,7.376510198141267"/>
<path d="M 8,8 L 8.433883739117558,8.900968867902419"/>
<path d="M 8,8 L 7.566116260882442,8.900968867902419"/>
<path d="M 8.0 6.0 L 8.0 5.0"/>
<path d="M 8.0 6.0 A 2 2 0 0 0 9.563662964936059 6.753020396282533"/>
<path d="M 8.974927912181824 8.222520933956314 A 1 1 0 0 0 8.433883739117558 8.900968867902419"/>
<path d="M 9.563662964936059 6.753020396282533 A 2 2 0 0 0 9.949855824363647 8.445041867912629"/>
<path d="M 7.566116260882442 8.900968867902419 L 7.132232521764884 9.801937735804838"/>
<path d="M 9.949855824363647 8.445041867912629 L 10.924783736545471 8.667562801868943"/>
<path d="M 9.949855824363647 8.445041867912629 A 2 2 0 0 0 8.867767478235116 9.801937735804838"/>
<path d="M 5.654505552595911 6.1295305944238 A 3 3 0 0 0 7.999999999999999 5.0"/>
<path d="M 8.0 5.0 A 3 3 0 0 0 10.34549444740409 6.129530594423799"/>
<path d="M 10.924783736545471 8.667562801868943 A 3 3 0 0 0 9.301651217352674 10.702906603707257"/>
<path d="M 10.924783736545471 8.667562801868943 L 11.899711648727294 8.890083735825257"/>
<path d="M 5.0752162634545295 8.667562801868943 A 3 3 0 0 0 5.654505552595911 6.1295305944238"/>
<path d="M 5.654505552595911 6.1295305944238 L 4.87267407012788 5.5060407925650665"/>
<path d="M 11.12732592987212 5.5060407925650665 L 11.90915741234015 4.882550990706333"/>
<path d="M 11.127325929872118 5.506040792565066 A 4 4 0 0 0 11.899711648727294 8.890083735825257"/>
<path d="M 11.899711648727294 8.890083735825257 A 4 4 0 0 0 9.735534956470232 11.603875471609676"/>
<path d="M 9.735534956470232 11.603875471609676 A 4 4 0 0 0 6.264465043529768 11.603875471609676"/>
<path d="M 4.87267407012788 5.5060407925650665 L 4.09084258765985 4.882550990706333"/>
<path d="M 11.909157412340148 4.882550990706332 A 5 5 0 0 0 12.874639560909118 9.112604669781572"/>
<path d="M 6.264465043529768 11.603875471609676 L 5.83058130441221 12.504844339512097"/>
<path d="M 10.16941869558779 12.504844339512097 L 10.603302434705348 13.405813207414514"/>
<path d="M 10.16941869558779 12.504844339512095 A 5 5 0 0 0 5.83058130441221 12.504844339512097"/>
<path d="M 3.1253604390908825 9.112604669781573 A 5 5 0 0 0 4.09084258765985 4.882550990706333"/>
<path d="M 8.0 3.0 L 8.0 2.0"/>
<path d="M 8.0 2.0 A 6 6 0 0 0 12.690988894808179 4.259061188847598"/>
<path d="M 8.0 2.0 L 8.0 1.0"/>
<path d="M 3.3090111051918205 4.2590611888476 A 6 6 0 0 0 7.999999999999998 2.0"/>
<path d="M 12.690988894808179 4.259061188847598 A 6 6 0 0 0 13.849567473090943 9.335125603737886"/>
<path d="M 13.849567473090943 9.335125603737886 A 6 6 0 0 0 10.603302434705348 13.405813207414514"/>
<path d="M 13.849567473090943 9.335125603737886 L 14.824495385272765 9.5576465376942"/>
<path d="M 10.603302434705348 13.405813207414514 A 6 6 0 0 0 5.396697565294652 13.405813207414514"/>
<path d="M 2.150432526909058 9.335125603737886 L 1.1755046147272346 9.5576465376942"/>
<path d="M 2.150432526909059 9.335125603737888 A 6 6 0 0 0 3.3090111051918205 4.2590611888476"/>
<path d="M 8.0 1.0 A 7 7 0 0 0 13.472820377276207 3.6355713869888646"/>
</svg>
</svg>
