<svg viewBox="0 0 10 10" xmlns="http://www.w3.org/2000/svg" style="background-color: #a8ffde;">

    <defs>
      <style>
        .octo_spider path {
          stroke: #005c39;
          stroke-width: 0.3888197282325034;
          stroke-linecap: round;
          fill: none;
        }
      </style>
    </defs>

		<title>
			A green graphic that looks a bit like an eight-pointed spider web.
		</title>

<svg class="octo_spider">
<path d="M 5.0 4.0 A 1 1 0 0 0 5.707106781186548 4.292893218813452"/>
<path d="M 5.0 4.0 L 5.0 3.0"/>
<path d="M 4.292893218813452 4.292893218813452 L 3.585786437626905 3.585786437626905"/>
<path d="M 3.5857864376269046 3.585786437626905 A 2 2 0 0 0 4.999999999999999 3.0"/>
<path d="M 6.0 5.0 A 1 1 0 0 0 5.707106781186548 5.707106781186548"/>
<path d="M 6.414213562373095 3.585786437626905 A 2 2 0 0 0 7.0 5.0"/>
<path d="M 5.707106781186548 5.707106781186548 L 6.414213562373095 6.414213562373095"/>
<path d="M 7.0 5.0 A 2 2 0 0 0 6.414213562373095 6.414213562373095"/>
<path d="M 7.0 5.0 L 8.0 5.0"/>
<path d="M 5.0 6.0 A 1 1 0 0 0 4.292893218813452 5.707106781186548"/>
<path d="M 5.0 6.0 L 5.0 7.0"/>
<path d="M 4.292893218813452 5.707106781186548 A 1 1 0 0 0 4.0 5.0"/>
<path d="M 5.0 7.0 L 5.0 8.0"/>
<path d="M 4.0 5.0 L 3.0 5.0"/>
<path d="M 3.585786437626905 6.414213562373095 L 2.8786796564403576 7.121320343559643"/>
<path d="M 3.585786437626905 3.585786437626905 L 2.878679656440357 2.8786796564403576"/>
<path d="M 5.0 2.0 A 3 3 0 0 0 7.121320343559642 2.878679656440357"/>
<path d="M 2.878679656440357 2.8786796564403576 A 3 3 0 0 0 4.999999999999999 2.0"/>
<path d="M 7.121320343559642 2.878679656440357 A 3 3 0 0 0 8.0 5.0"/>
<path d="M 8.0 5.0 L 9.0 5.0"/>
<path d="M 7.121320343559642 7.121320343559643 L 7.82842712474619 7.82842712474619"/>
<path d="M 5.0 8.0 L 5.0 9.0"/>
<path d="M 5.0 8.0 A 3 3 0 0 0 2.8786796564403576 7.121320343559643"/>
<path d="M 2.0 5.000000000000001 A 3 3 0 0 0 2.878679656440357 2.8786796564403576"/>
<path d="M 2.1715728752538093 2.17157287525381 A 4 4 0 0 0 4.999999999999999 1.0"/>
<path d="M 5.0 1.0 A 4 4 0 0 0 7.82842712474619 2.1715728752538097"/>
<path d="M 9.0 5.0 A 4 4 0 0 0 7.82842712474619 7.82842712474619"/>
<path d="M 7.82842712474619 7.82842712474619 A 4 4 0 0 0 5.000000000000001 9.0"/>
<path d="M 5.000000000000001 9.0 A 4 4 0 0 0 2.17157287525381 7.828427124746191"/>
<path d="M 2.17157287525381 7.828427124746191 A 4 4 0 0 0 1.0 5.000000000000001"/>
<path d="M 1.0 5.000000000000001 A 4 4 0 0 0 2.1715728752538093 2.17157287525381"/>
</svg>
</svg>
