<svg viewBox="0 0 24 24" xmlns="http://www.w3.org/2000/svg" style="background-color: #FFDECD;">

    <defs>
      <style>
        .orange_many_gon path {
          stroke: #C44500;
          stroke-width: 0.20714667526474737;
          stroke-linecap: round;
          fill: none;
        }
      </style>
    </defs>

		<title>
			A graphic made of many orange lines.
			Although every line is straight, there's enough of them that the overall pattern looks a bit like a circle.
		</title>

<svg x="0" y="0" class="orange_many_gon">
<path d="M 12.0 11.0 L 12.0 10.0"/>
<path d="M 12.406736643075801 11.0864545423574 L 12.8134732861516 10.1729090847148"/>
<path d="M 12,12 L 11.048943483704846,11.690983005625053"/>
<path d="M 12,12 L 11.005478104631727,12.104528463267654"/>
<path d="M 12,12 L 12.743144825477394,11.33086939364114"/>
<path d="M 12,12 L 11.412214747707527,12.809016994374947"/>
<path d="M 12,12 L 11.13397459621556,12.5"/>
<path d="M 12,12 L 11.5932633569242,11.0864545423574"/>
<path d="M 12,12 L 12.20791169081776,12.978147600733806"/>
<path d="M 12,12 L 12.994521895368273,12.104528463267654"/>
<path d="M 11.5932633569242 11.0864545423574 L 11.1865267138484 10.172909084714798"/>
<path d="M 12.0 10.0 L 12.8134732861516 10.1729090847148"/>
<path d="M 12.8134732861516 10.1729090847148 L 13.220209929227401 9.259363627072197"/>
<path d="M 12.951056516295154 11.690983005625053 L 12.994521895368273 12.104528463267654"/>
<path d="M 12.951056516295154 11.690983005625053 L 13.902113032590307 11.381966011250105"/>
<path d="M 12.86602540378444 12.5 L 13.732050807568877 13.0"/>
<path d="M 12.587785252292473 12.809016994374947 L 13.175570504584947 13.618033988749895"/>
<path d="M 12.587785252292473 12.809016994374947 L 12.20791169081776 12.978147600733806"/>
<path d="M 11.79208830918224 12.978147600733806 L 11.58417661836448 13.956295201467611"/>
<path d="M 11.79208830918224 12.978147600733806 L 11.412214747707527 12.809016994374947"/>
<path d="M 11.13397459621556 12.5 L 10.267949192431123 13.0"/>
<path d="M 11.048943483704846 11.690983005625053 L 10.097886967409693 11.381966011250105"/>
<path d="M 11.256855174522606 11.33086939364114 L 10.513710349045212 10.661738787282284"/>
<path d="M 13.486289650954788 10.661738787282284 L 14.229434476432182 9.992608180923426"/>
<path d="M 13.902113032590307 11.381966011250105 L 14.853169548885461 11.072949016875159"/>
<path d="M 13.902113032590307 11.381966011250105 L 13.989043790736547 12.209056926535307"/>
<path d="M 13.732050807568877 13.0 L 14.598076211353316 13.5"/>
<path d="M 12.41582338163552 13.956295201467611 L 12.623735072453277 14.934442802201417"/>
<path d="M 12.41582338163552 13.956295201467611 L 11.58417661836448 13.956295201467611"/>
<path d="M 10.824429495415053 13.618033988749895 L 10.267949192431123 13.0"/>
<path d="M 10.010956209263453 12.209056926535307 L 10.097886967409693 11.381966011250105"/>
<path d="M 10.097886967409693 11.381966011250105 L 10.513710349045212 10.661738787282284"/>
<path d="M 10.513710349045212 10.661738787282284 L 9.770565523567818 9.992608180923424"/>
<path d="M 11.1865267138484 10.172909084714798 L 10.7797900707726 9.259363627072197"/>
<path d="M 12.0 9.0 L 10.7797900707726 9.259363627072197"/>
<path d="M 12.0 9.0 L 13.220209929227401 9.259363627072197"/>
<path d="M 12.0 9.0 L 12.0 8.0"/>
<path d="M 14.229434476432182 9.992608180923426 L 14.972579301909576 9.323477574564567"/>
<path d="M 14.853169548885461 11.072949016875159 L 14.98356568610482 12.31358538980296"/>
<path d="M 14.598076211353316 13.5 L 13.76335575687742 14.427050983124843"/>
<path d="M 14.598076211353316 13.5 L 15.464101615137755 14.0"/>
<path d="M 13.76335575687742 14.427050983124843 L 12.623735072453277 14.934442802201417"/>
<path d="M 12.623735072453277 14.934442802201417 L 12.831646763271037 15.912590402935223"/>
<path d="M 11.376264927546723 14.934442802201417 L 10.23664424312258 14.427050983124843"/>
<path d="M 10.23664424312258 14.427050983124843 L 9.401923788646684 13.5"/>
<path d="M 9.401923788646684 13.5 L 8.535898384862247 14.000000000000002"/>
<path d="M 9.01643431389518 12.313585389802963 L 9.146830451114539 11.072949016875159"/>
<path d="M 9.146830451114539 11.072949016875159 L 9.770565523567818 9.992608180923424"/>
<path d="M 9.146830451114539 11.072949016875159 L 8.195773934819385 10.76393202250021"/>
<path d="M 13.626946572303202 8.345818169429597 L 14.972579301909576 9.323477574564567"/>
<path d="M 13.626946572303202 8.345818169429597 L 14.033683215379002 7.432272711786997"/>
<path d="M 14.972579301909576 9.323477574564567 L 15.804226065180615 10.76393202250021"/>
<path d="M 15.804226065180615 10.76393202250021 L 16.755282581475768 10.454915028125264"/>
<path d="M 15.804226065180615 10.76393202250021 L 15.978087581473094 12.418113853070613"/>
<path d="M 15.978087581473094 12.418113853070613 L 15.464101615137755 14.0"/>
<path d="M 15.464101615137755 14.0 L 16.330127018922195 14.5"/>
<path d="M 14.351141009169893 15.23606797749979 L 14.938926261462367 16.045084971874736"/>
<path d="M 14.351141009169893 15.23606797749979 L 12.831646763271037 15.912590402935223"/>
<path d="M 11.168353236728963 15.912590402935223 L 10.960441545911204 16.89073800366903"/>
<path d="M 9.648858990830107 15.23606797749979 L 8.535898384862247 14.000000000000002"/>
<path d="M 8.535898384862247 14.000000000000002 L 7.669872981077807 14.500000000000002"/>
<path d="M 8.021912418526906 12.418113853070617 L 8.195773934819385 10.76393202250021"/>
<path d="M 8.021912418526906 12.418113853070617 L 7.027390523158633 12.52264231633827"/>
<path d="M 8.195773934819385 10.76393202250021 L 7.244717418524232 10.454915028125264"/>
<path d="M 9.027420698090424 9.323477574564565 L 10.3730534276968 8.345818169429595"/>
<path d="M 9.027420698090424 9.323477574564565 L 8.28427587261303 8.654346968205708"/>
<path d="M 10.3730534276968 8.345818169429595 L 9.966316784621 7.432272711786995"/>
<path d="M 12.0 7.0 L 9.966316784621 7.432272711786995"/>
<path d="M 15.71572412738697 8.654346968205708 L 16.755282581475768 10.454915028125264"/>
<path d="M 15.71572412738697 8.654346968205708 L 16.458868952864364 7.985216361846851"/>
<path d="M 16.972609476841367 12.522642316338267 L 16.330127018922195 14.5"/>
<path d="M 14.938926261462367 16.045084971874736 L 13.039558454088796 16.89073800366903"/>
<path d="M 13.039558454088796 16.89073800366903 L 13.247470144906554 17.868885604402834"/>
<path d="M 10.960441545911204 16.89073800366903 L 10.752529855093446 17.868885604402834"/>
<path d="M 10.960441545911204 16.89073800366903 L 9.061073738537633 16.045084971874736"/>
<path d="M 9.061073738537633 16.045084971874736 L 7.669872981077807 14.500000000000002"/>
<path d="M 7.669872981077807 14.500000000000002 L 6.803847577293369 15.000000000000002"/>
<path d="M 7.027390523158633 12.52264231633827 L 6.032868627790361 12.627170779605924"/>
<path d="M 9.966316784621 7.432272711786995 L 9.5595801415452 6.518727254144395"/>
<path d="M 12.0 6.0 L 12.0 5.0"/>
<path d="M 12.0 6.0 L 9.5595801415452 6.518727254144395"/>
<path d="M 14.440419858454803 6.5187272541443955 L 16.458868952864364 7.985216361846851"/>
<path d="M 16.458868952864364 7.985216361846851 L 17.706339097770922 10.145898033750315"/>
<path d="M 17.706339097770922 10.145898033750315 L 17.96713137220964 12.62717077960592"/>
<path d="M 17.96713137220964 12.62717077960592 L 17.196152422706632 15.0"/>
<path d="M 17.96713137220964 12.62717077960592 L 18.961653267577912 12.731699242873574"/>
<path d="M 15.526711513754838 16.854101966249686 L 13.247470144906554 17.868885604402834"/>
<path d="M 10.752529855093446 17.868885604402834 L 8.473288486245162 16.854101966249686"/>
<path d="M 6.803847577293369 15.000000000000002 L 5.9378221735089305 15.500000000000002"/>
<path d="M 6.803847577293369 15.000000000000002 L 6.032868627790361 12.627170779605924"/>
<path d="M 6.032868627790361 12.627170779605924 L 6.293660902229078 10.145898033750315"/>
<path d="M 7.541131047135636 7.985216361846849 L 6.797986221658242 7.31608575548799"/>
<path d="M 12.0 5.0 L 9.1528434984694 5.605181796501793"/>
<path d="M 12.0 5.0 L 14.847156501530602 5.605181796501794"/>
<path d="M 14.847156501530602 5.605181796501794 L 15.253893144606403 4.691636338859194"/>
<path d="M 17.202013778341758 7.316085755487992 L 17.945158603819152 6.646955149129134"/>
<path d="M 18.657395614066075 9.836881039375369 L 18.961653267577912 12.731699242873574"/>
<path d="M 18.657395614066075 9.836881039375369 L 19.60845213036123 9.52786404500042"/>
<path d="M 18.062177826491073 15.5 L 18.92820323027551 16.0"/>
<path d="M 16.11449676604731 17.663118960624633 L 13.455381835724314 18.84703320513664"/>
<path d="M 13.455381835724314 18.84703320513664 L 13.663293526542073 19.825180805870446"/>
<path d="M 10.544618164275686 18.84703320513664 L 7.885503233952688 17.663118960624633"/>
<path d="M 7.885503233952688 17.663118960624633 L 5.9378221735089305 15.500000000000002"/>
<path d="M 5.038346732422087 12.731699242873578 L 4.043824837053814 12.836227706141234"/>
<path d="M 5.3426043859339245 9.836881039375369 L 4.391547869638771 9.52786404500042"/>
<path d="M 6.797986221658242 7.31608575548799 L 9.1528434984694 5.605181796501793"/>
<path d="M 12.000000000000002 4.0 L 15.253893144606403 4.691636338859194"/>
<path d="M 12.000000000000002 4.0 L 8.746106855393599 4.691636338859192"/>
<path d="M 12.000000000000002 4.0 L 12.000000000000002 3.0"/>
<path d="M 15.253893144606403 4.691636338859194 L 17.945158603819152 6.646955149129134"/>
<path d="M 17.945158603819152 6.646955149129134 L 18.688303429296546 5.977824542770276"/>
<path d="M 17.945158603819152 6.646955149129134 L 19.60845213036123 9.52786404500042"/>
<path d="M 19.60845213036123 9.52786404500042 L 20.559508646656383 9.218847050625474"/>
<path d="M 19.60845213036123 9.52786404500042 L 19.956175162946188 12.836227706141228"/>
<path d="M 19.956175162946188 12.836227706141228 L 18.92820323027551 16.0"/>
<path d="M 19.956175162946188 12.836227706141228 L 20.95069705831446 12.94075616940888"/>
<path d="M 18.92820323027551 16.0 L 19.794228634059948 16.5"/>
<path d="M 18.92820323027551 16.0 L 16.702282018339787 18.47213595499958"/>
<path d="M 16.702282018339787 18.47213595499958 L 13.663293526542073 19.825180805870446"/>
<path d="M 13.663293526542073 19.825180805870446 L 13.871205217359833 20.80332840660425"/>
<path d="M 13.663293526542073 19.825180805870446 L 10.336706473457927 19.825180805870446"/>
<path d="M 10.336706473457927 19.825180805870446 L 7.297717981660215 18.47213595499958"/>
<path d="M 7.297717981660215 18.47213595499958 L 5.071796769724492 16.000000000000004"/>
<path d="M 5.071796769724492 16.000000000000004 L 4.043824837053814 12.836227706141234"/>
<path d="M 5.071796769724492 16.000000000000004 L 4.205771365940054 16.500000000000004"/>
<path d="M 4.043824837053814 12.836227706141234 L 4.391547869638771 9.52786404500042"/>
<path d="M 6.054841396180848 6.646955149129131 L 8.746106855393599 4.691636338859192"/>
<path d="M 8.746106855393599 4.691636338859192 L 8.3393702123178 3.778090881216592"/>
<path d="M 12.000000000000002 3.0 L 15.660629787682204 3.7780908812165936"/>
<path d="M 19.794228634059948 16.5 L 17.290067270632257 19.281152949374526"/>
<path d="M 19.794228634059948 16.5 L 20.66025403784439 17.0"/>
<path d="M 13.871205217359833 20.80332840660425 L 14.079116908177593 21.781476007338057"/>
<path d="M 13.871205217359833 20.80332840660425 L 10.128794782640167 20.80332840660425"/>
<path d="M 10.128794782640167 20.80332840660425 L 6.7099327293677415 19.281152949374526"/>
<path d="M 3.049302941685541 12.940756169408887 L 3.440491353343617 9.218847050625474"/>
<path d="M 3.440491353343617 9.218847050625474 L 2.4894348370484636 8.909830056250527"/>
<path d="M 5.311696570703454 5.977824542770273 L 8.3393702123178 3.778090881216592"/>
<path d="M 8.3393702123178 3.778090881216592 L 7.932633569241999 2.86454542357399"/>
<path d="M 12.000000000000002 2.0 L 16.067366430758003 2.8645454235739933"/>
<path d="M 16.067366430758003 2.8645454235739933 L 19.43144825477394 5.308693936411418"/>
<path d="M 16.067366430758003 2.8645454235739933 L 16.474103073833803 1.9509999659313912"/>
<path d="M 19.43144825477394 5.308693936411418 L 21.510565162951536 8.909830056250527"/>
<path d="M 21.510565162951536 8.909830056250527 L 21.945218953682733 13.045284632676534"/>
<path d="M 20.66025403784439 17.0 L 21.526279441628827 17.5"/>
<path d="M 20.66025403784439 17.0 L 17.877852522924734 20.090169943749473"/>
<path d="M 9.920883091822407 21.781476007338057 L 6.122147477075268 20.090169943749473"/>
<path d="M 6.122147477075268 20.090169943749473 L 5.534362224782796 20.899186938124423"/>
<path d="M 6.122147477075268 20.090169943749473 L 3.3397459621556145 17.000000000000004"/>
<path d="M 3.3397459621556145 17.000000000000004 L 2.473720558371177 17.500000000000004"/>
<path d="M 3.3397459621556145 17.000000000000004 L 2.0547810463172667 13.045284632676541"/>
<path d="M 2.0547810463172667 13.045284632676541 L 2.4894348370484636 8.909830056250527"/>
<path d="M 2.4894348370484636 8.909830056250527 L 1.53837832075331 8.600813061875579"/>
<path d="M 2.4894348370484636 8.909830056250527 L 4.56855174522606 5.308693936411414"/>
<path d="M 4.56855174522606 5.308693936411414 L 3.8254069197486658 4.639563330052556"/>
<path d="M 4.56855174522606 5.308693936411414 L 7.932633569241999 2.86454542357399"/>
<path d="M 12.000000000000002 1.0 L 16.474103073833803 1.9509999659313912"/>
<path d="M 12.000000000000002 1.0 L 7.525896926166199 1.9509999659313895"/>
<path d="M 16.474103073833803 1.9509999659313912 L 20.174593080251334 4.639563330052559"/>
<path d="M 20.174593080251334 4.639563330052559 L 22.46162167924669 8.600813061875579"/>
<path d="M 22.46162167924669 8.600813061875579 L 22.939740849051006 13.149813095944188"/>
<path d="M 21.526279441628827 17.5 L 18.465637775217203 20.899186938124423"/>
<path d="M 14.28702859899535 22.759623608071863 L 9.71297140100465 22.759623608071863"/>
<path d="M 9.71297140100465 22.759623608071863 L 5.534362224782796 20.899186938124423"/>
<path d="M 2.473720558371177 17.500000000000004 L 1.060259150948994 13.149813095944195"/>
<path d="M 3.8254069197486658 4.639563330052556 L 7.525896926166199 1.9509999659313895"/>
</svg>
</svg>
