<svg viewBox="0 0 28 28" xmlns="http://www.w3.org/2000/svg" style="background-color: #2e0700;">

    <defs>
      <style>
        .orange_starburst path {
          stroke: #ff711f;
          stroke-width: 0.23004021363204136;
          stroke-linecap: round;
          fill: none;
        }
      </style>
    </defs>

		<title>
			An orange graphic with four sets of curves bending inwards, four outwards, to form a sort of curvy octagon.
		</title>

<svg class="orange_starburst">
<path d="M 14.0 13.0 L 14.0 12.0"/>
<path d="M 14,14 L 14.0,13.0"/>
<path d="M 14,14 L 14.707106781186548,13.292893218813452"/>
<path d="M 14,14 L 14.0,15.0"/>
<path d="M 13.292893218813452 13.292893218813452 L 12.585786437626904 12.585786437626904"/>
<path d="M 13.0 14.0 A 1 1 0 0 0 13.292893218813452 13.292893218813452"/>
<path d="M 12.585786437626904 12.585786437626904 A 2 2 0 0 1 14.0 12.0"/>
<path d="M 14.0 12.0 A 2 2 0 0 0 15.414213562373096 12.585786437626904"/>
<path d="M 15.0 14.0 A 1 1 0 0 0 14.707106781186548 14.707106781186548"/>
<path d="M 15.414213562373096 12.585786437626904 A 2 2 0 0 1 16.0 14.0"/>
<path d="M 14.707106781186548 14.707106781186548 A 1 1 0 0 1 14.0 15.0"/>
<path d="M 14.0 15.0 A 1 1 0 0 0 13.292893218813452 14.707106781186548"/>
<path d="M 13.292893218813452 14.707106781186548 L 12.585786437626904 15.414213562373096"/>
<path d="M 15.414213562373096 15.414213562373096 L 16.121320343559642 16.121320343559642"/>
<path d="M 15.414213562373096 15.414213562373096 A 2 2 0 0 1 14.0 16.0"/>
<path d="M 14.0 16.0 A 2 2 0 0 0 12.585786437626904 15.414213562373096"/>
<path d="M 12.585786437626904 15.414213562373096 L 11.878679656440358 16.121320343559642"/>
<path d="M 12.0 14.0 A 2 2 0 0 0 12.585786437626904 12.585786437626904"/>
<path d="M 12.0 14.0 L 11.0 14.0"/>
<path d="M 14.0 11.0 A 3 3 0 0 0 16.121320343559642 11.878679656440358"/>
<path d="M 11.878679656440358 11.878679656440358 A 3 3 0 0 1 14.0 11.0"/>
<path d="M 16.121320343559642 11.878679656440358 L 16.82842712474619 11.17157287525381"/>
<path d="M 17.0 14.0 A 3 3 0 0 0 16.121320343559642 16.121320343559642"/>
<path d="M 17.0 14.0 L 18.0 14.0"/>
<path d="M 16.121320343559642 16.121320343559642 A 3 3 0 0 1 14.0 17.0"/>
<path d="M 11.878679656440358 11.878679656440358 L 11.17157287525381 11.17157287525381"/>
<path d="M 11.171572875253808 11.17157287525381 A 4 4 0 0 1 13.999999999999998 10.0"/>
<path d="M 18.0 14.0 A 4 4 0 0 0 16.82842712474619 16.82842712474619"/>
<path d="M 18.0 14.0 L 19.0 14.0"/>
<path d="M 16.82842712474619 16.82842712474619 A 4 4 0 0 1 14.0 18.0"/>
<path d="M 14.0 18.0 A 4 4 0 0 0 11.17157287525381 16.82842712474619"/>
<path d="M 11.17157287525381 16.82842712474619 A 4 4 0 0 1 10.0 14.0"/>
<path d="M 11.17157287525381 11.17157287525381 L 10.464466094067262 10.464466094067262"/>
<path d="M 14.0 9.0 L 14.0 8.0"/>
<path d="M 10.464466094067262 10.464466094067262 A 5 5 0 0 1 13.999999999999998 9.0"/>
<path d="M 14.0 9.0 A 5 5 0 0 0 17.535533905932738 10.464466094067262"/>
<path d="M 19.0 14.0 A 5 5 0 0 0 17.535533905932738 17.535533905932738"/>
<path d="M 17.535533905932738 17.535533905932738 A 5 5 0 0 1 14.0 19.0"/>
<path d="M 14.0 19.0 L 14.0 20.0"/>
<path d="M 14.0 19.0 A 5 5 0 0 0 10.464466094067262 17.535533905932738"/>
<path d="M 10.464466094067262 17.535533905932738 L 9.757359312880716 18.242640687119284"/>
<path d="M 9.0 14.000000000000002 A 5 5 0 0 0 10.464466094067262 10.464466094067262"/>
<path d="M 10.464466094067262 10.464466094067262 L 9.757359312880714 9.757359312880716"/>
<path d="M 14.0 8.0 L 14.0 7.0"/>
<path d="M 14.0 8.0 A 6 6 0 0 0 18.242640687119284 9.757359312880714"/>
<path d="M 20.0 14.0 A 6 6 0 0 0 18.242640687119284 18.242640687119284"/>
<path d="M 20.0 14.0 L 21.0 14.0"/>
<path d="M 18.242640687119284 18.242640687119284 L 18.94974746830583 18.949747468305834"/>
<path d="M 14.0 20.0 L 14.0 21.0"/>
<path d="M 9.757359312880716 18.242640687119284 L 9.050252531694168 18.949747468305834"/>
<path d="M 8.0 14.0 L 7.0 14.0"/>
<path d="M 9.757359312880714 9.757359312880716 L 9.050252531694166 9.050252531694168"/>
<path d="M 14.0 7.0 L 14.000000000000002 6.0"/>
<path d="M 14.0 7.0 A 7 7 0 0 0 18.94974746830583 9.050252531694166"/>
<path d="M 18.949747468305834 9.050252531694168 L 19.65685424949238 8.34314575050762"/>
<path d="M 18.949747468305834 18.94974746830583 A 7 7 0 0 1 14.0 21.0"/>
<path d="M 18.94974746830583 18.949747468305834 L 19.65685424949238 19.65685424949238"/>
<path d="M 9.050252531694168 18.949747468305834 L 8.34314575050762 19.65685424949238"/>
<path d="M 7.0 14.000000000000002 A 7 7 0 0 0 9.050252531694166 9.050252531694168"/>
<path d="M 7.0 14.0 L 6.0 14.0"/>
<path d="M 9.050252531694166 9.050252531694168 L 8.34314575050762 8.34314575050762"/>
<path d="M 14.000000000000002 6.0 L 14.000000000000002 5.0"/>
<path d="M 22.0 14.0 A 8 8 0 0 0 19.65685424949238 19.65685424949238"/>
<path d="M 19.65685424949238 19.65685424949238 A 8 8 0 0 1 14.000000000000002 22.0"/>
<path d="M 8.34314575050762 19.656854249492383 A 8 8 0 0 1 6.0 14.000000000000002"/>
<path d="M 8.34314575050762 19.65685424949238 L 7.636038969321072 20.36396103067893"/>
<path d="M 6.0 14.0 L 5.0 14.0"/>
<path d="M 14.0 5.0 A 9 9 0 0 0 20.36396103067893 7.6360389693210715"/>
<path d="M 20.36396103067893 7.636038969321072 L 21.071067811865476 6.928932188134525"/>
<path d="M 23.0 14.0 L 24.0 14.0"/>
<path d="M 23.0 14.0 A 9 9 0 0 0 20.36396103067893 20.36396103067893"/>
<path d="M 14.000000000000002 23.0 A 9 9 0 0 0 7.636038969321072 20.36396103067893"/>
<path d="M 5.0 14.000000000000002 A 9 9 0 0 0 7.636038969321071 7.636038969321072"/>
<path d="M 5.0 14.0 L 4.0 14.0"/>
<path d="M 7.6360389693210715 7.636038969321072 L 6.9289321881345245 6.928932188134525"/>
<path d="M 14.0 4.0 A 10 10 0 0 0 21.071067811865476 6.9289321881345245"/>
<path d="M 14.000000000000002 4.0 L 14.000000000000002 3.0"/>
<path d="M 24.0 14.0 A 10 10 0 0 0 21.071067811865476 21.071067811865476"/>
<path d="M 24.0 14.0 L 25.0 14.0"/>
<path d="M 21.071067811865476 21.071067811865476 A 10 10 0 0 1 14.000000000000002 24.0"/>
<path d="M 14.000000000000002 24.0 A 10 10 0 0 0 6.928932188134525 21.071067811865476"/>
<path d="M 14.0 24.0 L 14.0 25.0"/>
<path d="M 14.000000000000002 3.0 L 14.000000000000002 2.0"/>
<path d="M 21.77817459305202 6.221825406947978 L 22.48528137423857 5.5147186257614305"/>
<path d="M 25.0 14.0 L 26.0 14.0"/>
<path d="M 21.77817459305202 21.77817459305202 A 11 11 0 0 1 14.000000000000002 25.0"/>
<path d="M 6.221825406947978 21.77817459305202 L 5.5147186257614305 22.48528137423857"/>
<path d="M 3.0 14.0 L 2.0 14.0"/>
<path d="M 6.221825406947977 6.221825406947978 L 5.514718625761429 5.5147186257614305"/>
<path d="M 5.514718625761429 5.5147186257614305 A 12 12 0 0 1 13.999999999999996 2.0"/>
<path d="M 22.485281374238568 5.514718625761429 A 12 12 0 0 1 26.0 14.0"/>
<path d="M 26.0 14.0 A 12 12 0 0 0 22.48528137423857 22.485281374238568"/>
<path d="M 22.48528137423857 22.485281374238568 A 12 12 0 0 1 14.000000000000002 26.0"/>
<path d="M 22.485281374238568 22.48528137423857 L 23.192388155425117 23.19238815542512"/>
<path d="M 14.000000000000002 26.0 A 12 12 0 0 0 5.5147186257614305 22.48528137423857"/>
<path d="M 5.5147186257614305 22.48528137423857 A 12 12 0 0 1 2.0 14.000000000000002"/>
<path d="M 2.0 14.000000000000002 A 12 12 0 0 0 5.514718625761429 5.5147186257614305"/>
<path d="M 4.807611844574881 4.8076118445748826 A 13 13 0 0 1 13.999999999999996 1.0"/>
<path d="M 14.0 1.0 A 13 13 0 0 0 23.192388155425117 4.807611844574881"/>
<path d="M 23.192388155425117 4.807611844574881 A 13 13 0 0 1 27.0 14.0"/>
<path d="M 27.0 14.0 A 13 13 0 0 0 23.19238815542512 23.192388155425117"/>
<path d="M 14.000000000000002 27.0 A 13 13 0 0 0 4.8076118445748826 23.19238815542512"/>
<path d="M 4.8076118445748826 23.19238815542512 A 13 13 0 0 1 1.0 14.000000000000002"/>
<path d="M 1.0 14.000000000000002 A 13 13 0 0 0 4.807611844574881 4.8076118445748826"/>
</svg>
</svg>
