<svg viewBox="0 0 10 10" xmlns="http://www.w3.org/2000/svg" style="background-color: #4B1F00;">

    <defs>
      <style>
        .orange_circle path {
          stroke: #ff7f24;
          stroke-width: 0.4391081609202617;
          stroke-linecap: round;
          fill: none;
        }
      </style>
    </defs>

		<title>
			A graphic made of thick orange lines and circular arcs.
		</title>

<svg class="orange_circle">
<path d="M 5,5 L 5.0,4.0"/>
<path d="M 4.459359182544402 4.158746467168819 A 1 1 0 0 1 4.999999999999999 4.0"/>
<path d="M 5.0 4.0 A 1 1 0 0 1 5.540640817455597 4.158746467168819"/>
<path d="M 5,5 L 4.010178558119067,5.142314838273285"/>
<path d="M 5,5 L 5.755749574354258,5.654860733945285"/>
<path d="M 5.0 3.0 L 5.0 2.0"/>
<path d="M 5.0 3.0 A 2 2 0 0 1 6.081281634911195 3.3174929343376376"/>
<path d="M 3.918718365088804 3.3174929343376385 A 2 2 0 0 1 4.999999999999997 3.0"/>
<path d="M 5.909631995354518 4.584584986998114 A 1 1 0 0 1 5.989821441880933 5.142314838273285"/>
<path d="M 6.081281634911195 3.3174929343376376 A 2 2 0 0 1 6.819263990709037 4.169169973996227"/>
<path d="M 5.989821441880933 5.142314838273285 A 1 1 0 0 1 5.755749574354258 5.654860733945285"/>
<path d="M 5.755749574354258 5.654860733945285 A 1 1 0 0 1 5.28173255684143 5.9594929736144975"/>
<path d="M 5.755749574354258 5.654860733945285 L 6.511499148708516 6.30972146789057"/>
<path d="M 5.28173255684143 5.9594929736144975 L 5.5634651136828595 6.918985947228995"/>
<path d="M 4.71826744315857 5.9594929736144975 L 4.4365348863171405 6.918985947228995"/>
<path d="M 4.244250425645742 5.654860733945285 A 1 1 0 0 1 4.010178558119067 5.142314838273285"/>
<path d="M 4.090368004645482 4.584584986998113 L 3.180736009290964 4.169169973996226"/>
<path d="M 6.819263990709037 4.169169973996227 A 2 2 0 0 1 6.979642883761866 5.28462967654657"/>
<path d="M 6.979642883761866 5.284629676546571 L 7.969464325642798 5.426944514819855"/>
<path d="M 6.511499148708516 6.30972146789057 L 7.2672487230627745 6.964582201835856"/>
<path d="M 5.56346511368286 6.918985947228995 A 2 2 0 0 1 4.436534886317141 6.918985947228995"/>
<path d="M 4.436534886317141 6.918985947228995 A 2 2 0 0 1 3.4885008512914837 6.30972146789057"/>
<path d="M 3.4885008512914837 6.30972146789057 L 2.7327512769372255 6.964582201835856"/>
<path d="M 3.0203571162381344 5.284629676546571 L 2.030535674357202 5.426944514819855"/>
<path d="M 3.1807360092909636 4.169169973996226 A 2 2 0 0 1 3.918718365088805 3.3174929343376376"/>
<path d="M 5.0 2.0 A 3 3 0 0 1 6.6219224523667926 2.476239401506456"/>
<path d="M 3.3780775476332052 2.476239401506458 A 3 3 0 0 1 4.9999999999999964 2.0"/>
<path d="M 6.621922452366793 2.4762394015064566 L 7.162563269822391 1.6349858686752756"/>
<path d="M 7.728895986063555 3.753754960994341 A 3 3 0 0 1 7.969464325642798 5.426944514819855"/>
<path d="M 7.969464325642798 5.426944514819855 L 8.959285767523731 5.56925935309314"/>
<path d="M 7.2672487230627745 6.964582201835856 L 8.022998297417033 7.619442935781141"/>
<path d="M 5.84519767052429 7.8784789208434916 A 3 3 0 0 1 4.154802329475712 7.878478920843492"/>
<path d="M 4.154802329475712 7.878478920843492 A 3 3 0 0 1 2.7327512769372255 6.964582201835856"/>
<path d="M 2.030535674357202 5.426944514819855 L 1.0407142324762693 5.56925935309314"/>
<path d="M 2.030535674357202 5.426944514819856 A 3 3 0 0 1 2.2711040139364442 3.7537549609943417"/>
<path d="M 2.837436730177607 1.634985868675277 A 4 4 0 0 1 4.999999999999996 1.0"/>
<path d="M 7.162563269822391 1.6349858686752752 A 4 4 0 0 1 8.638527981418074 3.3383399479924543"/>
<path d="M 8.959285767523731 5.56925935309314 A 4 4 0 0 1 8.022998297417033 7.61944293578114"/>
<path d="M 8.022998297417033 7.61944293578114 A 4 4 0 0 1 6.126930227365719 8.83797189445799"/>
<path d="M 6.126930227365721 8.83797189445799 A 4 4 0 0 1 3.873069772634282 8.83797189445799"/>
<path d="M 3.873069772634282 8.83797189445799 A 4 4 0 0 1 1.9770017025829674 7.619442935781141"/>
<path d="M 1.9770017025829674 7.619442935781141 A 4 4 0 0 1 1.0407142324762693 5.569259353093141"/>
<path d="M 1.0407142324762693 5.569259353093141 A 4 4 0 0 1 1.3614720185819258 3.3383399479924556"/>
<path d="M 1.3614720185819271 3.338339947992453 A 4 4 0 0 1 2.8374367301776102 1.6349858686752752"/>
</svg>
</svg>
