<svg viewBox="0 0 22 22" xmlns="http://www.w3.org/2000/svg" style="background-color: #330b1c;">

    <defs>
      <style>
        .pink_pentagon path {
          stroke: #f23483;
          stroke-width: 0.41544926187493075;
          stroke-linecap: round;
          fill: none;
        }
      </style>
    </defs>

		<title>
			A graphic made of pink lines on a dark background.
			They're arranged in a pentagonal shape, with two of the five sides mostly open.
		</title>

<svg x="0" y="0.8" class="pink_pentagon">
<path d="M 11,11 L 11.0,10.0"/>
<path d="M 11.0 10.0 L 10.048943483704846 10.690983005625053"/>
<path d="M 11.951056516295154 10.690983005625053 L 11.587785252292473 11.809016994374947"/>
<path d="M 11,11 L 11.587785252292473,11.809016994374947"/>
<path d="M 11,11 L 10.412214747707527,11.809016994374947"/>
<path d="M 10.048943483704846 10.690983005625053 L 9.097886967409693 10.381966011250105"/>
<path d="M 11.0 9.0 L 9.097886967409693 10.381966011250105"/>
<path d="M 11.587785252292473 11.809016994374947 L 12.175570504584947 12.618033988749895"/>
<path d="M 12.902113032590307 10.381966011250105 L 12.175570504584947 12.618033988749895"/>
<path d="M 10.412214747707527 11.809016994374947 L 9.824429495415053 12.618033988749895"/>
<path d="M 9.824429495415053 12.618033988749895 L 9.23664424312258 13.427050983124843"/>
<path d="M 11.0 8.0 L 8.146830451114539 10.072949016875159"/>
<path d="M 11.0 8.0 L 11.0 7.0"/>
<path d="M 11.0 8.0 L 13.853169548885461 10.072949016875159"/>
<path d="M 13.853169548885461 10.072949016875159 L 12.76335575687742 13.427050983124843"/>
<path d="M 13.853169548885461 10.072949016875159 L 14.804226065180615 9.76393202250021"/>
<path d="M 12.76335575687742 13.427050983124843 L 13.351141009169893 14.23606797749979"/>
<path d="M 9.23664424312258 13.427050983124843 L 8.146830451114539 10.072949016875159"/>
<path d="M 8.146830451114539 10.072949016875159 L 7.195773934819385 9.76393202250021"/>
<path d="M 13.351141009169893 14.23606797749979 L 13.938926261462367 15.045084971874736"/>
<path d="M 8.648858990830107 14.23606797749979 L 8.061073738537633 15.045084971874736"/>
<path d="M 7.195773934819385 9.76393202250021 L 6.244717418524232 9.454915028125264"/>
<path d="M 11.0 6.0 L 15.755282581475768 9.454915028125264"/>
<path d="M 11.0 6.0 L 11.0 5.0"/>
<path d="M 15.755282581475768 9.454915028125264 L 16.706339097770922 9.145898033750315"/>
<path d="M 13.938926261462367 15.045084971874736 L 14.526711513754838 15.854101966249685"/>
<path d="M 13.938926261462367 15.045084971874736 L 8.061073738537633 15.045084971874736"/>
<path d="M 11.0 5.0 L 11.0 4.0"/>
<path d="M 11.0 5.0 L 5.293660902229078 9.145898033750315"/>
<path d="M 16.706339097770922 9.145898033750315 L 14.526711513754838 15.854101966249685"/>
<path d="M 7.473288486245162 15.854101966249685 L 6.885503233952688 16.663118960624633"/>
<path d="M 11.0 4.0 L 4.3426043859339245 8.836881039375369"/>
<path d="M 11.0 4.0 L 17.657395614066075 8.836881039375369"/>
<path d="M 11.0 4.0 L 11.000000000000002 3.0"/>
<path d="M 17.657395614066075 8.836881039375369 L 18.60845213036123 8.52786404500042"/>
<path d="M 17.657395614066075 8.836881039375369 L 15.114496766047312 16.663118960624633"/>
<path d="M 15.114496766047312 16.663118960624633 L 15.702282018339785 17.47213595499958"/>
<path d="M 6.885503233952688 16.663118960624633 L 4.3426043859339245 8.836881039375369"/>
<path d="M 4.3426043859339245 8.836881039375369 L 3.391547869638771 8.52786404500042"/>
<path d="M 15.702282018339785 17.47213595499958 L 16.290067270632257 18.281152949374526"/>
<path d="M 6.297717981660215 17.47213595499958 L 5.7099327293677415 18.281152949374526"/>
<path d="M 3.391547869638771 8.52786404500042 L 2.440491353343617 8.218847050625474"/>
<path d="M 11.000000000000002 2.0 L 19.559508646656383 8.218847050625474"/>
<path d="M 19.559508646656383 8.218847050625474 L 20.510565162951536 7.909830056250526"/>
<path d="M 16.290067270632257 18.281152949374526 L 5.7099327293677415 18.281152949374526"/>
<path d="M 5.7099327293677415 18.281152949374526 L 5.122147477075268 19.090169943749473"/>
<path d="M 2.440491353343617 8.218847050625474 L 1.4894348370484636 7.909830056250526"/>
<path d="M 11.000000000000002 1.0 L 20.510565162951536 7.909830056250526"/>
<path d="M 11.000000000000002 1.0 L 1.4894348370484636 7.909830056250526"/>
<path d="M 20.510565162951536 7.909830056250526 L 16.877852522924734 19.090169943749473"/>
</svg>
</svg>
