<svg viewBox="0 0 8 8" xmlns="http://www.w3.org/2000/svg" style="background-color: #f7dbff;">

    <defs>
      <style>
        .purple_splodge path {
          stroke: #6a008a;
          stroke-width: 0.16188600144129264;
          stroke-linecap: round;
          fill: none;
        }
      </style>
    </defs>

		<title>
			A purple graphic that looks a bit like an octagon with a bunch of sides removed.
		</title>

<svg class="purple_splodge">
<path d="M 3.3572123903134603 3.233955556881022 A 1 1 0 0 0 3.9999999999999996 3.0"/>
<path d="M 4.64278760968654 3.233955556881022 A 1 1 0 0 1 4.984807753012208 3.8263518223330695"/>
<path d="M 3.3572123903134603 3.233955556881022 L 2.714424780626921 2.467911113762044"/>
<path d="M 2.7144247806269206 2.467911113762044 A 2 2 0 0 0 3.9999999999999996 2.0"/>
<path d="M 4.984807753012208 3.82635182233307 L 5.969615506024416 3.6527036446661394"/>
<path d="M 5.285575219373079 2.467911113762044 L 5.928362829059618 1.7018666706430663"/>
<path d="M 5.2855752193730785 2.4679111137620438 A 2 2 0 0 1 5.969615506024416 3.652703644666139"/>
<path d="M 4.866025403784439 4.5 A 1 1 0 0 1 4.342020143325669 4.939692620785908"/>
<path d="M 4.866025403784438 4.5 L 5.732050807568878 5.0"/>
<path d="M 5.969615506024416 3.6527036446661394 L 6.9544232590366235 3.479055466999209"/>
<path d="M 5.969615506024416 3.652703644666139 A 2 2 0 0 0 5.732050807568878 5.0"/>
<path d="M 5.732050807568878 5.0 A 2 2 0 0 1 4.684040286651338 5.879385241571817"/>
<path d="M 3.657979856674331 4.939692620785909 L 3.3159597133486622 5.879385241571817"/>
<path d="M 4.684040286651338 5.879385241571817 L 5.026060429977006 6.819077862357725"/>
<path d="M 3.1339745962155616 4.5 L 2.2679491924311233 5.000000000000001"/>
<path d="M 3.1339745962155616 4.5 A 1 1 0 0 0 3.015192246987792 3.82635182233307"/>
<path d="M 3.3159597133486622 5.879385241571817 L 2.973939570022994 6.819077862357725"/>
<path d="M 3.3159597133486627 5.879385241571817 A 2 2 0 0 1 2.2679491924311233 5.000000000000001"/>
<path d="M 3.015192246987792 3.82635182233307 L 2.0303844939755837 3.65270364466614"/>
<path d="M 2.0303844939755837 3.65270364466614 L 1.0455767409633756 3.4790554669992098"/>
<path d="M 2.0303844939755837 3.65270364466614 A 2 2 0 0 1 2.7144247806269206 2.467911113762044"/>
<path d="M 2.714424780626921 2.467911113762044 L 2.071637170940382 1.7018666706430663"/>
<path d="M 4.0 1.0 A 3 3 0 0 0 5.928362829059617 1.7018666706430654"/>
<path d="M 6.598076211353316 5.499999999999999 A 3 3 0 0 1 5.026060429977006 6.819077862357725"/>
<path d="M 5.026060429977006 6.819077862357725 A 3 3 0 0 0 2.973939570022994 6.819077862357725"/>
<path d="M 2.973939570022994 6.819077862357725 A 3 3 0 0 1 1.4019237886466849 5.500000000000002"/>
</svg>
</svg>
