<svg viewBox="0 0 8 8" xmlns="http://www.w3.org/2000/svg">

  <defs>
    <style>
      .radial path {
	      stroke: #aaa;
	      stroke-width: 0.08;
        stroke-linecap: round;
        fill: none;
      }
    </style>
  </defs>

	<title>
		Three concentric grey rings, with five spokes going from the centre to the outermost ring.
	</title>

<svg class="radial">
<path d="M 4.0 3.0 A 1 1 0 0 1 4.951056516295154 3.6909830056250525"/>
<path d="M 4,4 L 4.0,3.0"/>
<path d="M 3.0489434837048464 3.6909830056250525 A 1 1 0 0 1 3.9999999999999996 3.0"/>
<path d="M 4.0 3.0 L 4.0 2.0"/>
<path d="M 4.951056516295154 3.6909830056250525 A 1 1 0 0 1 4.587785252292473 4.8090169943749475"/>
<path d="M 4,4 L 4.951056516295154,3.6909830056250525"/>
<path d="M 4.951056516295154 3.6909830056250525 L 5.902113032590307 3.381966011250105"/>
<path d="M 4,4 L 4.587785252292473,4.8090169943749475"/>
<path d="M 4,4 L 3.4122147477075266,4.8090169943749475"/>
<path d="M 4,4 L 3.0489434837048464,3.6909830056250525"/>
<path d="M 4.587785252292473 4.8090169943749475 A 1 1 0 0 1 3.412214747707527 4.8090169943749475"/>
<path d="M 4.587785252292473 4.8090169943749475 L 5.175570504584947 5.618033988749895"/>
<path d="M 3.412214747707527 4.8090169943749475 A 1 1 0 0 1 3.0489434837048464 3.6909830056250525"/>
<path d="M 3.4122147477075266 4.8090169943749475 L 2.8244294954150537 5.618033988749895"/>
<path d="M 3.0489434837048464 3.6909830056250525 L 2.0978869674096927 3.381966011250105"/>
<path d="M 4.0 2.0 A 2 2 0 0 1 5.902113032590307 3.381966011250105"/>
<path d="M 2.0978869674096927 3.3819660112501055 A 2 2 0 0 1 3.9999999999999996 2.0"/>
<path d="M 4.0 2.0 L 4.0 1.0"/>
<path d="M 5.902113032590307 3.381966011250105 A 2 2 0 0 1 5.175570504584947 5.618033988749895"/>
<path d="M 5.902113032590307 3.381966011250105 L 6.853169548885461 3.072949016875158"/>
<path d="M 5.175570504584947 5.618033988749895 A 2 2 0 0 1 2.824429495415054 5.618033988749895"/>
<path d="M 5.175570504584947 5.618033988749895 L 5.763355756877419 6.427050983124842"/>
<path d="M 2.824429495415054 5.618033988749895 A 2 2 0 0 1 2.0978869674096927 3.3819660112501055"/>
<path d="M 2.8244294954150537 5.618033988749895 L 2.236644243122581 6.427050983124842"/>
<path d="M 2.0978869674096927 3.381966011250105 L 1.146830451114539 3.072949016875158"/>
<path d="M 4.0 1.0 A 3 3 0 0 1 6.853169548885461 3.0729490168751576"/>
<path d="M 1.146830451114539 3.0729490168751585 A 3 3 0 0 1 3.999999999999999 1.0"/>
<path d="M 6.853169548885461 3.0729490168751576 A 3 3 0 0 1 5.76335575687742 6.4270509831248415"/>
<path d="M 5.76335575687742 6.4270509831248415 A 3 3 0 0 1 2.236644243122581 6.427050983124842"/>
<path d="M 2.236644243122581 6.427050983124842 A 3 3 0 0 1 1.146830451114539 3.0729490168751585"/>
</svg>
</svg>
