<svg viewBox="0 0 8 8" xmlns="http://www.w3.org/2000/svg">

  <defs>
    <style>
      .radial path {
	      stroke: #aaa;
	      stroke-width: 0.08;
        stroke-linecap: round;
        fill: none;
      }
    </style>
  </defs>

	<title>
		Three concentric grey rings, with three spokes going from the centre to the outermost ring.
	</title>

<svg x="0" y="0" class="radial">
<path d="M 4.0 3.0 A 1 1 0 0 1 4.866025403784439 4.5"/>
<path d="M 4,4 L 4.0,3.0"/>
<path d="M 3.1339745962155616 4.5 A 1 1 0 0 1 3.9999999999999996 3.0"/>
<path d="M 4.0 3.0 L 4.0 2.0"/>
<path d="M 4.866025403784439 4.5 A 1 1 0 0 1 3.1339745962155616 4.5"/>
<path d="M 4,4 L 4.866025403784438,4.5"/>
<path d="M 4.866025403784438 4.5 L 5.732050807568878 5.0"/>
<path d="M 4,4 L 3.1339745962155616,4.5"/>
<path d="M 3.1339745962155616 4.5 L 2.2679491924311233 5.000000000000001"/>
<path d="M 4.0 2.0 A 2 2 0 0 1 5.732050807568878 5.0"/>
<path d="M 2.2679491924311233 5.000000000000001 A 2 2 0 0 1 3.9999999999999996 2.0"/>
<path d="M 4.0 2.0 L 4.0 1.0"/>
<path d="M 5.732050807568878 5.0 A 2 2 0 0 1 2.2679491924311233 5.000000000000001"/>
<path d="M 5.732050807568878 5.0 L 6.598076211353316 5.5"/>
<path d="M 2.2679491924311233 5.000000000000001 L 1.4019237886466844 5.500000000000001"/>
<path d="M 4.0 1.0 A 3 3 0 0 1 6.598076211353316 5.499999999999999"/>
<path d="M 1.4019237886466849 5.500000000000002 A 3 3 0 0 1 3.999999999999999 1.0"/>
<path d="M 6.598076211353316 5.499999999999999 A 3 3 0 0 1 1.4019237886466849 5.500000000000002"/>
</svg>
</svg>
