<svg viewBox="0 0 8 8" xmlns="http://www.w3.org/2000/svg">

    <defs>
      <style>
        .radial path {
		      stroke: #aaa;
		      stroke-width: 0.08;
          stroke-linecap: round;
          fill: none;
        }
      </style>
    </defs>

		<title>
			Three concentric grey rings, with twenty spokes going from the centre to the outermost ring.
		</title>

<svg class="radial">
<path d="M 4.0 3.0 A 1 1 0 0 1 4.3090169943749475 3.0489434837048464"/>
<path d="M 4,4 L 4.0,3.0"/>
<path d="M 3.6909830056250525 3.0489434837048464 A 1 1 0 0 1 3.9999999999999996 3.0"/>
<path d="M 4.0 3.0 L 4.0 2.0"/>
<path d="M 4.3090169943749475 3.0489434837048464 A 1 1 0 0 1 4.587785252292473 3.1909830056250525"/>
<path d="M 4,4 L 4.3090169943749475,3.0489434837048464"/>
<path d="M 4.3090169943749475 3.0489434837048464 L 4.618033988749895 2.0978869674096927"/>
<path d="M 4,4 L 4.587785252292473,3.1909830056250525"/>
<path d="M 4,4 L 4.8090169943749475,3.412214747707527"/>
<path d="M 4,4 L 4.951056516295154,3.6909830056250525"/>
<path d="M 4,4 L 5.0,4.0"/>
<path d="M 4,4 L 4.951056516295154,4.3090169943749475"/>
<path d="M 4,4 L 4.8090169943749475,4.587785252292473"/>
<path d="M 4,4 L 4.587785252292473,4.8090169943749475"/>
<path d="M 4,4 L 4.3090169943749475,4.951056516295154"/>
<path d="M 4,4 L 4.0,5.0"/>
<path d="M 4,4 L 3.690983005625052,4.951056516295154"/>
<path d="M 4,4 L 3.4122147477075266,4.8090169943749475"/>
<path d="M 4,4 L 3.1909830056250525,4.587785252292473"/>
<path d="M 4,4 L 3.0489434837048464,4.3090169943749475"/>
<path d="M 4,4 L 3.0,4.0"/>
<path d="M 4,4 L 3.0489434837048464,3.6909830056250525"/>
<path d="M 4,4 L 3.1909830056250525,3.412214747707527"/>
<path d="M 4,4 L 3.4122147477075266,3.1909830056250525"/>
<path d="M 4,4 L 3.6909830056250525,3.0489434837048464"/>
<path d="M 4.587785252292473 3.1909830056250525 A 1 1 0 0 1 4.8090169943749475 3.4122147477075266"/>
<path d="M 4.587785252292473 3.1909830056250525 L 5.175570504584947 2.381966011250105"/>
<path d="M 4.8090169943749475 3.4122147477075266 A 1 1 0 0 1 4.951056516295154 3.6909830056250525"/>
<path d="M 4.8090169943749475 3.412214747707527 L 5.618033988749895 2.824429495415054"/>
<path d="M 4.951056516295154 3.6909830056250525 A 1 1 0 0 1 5.0 4.0"/>
<path d="M 4.951056516295154 3.6909830056250525 L 5.902113032590307 3.381966011250105"/>
<path d="M 5.0 4.0 A 1 1 0 0 1 4.951056516295154 4.3090169943749475"/>
<path d="M 5.0 4.0 L 6.0 4.0"/>
<path d="M 4.951056516295154 4.3090169943749475 A 1 1 0 0 1 4.8090169943749475 4.587785252292473"/>
<path d="M 4.951056516295154 4.3090169943749475 L 5.902113032590307 4.618033988749895"/>
<path d="M 4.8090169943749475 4.587785252292473 A 1 1 0 0 1 4.587785252292473 4.8090169943749475"/>
<path d="M 4.8090169943749475 4.587785252292473 L 5.618033988749895 5.175570504584947"/>
<path d="M 4.587785252292473 4.8090169943749475 A 1 1 0 0 1 4.3090169943749475 4.951056516295154"/>
<path d="M 4.587785252292473 4.8090169943749475 L 5.175570504584947 5.618033988749895"/>
<path d="M 4.3090169943749475 4.951056516295154 A 1 1 0 0 1 4.0 5.0"/>
<path d="M 4.3090169943749475 4.951056516295154 L 4.618033988749895 5.902113032590307"/>
<path d="M 4.0 5.0 A 1 1 0 0 1 3.6909830056250525 4.951056516295154"/>
<path d="M 4.0 5.0 L 4.0 6.0"/>
<path d="M 3.690983005625052 4.951056516295154 A 1 1 0 0 1 3.4122147477075266 4.8090169943749475"/>
<path d="M 3.690983005625052 4.951056516295154 L 3.381966011250104 5.902113032590307"/>
<path d="M 3.412214747707527 4.8090169943749475 A 1 1 0 0 1 3.1909830056250525 4.587785252292473"/>
<path d="M 3.4122147477075266 4.8090169943749475 L 2.8244294954150537 5.618033988749895"/>
<path d="M 3.1909830056250525 4.587785252292473 A 1 1 0 0 1 3.0489434837048464 4.3090169943749475"/>
<path d="M 3.1909830056250525 4.587785252292473 L 2.381966011250105 5.175570504584947"/>
<path d="M 3.0489434837048464 4.3090169943749475 A 1 1 0 0 1 3.0 4.0"/>
<path d="M 3.0489434837048464 4.3090169943749475 L 2.0978869674096927 4.618033988749895"/>
<path d="M 3.0 4.0 A 1 1 0 0 1 3.0489434837048464 3.6909830056250525"/>
<path d="M 3.0 4.0 L 2.0 4.0"/>
<path d="M 3.0489434837048464 3.6909830056250525 A 1 1 0 0 1 3.1909830056250525 3.412214747707527"/>
<path d="M 3.0489434837048464 3.6909830056250525 L 2.0978869674096927 3.381966011250105"/>
<path d="M 3.1909830056250525 3.412214747707527 A 1 1 0 0 1 3.4122147477075266 3.1909830056250525"/>
<path d="M 3.1909830056250525 3.412214747707527 L 2.381966011250105 2.824429495415054"/>
<path d="M 3.4122147477075266 3.1909830056250525 A 1 1 0 0 1 3.6909830056250525 3.0489434837048464"/>
<path d="M 3.4122147477075266 3.1909830056250525 L 2.8244294954150533 2.381966011250105"/>
<path d="M 3.6909830056250525 3.0489434837048464 L 3.381966011250105 2.0978869674096927"/>
<path d="M 4.0 2.0 A 2 2 0 0 1 4.618033988749895 2.0978869674096927"/>
<path d="M 3.3819660112501047 2.0978869674096927 A 2 2 0 0 1 3.9999999999999996 2.0"/>
<path d="M 4.0 2.0 L 4.0 1.0"/>
<path d="M 4.618033988749895 2.0978869674096927 A 2 2 0 0 1 5.175570504584947 2.381966011250105"/>
<path d="M 4.618033988749895 2.0978869674096927 L 4.927050983124842 1.1468304511145395"/>
<path d="M 5.175570504584947 2.381966011250105 A 2 2 0 0 1 5.618033988749895 2.8244294954150533"/>
<path d="M 5.175570504584947 2.381966011250105 L 5.76335575687742 1.572949016875158"/>
<path d="M 5.618033988749895 2.8244294954150533 A 2 2 0 0 1 5.902113032590307 3.381966011250105"/>
<path d="M 5.618033988749895 2.824429495415054 L 6.427050983124842 2.236644243122581"/>
<path d="M 5.902113032590307 3.381966011250105 A 2 2 0 0 1 6.0 4.0"/>
<path d="M 5.902113032590307 3.381966011250105 L 6.853169548885461 3.072949016875158"/>
<path d="M 6.0 4.0 A 2 2 0 0 1 5.902113032590307 4.618033988749895"/>
<path d="M 6.0 4.0 L 7.0 4.0"/>
<path d="M 5.902113032590307 4.618033988749895 A 2 2 0 0 1 5.618033988749895 5.175570504584946"/>
<path d="M 5.902113032590307 4.618033988749895 L 6.853169548885461 4.927050983124842"/>
<path d="M 5.618033988749895 5.175570504584946 A 2 2 0 0 1 5.175570504584947 5.618033988749895"/>
<path d="M 5.618033988749895 5.175570504584947 L 6.4270509831248415 5.76335575687742"/>
<path d="M 5.175570504584947 5.618033988749895 A 2 2 0 0 1 4.618033988749895 5.902113032590307"/>
<path d="M 5.175570504584947 5.618033988749895 L 5.763355756877419 6.427050983124842"/>
<path d="M 4.618033988749895 5.902113032590307 A 2 2 0 0 1 4.0 6.0"/>
<path d="M 4.618033988749895 5.902113032590307 L 4.927050983124842 6.853169548885461"/>
<path d="M 4.0 6.0 A 2 2 0 0 1 3.3819660112501055 5.902113032590307"/>
<path d="M 4.0 6.0 L 4.0 7.0"/>
<path d="M 3.3819660112501047 5.902113032590307 A 2 2 0 0 1 2.8244294954150533 5.618033988749895"/>
<path d="M 3.381966011250104 5.902113032590307 L 3.0729490168751568 6.85316954888546"/>
<path d="M 2.824429495415054 5.618033988749895 A 2 2 0 0 1 2.381966011250105 5.175570504584947"/>
<path d="M 2.8244294954150537 5.618033988749895 L 2.236644243122581 6.427050983124842"/>
<path d="M 2.381966011250105 5.175570504584947 A 2 2 0 0 1 2.0978869674096927 4.618033988749895"/>
<path d="M 2.381966011250105 5.175570504584947 L 1.572949016875158 5.76335575687742"/>
<path d="M 2.0978869674096927 4.618033988749895 A 2 2 0 0 1 2.0 4.0"/>
<path d="M 2.0978869674096927 4.618033988749895 L 1.1468304511145395 4.927050983124842"/>
<path d="M 2.0 4.0 A 2 2 0 0 1 2.0978869674096927 3.3819660112501055"/>
<path d="M 2.0 4.0 L 1.0 4.0"/>
<path d="M 2.0978869674096927 3.3819660112501055 A 2 2 0 0 1 2.381966011250105 2.824429495415054"/>
<path d="M 2.0978869674096927 3.381966011250105 L 1.146830451114539 3.072949016875158"/>
<path d="M 2.381966011250105 2.824429495415054 A 2 2 0 0 1 2.8244294954150533 2.381966011250105"/>
<path d="M 2.381966011250105 2.824429495415054 L 1.5729490168751576 2.236644243122581"/>
<path d="M 2.8244294954150533 2.381966011250105 A 2 2 0 0 1 3.3819660112501047 2.0978869674096927"/>
<path d="M 2.8244294954150533 2.381966011250105 L 2.2366442431225804 1.572949016875158"/>
<path d="M 3.381966011250105 2.0978869674096927 L 3.0729490168751576 1.1468304511145395"/>
<path d="M 4.0 1.0 A 3 3 0 0 1 4.927050983124842 1.1468304511145395"/>
<path d="M 3.072949016875157 1.1468304511145395 A 3 3 0 0 1 3.999999999999999 1.0"/>
<path d="M 4.927050983124842 1.1468304511145395 A 3 3 0 0 1 5.763355756877419 1.5729490168751576"/>
<path d="M 5.763355756877419 1.5729490168751576 A 3 3 0 0 1 6.4270509831248415 2.2366442431225804"/>
<path d="M 6.4270509831248415 2.2366442431225804 A 3 3 0 0 1 6.853169548885461 3.0729490168751576"/>
<path d="M 6.853169548885461 3.0729490168751576 A 3 3 0 0 1 7.0 4.0"/>
<path d="M 7.0 4.0 A 3 3 0 0 1 6.853169548885461 4.927050983124842"/>
<path d="M 6.853169548885461 4.927050983124842 A 3 3 0 0 1 6.427050983124842 5.763355756877419"/>
<path d="M 6.427050983124842 5.763355756877419 A 3 3 0 0 1 5.76335575687742 6.4270509831248415"/>
<path d="M 5.76335575687742 6.4270509831248415 A 3 3 0 0 1 4.927050983124842 6.853169548885461"/>
<path d="M 4.927050983124842 6.853169548885461 A 3 3 0 0 1 4.0 7.0"/>
<path d="M 4.0 7.0 A 3 3 0 0 1 3.072949016875158 6.853169548885461"/>
<path d="M 3.0729490168751568 6.85316954888546 A 3 3 0 0 1 2.23664424312258 6.4270509831248415"/>
<path d="M 2.236644243122581 6.427050983124842 A 3 3 0 0 1 1.572949016875158 5.76335575687742"/>
<path d="M 1.572949016875158 5.76335575687742 A 3 3 0 0 1 1.1468304511145395 4.927050983124842"/>
<path d="M 1.1468304511145395 4.927050983124842 A 3 3 0 0 1 1.0 4.000000000000001"/>
<path d="M 1.0 4.000000000000001 A 3 3 0 0 1 1.146830451114539 3.0729490168751585"/>
<path d="M 1.146830451114539 3.0729490168751585 A 3 3 0 0 1 1.5729490168751572 2.2366442431225813"/>
<path d="M 1.5729490168751572 2.2366442431225813 A 3 3 0 0 1 2.2366442431225804 1.572949016875158"/>
<path d="M 2.2366442431225804 1.572949016875158 A 3 3 0 0 1 3.072949016875157 1.1468304511145395"/>
</svg>
</svg>
