<svg viewBox="0 0 26 26" xmlns="http://www.w3.org/2000/svg" style="background-color: #520100;">

    <defs>
      <style>
        #red_nuclear path {
          stroke: #ff3b38;
          stroke-width: 0.2558961455352551;
          stroke-linecap: round;
          fill: none;
        }
      </style>
    </defs>

		<title>
			A graphic made of connected red circular lines.
			They're arranged into seven segments, with three segments forming along the outer edge.
			This looks similar to the three sections of a radiation warning symbol.
		</title>

<svg x="1" y="1" id="red_nuclear">
<path d="M 12.0 11.0 A 1 1 0 0 1 12.78183148246803 11.376510198141267"/>
<path d="M 12.0 11.0 L 12.0 10.0"/>
<path d="M 12.78183148246803 11.376510198141267 L 13.56366296493606 10.753020396282533"/>
<path d="M 12.78183148246803 11.376510198141267 A 1 1 0 0 1 12.974927912181824 12.222520933956314"/>
<path d="M 12,12 L 12.433883739117558,12.900968867902419"/>
<path d="M 11.21816851753197 11.376510198141267 L 10.43633703506394 10.753020396282533"/>
<path d="M 11.025072087818177 12.222520933956314 A 1 1 0 0 1 11.21816851753197 11.376510198141267"/>
<path d="M 12.974927912181824 12.222520933956314 A 1 1 0 0 1 12.433883739117558 12.900968867902419"/>
<path d="M 13.563662964936059 10.753020396282533 A 2 2 0 0 1 13.949855824363647 12.445041867912629"/>
<path d="M 11.566116260882442 12.900968867902419 L 11.132232521764884 13.801937735804838"/>
<path d="M 13.949855824363647 12.445041867912629 A 2 2 0 0 1 12.867767478235116 13.801937735804838"/>
<path d="M 12.867767478235116 13.801937735804838 L 13.301651217352674 14.702906603707257"/>
<path d="M 12.867767478235116 13.801937735804838 A 2 2 0 0 1 11.132232521764884 13.801937735804838"/>
<path d="M 10.050144175636353 12.445041867912629 L 9.075216263454529 12.667562801868943"/>
<path d="M 10.050144175636353 12.445041867912629 A 2 2 0 0 1 10.43633703506394 10.753020396282533"/>
<path d="M 12.0 9.0 L 12.0 8.0"/>
<path d="M 12.0 9.0 A 3 3 0 0 1 14.34549444740409 10.1295305944238"/>
<path d="M 14.924783736545471 12.667562801868943 A 3 3 0 0 1 13.301651217352674 14.702906603707257"/>
<path d="M 13.301651217352674 14.702906603707257 A 3 3 0 0 1 10.698348782647326 14.702906603707257"/>
<path d="M 10.698348782647326 14.702906603707257 L 10.264465043529768 15.603875471609676"/>
<path d="M 9.075216263454529 12.667562801868943 L 8.100288351272706 12.890083735825257"/>
<path d="M 9.075216263454529 12.667562801868943 A 3 3 0 0 1 9.65450555259591 10.1295305944238"/>
<path d="M 9.65450555259591 10.1295305944238 L 8.87267407012788 9.506040792565067"/>
<path d="M 8.87267407012788 9.506040792565067 A 4 4 0 0 1 11.999999999999998 8.0"/>
<path d="M 12.0 8.0 A 4 4 0 0 1 15.127325929872118 9.506040792565067"/>
<path d="M 15.12732592987212 9.506040792565067 L 15.90915741234015 8.882550990706333"/>
<path d="M 15.899711648727294 12.890083735825257 L 16.874639560909117 13.112604669781572"/>
<path d="M 15.899711648727294 12.890083735825257 A 4 4 0 0 1 13.735534956470232 15.603875471609676"/>
<path d="M 13.735534956470232 15.603875471609676 L 14.16941869558779 16.504844339512097"/>
<path d="M 10.264465043529768 15.603875471609676 L 9.83058130441221 16.504844339512097"/>
<path d="M 8.100288351272706 12.890083735825257 L 7.125360439090882 13.112604669781572"/>
<path d="M 8.87267407012788 9.506040792565067 L 8.09084258765985 8.882550990706333"/>
<path d="M 8.09084258765985 8.882550990706333 A 5 5 0 0 1 11.999999999999998 7.0"/>
<path d="M 12.0 7.0 L 12.0 6.0"/>
<path d="M 15.90915741234015 8.882550990706333 L 16.69098889480818 8.2590611888476"/>
<path d="M 14.16941869558779 16.504844339512097 A 5 5 0 0 1 9.83058130441221 16.504844339512097"/>
<path d="M 9.83058130441221 16.504844339512097 L 9.396697565294652 17.405813207414514"/>
<path d="M 16.69098889480818 8.2590611888476 L 17.472820377276207 7.635571386988866"/>
<path d="M 17.849567473090943 13.335125603737886 A 6 6 0 0 1 14.603302434705348 17.405813207414514"/>
<path d="M 14.603302434705348 17.405813207414514 L 15.037186173822906 18.306782075316935"/>
<path d="M 9.396697565294652 17.405813207414514 A 6 6 0 0 1 6.150432526909059 13.335125603737888"/>
<path d="M 6.150432526909059 13.335125603737888 A 6 6 0 0 1 7.3090111051918205 8.2590611888476"/>
<path d="M 7.3090111051918205 8.2590611888476 L 6.527179622723791 7.635571386988866"/>
<path d="M 12.0 5.0 A 7 7 0 0 1 17.472820377276207 7.635571386988865"/>
<path d="M 6.527179622723791 7.635571386988866 A 7 7 0 0 1 11.999999999999998 5.0"/>
<path d="M 17.472820377276207 7.635571386988865 A 7 7 0 0 1 18.824495385272765 13.5576465376942"/>
<path d="M 18.824495385272765 13.5576465376942 L 19.799423297454588 13.780167471650515"/>
<path d="M 15.037186173822906 18.306782075316935 L 15.471069912940465 19.207750943219352"/>
<path d="M 8.962813826177094 18.306782075316935 A 7 7 0 0 1 5.175504614727235 13.557646537694202"/>
<path d="M 5.175504614727235 13.557646537694202 A 7 7 0 0 1 6.527179622723791 7.635571386988866"/>
<path d="M 12.0 4.0 A 8 8 0 0 1 18.254651859744236 7.012081585130131"/>
<path d="M 18.254651859744236 7.012081585130131 A 8 8 0 0 1 19.799423297454588 13.780167471650515"/>
<path d="M 18.25465185974424 7.012081585130133 L 19.03648334221227 6.3885917832714"/>
<path d="M 19.799423297454588 13.780167471650515 A 8 8 0 0 1 15.471069912940466 19.207750943219352"/>
<path d="M 19.799423297454588 13.780167471650515 L 20.774351209636414 14.002688405606829"/>
<path d="M 15.471069912940466 19.207750943219352 A 8 8 0 0 1 8.528930087059535 19.207750943219352"/>
<path d="M 8.528930087059535 19.207750943219352 L 8.095046347941977 20.108719811121773"/>
<path d="M 8.528930087059535 19.207750943219352 A 8 8 0 0 1 4.200576702545412 13.780167471650516"/>
<path d="M 5.745348140255761 7.012081585130133 L 4.96351665778773 6.3885917832714"/>
<path d="M 12.000000000000002 3.0 L 12.000000000000002 2.0"/>
<path d="M 12.0 3.0 A 9 9 0 0 1 19.036483342212268 6.388591783271398"/>
<path d="M 4.96351665778773 6.3885917832714 A 9 9 0 0 1 11.999999999999998 3.0"/>
<path d="M 15.904953652058024 20.108719811121773 A 9 9 0 0 1 8.095046347941977 20.108719811121773"/>
<path d="M 8.095046347941977 20.108719811121773 A 9 9 0 0 1 3.2256487903635893 14.00268840560683"/>
<path d="M 3.2256487903635875 14.002688405606829 L 2.250720878181763 14.225209339563143"/>
<path d="M 4.96351665778773 6.3885917832714 L 4.181685175319701 5.765101981412666"/>
<path d="M 12.000000000000002 2.0 L 12.000000000000002 1.0"/>
<path d="M 12.0 2.0 A 10 10 0 0 1 19.818314824680296 5.7651019814126645"/>
<path d="M 19.818314824680296 5.7651019814126645 A 10 10 0 0 1 21.749279121818237 14.225209339563143"/>
<path d="M 19.8183148246803 5.765101981412666 L 20.60014630714833 5.141612179553933"/>
<path d="M 21.749279121818237 14.225209339563143 A 10 10 0 0 1 16.33883739117558 21.00968867902419"/>
<path d="M 16.33883739117558 21.009688679024194 L 16.77272113029314 21.91065754692661"/>
<path d="M 7.66116260882442 21.009688679024194 A 10 10 0 0 1 2.250720878181765 14.225209339563147"/>
<path d="M 2.250720878181763 14.225209339563143 L 1.2757929659999405 14.44773027351946"/>
<path d="M 3.3998536928516714 5.141612179553933 A 11 11 0 0 1 11.999999999999996 1.0"/>
<path d="M 22.72420703400006 14.447730273519458 A 11 11 0 0 1 16.772721130293142 21.910657546926608"/>
<path d="M 7.227278869706862 21.91065754692661 A 11 11 0 0 1 1.2757929659999405 14.447730273519461"/>
</svg>
</svg>
