<svg viewBox="0 0 20 20" xmlns="http://www.w3.org/2000/svg" style="background-color: #3d0008;">

    <defs>
      <style>
        .red_heptagon path {
          stroke: #ff94a2;
          stroke-width: 0.109012159891812;
          stroke-linecap: round;
          fill: none;
        }
      </style>
    </defs>

		<title>
			A red graphic that looks a bit like a curvy heptagon. Two of the segments have a lot of filled in lines, so it looks vaguely as if it's moving upwards.
		</title>

<svg class="red_heptagon">
<path d="M 9.21816851753197 9.376510198141267 A 1 1 0 0 0 10.0 9.0"/>
<path d="M 10,10 L 10.78183148246803,9.376510198141267"/>
<path d="M 10,10 L 9.025072087818176,10.222520933956314"/>
<path d="M 10,10 L 10.433883739117558,10.900968867902419"/>
<path d="M 10,10 L 9.21816851753197,9.376510198141267"/>
<path d="M 8.43633703506394 8.753020396282533 A 2 2 0 0 0 10.0 8.0"/>
<path d="M 10.0 8.0 L 10.0 7.0"/>
<path d="M 10.0 8.0 A 2 2 0 0 0 11.563662964936059 8.753020396282533"/>
<path d="M 10.974927912181824 10.222520933956314 A 1 1 0 0 0 10.433883739117558 10.900968867902419"/>
<path d="M 11.56366296493606 8.753020396282533 L 12.34549444740409 8.1295305944238"/>
<path d="M 11.563662964936059 8.753020396282533 A 2 2 0 0 1 11.949855824363647 10.445041867912629"/>
<path d="M 10.433883739117558 10.900968867902419 A 1 1 0 0 1 9.566116260882442 10.900968867902419"/>
<path d="M 9.025072087818176 10.222520933956314 L 8.050144175636353 10.445041867912629"/>
<path d="M 11.949855824363647 10.445041867912629 L 12.924783736545471 10.667562801868943"/>
<path d="M 10.867767478235116 11.801937735804838 A 2 2 0 0 1 9.132232521764884 11.801937735804838"/>
<path d="M 9.132232521764884 11.801937735804838 A 2 2 0 0 0 8.050144175636353 10.445041867912629"/>
<path d="M 8.050144175636353 10.445041867912629 A 2 2 0 0 1 8.43633703506394 8.753020396282533"/>
<path d="M 8.050144175636353 10.445041867912629 L 7.075216263454529 10.667562801868943"/>
<path d="M 8.43633703506394 8.753020396282533 L 7.654505552595911 8.1295305944238"/>
<path d="M 12.34549444740409 8.1295305944238 L 13.12732592987212 7.5060407925650665"/>
<path d="M 12.924783736545471 10.667562801868943 L 13.899711648727294 10.890083735825257"/>
<path d="M 11.301651217352674 12.702906603707257 A 3 3 0 0 1 8.698348782647326 12.702906603707257"/>
<path d="M 8.698348782647326 12.702906603707257 A 3 3 0 0 0 7.0752162634545295 10.667562801868943"/>
<path d="M 10.0 6.0 L 10.0 5.0"/>
<path d="M 10.0 6.0 A 4 4 0 0 0 13.127325929872118 7.506040792565066"/>
<path d="M 13.899711648727294 10.890083735825257 A 4 4 0 0 0 11.735534956470232 13.603875471609676"/>
<path d="M 11.735534956470232 13.603875471609676 A 4 4 0 0 1 8.264465043529768 13.603875471609676"/>
<path d="M 8.264465043529768 13.603875471609676 A 4 4 0 0 0 6.100288351272706 10.89008373582526"/>
<path d="M 6.87267407012788 7.5060407925650665 L 6.09084258765985 6.882550990706333"/>
<path d="M 6.09084258765985 6.882550990706333 A 5 5 0 0 0 9.999999999999998 5.0"/>
<path d="M 10.0 5.0 L 10.0 4.0"/>
<path d="M 13.90915741234015 6.882550990706333 L 14.690988894808179 6.2590611888476"/>
<path d="M 14.874639560909118 11.112604669781572 A 5 5 0 0 0 12.16941869558779 14.504844339512095"/>
<path d="M 14.874639560909118 11.112604669781572 L 15.849567473090943 11.335125603737886"/>
<path d="M 7.83058130441221 14.504844339512097 L 7.396697565294652 15.405813207414514"/>
<path d="M 5.1253604390908825 11.112604669781573 A 5 5 0 0 1 6.09084258765985 6.882550990706333"/>
<path d="M 6.09084258765985 6.882550990706333 L 5.3090111051918205 6.2590611888476"/>
<path d="M 10.0 4.0 L 10.0 3.0"/>
<path d="M 14.690988894808179 6.259061188847598 A 6 6 0 0 1 15.849567473090943 11.335125603737886"/>
<path d="M 15.849567473090943 11.335125603737886 A 6 6 0 0 0 12.603302434705348 15.405813207414514"/>
<path d="M 15.849567473090943 11.335125603737886 L 16.824495385272765 11.5576465376942"/>
<path d="M 12.603302434705348 15.405813207414514 A 6 6 0 0 1 7.396697565294652 15.405813207414514"/>
<path d="M 7.396697565294652 15.405813207414514 A 6 6 0 0 0 4.150432526909059 11.335125603737888"/>
<path d="M 7.396697565294652 15.405813207414514 L 6.9628138261770935 16.306782075316935"/>
<path d="M 4.150432526909059 11.335125603737888 A 6 6 0 0 1 5.3090111051918205 6.2590611888476"/>
<path d="M 10.0 3.0 L 10.000000000000002 2.0"/>
<path d="M 4.527179622723791 5.635571386988866 A 7 7 0 0 0 9.999999999999998 3.0"/>
<path d="M 10.0 3.0 A 7 7 0 0 0 15.472820377276207 5.635571386988865"/>
<path d="M 15.472820377276209 5.635571386988866 L 16.25465185974424 5.012081585130133"/>
<path d="M 16.824495385272765 11.5576465376942 A 7 7 0 0 0 13.037186173822908 16.30678207531693"/>
<path d="M 16.824495385272765 11.5576465376942 L 17.799423297454588 11.780167471650515"/>
<path d="M 3.1755046147272354 11.557646537694202 A 7 7 0 0 1 4.527179622723791 5.635571386988866"/>
<path d="M 3.1755046147272346 11.5576465376942 L 2.200576702545411 11.780167471650515"/>
<path d="M 16.25465185974424 5.012081585130133 L 17.03648334221227 4.3885917832714"/>
<path d="M 17.799423297454588 11.780167471650515 A 8 8 0 0 0 13.471069912940466 17.207750943219352"/>
<path d="M 13.471069912940465 17.207750943219352 L 13.904953652058023 18.108719811121773"/>
<path d="M 13.471069912940466 17.207750943219352 A 8 8 0 0 1 6.5289300870595355 17.207750943219352"/>
<path d="M 2.200576702545412 11.780167471650516 A 8 8 0 0 1 3.7453481402557607 5.012081585130133"/>
<path d="M 3.7453481402557607 5.012081585130133 L 2.9635166577877303 4.3885917832714"/>
<path d="M 10.0 1.0 A 9 9 0 0 0 17.036483342212268 4.388591783271398"/>
<path d="M 17.036483342212268 4.388591783271398 A 9 9 0 0 1 18.774351209636414 12.002688405606829"/>
<path d="M 6.095046347941977 18.108719811121773 A 9 9 0 0 0 1.2256487903635893 12.00268840560683"/>
<path d="M 1.2256487903635893 12.00268840560683 A 9 9 0 0 1 2.9635166577877303 4.3885917832714"/>
</svg>
</svg>
