<svg viewBox="0 0 14 14" xmlns="http://www.w3.org/2000/svg" style="background-color: #222;">

    <defs>
      <style>
        .silver_spider path {
          stroke: #fafafa;
          stroke-width: 0.09082019485427326;
          stroke-linecap: round;
          fill: none;
        }
      </style>
    </defs>

<svg class="silver_spider">
<path d="M 7.0 6.0 A 1 1 0 0 0 7.64278760968654 6.233955556881022"/>
<path d="M 6.35721239031346 6.233955556881022 A 1 1 0 0 0 7.0 6.0"/>
<path d="M 7.64278760968654 6.233955556881022 L 8.28557521937308 5.467911113762044"/>
<path d="M 7.64278760968654 6.233955556881022 A 1 1 0 0 0 7.984807753012208 6.82635182233307"/>
<path d="M 6.35721239031346 6.233955556881022 L 5.714424780626921 5.467911113762044"/>
<path d="M 7.0 5.0 L 7.0 4.0"/>
<path d="M 7.0 5.0 A 2 2 0 0 0 8.28557521937308 5.467911113762044"/>
<path d="M 7.984807753012208 6.82635182233307 A 1 1 0 0 0 7.866025403784439 7.5"/>
<path d="M 8.28557521937308 5.467911113762044 A 2 2 0 0 0 8.969615506024416 6.652703644666139"/>
<path d="M 7.866025403784439 7.5 A 1 1 0 0 0 7.342020143325669 7.939692620785908"/>
<path d="M 8.969615506024416 6.652703644666139 A 2 2 0 0 0 8.732050807568879 8.0"/>
<path d="M 8.732050807568877 8.0 L 9.598076211353316 8.5"/>
<path d="M 6.657979856674332 7.939692620785909 A 1 1 0 0 0 6.133974596215562 7.5"/>
<path d="M 7.684040286651338 8.879385241571818 L 8.026060429977006 9.819077862357725"/>
<path d="M 6.133974596215562 7.5 L 5.267949192431123 8.0"/>
<path d="M 6.133974596215562 7.5 A 1 1 0 0 0 6.015192246987792 6.82635182233307"/>
<path d="M 6.315959713348663 8.879385241571818 A 2 2 0 0 0 5.267949192431123 8.0"/>
<path d="M 5.267949192431123 8.0 L 4.401923788646684 8.5"/>
<path d="M 5.030384493975584 6.65270364466614 L 4.045576740963376 6.47905546699921"/>
<path d="M 7.0 4.0 L 7.000000000000001 3.0"/>
<path d="M 8.928362829059619 4.701866670643066 L 9.571150438746159 3.9358222275240884"/>
<path d="M 9.954423259036624 6.479055466999209 A 3 3 0 0 0 9.598076211353316 8.5"/>
<path d="M 9.598076211353316 8.5 A 3 3 0 0 0 8.026060429977006 9.819077862357725"/>
<path d="M 8.026060429977006 9.819077862357725 L 8.368080573302676 10.758770483143634"/>
<path d="M 5.973939570022994 9.819077862357725 L 5.6319194266973245 10.758770483143634"/>
<path d="M 4.401923788646684 8.5 L 3.535898384862246 9.000000000000002"/>
<path d="M 4.045576740963376 6.47905546699921 A 3 3 0 0 0 5.071637170940381 4.701866670643066"/>
<path d="M 4.045576740963376 6.47905546699921 L 3.0607689879511675 6.30540728933228"/>
<path d="M 5.071637170940382 4.701866670643066 L 4.428849561253842 3.9358222275240884"/>
<path d="M 7.000000000000001 3.0 L 7.000000000000001 2.0"/>
<path d="M 9.571150438746157 3.9358222275240875 A 4 4 0 0 0 10.939231012048833 6.305407289332278"/>
<path d="M 10.939231012048833 6.305407289332278 A 4 4 0 0 0 10.464101615137755 9.0"/>
<path d="M 10.464101615137755 9.0 L 11.330127018922195 9.5"/>
<path d="M 10.464101615137755 9.0 A 4 4 0 0 0 8.368080573302676 10.758770483143634"/>
<path d="M 5.631919426697325 10.758770483143634 A 4 4 0 0 0 3.5358983848622465 9.000000000000002"/>
<path d="M 3.535898384862246 9.000000000000002 L 2.6698729810778072 9.500000000000002"/>
<path d="M 3.0607689879511675 6.30540728933228 L 2.0759612349389593 6.13175911166535"/>
<path d="M 3.786061951567302 3.1697777844051105 A 5 5 0 0 0 6.999999999999999 2.0"/>
<path d="M 7.000000000000001 2.0 L 7.000000000000001 1.0"/>
<path d="M 10.213938048432697 3.1697777844051096 A 5 5 0 0 0 11.92403876506104 6.131759111665348"/>
<path d="M 11.92403876506104 6.131759111665348 A 5 5 0 0 0 11.330127018922195 9.5"/>
<path d="M 11.330127018922195 9.5 L 12.196152422706632 10.0"/>
<path d="M 11.330127018922195 9.5 A 5 5 0 0 0 8.710100716628345 11.69846310392954"/>
<path d="M 5.289899283371657 11.698463103929543 A 5 5 0 0 0 2.669872981077808 9.500000000000002"/>
<path d="M 5.289899283371656 11.698463103929543 L 4.947879140045988 12.63815572471545"/>
<path d="M 2.669872981077808 9.500000000000002 A 5 5 0 0 0 2.0759612349389593 6.1317591116653505"/>
<path d="M 2.0759612349389593 6.13175911166535 L 1.0911534819267512 5.9581109339984195"/>
<path d="M 3.7860619515673024 3.1697777844051105 L 3.143274341880763 2.4037333412861326"/>
<path d="M 7.0 1.0 A 6 6 0 0 0 10.856725658119235 2.403733341286131"/>
<path d="M 10.856725658119235 2.403733341286131 A 6 6 0 0 0 12.908846518073247 5.958110933998418"/>
<path d="M 12.196152422706632 9.999999999999998 A 6 6 0 0 0 9.052120859954012 12.63815572471545"/>
<path d="M 1.8038475772933698 10.000000000000004 A 6 6 0 0 0 1.0911534819267512 5.95811093399842"/>
<path d="M 1.0911534819267512 5.95811093399842 A 6 6 0 0 0 3.1432743418807627 2.4037333412861326"/>
</svg>
</svg>