<svg viewBox="0 0 26 26" xmlns="http://www.w3.org/2000/svg" style="background-color: #a3e2ff;">

    <defs>
      <style>
        .spider_hex path {
          stroke: #004d70;
          stroke-width: 0.4210488024300936;
          stroke-linecap: round;
          fill: none;
        }
      </style>
    </defs>

<svg class="spider_hex">
<path d="M 13,13 L 13.0,12.0"/>
<path d="M 13.0 12.0 L 13.0 11.0"/>
<path d="M 13.86602540378444 12.5 L 14.732050807568877 12.0"/>
<path d="M 13,13 L 13.0,14.0"/>
<path d="M 13,13 L 12.13397459621556,13.5"/>
<path d="M 12.13397459621556 12.5 L 11.267949192431123 12.0"/>
<path d="M 13.0 11.0 L 13.0 10.0"/>
<path d="M 13.86602540378444 13.5 A 1 1 0 0 0 13.0 14.0"/>
<path d="M 14.732050807568877 12.0 L 15.598076211353316 11.5"/>
<path d="M 14.732050807568877 12.0 A 2 2 0 0 0 14.732050807568879 14.0"/>
<path d="M 12.13397459621556 13.5 L 11.267949192431123 14.0"/>
<path d="M 14.732050807568877 14.0 L 15.598076211353316 14.5"/>
<path d="M 13.0 15.0 L 13.0 16.0"/>
<path d="M 11.267949192431123 12.0 L 10.401923788646684 11.5"/>
<path d="M 10.401923788646684 11.5 A 3 3 0 0 0 13.0 10.0"/>
<path d="M 15.598076211353316 11.5 L 16.464101615137753 11.0"/>
<path d="M 13.0 16.0 L 13.0 17.0"/>
<path d="M 10.401923788646684 14.500000000000002 A 3 3 0 0 0 10.401923788646684 11.500000000000002"/>
<path d="M 10.401923788646684 11.5 L 9.535898384862247 11.0"/>
<path d="M 13.0 9.0 L 13.0 8.0"/>
<path d="M 16.464101615137753 11.0 A 4 4 0 0 0 16.464101615137757 15.0"/>
<path d="M 16.464101615137753 11.0 L 17.33012701892219 10.5"/>
<path d="M 13.0 17.0 A 4 4 0 0 0 9.535898384862247 15.000000000000002"/>
<path d="M 9.535898384862247 15.000000000000002 A 4 4 0 0 0 9.535898384862243 11.000000000000004"/>
<path d="M 9.535898384862247 11.0 L 8.669872981077807 10.5"/>
<path d="M 13.0 8.0 L 13.0 7.0"/>
<path d="M 13.0 8.0 A 5 5 0 0 0 17.33012701892219 10.5"/>
<path d="M 17.33012701892219 10.5 L 18.196152422706632 10.0"/>
<path d="M 17.330127018922195 15.5 A 5 5 0 0 0 13.0 18.0"/>
<path d="M 13.0 18.0 L 13.0 19.0"/>
<path d="M 8.669872981077809 15.500000000000002 A 5 5 0 0 0 8.669872981077805 10.500000000000004"/>
<path d="M 8.669872981077807 10.5 L 7.803847577293368 10.0"/>
<path d="M 13.0 7.0 L 13.0 6.0"/>
<path d="M 7.803847577293368 10.0 A 6 6 0 0 0 12.999999999999998 7.0"/>
<path d="M 18.196152422706632 15.999999999999998 A 6 6 0 0 0 13.0 19.0"/>
<path d="M 13.0 19.0 L 13.0 20.0"/>
<path d="M 7.80384757729337 16.000000000000004 A 6 6 0 0 0 7.803847577293366 10.000000000000004"/>
<path d="M 7.803847577293368 10.0 L 6.93782217350893 9.5"/>
<path d="M 19.06217782649107 9.5 L 19.928203230275507 9.0"/>
<path d="M 19.06217782649107 9.5 A 7 7 0 0 0 19.062177826491073 16.5"/>
<path d="M 19.062177826491073 16.5 A 7 7 0 0 0 13.0 20.0"/>
<path d="M 6.937822173508931 16.500000000000004 A 7 7 0 0 0 6.937822173508927 9.500000000000005"/>
<path d="M 6.93782217350893 9.5 L 6.071796769724491 9.0"/>
<path d="M 13.000000000000002 5.0 L 13.000000000000002 4.0"/>
<path d="M 6.071796769724491 9.0 A 8 8 0 0 0 12.999999999999998 5.0"/>
<path d="M 13.0 5.0 A 8 8 0 0 0 19.928203230275507 9.0"/>
<path d="M 19.928203230275507 9.0 L 20.794228634059948 8.5"/>
<path d="M 19.92820323027551 17.0 L 20.794228634059948 17.5"/>
<path d="M 19.92820323027551 17.0 A 8 8 0 0 0 13.000000000000002 21.0"/>
<path d="M 6.071796769724492 17.000000000000004 L 5.205771365940054 17.500000000000004"/>
<path d="M 13.000000000000002 4.0 L 13.000000000000002 3.0"/>
<path d="M 20.794228634059948 8.5 A 9 9 0 0 0 20.794228634059948 17.5"/>
<path d="M 20.794228634059948 8.5 L 21.660254037844386 7.999999999999999"/>
<path d="M 13.0 22.0 L 13.0 23.0"/>
<path d="M 5.205771365940055 17.500000000000004 A 9 9 0 0 0 5.205771365940048 8.500000000000007"/>
<path d="M 5.205771365940053 8.5 L 4.3397459621556145 7.999999999999999"/>
<path d="M 4.3397459621556145 8.0 A 10 10 0 0 0 12.999999999999998 3.0"/>
<path d="M 21.660254037844386 7.999999999999999 A 10 10 0 0 0 21.66025403784439 18.0"/>
<path d="M 21.66025403784439 18.0 L 22.526279441628827 18.5"/>
<path d="M 21.66025403784439 18.0 A 10 10 0 0 0 13.000000000000002 23.0"/>
<path d="M 13.000000000000002 23.0 A 10 10 0 0 0 4.339745962155616 18.000000000000004"/>
<path d="M 4.3397459621556145 18.000000000000004 L 3.473720558371177 18.500000000000004"/>
<path d="M 13.0 2.0 A 11 11 0 0 0 22.526279441628823 7.499999999999999"/>
<path d="M 22.526279441628823 7.499999999999999 L 23.392304845413264 6.999999999999998"/>
<path d="M 22.526279441628823 7.499999999999999 A 11 11 0 0 0 22.526279441628827 18.499999999999996"/>
<path d="M 22.526279441628827 18.499999999999996 A 11 11 0 0 0 13.000000000000002 24.0"/>
<path d="M 13.0 24.0 L 13.0 25.0"/>
<path d="M 3.473720558371177 18.500000000000007 A 11 11 0 0 0 3.47372055837117 7.500000000000008"/>
<path d="M 13.0 1.0 A 12 12 0 0 0 23.392304845413264 6.999999999999998"/>
<path d="M 2.607695154586736 7.0 A 12 12 0 0 0 12.999999999999996 1.0"/>
<path d="M 23.392304845413264 6.999999999999998 A 12 12 0 0 0 23.392304845413264 18.999999999999996"/>
<path d="M 13.000000000000002 25.0 A 12 12 0 0 0 2.6076951545867395 19.000000000000007"/>
</svg>
</svg>