<svg viewBox="0 0 20 20" xmlns="http://www.w3.org/2000/svg" style="background-color: #290012;">

    <defs>
      <style>
        .swirly path {
          stroke: #ff4d9a;
          stroke-width: 0.15386878420211658;
          stroke-linecap: round;
          fill: none;
        }
      </style>
    </defs>


		<title>
			A purple graphic with curves moving in and out along the spokes.
		</title>

<svg class="swirly">
<path d="M 10.0 9.0 A 1 1 0 0 0 10.540640817455598 9.158746467168818"/>
<path d="M 10.0 9.0 L 10.0 8.0"/>
<path d="M 10.540640817455598 9.158746467168818 A 1 1 0 0 1 10.909631995354518 9.584584986998113"/>
<path d="M 10.540640817455598 9.158746467168818 L 11.081281634911196 8.317492934337638"/>
<path d="M 9.459359182544402 9.15874646716882 L 8.918718365088804 8.317492934337638"/>
<path d="M 10.0 8.0 L 10.0 7.0"/>
<path d="M 8.918718365088804 8.317492934337638 A 2 2 0 0 0 9.999999999999998 8.0"/>
<path d="M 11.081281634911194 8.317492934337638 A 2 2 0 0 1 11.819263990709036 9.169169973996228"/>
<path d="M 10.989821441880933 10.142314838273284 L 11.979642883761866 10.28462967654657"/>
<path d="M 10.755749574354258 10.654860733945284 L 11.511499148708516 11.30972146789057"/>
<path d="M 10.755749574354258 10.654860733945284 A 1 1 0 0 0 10.28173255684143 10.959492973614497"/>
<path d="M 11.979642883761866 10.28462967654657 L 12.969464325642798 10.426944514819855"/>
<path d="M 11.511499148708516 11.30972146789057 L 12.267248723062774 11.964582201835857"/>
<path d="M 9.71826744315857 10.959492973614498 L 9.43653488631714 11.918985947228995"/>
<path d="M 9.71826744315857 10.959492973614498 A 1 1 0 0 0 9.244250425645742 10.654860733945284"/>
<path d="M 10.56346511368286 11.918985947228995 A 2 2 0 0 1 9.43653488631714 11.918985947228995"/>
<path d="M 9.43653488631714 11.918985947228995 A 2 2 0 0 0 8.488500851291484 11.30972146789057"/>
<path d="M 9.010178558119067 10.142314838273284 L 8.020357116238134 10.28462967654657"/>
<path d="M 8.488500851291484 11.30972146789057 L 7.7327512769372255 11.964582201835857"/>
<path d="M 8.488500851291484 11.30972146789057 A 2 2 0 0 1 8.020357116238134 10.28462967654657"/>
<path d="M 9.090368004645482 9.584584986998113 L 8.180736009290964 9.169169973996226"/>
<path d="M 8.020357116238134 10.28462967654657 A 2 2 0 0 0 8.180736009290962 9.169169973996228"/>
<path d="M 8.020357116238134 10.28462967654657 L 7.030535674357202 10.426944514819855"/>
<path d="M 10.0 7.0 L 10.0 6.0"/>
<path d="M 11.621922452366793 7.476239401506456 A 3 3 0 0 1 12.728895986063556 8.75375496099434"/>
<path d="M 12.728895986063556 8.75375496099434 A 3 3 0 0 0 12.969464325642798 10.426944514819855"/>
<path d="M 12.969464325642798 10.426944514819855 L 13.959285767523731 10.569259353093141"/>
<path d="M 12.267248723062774 11.964582201835855 A 3 3 0 0 0 10.84519767052429 12.878478920843492"/>
<path d="M 12.267248723062774 11.964582201835857 L 13.022998297417033 12.61944293578114"/>
<path d="M 10.845197670524291 12.878478920843492 A 3 3 0 0 1 9.15480232947571 12.878478920843492"/>
<path d="M 10.84519767052429 12.878478920843492 L 11.126930227365719 13.83797189445799"/>
<path d="M 7.030535674357202 10.426944514819855 A 3 3 0 0 0 7.271104013936444 8.753754960994343"/>
<path d="M 7.271104013936446 8.753754960994339 L 6.361472018581928 8.338339947992452"/>
<path d="M 8.378077547633206 7.476239401506458 L 7.837436730177608 6.634985868675277"/>
<path d="M 10.0 6.0 A 4 4 0 0 0 12.16256326982239 6.634985868675275"/>
<path d="M 10.0 6.0 L 10.0 5.0"/>
<path d="M 13.638527981418074 8.338339947992454 A 4 4 0 0 0 13.959285767523731 10.56925935309314"/>
<path d="M 13.638527981418074 8.338339947992456 L 14.548159976772592 7.922924934990569"/>
<path d="M 13.959285767523731 10.56925935309314 A 4 4 0 0 1 13.022998297417033 12.61944293578114"/>
<path d="M 13.022998297417033 12.61944293578114 L 13.77874787177129 13.274303669726425"/>
<path d="M 11.12693022736572 13.83797189445799 A 4 4 0 0 1 8.873069772634283 13.83797189445799"/>
<path d="M 6.977001702582967 12.61944293578114 A 4 4 0 0 1 6.040714232476269 10.569259353093141"/>
<path d="M 6.977001702582967 12.61944293578114 L 6.221252128228709 13.274303669726425"/>
<path d="M 6.040714232476269 10.569259353093141 L 5.050892790595337 10.711574191366426"/>
<path d="M 6.361472018581927 8.338339947992452 A 4 4 0 0 1 7.83743673017761 6.634985868675275"/>
<path d="M 7.837436730177608 6.634985868675277 L 7.2967959127220094 5.793732335844096"/>
<path d="M 10.0 5.0 L 10.0 4.0"/>
<path d="M 7.2967959127220094 5.793732335844096 A 5 5 0 0 0 9.999999999999995 5.0"/>
<path d="M 12.703204087277989 5.793732335844094 L 13.243844904733587 4.952478803012913"/>
<path d="M 14.949107209404664 10.711574191366426 A 5 5 0 0 1 13.77874787177129 13.274303669726425"/>
<path d="M 14.949107209404662 10.711574191366426 L 15.938928651285597 10.85388902963971"/>
<path d="M 11.40866278420715 14.797464868072487 A 5 5 0 0 1 8.591337215792853 14.797464868072488"/>
<path d="M 11.40866278420715 14.797464868072487 L 11.69039534104858 15.756957841686983"/>
<path d="M 8.591337215792853 14.797464868072488 A 5 5 0 0 0 6.221252128228709 13.274303669726425"/>
<path d="M 5.451840023227409 7.922924934990566 A 5 5 0 0 1 7.296795912722013 5.793732335844094"/>
<path d="M 10.0 4.0 L 10.0 3.0"/>
<path d="M 13.243844904733585 4.952478803012912 A 6 6 0 0 1 15.45779197212711 7.507509921988682"/>
<path d="M 13.243844904733587 4.952478803012913 L 13.784485722189185 4.111225270181732"/>
<path d="M 15.457791972127112 7.507509921988682 L 16.367423967481628 7.0920949089867955"/>
<path d="M 15.938928651285597 10.85388902963971 L 16.928750093166528 10.996203867912996"/>
<path d="M 14.53449744612555 13.92916440367171 A 6 6 0 0 0 11.690395341048578 15.756957841686983"/>
<path d="M 11.69039534104858 15.756957841686983 A 6 6 0 0 1 8.309604658951423 15.756957841686985"/>
<path d="M 8.309604658951423 15.756957841686985 A 6 6 0 0 0 5.465502553874451 13.929164403671711"/>
<path d="M 8.309604658951423 15.756957841686985 L 8.027872102109994 16.71645081530148"/>
<path d="M 5.465502553874451 13.929164403671711 A 6 6 0 0 1 4.061071348714404 10.853889029639712"/>
<path d="M 4.061071348714404 10.853889029639712 A 6 6 0 0 0 4.5422080278728885 7.507509921988683"/>
<path d="M 4.542208027872891 7.507509921988678 L 3.632576032518373 7.092094908986791"/>
<path d="M 6.756155095266411 4.952478803012916 L 6.215514277810813 4.111225270181735"/>
<path d="M 10.0 3.0 L 10.000000000000002 2.0"/>
<path d="M 6.215514277810812 4.111225270181735 A 7 7 0 0 0 9.999999999999993 3.0"/>
<path d="M 10.0 3.0 A 7 7 0 0 0 13.784485722189183 4.111225270181731"/>
<path d="M 16.928750093166528 10.996203867912994 A 7 7 0 0 1 15.290247020479809 14.584025137616994"/>
<path d="M 16.928750093166528 10.996203867912996 L 17.918571535047462 11.13851870618628"/>
<path d="M 15.290247020479807 14.584025137616997 L 16.045996594834065 15.238885871562282"/>
<path d="M 11.97212789789001 16.71645081530148 L 12.25386045473144 17.67594378891598"/>
<path d="M 8.027872102109994 16.71645081530148 L 7.746139545268564 17.67594378891598"/>
<path d="M 4.709752979520193 14.584025137616997 A 7 7 0 0 1 3.0712499068334713 10.996203867912996"/>
<path d="M 3.0712499068334713 10.996203867912996 L 2.0814284649525385 11.13851870618628"/>
<path d="M 10.000000000000002 2.0 L 10.000000000000002 1.0"/>
<path d="M 5.674873460355214 3.269971737350554 A 8 8 0 0 0 9.999999999999991 2.0"/>
<path d="M 14.325126539644781 3.2699717373505512 L 14.865767357100381 2.4287182045193703"/>
<path d="M 14.325126539644781 3.2699717373505504 A 8 8 0 0 1 17.277055962836148 6.6766798959849085"/>
<path d="M 17.277055962836148 6.6766798959849085 A 8 8 0 0 0 17.918571535047462 11.13851870618628"/>
<path d="M 17.277055962836148 6.676679895984909 L 18.186687958190667 6.261264882983023"/>
<path d="M 16.045996594834065 15.23888587156228 A 8 8 0 0 0 12.253860454731438 17.67594378891598"/>
<path d="M 12.25386045473144 17.67594378891598 L 12.53559301157287 18.635436762530475"/>
<path d="M 7.746139545268564 17.67594378891598 L 7.464406988427134 18.635436762530478"/>
<path d="M 7.746139545268564 17.67594378891598 A 8 8 0 0 0 3.9540034051659347 15.238885871562282"/>
<path d="M 3.9540034051659347 15.238885871562282 L 3.1982538308116766 15.893746605507566"/>
<path d="M 3.9540034051659347 15.238885871562282 A 8 8 0 0 1 2.0814284649525385 11.138518706186282"/>
<path d="M 2.0814284649525385 11.138518706186282 A 8 8 0 0 0 2.7229440371638516 6.676679895984911"/>
<path d="M 2.722944037163855 6.676679895984904 L 1.8133120418093363 6.261264882983017"/>
<path d="M 2.7229440371638542 6.676679895984906 A 8 8 0 0 1 5.6748734603552204 3.2699717373505504"/>
<path d="M 10.0 1.0 A 9 9 0 0 0 14.865767357100378 2.4287182045193694"/>
<path d="M 18.186687958190667 6.261264882983022 A 9 9 0 0 0 18.908392976928397 11.280833544459565"/>
<path d="M 18.908392976928397 11.280833544459565 A 9 9 0 0 1 16.801746169188327 15.893746605507566"/>
<path d="M 3.1982538308116766 15.893746605507566 A 9 9 0 0 1 1.0916070230716066 11.280833544459567"/>
<path d="M 1.8133120418093363 6.261264882983019 A 9 9 0 0 1 5.134232642899623 2.4287182045193694"/>
</svg>
</svg>
