<svg viewBox="0 0 26 26" xmlns="http://www.w3.org/2000/svg" style="background-color: #CDDEF5;">

    <defs>
      <style>
        .tri_circle path {
          stroke: #00409A;
          stroke-width: 0.2572148085123954;
          stroke-linecap: round;
          fill: none;
        }
      </style>
    </defs>

		<title>
			A graphic made of thick blue lines and circular arcs, split into three segments.
			It looks vaguely like some sort of radar scanner.
		</title>

<svg class="tri_circle">
<path d="M 12.133974596215563 13.5 A 1 1 0 0 1 13.0 12.0"/>
<path d="M 13.0 12.0 A 1 1 0 0 1 13.86602540378444 13.5"/>
<path d="M 13,13 L 12.13397459621556,13.5"/>
<path d="M 12.13397459621556 13.5 L 11.267949192431123 14.0"/>
<path d="M 11.267949192431123 14.0 A 2 2 0 0 1 13.0 11.0"/>
<path d="M 14.732050807568879 14.0 A 2 2 0 0 1 11.267949192431123 14.0"/>
<path d="M 11.267949192431123 14.0 L 10.401923788646684 14.5"/>
<path d="M 10.401923788646684 14.500000000000002 A 3 3 0 0 1 13.0 10.0"/>
<path d="M 13.0 10.0 L 13.0 9.0"/>
<path d="M 15.598076211353316 14.5 A 3 3 0 0 1 10.401923788646684 14.500000000000002"/>
<path d="M 13.0 9.0 A 4 4 0 0 1 16.464101615137757 15.0"/>
<path d="M 16.464101615137753 15.0 L 17.330127018922195 15.5"/>
<path d="M 9.535898384862247 15.000000000000002 L 8.669872981077807 15.500000000000002"/>
<path d="M 13.0 8.0 L 13.0 7.0"/>
<path d="M 17.330127018922195 15.5 A 5 5 0 0 1 8.669872981077809 15.500000000000002"/>
<path d="M 8.669872981077807 15.500000000000002 L 7.803847577293369 16.0"/>
<path d="M 13.0 7.0 L 13.0 6.0"/>
<path d="M 7.80384757729337 16.000000000000004 A 6 6 0 0 1 12.999999999999998 7.0"/>
<path d="M 18.196152422706632 16.0 L 19.062177826491073 16.5"/>
<path d="M 7.803847577293369 16.0 L 6.9378221735089305 16.500000000000004"/>
<path d="M 19.062177826491073 16.5 A 7 7 0 0 1 6.937822173508931 16.500000000000004"/>
<path d="M 6.9378221735089305 16.500000000000004 L 6.071796769724492 17.000000000000004"/>
<path d="M 13.0 5.0 A 8 8 0 0 1 19.92820323027551 17.0"/>
<path d="M 19.92820323027551 17.0 L 20.794228634059948 17.5"/>
<path d="M 19.92820323027551 17.0 A 8 8 0 0 1 6.071796769724493 17.000000000000004"/>
<path d="M 5.205771365940055 17.500000000000004 A 9 9 0 0 1 12.999999999999998 4.0"/>
<path d="M 20.794228634059948 17.5 A 9 9 0 0 1 5.205771365940055 17.500000000000004"/>
<path d="M 5.205771365940054 17.500000000000004 L 4.3397459621556145 18.000000000000004"/>
<path d="M 13.0 3.0 A 10 10 0 0 1 21.66025403784439 18.0"/>
<path d="M 4.339745962155616 18.000000000000004 A 10 10 0 0 1 12.999999999999998 3.0"/>
<path d="M 21.66025403784439 18.0 L 22.526279441628827 18.5"/>
<path d="M 13.0 2.0 A 11 11 0 0 1 22.526279441628827 18.499999999999996"/>
<path d="M 13.000000000000002 2.0 L 13.000000000000002 1.0"/>
<path d="M 22.526279441628827 18.499999999999996 A 11 11 0 0 1 3.473720558371177 18.500000000000007"/>
<path d="M 2.6076951545867395 19.000000000000007 A 12 12 0 0 1 12.999999999999996 1.0"/>
<path d="M 23.392304845413264 18.999999999999996 A 12 12 0 0 1 2.6076951545867395 19.000000000000007"/>
</svg>
</svg>
