<svg viewBox="0 0 24 24" xmlns="http://www.w3.org/2000/svg" style="background-color: #0C554A;">

    <defs>
      <style>
        .turquoise_busy path {
          stroke: #0DFFDB;
          stroke-width: 0.5222845706260493;
          stroke-linecap: round;
          fill: none;
        }
      </style>
    </defs>

		<title>
			A graphic made of turquoise lines and circular arcs.
			There are lots of spokes and little arcs, so it looks quite busy.
		</title>

<svg class="turquoise_busy">
<path d="M 12.0 11.0 A 1 1 0 0 1 12.214970440211024 11.023379444289914"/>
<path d="M 11.785029559788976 11.023379444289914 A 1 1 0 0 1 12.0 11.0"/>
<path d="M 12.214970440211024 11.023379444289914 L 12.429940880422048 10.046758888579827"/>
<path d="M 12.214970440211024 11.023379444289914 A 1 1 0 0 1 12.419889101560265 11.092424580329043"/>
<path d="M 12,12 L 12.214970440211024,11.023379444289914"/>
<path d="M 12,12 L 11.116487955553977,11.53159155930021"/>
<path d="M 12,12 L 11.036450007480777,11.732471661470779"/>
<path d="M 12,12 L 11.237837944872362,11.352613715218173"/>
<path d="M 12,12 L 12.762162055127636,11.352613715218173"/>
<path d="M 12,12 L 11.891880981576058,12.99413795715436"/>
<path d="M 12,12 L 12.986826522541525,12.161781996552765"/>
<path d="M 12,12 L 11.17231100184311,12.561187065362382"/>
<path d="M 12,12 L 12.963549992519223,11.732471661470779"/>
<path d="M 12,12 L 12.883512044446023,11.53159155930021"/>
<path d="M 11.785029559788976 11.023379444289914 L 11.570059119577952 10.046758888579827"/>
<path d="M 12.0 10.0 A 2 2 0 0 1 12.429940880422048 10.046758888579827"/>
<path d="M 12.419889101560265 11.092424580329043 L 12.83977820312053 10.184849160658086"/>
<path d="M 12.605174215193765 11.203906934294356 A 1 1 0 0 1 12.762162055127636 11.352613715218173"/>
<path d="M 12.883512044446023 11.53159155930021 L 13.767024088892047 11.06318311860042"/>
<path d="M 12.963549992519223 11.732471661470779 A 1 1 0 0 1 12.998533413851124 11.945861091414582"/>
<path d="M 12.986826522541525 12.161781996552765 A 1 1 0 0 1 12.928976719816792 12.370138155339914"/>
<path d="M 12.986826522541525 12.161781996552765 L 13.973653045083053 12.32356399310553"/>
<path d="M 12.82768899815689 12.561187065362382 L 13.655377996313781 13.122374130724765"/>
<path d="M 12.687699458853423 12.72599549192313 A 1 1 0 0 1 12.515553857177022 12.856857176167589"/>
<path d="M 12.687699458853423 12.72599549192313 L 13.375398917706846 13.451990983846262"/>
<path d="M 12.515553857177022 12.856857176167589 A 1 1 0 0 1 12.31930153013598 12.947653171182802"/>
<path d="M 12.108119018423942 12.99413795715436 A 1 1 0 0 1 11.891880981576058 12.99413795715436"/>
<path d="M 11.891880981576058 12.99413795715436 L 11.783761963152116 13.98827591430872"/>
<path d="M 11.68069846986402 12.947653171182802 A 1 1 0 0 1 11.484446142822978 12.856857176167589"/>
<path d="M 11.68069846986402 12.947653171182802 L 11.36139693972804 13.895306342365604"/>
<path d="M 11.484446142822978 12.856857176167589 A 1 1 0 0 1 11.312300541146577 12.72599549192313"/>
<path d="M 11.071023280183208 12.370138155339914 L 10.142046560366417 12.740276310679828"/>
<path d="M 11.013173477458475 12.161781996552765 A 1 1 0 0 1 11.001466586148876 11.945861091414582"/>
<path d="M 11.001466586148876 11.945861091414583 L 10.002933172297752 11.891722182829167"/>
<path d="M 11.001466586148876 11.945861091414583 A 1 1 0 0 1 11.036450007480777 11.73247166147078"/>
<path d="M 11.394825784806235 11.203906934294356 L 10.789651569612468 10.407813868588713"/>
<path d="M 11.580110898439735 11.092424580329043 L 11.16022179687947 10.184849160658086"/>
<path d="M 13.21034843038753 10.407813868588713 L 13.815522645581295 9.611720802883069"/>
<path d="M 13.524324110255273 10.705227430436345 A 2 2 0 0 1 13.767024088892047 11.06318311860042"/>
<path d="M 13.767024088892047 11.06318311860042 L 14.650536133338068 10.59477467790063"/>
<path d="M 13.927099985038446 11.464943322941558 L 14.890649977557668 11.197414984412337"/>
<path d="M 13.997066827702248 11.891722182829165 L 14.995600241553372 11.837583274243748"/>
<path d="M 13.997066827702248 11.891722182829165 A 2 2 0 0 1 13.973653045083053 12.32356399310553"/>
<path d="M 13.973653045083053 12.32356399310553 L 14.960479567624578 12.485345989658295"/>
<path d="M 13.857953439633583 12.740276310679828 L 14.786930159450375 13.110414466019744"/>
<path d="M 13.857953439633583 12.740276310679828 A 2 2 0 0 1 13.655377996313781 13.122374130724765"/>
<path d="M 13.375398917706846 13.451990983846262 L 14.063098376560271 14.17798647576939"/>
<path d="M 13.031107714354045 13.713714352335177 A 2 2 0 0 1 12.63860306027196 13.895306342365604"/>
<path d="M 13.031107714354043 13.713714352335177 L 13.546661571531066 14.570571528502768"/>
<path d="M 12.63860306027196 13.895306342365604 A 2 2 0 0 1 12.216238036847884 13.98827591430872"/>
<path d="M 12.216238036847884 13.98827591430872 L 12.324357055271825 14.982413871463079"/>
<path d="M 11.783761963152116 13.98827591430872 A 2 2 0 0 1 11.36139693972804 13.895306342365604"/>
<path d="M 11.36139693972804 13.895306342365604 A 2 2 0 0 1 10.968892285645957 13.713714352335177"/>
<path d="M 11.36139693972804 13.895306342365604 L 11.04209540959206 14.842959513548408"/>
<path d="M 10.968892285645957 13.71371435233518 A 2 2 0 0 1 10.624601082293154 13.451990983846262"/>
<path d="M 10.624601082293154 13.451990983846262 L 9.936901623439729 14.17798647576939"/>
<path d="M 10.344622003686219 13.122374130724765 A 2 2 0 0 1 10.142046560366417 12.740276310679828"/>
<path d="M 10.142046560366417 12.740276310679828 L 9.213069840549625 13.110414466019742"/>
<path d="M 10.142046560366417 12.740276310679828 A 2 2 0 0 1 10.026346954916947 12.32356399310553"/>
<path d="M 10.002933172297752 11.891722182829167 L 9.004399758446628 11.83758327424375"/>
<path d="M 10.072900014961554 11.464943322941558 L 9.109350022442332 11.197414984412337"/>
<path d="M 10.072900014961554 11.464943322941558 A 2 2 0 0 1 10.232975911107955 11.063183118600419"/>
<path d="M 10.475675889744727 10.705227430436345 L 9.713513834617089 10.057841145654518"/>
<path d="M 10.475675889744727 10.705227430436345 A 2 2 0 0 1 10.789651569612468 10.407813868588713"/>
<path d="M 11.16022179687947 10.184849160658086 A 2 2 0 0 1 11.570059119577952 10.046758888579827"/>
<path d="M 11.570059119577952 10.046758888579827 L 11.355088679366927 9.070138332869739"/>
<path d="M 12.0 9.0 L 12.0 8.0"/>
<path d="M 11.355088679366927 9.070138332869739 A 3 3 0 0 1 12.0 9.0"/>
<path d="M 12.644911320633073 9.070138332869739 A 3 3 0 0 1 13.259667304680793 9.277273740987129"/>
<path d="M 12.644911320633073 9.070138332869739 L 12.859881760844097 8.093517777159654"/>
<path d="M 13.259667304680793 9.277273740987129 A 3 3 0 0 1 13.815522645581295 9.611720802883069"/>
<path d="M 13.259667304680795 9.27727374098713 L 13.679556406241058 8.369698321316172"/>
<path d="M 13.815522645581295 9.611720802883069 A 3 3 0 0 1 14.28648616538291 10.057841145654518"/>
<path d="M 13.815522645581295 9.611720802883069 L 14.42069686077506 8.815627737177426"/>
<path d="M 14.890649977557668 11.197414984412337 A 3 3 0 0 1 14.995600241553372 11.837583274243746"/>
<path d="M 14.890649977557668 11.197414984412337 L 15.854199970076891 10.929886645883116"/>
<path d="M 14.960479567624578 12.485345989658294 A 3 3 0 0 1 14.786930159450375 13.110414466019744"/>
<path d="M 14.786930159450375 13.110414466019744 A 3 3 0 0 1 14.483066994470672 13.683561196087147"/>
<path d="M 14.786930159450375 13.110414466019744 L 15.715906879267166 13.480552621359658"/>
<path d="M 14.483066994470672 13.683561196087147 A 3 3 0 0 1 14.06309837656027 14.177986475769393"/>
<path d="M 13.546661571531066 14.570571528502768 A 3 3 0 0 1 12.95790459040794 14.842959513548408"/>
<path d="M 12.324357055271825 14.982413871463079 L 12.432476073695767 15.976551828617438"/>
<path d="M 12.324357055271825 14.982413871463079 A 3 3 0 0 1 11.675642944728175 14.982413871463079"/>
<path d="M 11.675642944728175 14.982413871463079 L 11.567523926304233 15.976551828617438"/>
<path d="M 11.04209540959206 14.842959513548408 A 3 3 0 0 1 10.453338428468935 14.570571528502768"/>
<path d="M 9.516933005529328 13.683561196087147 L 8.689244007372437 14.24474826144953"/>
<path d="M 9.213069840549625 13.110414466019742 L 8.284093120732834 13.480552621359656"/>
<path d="M 9.039520432375422 12.485345989658294 A 3 3 0 0 1 9.004399758446628 11.837583274243748"/>
<path d="M 9.039520432375422 12.485345989658294 L 8.052693909833895 12.647127986211059"/>
<path d="M 9.109350022442332 11.197414984412337 A 3 3 0 0 1 9.349463866661932 10.594774677900629"/>
<path d="M 9.109350022442332 11.197414984412337 L 8.145800029923109 10.929886645883116"/>
<path d="M 9.349463866661932 10.59477467790063 A 3 3 0 0 1 9.713513834617089 10.057841145654518"/>
<path d="M 9.713513834617089 10.057841145654518 L 8.951351779489453 9.41045486087269"/>
<path d="M 10.184477354418703 9.61172080288307 A 3 3 0 0 1 10.740332695319205 9.27727374098713"/>
<path d="M 10.740332695319205 9.27727374098713 L 10.320443593758942 8.369698321316172"/>
<path d="M 12.0 8.0 L 12.0 7.0"/>
<path d="M 11.140118239155903 8.093517777159654 A 4 4 0 0 1 11.999999999999998 8.0"/>
<path d="M 14.42069686077506 8.815627737177426 L 15.025871075968826 8.019534671471781"/>
<path d="M 14.42069686077506 8.815627737177426 A 4 4 0 0 1 15.048648220510545 9.410454860872688"/>
<path d="M 15.048648220510547 9.41045486087269 A 4 4 0 0 1 15.534048177784092 10.12636623720084"/>
<path d="M 15.534048177784092 10.12636623720084 L 16.417560222230115 9.65795779650105"/>
<path d="M 15.854199970076891 10.929886645883116 A 4 4 0 0 1 15.994133655404495 11.78344436565833"/>
<path d="M 15.947306090166105 12.647127986211059 L 16.93413261270763 12.808909982763824"/>
<path d="M 15.715906879267166 13.480552621359658 A 4 4 0 0 1 15.310755992627563 14.24474826144953"/>
<path d="M 15.310755992627563 14.24474826144953 A 4 4 0 0 1 14.750797835413692 14.903981967692523"/>
<path d="M 14.062215428708088 15.427428704670357 L 14.57776928588511 16.284285880837945"/>
<path d="M 13.277206120543921 15.79061268473121 A 4 4 0 0 1 12.432476073695767 15.976551828617438"/>
<path d="M 11.567523926304233 15.976551828617438 L 11.459404907880291 16.970689785771796"/>
<path d="M 10.722793879456079 15.79061268473121 L 10.4034923493201 16.738265855914012"/>
<path d="M 10.72279387945608 15.79061268473121 A 4 4 0 0 1 9.937784571291912 15.427428704670357"/>
<path d="M 9.249202164586306 14.903981967692523 A 4 4 0 0 1 8.689244007372437 14.24474826144953"/>
<path d="M 8.689244007372437 14.24474826144953 L 7.8615550092155475 14.805935326811912"/>
<path d="M 8.284093120732834 13.480552621359658 A 4 4 0 0 1 8.052693909833895 12.647127986211059"/>
<path d="M 8.052693909833895 12.647127986211059 A 4 4 0 0 1 8.005866344595505 11.78344436565833"/>
<path d="M 8.005866344595503 11.783444365658333 L 7.00733293074438 11.729305457072916"/>
<path d="M 8.465951822215906 10.126366237200841 A 4 4 0 0 1 8.951351779489453 9.410454860872692"/>
<path d="M 8.465951822215906 10.126366237200841 L 7.582439777769884 9.657957796501051"/>
<path d="M 8.951351779489453 9.410454860872692 A 4 4 0 0 1 9.579303139224937 8.815627737177426"/>
<path d="M 8.951351779489453 9.41045486087269 L 8.189189724361816 8.763068576090863"/>
<path d="M 9.579303139224937 8.815627737177426 A 4 4 0 0 1 10.32044359375894 8.369698321316172"/>
<path d="M 10.32044359375894 8.369698321316172 A 4 4 0 0 1 11.140118239155903 8.093517777159654"/>
<path d="M 10.320443593758942 8.369698321316172 L 9.900554492198676 7.462122901645215"/>
<path d="M 12.0 7.0 L 12.0 6.0"/>
<path d="M 10.925147798944877 7.116897221449567 A 5 5 0 0 1 11.999999999999998 7.0"/>
<path d="M 12.0 7.0 A 5 5 0 0 1 13.074852201055121 7.116897221449567"/>
<path d="M 14.099445507801324 7.462122901645215 L 14.51933460936159 6.554547481974259"/>
<path d="M 15.810810275638183 8.763068576090863 L 16.57297233076582 8.115682291309035"/>
<path d="M 16.417560222230115 9.65795779650105 L 17.301072266676137 9.18954935580126"/>
<path d="M 16.417560222230115 9.65795779650105 A 5 5 0 0 1 16.817749962596114 10.662358307353896"/>
<path d="M 16.992667069255617 11.729305457072913 L 17.991200483106745 11.675166548487494"/>
<path d="M 16.93413261270763 12.808909982763824 L 17.920959135249156 12.97069197931659"/>
<path d="M 16.644883599083958 13.850690776699572 A 5 5 0 0 1 16.138444990784453 14.805935326811912"/>
<path d="M 16.138444990784453 14.805935326811912 A 5 5 0 0 1 15.438497294267115 15.629977459615654"/>
<path d="M 15.438497294267117 15.629977459615652 L 16.126196753120542 16.35597295153878"/>
<path d="M 15.438497294267117 15.629977459615652 A 5 5 0 0 1 14.577769285885111 16.284285880837945"/>
<path d="M 14.577769285885111 16.284285880837945 A 5 5 0 0 1 13.5965076506799 16.738265855914012"/>
<path d="M 13.5965076506799 16.738265855914012 L 13.91580918081588 17.685919027096816"/>
<path d="M 12.540595092119709 16.970689785771796 L 12.64871411054365 17.964827742926158"/>
<path d="M 12.540595092119709 16.970689785771796 A 5 5 0 0 1 11.459404907880291 16.970689785771796"/>
<path d="M 11.459404907880291 16.970689785771796 A 5 5 0 0 1 10.4034923493201 16.738265855914012"/>
<path d="M 11.459404907880291 16.970689785771796 L 11.35128588945635 17.964827742926158"/>
<path d="M 10.4034923493201 16.738265855914012 A 5 5 0 0 1 9.42223071411489 16.284285880837945"/>
<path d="M 9.422230714114892 16.28428588083795 L 8.906676856937871 17.141143057005536"/>
<path d="M 9.422230714114892 16.28428588083795 A 5 5 0 0 1 8.561502705732885 15.629977459615656"/>
<path d="M 8.561502705732883 15.629977459615654 A 5 5 0 0 1 7.8615550092155475 14.805935326811912"/>
<path d="M 7.8615550092155475 14.805935326811912 A 5 5 0 0 1 7.355116400916043 13.850690776699572"/>
<path d="M 7.8615550092155475 14.805935326811912 L 7.033866011058658 15.367122392174295"/>
<path d="M 7.06586738729237 12.808909982763824 A 5 5 0 0 1 7.007332930744381 11.729305457072911"/>
<path d="M 7.06586738729237 12.808909982763822 L 6.079040864750843 12.970691979316587"/>
<path d="M 7.182250037403885 10.662358307353895 L 6.218700044884662 10.394829968824673"/>
<path d="M 8.189189724361816 8.763068576090864 A 5 5 0 0 1 8.974128924031172 8.019534671471781"/>
<path d="M 10.925147798944879 7.116897221449567 L 10.710177358733855 6.14027666573948"/>
<path d="M 12.0 6.0 A 6 6 0 0 1 13.289822641266145 6.14027666573948"/>
<path d="M 13.289822641266145 6.14027666573948 A 6 6 0 0 1 14.519334609361588 6.554547481974258"/>
<path d="M 14.519334609361588 6.554547481974258 A 6 6 0 0 1 15.631045291162591 7.223441605766137"/>
<path d="M 15.631045291162591 7.223441605766137 A 6 6 0 0 1 16.57297233076582 8.115682291309033"/>
<path d="M 15.631045291162591 7.223441605766137 L 16.236219506356356 6.4273485400604935"/>
<path d="M 17.301072266676137 9.18954935580126 L 18.18458431112216 8.72114091510147"/>
<path d="M 17.781299955115337 10.394829968824675 L 18.74484994763456 10.127301630295454"/>
<path d="M 17.781299955115337 10.394829968824673 A 6 6 0 0 1 17.991200483106745 11.675166548487494"/>
<path d="M 17.991200483106745 11.675166548487494 L 18.989733896957866 11.621027639902078"/>
<path d="M 17.920959135249156 12.97069197931659 L 18.907785657790683 13.132473975869354"/>
<path d="M 17.920959135249156 12.97069197931659 A 6 6 0 0 1 17.57386031890075 14.220828932039487"/>
<path d="M 17.57386031890075 14.220828932039487 A 6 6 0 0 1 16.966133988941344 15.367122392174293"/>
<path d="M 17.57386031890075 14.220828932039488 L 18.502837038717537 14.590967087379402"/>
<path d="M 16.966133988941344 15.367122392174295 L 17.79382298709823 15.928309457536677"/>
<path d="M 16.126196753120542 16.35597295153878 A 6 6 0 0 1 15.093323143062133 17.141143057005536"/>
<path d="M 15.093323143062133 17.141143057005536 L 15.608877000239154 17.998000233173123"/>
<path d="M 11.35128588945635 17.964827742926158 A 6 6 0 0 1 10.08419081918412 17.685919027096816"/>
<path d="M 8.906676856937871 17.141143057005536 A 6 6 0 0 1 7.873803246879461 16.35597295153879"/>
<path d="M 8.906676856937871 17.141143057005536 L 8.39112299976085 17.998000233173126"/>
<path d="M 6.426139681099252 14.220828932039487 L 5.49716296128246 14.5909670873794"/>
<path d="M 6.079040864750843 12.970691979316587 L 5.092214342209317 13.132473975869353"/>
<path d="M 6.008799516893257 11.6751665484875 L 5.010266103042133 11.621027639902083"/>
<path d="M 6.008799516893257 11.6751665484875 A 6 6 0 0 1 6.218700044884661 10.394829968824679"/>
<path d="M 6.218700044884662 10.394829968824673 A 6 6 0 0 1 6.698927733323863 9.189549355801258"/>
<path d="M 6.6989277333238615 9.189549355801262 A 6 6 0 0 1 7.427027669234178 8.115682291309037"/>
<path d="M 8.368954708837407 7.223441605766139 A 6 6 0 0 1 9.48066539063841 6.554547481974259"/>
<path d="M 8.368954708837407 7.223441605766139 L 7.763780493643642 6.427348540060495"/>
<path d="M 9.48066539063841 6.554547481974259 A 6 6 0 0 1 10.710177358733853 6.14027666573948"/>
<path d="M 9.48066539063841 6.554547481974259 L 9.060776289078145 5.646972062303302"/>
<path d="M 12.0 5.0 L 12.000000000000002 4.0"/>
<path d="M 12.0 5.0 A 7 7 0 0 1 13.504793081477168 5.163656110029393"/>
<path d="M 13.50479308147717 5.163656110029393 L 13.719763521688193 4.187035554319307"/>
<path d="M 14.939223710921855 5.646972062303302 L 15.359112812482119 4.739396642632345"/>
<path d="M 16.236219506356356 6.4273485400604935 A 7 7 0 0 1 17.335134385893454 7.468296006527205"/>
<path d="M 16.236219506356356 6.4273485400604935 L 16.84139372155012 5.63125547435485"/>
<path d="M 17.335134385893454 7.468296006527206 A 7 7 0 0 1 18.18458431112216 8.721140915101468"/>
<path d="M 18.18458431112216 8.721140915101468 A 7 7 0 0 1 18.744849947634563 10.127301630295454"/>
<path d="M 18.74484994763456 10.127301630295454 L 19.708399940153782 9.859773291766233"/>
<path d="M 18.989733896957866 11.621027639902078 L 19.98826731080899 11.56688873131666"/>
<path d="M 18.907785657790683 13.132473975869354 L 19.89461218033221 13.29425597242212"/>
<path d="M 17.793822987098235 15.928309457536676 A 7 7 0 0 1 16.81389621197396 17.081968443461918"/>
<path d="M 15.608877000239154 17.998000233173123 A 7 7 0 0 1 14.235110710951862 18.633572198279616"/>
<path d="M 15.608877000239154 17.998000233173123 L 16.124430857416176 18.854857409340713"/>
<path d="M 14.235110710951862 18.633572198279616 L 14.55441224108784 19.58122536946242"/>
<path d="M 14.235110710951862 18.633572198279616 A 7 7 0 0 1 12.756833128967594 18.95896570008052"/>
<path d="M 12.756833128967594 18.95896570008052 A 7 7 0 0 1 11.243166871032408 18.95896570008052"/>
<path d="M 12.756833128967592 18.95896570008052 L 12.864952147391534 19.953103657234877"/>
<path d="M 9.764889289048138 18.633572198279616 L 9.44558775891216 19.58122536946242"/>
<path d="M 8.39112299976085 17.998000233173126 A 7 7 0 0 1 7.186103788026038 17.081968443461918"/>
<path d="M 7.186103788026035 17.081968443461914 L 6.498404329172612 17.807963935385047"/>
<path d="M 7.186103788026036 17.081968443461914 A 7 7 0 0 1 6.206177012901767 15.928309457536677"/>
<path d="M 6.206177012901767 15.928309457536677 A 7 7 0 0 1 5.49716296128246 14.5909670873794"/>
<path d="M 5.49716296128246 14.5909670873794 L 4.568186241465669 14.961105242719315"/>
<path d="M 5.092214342209317 13.132473975869353 A 7 7 0 0 1 5.010266103042134 11.621027639902078"/>
<path d="M 5.2551500523654395 10.127301630295452 L 4.291600059846217 9.859773291766231"/>
<path d="M 5.2551500523654395 10.127301630295452 A 7 7 0 0 1 5.81541568887784 8.721140915101468"/>
<path d="M 5.815415688877838 8.721140915101472 A 7 7 0 0 1 6.664865614106541 7.46829600652721"/>
<path d="M 6.664865614106542 7.4682960065272095 L 5.902703558978906 6.820909721745382"/>
<path d="M 9.060776289078145 5.646972062303302 A 7 7 0 0 1 10.495206918522829 5.163656110029393"/>
<path d="M 13.719763521688193 4.187035554319307 A 8 8 0 0 1 15.359112812482117 4.739396642632344"/>
<path d="M 13.719763521688193 4.187035554319307 L 13.934733961899218 3.2104149986092203"/>
<path d="M 15.359112812482117 4.739396642632344 A 8 8 0 0 1 16.84139372155012 5.63125547435485"/>
<path d="M 15.359112812482119 4.739396642632345 L 15.779001914042382 3.8318212229613877"/>
<path d="M 16.84139372155012 5.63125547435485 A 8 8 0 0 1 18.09729644102109 6.820909721745378"/>
<path d="M 18.097296441021093 6.8209097217453785 A 8 8 0 0 1 19.068096355568183 8.252732474401679"/>
<path d="M 19.98826731080899 11.56688873131666 A 8 8 0 0 1 19.89461218033221 13.294255972422118"/>
<path d="M 19.98826731080899 11.56688873131666 L 20.986800724660114 11.512749822731243"/>
<path d="M 19.89461218033221 13.294255972422118 A 8 8 0 0 1 19.431813758534332 14.961105242719317"/>
<path d="M 18.621511985255125 16.48949652289906 L 19.449200983412013 17.050683588261442"/>
<path d="M 17.50159567082739 17.807963935385047 L 18.18929512968081 18.533959427308176"/>
<path d="M 12.864952147391536 19.953103657234877 A 8 8 0 0 1 11.135047852608466 19.953103657234877"/>
<path d="M 11.135047852608466 19.953103657234877 A 8 8 0 0 1 9.44558775891216 19.58122536946242"/>
<path d="M 11.135047852608466 19.953103657234877 L 11.026928834184524 20.947241614389235"/>
<path d="M 9.44558775891216 19.58122536946242 A 8 8 0 0 1 7.875569142583825 18.854857409340713"/>
<path d="M 7.875569142583829 18.854857409340717 A 8 8 0 0 1 6.498404329172615 17.807963935385047"/>
<path d="M 6.498404329172612 17.807963935385047 L 5.810704870319189 18.533959427308176"/>
<path d="M 5.378488014744876 16.48949652289906 A 8 8 0 0 1 4.568186241465669 14.961105242719317"/>
<path d="M 4.568186241465669 14.961105242719317 A 8 8 0 0 1 4.105387819667791 13.294255972422118"/>
<path d="M 4.105387819667791 13.294255972422118 A 8 8 0 0 1 4.0117326891910094 11.56688873131666"/>
<path d="M 4.011732689191009 11.566888731316666 A 8 8 0 0 1 4.291600059846215 9.859773291766238"/>
<path d="M 4.011732689191009 11.566888731316665 L 3.0131992753398844 11.512749822731248"/>
<path d="M 4.931903644431815 8.252732474401682 L 4.048391599985791 7.7843240337018935"/>
<path d="M 4.931903644431815 8.252732474401682 A 8 8 0 0 1 5.902703558978905 6.820909721745383"/>
<path d="M 5.902703558978906 6.820909721745382 L 5.140541503851269 6.1735234369635545"/>
<path d="M 5.902703558978905 6.820909721745383 A 8 8 0 0 1 7.158606278449875 5.631255474354852"/>
<path d="M 7.158606278449875 5.631255474354852 A 8 8 0 0 1 8.64088718751788 4.739396642632345"/>
<path d="M 8.64088718751788 4.739396642632345 A 8 8 0 0 1 10.280236478311805 4.187035554319307"/>
<path d="M 12.0 3.0 A 9 9 0 0 1 13.934733961899216 3.2104149986092203"/>
<path d="M 13.934733961899218 3.2104149986092203 L 14.149704402110242 2.233794442899134"/>
<path d="M 17.446567936743886 4.835162408649206 A 9 9 0 0 1 18.859458496148726 6.17352343696355"/>
<path d="M 17.446567936743886 4.835162408649206 L 18.051742151937653 4.039069342943563"/>
<path d="M 18.85945849614873 6.173523436963551 A 9 9 0 0 1 19.95160840001421 7.784324033701889"/>
<path d="M 19.95160840001421 7.784324033701889 A 9 9 0 0 1 20.67194993267301 9.592244953237014"/>
<path d="M 20.67194993267301 9.59224495323701 A 9 9 0 0 1 20.986800724660114 11.51274982273124"/>
<path d="M 20.986800724660114 11.51274982273124 A 9 9 0 0 1 20.881438702873737 13.456037968974883"/>
<path d="M 20.986800724660114 11.512749822731243 L 21.985334138511238 11.458610914145826"/>
<path d="M 20.881438702873737 13.456037968974883 L 21.86826522541526 13.617819965527648"/>
<path d="M 20.881438702873737 13.456037968974883 A 9 9 0 0 1 20.36079047835112 15.33124339805923"/>
<path d="M 20.36079047835112 15.33124339805923 A 9 9 0 0 1 19.449200983412016 17.050683588261442"/>
<path d="M 19.449200983412013 17.050683588261442 L 20.276889981568907 17.611870653623825"/>
<path d="M 18.18929512968081 18.533959427308176 L 18.876994588534235 19.259954919231305"/>
<path d="M 16.639984714593197 19.7117145855083 A 9 9 0 0 1 14.873713771223821 20.528878540645223"/>
<path d="M 16.639984714593197 19.711714585508304 L 17.15553857177022 20.56857176167589"/>
<path d="M 12.973071165815478 20.947241614389235 A 9 9 0 0 1 11.026928834184524 20.947241614389235"/>
<path d="M 12.973071165815476 20.947241614389235 L 13.081190184239418 21.941379571543596"/>
<path d="M 9.12628622877618 20.528878540645223 A 9 9 0 0 1 7.360015285406804 19.711714585508304"/>
<path d="M 7.360015285406806 19.711714585508304 L 6.844461428229785 20.568571761675894"/>
<path d="M 5.810704870319189 18.533959427308176 L 5.123005411465765 19.259954919231305"/>
<path d="M 4.550799016587986 17.050683588261442 A 9 9 0 0 1 3.639209521648878 15.33124339805923"/>
<path d="M 3.639209521648878 15.331243398059229 L 2.7102328018320865 15.701381553399143"/>
<path d="M 3.1185612971262646 13.456037968974881 L 2.1317347745847393 13.617819965527646"/>
<path d="M 3.328050067326993 9.59224495323701 A 9 9 0 0 1 4.048391599985795 7.784324033701886"/>
<path d="M 5.140541503851268 6.173523436963555 A 9 9 0 0 1 6.55343206325611 4.835162408649208"/>
<path d="M 6.55343206325611 4.835162408649208 A 9 9 0 0 1 8.220998085957616 3.8318212229613877"/>
<path d="M 6.5534320632561105 4.835162408649208 L 5.948257848062346 4.039069342943565"/>
<path d="M 8.220998085957616 3.8318212229613877 A 9 9 0 0 1 10.06526603810078 3.2104149986092203"/>
<path d="M 10.065266038100782 3.2104149986092203 L 9.850295597889758 2.233794442899134"/>
<path d="M 12.0 2.0 A 10 10 0 0 1 14.149704402110242 2.233794442899134"/>
<path d="M 14.149704402110242 2.233794442899134 L 14.364674842321268 1.2571738871890474"/>
<path d="M 16.198891015602648 2.9242458032904306 A 10 10 0 0 1 18.051742151937653 4.039069342943563"/>
<path d="M 18.051742151937653 4.039069342943563 A 10 10 0 0 1 19.621620551276365 5.526137152181722"/>
<path d="M 19.621620551276365 5.5261371521817235 A 10 10 0 0 1 20.83512044446023 7.3159155930020985"/>
<path d="M 20.83512044446023 7.315915593002099 L 21.718632488906252 6.84750715230231"/>
<path d="M 20.83512044446023 7.3159155930020985 A 10 10 0 0 1 21.635499925192228 9.324716614707793"/>
<path d="M 21.635499925192228 9.324716614707791 L 22.599049917711454 9.057188276178572"/>
<path d="M 21.289767198167915 15.701381553399145 A 10 10 0 0 1 20.276889981568907 17.611870653623825"/>
<path d="M 20.276889981568907 17.611870653623825 L 21.104578979725794 18.173057718986207"/>
<path d="M 20.276889981568907 17.611870653623825 A 10 10 0 0 1 18.87699458853423 19.25995491923131"/>
<path d="M 18.876994588534235 19.259954919231305 A 10 10 0 0 1 17.155538571770222 20.56857176167589"/>
<path d="M 18.876994588534235 19.259954919231305 L 19.56469404738766 19.985950411154437"/>
<path d="M 17.155538571770222 20.56857176167589 A 10 10 0 0 1 15.193015301359802 21.476531711828024"/>
<path d="M 15.193015301359802 21.476531711828024 A 10 10 0 0 1 13.08119018423942 21.941379571543596"/>
<path d="M 13.08119018423942 21.941379571543596 A 10 10 0 0 1 10.918809815760582 21.941379571543596"/>
<path d="M 13.081190184239418 21.941379571543596 L 13.18930920266336 22.935517528697957"/>
<path d="M 10.918809815760582 21.941379571543596 L 10.81069079733664 22.935517528697957"/>
<path d="M 8.8069846986402 21.476531711828024 A 10 10 0 0 1 6.844461428229781 20.56857176167589"/>
<path d="M 6.844461428229786 20.568571761675894 A 10 10 0 0 1 5.123005411465769 19.259954919231312"/>
<path d="M 6.844461428229785 20.568571761675894 L 6.328907571052763 21.425428937843485"/>
<path d="M 5.1230054114657655 19.25995491923131 A 10 10 0 0 1 3.723110018431095 17.611870653623825"/>
<path d="M 5.123005411465765 19.259954919231305 L 4.435305952612341 19.985950411154437"/>
<path d="M 3.723110018431095 17.611870653623825 A 10 10 0 0 1 2.7102328018320865 15.701381553399145"/>
<path d="M 2.7102328018320865 15.701381553399145 A 10 10 0 0 1 2.1317347745847393 13.617819965527648"/>
<path d="M 2.1317347745847393 13.617819965527646 L 1.1449082520432121 13.779601962080411"/>
<path d="M 2.0146658614887603 11.458610914145833 A 10 10 0 0 1 2.3645000748077685 9.324716614707798"/>
<path d="M 2.0146658614887603 11.458610914145831 L 1.016132447637636 11.404472005560415"/>
<path d="M 3.164879555539768 7.315915593002104 A 10 10 0 0 1 4.378379448723631 5.526137152181729"/>
<path d="M 4.378379448723631 5.526137152181729 A 10 10 0 0 1 5.948257848062344 4.039069342943565"/>
<path d="M 5.948257848062346 4.039069342943565 L 5.34308363286858 3.242976277237922"/>
<path d="M 7.8011089843973505 2.9242458032904306 A 10 10 0 0 1 9.850295597889756 2.233794442899134"/>
<path d="M 9.635325157678732 1.2571738871890474 A 11 11 0 0 1 11.999999999999996 1.0"/>
<path d="M 12.0 1.0 A 11 11 0 0 1 14.364674842321264 1.2571738871890474"/>
<path d="M 14.364674842321264 1.2571738871890474 A 11 11 0 0 1 16.61878011716291 2.0166703836194735"/>
<path d="M 16.61878011716291 2.0166703836194735 A 11 11 0 0 1 18.656916367131416 3.2429762772379185"/>
<path d="M 20.383782606404 4.878750867399895 A 11 11 0 0 1 21.718632488906252 6.847507152302308"/>
<path d="M 22.599049917711454 9.05718827617857 A 11 11 0 0 1 22.983867552362362 11.404472005560406"/>
<path d="M 22.983867552362362 11.404472005560406 A 11 11 0 0 1 22.855091747956788 13.779601962080411"/>
<path d="M 22.218743917984703 16.07151970873906 A 11 11 0 0 1 21.104578979725794 18.173057718986204"/>
<path d="M 19.56469404738766 19.985950411154437 A 11 11 0 0 1 17.671092428947244 21.425428937843478"/>
<path d="M 17.671092428947244 21.425428937843478 A 11 11 0 0 1 15.512316831495781 22.424184883010824"/>
<path d="M 8.487683168504219 22.424184883010827 A 11 11 0 0 1 6.32890757105276 21.42542893784348"/>
<path d="M 4.435305952612342 19.985950411154437 A 11 11 0 0 1 2.8954210202742043 18.173057718986207"/>
<path d="M 1.781256082015295 16.07151970873906 A 11 11 0 0 1 1.1449082520432121 13.779601962080413"/>
<path d="M 1.016132447637636 11.404472005560416 A 11 11 0 0 1 1.4009500822885457 9.057188276178579"/>
<path d="M 1.4009500822885474 9.05718827617857 A 11 11 0 0 1 2.281367511093748 6.847507152302306"/>
<path d="M 2.2813675110937446 6.847507152302314 A 11 11 0 0 1 3.616217393595994 4.878750867399901"/>
<path d="M 3.616217393595994 4.878750867399901 A 11 11 0 0 1 5.343083632868579 3.242976277237922"/>
<path d="M 5.343083632868579 3.242976277237922 A 11 11 0 0 1 7.381219882837086 2.0166703836194735"/>
</svg>
</svg>
