<svg viewBox="0 0 10 10" xmlns="http://www.w3.org/2000/svg" style="background-color: #2c2e00;">

    <defs>
      <style>
        .yellow_keyhole path {
          stroke: #f6ff00;
          stroke-width: 0.07459497078611202;
          stroke-linecap: round;
          fill: none;
        }
      </style>
    </defs>

		<title>
			A simple graphic made of thin, yellow, circular lines.
			There's a gap in the middle of the circle, which looks a bit like a keyhole.
		</title>

<svg class="yellow_keyhole">
<path d="M 5.0 4.0 L 5.0 3.0"/>
<path d="M 5.951056516295154 4.6909830056250525 A 1 1 0 0 1 5.587785252292473 5.8090169943749475"/>
<path d="M 5.951056516295154 4.6909830056250525 L 6.902113032590307 4.381966011250105"/>
<path d="M 4.412214747707527 5.8090169943749475 A 1 1 0 0 1 4.048943483704846 4.6909830056250525"/>
<path d="M 5.0 3.0 A 2 2 0 0 1 6.902113032590307 4.381966011250105"/>
<path d="M 5.587785252292473 5.8090169943749475 A 1 1 0 0 1 4.412214747707527 5.8090169943749475"/>
<path d="M 4.412214747707527 5.8090169943749475 L 3.8244294954150537 6.618033988749895"/>
<path d="M 6.175570504584947 6.618033988749895 L 6.763355756877419 7.427050983124842"/>
<path d="M 6.175570504584947 6.618033988749895 A 2 2 0 0 1 3.824429495415054 6.618033988749895"/>
<path d="M 3.824429495415054 6.618033988749895 A 2 2 0 0 1 3.0978869674096927 4.381966011250105"/>
<path d="M 3.0978869674096927 4.381966011250105 L 2.146830451114539 4.072949016875158"/>
<path d="M 2.146830451114539 4.0729490168751585 A 3 3 0 0 1 4.999999999999999 2.0"/>
<path d="M 5.0 2.0 L 5.000000000000001 1.0"/>
<path d="M 7.853169548885461 4.072949016875158 A 3 3 0 0 1 6.76335575687742 7.4270509831248415"/>
<path d="M 6.763355756877419 7.427050983124842 L 7.3511410091698925 8.23606797749979"/>
<path d="M 3.236644243122581 7.427050983124842 L 2.6488589908301075 8.23606797749979"/>
<path d="M 3.236644243122581 7.427050983124842 A 3 3 0 0 1 2.146830451114539 4.0729490168751585"/>
<path d="M 5.0 1.0 A 4 4 0 0 1 8.804226065180615 3.76393202250021"/>
<path d="M 2.648858990830108 8.23606797749979 A 4 4 0 0 1 1.1957739348193854 3.763932022500211"/>
</svg>
</svg>
