<svg xmlns="http://www.w3.org/2000/svg" viewBox="0 0 500 550"><marker id="arrowhead" markerWidth="8" markerHeight="5.6" refX="0" refY="2.8" orient="auto"><polygon fill="#000" points="0 0, 8 2.8, 0 5.6"/></marker><line x1="75" x2="450" y1="125" y2="125" stroke-width="0.75" stroke="#bbb"/><line y1="50" y2="450" x1="150" x2="150" stroke-width="0.75" stroke="#bbb"/><line y1="40" y2="60" x1="150" x2="150" stroke-width="3" stroke="black"/><text x="150" y="23" text-anchor="middle" dominant-baseline="middle" font-size="24px">1</text><line x1="65" x2="85" y1="125" y2="125" stroke-width="3" stroke="black"/><text y="125" x="48" text-anchor="middle" dominant-baseline="middle" font-size="24px">1</text><line x1="75" x2="450" y1="200" y2="200" stroke-width="0.75" stroke="#bbb"/><line y1="50" y2="450" x1="225" x2="225" stroke-width="0.75" stroke="#bbb"/><line y1="40" y2="60" x1="225" x2="225" stroke-width="3" stroke="black"/><text x="225" y="23" text-anchor="middle" dominant-baseline="middle" font-size="24px">2</text><line x1="65" x2="85" y1="200" y2="200" stroke-width="3" stroke="black"/><text y="200" x="48" text-anchor="middle" dominant-baseline="middle" font-size="24px">2</text><line x1="75" x2="450" y1="275" y2="275" stroke-width="0.75" stroke="#bbb"/><line y1="50" y2="450" x1="300" x2="300" stroke-width="0.75" stroke="#bbb"/><line y1="40" y2="60" x1="300" x2="300" stroke-width="3" stroke="black"/><text x="300" y="23" text-anchor="middle" dominant-baseline="middle" font-size="24px">3</text><line x1="65" x2="85" y1="275" y2="275" stroke-width="3" stroke="black"/><text y="275" x="48" text-anchor="middle" dominant-baseline="middle" font-size="24px">3</text><line x1="75" x2="450" y1="350" y2="350" stroke-width="0.75" stroke="#bbb"/><line y1="50" y2="450" x1="375" x2="375" stroke-width="0.75" stroke="#bbb"/><line y1="40" y2="60" x1="375" x2="375" stroke-width="3" stroke="black"/><text x="375" y="23" text-anchor="middle" dominant-baseline="middle" font-size="24px">4</text><line x1="65" x2="85" y1="350" y2="350" stroke-width="3" stroke="black"/><text y="350" x="48" text-anchor="middle" dominant-baseline="middle" font-size="24px">4</text><line x1="75" x2="450" y1="50" y2="50" stroke-width="3" stroke="black" marker-end="url(#arrowhead)"/><text x="490" y="50" text-anchor="middle" dominant-baseline="middle" font-size="28px" font-family="serif" font-style="italic">x</text><line x1="75" x2="75" y1="50" y2="450" stroke-width="3" stroke="black" marker-end="url(#arrowhead)"/><text x="75" y="490" text-anchor="middle" dominant-baseline="middle" font-size="28px" font-family="serif" font-style="italic">y</text><circle cx="75" cy="50" r="10" fill="#11a01c"/><text x="64" y="39" text-anchor="end" dominant-baseline="baseline" font-size="28px" font-family="serif" fill="#11a01c">(0, 0)</text><circle cx="225" cy="275" r="10" fill="#0C34D4"/><line stroke="#0C34D4" stroke-dasharray="5,5" stroke-width="5px" x1="90" y1="275" x2="225" y2="275"/><line stroke="#0C34D4" stroke-dasharray="5,5" stroke-width="5px" x1="225" y1="65" x2="225" y2="275"/><text x="232" y="289" text-anchor="start" dominant-baseline="hanging" font-size="28px" font-family="serif" fill="#0C34D4">(2, 3)</text><circle cx="330.0" cy="140.0" r="10" fill="#d01c11"/><line stroke="#d01c11" stroke-dasharray="3,4" stroke-width="5px" x1="75" y1="140.0" x2="330.0" y2="140.0"/><line stroke="#d01c11" stroke-dasharray="3,4" stroke-width="5px" x1="330.0" y1="50" x2="330.0" y2="140.0"/><text x="337.0" y="154.0" text-anchor="start" dominant-baseline="hanging" font-size="28px" font-family="serif" fill="#d01c11">(3.4, 1.2)</text></svg>
