<svg
   xmlns:svg="http://www.w3.org/2000/svg"
   xmlns:xlink="http://www.w3.org/1999/xlink"
   xmlns="http://www.w3.org/2000/svg"
   width="197.17"
   height="170">

  <defs>
    <g id="colouredRectangle">
      <rect
         style="fill-rule:evenodd;stroke:#000000;stroke-width:1.5;stroke-linecap:butt;stroke-linejoin:miter;stroke-miterlimit:4;stroke-dasharray:none;stroke-opacity:1"
         width="11"
         height="11"
         x="0"
         y="0"
         rx="3"
         ry="1" />
    </g>

    <g id="colouredMean">
      <path
         style="stroke:#000000;stroke-width:1.5;stroke-miterlimit:4;stroke-dasharray:none"
         d="M 82.14286 16.785713 A 7.5 6.7857141 0 1 1  67.14286,16.785713 A 7.5 6.7857141 0 1 1  82.14286 16.785713 z"/>
     </g>
  </defs>

  <path style="fill:#afc6e9;fill-rule:evenodd;stroke:#000000;stroke-width:1px;stroke-linecap:butt;stroke-linejoin:miter;stroke-opacity:1"
     d="M 123.57143,170 L 197.14286,170 L 197.14286,0 L 123.57143,62 L 123.57143,170 z "/>
  <path
     style="fill:#ccffaa;fill-rule:evenodd;stroke:#000000;stroke-width:1px;stroke-linecap:butt;stroke-linejoin:miter;stroke-opacity:1"
     d="M 0,62 L 123.57143,62 L 123.57143,170 L 0,170 L 0,62 z "/>
  <path
     style="fill:#ff8080;fill-rule:evenodd;stroke:#000000;stroke-width:1px;stroke-linecap:butt;stroke-linejoin:miter;stroke-opacity:1"
     d="M 0,62 L 123.57143,62 L 197.14286,0 L 0,0 L 0,62 z "/>
  <use xlink:href="#colouredRectangle" x="43.892857" y="46.392857" fill="#ff0000"/>
  <use xlink:href="#colouredRectangle" x="43.892857" y="64.25" fill="#00ff00"/>
  <use xlink:href="#colouredRectangle" x="43.892857" y="83.535713" fill="#00ff00"/>
  <use xlink:href="#colouredRectangle" x="158.07144" y="43.785713" fill="#0000ff"/>
  <use xlink:href="#colouredRectangle" x="158.07144" y="62.35714" fill="#0000ff"/>
  <use xlink:href="#colouredRectangle" x="158.07143" y="78.785713" fill="#0000ff"/>
  <use xlink:href="#colouredRectangle" x="73.785713" y="118.07142" fill="#00ff00"/>
  <use xlink:href="#colouredRectangle" x="73.071434" y="136.64287" fill="#00ff00"/>
  <use xlink:href="#colouredRectangle" x="90.214287" y="150.21429" fill="#00ff00"/>
  <use xlink:href="#colouredRectangle" x="110.21429" y="150.92857" fill="#00ff00"/>
  <use xlink:href="#colouredRectangle" x="128.07143" y="116.64285" fill="#0000ff"/>
  <use xlink:href="#colouredRectangle" x="128.78572" y="135.92857" fill="#0000ff"/>

  <use xlink:href="#colouredMean" x="0" y="0" fill="#ff0000"
    transform="matrix(0.9048697,0,0,1.0001192,9.9579377,5.7122872)"/>
  <use xlink:href="#colouredMean" x="0" y="0" fill="#00ff00"
    transform="matrix(0.9048697,0,0,1.0001192,9.9579377,85.712288)"/>
  <use xlink:href="#colouredMean" x="0" y="0" fill="#0000ff"
    transform="matrix(0.9048697,0,0,1.0001192,89.957938,85.712287)"/>
</svg>
