<svg xmlns="http://www.w3.org/2000/svg" viewBox="0 0 600 400"><marker id="arrowhead" markerWidth="8" markerHeight="5.6" refX="0" refY="2.8" orient="auto"><polygon fill="#000" points="0 0, 8 2.8, 0 5.6"/></marker><line x1="137.5" y1="114.9519052838329" x2="535.0" y2="114.9519052838329" stroke-width="0.75" stroke="#bbb"/><line x1="175.0" y1="50.0" x2="373.75000000000006" y2="394.24509800431434" stroke-width="0.75" stroke="#bbb"/><line x1="175.0" y1="50.0" x2="137.5" y2="114.9519052838329" stroke-width="0.75" stroke="#bbb"/><line x1="182.5" y1="62.99038105676658" x2="167.5" y2="37.00961894323342" stroke-width="3" stroke="black"/><text x="156.5" y="17.957060059975774" text-anchor="middle" dominant-baseline="middle" font-size="24px">1</text><line x1="152.5" y1="114.9519052838329" x2="122.5" y2="114.9519052838329" stroke-width="3" stroke="black"/><text x="100.5" y="114.9519052838329" text-anchor="middle" dominant-baseline="middle" font-size="24px">1</text><line x1="175.0" y1="179.9038105676658" x2="572.5" y2="179.9038105676658" stroke-width="0.75" stroke="#bbb"/><line x1="250.0" y1="50.0" x2="448.75000000000006" y2="394.24509800431434" stroke-width="0.75" stroke="#bbb"/><line x1="250.0" y1="50.0" x2="175.0" y2="179.9038105676658" stroke-width="0.75" stroke="#bbb"/><line x1="257.5" y1="62.99038105676658" x2="242.5" y2="37.00961894323342" stroke-width="3" stroke="black"/><text x="231.5" y="17.957060059975774" text-anchor="middle" dominant-baseline="middle" font-size="24px">2</text><line x1="190.0" y1="179.9038105676658" x2="160.0" y2="179.9038105676658" stroke-width="3" stroke="black"/><text x="138.0" y="179.9038105676658" text-anchor="middle" dominant-baseline="middle" font-size="24px">2</text><line x1="212.50000000000003" y1="244.85571585149867" x2="535.0" y2="244.85571585149867" stroke-width="0.75" stroke="#bbb"/><line x1="325.0" y1="50.0" x2="486.25" y2="329.29319272048144" stroke-width="0.75" stroke="#bbb"/><line x1="325.0" y1="50.0" x2="212.50000000000003" y2="244.85571585149867" stroke-width="0.75" stroke="#bbb"/><line x1="332.5" y1="62.99038105676658" x2="317.5" y2="37.00961894323342" stroke-width="3" stroke="black"/><text x="306.5" y="17.957060059975774" text-anchor="middle" dominant-baseline="middle" font-size="24px">3</text><line x1="227.50000000000003" y1="244.85571585149867" x2="197.50000000000003" y2="244.85571585149867" stroke-width="3" stroke="black"/><text x="175.50000000000003" y="244.85571585149867" text-anchor="middle" dominant-baseline="middle" font-size="24px">3</text><line x1="250.00000000000003" y1="309.8076211353316" x2="497.5" y2="309.8076211353316" stroke-width="0.75" stroke="#bbb"/><line x1="400.0" y1="50.0" x2="523.75" y2="264.34128743664854" stroke-width="0.75" stroke="#bbb"/><line x1="400.0" y1="50.0" x2="250.00000000000003" y2="309.8076211353316" stroke-width="0.75" stroke="#bbb"/><line x1="407.5" y1="62.99038105676658" x2="392.5" y2="37.00961894323342" stroke-width="3" stroke="black"/><text x="381.5" y="17.957060059975774" text-anchor="middle" dominant-baseline="middle" font-size="24px">4</text><line x1="265.0" y1="309.8076211353316" x2="235.00000000000003" y2="309.8076211353316" stroke-width="3" stroke="black"/><text x="213.00000000000003" y="309.8076211353316" text-anchor="middle" dominant-baseline="middle" font-size="24px">4</text><line x1="475.0" y1="50.0" x2="287.5" y2="374.7595264191645" stroke-width="0.75" stroke="#bbb"/><line x1="523.75" y1="95.46633369868303" x2="351.25000000000006" y2="394.24509800431434" stroke-width="0.75" stroke="#bbb"/><line x1="561.25" y1="160.4182389825159" x2="426.25000000000006" y2="394.24509800431434" stroke-width="0.75" stroke="#bbb"/><line x1="100" y1="50" x2="475.0" y2="50.0" stroke-width="3" stroke="black" marker-end="url(#arrowhead)"/><line x1="100" y1="50" x2="287.5" y2="374.7595264191645" stroke-width="3" stroke="black" marker-end="url(#arrowhead)"/><circle cx="100" cy="50" r="10" fill="#11a01c"/><text x="86" y="29" text-anchor="end" dominant-baseline="hanging" font-size="28px" font-family="serif" fill="#11a01c">&#12296;0, 0&#12297;</text><circle cx="362.5" cy="244.85571585149867" r="10" fill="#0C34D4"/><line stroke="#0C34D4" stroke-dasharray="5,5" stroke-width="5px" x1="232.50000000000003" y1="244.85571585149867" x2="362.5" y2="244.85571585149867"/><line stroke="#0C34D4" stroke-dasharray="5,5" stroke-width="5px" x1="260.0" y1="67.32050807568876" x2="362.5" y2="244.85571585149867"/><text x="381.0" y="250.91789367798975" text-anchor="start" dominant-baseline="hanging" font-size="28px" font-family="serif" fill="#0C34D4">&#12296;2, 3&#12297;</text><circle cx="400.0" cy="127.94228634059948" r="10" fill="#d01c11"/><line stroke="#d01c11" stroke-dasharray="5,5" stroke-width="5px" x1="145.0" y1="127.94228634059948" x2="400.0" y2="127.94228634059948"/><line stroke="#d01c11" stroke-dasharray="5,5" stroke-width="5px" x1="355.0" y1="50.0" x2="400.0" y2="127.94228634059948"/><text x="418.5" y="134.00446416709053" text-anchor="start" dominant-baseline="hanging" font-size="28px" font-family="serif" fill="#d01c11">&#12296;3.4, 1.2&#12297;</text></svg>
